<svg width="81" height="77" viewBox="0 0 81 77" fill="none" xmlns="http://www.w3.org/2000/svg">
<path d="M22.8509 38.225C23.7859 39.49 24.7117 40.7342 25.6259 41.9867C25.8084 42.2359 26.1609 42.4867 25.8175 42.8434C25.4875 43.1859 25.2492 42.8625 25 42.6859C23.6759 41.7434 22.3525 40.8009 21.0225 39.8542C15.1925 44 7.54838 42.675 3.43755 37.4175C-0.851617 31.9317 0.0558828 24.4442 4.83588 20.1025C9.76005 15.6292 17.0384 15.5642 22.0942 20.1017C27.0476 24.5475 27.8292 32.67 22.8517 38.2267L22.8509 38.225ZM11.4584 32.7C11.41 32.6942 11.3626 32.6884 11.3142 32.6825C11.3251 32.7167 11.335 32.7509 11.3459 32.7859C11.715 33.27 12.0834 33.755 12.4534 34.2392C12.6434 34.4884 12.7742 34.7609 12.4751 34.9959C12.1809 35.2267 11.9651 35.0259 11.7842 34.7859C11.4559 34.3509 11.1259 33.9184 10.795 33.4817C10.4062 33.8323 10.2914 34.2417 10.4509 34.71C10.5184 34.9059 10.5984 35.0984 10.6684 35.2934C10.7692 35.5767 10.88 35.8959 10.4984 36.0317C10.1434 36.1575 9.98005 35.895 9.87422 35.595C9.70005 35.1017 9.51672 34.6109 9.33088 34.1025C7.50672 34.9517 5.71005 35.7884 3.88505 36.6384C4.48755 37.4509 5.17838 38.1592 5.95505 38.7909C8.06922 40.5109 10.4884 41.3992 13.2084 41.4525C15.9717 41.5067 18.4534 40.6592 20.6809 39.0425C20.9267 38.8642 21.1409 38.8384 21.3892 39.0425C21.6984 39.2967 22.0275 39.5275 22.3517 39.7625C22.6734 39.9967 22.9992 40.2242 23.3234 40.455C22.9401 39.7675 22.4967 39.1534 22.0417 38.5484C21.8434 38.285 21.84 38.0625 22.0717 37.8125C22.3767 37.4834 22.655 37.13 22.9625 36.7667C21.4059 35.9409 19.8959 35.1459 18.3925 34.3384C17.9209 34.085 17.4675 33.7992 16.9209 33.4792C16.5717 33.64 16.4467 33.1625 16.1734 32.925C15.5767 33.6925 14.9942 34.4417 14.4417 35.1525C14.71 35.7292 14.9759 36.2717 15.2159 36.8259C15.3167 37.0592 15.2342 37.2567 14.9859 37.3692C14.7259 37.4875 14.5642 37.3884 14.4525 37.1517C14.3167 36.8642 14.1726 36.5809 14.0426 36.2917C13.9442 36.0742 13.855 35.9009 13.5592 35.8667C13.3225 35.8392 13.175 35.6159 13.3275 35.3634C13.5509 34.9942 13.7959 34.6359 14.0501 34.2867C14.4151 33.7859 14.7967 33.2967 15.1717 32.8034C15.2067 32.7617 15.2417 32.72 15.2775 32.6784C15.2667 32.6634 15.255 32.6484 15.2442 32.6334C15.1825 32.6634 15.1217 32.6942 15.0601 32.7242C14.9917 32.7367 14.92 32.7384 14.8567 32.7625C13.7159 33.1934 12.5842 33.1517 11.4601 32.7H11.4584ZM8.78838 28.06C8.77255 28.0025 8.75755 27.9442 8.74172 27.8867C8.90672 27.7434 9.05338 27.5384 9.24422 27.4825C9.34422 27.4525 9.56255 27.6592 9.65005 27.805C9.71672 27.9175 9.67255 28.1025 9.66005 28.2542C9.58922 29.115 9.81422 29.9 10.2676 30.6242C11.2367 32.1717 13.4009 32.685 15.0659 31.7575C15.3059 31.6242 15.5225 31.4934 15.7834 31.7092C15.8317 31.7492 15.9359 31.7142 16.0075 31.7367C16.1875 31.7942 16.4242 31.8134 16.53 31.9392C16.8217 32.285 17.0576 32.6775 17.2476 32.9525C17.5334 33.0334 17.76 33.0584 17.9484 33.1567C19.7742 34.1134 21.5934 35.0834 23.4142 36.0484C26.4017 31.7259 26.2242 24.6459 21.1467 20.41C16.5676 16.59 9.95922 16.5325 5.31922 20.8092C0.843383 24.9342 0.491717 31.6792 3.46922 35.9975C3.57755 35.915 3.67588 35.81 3.79672 35.7534C4.65922 35.3475 5.52922 34.9567 6.39255 34.5525C7.31838 34.1192 8.23755 33.67 9.16672 33.2425C9.33922 33.1634 9.55755 33.1825 9.73255 33.1067C9.91838 33.025 10.1317 32.9192 10.2359 32.76C10.3517 32.5817 10.3575 32.3325 10.3992 32.1609C10.0484 31.6759 9.60922 31.1992 9.32838 30.6442C9.04838 30.09 8.92672 29.4567 8.73005 28.8417C8.05088 28.8784 7.64922 28.6667 7.41005 28.11C7.10672 27.4042 7.32338 26.7509 8.11005 26.0117C8.06838 25.9275 8.02588 25.8409 7.98338 25.755C7.53755 24.86 7.24922 23.905 7.68088 22.9625C7.97588 22.32 8.46672 21.7617 8.79505 21.1192C8.85672 20.9984 8.95338 20.8934 9.04422 20.7892C9.90672 19.805 11.0342 19.3509 12.2917 19.1184C15.1834 18.5834 18.0559 20.4234 18.6909 23.2717C18.7942 23.7342 18.7709 24.2317 18.7567 24.7117C18.7484 25.0075 18.5259 25.1342 18.2284 25.0975C17.9509 25.0634 17.9159 24.8692 17.9284 24.6417C17.9334 24.545 17.9284 24.4475 17.9292 24.35C17.93 22.7725 17.2184 21.5842 15.9475 20.6925C14.7117 19.8259 13.3417 19.7467 11.9334 20.0459C10.7059 20.3067 9.71588 20.9342 9.16422 22.1259C9.04755 22.3784 8.86338 22.5992 8.74338 22.8509C8.59255 23.1659 8.42005 23.4867 8.35422 23.8242C8.19672 24.6284 8.78672 25.2459 8.96255 25.9709C8.97088 26.0059 9.05255 26.0334 9.10505 26.0459C9.36838 26.11 9.48922 26.2767 9.41172 26.535C9.33005 26.8075 9.11088 26.835 8.84922 26.8417C8.64505 26.8467 8.32255 26.9167 8.26922 27.0459C8.17005 27.2875 8.17338 27.61 8.24838 27.8659C8.28005 27.9742 8.60005 27.9975 8.78922 28.06H8.78838Z" fill="#2A2627"/>
<path d="M56.9133 75.3434C55.9774 74.9392 55.0441 74.5283 54.1049 74.1317C51.5724 73.0625 49.0391 71.995 46.5033 70.935C43.9033 69.8484 41.2974 68.775 38.6958 67.6909C36.7583 66.8834 34.8241 66.0659 32.8874 65.255C32.5816 65.1275 32.2774 64.9942 31.9633 64.8909C31.4899 64.735 31.2524 64.4092 31.1733 63.93C30.7874 61.5867 30.3999 59.2434 30.0033 56.9017C29.4883 53.8642 28.9633 50.8284 28.4441 47.7917C28.3066 46.9884 28.1691 46.1842 28.0449 45.3784C27.9749 44.9234 28.2708 44.6967 28.6991 44.8684C33.2541 46.6875 37.8074 48.5109 42.3641 50.3267C46.2674 51.8825 50.1699 53.4392 54.0824 54.9717C54.5924 55.1717 54.7791 55.4692 54.8466 55.995C55.1116 58.0509 55.4233 60.1009 55.7208 62.1534C55.8141 62.7959 55.9158 63.4375 56.0141 64.08C56.0208 64.2134 56.0274 64.3467 56.0299 64.3967C56.4549 64.5534 56.8183 64.6725 57.1683 64.8209C57.4216 64.9284 57.5824 65.1209 57.4516 65.415C57.3166 65.7175 57.0641 65.6817 56.8158 65.5875C56.6083 65.5092 56.4091 65.4117 56.1624 65.3034C56.2683 66.0417 56.3641 66.71 56.4491 67.3059C58.2474 68.135 60.0016 68.9375 61.7466 69.7584C61.8916 69.8267 62.0916 70.0325 62.0716 70.1375C62.0374 70.3192 61.8849 70.5459 61.7208 70.6234C60.8983 71.0133 60.0616 71.3759 59.2183 71.72C58.5633 71.9875 57.9433 72.3975 57.1583 72.2584C57.2766 73.105 57.4041 73.91 57.4966 74.7184C57.5583 75.2567 57.4374 75.3642 56.9133 75.345V75.3434ZM29.0158 45.8975C29.0108 46.0017 29.0008 46.0442 29.0074 46.0834C29.3066 47.8267 29.6108 49.5692 29.9066 51.3134C30.5833 55.3084 31.2624 59.3034 31.9199 63.3017C32.0016 63.7992 32.1924 64.0875 32.6808 64.285C35.2966 65.3417 37.8983 66.4334 40.5008 67.52C43.0399 68.58 45.5758 69.6492 48.1124 70.715C49.8974 71.4642 51.6816 72.2159 53.4674 72.9625C54.4933 73.3917 55.5233 73.8125 56.5699 74.245C56.5699 74.1517 56.5766 74.0959 56.5691 74.0425C56.2641 71.8925 55.9599 69.7425 55.6508 67.5925C55.1016 63.7725 54.5466 59.9534 54.0074 56.1317C53.9749 55.8992 53.8858 55.8125 53.6816 55.7334C52.4666 55.2642 51.2566 54.78 50.0474 54.2967C47.1983 53.1584 44.3508 52.015 41.5008 50.8784C38.4424 49.6584 35.3816 48.445 32.3224 47.2267C31.2324 46.7925 30.1449 46.3517 29.0149 45.8975H29.0158ZM60.6641 70.0884C59.3191 69.5067 57.9749 68.925 56.6366 68.3467C56.5591 68.9508 56.7641 69.2917 57.3491 69.4659C57.8983 69.6292 58.4233 69.8959 58.9324 70.1684C59.5233 70.4842 60.0808 70.6092 60.6641 70.0884ZM56.7983 70.1284C57.0158 70.5933 56.7649 71.1109 57.2374 71.34C57.8058 71.6159 58.2408 71.2317 58.7749 70.9842C58.0966 70.69 57.5024 70.4333 56.7983 70.1284Z" fill="#242021"/>
<path d="M33.9607 25.8408C32.4374 25.6133 30.9749 25.1575 29.6199 24.41C27.4515 23.2141 25.744 21.5475 24.5499 19.36C23.544 17.5175 23.0199 15.5524 22.9565 13.4608C22.9015 11.6358 23.2332 9.88412 23.9565 8.20245C25.2857 5.10995 27.5199 2.90078 30.5582 1.51995C33.1999 0.319949 35.9615 0.0766155 38.784 0.779949C41.9015 1.55662 44.3957 3.27912 46.2224 5.91162C47.4865 7.73412 48.2149 9.77745 48.434 11.9991C48.6791 14.4824 48.2274 16.8316 47.0799 19.035C45.8382 21.4183 44.004 23.2299 41.6232 24.485C40.0774 25.2999 38.4391 25.7924 36.694 25.9291C36.5949 25.9366 36.4482 26.0908 36.4257 26.1983C35.9157 28.6383 35.4165 31.0799 34.9265 33.5241C34.8665 33.8224 34.7932 34.0975 34.4332 34.0516C34.054 34.0033 34.0449 33.6808 34.0432 33.3783C34.0282 30.8958 34.0124 28.4133 33.9949 25.93C33.9949 25.905 33.9757 25.8791 33.9607 25.8408ZM34.834 28.9549C34.8815 28.9574 34.9299 28.9608 34.9774 28.9633C35.0074 28.8483 35.0432 28.7349 35.0665 28.6191C35.2524 27.6941 35.4357 26.7691 35.6207 25.8441C35.7541 25.1758 35.8182 25.1208 36.4832 25.0833C38.5724 24.9641 40.4957 24.3225 42.2382 23.1775C44.7849 21.5033 46.4515 19.1758 47.2349 16.2316C48.499 11.4791 46.8424 6.55495 42.8407 3.62495C40.1357 1.64412 37.0757 0.835782 33.7399 1.42412C29.8607 2.10912 26.9632 4.21412 25.1332 7.71245C23.8732 10.1208 23.504 12.6908 23.9899 15.3674C24.5157 18.2649 25.9707 20.6283 28.2449 22.4716C29.9882 23.885 31.9957 24.7333 34.2274 25.0375C34.7507 25.1091 34.8282 25.1983 34.8315 25.7325C34.8382 26.8075 34.8332 27.8816 34.8332 28.9566L34.834 28.9549Z" fill="#282425"/>
<path d="M60.9416 28.61C60.7366 28.0225 60.5191 27.4383 60.3316 26.8442C60.2449 26.5692 60.0941 26.43 59.8207 26.3183C57.7091 25.4525 55.6032 24.5708 53.5066 23.67C53.0832 23.4875 52.7049 23.1992 52.2607 22.9317C52.2057 23.7767 52.4132 24.5458 52.7566 25.39C51.8207 24.9167 50.9666 24.4942 50.3249 23.7683C50.2032 23.6308 50.1641 23.3108 50.2341 23.1325C50.9399 21.33 52.9291 19.5825 55.0699 19.5625C57.5782 19.5383 59.3757 20.69 60.5816 22.8242C61.3066 24.1092 61.6516 25.5167 61.7582 26.985C61.7841 27.3433 61.8124 27.7017 61.8399 28.0608C61.5407 28.2442 61.2407 28.4275 60.9416 28.6108V28.61Z" fill="#89C2EA"/>
<path d="M56.9133 75.3434C57.4375 75.3634 57.5583 75.255 57.4967 74.7167C57.4042 73.9084 57.2767 73.1034 57.1583 72.2567C57.9433 72.3959 58.5633 71.9867 59.2183 71.7184C60.0617 71.3742 60.8983 71.0117 61.7208 70.6217C61.885 70.5442 62.0375 70.3167 62.0717 70.1359C62.0917 70.0309 61.8908 69.8242 61.7467 69.7567C60.0008 68.9367 58.2475 68.1334 56.4492 67.3042C56.3642 66.7084 56.2683 66.04 56.1625 65.3017C56.4092 65.41 56.6083 65.5084 56.8158 65.5859C57.0642 65.68 57.3167 65.7159 57.4517 65.4134C57.5825 65.1192 57.4225 64.9267 57.1683 64.8192C56.8183 64.6709 56.455 64.5517 56.03 64.395C56.0275 64.345 56.0208 64.2117 56.0142 64.0784C56.7717 64.4417 57.5292 64.8025 58.2858 65.1684C58.9808 65.505 59.6742 65.8467 60.3675 66.1859C60.3533 66.5042 60.315 66.8234 60.33 67.1392C60.375 68.055 61.0175 68.8234 61.9033 69.0484C62.1267 69.105 62.3517 69.1517 62.5767 69.2009C62.9433 69.2809 63.3092 69.3625 63.6767 69.4375C63.7667 69.4559 63.8717 69.4292 63.9525 69.4634C64.8475 69.8442 65.2183 69.745 65.8392 68.9617C65.88 68.9109 65.9975 68.9209 66.0792 68.9025C66.1658 69.06 66.2517 69.2175 66.3383 69.375C63.5283 70.7067 60.7192 72.0392 57.9075 73.3675C57.6492 73.49 57.4092 73.6317 57.5633 73.9567C57.7083 74.2625 57.9717 74.2842 58.2683 74.1434C59.8017 73.4134 61.3375 72.6875 62.8733 71.9617C64.1608 71.3534 65.4483 70.7475 66.7367 70.1409C66.7425 70.6625 66.7483 71.185 66.755 71.7067C66.535 71.7875 66.3067 71.8517 66.0967 71.9525C65.4467 72.2634 64.81 72.6025 64.1575 72.9059C62.0883 73.8684 60.0125 74.8159 57.945 75.7825C57.7717 75.8634 57.6417 76.0367 57.4917 76.1675C57.3725 76.1792 57.2542 76.1909 57.08 76.2084C57.025 75.92 56.97 75.6309 56.915 75.3417L56.9133 75.3434Z" fill="#CED0D1"/>
<path d="M66.079 68.9042C65.9974 68.9225 65.879 68.9125 65.839 68.9633C65.2182 69.7467 64.8474 69.8458 63.9524 69.465C63.8715 69.4308 63.7665 69.4575 63.6765 69.4392C63.309 69.3642 62.9432 69.2825 62.5765 69.2025C62.3515 69.1533 62.1257 69.1067 61.9032 69.05C61.0174 68.825 60.3749 68.0567 60.3299 67.1408C60.314 66.8242 60.3532 66.505 60.3674 66.1875C60.5824 65.4817 60.974 64.8942 61.5599 64.445C61.7757 64.28 62.024 64.065 62.274 64.3692C62.5015 64.6458 62.3515 64.8842 62.1115 65.0767C61.459 65.6 61.0407 66.2558 61.1907 67.1108C61.249 67.4442 61.5299 67.7392 61.7099 68.0508C61.7407 68.0658 61.7724 68.0808 61.8032 68.0967C61.794 68.0567 61.7849 68.0158 61.7765 67.9758C61.469 65.89 62.7799 64.4817 64.4115 63.8917C64.6649 63.8 64.9357 63.7008 65.064 64.0642C65.1849 64.4075 64.9965 64.5692 64.694 64.6775C63.6582 65.0475 62.8949 65.6983 62.6282 66.8075C62.5065 67.3142 62.5007 67.8317 62.8365 68.2758C62.9507 68.4275 63.1274 68.5317 63.3474 68.7192C63.374 68.305 63.3599 68.0058 63.4165 67.72C63.6757 66.4167 64.5324 65.6025 65.6749 65.04C65.9507 64.9042 66.1782 65.04 66.2999 65.28C66.429 65.5358 66.2424 65.6933 66.0307 65.7975C65.3974 66.1092 64.8324 66.5067 64.524 67.1592C64.3699 67.4858 64.274 67.8542 64.2257 68.2133C64.1882 68.4875 64.3457 68.7775 64.6449 68.7775C64.8224 68.7775 65.0332 68.5825 65.1674 68.4233C65.2724 68.2983 65.3124 68.0958 65.329 67.9233C65.394 67.275 66.0315 66.5492 66.6715 66.3992C66.934 66.3375 67.1424 66.42 67.189 66.6617C67.2174 66.8067 67.119 67.0233 67.0065 67.1383C66.8565 67.2908 66.6082 67.3467 66.4582 67.5C66.3449 67.615 66.3199 67.8175 66.2557 67.9808C66.4349 68.0067 66.654 68.1125 66.7857 68.045C67.2765 67.795 67.7515 67.5058 68.2099 67.1983C68.8574 66.7633 69.3215 66.1733 69.5815 65.43C69.6782 65.1525 69.859 65.02 70.1582 65.1458C70.4357 65.2625 70.4632 65.4675 70.3657 65.725C69.7499 67.345 68.4965 68.2792 66.9432 68.8675C66.6882 68.9642 66.3699 68.8958 66.0807 68.9042H66.079Z" fill="#262223"/>
<path d="M62.9292 23.8426C63.1292 24.7676 63.2383 25.6976 63.0817 26.6426C63.0367 26.9151 62.9933 27.2051 62.6292 27.1559C62.2817 27.1092 62.1992 26.8426 62.25 26.5317C62.7317 23.5959 60.7042 20.7267 58.2708 19.6101C56.2692 18.6917 54.3258 18.8492 52.4258 19.9009C51.37 20.4859 50.4675 21.2501 49.7308 22.2092C49.68 22.2751 49.6308 22.3434 49.5725 22.4017C49.3783 22.5951 49.1683 22.6184 48.9458 22.4476C48.7 22.2601 48.795 22.0659 48.9367 21.8734C49.6583 20.8901 50.5367 20.0634 51.5725 19.4301C52.945 18.5909 54.4325 18.1409 56.0675 18.2442C57.6092 18.3417 58.9625 18.9076 60.165 19.8426C60.61 20.1884 60.995 20.6109 61.4067 20.9984C62.0908 21.8517 62.5933 22.8026 62.9292 23.8426Z" fill="#252122"/>
<path d="M71.915 54.3683C71.9317 54.6725 71.9434 54.9775 71.9659 55.2817C71.9867 55.5592 71.88 55.7567 71.5984 55.7833C71.2925 55.8125 71.1492 55.625 71.1267 55.3308C71.0434 54.24 70.9825 53.1467 70.8709 52.0592C70.6225 49.6542 70.0592 47.3183 69.2817 45.0317C68.5784 42.9608 67.675 40.9817 66.5867 39.085C66.5325 38.99 66.4725 38.8975 66.4225 38.8008C66.2859 38.5383 66.3225 38.2975 66.5909 38.1633C66.86 38.0292 67.0425 38.1583 67.1909 38.4175C68.5967 40.87 69.7225 43.4408 70.5259 46.1533C71.3209 48.8358 71.7792 51.575 71.9159 54.3683H71.915Z" fill="#242021"/>
<path d="M58.2418 37.725C58.3793 38.115 58.5135 38.4883 58.6426 38.8633C58.7226 39.0966 58.711 39.3075 58.4485 39.4191C58.1768 39.535 57.986 39.4191 57.881 39.1708C57.7318 38.8183 57.6051 38.4566 57.496 38.1716C56.6751 38.2391 55.8893 38.4083 55.1218 38.3458C52.9943 38.1733 51.5235 36.975 50.5526 35.13C50.0068 34.0925 49.7801 32.9766 49.906 31.8025C49.946 31.4275 50.336 31.2 50.5676 31.4266C50.6893 31.545 50.7351 31.795 50.7285 31.9825C50.6785 33.3441 51.0385 34.5691 51.8685 35.6575C53.7126 38.0783 56.9526 38.0475 58.9951 36.16C59.336 35.845 59.6201 35.4625 59.9018 35.0891C60.0885 34.8416 60.2876 34.7116 60.5593 34.9025C60.8176 35.0833 60.7651 35.3225 60.6093 35.5591C60.0085 36.4775 59.2284 37.2016 58.2426 37.725H58.2418Z" fill="#262223"/>
<path d="M65.2368 52.605C65.1859 50.1833 65.5384 47.4617 66.1876 44.775C66.2843 44.3742 66.5076 44.205 66.7826 44.3275C67.0093 44.4283 67.0826 44.5958 67.0293 44.865C66.7793 46.1242 66.5026 47.3817 66.3309 48.6525C65.9159 51.7208 65.9909 54.7875 66.5501 57.835C66.7293 58.8133 66.9601 59.7833 67.1909 60.7517C67.2676 61.0733 67.2384 61.3208 66.8943 61.3983C66.5584 61.4742 66.4401 61.23 66.3643 60.9508C65.6593 58.3308 65.2684 55.6667 65.2368 52.6058V52.605Z" fill="#262223"/>
<path d="M62.9292 23.8425C62.5942 22.8025 62.0909 21.8525 61.4067 20.9983C61.8159 20.595 62.1817 20.1308 62.6434 19.8017C63.8351 18.9542 65.5059 20.1517 65.7351 21.185C65.8617 21.7558 65.6251 22.2658 65.2626 22.6792C64.6517 23.3767 63.9059 23.8558 62.9284 23.8417L62.9292 23.8425Z" fill="#89C2E9"/>
<path d="M55.1199 26.6251C54.5082 26.0492 53.9024 25.4667 53.2816 24.9009C53.0749 24.7126 52.8491 24.5401 53.0791 24.2509C53.3199 23.9484 53.6016 24.0576 53.8382 24.2676C54.4899 24.8467 55.1224 25.4476 55.7791 26.0209C56.0674 26.2726 56.3816 26.5042 56.7116 26.6984C57.1499 26.9559 57.6241 27.0776 58.1441 26.9392C58.4391 26.8609 58.7132 26.9117 58.7807 27.2726C58.8441 27.6109 58.6191 27.7301 58.3349 27.7959C57.4932 27.9917 56.6557 27.9351 55.8232 27.7542C53.9916 27.3576 52.2191 26.8017 50.6374 25.7542C50.5457 25.6934 50.4541 25.6309 50.3716 25.5592C50.1466 25.3634 50.1224 25.1317 50.2982 24.8984C50.4766 24.6626 50.6899 24.7476 50.8816 24.8859C52.0732 25.7492 53.4349 26.2292 54.8249 26.6459C54.9024 26.6692 54.9824 26.6817 55.0616 26.6992C55.0807 26.6742 55.1007 26.6492 55.1199 26.6242V26.6251Z" fill="#242021"/>
<path d="M66.9483 21.4033C67.0525 22.9542 65.895 24.5275 64.3741 24.895C64.1108 24.9583 63.91 24.8875 63.815 24.6117C63.7158 24.3208 63.8525 24.165 64.1166 24.085C65.2075 23.755 65.9033 23.0492 66.0691 21.9108C66.2366 20.7617 65.7141 19.7592 64.765 19.2767C63.8 18.7867 62.7158 18.9683 61.8508 19.7492C61.7266 19.8608 61.555 19.9717 61.4 19.9808C61.295 19.9867 61.1016 19.8233 61.0883 19.7175C61.0675 19.5542 61.115 19.3308 61.2216 19.21C62.05 18.27 63.6091 17.9025 64.7691 18.3633C66.1441 18.91 66.8325 19.955 66.9483 21.4042V21.4033Z" fill="#252122"/>
<path d="M55.5933 40.8483C55.3449 41.18 55.1483 41.4741 54.9208 41.7425C52.9624 44.0533 51.3224 46.5766 49.9016 49.2458C49.8566 49.3308 49.8091 49.4158 49.7616 49.5C49.6258 49.7383 49.4458 49.85 49.1799 49.69C48.9291 49.5391 48.9058 49.3175 49.0233 49.08C49.1758 48.7725 49.3499 48.475 49.5158 48.1733C50.9916 45.4841 52.7408 42.9825 54.7258 40.6466C54.8291 40.525 55.0608 40.4333 55.2141 40.4558C55.3424 40.475 55.4433 40.6816 55.5941 40.8475L55.5933 40.8483Z" fill="#242021"/>
<path d="M66.735 70.1426C65.4475 70.7493 64.1592 71.3551 62.8717 71.9634C61.3359 72.6893 59.8009 73.4151 58.2667 74.1451C57.9709 74.2859 57.7075 74.2634 57.5617 73.9584C57.4075 73.6334 57.6475 73.4909 57.9059 73.3693C60.7167 72.0401 63.5267 70.7084 66.3367 69.3768C66.4784 69.3376 66.6442 69.2326 66.7559 69.2743C66.9125 69.3326 67.16 69.5526 67.1367 69.6109C67.0575 69.8101 66.8767 69.9693 66.7342 70.1434L66.735 70.1426Z" fill="#2C2829"/>
<path d="M57.4901 76.1691C57.6401 76.0383 57.7701 75.8649 57.9434 75.7841C60.0109 74.8183 62.0868 73.8699 64.1559 72.9074C64.8093 72.6041 65.4459 72.2649 66.0951 71.9541C66.3059 71.8533 66.5334 71.7891 66.7534 71.7083C66.8909 71.8466 67.1309 71.9816 67.1359 72.1249C67.1418 72.2683 66.9418 72.4833 66.7809 72.5591C64.1526 73.8058 61.5168 75.0349 58.8818 76.2674C58.6568 76.3724 58.4334 76.4824 58.2009 76.5691C57.7968 76.7191 57.6026 76.6041 57.4893 76.1691H57.4901Z" fill="#272324"/>
<path d="M58.3901 40.8784C57.6135 40.7534 56.8368 40.6334 56.061 40.5001C55.7626 40.4492 55.5751 40.2667 55.6435 39.9509C55.721 39.5959 56.0126 39.6092 56.2776 39.6817C57.9835 40.1492 59.6418 39.9967 61.2593 39.31C62.1635 38.9259 62.9451 38.3609 63.6185 37.6492C63.6968 37.5667 63.7068 37.4217 63.7801 37.3309C63.8926 37.19 64.0385 36.9609 64.1601 36.9675C64.3493 36.9775 64.5868 37.1142 64.6943 37.2726C64.7676 37.3801 64.716 37.6634 64.6168 37.785C63.166 39.5759 61.2535 40.5092 58.9843 40.7567C58.7918 40.7776 58.5976 40.7825 58.4043 40.795C58.3993 40.8225 58.3951 40.8501 58.3901 40.8776V40.8784Z" fill="#262223"/>
<path d="M80.9934 69.7701C80.9967 70.2134 80.7534 70.3801 80.4225 70.2668C79.4817 69.9426 78.5367 69.6276 77.6084 69.2701C75.9592 68.6359 74.3184 67.9784 72.6809 67.3134C72.5017 67.2409 72.3084 67.0843 72.2317 66.9159C72.1701 66.7793 72.2192 66.5192 72.3217 66.4042C72.4075 66.3067 72.6726 66.2676 72.8026 66.3259C73.4617 66.6251 74.0809 67.0201 74.7534 67.2801C76.66 68.0167 78.5884 68.6993 80.5017 69.4193C80.7076 69.4968 80.8726 69.6817 80.9934 69.7701Z" fill="#242021"/>
<path d="M60.9417 28.6099C61.2408 28.4266 61.5408 28.2433 61.84 28.0599C62.7658 27.8499 63.5883 28.0349 64.1942 28.7908C64.7558 29.4924 64.8533 30.2883 64.5025 31.1316C64.0658 32.1816 62.6775 32.8391 61.5992 32.4941C61.35 32.4141 61.1725 32.2574 61.2525 31.9708C61.345 31.6416 61.6083 31.6333 61.8883 31.6849C62.7508 31.8441 63.5075 31.4374 63.7892 30.6666C64.0392 29.9824 63.6375 29.1549 62.9208 28.8799C62.27 28.6299 61.6075 28.9533 61.3358 29.6674C61.2325 29.9391 61.1192 30.1424 60.7683 30.0158C60.4133 29.8883 60.4417 29.6483 60.56 29.3824C60.6767 29.1208 60.8125 28.8666 60.94 28.6099H60.9417Z" fill="#262223"/>
<path d="M43.6499 42.4608C43.5083 42.3542 43.3208 42.285 43.2949 42.1758C43.2599 42.0308 43.2983 41.8033 43.3974 41.7033C43.8449 41.2517 44.3216 40.8292 44.7941 40.4025C45.7991 39.4942 46.8083 38.5892 47.8158 37.6833C47.8774 37.6275 47.9316 37.56 48.0016 37.5183C48.2216 37.3866 48.4583 37.3417 48.6349 37.5683C48.8116 37.7942 48.7233 38.0017 48.5233 38.1817C47.7016 38.9225 46.8858 39.67 46.0633 40.41C45.4058 41.0025 44.7458 41.5917 44.0808 42.1758C43.9616 42.2808 43.8133 42.3542 43.6491 42.4608H43.6499Z" fill="#252122"/>
<path d="M72.1674 57.9191C72.0882 59.6408 71.8366 61.335 71.3882 62.9983C71.3199 63.2525 71.2266 63.5391 70.8682 63.4516C70.5266 63.3683 70.4766 63.135 70.5649 62.8091C71.0557 60.9991 71.3066 59.1541 71.3191 57.2775C71.3207 56.97 71.4399 56.7533 71.7782 56.7691C72.1016 56.7841 72.1732 57.0183 72.1691 57.2958C72.1657 57.5041 72.1691 57.7116 72.1691 57.92L72.1674 57.9191Z" fill="#272324"/>
<path d="M40.9375 33.9383C40.7716 33.9383 40.605 33.9258 40.44 33.9408C40.1791 33.965 40.0083 33.8866 39.9783 33.6025C39.9483 33.3133 40.1033 33.145 40.3641 33.115C40.845 33.0608 41.3291 33.0416 41.8116 33.0133C43.0816 32.9383 44.3516 32.8675 45.6216 32.7941C45.875 32.7791 46.1075 32.8025 46.1525 33.1158C46.1975 33.4266 46.0141 33.5941 45.7383 33.625C45.245 33.6808 44.7475 33.705 44.2508 33.7341C43.1466 33.7983 42.0416 33.8566 40.9366 33.9166C40.9366 33.9241 40.9366 33.9308 40.9366 33.9383H40.9375Z" fill="#262223"/>
<path d="M47.0658 35.71C47.1816 35.8408 47.3766 35.9666 47.41 36.1266C47.4341 36.245 47.2808 36.4791 47.1508 36.5383C46.1575 36.9858 45.1516 37.405 44.1483 37.8291C43.5516 38.0816 42.955 38.3366 42.3516 38.5716C42.2233 38.6216 42.0391 38.6458 41.9283 38.5891C41.8033 38.525 41.6625 38.3591 41.6566 38.2316C41.6516 38.1175 41.795 37.94 41.9158 37.885C42.7691 37.4958 43.6325 37.1283 44.495 36.7591C45.1541 36.4766 45.8158 36.2008 46.4783 35.9258C46.6425 35.8575 46.8125 35.8033 47.0666 35.71H47.0658Z" fill="#272324"/>
<path d="M47.1425 26.3383C47.1083 25.2817 47.4925 24.405 48.2775 23.6975C48.5108 23.4875 48.7258 23.4567 48.9558 23.7025C49.1866 23.9492 49.0458 24.1325 48.8625 24.3033C48.0841 25.0283 47.7941 25.91 48.0875 26.9342C48.1866 27.28 48.4075 27.5992 48.6125 27.9042C48.7883 28.1658 48.8933 28.4158 48.6058 28.6258C48.3091 28.8425 48.1008 28.6417 47.92 28.3967C47.4666 27.7842 47.1491 27.1233 47.1408 26.3392L47.1425 26.3383Z" fill="#262223"/>
<path d="M55.6359 35.205C55.0959 35.1391 54.5809 35.09 54.0726 35.0058C53.9367 34.9833 53.7576 34.8816 53.7059 34.7683C53.6384 34.6175 53.6159 34.3841 53.6909 34.2533C53.7484 34.1525 54.0251 34.0725 54.1376 34.125C54.7084 34.3916 55.2509 34.3708 55.8167 34.1166C56.0876 33.995 56.3142 34.12 56.3951 34.4091C56.7067 35.5208 56.2609 36.595 54.9192 36.6941C54.6309 36.7158 54.3759 36.6666 54.3376 36.3233C54.2984 35.9725 54.5409 35.8575 54.8317 35.8516C55.3084 35.8433 55.5851 35.6291 55.6351 35.205H55.6359Z" fill="#262223"/>
<path d="M66.2067 62.0425C67.4417 62.0825 68.3792 62.5133 69.2084 63.21C69.4192 63.3875 69.485 63.6033 69.3017 63.8275C69.125 64.0416 68.9359 64.0275 68.6859 63.8741C68.1642 63.555 67.6359 63.2058 67.0617 63.0241C66.6092 62.8808 66.0809 62.9366 65.59 62.9675C65.2975 62.9858 65.0817 62.9533 65.0125 62.6575C64.9434 62.3625 65.0925 62.1825 65.3984 62.1441C65.7134 62.105 66.0284 62.065 66.2067 62.0425Z" fill="#252122"/>
<path d="M49.4368 27.2483C49.8243 27.3275 49.9218 27.5208 49.9126 27.7641C49.8793 28.6766 50.1351 29.495 50.6326 30.2583C50.7051 30.3691 50.6284 30.6791 50.5159 30.785C50.3226 30.9666 50.0718 30.905 49.9118 30.6716C49.4251 29.9641 49.1476 29.18 49.0851 28.3233C49.071 28.1308 49.0259 27.9191 49.0843 27.7475C49.1468 27.5625 49.3151 27.4133 49.4376 27.2491L49.4368 27.2483Z" fill="#242021"/>
<path d="M52.4175 31.2466C52.3709 31.3058 52.2784 31.5291 52.1184 31.5991C51.8725 31.7066 51.7042 31.5383 51.5742 31.2983C51.4692 31.1041 51.2834 30.9499 51.1184 30.7933C50.94 30.6241 50.8401 30.4541 50.9917 30.2158C51.1417 29.9799 51.3359 30.0024 51.5625 30.0883C52.2842 30.3599 52.3959 30.4858 52.4175 31.2466Z" fill="#2D292A"/>
<path d="M56.3643 30.7517C56.2759 30.8367 56.1576 31.04 56.0076 31.0667C55.8668 31.0917 55.6634 30.96 55.5393 30.8425C55.3684 30.6809 55.2659 30.4476 55.0968 30.2826C54.9043 30.0951 54.7318 29.9226 54.9034 29.6467C55.0743 29.3726 55.2951 29.5234 55.5426 29.5417C56.2926 29.5959 56.2301 30.1576 56.3634 30.7509L56.3643 30.7517Z" fill="#2E2A2B"/>
<path d="M53.3858 31.9976C53.7466 32.4284 54.0749 32.7101 54.2483 33.0667C54.3616 33.3001 54.0874 33.4801 53.8158 33.4692C53.4124 33.4517 52.9649 33.0067 53.0033 32.6142C53.0199 32.4426 53.1991 32.2867 53.3858 31.9976Z" fill="#302C2D"/>
<path d="M29.0158 45.8975C30.1458 46.3516 31.2333 46.7925 32.3233 47.2266C35.3825 48.445 38.4433 49.6583 41.5017 50.8783C44.3517 52.015 47.1992 53.1583 50.0483 54.2966C51.2583 54.78 52.4675 55.2641 53.6825 55.7333C53.8867 55.8125 53.9758 55.8991 54.0083 56.1316C54.5475 59.9533 55.1025 63.7725 55.6517 67.5925C55.9608 69.7425 56.265 71.8925 56.57 74.0425C56.5775 74.0958 56.5708 74.1516 56.5708 74.245C55.5233 73.8125 54.4942 73.3916 53.4683 72.9625C51.6825 72.2158 49.8983 71.4641 48.1133 70.715C45.5758 69.65 43.0408 68.5808 40.5017 67.52C37.8983 66.4333 35.2967 65.3416 32.6817 64.285C32.1925 64.0875 32.0025 63.7991 31.9208 63.3016C31.2633 59.3033 30.5842 55.3083 29.9075 51.3133C29.6125 49.5691 29.3075 47.8266 29.0083 46.0833C29.0017 46.0441 29.0117 46.0016 29.0167 45.8975H29.0158Z" fill="#D0D1D2"/>
<path d="M60.6643 70.0883C60.0818 70.6092 59.5235 70.4834 58.9326 70.1684C58.4243 69.8967 57.8985 69.63 57.3493 69.4659C56.7643 69.2917 56.5593 68.9508 56.6368 68.3467C57.9751 68.9258 59.3185 69.5067 60.6643 70.0883Z" fill="#C5C7C8"/>
<path d="M56.7983 70.1284C57.5025 70.4334 58.0967 70.6909 58.775 70.9843C58.2408 71.2318 57.8058 71.6151 57.2375 71.3401C56.765 71.1109 57.015 70.5934 56.7983 70.1284Z" fill="#C5C7C8"/>
<path d="M17.4834 26.0658C17.3542 25.585 17.2375 25.1008 17.0859 24.6275C17.0492 24.5117 16.9059 24.3567 16.7992 24.3467C15.3984 24.2192 14.4175 23.3817 13.5025 22.4283C13.4275 22.35 13.3567 22.2683 13.2659 22.1683C11.9792 23.1242 10.7584 24.1483 9.2792 24.7742C8.8492 23.8517 9.2992 22.1658 10.1342 21.4883C11.5567 20.3333 14.185 20.1108 15.7534 21.0383C16.8475 21.685 17.3667 22.7308 17.575 23.9317C17.6925 24.61 17.6942 25.3075 17.7484 25.9967C17.66 26.02 17.5717 26.0433 17.4825 26.0667L17.4834 26.0658Z" fill="#89C3EA"/>
<path d="M17.4832 26.0658C17.5716 26.0424 17.6607 26.0191 17.7491 25.9958C18.3974 25.9041 18.9424 26.0774 19.2599 26.6783C19.5674 27.2599 19.5457 27.8499 19.1507 28.3983C18.8241 28.8524 18.3682 28.9249 17.8449 28.7949C17.7541 29.6283 17.5407 30.4041 17.0824 31.0999C16.9091 31.3633 16.6982 31.5316 16.3982 31.3549C16.1032 31.1808 16.1691 30.9183 16.3299 30.6733C16.8457 29.8824 17.0766 29.0258 16.9599 28.0791C16.9249 27.7958 17.0082 27.5233 17.3257 27.4674C17.7041 27.4016 17.7691 27.7074 17.8232 27.9858C18.4957 28.0308 18.5982 27.9591 18.5999 27.4449C18.6016 26.9799 18.3716 26.8008 17.8957 26.8149C17.7199 26.8199 17.4641 26.7299 17.3857 26.5991C17.3166 26.4824 17.4424 26.2491 17.4824 26.0674L17.4832 26.0658Z" fill="#2B2728"/>
<path d="M13.24 23.7991C12.4625 24.3016 11.7384 24.7733 11.01 25.2391C10.8834 25.32 10.7392 25.4466 10.6125 25.4358C10.4217 25.42 10.1759 25.3475 10.0759 25.2108C10.0117 25.1225 10.115 24.7716 10.2309 24.7141C11.2525 24.2066 12.1534 23.54 12.9842 22.7666C13.2067 22.56 13.4309 22.6416 13.5859 22.86C14.24 23.7833 15.1184 24.3908 16.1834 24.7433C16.2484 24.765 16.3117 24.7916 16.3775 24.8108C16.63 24.8841 16.7475 25.0391 16.68 25.305C16.6067 25.5933 16.41 25.6716 16.1417 25.6033C15.1434 25.35 14.285 24.8458 13.5484 24.1308C13.43 24.0158 13.3234 23.8891 13.24 23.7983V23.7991Z" fill="#2C2829"/>
<path d="M13.2001 31.4866C12.7493 31.2741 12.2859 31.0841 11.8518 30.8408C11.6309 30.7175 11.6068 30.4691 11.7751 30.265C11.9284 30.0783 12.1251 30.0016 12.3501 30.1783C12.9726 30.6683 13.5759 30.6533 14.1726 30.1216C14.3876 29.93 14.6501 29.9566 14.7643 30.205C14.8334 30.355 14.7984 30.6491 14.6893 30.7691C14.3134 31.1816 13.8151 31.375 13.2468 31.3716C13.2309 31.41 13.2151 31.4491 13.2001 31.4875V31.4866Z" fill="#2E2A2B"/>
<path d="M13.1759 29.8483C12.9068 29.6191 12.6643 29.4825 12.5226 29.2766C12.3326 28.9991 12.4093 28.685 12.6193 28.4283C12.8493 28.1475 13.1976 28.2091 13.3476 28.5408C13.3834 28.6208 13.4234 28.735 13.4884 28.7583C13.7468 28.8533 13.9934 29.0083 13.8468 29.2833C13.7318 29.5008 13.4484 29.6291 13.1751 29.8483H13.1759Z" fill="#302C2D"/>
<path d="M15.0916 27.0742C15.0824 27.1975 15.1191 27.3592 15.0541 27.4367C14.9433 27.5692 14.7716 27.7209 14.6208 27.7259C14.5008 27.73 14.3124 27.5484 14.2641 27.4109C14.1999 27.225 14.2308 27.0025 14.2391 26.7967C14.2491 26.5434 14.3858 26.3309 14.6416 26.3909C14.8099 26.43 14.9516 26.635 15.0741 26.79C15.1208 26.8492 15.0816 26.9767 15.0816 27.0734C15.0849 27.0734 15.0883 27.0734 15.0916 27.0734V27.0742Z" fill="#2D292A"/>
<path d="M11.2476 27.065C11.3317 26.83 11.3484 26.5725 11.4817 26.4758C11.6026 26.3892 12.0117 26.4558 12.0167 26.4933C12.0667 26.8558 12.0776 27.2283 12.0417 27.5917C12.0376 27.6367 11.6201 27.735 11.5251 27.6542C11.3742 27.5258 11.3342 27.2675 11.2476 27.0642V27.065Z" fill="#2C2829"/>
<path d="M12.9193 36.0083C12.8343 36.16 12.7934 36.2808 12.7143 36.3675C12.3059 36.8158 11.8851 37.2533 11.4743 37.6991C11.2784 37.9116 11.0593 37.9966 10.8259 37.7916C10.5984 37.5916 10.6168 37.3625 10.8259 37.1441C11.2743 36.6766 11.7093 36.1958 12.1743 35.7458C12.2634 35.6591 12.4818 35.6283 12.6043 35.6733C12.7309 35.72 12.8134 35.8883 12.9201 36.0083H12.9193Z" fill="#2E2A2B"/>
<path d="M43.8076 20.3542C42.6076 21.5475 41.2276 22.4809 39.6959 23.1917C38.4851 23.7534 37.2209 24.1025 35.8892 24.2634C33.1442 24.5942 30.8384 23.68 28.8359 21.8734C28.3159 21.4042 27.8609 20.8625 27.3876 20.3442C27.3117 20.2617 27.2926 20.1267 27.2476 20.0159C27.3009 19.9725 27.3484 19.92 27.4076 19.8875C28.8667 19.0867 30.3259 18.2875 31.7867 17.49C32.0351 17.3542 32.2834 17.2234 32.2017 16.8692C32.4151 16.7509 32.6284 16.6325 32.9009 16.4817C32.9401 16.6284 32.9726 16.7467 33.0042 16.865C32.7384 16.9484 32.6359 17.1375 32.6667 17.4034C32.8051 18.595 32.9417 19.7867 33.0876 20.9784C33.1267 21.2967 33.3326 21.4209 33.6442 21.3809C33.8842 22.3559 34.4192 23.13 35.2517 23.6875C35.5201 23.8675 35.8234 24.0367 36.1367 23.7434C36.4234 23.9025 36.6676 23.8717 36.8401 23.5734C37.9326 21.6792 38.4542 19.6317 38.4584 17.4517C38.4584 17.1692 38.3751 16.8875 38.3309 16.605C38.4834 16.6067 38.6359 16.6084 38.7892 16.6109C38.6459 16.9542 38.8701 17.1217 39.1101 17.2792C40.6759 18.305 42.2426 19.33 43.8092 20.3559L43.8076 20.3542Z" fill="#D0D2D3"/>
<path d="M32.9574 15.2408C32.7266 15.7291 32.5308 15.7858 32.0699 15.5699C29.9624 14.5799 29.0774 12.4883 29.2141 10.2624C29.3016 8.83577 29.7608 7.51744 30.3083 6.21994C30.4016 5.99827 30.5133 5.76327 30.8241 5.88911C31.1433 6.01911 31.1874 6.27078 31.0799 6.57078C30.8191 7.29578 30.5083 8.00661 30.3083 8.74827C29.9108 10.2266 29.8683 11.7041 30.6199 13.1049C30.9458 13.7116 31.3674 14.2433 32.0816 14.4991C31.8908 14.1341 31.6816 13.7783 31.5141 13.4033C31.1599 12.6116 31.0966 11.7708 31.1958 10.9233C31.2133 10.7749 31.4733 10.5199 31.5574 10.5433C31.7308 10.5916 31.9116 10.7708 31.9941 10.9416C32.0633 11.0849 31.9958 11.2941 31.9899 11.4741C31.9299 13.1983 32.9749 14.6691 34.5508 15.0383C35.3766 15.2316 36.1674 15.0891 36.9166 14.6899C37.0691 14.6091 37.2608 14.5191 37.4133 14.5474C37.5324 14.5691 37.7041 14.7708 37.6991 14.8866C37.6924 15.0449 37.5791 15.2558 37.4449 15.3424C36.7299 15.8049 35.9316 15.9974 35.0824 15.9608C34.3199 15.9283 33.6199 15.6974 32.9583 15.2433L32.9574 15.2408ZM32.1133 14.5716C32.1308 14.5616 32.1491 14.5516 32.1666 14.5416C32.1574 14.5324 32.1458 14.5141 32.1391 14.5158C32.1191 14.5199 32.1016 14.5324 32.0833 14.5416C32.0924 14.5508 32.1016 14.5599 32.1133 14.5716Z" fill="#2C2829"/>
<path d="M35.7626 4.84748C35.7542 4.65331 35.7451 4.45998 35.7326 4.16415C35.3901 4.87498 34.9376 5.37415 34.3009 5.69331C33.6926 5.99915 33.0626 6.21081 32.3817 6.24748C32.1959 5.37331 32.9276 4.23581 33.9209 3.92165C35.8492 3.31081 38.4601 3.82915 39.5859 6.07665C40.0967 7.09581 40.2834 8.19748 40.3267 9.32831C39.9701 9.28915 39.6126 9.24998 39.2009 9.20415C39.1242 9.12331 38.9826 8.96498 38.8301 8.81748C38.5934 8.58748 38.3367 8.37748 38.1117 8.13748C37.5876 7.57748 37.2109 6.93165 36.9684 6.19831C36.7867 5.65081 36.6134 5.58831 36.1576 5.80248C36.1801 5.72748 36.1934 5.64831 36.2276 5.57831C36.4476 5.12581 36.2842 4.86748 35.7626 4.84831V4.84748Z" fill="#89C2EA"/>
<path d="M36.1574 5.8017C36.6133 5.58836 36.7866 5.65003 36.9683 6.19753C37.2116 6.93086 37.5874 7.57753 38.1116 8.1367C38.3366 8.3767 38.5933 8.5867 38.8299 8.8167C38.9824 8.9642 39.1233 9.12336 39.2008 9.20336C39.6124 9.24836 39.9699 9.28836 40.3266 9.32753C41.0891 9.81086 41.2933 10.5517 40.9016 11.5517C41.2849 11.5217 41.3349 11.7767 41.3799 12.0709C41.6441 13.8092 40.4916 15.5334 38.7433 15.9425C38.5824 15.98 38.2758 15.8242 38.1949 15.6734C38.0566 15.4159 38.2191 15.2325 38.5208 15.1409C39.6258 14.8025 40.3591 14.0992 40.5474 12.9242C40.5933 12.6359 40.5541 12.3334 40.5541 12.0717C40.2149 12.1567 39.9341 12.2109 39.6666 12.3034C39.5674 12.3375 39.4666 12.4492 39.4241 12.5492C39.2091 13.0542 39.0299 13.5742 38.8041 14.0742C38.6833 14.3417 38.4383 14.4759 38.1541 14.3067C37.8466 14.1234 37.9516 13.8725 38.0949 13.6267C38.5258 12.8917 38.7324 12.1017 38.6674 11.2459C38.6583 11.1225 38.6174 10.9584 38.6783 10.8809C38.7924 10.7334 38.9566 10.5809 39.1274 10.5384C39.2091 10.5184 39.3566 10.7417 39.4633 10.8642C39.4941 10.9 39.4733 10.975 39.4941 11.025C39.5558 11.1767 39.6266 11.3242 39.6933 11.4734C39.8524 11.3542 40.1133 11.2584 40.1474 11.11C40.2091 10.8375 40.2108 10.5025 40.1016 10.2542C39.9741 9.96336 39.6774 10.0534 39.4108 10.1559C39.2958 10.2 39.0983 10.1675 38.9999 10.0909C38.6433 9.8117 38.3124 9.49836 37.9724 9.19836C37.0591 8.39336 36.4191 7.4142 36.0891 6.23836C36.1124 6.09253 36.1366 5.9467 36.1599 5.80086L36.1574 5.8017Z" fill="#2A2728"/>
<path d="M38.3301 16.6033C38.3751 16.8858 38.4584 17.1675 38.4576 17.45C38.4543 19.63 37.9326 21.6775 36.8393 23.5716C36.6668 23.87 36.4226 23.9016 36.1359 23.7425C35.8943 23.4133 36.1084 23.1441 36.2559 22.8708C36.7126 22.0233 37.0718 21.1408 37.2968 20.1266C36.1109 20.4366 34.9701 20.425 33.7709 20.1366C33.8251 20.3883 33.8609 20.5733 33.9043 20.7566C33.9684 21.0291 33.9126 21.2483 33.6434 21.38C33.3318 21.42 33.1259 21.2958 33.0868 20.9775C32.9409 19.7866 32.8034 18.595 32.6659 17.4025C32.6351 17.1366 32.7376 16.9475 33.0034 16.8641C33.3634 16.8783 33.5068 17.0708 33.5126 17.4241C33.5201 17.9208 33.5626 18.4166 33.5834 18.9125C33.5926 19.1391 33.6226 19.285 33.9234 19.3033C34.5268 19.3391 35.1259 19.4983 35.7259 19.4941C36.3076 19.49 36.8884 19.3458 37.5259 19.255C37.5501 18.5091 37.5759 17.795 37.5951 17.08C37.6101 16.5275 37.8101 16.395 38.3301 16.6025V16.6033Z" fill="#292627"/>
<path d="M41.3501 8.43755C41.3501 8.60005 41.3492 8.68255 41.3501 8.76588C41.3551 9.04255 41.2342 9.23671 40.9484 9.24421C40.6692 9.25088 40.5409 9.07338 40.5059 8.79755C40.4342 8.23672 40.3984 7.66421 40.2501 7.12255C39.5851 4.70171 37.5184 3.28588 35.0084 3.47171C33.8434 3.55838 32.7701 3.83338 31.9834 4.77588C31.8451 4.94171 31.7351 5.13588 31.6342 5.32838C31.4376 5.70171 31.1851 5.84421 30.9259 5.67838C30.5942 5.46588 30.7542 5.19588 30.8817 4.95005C31.4926 3.77838 32.4959 3.12505 33.7492 2.81838C35.5101 2.38671 37.1892 2.58005 38.7201 3.58171C40.1826 4.53921 40.9484 5.95755 41.2426 7.65255C41.2926 7.93838 41.3217 8.22755 41.3501 8.43838V8.43755Z" fill="#2C2829"/>
<path d="M36.1574 5.8017C36.1341 5.94753 36.1099 6.09337 36.0866 6.2392C36.0549 6.13503 36.0224 6.03087 35.9766 5.8817C35.0583 6.78503 33.9858 7.32587 32.7883 7.43337C32.5091 8.06253 32.2608 8.6542 31.9849 9.23337C31.8533 9.51003 31.6191 9.68837 31.3141 9.4892C31.0349 9.3067 31.1333 9.0767 31.2566 8.80337C31.4983 8.26837 31.6974 7.70837 31.8591 7.14253C31.9508 6.82087 32.0816 6.61003 32.4266 6.5967C33.7191 6.54837 34.7666 6.01503 35.5858 5.02003C35.6374 4.9567 35.7024 4.90503 35.7616 4.84753C36.2833 4.8667 36.4466 5.12587 36.2266 5.57753C36.1924 5.6467 36.1791 5.7267 36.1566 5.8017H36.1574Z" fill="#2C2829"/>
<path d="M43.8074 20.3541C42.2408 19.3283 40.6741 18.3033 39.1083 17.2775C38.8683 17.12 38.6441 16.9516 38.7874 16.6091C38.9999 16.2483 39.2741 16.3708 39.5266 16.535C40.5966 17.2291 41.6599 17.9341 42.7249 18.6358C43.2166 18.96 43.7241 19.2641 44.1874 19.625C44.3166 19.7258 44.3958 20.0183 44.3508 20.1833C44.2874 20.4166 44.0491 20.4825 43.8074 20.355V20.3541Z" fill="#2D292A"/>
<path d="M32.2009 16.8684C32.2817 17.2225 32.0334 17.3533 31.7859 17.4892C30.3259 18.2875 28.8659 19.0859 27.4067 19.8867C27.3476 19.9192 27.3001 19.9717 27.2467 20.015C26.9659 20.09 26.7034 20.0642 26.6009 19.7558C26.5042 19.4658 26.7001 19.3167 26.9426 19.1833C28.4551 18.355 29.9609 17.5142 31.4684 16.6775C31.7742 16.5075 32.0226 16.5509 32.2001 16.8684H32.2009Z" fill="#292627"/>
<path d="M35.9574 13.6175C35.3824 13.6109 34.8074 13.6192 34.2341 13.59C33.9641 13.5759 33.7999 13.3917 33.8574 13.1084C33.9174 12.8134 34.1191 12.75 34.4182 12.7642C34.9049 12.7867 35.4041 12.79 35.8807 12.7075C36.2799 12.6384 36.6491 12.53 36.9424 12.8967C37.1824 13.1967 37.1407 13.7909 36.8566 14.1409C36.4807 14.6034 35.9841 14.8575 35.3899 14.9034C35.0716 14.9275 34.8357 14.8117 34.8199 14.455C34.8049 14.11 35.0399 14.0992 35.3141 14.0517C35.5782 14.0059 35.8191 13.825 36.0699 13.7034C36.0807 13.6692 36.0907 13.635 36.1016 13.6C36.0532 13.6059 36.0057 13.6117 35.9574 13.6175Z" fill="#2C2829"/>
<path d="M33.5649 9.495C33.5591 9.52 33.5432 9.56416 33.5499 9.56833C33.7224 9.665 34.0124 9.72499 34.0491 9.85666C34.1316 10.1525 34.1307 10.4908 34.0774 10.7975C34.0549 10.93 33.8191 11.1142 33.6816 11.1133C33.5474 11.1125 33.3132 10.915 33.3007 10.7858C33.2624 10.3958 33.0991 9.95416 33.5182 9.63916C33.5282 9.63166 33.4816 9.5475 33.4607 9.49833C33.4957 9.4975 33.5299 9.49583 33.5649 9.495Z" fill="#2E2A2B"/>
<path d="M36.6691 9.49919C36.5033 9.49502 36.3141 9.53836 36.1775 9.47252C36.04 9.40669 35.8491 9.21086 35.87 9.11086C35.9033 8.94669 36.0666 8.72919 36.2166 8.68836C36.4441 8.62752 36.7133 8.67169 36.9533 8.72169C37.2125 8.77586 37.4775 8.88002 37.4566 9.22419C37.4366 9.55502 37.1708 9.58419 36.9225 9.62586L36.9341 9.63252L36.6683 9.49919H36.6691Z" fill="#2C2829"/>
<path d="M33.5651 9.49497C33.5301 9.4958 33.4959 9.49747 33.4609 9.4983C33.1743 9.67997 32.8993 9.63663 32.7776 9.33163C32.6484 9.00913 32.8718 8.8158 33.1784 8.75163C33.4043 8.70413 33.6368 8.68413 33.8676 8.66746C34.1484 8.6483 34.3251 8.79247 34.3409 9.06913C34.3576 9.3608 34.1584 9.47746 33.8959 9.49913C33.7868 9.50746 33.6759 9.49663 33.5659 9.49497H33.5651Z" fill="#2A2728"/>
<path d="M36.9233 9.62583C37.3425 9.99333 37.1766 10.47 37.12 10.8992C37.0841 11.1717 36.6433 11.2142 36.4425 10.9967C36.1875 10.7208 36.3258 9.85667 36.655 9.6625C36.7483 9.6525 36.8408 9.6425 36.9341 9.63167L36.9225 9.625L36.9233 9.62583Z" fill="#2C2829"/>
<path d="M35.4292 12.5425C34.965 12.5558 34.6683 12.2991 34.6742 11.9941C34.6792 11.725 34.7692 11.4966 35.095 11.4841C35.3183 11.4758 35.7625 11.8775 35.715 12.105C35.6758 12.29 35.4967 12.4466 35.43 12.5425H35.4292Z" fill="#302C2D"/>
<path d="M36.9349 9.6325C36.8416 9.6425 36.7491 9.6525 36.6558 9.66333C36.6599 9.60917 36.6649 9.55417 36.6691 9.5L36.9349 9.63333V9.6325Z" fill="#2D292A"/>
</svg>
