<svg width="552" height="372" viewBox="0 0 552 372" fill="none" xmlns="http://www.w3.org/2000/svg">
<g clip-path="url(#clip0_840_469)">
<g filter="url(#filter0_d_840_469)">
<path d="M107.634 187.287C96.4207 201.756 82.948 215.839 66.1065 223.659C58.6997 227.102 50.5753 229.171 42.3776 228.835C38.9929 228.691 35.766 227.778 33.0645 225.696C30.4851 223.71 28.6719 220.918 27.3451 217.991C22.8587 208.087 22.7272 196.331 22.4879 185.643C22.1518 170.508 22.6717 155.357 23.709 140.258C24.9256 122.679 26.8864 105.114 30.128 87.7907C30.5206 85.7002 30.9338 83.6064 31.3693 81.5194C31.7808 79.5424 28.6557 79.238 28.251 81.1927C24.5558 98.9735 22.3443 117.068 20.9492 135.164C19.7078 151.135 19.0818 167.173 19.3427 183.19C19.5238 194.418 19.6228 206.296 23.5595 216.97C25.947 223.451 30.3746 229.389 37.3303 231.237C41.1916 232.267 45.3462 232.134 49.2943 231.717C53.4608 231.275 57.5462 230.285 61.5042 228.913C79.2198 222.77 93.6827 209.094 105.485 194.972C107.092 193.049 108.663 191.091 110.207 189.105C111.445 187.509 108.894 185.688 107.655 187.284L107.634 187.287Z" fill="white"/>
</g>
<g filter="url(#filter1_d_840_469)">
<path d="M181.017 192.499C182.669 190.272 183.562 187.494 182.673 184.78C181.764 182.006 179.201 180.686 176.389 180.796C173.238 180.909 170.007 182 166.996 182.886C163.792 183.824 160.644 184.902 157.542 186.131C152.998 187.929 148.605 190.063 144.367 192.489C144.164 191.399 143.952 190.321 143.749 189.232C143.375 187.248 140.281 187.766 140.655 189.749C140.934 191.229 141.212 192.698 141.491 194.178C140.769 194.617 140.041 195.078 139.333 195.536C133.992 198.973 128.187 203.06 126.881 209.703C126.492 211.687 129.617 211.991 129.999 210.029C130.944 205.218 135.334 201.992 139.142 199.405C140.123 198.743 141.12 198.11 142.117 197.477C142.823 201.196 143.532 204.926 144.238 208.645C144.823 211.696 145.269 214.812 145.986 217.83C146.441 219.79 148.163 222.29 150.46 221.068C152.144 220.172 151.052 217.566 149.414 218.105C149.412 218.095 149.4 218.086 149.388 218.078C149.295 217.902 149.211 217.715 149.138 217.536C148.951 216.985 148.899 216.357 148.792 215.782C148.561 214.59 148.34 213.398 148.109 212.207C147.63 209.658 147.139 207.1 146.66 204.551C146.105 201.612 145.541 198.685 144.986 195.746C148.059 193.96 151.217 192.308 154.45 190.846C159.782 188.438 165.306 186.476 170.98 185.029C173.063 184.49 176.156 183.273 178.288 184.167C180.647 185.151 180.009 188.311 178.936 190.006C177.404 192.446 174.971 194.443 172.758 196.234C170.244 198.255 167.534 199.99 164.674 201.465C162.889 202.389 164.192 205.235 165.998 204.307C168.966 202.783 171.792 200.985 174.414 198.914C176.794 197.043 179.22 194.941 181.036 192.485L181.017 192.499Z" fill="white"/>
</g>
<g filter="url(#filter2_d_840_469)">
<path d="M159.646 184.39C160.575 184.489 161.172 183.817 161.373 182.988C162.383 178.695 164.355 174.571 166.991 171.003C168.194 169.381 165.642 167.56 164.44 169.182C161.456 173.211 159.402 177.795 158.257 182.672C158.066 183.499 158.892 184.315 159.658 184.399L159.646 184.39Z" fill="white"/>
</g>
<g filter="url(#filter3_d_840_469)">
<path d="M265.743 146.043C267.67 145.074 269.691 144.545 271.661 145.679C274.909 147.542 276.783 151.458 278.035 154.822C280.959 162.739 281.408 172.015 287.618 178.344C289.023 179.773 291.446 177.778 290.029 176.34C284.126 170.33 283.699 161.243 280.941 153.689C279.586 149.962 277.532 146.107 274.285 143.682C272.54 142.373 270.451 141.672 268.258 141.933C265.846 142.22 263.696 143.565 261.641 144.778C245.505 154.345 231.004 166.523 218.772 180.738C215.347 184.724 212.052 188.858 209.043 193.178C206.556 196.752 204.011 202.266 207.544 206.022C208.923 207.488 211.346 205.492 209.954 204.018C207.13 201.013 210.646 196.302 212.507 193.733C215.073 190.187 217.773 186.746 220.608 183.41C226.232 176.787 232.386 170.606 238.963 164.927C245.541 159.248 252.549 154.058 259.925 149.475C261.825 148.288 263.741 147.066 265.735 146.055L265.743 146.043Z" fill="white"/>
</g>
<g filter="url(#filter4_d_840_469)">
<path d="M298.566 148.972C295.412 143.17 293.987 136.55 292.939 130.089C292.606 128.099 289.523 128.614 289.845 130.606C290.937 137.325 292.446 144.26 295.724 150.295C296.685 152.053 299.531 150.751 298.566 148.972Z" fill="white"/>
</g>
<g filter="url(#filter5_d_840_469)">
<path d="M310.111 146.374C310.839 146.04 311.286 145.033 310.875 144.285C308.33 139.717 306.495 134.83 305.468 129.701C305.073 127.721 301.98 128.238 302.374 130.218C303.455 135.603 305.353 140.809 308.032 145.608C308.442 146.346 309.303 146.742 310.121 146.372L310.111 146.374Z" fill="white"/>
</g>
<g filter="url(#filter6_d_840_469)">
<path d="M368.762 147.996C366.312 144.695 362.095 142.93 358.088 142.614C354.789 142.349 351.547 142.997 348.402 143.968C350.228 141.829 352.006 139.655 353.71 137.42C355.164 135.523 356.558 133.594 357.926 131.627C359.257 129.697 360.701 127.749 361.749 125.644C362.613 123.899 363.151 121.731 362.251 119.9C361.37 118.117 359.498 117.381 357.604 117.464C355.498 117.552 353.374 118.416 351.466 119.243C349.224 120.223 347.112 121.477 345.136 122.91C343.5 124.095 345.514 126.504 347.14 125.32C348.775 124.135 350.502 123.115 352.346 122.287C353.943 121.564 355.765 120.73 357.544 120.591C362.128 120.238 357.55 126.59 356.581 128.024C352.184 134.569 347.282 140.753 341.954 146.552C340.796 147.805 342.597 149.381 343.893 148.889C350.38 146.415 358.6 143.461 364.758 148.336C368.707 151.471 368.405 156.006 366.681 160.153C366.287 159.572 365.563 159.174 364.728 159.441C357.138 161.854 350.365 166.358 345.044 172.262C342.478 175.108 339.76 178.573 338.382 182.185C337.724 183.896 337.993 185.886 339.692 186.853C341.087 187.648 342.835 187.324 344.259 186.779C346.102 186.068 347.851 184.8 349.48 183.701C351.281 182.488 353.02 181.159 354.671 179.748C358.04 176.884 361.105 173.658 363.929 170.26C368.834 164.341 374.216 155.321 368.774 148.004L368.762 147.996ZM346.89 181.653C345.648 182.465 344.321 183.408 342.922 183.917C342.582 184.038 341.687 184.389 341.331 184.162C340.877 183.857 341.414 183.014 341.644 182.552C343.155 179.543 345.21 176.74 347.441 174.236C352.319 168.788 358.63 164.754 365.55 162.452C364.739 163.944 363.794 165.332 362.88 166.524C358.416 172.348 353.033 177.626 346.88 181.655L346.89 181.653Z" fill="white"/>
</g>
<g filter="url(#filter7_d_840_469)">
<path d="M409.489 188.88C404.718 180.762 400.131 172.54 395.709 164.226C394.766 162.454 391.91 163.758 392.867 165.549C397.278 173.865 401.876 182.086 406.646 190.203C407.656 191.932 410.512 190.628 409.489 188.88Z" fill="white"/>
</g>
<g filter="url(#filter8_d_840_469)">
<path d="M246.329 245.376C241.874 246.057 237.443 246.819 233.016 247.666C233.098 243.846 233.171 240.039 233.223 236.224C233.254 233.876 233.284 231.518 233.326 229.168C233.35 227.16 230.23 226.823 230.207 228.841C230.125 235.322 230.034 241.814 229.887 248.295C217.918 250.699 206.081 253.706 194.412 257.332C189.575 258.84 184.777 260.448 180.018 262.166C178.117 262.845 179.453 265.696 181.341 265.009C197.141 259.325 213.339 254.825 229.798 251.501C229.562 260.36 229.176 269.213 228.479 278.043C217.748 281.004 207.235 284.765 197.068 289.327C195.224 290.155 196.548 292.997 198.392 292.17C208.055 287.829 218.033 284.232 228.218 281.363C227.314 291.744 226.299 302.599 223.285 312.729C218.595 313.46 213.98 314.645 209.654 316.036C204.904 317.551 200.13 319.431 195.946 322.176C192.516 324.425 189.879 328.565 190.218 332.813C190.36 334.612 191.236 336.491 192.041 338.073C192.771 339.52 193.617 340.969 195.01 341.881C197.261 343.36 200.166 343.616 202.789 343.326C205.464 343.027 207.673 341.407 209.794 339.823C212.433 337.855 214.795 335.499 216.845 332.919C220.962 327.747 223.73 321.793 225.705 315.536C231.256 314.873 236.859 314.912 242.211 316.042C243.55 316.316 244.857 316.713 246.141 317.166C248.046 317.844 249.157 314.912 247.252 314.234C240.734 311.9 233.645 311.537 226.648 312.294C228.447 305.622 229.46 298.679 230.269 291.981C230.731 288.151 231.107 284.314 231.43 280.476C234.73 279.606 238.051 278.796 241.397 278.078C243.362 277.654 242.855 274.558 240.88 274.984C237.8 275.647 234.744 276.392 231.705 277.175C232.363 268.426 232.728 259.64 232.957 250.866C237.579 249.977 242.204 249.172 246.857 248.468C248.852 248.166 248.335 245.073 246.34 245.374L246.329 245.376ZM207.336 337.742C205.255 339.246 203.821 340.238 201.373 340.308C198.872 340.377 196.57 339.797 195.278 337.522C194.464 336.078 193.495 334.279 193.321 332.601C193.186 331.288 193.713 329.939 194.247 328.757C194.589 328.011 194.97 327.248 195.442 326.586C195.477 326.538 195.521 326.488 195.556 326.44C195.372 326.672 195.619 326.376 195.702 326.299C195.949 326.066 196.2 325.855 196.451 325.643C199.647 323.074 203.725 321.469 207.528 320.06C212.17 318.34 217.137 316.916 222.208 316.047C221.284 318.703 220.204 321.311 218.929 323.825C216.16 329.27 212.292 334.158 207.326 337.744L207.336 337.742Z" fill="white"/>
</g>
<g filter="url(#filter9_d_840_469)">
<path d="M316.3 255.611C318.149 254.814 316.836 251.97 314.977 252.768C309.675 255.043 304.499 257.563 299.421 260.288L300.797 255.775C301.388 253.853 298.454 252.732 297.866 254.664C297.071 257.267 296.277 259.87 295.482 262.473C290.234 265.45 285.12 268.658 280.161 272.095C278.508 273.241 280.522 275.65 282.165 274.506C286.059 271.798 290.052 269.243 294.145 266.842C292.301 272.864 290.466 278.885 288.622 284.907C287.093 289.901 285.565 294.906 284.036 299.9C283.091 302.995 281.06 308.285 285.228 310.005C287.095 310.774 288.205 307.843 286.338 307.074C285.176 306.59 286.022 304.105 286.274 303.268C286.93 301.102 287.596 298.934 288.262 296.766C289.658 292.186 291.066 287.604 292.462 283.024C294.338 276.87 296.226 270.724 298.101 264.569C303.997 261.283 310.069 258.285 316.281 255.624L316.3 255.611Z" fill="white"/>
</g>
<g filter="url(#filter10_d_840_469)">
<path d="M348.611 248.311C348.143 247.605 346.998 247.605 346.403 248.108C345.696 248.692 345.732 249.608 346.2 250.315L353.678 261.499C354.146 262.206 355.291 262.205 355.885 261.703C356.593 261.118 356.557 260.202 356.089 259.496L348.611 248.311Z" fill="white"/>
</g>
<g filter="url(#filter11_d_840_469)">
<path d="M350.902 292.007C347.23 291.476 343.523 291.491 339.879 292.016C341.446 287.312 342.395 282.404 342.682 277.459C342.801 275.446 339.683 275.119 339.563 277.132C339.251 282.368 338.226 287.522 336.41 292.447C336.381 292.526 336.343 292.618 336.314 292.697C335.183 292.971 334.056 293.265 332.95 293.63C330.137 294.556 327.432 295.814 324.916 297.38C322.564 298.844 319.99 300.504 318.41 302.846C316.939 305.021 316.482 308.119 318.836 309.898C321.034 311.566 324.186 311.082 326.575 310.152C331.853 308.114 335.202 302.848 337.501 297.958C337.899 297.107 338.274 296.238 338.638 295.372C342.563 294.631 346.61 294.548 350.565 295.127C352.564 295.418 352.881 292.301 350.892 292.008L350.902 292.007ZM328.908 305.024C327.255 306.487 325.224 307.654 322.976 307.839C322.129 307.906 320.808 307.873 320.392 306.967C319.97 306.03 320.778 304.899 321.327 304.192C322.793 302.304 325.128 300.864 327.176 299.673C329.302 298.438 331.548 297.416 333.873 296.614C334.195 296.507 334.528 296.409 334.862 296.311C333.411 299.553 331.549 302.684 328.919 305.022L328.908 305.024Z" fill="white"/>
</g>
<g filter="url(#filter12_d_840_469)">
<path d="M432.049 237.647C428.34 238.606 424.896 240.39 421.876 242.74C420.281 243.982 422.285 246.392 423.88 245.151C426.206 243.341 428.82 241.918 431.637 241.013C432.412 240.766 434.227 240.018 434.921 240.75C435.59 241.454 434.787 243.051 434.447 243.744C433.095 246.44 431.239 248.966 429.652 251.521C427.907 254.336 426.16 257.141 424.415 259.955C423.613 261.245 424.867 262.975 426.353 262.292C428.075 261.495 430.015 262.698 430.839 264.267C432.007 266.499 431.175 269.32 430.243 271.48C428.377 275.788 425.262 279.479 421.523 282.288C419.913 283.5 421.917 285.911 423.527 284.698C428.396 281.043 432.784 275.581 434.182 269.549C434.861 266.637 434.558 263.369 432.393 261.134C431.368 260.076 430.058 259.341 428.674 259.053C430.302 256.427 431.932 253.812 433.55 251.188C434.644 249.425 435.795 247.685 436.83 245.89C437.586 244.576 438.25 243.098 438.269 241.557C438.322 238.008 435.036 236.872 432.049 237.647Z" fill="white"/>
</g>
<g filter="url(#filter13_d_840_469)">
<path d="M400.749 270.898C395.661 276.986 391.442 283.776 388.247 291.042C386.666 294.646 385.336 298.356 384.284 302.147C383.558 304.781 382.136 309.587 385.846 310.727C387.768 311.317 388.889 308.384 386.956 307.795C386.006 307.499 386.642 305.41 386.816 304.734C387.253 303.039 387.746 301.356 388.284 299.697C389.352 296.444 390.621 293.253 392.085 290.157C395.054 283.883 398.855 278.021 403.299 272.709C404.598 271.156 402.037 269.347 400.747 270.888L400.749 270.898Z" fill="white"/>
</g>
<g filter="url(#filter14_d_840_469)">
<path d="M462.865 251.396C461.717 249.733 459.319 251.745 460.454 253.4C470.003 267.27 478.311 281.963 485.324 297.275C486.16 299.107 489.015 297.792 488.166 295.951C481.049 280.392 472.567 265.485 462.863 251.386L462.865 251.396Z" fill="white"/>
</g>
<g filter="url(#filter15_d_840_469)">
<path d="M471.606 222.647C468.443 218.501 466.457 213.597 465.763 208.433C465.492 206.433 462.398 206.95 462.669 208.95C463.434 214.664 465.707 220.082 469.197 224.662C470.42 226.27 472.829 224.256 471.608 222.658L471.606 222.647Z" fill="white"/>
</g>
<g filter="url(#filter16_d_840_469)">
<path d="M477.297 204.247C478.472 209.817 479.649 215.398 480.814 220.97C481.227 222.936 484.323 222.43 483.907 220.453C482.732 214.882 481.555 209.302 480.391 203.73C479.977 201.763 476.881 202.27 477.297 204.247Z" fill="white"/>
</g>
<g filter="url(#filter17_d_840_469)">
<path d="M536.439 262.639C532.802 263.078 529.523 265.025 526.625 267.153C524.125 269.002 521.723 271.058 519.802 273.52C518.005 275.835 516.62 278.643 516.697 281.64C516.774 284.638 518.328 287.336 520.792 289.013C525.243 292.053 530.106 291.462 534.667 289.64C535.293 290.213 536.381 290.381 537.089 289.542C537.584 288.951 538.079 288.359 538.585 287.776C539.732 287.15 540.85 286.486 541.905 285.822C542.874 285.214 542.855 284.02 542.344 283.31C543.119 282.364 543.894 281.418 544.632 280.447C546.522 277.99 548.33 275.048 548.389 271.847C548.515 265.561 542.134 261.952 536.429 262.641L536.439 262.639ZM545.283 271.529C545.346 274.444 543.312 277.116 541.584 279.271C539.919 281.362 538.183 283.402 536.458 285.45C532.737 287.482 528.626 288.953 524.514 287.436C522.446 286.669 520.606 285.174 520.015 282.973C519.386 280.608 520.346 278.232 521.665 276.294C523.062 274.247 524.874 272.534 526.799 270.983C529.135 269.108 531.62 267.293 534.487 266.305C538.556 264.904 545.171 266.173 545.283 271.529Z" fill="white"/>
</g>
</g>
<defs>
<filter id="filter0_d_840_469" x="15.2843" y="79.8722" width="99.2532" height="160.155" filterUnits="userSpaceOnUse" color-interpolation-filters="sRGB">
<feFlood flood-opacity="0" result="BackgroundImageFix"/>
<feColorMatrix in="SourceAlpha" type="matrix" values="0 0 0 0 0 0 0 0 0 0 0 0 0 0 0 0 0 0 127 0" result="hardAlpha"/>
<feOffset dy="4"/>
<feGaussianBlur stdDeviation="2"/>
<feComposite in2="hardAlpha" operator="out"/>
<feColorMatrix type="matrix" values="0 0 0 0 0 0 0 0 0 0 0 0 0 0 0 0 0 0 0.1 0"/>
<feBlend mode="normal" in2="BackgroundImageFix" result="effect1_dropShadow_840_469"/>
<feBlend mode="normal" in="SourceGraphic" in2="effect1_dropShadow_840_469" result="shape"/>
</filter>
<filter id="filter1_d_840_469" x="122.848" y="180.789" width="64.176" height="48.6017" filterUnits="userSpaceOnUse" color-interpolation-filters="sRGB">
<feFlood flood-opacity="0" result="BackgroundImageFix"/>
<feColorMatrix in="SourceAlpha" type="matrix" values="0 0 0 0 0 0 0 0 0 0 0 0 0 0 0 0 0 0 127 0" result="hardAlpha"/>
<feOffset dy="4"/>
<feGaussianBlur stdDeviation="2"/>
<feComposite in2="hardAlpha" operator="out"/>
<feColorMatrix type="matrix" values="0 0 0 0 0 0 0 0 0 0 0 0 0 0 0 0 0 0 0.1 0"/>
<feBlend mode="normal" in2="BackgroundImageFix" result="effect1_dropShadow_840_469"/>
<feBlend mode="normal" in="SourceGraphic" in2="effect1_dropShadow_840_469" result="shape"/>
</filter>
<filter id="filter2_d_840_469" x="154.229" y="168.549" width="17.0767" height="23.8505" filterUnits="userSpaceOnUse" color-interpolation-filters="sRGB">
<feFlood flood-opacity="0" result="BackgroundImageFix"/>
<feColorMatrix in="SourceAlpha" type="matrix" values="0 0 0 0 0 0 0 0 0 0 0 0 0 0 0 0 0 0 127 0" result="hardAlpha"/>
<feOffset dy="4"/>
<feGaussianBlur stdDeviation="2"/>
<feComposite in2="hardAlpha" operator="out"/>
<feColorMatrix type="matrix" values="0 0 0 0 0 0 0 0 0 0 0 0 0 0 0 0 0 0 0.1 0"/>
<feBlend mode="normal" in2="BackgroundImageFix" result="effect1_dropShadow_840_469"/>
<feBlend mode="normal" in="SourceGraphic" in2="effect1_dropShadow_840_469" result="shape"/>
</filter>
<filter id="filter3_d_840_469" x="201.805" y="141.879" width="92.6538" height="72.6555" filterUnits="userSpaceOnUse" color-interpolation-filters="sRGB">
<feFlood flood-opacity="0" result="BackgroundImageFix"/>
<feColorMatrix in="SourceAlpha" type="matrix" values="0 0 0 0 0 0 0 0 0 0 0 0 0 0 0 0 0 0 127 0" result="hardAlpha"/>
<feOffset dy="4"/>
<feGaussianBlur stdDeviation="2"/>
<feComposite in2="hardAlpha" operator="out"/>
<feColorMatrix type="matrix" values="0 0 0 0 0 0 0 0 0 0 0 0 0 0 0 0 0 0 0.1 0"/>
<feBlend mode="normal" in2="BackgroundImageFix" result="effect1_dropShadow_840_469"/>
<feBlend mode="normal" in="SourceGraphic" in2="effect1_dropShadow_840_469" result="shape"/>
</filter>
<filter id="filter4_d_840_469" x="285.821" y="128.829" width="16.9417" height="30.2994" filterUnits="userSpaceOnUse" color-interpolation-filters="sRGB">
<feFlood flood-opacity="0" result="BackgroundImageFix"/>
<feColorMatrix in="SourceAlpha" type="matrix" values="0 0 0 0 0 0 0 0 0 0 0 0 0 0 0 0 0 0 127 0" result="hardAlpha"/>
<feOffset dy="4"/>
<feGaussianBlur stdDeviation="2"/>
<feComposite in2="hardAlpha" operator="out"/>
<feColorMatrix type="matrix" values="0 0 0 0 0 0 0 0 0 0 0 0 0 0 0 0 0 0 0.1 0"/>
<feBlend mode="normal" in2="BackgroundImageFix" result="effect1_dropShadow_840_469"/>
<feBlend mode="normal" in="SourceGraphic" in2="effect1_dropShadow_840_469" result="shape"/>
</filter>
<filter id="filter5_d_840_469" x="298.339" y="128.449" width="16.6921" height="26.0633" filterUnits="userSpaceOnUse" color-interpolation-filters="sRGB">
<feFlood flood-opacity="0" result="BackgroundImageFix"/>
<feColorMatrix in="SourceAlpha" type="matrix" values="0 0 0 0 0 0 0 0 0 0 0 0 0 0 0 0 0 0 127 0" result="hardAlpha"/>
<feOffset dy="4"/>
<feGaussianBlur stdDeviation="2"/>
<feComposite in2="hardAlpha" operator="out"/>
<feColorMatrix type="matrix" values="0 0 0 0 0 0 0 0 0 0 0 0 0 0 0 0 0 0 0.1 0"/>
<feBlend mode="normal" in2="BackgroundImageFix" result="effect1_dropShadow_840_469"/>
<feBlend mode="normal" in="SourceGraphic" in2="effect1_dropShadow_840_469" result="shape"/>
</filter>
<filter id="filter6_d_840_469" x="334.052" y="117.458" width="41.0029" height="77.8715" filterUnits="userSpaceOnUse" color-interpolation-filters="sRGB">
<feFlood flood-opacity="0" result="BackgroundImageFix"/>
<feColorMatrix in="SourceAlpha" type="matrix" values="0 0 0 0 0 0 0 0 0 0 0 0 0 0 0 0 0 0 127 0" result="hardAlpha"/>
<feOffset dy="4"/>
<feGaussianBlur stdDeviation="2"/>
<feComposite in2="hardAlpha" operator="out"/>
<feColorMatrix type="matrix" values="0 0 0 0 0 0 0 0 0 0 0 0 0 0 0 0 0 0 0.1 0"/>
<feBlend mode="normal" in2="BackgroundImageFix" result="effect1_dropShadow_840_469"/>
<feBlend mode="normal" in="SourceGraphic" in2="effect1_dropShadow_840_469" result="shape"/>
</filter>
<filter id="filter7_d_840_469" x="388.673" y="163.383" width="25.0334" height="35.6337" filterUnits="userSpaceOnUse" color-interpolation-filters="sRGB">
<feFlood flood-opacity="0" result="BackgroundImageFix"/>
<feColorMatrix in="SourceAlpha" type="matrix" values="0 0 0 0 0 0 0 0 0 0 0 0 0 0 0 0 0 0 127 0" result="hardAlpha"/>
<feOffset dy="4"/>
<feGaussianBlur stdDeviation="2"/>
<feComposite in2="hardAlpha" operator="out"/>
<feColorMatrix type="matrix" values="0 0 0 0 0 0 0 0 0 0 0 0 0 0 0 0 0 0 0.1 0"/>
<feBlend mode="normal" in2="BackgroundImageFix" result="effect1_dropShadow_840_469"/>
<feBlend mode="normal" in="SourceGraphic" in2="effect1_dropShadow_840_469" result="shape"/>
</filter>
<filter id="filter8_d_840_469" x="175.096" y="227.485" width="77.1444" height="123.947" filterUnits="userSpaceOnUse" color-interpolation-filters="sRGB">
<feFlood flood-opacity="0" result="BackgroundImageFix"/>
<feColorMatrix in="SourceAlpha" type="matrix" values="0 0 0 0 0 0 0 0 0 0 0 0 0 0 0 0 0 0 127 0" result="hardAlpha"/>
<feOffset dy="4"/>
<feGaussianBlur stdDeviation="2"/>
<feComposite in2="hardAlpha" operator="out"/>
<feColorMatrix type="matrix" values="0 0 0 0 0 0 0 0 0 0 0 0 0 0 0 0 0 0 0.1 0"/>
<feBlend mode="normal" in2="BackgroundImageFix" result="effect1_dropShadow_840_469"/>
<feBlend mode="normal" in="SourceGraphic" in2="effect1_dropShadow_840_469" result="shape"/>
</filter>
<filter id="filter9_d_840_469" x="275.544" y="252.628" width="45.6481" height="65.5043" filterUnits="userSpaceOnUse" color-interpolation-filters="sRGB">
<feFlood flood-opacity="0" result="BackgroundImageFix"/>
<feColorMatrix in="SourceAlpha" type="matrix" values="0 0 0 0 0 0 0 0 0 0 0 0 0 0 0 0 0 0 127 0" result="hardAlpha"/>
<feOffset dy="4"/>
<feGaussianBlur stdDeviation="2"/>
<feComposite in2="hardAlpha" operator="out"/>
<feColorMatrix type="matrix" values="0 0 0 0 0 0 0 0 0 0 0 0 0 0 0 0 0 0 0.1 0"/>
<feBlend mode="normal" in2="BackgroundImageFix" result="effect1_dropShadow_840_469"/>
<feBlend mode="normal" in="SourceGraphic" in2="effect1_dropShadow_840_469" result="shape"/>
</filter>
<filter id="filter10_d_840_469" x="341.859" y="247.753" width="18.5715" height="22.3047" filterUnits="userSpaceOnUse" color-interpolation-filters="sRGB">
<feFlood flood-opacity="0" result="BackgroundImageFix"/>
<feColorMatrix in="SourceAlpha" type="matrix" values="0 0 0 0 0 0 0 0 0 0 0 0 0 0 0 0 0 0 127 0" result="hardAlpha"/>
<feOffset dy="4"/>
<feGaussianBlur stdDeviation="2"/>
<feComposite in2="hardAlpha" operator="out"/>
<feColorMatrix type="matrix" values="0 0 0 0 0 0 0 0 0 0 0 0 0 0 0 0 0 0 0.1 0"/>
<feBlend mode="normal" in2="BackgroundImageFix" result="effect1_dropShadow_840_469"/>
<feBlend mode="normal" in="SourceGraphic" in2="effect1_dropShadow_840_469" result="shape"/>
</filter>
<filter id="filter11_d_840_469" x="313.189" y="275.776" width="43.0452" height="43.2258" filterUnits="userSpaceOnUse" color-interpolation-filters="sRGB">
<feFlood flood-opacity="0" result="BackgroundImageFix"/>
<feColorMatrix in="SourceAlpha" type="matrix" values="0 0 0 0 0 0 0 0 0 0 0 0 0 0 0 0 0 0 127 0" result="hardAlpha"/>
<feOffset dy="4"/>
<feGaussianBlur stdDeviation="2"/>
<feComposite in2="hardAlpha" operator="out"/>
<feColorMatrix type="matrix" values="0 0 0 0 0 0 0 0 0 0 0 0 0 0 0 0 0 0 0.1 0"/>
<feBlend mode="normal" in2="BackgroundImageFix" result="effect1_dropShadow_840_469"/>
<feBlend mode="normal" in="SourceGraphic" in2="effect1_dropShadow_840_469" result="shape"/>
</filter>
<filter id="filter12_d_840_469" x="416.93" y="237.415" width="25.3396" height="55.6152" filterUnits="userSpaceOnUse" color-interpolation-filters="sRGB">
<feFlood flood-opacity="0" result="BackgroundImageFix"/>
<feColorMatrix in="SourceAlpha" type="matrix" values="0 0 0 0 0 0 0 0 0 0 0 0 0 0 0 0 0 0 127 0" result="hardAlpha"/>
<feOffset dy="4"/>
<feGaussianBlur stdDeviation="2"/>
<feComposite in2="hardAlpha" operator="out"/>
<feColorMatrix type="matrix" values="0 0 0 0 0 0 0 0 0 0 0 0 0 0 0 0 0 0 0.1 0"/>
<feBlend mode="normal" in2="BackgroundImageFix" result="effect1_dropShadow_840_469"/>
<feBlend mode="normal" in="SourceGraphic" in2="effect1_dropShadow_840_469" result="shape"/>
</filter>
<filter id="filter13_d_840_469" x="379.401" y="270.302" width="28.2557" height="48.5034" filterUnits="userSpaceOnUse" color-interpolation-filters="sRGB">
<feFlood flood-opacity="0" result="BackgroundImageFix"/>
<feColorMatrix in="SourceAlpha" type="matrix" values="0 0 0 0 0 0 0 0 0 0 0 0 0 0 0 0 0 0 127 0" result="hardAlpha"/>
<feOffset dy="4"/>
<feGaussianBlur stdDeviation="2"/>
<feComposite in2="hardAlpha" operator="out"/>
<feColorMatrix type="matrix" values="0 0 0 0 0 0 0 0 0 0 0 0 0 0 0 0 0 0 0.1 0"/>
<feBlend mode="normal" in2="BackgroundImageFix" result="effect1_dropShadow_840_469"/>
<feBlend mode="normal" in="SourceGraphic" in2="effect1_dropShadow_840_469" result="shape"/>
</filter>
<filter id="filter14_d_840_469" x="456.156" y="250.773" width="36.1655" height="55.3822" filterUnits="userSpaceOnUse" color-interpolation-filters="sRGB">
<feFlood flood-opacity="0" result="BackgroundImageFix"/>
<feColorMatrix in="SourceAlpha" type="matrix" values="0 0 0 0 0 0 0 0 0 0 0 0 0 0 0 0 0 0 127 0" result="hardAlpha"/>
<feOffset dy="4"/>
<feGaussianBlur stdDeviation="2"/>
<feComposite in2="hardAlpha" operator="out"/>
<feColorMatrix type="matrix" values="0 0 0 0 0 0 0 0 0 0 0 0 0 0 0 0 0 0 0.1 0"/>
<feBlend mode="normal" in2="BackgroundImageFix" result="effect1_dropShadow_840_469"/>
<feBlend mode="normal" in="SourceGraphic" in2="effect1_dropShadow_840_469" result="shape"/>
</filter>
<filter id="filter15_d_840_469" x="458.653" y="207.167" width="17.2915" height="26.0859" filterUnits="userSpaceOnUse" color-interpolation-filters="sRGB">
<feFlood flood-opacity="0" result="BackgroundImageFix"/>
<feColorMatrix in="SourceAlpha" type="matrix" values="0 0 0 0 0 0 0 0 0 0 0 0 0 0 0 0 0 0 127 0" result="hardAlpha"/>
<feOffset dy="4"/>
<feGaussianBlur stdDeviation="2"/>
<feComposite in2="hardAlpha" operator="out"/>
<feColorMatrix type="matrix" values="0 0 0 0 0 0 0 0 0 0 0 0 0 0 0 0 0 0 0.1 0"/>
<feBlend mode="normal" in2="BackgroundImageFix" result="effect1_dropShadow_840_469"/>
<feBlend mode="normal" in="SourceGraphic" in2="effect1_dropShadow_840_469" result="shape"/>
</filter>
<filter id="filter16_d_840_469" x="473.259" y="202.485" width="14.6873" height="27.7299" filterUnits="userSpaceOnUse" color-interpolation-filters="sRGB">
<feFlood flood-opacity="0" result="BackgroundImageFix"/>
<feColorMatrix in="SourceAlpha" type="matrix" values="0 0 0 0 0 0 0 0 0 0 0 0 0 0 0 0 0 0 127 0" result="hardAlpha"/>
<feOffset dy="4"/>
<feGaussianBlur stdDeviation="2"/>
<feComposite in2="hardAlpha" operator="out"/>
<feColorMatrix type="matrix" values="0 0 0 0 0 0 0 0 0 0 0 0 0 0 0 0 0 0 0.1 0"/>
<feBlend mode="normal" in2="BackgroundImageFix" result="effect1_dropShadow_840_469"/>
<feBlend mode="normal" in="SourceGraphic" in2="effect1_dropShadow_840_469" result="shape"/>
</filter>
<filter id="filter17_d_840_469" x="512.694" y="262.558" width="39.697" height="36.5922" filterUnits="userSpaceOnUse" color-interpolation-filters="sRGB">
<feFlood flood-opacity="0" result="BackgroundImageFix"/>
<feColorMatrix in="SourceAlpha" type="matrix" values="0 0 0 0 0 0 0 0 0 0 0 0 0 0 0 0 0 0 127 0" result="hardAlpha"/>
<feOffset dy="4"/>
<feGaussianBlur stdDeviation="2"/>
<feComposite in2="hardAlpha" operator="out"/>
<feColorMatrix type="matrix" values="0 0 0 0 0 0 0 0 0 0 0 0 0 0 0 0 0 0 0.1 0"/>
<feBlend mode="normal" in2="BackgroundImageFix" result="effect1_dropShadow_840_469"/>
<feBlend mode="normal" in="SourceGraphic" in2="effect1_dropShadow_840_469" result="shape"/>
</filter>
<clipPath id="clip0_840_469">
<rect width="509.723" height="290.872" fill="white" transform="translate(0.480225 84.7652) rotate(-9.49183)"/>
</clipPath>
</defs>
</svg>
