<svg width="1512" height="1775" viewBox="0 0 1512 1775" fill="none" xmlns="http://www.w3.org/2000/svg">
<g clip-path="url(#clip0_13_3822)">
<path d="M1050 319H1027.76L995.674 273H1017.91L1050 319ZM1005.53 319H983.291L951.201 273H973.437L1005.53 319ZM961.054 319H938.818L906.728 273H928.964L961.054 319ZM916.582 319H894.345L862.255 273H884.492L916.582 319ZM872.109 319H849.872L817.782 273H840.019L872.109 319ZM827.636 319H805.4L773.31 273H795.546L827.636 319ZM783.163 319H760.927L728.837 273H751.073L783.163 319ZM738.69 319H716.454L684.364 273H706.6L738.69 319ZM694.218 319H671.981L639.891 273H662.128L694.218 319ZM649.745 319H627.508L595.418 273H617.655L649.745 319ZM605.272 319H583.036L550.946 273H573.182L605.272 319ZM560.799 319H538.563L506.473 273H528.709L560.799 319ZM516.326 319H494.09L462 273H484.236L516.326 319Z" fill="#B7AFA5" fill-opacity="0.5"/>
</g>
<path d="M0 0V290H0.28C11.16 180.71 345.34 93 756 93C1166.66 93 1500.84 180.71 1511.72 290H1512V0H0Z" fill="#89C3EB"/>
<path d="M260.2 189.51C254.28 190.93 248.5 191.26 242.86 190.48C237.21 189.7 231.95 187.34 227.06 183.39C225.02 181.68 224.02 179.87 224.08 177.96C224.14 176.05 225.13 174.23 226.95 172.52C228.72 170.86 230.54 170.02 232.38 170.09C234.22 170.16 236.23 170.88 238.32 172.25C240.85 173.9 243.66 175.03 246.74 175.55C249.82 176.07 253.34 175.85 257.32 174.9C262.81 173.58 266.25 171.81 267.66 169.55C269.06 167.29 269.42 164.64 268.71 161.6C268.26 159.65 267.4 158.08 266.16 156.9C264.91 155.71 262.59 154.84 259.19 154.28C255.79 153.73 250.7 153.48 243.91 153.57C235.68 153.68 229.21 152.26 224.51 149.24C219.8 146.22 216.68 141.78 215.18 135.89C213.93 131.01 214.06 126.43 215.59 122.17C217.11 117.91 219.85 114.18 223.82 111.01C227.78 107.84 232.81 105.51 238.9 104.05C245.32 102.51 251.16 102.28 256.39 103.37C261.63 104.45 266.13 106.3 269.91 108.89C271.97 110.39 273.01 112.11 273.01 114.03C273.01 115.96 272.16 117.89 270.46 119.84C268.76 121.79 266.97 122.79 265.1 122.85C263.23 122.91 261.19 122.29 259 121C256.81 119.71 254.34 118.76 251.62 118.17C248.89 117.58 245.73 117.72 242.13 118.58C238.29 119.5 235.35 121.03 233.32 123.13C231.29 125.24 230.67 127.88 231.45 131.07C231.76 132.31 232.42 133.49 233.42 134.6C234.42 135.71 236.36 136.58 239.21 137.19C242.06 137.81 246.46 138.12 252.35 138.1C262.31 138.06 269.95 139.71 275.17 143.07C280.39 146.43 283.7 151.29 285.12 157.61C286.93 165.65 285.53 172.42 280.98 177.93C276.43 183.44 269.52 187.28 260.2 189.52V189.51Z" fill="white" stroke="#3B3B3B" stroke-width="1.5" stroke-miterlimit="10"/>
<path d="M310.88 176.15C305.96 177.2 302.97 175.32 301.91 170.48C297 147.97 292.1 125.46 287.19 102.95C286.13 98.1001 288.16 95.1201 293.28 94.0201C293.58 93.9601 293.73 93.9201 294.02 93.8601C299.14 92.7701 302.21 94.6601 303.23 99.5101C305.29 109.33 306.32 114.24 308.39 124.05C320.55 121.49 332.73 119.04 344.93 116.7C343.04 106.85 342.09 101.92 340.19 92.0701C339.25 87.2001 341.35 84.2701 346.49 83.3001C346.84 83.2301 347.01 83.2001 347.36 83.1401C352.5 82.1701 355.52 84.1401 356.42 89.0201C360.6 111.68 364.78 134.33 368.97 156.99C369.87 161.87 367.85 164.76 362.91 165.69C362.58 165.75 362.41 165.78 362.07 165.85C357.13 166.78 354.19 164.83 353.26 159.95L347.66 130.84C335.54 133.17 323.44 135.61 311.36 138.14C313.39 147.81 315.42 157.48 317.46 167.15C318.48 172.01 316.53 174.94 311.6 176C311.31 176.06 311.17 176.09 310.89 176.15H310.88Z" fill="white" stroke="#3B3B3B" stroke-width="1.5" stroke-miterlimit="10"/>
<path d="M422.03 157.48C414.44 158.69 407.37 158.04 400.76 155.5C394.16 152.97 388.58 148.76 384.01 142.87C379.44 136.97 376.35 129.63 374.77 120.8C373.18 111.9 373.54 103.89 375.89 96.78C378.24 89.67 382.22 83.7701 387.83 79.13C393.44 74.49 400.22 71.52 408.13 70.26C416.04 69 423.38 69.72 430.11 72.39C436.84 75.06 442.43 79.43 446.87 85.47C451.31 91.5 454.14 99.01 455.39 107.96C456.63 116.83 455.98 124.78 453.47 131.8C450.97 138.82 446.99 144.55 441.55 149C436.11 153.45 429.61 156.27 422.02 157.48H422.03ZM419.65 142.55C424.48 141.78 428.45 139.93 431.59 136.98C434.73 134.03 436.93 130.28 438.2 125.72C439.47 121.16 439.69 116.04 438.85 110.34C438 104.56 436.29 99.68 433.72 95.69C431.15 91.71 427.88 88.78 423.92 86.92C419.96 85.06 415.49 84.5201 410.53 85.3101C405.65 86.09 401.61 87.98 398.42 90.98C395.23 93.98 393.01 97.78 391.77 102.37C390.52 106.96 390.4 112.14 391.38 117.9C392.35 123.58 394.17 128.38 396.84 132.31C399.5 136.24 402.79 139.12 406.69 140.94C410.59 142.77 414.91 143.3 419.66 142.54L419.65 142.55Z" fill="white" stroke="#3B3B3B" stroke-width="1.5" stroke-miterlimit="10"/>
<path d="M503.87 144.39C501.62 144.66 499.47 144.35 497.4 143.48C495.34 142.6 493.76 141.11 492.68 138.98C481.75 117.29 470.62 95.7202 459.3 74.2302C457.83 71.5202 457.53 69.3002 458.39 67.5702C459.26 65.8402 461.48 64.7302 465.07 64.2502C469.82 63.6202 473.23 65.3602 475.28 69.4502C484.08 87.2802 492.72 105.2 501.21 123.19C505.26 103.7 509.48 84.2602 513.86 64.8402C514.88 60.3802 517.87 57.8802 522.8 57.3502C525.81 57.0302 528.01 57.6302 529.38 59.1302C530.76 60.6402 531.09 62.8302 530.38 65.7202C524.45 89.2702 518.73 112.86 513.22 136.51C512.67 138.83 511.49 140.65 509.69 141.99C507.89 143.33 505.95 144.12 503.86 144.37L503.87 144.39Z" fill="white" stroke="#3B3B3B" stroke-width="1.5" stroke-miterlimit="10"/>
<path d="M558.34 138.23C553.03 138.73 550.12 136.36 549.61 131.11C547.41 108.5 545.21 85.8798 543.02 63.2698C542.51 58.0098 545.01 55.1098 550.54 54.5998C564.97 53.2898 579.41 52.0898 593.86 50.9798C599.39 50.5698 602.32 52.7798 602.65 57.5698C602.98 62.3598 600.4 64.9398 594.91 65.3398C583.22 66.1998 571.53 67.1498 559.85 68.1998C560.55 75.9898 560.9 79.8898 561.6 87.6798C571.94 86.7498 582.29 85.8898 592.64 85.1198C598.08 84.7098 600.98 86.9198 601.32 91.6998C601.66 96.4898 599.13 99.0698 593.72 99.4798C583.44 100.25 573.16 101.09 562.89 102.02C563.65 110.48 564.03 114.71 564.79 123.17C576.62 122.11 588.46 121.15 600.31 120.28C605.66 119.89 608.51 122.1 608.84 126.89C609.17 131.68 606.68 134.25 601.36 134.64C587.01 135.73 572.68 136.92 558.35 138.21L558.34 138.23Z" fill="white" stroke="#3B3B3B" stroke-width="1.5" stroke-miterlimit="10"/>
<path d="M629.39 132.79C624.07 133.11 621.24 130.65 620.91 125.38C619.47 102.71 618.04 80.0299 616.6 57.3599C616.27 52.0899 618.82 49.2799 624.27 48.9499C629.72 48.6199 632.59 51.1099 632.89 56.3899C634.04 76.9199 635.19 97.4499 636.34 117.97C648.23 117.3 660.13 116.74 672.04 116.27C677.4 116.06 680.17 118.37 680.34 123.17C680.51 127.97 677.93 130.46 672.61 130.66C658.2 131.26 643.81 131.98 629.41 132.79H629.39Z" fill="white" stroke="#3B3B3B" stroke-width="1.5" stroke-miterlimit="10"/>
<path d="M732.53 129.16C727.2 129.22 724.5 126.62 724.42 121.34C724.09 98.6201 723.75 75.9001 723.42 53.1901C723.34 47.9101 726.07 45.2201 731.61 45.1601C746.09 45.0401 760.57 45.0201 775.05 45.1101C780.59 45.1601 783.33 47.6001 783.27 52.4001C783.21 57.2001 780.43 59.5601 774.92 59.5101C763.2 59.4101 751.49 59.4001 739.77 59.4801C739.83 67.3001 739.86 71.2201 739.91 79.0401C750.28 78.9601 760.66 78.9601 771.03 79.0401C776.48 79.0801 779.19 81.5101 779.13 86.3101C779.07 91.1101 776.34 93.4801 770.92 93.4401C760.62 93.3601 750.31 93.3601 740.01 93.4401C740.07 101.94 740.1 106.18 740.16 114.68C752.03 114.59 763.9 114.61 775.77 114.72C781.14 114.77 783.79 117.21 783.72 122.01C783.66 126.81 780.96 129.17 775.63 129.12C761.26 129.02 746.89 129.04 732.51 129.15L732.53 129.16Z" fill="white" stroke="#3B3B3B" stroke-width="1.5" stroke-miterlimit="10"/>
<path d="M803.62 129.57C798.37 129.45 795.8 126.77 795.9 121.49C796.33 98.7699 796.76 76.0599 797.18 53.3399C797.28 48.0599 800.06 45.4699 805.51 45.5899C806.21 45.6099 806.57 45.6099 807.27 45.6299C811.47 45.7299 814.74 47.5399 817.07 51.0399C828.44 68.5299 839.6 86.1399 850.58 103.88C851.3 87.6199 852.02 71.3499 852.73 55.0899C852.96 49.8099 855.85 47.2899 861.38 47.5599C866.83 47.8199 869.42 50.5999 869.15 55.8799C867.98 78.5699 866.81 101.26 865.64 123.95C865.37 129.22 862.73 131.73 857.73 131.49C857.2 131.46 856.93 131.45 856.4 131.43C852.2 131.23 849.1 129.37 847.06 125.84C835.92 107.46 824.58 89.2299 813.03 71.1099C812.59 88.0199 812.14 104.94 811.7 121.85C811.56 127.13 808.87 129.69 803.62 129.58V129.57Z" fill="white" stroke="#3B3B3B" stroke-width="1.5" stroke-miterlimit="10"/>
<path d="M916.35 137.16C908.7 136.58 902.05 134.31 896.36 130.33C890.66 126.35 886.32 120.97 883.34 114.18C880.36 107.39 879.1 99.5301 879.61 90.5801C880.13 81.5601 882.28 73.8401 886.13 67.4601C889.97 61.0801 895.09 56.2601 901.48 53.0401C907.87 49.8201 915.07 48.4901 923.04 49.1001C927.99 49.4801 932.61 50.4901 936.9 52.1201C941.19 53.7601 944.96 55.7701 948.2 58.1401C950.34 59.6901 951.4 61.4601 951.39 63.4201C951.39 65.3901 950.41 67.2901 948.62 69.1401C946.86 70.9501 945.05 71.8801 943.18 71.8001C941.31 71.7201 939.29 70.9001 937.17 69.4901C935.07 68.1001 932.65 66.9501 930.05 66.0201C927.44 65.0901 924.72 64.5201 921.89 64.3001C916.98 63.9301 912.66 64.8401 908.96 67.0301C905.25 69.2201 902.33 72.4101 900.18 76.5901C898.03 80.7801 896.78 85.7901 896.4 91.6101C896.03 97.3601 896.62 102.45 898.17 106.88C899.72 111.31 902.14 114.86 905.42 117.54C908.7 120.22 912.72 121.73 917.51 122.09C921.24 122.37 924.3 122.27 926.71 121.79C929.11 121.3 931.17 120.61 932.88 119.71C933.42 113.25 933.68 110.02 934.22 103.57C932.26 103.41 931.28 103.33 929.31 103.17C923.91 102.73 921.4 100.14 921.76 95.3501C922.13 90.5601 925.03 88.3701 930.46 88.8101C935.7 89.2301 938.31 89.4501 943.55 89.9101C948.98 90.3801 951.46 93.2601 950.98 98.5201C950.01 109.18 949.53 114.51 948.56 125.17C948.37 127.32 947.84 129.1 946.98 130.51C946.12 131.92 944.72 132.98 942.79 133.69C938.92 135.2 934.69 136.24 930.1 136.82C925.51 137.41 920.93 137.52 916.34 137.18L916.35 137.16Z" fill="white" stroke="#3B3B3B" stroke-width="1.5" stroke-miterlimit="10"/>
<path d="M969.52 139.81C964.29 139.28 961.93 136.4 962.44 131.15C964.64 108.54 966.85 85.9201 969.05 63.3101C969.56 58.0501 972.54 55.6901 977.97 56.2401C983.4 56.7901 985.85 59.7101 985.29 64.9601L978.18 132.75C977.63 138 974.74 140.35 969.51 139.82L969.52 139.81Z" fill="white" stroke="#3B3B3B" stroke-width="1.5" stroke-miterlimit="10"/>
<path d="M1001.35 143.28C996.13 142.67 993.81 139.76 994.4 134.51C996.94 111.93 999.49 89.3602 1002.03 66.7802C1002.62 61.5302 1005.63 59.2102 1011.06 59.8402C1011.76 59.9202 1012.11 59.9602 1012.81 60.0402C1016.99 60.5302 1020.08 62.6402 1022.08 66.3402C1031.79 84.8202 1041.28 103.39 1050.58 122.08C1052.81 105.95 1055.04 89.8302 1057.27 73.7002C1057.99 68.4702 1061.11 66.2302 1066.6 67.0102C1072.01 67.7802 1074.34 70.7902 1073.58 76.0202C1070.3 98.5002 1067.01 120.98 1063.73 143.46C1062.97 148.68 1060.1 150.93 1055.14 150.22C1054.61 150.14 1054.35 150.11 1053.82 150.03C1049.65 149.44 1046.72 147.3 1045.02 143.59C1035.62 124.25 1026.01 105.04 1016.17 85.9202C1014.15 102.72 1012.13 119.52 1010.11 136.32C1009.48 141.56 1006.55 143.86 1001.33 143.26L1001.35 143.28Z" fill="white" stroke="#3B3B3B" stroke-width="1.5" stroke-miterlimit="10"/>
<path d="M1086.49 154.94C1081.21 154.11 1078.97 151.1 1079.77 145.88C1083.22 123.42 1086.68 100.97 1090.13 78.5098C1090.93 73.2898 1094.08 71.0998 1099.57 71.9598C1113.92 74.2598 1128.24 76.6598 1142.56 79.1698C1148.03 80.1398 1150.34 83.0098 1149.48 87.7298C1148.62 92.4498 1145.47 94.3098 1140.03 93.3498C1128.45 91.2898 1116.86 89.3198 1105.25 87.4498C1104 95.1698 1103.38 99.0398 1102.13 106.76C1112.41 108.41 1122.67 110.14 1132.92 111.96C1138.31 112.91 1140.58 115.76 1139.73 120.49C1138.88 125.22 1135.78 127.09 1130.42 126.15C1120.24 124.35 1110.04 122.63 1099.84 120.99C1098.49 129.38 1097.81 133.57 1096.46 141.96C1108.22 143.86 1119.96 145.85 1131.68 147.95C1136.98 148.9 1139.2 151.75 1138.34 156.47C1137.48 161.19 1134.42 163.07 1129.15 162.13C1114.94 159.63 1100.73 157.24 1086.48 154.96L1086.49 154.94Z" fill="white" stroke="#3B3B3B" stroke-width="1.5" stroke-miterlimit="10"/>
<path d="M1156.9 167.26C1151.64 166.25 1149.5 163.16 1150.48 157.98C1154.69 135.65 1158.89 113.33 1163.1 90.9999C1164.08 85.8099 1167.3 83.7299 1172.77 84.7799C1187.05 87.5699 1201.31 90.4599 1215.55 93.4499C1221 94.6099 1223.21 97.5499 1222.19 102.24C1221.17 106.93 1217.96 108.68 1212.55 107.53C1201.03 105.08 1189.49 102.72 1177.94 100.45C1176.43 108.13 1175.68 111.97 1174.17 119.64C1184.4 121.64 1194.62 123.72 1204.81 125.88C1210.18 127.01 1212.35 129.94 1211.34 134.63C1210.33 139.32 1207.16 141.09 1201.83 139.97C1191.7 137.82 1181.55 135.76 1171.39 133.77C1169.75 142.11 1168.94 146.28 1167.3 154.61C1179.01 156.91 1190.69 159.3 1202.36 161.79C1207.64 162.92 1209.76 165.84 1208.74 170.53C1207.72 175.22 1204.59 176.99 1199.35 175.87C1185.21 172.89 1171.06 170.02 1156.88 167.25L1156.9 167.26Z" fill="white" stroke="#3B3B3B" stroke-width="1.5" stroke-miterlimit="10"/>
<path d="M1226.85 181.94C1221.7 180.77 1219.7 177.62 1220.85 172.47C1225.81 150.3 1230.76 128.12 1235.72 105.95C1236.87 100.8 1240.17 98.8202 1245.6 100.06C1256.22 102.51 1266.83 105 1277.43 107.55C1282.85 108.87 1287.36 110.81 1290.95 113.36C1294.53 115.91 1296.97 119.21 1298.24 123.25C1299.51 127.29 1299.39 132.26 1297.88 138.14C1296.01 145.42 1292.97 150.49 1288.78 153.34C1284.59 156.2 1279.52 157.41 1273.58 157.02C1275.7 166.35 1277.77 175.69 1279.79 185.04C1280.47 188.02 1280.17 190.26 1278.91 191.75C1277.65 193.25 1275.72 193.66 1273.11 193.01C1272.12 192.76 1271.62 192.64 1270.62 192.39C1266.28 191.31 1263.72 188.62 1262.93 184.31C1261.14 174.14 1259.29 163.98 1257.39 153.83C1251.36 152.39 1248.35 151.68 1242.31 150.28C1239.93 160.57 1238.74 165.71 1236.36 176C1235.17 181.14 1232 183.12 1226.85 181.94ZM1245.58 136.13C1254.13 138.11 1258.41 139.12 1266.94 141.19C1270.58 142.07 1273.63 142 1276.12 140.96C1278.6 139.92 1280.3 137.59 1281.21 133.94C1282.1 130.37 1281.67 127.54 1279.94 125.47C1278.21 123.39 1275.5 121.91 1271.82 121.02C1263.2 118.93 1258.89 117.91 1250.25 115.91C1248.38 124 1247.44 128.05 1245.57 136.14L1245.58 136.13Z" fill="white" stroke="#3B3B3B" stroke-width="1.5" stroke-miterlimit="10"/>
<path d="M524.544 290.624C515.904 290.624 508.672 290.048 502.848 288.896C497.024 287.744 492.416 285.696 489.024 282.752C488.32 283.264 487.36 283.904 486.144 284.672C484.992 285.504 483.872 286.272 482.784 286.976C481.76 287.68 480.96 288.224 480.384 288.608C478.912 289.632 477.216 289.952 475.296 289.568C473.376 289.184 471.968 288.16 471.072 286.496C470.24 284.832 470.048 283.136 470.496 281.408C470.944 279.68 471.968 278.432 473.568 277.664C474.464 277.216 475.616 276.672 477.024 276.032C478.496 275.328 479.84 274.688 481.056 274.112V253.376C481.056 252.032 480.864 251.104 480.48 250.592C480.096 250.08 479.2 249.824 477.792 249.824H476.064C474.272 249.824 472.832 249.248 471.744 248.096C470.72 246.944 470.208 245.568 470.208 243.968C470.208 242.304 470.72 240.896 471.744 239.744C472.832 238.592 474.272 238.016 476.064 238.016H483.264C490.048 238.016 493.44 241.408 493.44 248.192V272.192C494.976 273.984 497.056 275.392 499.68 276.416C499.168 275.008 499.168 273.664 499.68 272.384C500.256 271.104 501.344 270.08 502.944 269.312C503.84 268.928 504.928 268.416 506.208 267.776C507.552 267.136 508.896 266.496 510.24 265.856H499.68C498.272 265.856 497.152 265.408 496.32 264.512C495.552 263.552 495.168 262.464 495.168 261.248C495.168 259.968 495.552 258.88 496.32 257.984C497.152 257.024 498.272 256.544 499.68 256.544H509.76V252.8H501.696C500.48 252.8 499.424 252.32 498.528 251.36C497.632 250.4 497.184 249.312 497.184 248.096C497.184 246.816 497.568 245.728 498.336 244.832C499.168 243.872 500.288 243.392 501.696 243.392H509.76V239.456H507.456C503.424 239.456 500.512 238.624 498.72 236.96C496.928 235.296 496.032 232.288 496.032 227.936C496.032 223.84 496.832 221.024 498.432 219.488C500.032 217.952 502.976 217.184 507.264 217.184H509.376C510.464 217.184 511.168 217.056 511.488 216.8C511.808 216.544 511.968 216.096 511.968 215.456C511.968 214.752 511.808 214.304 511.488 214.112C511.168 213.92 510.464 213.824 509.376 213.824H499.488C498.016 213.824 496.864 213.376 496.032 212.48C495.2 211.52 494.784 210.4 494.784 209.12C494.784 207.84 495.2 206.752 496.032 205.856C496.864 204.896 498.016 204.416 499.488 204.416H511.488C515.776 204.416 518.752 205.184 520.416 206.72C522.08 208.256 522.912 211.072 522.912 215.168C522.912 219.264 522.08 222.08 520.416 223.616C518.752 225.152 515.776 225.92 511.488 225.92H509.856C508.896 225.92 508.256 226.08 507.936 226.4C507.616 226.72 507.456 227.232 507.456 227.936C507.456 228.832 507.648 229.408 508.032 229.664C508.48 229.92 509.152 230.048 510.048 230.048H511.488C512.64 230.048 513.504 229.92 514.08 229.664C514.656 229.344 515.2 228.704 515.712 227.744C516.288 226.72 517.248 226.016 518.592 225.632C519.936 225.248 521.312 225.376 522.72 226.016C524.192 226.656 525.12 227.584 525.504 228.8C525.952 230.016 525.952 231.264 525.504 232.544C524.736 234.912 523.552 236.608 521.952 237.632V243.392H530.976V238.016C528.224 236.544 526.848 233.184 526.848 227.936C526.848 223.84 527.648 221.024 529.248 219.488C530.848 217.952 533.792 217.184 538.08 217.184H541.536C542.624 217.184 543.328 217.056 543.648 216.8C543.968 216.544 544.128 216.096 544.128 215.456C544.128 214.752 543.968 214.304 543.648 214.112C543.328 213.92 542.624 213.824 541.536 213.824H530.304C528.832 213.824 527.68 213.376 526.848 212.48C526.016 211.52 525.6 210.4 525.6 209.12C525.6 207.84 526.016 206.752 526.848 205.856C527.68 204.896 528.832 204.416 530.304 204.416H543.648C547.936 204.416 550.912 205.184 552.576 206.72C554.24 208.256 555.072 211.072 555.072 215.168C555.072 219.264 554.24 222.08 552.576 223.616C550.912 225.152 547.936 225.92 543.648 225.92H540.672C539.712 225.92 539.072 226.08 538.752 226.4C538.432 226.72 538.272 227.232 538.272 227.936C538.272 228.832 538.464 229.408 538.848 229.664C539.296 229.92 539.968 230.048 540.864 230.048H543.648C544.8 230.048 545.664 229.92 546.24 229.664C546.816 229.344 547.36 228.704 547.872 227.744C548.448 226.72 549.408 226.016 550.752 225.632C552.096 225.248 553.472 225.376 554.88 226.016C556.352 226.656 557.28 227.584 557.664 228.8C558.112 230.016 558.112 231.264 557.664 232.544C556.768 235.296 555.328 237.152 553.344 238.112C551.424 239.008 548.576 239.456 544.8 239.456H543.168V243.392H553.152C554.624 243.392 555.744 243.872 556.512 244.832C557.28 245.728 557.664 246.816 557.664 248.096C557.664 249.312 557.28 250.4 556.512 251.36C555.744 252.32 554.624 252.8 553.152 252.8H543.168V256.544H555.456C556.928 256.544 558.016 257.024 558.72 257.984C559.488 258.88 559.872 259.968 559.872 261.248C559.872 262.464 559.488 263.552 558.72 264.512C558.016 265.408 556.928 265.856 555.456 265.856H541.728C543.072 266.496 544.416 267.136 545.76 267.776C547.104 268.416 548.192 268.928 549.024 269.312C550.752 270.144 551.872 271.264 552.384 272.672C552.896 274.08 552.8 275.52 552.096 276.992C551.968 277.248 551.776 277.504 551.52 277.76C551.328 278.016 551.136 278.272 550.944 278.528C551.392 278.464 551.808 278.432 552.192 278.432C552.576 278.432 552.96 278.4 553.344 278.336C555.584 278.144 557.408 278.592 558.816 279.68C560.288 280.768 561.024 282.272 561.024 284.192C561.024 286.176 560.416 287.744 559.2 288.896C558.048 290.048 556.16 290.624 553.536 290.624H524.544ZM491.616 224C490.336 225.216 488.8 225.856 487.008 225.92C485.216 225.92 483.712 225.248 482.496 223.904C481.408 222.624 480.032 221.216 478.368 219.68C476.768 218.144 475.328 216.832 474.048 215.744C472.832 214.656 472.224 213.248 472.224 211.52C472.288 209.728 472.928 208.224 474.144 207.008C475.36 205.792 476.8 205.088 478.464 204.896C480.192 204.704 481.76 205.248 483.168 206.528C484.704 207.808 486.304 209.184 487.968 210.656C489.632 212.128 490.976 213.408 492 214.496C493.408 215.84 494.048 217.44 493.92 219.296C493.856 221.088 493.088 222.656 491.616 224ZM524.544 279.2C527.36 279.2 530.304 279.168 533.376 279.104C536.512 279.04 539.52 278.976 542.4 278.912C540.8 278.08 538.976 277.12 536.928 276.032C534.88 274.88 533.12 273.824 531.648 272.864C530.432 272.032 529.632 270.944 529.248 269.6C528.864 268.192 528.992 266.944 529.632 265.856H522.336C522.976 266.944 523.104 268.192 522.72 269.6C522.4 270.944 521.632 272.032 520.416 272.864C519.008 273.696 517.344 274.656 515.424 275.744C513.504 276.832 511.776 277.792 510.24 278.624C514.208 279.008 518.976 279.2 524.544 279.2ZM521.952 256.544H530.976V252.8H521.952V256.544ZM614.304 288.992C608.352 288.992 603.744 287.52 600.48 284.576C597.28 281.696 595.68 277.664 595.68 272.48C595.68 267.552 597.376 263.584 600.768 260.576C604.16 257.504 608.896 255.968 614.976 255.968C615.552 255.968 616.128 255.968 616.704 255.968C617.28 255.968 617.856 256 618.432 256.064C618.368 253.504 618.272 250.784 618.144 247.904C618.08 245.024 617.984 242.048 617.856 238.976C611.136 239.36 605.504 239.456 600.96 239.264C599.04 239.2 597.44 238.464 596.16 237.056C594.88 235.648 594.272 233.984 594.336 232.064C594.4 230.144 595.136 228.544 596.544 227.264C597.952 225.92 599.616 225.312 601.536 225.44C603.456 225.504 605.824 225.504 608.64 225.44C611.456 225.376 614.432 225.28 617.568 225.152C617.568 223.04 617.536 220.992 617.472 219.008C617.472 216.96 617.472 215.008 617.472 213.152C617.472 211.168 618.176 209.504 619.584 208.16C620.992 206.752 622.688 206.048 624.672 206.048C626.656 206.048 628.32 206.752 629.664 208.16C631.072 209.504 631.776 211.168 631.776 213.152C631.776 214.88 631.776 216.672 631.776 218.528C631.84 220.384 631.872 222.272 631.872 224.192C634.368 224 636.64 223.808 638.688 223.616C640.736 223.36 642.432 223.136 643.776 222.944C643.008 222.496 642.464 221.984 642.144 221.408C641.632 220.576 640.8 219.392 639.648 217.856C638.56 216.256 637.664 214.912 636.96 213.824C636.448 213.056 636.288 212.096 636.48 210.944C636.672 209.728 637.28 208.736 638.304 207.968C639.2 207.328 640.192 207.04 641.28 207.104C642.432 207.168 643.424 207.584 644.256 208.352C645.216 209.248 646.272 210.432 647.424 211.904C648.64 213.312 649.6 214.624 650.304 215.84C651.008 216.992 651.232 218.208 650.976 219.488C650.72 220.704 650.048 221.76 648.96 222.656C648.768 222.784 648.544 222.912 648.288 223.04C648.096 223.104 647.872 223.2 647.616 223.328C648.704 223.776 649.632 224.448 650.4 225.344C651.232 226.24 651.744 227.328 651.936 228.608C652.256 230.464 651.84 232.192 650.688 233.792C649.6 235.328 648.096 236.256 646.176 236.576C644.576 236.832 642.56 237.088 640.128 237.344C637.696 237.6 635.04 237.856 632.16 238.112C632.288 241.952 632.384 245.696 632.448 249.344C632.512 252.928 632.576 256.192 632.64 259.136C636.224 260.352 639.52 261.76 642.528 263.36C645.536 264.96 648.096 266.56 650.208 268.16C651.808 269.376 652.768 270.976 653.088 272.96C653.408 274.88 652.992 276.672 651.84 278.336C650.688 279.936 649.12 280.96 647.136 281.408C645.216 281.792 643.456 281.376 641.856 280.16C640.448 279.072 639.008 278.016 637.536 276.992C636.064 275.968 634.496 275.04 632.832 274.208C631.68 284.064 625.504 288.992 614.304 288.992ZM582.816 289.088C580.832 289.408 579.04 288.992 577.44 287.84C575.84 286.752 574.848 285.248 574.464 283.328C574.08 281.216 573.76 278.336 573.504 274.688C573.312 270.976 573.184 266.848 573.12 262.304C573.12 257.696 573.152 252.928 573.216 248C573.344 243.008 573.536 238.176 573.792 233.504C574.048 228.832 574.368 224.576 574.752 220.736C575.2 216.896 575.712 213.792 576.288 211.424C576.8 209.504 577.888 208.032 579.552 207.008C581.216 205.984 583.008 205.696 584.928 206.144C586.848 206.592 588.32 207.68 589.344 209.408C590.432 211.072 590.72 212.864 590.208 214.784C589.632 217.088 589.152 220.032 588.768 223.616C588.384 227.136 588.064 231.008 587.808 235.232C587.552 239.456 587.36 243.808 587.232 248.288C587.168 252.704 587.168 257.024 587.232 261.248C587.296 265.408 587.424 269.184 587.616 272.576C587.872 275.968 588.192 278.72 588.576 280.832C588.896 282.752 588.48 284.512 587.328 286.112C586.24 287.776 584.736 288.768 582.816 289.088ZM659.424 214.304C658.464 215.136 657.312 215.52 655.968 215.456C654.624 215.392 653.504 214.816 652.608 213.728C651.968 213.024 651.04 211.936 649.824 210.464C648.608 208.928 647.552 207.648 646.656 206.624C646.08 205.92 645.824 204.992 645.888 203.84C646.016 202.624 646.528 201.6 647.424 200.768C648.192 200.064 649.152 199.68 650.304 199.616C651.456 199.552 652.48 199.872 653.376 200.576C654.464 201.408 655.648 202.496 656.928 203.84C658.272 205.12 659.36 206.304 660.192 207.392C660.96 208.48 661.28 209.664 661.152 210.944C661.088 212.224 660.512 213.344 659.424 214.304ZM614.304 275.456C615.712 275.456 616.8 275.104 617.568 274.4C618.4 273.696 618.816 272.576 618.816 271.04V269.504C618.048 269.376 617.28 269.28 616.512 269.216C615.808 269.152 615.072 269.12 614.304 269.12C612.768 269.12 611.616 269.44 610.848 270.08C610.144 270.656 609.792 271.424 609.792 272.384C609.792 273.408 610.144 274.176 610.848 274.688C611.552 275.2 612.704 275.456 614.304 275.456ZM689.376 292.16C687.52 292.16 685.888 291.488 684.48 290.144C683.136 288.8 682.464 287.168 682.464 285.248V269.216C681.76 270.304 681.088 271.328 680.448 272.288C679.872 273.248 679.328 274.144 678.816 274.976C677.792 276.704 676.288 277.792 674.304 278.24C672.384 278.624 670.592 278.272 668.928 277.184C667.328 276.096 666.336 274.592 665.952 272.672C665.632 270.688 666.048 268.896 667.2 267.296C669.184 264.48 671.456 261.216 674.016 257.504C676.64 253.728 679.456 249.92 682.464 246.08V236.288C681.632 236.48 680.576 236.8 679.296 237.248C678.016 237.632 676.8 237.984 675.648 238.304C674.56 238.624 673.792 238.848 673.344 238.976C671.424 239.424 669.632 239.136 667.968 238.112C666.304 237.024 665.248 235.52 664.8 233.6C664.352 231.68 664.672 229.888 665.76 228.224C666.848 226.56 668.352 225.504 670.272 225.056C670.976 224.864 671.968 224.64 673.248 224.384C674.592 224.128 675.936 223.84 677.28 223.52C678.624 223.2 679.712 222.976 680.544 222.848C680.864 222.72 681.184 222.656 681.504 222.656C681.888 222.592 682.208 222.528 682.464 222.464V210.176C682.464 208.256 683.136 206.624 684.48 205.28C685.888 203.936 687.52 203.264 689.376 203.264C691.296 203.264 692.928 203.936 694.272 205.28C695.68 206.624 696.384 208.256 696.384 210.176V224.192C697.536 225.024 698.528 226.112 699.36 227.456C699.488 227.584 699.584 227.712 699.648 227.84C699.712 227.968 699.776 228.096 699.84 228.224C702.592 226.176 705.376 224.544 708.192 223.328C711.008 222.048 713.824 221.408 716.64 221.408C724.064 221.408 729.312 223.808 732.384 228.608C735.52 233.408 736.224 240.768 734.496 250.688C733.728 255.104 733.152 258.592 732.768 261.152C732.448 263.648 732.288 265.536 732.288 266.816C732.288 268.032 732.384 268.864 732.576 269.312C732.832 269.76 733.152 270.08 733.536 270.272C734.816 270.976 736.128 271.04 737.472 270.464C738.88 269.824 740.48 268.704 742.272 267.104C743.744 265.76 745.472 265.248 747.456 265.568C749.504 265.888 751.136 266.784 752.352 268.256C753.632 269.792 754.176 271.552 753.984 273.536C753.792 275.52 752.96 277.184 751.488 278.528C747.008 282.624 742.304 285.024 737.376 285.728C732.448 286.432 728.096 285.664 724.32 283.424C720.8 281.248 718.688 277.952 717.984 273.536C717.344 269.12 717.792 263.04 719.328 255.296C720.48 249.664 721.024 245.44 720.96 242.624C720.96 239.744 720.448 237.792 719.424 236.768C718.464 235.744 717.12 235.232 715.392 235.232C713.728 235.232 711.84 235.904 709.728 237.248C707.68 238.592 705.504 240.384 703.2 242.624C700.96 244.864 698.688 247.36 696.384 250.112V285.248C696.384 287.168 695.68 288.8 694.272 290.144C692.928 291.488 691.296 292.16 689.376 292.16ZM802.848 289.952C798.88 289.76 795.392 288.928 792.384 287.456C789.44 286.048 787.168 284.064 785.568 281.504C783.968 278.944 783.264 275.968 783.456 272.576C783.648 269.696 784.512 267.168 786.048 264.992C787.584 262.816 789.664 261.152 792.288 260C794.976 258.784 798.016 258.336 801.408 258.656C806.72 259.04 810.56 260.672 812.928 263.552C815.296 266.432 816.192 269.92 815.616 274.016C817.408 272.8 818.688 271.264 819.456 269.408C820.288 267.488 820.704 265.312 820.704 262.88C820.704 260.896 820.064 258.944 818.784 257.024C817.568 255.104 815.808 253.536 813.504 252.32C811.264 251.04 808.576 250.4 805.44 250.4C802.368 250.336 798.976 251.2 795.264 252.992C791.552 254.784 787.616 257.792 783.456 262.016C781.984 263.552 780.096 264.352 777.792 264.416C775.552 264.416 773.728 263.584 772.32 261.92C771.104 260.448 770.528 258.752 770.592 256.832C770.72 254.848 771.552 253.28 773.088 252.128C776.928 249.248 780.832 246.144 784.8 242.816C788.768 239.488 792.544 236.224 796.128 233.024C799.712 229.76 802.848 226.816 805.536 224.192C806.56 223.232 806.912 222.336 806.592 221.504C806.272 220.672 805.28 220.384 803.616 220.64C801.376 220.96 799.072 221.28 796.704 221.6C794.336 221.92 791.936 222.24 789.504 222.56C787.584 222.816 785.824 222.368 784.224 221.216C782.688 220 781.76 218.4 781.44 216.416C781.184 214.496 781.632 212.768 782.784 211.232C784 209.632 785.6 208.704 787.584 208.448C789.184 208.192 791.104 207.968 793.344 207.776C795.648 207.584 797.952 207.392 800.256 207.2C802.56 207.008 804.512 206.88 806.112 206.816C810.4 206.496 813.92 207.136 816.672 208.736C819.424 210.272 821.312 212.352 822.336 214.976C823.36 217.6 823.456 220.416 822.624 223.424C821.856 226.432 820.032 229.248 817.152 231.872C816.32 232.704 815.168 233.76 813.696 235.04C812.288 236.32 810.688 237.728 808.896 239.264C813.568 239.136 817.856 240 821.76 241.856C825.728 243.648 828.928 246.368 831.36 250.016C833.792 253.6 835.008 258.048 835.008 263.36C835.008 269.44 833.632 274.528 830.88 278.624C828.128 282.656 824.32 285.632 819.456 287.552C814.656 289.472 809.12 290.272 802.848 289.952ZM800.352 276.8C801.184 276.864 802.368 276.864 803.904 276.8C804.672 275.264 804.832 273.888 804.384 272.672C803.936 271.392 802.88 270.624 801.216 270.368C799.936 270.112 798.848 270.24 797.952 270.752C797.056 271.264 796.544 272 796.416 272.96C796.288 274.112 796.576 274.976 797.28 275.552C798.048 276.128 799.072 276.544 800.352 276.8ZM887.904 288.992C886.112 288.992 884.704 288.416 883.68 287.264C882.72 286.176 882.24 284.864 882.24 283.328C882.24 281.728 882.72 280.384 883.68 279.296C884.704 278.144 886.112 277.568 887.904 277.568H909.696V269.984H898.656C896.864 269.984 895.456 269.44 894.432 268.352C893.408 267.2 892.896 265.824 892.896 264.224C892.896 262.688 893.408 261.376 894.432 260.288C895.456 259.136 896.864 258.56 898.656 258.56H909.696V251.456H907.584C901.888 251.456 897.76 250.368 895.2 248.192C892.704 245.952 891.456 242.144 891.456 236.768V221.312C891.456 216 892.704 212.224 895.2 209.984C897.76 207.744 901.888 206.624 907.584 206.624H924.768C930.464 206.624 934.592 207.744 937.152 209.984C939.776 212.224 941.088 216 941.088 221.312V236.768C941.088 242.144 939.776 245.952 937.152 248.192C934.592 250.368 930.464 251.456 924.768 251.456H922.752V258.56H934.656C936.448 258.56 937.856 259.136 938.88 260.288C939.904 261.376 940.416 262.688 940.416 264.224C940.416 265.824 939.904 267.2 938.88 268.352C937.856 269.44 936.448 269.984 934.656 269.984H922.752V277.568H939.456C941.248 277.568 942.624 278.144 943.584 279.296C944.608 280.384 945.12 281.728 945.12 283.328C945.12 284.864 944.608 286.176 943.584 287.264C942.624 288.416 941.248 288.992 939.456 288.992H887.904ZM862.656 279.2C860.48 279.776 858.656 279.616 857.184 278.72C855.712 277.824 854.72 276.48 854.208 274.688C853.632 272.64 853.824 270.912 854.784 269.504C855.744 268.096 857.248 267.168 859.296 266.72C860.32 266.464 861.376 266.208 862.464 265.952C863.616 265.696 864.768 265.44 865.92 265.184V247.232H861.216C859.36 247.232 857.888 246.656 856.8 245.504C855.712 244.288 855.168 242.848 855.168 241.184C855.168 239.52 855.712 238.112 856.8 236.96C857.888 235.744 859.36 235.136 861.216 235.136H865.92V219.968H860.736C858.88 219.968 857.408 219.392 856.32 218.24C855.296 217.024 854.784 215.616 854.784 214.016C854.784 212.352 855.296 210.944 856.32 209.792C857.408 208.576 858.88 207.968 860.736 207.968H884.256C886.112 207.968 887.552 208.576 888.576 209.792C889.664 210.944 890.208 212.352 890.208 214.016C890.208 215.616 889.664 217.024 888.576 218.24C887.552 219.392 886.112 219.968 884.256 219.968H878.976V235.136H882.816C884.672 235.136 886.144 235.744 887.232 236.96C888.32 238.112 888.864 239.52 888.864 241.184C888.864 242.848 888.32 244.288 887.232 245.504C886.144 246.656 884.672 247.232 882.816 247.232H878.976V262.016C880 261.696 880.96 261.408 881.856 261.152C882.816 260.896 883.712 260.64 884.544 260.384C886.336 259.872 887.872 259.968 889.152 260.672C890.496 261.376 891.392 262.56 891.84 264.224C892.288 265.888 892.192 267.36 891.552 268.64C890.912 269.856 889.6 270.816 887.616 271.52C885.504 272.288 882.912 273.152 879.84 274.112C876.832 275.072 873.792 276 870.72 276.896C867.648 277.792 864.96 278.56 862.656 279.2ZM922.752 240.896H923.424C925.472 240.896 926.816 240.608 927.456 240.032C928.096 239.392 928.416 238.272 928.416 236.672V234.08H922.752V240.896ZM922.752 223.904H928.416V221.408C928.416 219.744 928.096 218.624 927.456 218.048C926.816 217.472 925.472 217.184 923.424 217.184H922.752V223.904ZM909.12 240.896H909.696V234.08H904.128V236.672C904.128 238.272 904.448 239.392 905.088 240.032C905.728 240.608 907.072 240.896 909.12 240.896ZM904.128 223.904H909.696V217.184H909.12C907.072 217.184 905.728 217.472 905.088 218.048C904.448 218.624 904.128 219.744 904.128 221.408V223.904ZM986.112 290.048C978.944 290.048 973.184 289.248 968.832 287.648C964.544 286.112 961.44 283.424 959.52 279.584C957.6 275.744 956.64 270.432 956.64 263.648V249.824C956.64 242.976 957.6 237.664 959.52 233.888C961.44 230.048 964.544 227.36 968.832 225.824C973.184 224.224 978.944 223.424 986.112 223.424H988.608V208.736C988.608 206.496 989.312 204.704 990.72 203.36C992.192 201.952 993.952 201.248 996 201.248C998.048 201.248 999.776 201.952 1001.18 203.36C1002.66 204.704 1003.39 206.496 1003.39 208.736V223.424H1005.6C1012.83 223.424 1018.59 224.224 1022.88 225.824C1027.23 227.36 1030.37 230.048 1032.29 233.888C1034.21 237.664 1035.17 242.976 1035.17 249.824V263.648C1035.17 270.432 1034.21 275.744 1032.29 279.584C1030.37 283.424 1027.23 286.112 1022.88 287.648C1018.59 289.248 1012.83 290.048 1005.6 290.048H986.112ZM985.824 277.184H988.608V262.592H971.52V264.032C971.52 267.488 971.904 270.176 972.672 272.096C973.44 274.016 974.848 275.36 976.896 276.128C979.008 276.832 981.984 277.184 985.824 277.184ZM1003.39 277.184H1005.98C1009.89 277.184 1012.83 276.832 1014.82 276.128C1016.86 275.36 1018.27 274.016 1019.04 272.096C1019.81 270.176 1020.19 267.488 1020.19 264.032V262.592H1003.39V277.184ZM971.52 249.632H988.608V236.192H985.824C981.984 236.192 979.008 236.576 976.896 237.344C974.848 238.048 973.44 239.36 972.672 241.28C971.904 243.2 971.52 245.888 971.52 249.344V249.632ZM1003.39 249.632H1020.19V249.344C1020.19 245.888 1019.81 243.2 1019.04 241.28C1018.27 239.36 1016.86 238.048 1014.82 237.344C1012.83 236.576 1009.89 236.192 1005.98 236.192H1003.39V249.632Z" fill="#89C3EB"/>
<path d="M736.8 188.52C736 188.387 735.347 188 734.84 187.36C734.333 186.72 734.133 185.987 734.24 185.16C734.373 184.333 734.76 183.68 735.4 183.2C736.04 182.693 736.773 182.493 737.6 182.6C738.427 182.707 739.133 182.733 739.72 182.68C740.307 182.6 740.8 182.333 741.2 181.88C741.627 181.4 741.987 180.653 742.28 179.64C742.6 178.627 742.88 177.227 743.12 175.44C743.36 173.813 743.387 172.587 743.2 171.76C743.013 170.933 742.587 170.387 741.92 170.12C741.253 169.827 740.307 169.72 739.08 169.8C738.093 173.187 736.867 176.467 735.4 179.64C733.933 182.813 732.293 185.507 730.48 187.72C729.973 188.333 729.307 188.693 728.48 188.8C727.68 188.907 726.947 188.707 726.28 188.2C725.64 187.693 725.267 187.027 725.16 186.2C725.053 185.373 725.267 184.653 725.8 184.04C727.24 182.307 728.573 180.253 729.8 177.88C731.027 175.507 732.093 173 733 170.36C732.307 170.413 731.613 170.48 730.92 170.56C730.227 170.64 729.573 170.707 728.96 170.76C728.133 170.84 727.4 170.627 726.76 170.12C726.12 169.613 725.76 168.947 725.68 168.12C725.6 167.293 725.813 166.56 726.32 165.92C726.827 165.28 727.493 164.92 728.32 164.84C729.333 164.733 730.373 164.64 731.44 164.56C732.533 164.48 733.6 164.4 734.64 164.32C734.88 163.227 735.067 162.16 735.2 161.12C735.36 160.053 735.467 159 735.52 157.96C735.573 157.133 735.907 156.453 736.52 155.92C737.133 155.36 737.853 155.107 738.68 155.16C739.507 155.213 740.2 155.547 740.76 156.16C741.347 156.773 741.587 157.493 741.48 158.32C741.293 160.187 740.973 162.12 740.52 164.12C744.04 164.28 746.453 165.333 747.76 167.28C749.067 169.2 749.453 172.187 748.92 176.24C748.467 179.68 747.747 182.347 746.76 184.24C745.8 186.133 744.507 187.387 742.88 188C741.253 188.64 739.227 188.813 736.8 188.52ZM759.64 176.76C758.92 177.133 758.16 177.213 757.36 177C756.587 176.76 756 176.28 755.6 175.56C755.147 174.76 754.573 173.893 753.88 172.96C753.213 172 752.507 171.08 751.76 170.2C751.013 169.32 750.333 168.56 749.72 167.92C749.16 167.307 748.853 166.613 748.8 165.84C748.747 165.04 749 164.347 749.56 163.76C750.12 163.147 750.813 162.84 751.64 162.84C752.493 162.84 753.213 163.12 753.8 163.68C755.16 164.987 756.467 166.453 757.72 168.08C758.973 169.68 760.013 171.227 760.84 172.72C761.24 173.413 761.32 174.16 761.08 174.96C760.84 175.76 760.36 176.36 759.64 176.76ZM759.68 159.96C759.387 159.693 758.933 159.307 758.32 158.8C757.707 158.267 757.173 157.827 756.72 157.48C756.453 157.24 756.28 156.88 756.2 156.4C756.147 155.893 756.293 155.427 756.64 155C756.907 154.627 757.267 154.4 757.72 154.32C758.173 154.213 758.613 154.267 759.04 154.48C759.52 154.747 760.08 155.107 760.72 155.56C761.36 155.987 761.893 156.4 762.32 156.8C762.72 157.173 762.947 157.627 763 158.16C763.053 158.693 762.893 159.2 762.52 159.68C762.2 160.107 761.76 160.36 761.2 160.44C760.64 160.493 760.133 160.333 759.68 159.96ZM755.96 163.88C755.693 163.587 755.267 163.16 754.68 162.6C754.12 162.013 753.653 161.52 753.28 161.12C753.013 160.827 752.88 160.44 752.88 159.96C752.88 159.48 753.053 159.04 753.4 158.64C753.693 158.32 754.08 158.133 754.56 158.08C755.04 158 755.48 158.093 755.88 158.36C756.333 158.653 756.853 159.053 757.44 159.56C758.053 160.067 758.533 160.547 758.88 161C759.253 161.427 759.44 161.907 759.44 162.44C759.44 162.947 759.24 163.427 758.84 163.88C758.493 164.253 758.027 164.453 757.44 164.48C756.853 164.507 756.36 164.307 755.96 163.88Z" fill="#89C3EB"/>
<path d="M0 1775V1485H0.28C11.16 1594.29 345.34 1682 756 1682C1166.66 1682 1500.84 1594.29 1511.72 1485H1512V1775H0Z" fill="#89C3EB"/>
<defs>
<clipPath id="clip0_13_3822">
<rect width="588" height="46" fill="white" transform="translate(462 273)"/>
</clipPath>
</defs>
</svg>
