<svg width="200" height="236" viewBox="0 0 200 236" fill="none" xmlns="http://www.w3.org/2000/svg">
<path d="M75.268 15.672C74.92 15.672 74.62 15.558 74.368 15.33C74.116 15.09 73.99 14.778 73.99 14.394V13.854C73.99 12.966 74.182 12.306 74.566 11.874C74.95 11.442 75.64 11.184 76.636 11.1C76.6 11.028 76.54 10.926 76.456 10.794C76.372 10.662 76.288 10.536 76.204 10.416C76.132 10.284 76.084 10.2 76.06 10.164C75.94 9.96 75.886 9.744 75.898 9.516C75.922 9.276 76.012 9.072 76.168 8.904C75.832 8.88 75.556 8.766 75.34 8.562C75.136 8.346 75.034 8.07 75.034 7.734C75.034 7.386 75.16 7.116 75.412 6.924C75.664 6.72 75.982 6.624 76.366 6.636C77.206 6.648 78.082 6.642 78.994 6.618C79.918 6.582 80.83 6.528 81.73 6.456C82.642 6.372 83.5 6.276 84.304 6.168C85.108 6.048 85.822 5.922 86.446 5.79C86.878 5.694 87.226 5.724 87.49 5.88C87.766 6.024 87.94 6.234 88.012 6.51C88.12 6.906 88.072 7.236 87.868 7.5C87.676 7.752 87.436 7.908 87.148 7.968L86.896 8.022C87.1 8.178 87.232 8.388 87.292 8.652C87.352 8.916 87.316 9.192 87.184 9.48C87.136 9.6 87.028 9.816 86.86 10.128C86.692 10.44 86.524 10.752 86.356 11.064H86.59C87.478 11.064 88.174 11.148 88.678 11.316C89.182 11.472 89.536 11.742 89.74 12.126C89.956 12.51 90.064 13.038 90.064 13.71V14.376C90.064 14.772 89.938 15.09 89.686 15.33C89.434 15.558 89.134 15.672 88.786 15.672C88.426 15.672 88.12 15.558 87.868 15.33C87.628 15.09 87.508 14.772 87.508 14.376V13.782C87.508 13.506 87.442 13.326 87.31 13.242C87.178 13.158 86.92 13.116 86.536 13.116H77.518C77.134 13.116 76.876 13.158 76.744 13.242C76.612 13.326 76.546 13.506 76.546 13.782V14.394C76.546 14.778 76.42 15.09 76.168 15.33C75.916 15.558 75.616 15.672 75.268 15.672ZM75.664 22.53C75.184 22.578 74.8 22.506 74.512 22.314C74.236 22.134 74.074 21.846 74.026 21.45C73.978 21.054 74.074 20.73 74.314 20.478C74.566 20.214 74.92 20.064 75.376 20.028C76.24 19.968 77.056 19.848 77.824 19.668C78.592 19.476 79.306 19.248 79.966 18.984C79.234 18.192 78.634 17.22 78.166 16.068H77.77C77.47 16.068 77.218 15.966 77.014 15.762C76.81 15.546 76.708 15.288 76.708 14.988C76.708 14.688 76.81 14.43 77.014 14.214C77.218 13.998 77.47 13.89 77.77 13.89H83.692C84.46 13.89 85.078 14.01 85.546 14.25C86.026 14.49 86.356 14.808 86.536 15.204C86.716 15.6 86.746 16.032 86.626 16.5C86.506 16.968 86.236 17.43 85.816 17.886C85.624 18.102 85.426 18.312 85.222 18.516C85.018 18.708 84.808 18.894 84.592 19.074C85.156 19.29 85.78 19.464 86.464 19.596C87.16 19.728 87.928 19.818 88.768 19.866C89.224 19.878 89.578 20.022 89.83 20.298C90.082 20.574 90.19 20.904 90.154 21.288C90.082 22.104 89.542 22.494 88.534 22.458C85.99 22.362 83.842 21.792 82.09 20.748C81.214 21.204 80.242 21.582 79.174 21.882C78.118 22.182 76.948 22.398 75.664 22.53ZM82.792 11.064H83.8C83.908 10.824 84.04 10.53 84.196 10.182C84.352 9.822 84.502 9.48 84.646 9.156C84.802 8.832 84.904 8.604 84.952 8.472C84.964 8.448 84.97 8.424 84.97 8.4C84.982 8.376 84.994 8.358 85.006 8.346C84.55 8.406 84.07 8.466 83.566 8.526C83.062 8.574 82.546 8.622 82.018 8.67C82.09 8.742 82.162 8.832 82.234 8.94C82.246 8.964 82.294 9.06 82.378 9.228C82.462 9.384 82.546 9.546 82.63 9.714C82.714 9.87 82.762 9.966 82.774 10.002C82.978 10.374 82.984 10.728 82.792 11.064ZM78.742 11.064H80.614L80.578 11.028C80.554 10.968 80.5 10.866 80.416 10.722C80.344 10.566 80.272 10.416 80.2 10.272C80.128 10.128 80.08 10.038 80.056 10.002C79.96 9.798 79.924 9.588 79.948 9.372C79.972 9.156 80.05 8.97 80.182 8.814C79.81 8.826 79.444 8.844 79.084 8.868C78.724 8.88 78.37 8.886 78.022 8.886C78.034 8.91 78.052 8.934 78.076 8.958C78.1 8.982 78.154 9.072 78.238 9.228C78.334 9.372 78.43 9.522 78.526 9.678C78.622 9.822 78.676 9.912 78.688 9.948C78.94 10.332 78.958 10.704 78.742 11.064ZM82.306 17.724C82.522 17.568 82.726 17.412 82.918 17.256C83.122 17.088 83.308 16.914 83.476 16.734C83.668 16.554 83.734 16.398 83.674 16.266C83.626 16.134 83.464 16.068 83.188 16.068H80.938C81.142 16.38 81.352 16.674 81.568 16.95C81.796 17.226 82.042 17.484 82.306 17.724ZM99.856 22.638C99.544 22.638 99.274 22.536 99.046 22.332C98.83 22.128 98.722 21.846 98.722 21.486V19.758H98.29C98.074 19.758 97.888 19.68 97.732 19.524C97.732 20.172 97.648 20.694 97.48 21.09C97.324 21.486 97.042 21.774 96.634 21.954C96.238 22.134 95.662 22.224 94.906 22.224C94.15 22.224 93.568 22.128 93.16 21.936C92.752 21.756 92.47 21.462 92.314 21.054C92.158 20.658 92.08 20.13 92.08 19.47C92.08 18.786 92.158 18.246 92.314 17.85C92.47 17.442 92.752 17.154 93.16 16.986C93.568 16.818 94.15 16.734 94.906 16.734C95.794 16.734 96.436 16.854 96.832 17.094C97.24 17.322 97.504 17.73 97.624 18.318C97.804 18.114 98.026 18.012 98.29 18.012H98.722V16.104C98.722 15.492 98.812 15.012 98.992 14.664C99.172 14.304 99.49 14.052 99.946 13.908C100.402 13.752 101.044 13.674 101.872 13.674H101.98V13.152H98.524C98.272 13.152 98.056 13.068 97.876 12.9C97.708 12.72 97.624 12.51 97.624 12.27C97.624 12.03 97.708 11.82 97.876 11.64C98.056 11.46 98.272 11.37 98.524 11.37H100.234V10.794H99.244C99.016 10.794 98.824 10.716 98.668 10.56C98.512 10.404 98.434 10.218 98.434 10.002C98.434 9.774 98.512 9.582 98.668 9.426C98.824 9.27 99.016 9.192 99.244 9.192H100.234V8.67H98.524C98.296 8.67 98.104 8.592 97.948 8.436C97.792 8.28 97.714 8.088 97.714 7.86C97.714 7.632 97.792 7.44 97.948 7.284C98.104 7.116 98.296 7.032 98.524 7.032H100.234V6.744C100.234 6.396 100.342 6.126 100.558 5.934C100.774 5.742 101.032 5.646 101.332 5.646C101.644 5.646 101.908 5.742 102.124 5.934C102.34 6.126 102.448 6.396 102.448 6.744V7.032H103.672V6.744C103.672 6.396 103.78 6.126 103.996 5.934C104.224 5.742 104.488 5.646 104.788 5.646C105.1 5.646 105.358 5.742 105.562 5.934C105.778 6.126 105.886 6.396 105.886 6.744V7.032H107.686C107.914 7.032 108.106 7.116 108.262 7.284C108.418 7.44 108.496 7.632 108.496 7.86C108.496 8.088 108.418 8.28 108.262 8.436C108.106 8.592 107.914 8.67 107.686 8.67H105.886V9.192H107.074C107.302 9.192 107.494 9.27 107.65 9.426C107.806 9.582 107.884 9.774 107.884 10.002C107.884 10.218 107.806 10.404 107.65 10.56C107.494 10.716 107.302 10.794 107.074 10.794H105.886V11.37H107.74C107.98 11.37 108.184 11.46 108.352 11.64C108.532 11.82 108.622 12.03 108.622 12.27C108.622 12.51 108.532 12.72 108.352 12.9C108.184 13.068 107.98 13.152 107.74 13.152H104.158V13.674H104.266C105.106 13.674 105.754 13.752 106.21 13.908C106.666 14.052 106.978 14.304 107.146 14.664C107.326 15.012 107.416 15.492 107.416 16.104V18.012H107.902C108.142 18.012 108.346 18.096 108.514 18.264C108.682 18.432 108.766 18.636 108.766 18.876C108.766 19.116 108.682 19.326 108.514 19.506C108.346 19.674 108.142 19.758 107.902 19.758H107.416V20.262C107.416 21.09 107.206 21.684 106.786 22.044C106.378 22.416 105.712 22.602 104.788 22.602C104.452 22.602 104.194 22.506 104.014 22.314C103.846 22.122 103.75 21.876 103.726 21.576C103.702 21.276 103.78 21.024 103.96 20.82C104.152 20.616 104.398 20.508 104.698 20.496C104.89 20.472 105.01 20.43 105.058 20.37C105.106 20.31 105.13 20.184 105.13 19.992V19.758H101.008V21.486C101.008 21.846 100.894 22.128 100.666 22.332C100.438 22.536 100.168 22.638 99.856 22.638ZM92.224 10.974C91.96 10.974 91.726 10.878 91.522 10.686C91.33 10.482 91.234 10.248 91.234 9.984C91.234 9.708 91.33 9.474 91.522 9.282C91.726 9.078 91.96 8.976 92.224 8.976H97.354C97.63 8.976 97.864 9.078 98.056 9.282C98.248 9.474 98.344 9.708 98.344 9.984C98.344 10.248 98.248 10.482 98.056 10.686C97.864 10.878 97.63 10.974 97.354 10.974H92.224ZM93.142 8.4C92.866 8.4 92.626 8.304 92.422 8.112C92.218 7.908 92.116 7.662 92.116 7.374C92.116 7.098 92.218 6.858 92.422 6.654C92.626 6.45 92.866 6.348 93.142 6.348H96.544C96.832 6.348 97.072 6.45 97.264 6.654C97.468 6.858 97.57 7.098 97.57 7.374C97.57 7.662 97.468 7.908 97.264 8.112C97.072 8.304 96.832 8.4 96.544 8.4H93.142ZM93.106 16.122C92.83 16.122 92.59 16.026 92.386 15.834C92.194 15.63 92.098 15.39 92.098 15.114C92.098 14.838 92.194 14.604 92.386 14.412C92.59 14.22 92.83 14.124 93.106 14.124H96.58C96.856 14.124 97.09 14.22 97.282 14.412C97.474 14.604 97.57 14.838 97.57 15.114C97.57 15.39 97.474 15.63 97.282 15.834C97.09 16.026 96.856 16.122 96.58 16.122H93.106ZM93.106 13.548C92.83 13.548 92.59 13.452 92.386 13.26C92.194 13.056 92.098 12.816 92.098 12.54C92.098 12.264 92.194 12.03 92.386 11.838C92.59 11.646 92.83 11.55 93.106 11.55H96.58C96.856 11.55 97.09 11.646 97.282 11.838C97.474 12.03 97.57 12.264 97.57 12.54C97.57 12.816 97.474 13.056 97.282 13.26C97.09 13.452 96.856 13.548 96.58 13.548H93.106ZM94.906 20.19C95.122 20.19 95.266 20.148 95.338 20.064C95.41 19.98 95.446 19.782 95.446 19.47C95.446 19.158 95.41 18.96 95.338 18.876C95.266 18.792 95.122 18.75 94.906 18.75C94.678 18.75 94.528 18.792 94.456 18.876C94.384 18.96 94.348 19.158 94.348 19.47C94.348 19.782 94.384 19.98 94.456 20.064C94.528 20.148 94.678 20.19 94.906 20.19ZM102.448 11.37H103.672V10.794H102.448V11.37ZM102.448 9.192H103.672V8.67H102.448V9.192ZM101.008 18.012H101.98V17.418H101.008V18.012ZM104.158 18.012H105.13V17.418H104.158V18.012ZM101.008 15.852H101.98V15.276H101.872C101.56 15.276 101.344 15.312 101.224 15.384C101.104 15.456 101.032 15.612 101.008 15.852ZM104.158 15.852H105.13C105.118 15.612 105.046 15.456 104.914 15.384C104.794 15.312 104.578 15.276 104.266 15.276H104.158V15.852ZM112.564 22.602C112.156 22.71 111.808 22.704 111.52 22.584C111.232 22.464 111.022 22.224 110.89 21.864C110.782 21.516 110.812 21.204 110.98 20.928C111.16 20.652 111.424 20.472 111.772 20.388C112.144 20.304 112.558 20.202 113.014 20.082C113.47 19.95 113.914 19.806 114.346 19.65C113.818 19.518 113.446 19.266 113.23 18.894C113.014 18.522 112.906 17.976 112.906 17.256V15.51C112.906 15.414 112.906 15.318 112.906 15.222C112.906 15.114 112.912 15.018 112.924 14.934C112.348 15.162 111.718 15.36 111.034 15.528C110.662 15.612 110.344 15.6 110.08 15.492C109.828 15.384 109.648 15.162 109.54 14.826C109.432 14.514 109.444 14.226 109.576 13.962C109.72 13.698 109.96 13.53 110.296 13.458C110.932 13.326 111.484 13.176 111.952 13.008C112.42 12.84 112.822 12.642 113.158 12.414H112.006C111.502 12.414 111.112 12.294 110.836 12.054C110.56 11.802 110.482 11.352 110.602 10.704C110.698 10.068 110.896 9.618 111.196 9.354C111.496 9.09 111.904 8.958 112.42 8.958H114.724C114.724 8.886 114.724 8.814 114.724 8.742C114.736 8.67 114.742 8.592 114.742 8.508H110.854C110.638 8.508 110.452 8.436 110.296 8.292C110.14 8.136 110.062 7.944 110.062 7.716C110.062 7.488 110.14 7.296 110.296 7.14C110.464 6.984 110.674 6.906 110.926 6.906H114.742V6.852C114.742 6.456 114.868 6.144 115.12 5.916C115.384 5.676 115.696 5.556 116.056 5.556C116.416 5.556 116.722 5.676 116.974 5.916C117.238 6.144 117.37 6.456 117.37 6.852V6.906H118.702V6.852C118.702 6.456 118.828 6.144 119.08 5.916C119.332 5.676 119.644 5.556 120.016 5.556C120.376 5.556 120.682 5.676 120.934 5.916C121.186 6.144 121.312 6.456 121.312 6.852V6.906H123.616C124.192 6.906 124.606 7.032 124.858 7.284C125.11 7.536 125.236 7.992 125.236 8.652C125.236 9.3 125.104 9.75 124.84 10.002C124.588 10.254 124.156 10.38 123.544 10.38H121.312V10.848H124.354C125.806 10.848 126.436 11.52 126.244 12.864C126.172 13.416 126.034 13.848 125.83 14.16C125.626 14.472 125.38 14.7 125.092 14.844C124.816 14.976 124.522 15.066 124.21 15.114C123.754 15.174 123.406 15.006 123.166 14.61C123.19 14.742 123.208 14.886 123.22 15.042C123.232 15.186 123.238 15.342 123.238 15.51V17.256C123.238 17.988 123.118 18.546 122.878 18.93C122.65 19.302 122.254 19.548 121.69 19.668C122.11 19.824 122.542 19.962 122.986 20.082C123.43 20.202 123.832 20.304 124.192 20.388C124.54 20.46 124.798 20.64 124.966 20.928C125.146 21.204 125.182 21.516 125.074 21.864C124.954 22.224 124.744 22.464 124.444 22.584C124.156 22.704 123.808 22.71 123.4 22.602C123.028 22.494 122.59 22.356 122.086 22.188C121.594 22.032 121.108 21.858 120.628 21.666C120.148 21.486 119.74 21.318 119.404 21.162C119.128 21.03 118.948 20.838 118.864 20.586C118.792 20.322 118.81 20.058 118.918 19.794H117.046C117.154 20.058 117.166 20.322 117.082 20.586C117.01 20.838 116.836 21.03 116.56 21.162C116.236 21.318 115.828 21.486 115.336 21.666C114.856 21.858 114.37 22.032 113.878 22.188C113.386 22.356 112.948 22.494 112.564 22.602ZM115.426 16.626H120.7V16.158H115.426V16.626ZM115.444 14.952H120.682C120.658 14.748 120.58 14.622 120.448 14.574C120.328 14.514 120.112 14.484 119.8 14.484H116.344C116.032 14.484 115.81 14.514 115.678 14.574C115.546 14.622 115.468 14.748 115.444 14.952ZM116.344 18.282H119.8C120.112 18.282 120.328 18.258 120.448 18.21C120.58 18.15 120.658 18.024 120.682 17.832H115.444C115.468 18.024 115.546 18.15 115.678 18.21C115.81 18.258 116.032 18.282 116.344 18.282ZM122.986 14.034C122.95 13.602 123.112 13.302 123.472 13.134C123.712 13.026 123.838 12.882 123.85 12.702C123.886 12.51 123.772 12.414 123.508 12.414H121.312V13.026C121.756 13.086 122.11 13.194 122.374 13.35C122.65 13.506 122.854 13.734 122.986 14.034ZM115.84 12.972H118.702V12.414H116.272C116.2 12.51 116.128 12.606 116.056 12.702C115.984 12.786 115.912 12.876 115.84 12.972ZM116.992 10.848H118.702V10.38H117.118C117.106 10.464 117.088 10.548 117.064 10.632C117.04 10.704 117.016 10.776 116.992 10.848ZM113.194 10.848H114.382C114.406 10.776 114.43 10.704 114.454 10.632C114.49 10.548 114.514 10.464 114.526 10.38H113.302C113.182 10.38 113.092 10.392 113.032 10.416C112.984 10.44 112.948 10.506 112.924 10.614C112.9 10.71 112.918 10.776 112.978 10.812C113.038 10.836 113.11 10.848 113.194 10.848ZM117.334 8.958H118.702V8.508H117.352C117.352 8.592 117.346 8.67 117.334 8.742C117.334 8.814 117.334 8.886 117.334 8.958ZM121.312 8.958H122.446C122.614 8.958 122.698 8.886 122.698 8.742C122.698 8.586 122.614 8.508 122.446 8.508H121.312V8.958Z" fill="#3B3B3B"/>
<path d="M4.908 48.1C4.684 48.1 4.492 48.028 4.332 47.884C4.172 47.74 4.092 47.544 4.092 47.296V43.612C4.092 43.108 4.16 42.716 4.296 42.436C4.432 42.156 4.652 41.96 4.956 41.848C5.268 41.728 5.68 41.664 6.192 41.656C5.944 41.472 5.728 41.328 5.544 41.224C5.408 41.144 5.328 41.016 5.304 40.84C5.288 40.664 5.328 40.512 5.424 40.384L5.46 40.348H4.704C4.504 40.348 4.348 40.288 4.236 40.168C4.132 40.048 4.08 39.9 4.08 39.724C4.08 39.548 4.132 39.4 4.236 39.28C4.348 39.16 4.504 39.1 4.704 39.1H8.988C9.34 39.1 9.604 39.184 9.78 39.352C9.956 39.52 10.04 39.724 10.032 39.964C10.024 40.204 9.912 40.428 9.696 40.636C9.52 40.804 9.34 40.976 9.156 41.152C8.972 41.32 8.784 41.488 8.592 41.656H8.652C9.204 41.656 9.644 41.712 9.972 41.824C10.3 41.928 10.536 42.124 10.68 42.412C10.824 42.692 10.896 43.092 10.896 43.612V46.3C10.896 46.924 10.772 47.368 10.524 47.632C10.284 47.888 9.908 48.032 9.396 48.064C9.1 48.08 8.864 48.028 8.688 47.908C8.52 47.78 8.428 47.596 8.412 47.356C8.388 47.124 8.432 46.932 8.544 46.78C8.656 46.628 8.8 46.536 8.976 46.504C9.12 46.472 9.204 46.432 9.228 46.384C9.26 46.328 9.276 46.236 9.276 46.108V46.048H8.28V47.14C8.28 47.388 8.2 47.584 8.04 47.728C7.888 47.872 7.7 47.944 7.476 47.944C7.26 47.944 7.072 47.872 6.912 47.728C6.76 47.584 6.684 47.388 6.684 47.14V46.048H5.712V47.296C5.712 47.544 5.632 47.74 5.472 47.884C5.32 48.028 5.132 48.1 4.908 48.1ZM7.164 49.84C6.364 49.84 5.68 49.804 5.112 49.732C4.544 49.668 4.072 49.564 3.696 49.42C3.32 49.284 3.004 49.104 2.748 48.88C2.596 48.984 2.424 49.104 2.232 49.24C2.04 49.376 1.904 49.472 1.824 49.528C1.624 49.656 1.404 49.696 1.164 49.648C0.924 49.608 0.74 49.48 0.612 49.264C0.484 49.056 0.452 48.84 0.516 48.616C0.58 48.392 0.716 48.228 0.924 48.124C1.028 48.068 1.16 48.004 1.32 47.932C1.48 47.852 1.636 47.772 1.788 47.692V45.232C1.788 45.048 1.764 44.928 1.716 44.872C1.668 44.808 1.552 44.776 1.368 44.776H1.116C0.876 44.776 0.688 44.7 0.552 44.548C0.416 44.396 0.348 44.216 0.348 44.008C0.348 43.8 0.416 43.624 0.552 43.48C0.688 43.328 0.876 43.252 1.116 43.252H2.076C2.956 43.252 3.396 43.688 3.396 44.56V47.584C3.54 47.728 3.7 47.848 3.876 47.944C4.06 48.04 4.288 48.116 4.56 48.172C4.832 48.228 5.176 48.268 5.592 48.292C6.016 48.316 6.54 48.328 7.164 48.328C7.572 48.328 7.992 48.324 8.424 48.316C8.864 48.308 9.28 48.296 9.672 48.28C10.064 48.256 10.384 48.236 10.632 48.22C10.936 48.204 11.176 48.272 11.352 48.424C11.528 48.568 11.616 48.756 11.616 48.988C11.616 49.236 11.544 49.44 11.4 49.6C11.256 49.76 11.02 49.84 10.692 49.84H7.164ZM3.432 41.644C3.28 41.788 3.088 41.86 2.856 41.86C2.632 41.86 2.436 41.772 2.268 41.596C2.188 41.5 2.076 41.384 1.932 41.248C1.796 41.104 1.656 40.964 1.512 40.828C1.368 40.684 1.248 40.568 1.152 40.48C1 40.344 0.924 40.172 0.924 39.964C0.924 39.756 0.996 39.576 1.14 39.424C1.276 39.28 1.456 39.188 1.68 39.148C1.912 39.108 2.116 39.168 2.292 39.328C2.38 39.4 2.5 39.508 2.652 39.652C2.804 39.796 2.956 39.94 3.108 40.084C3.26 40.22 3.376 40.332 3.456 40.42C3.64 40.604 3.728 40.812 3.72 41.044C3.712 41.268 3.616 41.468 3.432 41.644ZM7.416 40.96L7.776 40.6C7.864 40.52 7.9 40.46 7.884 40.42C7.868 40.372 7.808 40.348 7.704 40.348H6.48C6.624 40.436 6.784 40.54 6.96 40.66C7.136 40.772 7.288 40.872 7.416 40.96ZM8.28 44.92H9.276V44.476H8.28V44.92ZM5.712 44.92H6.684V44.476H5.712V44.92ZM8.28 43.336H9.264C9.248 43.152 9.188 43.036 9.084 42.988C8.988 42.932 8.816 42.904 8.568 42.904H8.28V43.336ZM5.724 43.336H6.684V42.904H6.408C6.16 42.904 5.988 42.932 5.892 42.988C5.796 43.036 5.74 43.152 5.724 43.336ZM17.988 50.104C17.74 50.104 17.528 50.024 17.352 49.864C17.184 49.704 17.1 49.488 17.1 49.216V46.924H16.164C15.948 46.924 15.804 46.96 15.732 47.032C15.66 47.104 15.624 47.236 15.624 47.428V48.676C15.624 48.94 15.54 49.152 15.372 49.312C15.204 49.472 14.996 49.552 14.748 49.552C14.508 49.552 14.3 49.472 14.124 49.312C13.956 49.152 13.872 48.94 13.872 48.676V47.404C13.872 46.716 14.028 46.24 14.34 45.976C14.66 45.704 15.2 45.568 15.96 45.568H17.1V45.22H16.56C15.952 45.22 15.52 45.124 15.264 44.932C15.016 44.74 14.892 44.376 14.892 43.84C14.892 43.312 15.016 42.952 15.264 42.76C15.52 42.568 15.952 42.472 16.56 42.472H19.428C20.044 42.472 20.476 42.568 20.724 42.76C20.972 42.952 21.096 43.312 21.096 43.84C21.096 44.376 20.972 44.74 20.724 44.932C20.476 45.124 20.044 45.22 19.428 45.22H18.888V45.568H20.148C20.908 45.568 21.444 45.704 21.756 45.976C22.076 46.24 22.236 46.716 22.236 47.404V47.884C22.236 48.452 22.072 48.872 21.744 49.144C21.424 49.424 20.956 49.564 20.34 49.564C20.092 49.564 19.88 49.496 19.704 49.36C19.536 49.232 19.444 49.048 19.428 48.808C19.38 48.272 19.6 47.968 20.088 47.896C20.264 47.872 20.368 47.84 20.4 47.8C20.44 47.752 20.46 47.664 20.46 47.536V47.392C20.46 47.192 20.424 47.064 20.352 47.008C20.288 46.952 20.144 46.924 19.92 46.924H18.888V49.216C18.888 49.488 18.8 49.704 18.624 49.864C18.456 50.024 18.244 50.104 17.988 50.104ZM13.5 43.924C13.244 43.924 13.036 43.848 12.876 43.696C12.716 43.536 12.636 43.328 12.636 43.072V42.544C12.636 41.88 12.796 41.416 13.116 41.152C13.444 40.88 13.988 40.74 14.748 40.732L14.376 40.168C14.256 39.976 14.224 39.776 14.28 39.568C14.336 39.36 14.464 39.196 14.664 39.076C14.848 38.964 15.064 38.928 15.312 38.968C15.56 39.008 15.752 39.132 15.888 39.34L16.26 39.904C16.348 40.032 16.392 40.172 16.392 40.324C16.4 40.468 16.372 40.604 16.308 40.732H17.1V39.676C17.1 39.404 17.184 39.192 17.352 39.04C17.528 38.88 17.74 38.8 17.988 38.8C18.236 38.8 18.448 38.88 18.624 39.04C18.8 39.192 18.888 39.404 18.888 39.676V40.732H19.704C19.64 40.62 19.604 40.496 19.596 40.36C19.588 40.224 19.62 40.092 19.692 39.964C19.7 39.948 19.724 39.9 19.764 39.82C19.812 39.732 19.856 39.648 19.896 39.568C19.944 39.488 19.972 39.44 19.98 39.424C20.092 39.216 20.256 39.08 20.472 39.016C20.688 38.944 20.904 38.956 21.12 39.052C21.344 39.156 21.492 39.316 21.564 39.532C21.636 39.74 21.616 39.948 21.504 40.156L21.204 40.696C21.196 40.704 21.192 40.712 21.192 40.72C21.192 40.72 21.188 40.724 21.18 40.732C21.98 40.732 22.548 40.864 22.884 41.128C23.22 41.384 23.388 41.856 23.388 42.544V43.024C23.388 43.272 23.308 43.476 23.148 43.636C22.988 43.788 22.78 43.864 22.524 43.864C22.268 43.864 22.06 43.788 21.9 43.636C21.74 43.476 21.66 43.272 21.66 43.024V42.604C21.66 42.396 21.62 42.264 21.54 42.208C21.46 42.144 21.304 42.112 21.072 42.112H14.952C14.72 42.112 14.564 42.144 14.484 42.208C14.404 42.264 14.364 42.396 14.364 42.604V43.072C14.364 43.328 14.284 43.536 14.124 43.696C13.964 43.848 13.756 43.924 13.5 43.924ZM16.896 44.08H19.092C19.244 44.08 19.344 44.068 19.392 44.044C19.448 44.012 19.476 43.944 19.476 43.84C19.476 43.744 19.448 43.684 19.392 43.66C19.344 43.628 19.244 43.612 19.092 43.612H16.896C16.744 43.612 16.64 43.628 16.584 43.66C16.536 43.684 16.512 43.744 16.512 43.84C16.512 43.944 16.536 44.012 16.584 44.044C16.64 44.068 16.744 44.08 16.896 44.08ZM26.508 50.068C26.284 50.068 26.092 49.992 25.932 49.84C25.772 49.696 25.692 49.5 25.692 49.252V44.104L25.668 44.14C25.54 44.332 25.356 44.448 25.116 44.488C24.884 44.528 24.652 44.476 24.42 44.332C24.244 44.22 24.136 44.048 24.096 43.816C24.056 43.584 24.096 43.376 24.216 43.192C24.368 42.96 24.532 42.68 24.708 42.352C24.892 42.016 25.072 41.668 25.248 41.308C25.432 40.94 25.6 40.588 25.752 40.252C25.904 39.908 26.024 39.612 26.112 39.364C26.2 39.116 26.348 38.952 26.556 38.872C26.772 38.784 27 38.776 27.24 38.848C27.448 38.92 27.6 39.048 27.696 39.232C27.792 39.408 27.804 39.612 27.732 39.844C27.892 39.66 28.096 39.568 28.344 39.568H34.86C35.092 39.568 35.288 39.648 35.448 39.808C35.608 39.968 35.688 40.164 35.688 40.396C35.688 40.62 35.608 40.816 35.448 40.984C35.288 41.144 35.092 41.224 34.86 41.224H33.132V42.676C33.652 42.708 34.06 42.808 34.356 42.976C34.66 43.136 34.876 43.388 35.004 43.732C35.14 44.076 35.208 44.54 35.208 45.124V47.116C35.208 47.772 35.124 48.28 34.956 48.64C34.788 49 34.508 49.248 34.116 49.384C33.732 49.528 33.2 49.6 32.52 49.6H30.528C29.856 49.6 29.324 49.528 28.932 49.384C28.548 49.248 28.272 49 28.104 48.64C27.936 48.28 27.852 47.772 27.852 47.116V45.124C27.852 44.54 27.916 44.076 28.044 43.732C28.18 43.388 28.396 43.136 28.692 42.976C28.996 42.808 29.404 42.708 29.916 42.676V41.224H28.344C28.12 41.224 27.928 41.148 27.768 40.996C27.608 40.836 27.524 40.644 27.516 40.42C27.484 40.5 27.452 40.584 27.42 40.672C27.388 40.752 27.352 40.836 27.312 40.924V49.252C27.312 49.5 27.232 49.696 27.072 49.84C26.92 49.992 26.732 50.068 26.508 50.068ZM31.272 47.872H31.776V44.38H31.272V47.872ZM33.132 47.86C33.34 47.828 33.476 47.76 33.54 47.656C33.612 47.544 33.648 47.364 33.648 47.116V45.124C33.648 44.876 33.612 44.7 33.54 44.596C33.476 44.492 33.34 44.424 33.132 44.392V47.86ZM29.916 47.86V44.392C29.716 44.424 29.58 44.492 29.508 44.596C29.444 44.7 29.412 44.876 29.412 45.124V47.116C29.412 47.364 29.444 47.544 29.508 47.656C29.58 47.76 29.716 47.828 29.916 47.86ZM31.272 42.652H31.776V41.224H31.272V42.652ZM38.832 50.044C38.608 50.044 38.416 49.972 38.256 49.828C38.104 49.684 38.028 49.488 38.028 49.24V46C37.972 46.104 37.92 46.204 37.872 46.3C37.824 46.388 37.776 46.472 37.728 46.552C37.616 46.752 37.448 46.88 37.224 46.936C37 46.984 36.792 46.952 36.6 46.84C36.416 46.728 36.3 46.564 36.252 46.348C36.204 46.132 36.24 45.936 36.36 45.76C36.48 45.568 36.616 45.332 36.768 45.052C36.928 44.764 37.088 44.46 37.248 44.14C37.408 43.82 37.552 43.508 37.68 43.204C37.816 42.9 37.924 42.636 38.004 42.412H37.08C36.84 42.412 36.652 42.34 36.516 42.196C36.38 42.044 36.312 41.864 36.312 41.656C36.312 41.44 36.38 41.26 36.516 41.116C36.652 40.964 36.84 40.888 37.08 40.888H38.028V39.64C38.028 39.392 38.104 39.2 38.256 39.064C38.416 38.92 38.608 38.848 38.832 38.848C39.064 38.848 39.256 38.92 39.408 39.064C39.56 39.2 39.636 39.392 39.636 39.64V40.888H40.368C40.6 40.888 40.784 40.964 40.92 41.116C41.064 41.26 41.136 41.44 41.136 41.656V41.704C41.408 41.344 41.668 40.948 41.916 40.516C42.164 40.076 42.372 39.672 42.54 39.304C42.644 39.096 42.796 38.952 42.996 38.872C43.204 38.784 43.416 38.784 43.632 38.872C43.84 38.952 43.98 39.1 44.052 39.316C44.132 39.524 44.12 39.728 44.016 39.928L43.944 40.06H45.156C45.556 40.06 45.868 40.156 46.092 40.348C46.324 40.54 46.46 40.784 46.5 41.08C46.54 41.368 46.472 41.66 46.296 41.956C46.144 42.204 45.988 42.448 45.828 42.688C45.668 42.928 45.496 43.16 45.312 43.384C46 43.888 46.708 44.304 47.436 44.632C47.644 44.72 47.784 44.884 47.856 45.124C47.928 45.356 47.908 45.58 47.796 45.796C47.668 46.044 47.472 46.192 47.208 46.24C46.944 46.288 46.688 46.248 46.44 46.12C46.04 45.912 45.644 45.684 45.252 45.436C44.868 45.188 44.5 44.916 44.148 44.62C43.732 45.004 43.284 45.356 42.804 45.676C42.972 45.644 43.156 45.624 43.356 45.616C43.556 45.6 43.772 45.592 44.004 45.592C44.684 45.592 45.216 45.656 45.6 45.784C45.992 45.904 46.268 46.12 46.428 46.432C46.596 46.736 46.68 47.16 46.68 47.704C46.68 48.248 46.596 48.676 46.428 48.988C46.268 49.3 45.992 49.516 45.6 49.636C45.216 49.764 44.684 49.828 44.004 49.828C43.332 49.828 42.8 49.764 42.408 49.636C42.024 49.516 41.748 49.3 41.58 48.988C41.412 48.676 41.328 48.248 41.328 47.704C41.328 47.16 41.412 46.732 41.58 46.42C41.548 46.436 41.516 46.452 41.484 46.468C41.46 46.484 41.432 46.5 41.4 46.516C41.176 46.636 40.948 46.68 40.716 46.648C40.484 46.608 40.308 46.476 40.188 46.252C40.084 46.052 40.06 45.848 40.116 45.64C40.18 45.432 40.316 45.276 40.524 45.172C40.948 44.964 41.372 44.712 41.796 44.416C42.22 44.12 42.62 43.804 42.996 43.468C42.764 43.196 42.552 42.912 42.36 42.616C42.28 42.728 42.2 42.836 42.12 42.94C42.04 43.044 41.96 43.14 41.88 43.228C41.728 43.396 41.536 43.496 41.304 43.528C41.08 43.56 40.884 43.512 40.716 43.384C40.572 43.256 40.484 43.1 40.452 42.916C40.42 42.724 40.456 42.552 40.56 42.4C40.528 42.408 40.496 42.412 40.464 42.412C40.44 42.412 40.408 42.412 40.368 42.412H39.66C39.764 42.532 39.888 42.68 40.032 42.856C40.184 43.024 40.332 43.192 40.476 43.36C40.628 43.52 40.748 43.648 40.836 43.744C40.996 43.904 41.072 44.1 41.064 44.332C41.064 44.556 40.98 44.748 40.812 44.908C40.652 45.06 40.46 45.128 40.236 45.112C40.012 45.096 39.824 45 39.672 44.824L39.636 44.776V49.24C39.636 49.488 39.56 49.684 39.408 49.828C39.256 49.972 39.064 50.044 38.832 50.044ZM44.004 48.376C44.292 48.376 44.508 48.36 44.652 48.328C44.796 48.296 44.892 48.232 44.94 48.136C44.988 48.04 45.012 47.896 45.012 47.704C45.012 47.432 44.952 47.252 44.832 47.164C44.712 47.076 44.436 47.032 44.004 47.032C43.572 47.032 43.296 47.08 43.176 47.176C43.056 47.272 42.996 47.44 42.996 47.68C42.996 47.872 43.02 48.02 43.068 48.124C43.116 48.22 43.212 48.288 43.356 48.328C43.5 48.36 43.716 48.376 44.004 48.376ZM44.1 42.304C44.22 42.16 44.324 42.012 44.412 41.86C44.604 41.556 44.524 41.404 44.172 41.404H43.404C43.5 41.556 43.608 41.708 43.728 41.86C43.848 42.012 43.972 42.16 44.1 42.304Z" fill="#3B3B3B"/>
<path d="M141.655 46.8399C141.655 51.5439 138.463 53.2799 134.711 53.2799C130.959 53.2799 127.767 51.5439 127.767 46.8399V39.8399C127.767 34.8559 130.959 33.3999 134.711 33.3999C138.463 33.3999 141.655 34.8559 141.655 39.8119V46.8399ZM132.387 40.3719V46.3079C132.387 48.3799 132.947 49.4159 134.711 49.4159C136.447 49.4159 137.007 48.3799 137.007 46.3079V40.3719C137.007 38.2999 136.447 37.2639 134.711 37.2639C132.947 37.2639 132.387 38.2999 132.387 40.3719Z" fill="#3B3B3B"/>
<path d="M125.987 46.8399C125.987 51.5439 122.795 53.2799 119.043 53.2799C115.291 53.2799 112.099 51.5439 112.099 46.8399V39.8399C112.099 34.8559 115.291 33.3999 119.043 33.3999C122.795 33.3999 125.987 34.8559 125.987 39.8119V46.8399ZM116.719 40.3719V46.3079C116.719 48.3799 117.279 49.4159 119.043 49.4159C120.779 49.4159 121.339 48.3799 121.339 46.3079V40.3719C121.339 38.2999 120.779 37.2639 119.043 37.2639C117.279 37.2639 116.719 38.2999 116.719 40.3719Z" fill="#3B3B3B"/>
<path d="M110.319 46.8399C110.319 51.5439 107.127 53.2799 103.375 53.2799C99.6232 53.2799 96.4312 51.5439 96.4312 46.8399V39.8399C96.4312 34.8559 99.6232 33.3999 103.375 33.3999C107.127 33.3999 110.319 34.8559 110.319 39.8119V46.8399ZM101.051 40.3719V46.3079C101.051 48.3799 101.611 49.4159 103.375 49.4159C105.111 49.4159 105.671 48.3799 105.671 46.3079V40.3719C105.671 38.2999 105.111 37.2639 103.375 37.2639C101.611 37.2639 101.051 38.2999 101.051 40.3719Z" fill="#3B3B3B"/>
<path d="M93.8451 48.0718V54.0918L89.4771 57.8158V48.0718H93.8451Z" fill="#3B3B3B"/>
<path d="M77.673 44.9639V41.0999H79.185C80.361 41.0999 81.425 40.4839 81.425 39.1119C81.425 37.9079 80.557 37.2079 79.381 37.2079C78.233 37.2079 77.561 37.9079 77.337 38.9159H73.333C73.529 35.7239 76.133 33.3999 79.661 33.3999C83.329 33.3999 86.045 36.0039 86.045 38.8319C86.045 41.0999 84.589 42.3599 83.525 42.9759C85.093 43.8159 86.325 45.2999 86.325 47.5399C86.325 50.7319 84.141 53.2799 79.885 53.2799C75.629 53.2799 73.193 50.8999 73.053 47.6519H77.057C77.225 48.7159 78.065 49.4159 79.521 49.4159C80.977 49.4159 81.705 48.4359 81.705 47.2039C81.705 45.7759 80.893 44.9639 79.185 44.9639H77.673Z" fill="#3B3B3B"/>
<path d="M63.097 33.6797H68.277L62.453 46.5597H65.225V41.9957H69.873V46.5597H71.637V50.4237H69.873V52.9997H65.225V50.4237H56.573V47.2597L63.097 33.6797Z" fill="#3B3B3B"/>
<rect width="87.3116" height="3.41869" transform="matrix(0.966764 -0.25567 0.179925 0.98368 56.5925 52.6953)" fill="#D74545"/>
<path d="M173.914 54.296C173.78 54.376 173.647 54.4 173.514 54.368C173.386 54.3413 173.276 54.2613 173.186 54.128C172.796 53.5413 172.49 52.9413 172.266 52.328C172.047 51.7093 171.938 51.0427 171.938 50.328C171.938 49.6133 172.047 48.9467 172.266 48.328C172.49 47.7093 172.796 47.1093 173.186 46.528C173.276 46.3947 173.386 46.3147 173.514 46.288C173.647 46.256 173.78 46.28 173.914 46.36C174.036 46.4293 174.108 46.5333 174.13 46.672C174.156 46.8053 174.132 46.928 174.058 47.04C173.823 47.408 173.623 47.76 173.458 48.096C173.292 48.4267 173.167 48.7707 173.082 49.128C172.996 49.4853 172.954 49.8853 172.954 50.328C172.954 50.7707 172.996 51.1733 173.082 51.536C173.167 51.8933 173.292 52.2373 173.458 52.568C173.623 52.8987 173.823 53.248 174.058 53.616C174.132 53.728 174.156 53.8507 174.13 53.984C174.108 54.1227 174.036 54.2267 173.914 54.296ZM176.436 53.704C176.287 53.704 176.159 53.6533 176.052 53.552C175.945 53.456 175.892 53.3253 175.892 53.16V51.232C175.828 51.3493 175.767 51.4587 175.708 51.56C175.649 51.6613 175.599 51.7493 175.556 51.824C175.487 51.9413 175.375 52.0213 175.22 52.064C175.071 52.1013 174.927 52.0693 174.788 51.968C174.671 51.8827 174.604 51.7733 174.588 51.64C174.572 51.5013 174.601 51.3813 174.676 51.28C174.756 51.168 174.852 51.0267 174.964 50.856C175.076 50.68 175.191 50.496 175.308 50.304C175.425 50.1067 175.532 49.9173 175.628 49.736C175.729 49.5493 175.812 49.3893 175.876 49.256H175.228C175.084 49.256 174.961 49.2053 174.86 49.104C174.759 49.0027 174.708 48.88 174.708 48.736C174.708 48.592 174.759 48.472 174.86 48.376C174.961 48.2747 175.084 48.224 175.228 48.224H175.892V47.768C175.812 47.784 175.732 47.8 175.652 47.816C175.572 47.832 175.495 47.8453 175.42 47.856C175.239 47.8933 175.089 47.8773 174.972 47.808C174.86 47.7333 174.788 47.6187 174.756 47.464C174.729 47.3147 174.756 47.1893 174.836 47.088C174.921 46.9813 175.049 46.9147 175.22 46.888C175.407 46.856 175.617 46.8133 175.852 46.76C176.092 46.7067 176.327 46.648 176.556 46.584C176.791 46.52 176.988 46.4587 177.148 46.4C177.308 46.3467 177.449 46.344 177.572 46.392C177.7 46.4347 177.791 46.528 177.844 46.672C177.897 46.8107 177.892 46.944 177.828 47.072C177.769 47.1947 177.668 47.2827 177.524 47.336C177.444 47.3627 177.359 47.392 177.268 47.424C177.177 47.4507 177.081 47.4773 176.98 47.504V48.224H177.428C177.556 48.224 177.668 48.264 177.764 48.344C177.86 48.424 177.919 48.5253 177.94 48.648C177.983 48.424 178.068 48.2507 178.196 48.128C178.329 48 178.521 47.9093 178.772 47.856C178.692 47.8027 178.625 47.7387 178.572 47.664C178.54 47.616 178.497 47.552 178.444 47.472C178.391 47.3867 178.34 47.304 178.292 47.224C178.244 47.144 178.207 47.088 178.18 47.056C178.1 46.9333 178.079 46.8027 178.116 46.664C178.153 46.5253 178.233 46.4187 178.356 46.344C178.495 46.2533 178.639 46.2187 178.788 46.24C178.937 46.2613 179.06 46.3387 179.156 46.472C179.188 46.5147 179.231 46.5787 179.284 46.664C179.337 46.744 179.391 46.824 179.444 46.904C179.497 46.984 179.535 47.0427 179.556 47.08C179.631 47.1973 179.657 47.3227 179.636 47.456C179.615 47.5893 179.553 47.7013 179.452 47.792H179.94C179.988 47.6747 180.047 47.5307 180.116 47.36C180.191 47.1893 180.26 47.0267 180.324 46.872C180.388 46.712 180.433 46.5973 180.46 46.528C180.519 46.384 180.62 46.2853 180.764 46.232C180.913 46.1787 181.063 46.184 181.212 46.248C181.356 46.312 181.455 46.408 181.508 46.536C181.567 46.6587 181.569 46.792 181.516 46.936C181.479 47.0267 181.415 47.168 181.324 47.36C181.233 47.5467 181.151 47.72 181.076 47.88C181.375 47.9547 181.577 48.0933 181.684 48.296C181.796 48.4987 181.852 48.7867 181.852 49.16V49.304C181.852 49.6987 181.791 50 181.668 50.208C181.545 50.4107 181.311 50.5467 180.964 50.616V52.28C180.964 52.3973 180.98 52.472 181.012 52.504C181.049 52.536 181.119 52.552 181.22 52.552C181.279 52.552 181.324 52.5333 181.356 52.496C181.388 52.4533 181.42 52.3653 181.452 52.232C181.495 52.072 181.58 51.9627 181.708 51.904C181.836 51.84 181.975 51.8293 182.124 51.872C182.428 51.968 182.548 52.1787 182.484 52.504C182.404 52.9253 182.265 53.2187 182.068 53.384C181.876 53.5493 181.58 53.632 181.18 53.632C180.865 53.632 180.615 53.6 180.428 53.536C180.241 53.4773 180.108 53.3707 180.028 53.216C179.948 53.0613 179.908 52.8453 179.908 52.568V50.68H179.668C179.631 51.3307 179.492 51.904 179.252 52.4C179.012 52.8907 178.644 53.2853 178.148 53.584C178.004 53.6693 177.852 53.7013 177.692 53.68C177.537 53.664 177.412 53.5813 177.316 53.432C177.241 53.3147 177.22 53.1813 177.252 53.032C177.284 52.8827 177.372 52.768 177.516 52.688C177.895 52.4747 178.169 52.192 178.34 51.84C178.516 51.488 178.623 51.0693 178.66 50.584C178.367 50.504 178.167 50.3653 178.06 50.168C177.953 49.9653 177.9 49.6773 177.9 49.304V49.16C177.9 49.1227 177.9 49.088 177.9 49.056C177.9 49.0187 177.903 48.9813 177.908 48.944C177.871 49.0347 177.807 49.1093 177.716 49.168C177.631 49.2267 177.535 49.256 177.428 49.256H176.98V49.536C177.028 49.584 177.097 49.6507 177.188 49.736C177.279 49.8213 177.375 49.912 177.476 50.008C177.577 50.104 177.671 50.192 177.756 50.272C177.847 50.3467 177.913 50.4027 177.956 50.44C178.068 50.5253 178.124 50.6373 178.124 50.776C178.129 50.9147 178.087 51.04 177.996 51.152C177.905 51.264 177.783 51.3227 177.628 51.328C177.473 51.3333 177.348 51.2827 177.252 51.176C177.183 51.1067 177.092 51.008 176.98 50.88V53.16C176.98 53.3253 176.927 53.456 176.82 53.552C176.719 53.6533 176.591 53.704 176.436 53.704ZM179.596 49.712H180.156C180.401 49.712 180.559 49.6853 180.628 49.632C180.703 49.5787 180.74 49.4693 180.74 49.304V49.16C180.74 49 180.703 48.8933 180.628 48.84C180.559 48.7813 180.401 48.752 180.156 48.752H179.596C179.351 48.752 179.191 48.7813 179.116 48.84C179.047 48.8933 179.012 49 179.012 49.16V49.304C179.012 49.4693 179.047 49.5787 179.116 49.632C179.191 49.6853 179.351 49.712 179.596 49.712ZM189.26 51.976C188.908 51.672 188.591 51.304 188.308 50.872C188.025 50.44 187.796 49.9627 187.62 49.44C187.423 49.9253 187.185 50.3893 186.908 50.832C186.636 51.2747 186.337 51.648 186.012 51.952C185.895 52.0693 185.745 52.1227 185.564 52.112C185.383 52.096 185.239 52.0213 185.132 51.888C185.047 51.7707 185.015 51.6427 185.036 51.504C185.063 51.3653 185.129 51.2453 185.236 51.144C185.529 50.8773 185.799 50.552 186.044 50.168C186.289 49.784 186.503 49.3813 186.684 48.96C186.871 48.5333 187.02 48.128 187.132 47.744C187.063 47.7067 186.964 47.688 186.836 47.688H186.14C185.969 47.688 185.833 47.6347 185.732 47.528C185.631 47.4213 185.58 47.2907 185.58 47.136C185.58 46.9813 185.631 46.8507 185.732 46.744C185.833 46.6373 185.969 46.584 186.14 46.584H186.964C187.385 46.584 187.689 46.6587 187.876 46.808C188.068 46.952 188.185 47.2293 188.228 47.64C188.276 48.0827 188.383 48.5173 188.548 48.944C188.713 49.3653 188.924 49.76 189.18 50.128C189.436 50.496 189.724 50.8187 190.044 51.096C190.161 51.1973 190.228 51.3253 190.244 51.48C190.265 51.6293 190.228 51.76 190.132 51.872C190.025 52 189.887 52.0773 189.716 52.104C189.545 52.1307 189.393 52.088 189.26 51.976ZM187.284 53.528C186.537 53.528 185.932 53.4747 185.468 53.368C185.009 53.2667 184.649 53.0907 184.388 52.84C184.324 52.888 184.244 52.9467 184.148 53.016C184.052 53.0853 183.961 53.1493 183.876 53.208C183.796 53.272 183.735 53.32 183.692 53.352C183.559 53.448 183.407 53.4827 183.236 53.456C183.065 53.4293 182.937 53.344 182.852 53.2C182.767 53.0613 182.74 52.9147 182.772 52.76C182.809 52.6 182.9 52.4827 183.044 52.408C183.124 52.3653 183.231 52.3093 183.364 52.24C183.497 52.1653 183.617 52.1013 183.724 52.048V50.464C183.724 50.3413 183.705 50.2587 183.668 50.216C183.636 50.1733 183.559 50.152 183.436 50.152H183.252C183.092 50.152 182.964 50.1013 182.868 50C182.777 49.8987 182.732 49.776 182.732 49.632C182.732 49.488 182.777 49.3653 182.868 49.264C182.964 49.1627 183.092 49.112 183.252 49.112H183.924C184.521 49.112 184.82 49.4107 184.82 50.008V51.824C184.927 51.968 185.068 52.088 185.244 52.184C185.425 52.2747 185.676 52.344 185.996 52.392C186.321 52.44 186.751 52.464 187.284 52.464C187.716 52.464 188.129 52.456 188.524 52.44C188.919 52.424 189.263 52.4053 189.556 52.384C189.759 52.368 189.924 52.4133 190.052 52.52C190.18 52.6213 190.244 52.7573 190.244 52.928C190.244 53.104 190.191 53.248 190.084 53.36C189.977 53.472 189.809 53.528 189.58 53.528H187.284ZM184.092 48.08C184.028 48.0107 183.945 47.9333 183.844 47.848C183.743 47.7573 183.641 47.6693 183.54 47.584C183.439 47.4933 183.348 47.4187 183.268 47.36C183.156 47.2693 183.097 47.1493 183.092 47C183.092 46.8507 183.137 46.7227 183.228 46.616C183.324 46.504 183.444 46.4347 183.588 46.408C183.737 46.3813 183.876 46.4187 184.004 46.52C184.143 46.6213 184.295 46.7413 184.46 46.88C184.631 47.0187 184.767 47.1333 184.868 47.224C184.991 47.336 185.052 47.4693 185.052 47.624C185.057 47.7787 185.001 47.9173 184.884 48.04C184.777 48.1573 184.647 48.2213 184.492 48.232C184.337 48.2427 184.204 48.192 184.092 48.08ZM191.084 54.296C190.967 54.2267 190.895 54.1227 190.868 53.984C190.847 53.8507 190.871 53.728 190.94 53.616C191.18 53.248 191.38 52.8987 191.54 52.568C191.705 52.2373 191.831 51.8933 191.916 51.536C192.001 51.1733 192.044 50.7707 192.044 50.328C192.044 49.8853 192.001 49.4853 191.916 49.128C191.831 48.7707 191.705 48.4267 191.54 48.096C191.38 47.76 191.18 47.408 190.94 47.04C190.871 46.928 190.847 46.8053 190.868 46.672C190.895 46.5333 190.967 46.4293 191.084 46.36C191.223 46.28 191.356 46.256 191.484 46.288C191.617 46.3147 191.727 46.3947 191.812 46.528C192.207 47.1093 192.513 47.7093 192.732 48.328C192.951 48.9467 193.06 49.6133 193.06 50.328C193.06 51.0427 192.951 51.7093 192.732 52.328C192.513 52.9413 192.207 53.5413 191.812 54.128C191.727 54.2613 191.617 54.3413 191.484 54.368C191.356 54.4 191.223 54.376 191.084 54.296Z" fill="#3B3B3B"/>
<path d="M149.644 53.696C149.474 53.696 149.332 53.6373 149.22 53.52C149.114 53.408 149.06 53.2587 149.06 53.072V48.656C149.06 48.208 149.095 47.8427 149.164 47.56C149.239 47.2773 149.364 47.0587 149.54 46.904C149.716 46.7493 149.956 46.6427 150.26 46.584C150.564 46.52 150.948 46.488 151.412 46.488H153.22C153.684 46.488 154.068 46.52 154.372 46.584C154.682 46.6427 154.924 46.7493 155.1 46.904C155.276 47.0587 155.402 47.2773 155.476 47.56C155.551 47.8427 155.588 48.208 155.588 48.656V51.944C155.588 52.3813 155.535 52.7253 155.428 52.976C155.327 53.2213 155.164 53.3973 154.94 53.504C154.716 53.6107 154.426 53.672 154.068 53.688C153.855 53.6933 153.682 53.648 153.548 53.552C153.42 53.4613 153.346 53.32 153.324 53.128C153.303 52.9413 153.346 52.784 153.452 52.656C153.564 52.5227 153.714 52.4507 153.9 52.44C154.124 52.424 154.266 52.3733 154.324 52.288C154.383 52.1973 154.412 52.032 154.412 51.792V50.512H150.228V53.072C150.228 53.2587 150.172 53.408 150.06 53.52C149.954 53.6373 149.815 53.696 149.644 53.696ZM150.228 49.432H151.74V47.592H151.412C151.082 47.592 150.831 47.616 150.66 47.664C150.49 47.712 150.375 47.8107 150.316 47.96C150.258 48.1093 150.228 48.3413 150.228 48.656V49.432ZM152.908 49.432H154.412V48.656C154.412 48.3413 154.383 48.1093 154.324 47.96C154.266 47.8107 154.151 47.712 153.98 47.664C153.81 47.616 153.556 47.592 153.22 47.592H152.908V49.432ZM157.46 52.928C157.386 53.0773 157.303 53.1813 157.212 53.24C157.122 53.304 157.031 53.312 156.94 53.264C156.759 53.1627 156.746 52.9573 156.9 52.648L159.54 47.456C159.615 47.3013 159.698 47.1973 159.788 47.144C159.884 47.0853 159.975 47.08 160.06 47.128C160.242 47.2293 160.255 47.4347 160.1 47.744L157.46 52.928ZM165.692 53.624C165.51 53.624 165.356 53.5653 165.228 53.448C165.105 53.3307 165.038 53.176 165.028 52.984C165.022 52.7973 165.081 52.6453 165.204 52.528C165.326 52.4107 165.476 52.344 165.652 52.328C165.812 52.3173 165.913 52.2907 165.956 52.248C166.004 52.2 166.028 52.104 166.028 51.96V50.952H163.556C163.476 51.464 163.337 51.9253 163.14 52.336C162.948 52.7413 162.673 53.104 162.316 53.424C162.182 53.5413 162.022 53.6 161.836 53.6C161.654 53.6053 161.5 53.5413 161.372 53.408C161.249 53.28 161.19 53.136 161.196 52.976C161.206 52.8107 161.281 52.6667 161.42 52.544C161.692 52.2987 161.9 52.0347 162.044 51.752C162.193 51.464 162.297 51.136 162.356 50.768C162.414 50.4 162.444 49.9787 162.444 49.504V48.032C162.444 47.4613 162.58 47.0587 162.852 46.824C163.124 46.5893 163.572 46.472 164.196 46.472H165.516C166.134 46.472 166.58 46.5893 166.852 46.824C167.124 47.0587 167.26 47.4613 167.26 48.032V52.192C167.26 52.6933 167.134 53.056 166.884 53.28C166.633 53.5093 166.236 53.624 165.692 53.624ZM163.652 49.872H166.028V49.256H163.66V49.488C163.66 49.552 163.657 49.616 163.652 49.68C163.652 49.744 163.652 49.808 163.652 49.872ZM163.66 48.184H166.028V48.104C166.028 47.912 165.985 47.776 165.9 47.696C165.82 47.616 165.665 47.576 165.436 47.576H164.252C164.022 47.576 163.865 47.616 163.78 47.696C163.7 47.776 163.66 47.912 163.66 48.104V48.184Z" fill="#3B3B3B"/>
<path d="M99.5 97L155 62H44L99.5 97Z" fill="#47C344"/>
<rect x="1" y="112" width="198" height="58" rx="19" fill="white" stroke="#D74545" stroke-width="2"/>
<path d="M33.82 144.5C33.34 144.5 32.9533 144.367 32.66 144.1C32.38 143.833 32.2267 143.493 32.2 143.08C32.1867 142.653 32.3133 142.3 32.58 142.02C32.8467 141.74 33.1867 141.587 33.6 141.56C34.0667 141.52 34.42 141.46 34.66 141.38C34.9 141.3 35.0733 141.153 35.18 140.94C35.2867 140.727 35.3667 140.4 35.42 139.96C35.54 139.12 35.6333 138.307 35.7 137.52C35.7667 136.733 35.8133 135.887 35.84 134.98C35.8667 134.06 35.88 133.007 35.88 131.82C35.88 131.42 35.84 131.12 35.76 130.92C35.6933 130.72 35.5533 130.587 35.34 130.52C35.14 130.453 34.8267 130.42 34.4 130.42C34.3867 132.62 34.22 134.547 33.9 136.2C33.5933 137.853 33.1 139.307 32.42 140.56C31.74 141.813 30.82 142.94 29.66 143.94C29.3267 144.22 28.9467 144.353 28.52 144.34C28.0933 144.34 27.7267 144.153 27.42 143.78C27.18 143.473 27.0867 143.14 27.14 142.78C27.1933 142.42 27.3667 142.12 27.66 141.88C28.6467 141.08 29.4267 140.167 30 139.14C30.5867 138.113 31.0067 136.9 31.26 135.5C31.5267 134.087 31.6667 132.393 31.68 130.42H29.82C29.42 130.42 29.1067 130.293 28.88 130.04C28.6533 129.787 28.54 129.48 28.54 129.12C28.54 128.76 28.6533 128.453 28.88 128.2C29.1067 127.947 29.42 127.82 29.82 127.82H34.66C36.1133 127.82 37.1533 128.1 37.78 128.66C38.4067 129.207 38.7133 130.187 38.7 131.6C38.6867 133.28 38.6533 134.813 38.6 136.2C38.5467 137.587 38.4467 138.94 38.3 140.26C38.1667 141.38 37.92 142.247 37.56 142.86C37.2133 143.473 36.7333 143.9 36.12 144.14C35.5067 144.38 34.74 144.5 33.82 144.5ZM25.1 144.86C24.7267 144.86 24.4067 144.733 24.14 144.48C23.8733 144.24 23.74 143.913 23.74 143.5V138.12C23.5667 138.28 23.3867 138.433 23.2 138.58C23.0133 138.727 22.8267 138.873 22.64 139.02C22.3067 139.26 21.9533 139.373 21.58 139.36C21.22 139.347 20.9133 139.173 20.66 138.84C20.38 138.493 20.2733 138.14 20.34 137.78C20.4067 137.42 20.62 137.113 20.98 136.86C21.5267 136.473 22.0533 136.047 22.56 135.58C23.08 135.1 23.5667 134.613 24.02 134.12C24.4733 133.627 24.86 133.167 25.18 132.74C25.38 132.46 25.4267 132.26 25.32 132.14C25.2267 132.02 25.0267 131.96 24.72 131.96H22.08C21.68 131.96 21.3667 131.84 21.14 131.6C20.9267 131.36 20.82 131.06 20.82 130.7C20.82 130.34 20.9267 130.04 21.14 129.8C21.3667 129.56 21.68 129.44 22.08 129.44H23.74V127.44C23.74 127.013 23.8733 126.68 24.14 126.44C24.4067 126.2 24.7267 126.08 25.1 126.08C25.4867 126.08 25.8133 126.2 26.08 126.44C26.3467 126.68 26.48 127.013 26.48 127.44V129.44C27.1467 129.48 27.6533 129.653 28 129.96C28.36 130.253 28.56 130.633 28.6 131.1C28.64 131.567 28.5 132.073 28.18 132.62C28.0067 132.94 27.8067 133.267 27.58 133.6C27.3667 133.92 27.1467 134.24 26.92 134.56C27.1467 134.733 27.42 134.947 27.74 135.2C28.0733 135.453 28.3933 135.693 28.7 135.92C29.0067 136.147 29.2333 136.32 29.38 136.44C29.6867 136.653 29.8533 136.927 29.88 137.26C29.9067 137.593 29.8067 137.913 29.58 138.22C29.3667 138.5 29.08 138.667 28.72 138.72C28.36 138.773 28.02 138.673 27.7 138.42C27.5933 138.313 27.4267 138.167 27.2 137.98C26.9733 137.78 26.7333 137.573 26.48 137.36V143.5C26.48 143.913 26.3467 144.24 26.08 144.48C25.8133 144.733 25.4867 144.86 25.1 144.86ZM28.3 135.34C28.06 135.153 27.9133 134.913 27.86 134.62C27.82 134.327 27.8867 134.053 28.06 133.8C28.14 133.68 28.2733 133.487 28.46 133.22C28.66 132.94 28.82 132.72 28.94 132.56C29.1533 132.267 29.4067 132.093 29.7 132.04C30.0067 131.987 30.3 132.053 30.58 132.24C30.8467 132.413 31.0067 132.653 31.06 132.96C31.1267 133.267 31.06 133.573 30.86 133.88C30.7667 134.027 30.6267 134.24 30.44 134.52C30.2533 134.787 30.0867 135.013 29.94 135.2C29.7533 135.453 29.4933 135.587 29.16 135.6C28.84 135.613 28.5533 135.527 28.3 135.34ZM52.54 144.56C52.0867 144.56 51.7 144.413 51.38 144.12C51.0733 143.827 50.9067 143.44 50.88 142.96C50.8667 142.493 51.0133 142.113 51.32 141.82C51.6267 141.527 52 141.36 52.44 141.32C52.84 141.293 53.0933 141.227 53.2 141.12C53.32 141 53.38 140.76 53.38 140.4V137.88H47.2C47 139.16 46.6533 140.313 46.16 141.34C45.68 142.353 44.9933 143.26 44.1 144.06C43.7667 144.353 43.3667 144.5 42.9 144.5C42.4467 144.513 42.06 144.353 41.74 144.02C41.4333 143.7 41.2867 143.34 41.3 142.94C41.3267 142.527 41.5133 142.167 41.86 141.86C42.54 141.247 43.06 140.587 43.42 139.88C43.7933 139.16 44.0533 138.34 44.2 137.42C44.3467 136.5 44.42 135.447 44.42 134.26V130.58C44.42 129.153 44.76 128.147 45.44 127.56C46.12 126.973 47.24 126.68 48.8 126.68H52.1C53.6467 126.68 54.76 126.973 55.44 127.56C56.12 128.147 56.46 129.153 56.46 130.58V140.98C56.46 142.233 56.1467 143.14 55.52 143.7C54.8933 144.273 53.9 144.56 52.54 144.56ZM47.44 135.18H53.38V133.64H47.46V134.22C47.46 134.38 47.4533 134.54 47.44 134.7C47.44 134.86 47.44 135.02 47.44 135.18ZM47.46 130.96H53.38V130.76C53.38 130.28 53.2733 129.94 53.06 129.74C52.86 129.54 52.4733 129.44 51.9 129.44H48.94C48.3667 129.44 47.9733 129.54 47.76 129.74C47.56 129.94 47.46 130.28 47.46 130.76V130.96ZM65.58 144.04C64.9 144.04 64.2867 143.927 63.74 143.7C63.1933 143.473 62.76 143.113 62.44 142.62C62.12 142.127 61.96 141.48 61.96 140.68C61.96 139.547 62.3733 138.52 63.2 137.6C64.04 136.667 65.1933 135.94 66.66 135.42V133.02C66.1533 133.06 65.6533 133.093 65.16 133.12C64.6667 133.147 64.2067 133.16 63.78 133.16C63.3667 133.16 63.0133 133.027 62.72 132.76C62.4267 132.48 62.28 132.133 62.28 131.72C62.28 131.307 62.42 130.96 62.7 130.68C62.9933 130.4 63.3467 130.253 63.76 130.24C64.1867 130.227 64.6467 130.213 65.14 130.2C65.6467 130.173 66.1533 130.147 66.66 130.12V128.02C66.66 127.607 66.8 127.26 67.08 126.98C67.36 126.687 67.7067 126.54 68.12 126.54C68.5333 126.54 68.88 126.687 69.16 126.98C69.44 127.26 69.58 127.607 69.58 128.02V129.88C69.7933 129.853 70 129.827 70.2 129.8C70.4 129.773 70.5867 129.747 70.76 129.72C71.1733 129.653 71.54 129.733 71.86 129.96C72.1933 130.173 72.3867 130.48 72.44 130.88C72.5067 131.293 72.4133 131.647 72.16 131.94C71.92 132.233 71.6 132.413 71.2 132.48C70.96 132.52 70.7067 132.56 70.44 132.6C70.1733 132.64 69.8867 132.673 69.58 132.7V134.76C70.26 134.68 70.9667 134.64 71.7 134.64C72.9667 134.64 74.0667 134.82 75 135.18C75.9333 135.54 76.6533 136.06 77.16 136.74C77.68 137.42 77.94 138.233 77.94 139.18C77.94 140.207 77.7067 141.093 77.24 141.84C76.7733 142.573 76.1067 143.127 75.24 143.5C74.3867 143.887 73.3667 144.067 72.18 144.04C71.7667 144.027 71.4133 143.873 71.12 143.58C70.8267 143.3 70.6867 142.953 70.7 142.54C70.7 142.127 70.8467 141.78 71.14 141.5C71.4333 141.207 71.7867 141.06 72.2 141.06C74.0133 141.073 74.92 140.447 74.92 139.18C74.92 138.58 74.64 138.113 74.08 137.78C73.5333 137.447 72.72 137.28 71.64 137.28C71.2667 137.28 70.9067 137.293 70.56 137.32C70.2267 137.333 69.9 137.367 69.58 137.42V139.76C69.58 141.227 69.2267 142.307 68.52 143C67.8267 143.693 66.8467 144.04 65.58 144.04ZM75.98 134.24C75.6867 134.027 75.34 133.8 74.94 133.56C74.54 133.32 74.1867 133.12 73.88 132.96C73.5333 132.773 73.28 132.493 73.12 132.12C72.96 131.733 72.9667 131.367 73.14 131.02C73.34 130.62 73.6333 130.367 74.02 130.26C74.42 130.153 74.7933 130.193 75.14 130.38C75.3933 130.5 75.68 130.653 76 130.84C76.32 131.027 76.6333 131.22 76.94 131.42C77.2467 131.607 77.5067 131.78 77.72 131.94C78.04 132.167 78.2267 132.48 78.28 132.88C78.3333 133.28 78.24 133.64 78 133.96C77.76 134.28 77.44 134.467 77.04 134.52C76.6533 134.56 76.3 134.467 75.98 134.24ZM65.58 141.26C65.8867 141.26 66.14 141.167 66.34 140.98C66.5533 140.78 66.66 140.373 66.66 139.76V138.36C66.1 138.667 65.6667 139.013 65.36 139.4C65.0533 139.787 64.9 140.187 64.9 140.6C64.9 140.813 64.96 140.98 65.08 141.1C65.2133 141.207 65.38 141.26 65.58 141.26ZM95.36 143.18C94.8267 142.287 94.38 141.227 94.02 140C93.6733 138.76 93.4067 137.367 93.22 135.82C93.0067 136.193 92.6533 136.38 92.16 136.38H91.84V139.36L92.38 139.2C92.7667 139.08 93.0933 139.107 93.36 139.28C93.64 139.44 93.8133 139.687 93.88 140.02C93.96 140.353 93.9467 140.66 93.84 140.94C93.7333 141.22 93.5 141.427 93.14 141.56C92.8467 141.653 92.4467 141.787 91.94 141.96C91.4467 142.12 90.9533 142.28 90.46 142.44C89.9667 142.6 89.5667 142.727 89.26 142.82C88.86 142.927 88.5067 142.887 88.2 142.7C87.8933 142.513 87.6867 142.247 87.58 141.9C87.4733 141.54 87.5 141.207 87.66 140.9C87.82 140.593 88.0933 140.393 88.48 140.3C88.5867 140.273 88.7067 140.24 88.84 140.2C88.9733 140.16 89.1067 140.127 89.24 140.1V136.38H88.54C88.1667 136.38 87.8667 136.26 87.64 136.02C87.4267 135.78 87.32 135.493 87.32 135.16C87.32 134.813 87.4267 134.527 87.64 134.3C87.8667 134.06 88.1667 133.94 88.54 133.94H92.16C92.52 133.94 92.82 134.06 93.06 134.3C93.0333 133.953 93.0067 133.6 92.98 133.24C92.9533 132.867 92.9267 132.493 92.9 132.12H88.7C88.4067 132.12 88.16 132.053 87.96 131.92C87.7733 131.773 87.64 131.587 87.56 131.36C87.36 131.64 87.08 131.78 86.72 131.78H81.78C81.4867 131.78 81.2333 131.68 81.02 131.48C80.8067 131.267 80.7 131.013 80.7 130.72C80.7 130.413 80.8067 130.16 81.02 129.96C81.2333 129.747 81.4867 129.64 81.78 129.64H86.72C86.9333 129.64 87.12 129.7 87.28 129.82C87.4533 129.927 87.5867 130.073 87.68 130.26C87.7867 130.1 87.9267 129.973 88.1 129.88C88.2733 129.773 88.4733 129.72 88.7 129.72H92.8C92.7867 129.347 92.78 128.973 92.78 128.6C92.78 128.213 92.7733 127.827 92.76 127.44C92.76 127.027 92.8867 126.707 93.14 126.48C93.4067 126.24 93.7267 126.12 94.1 126.12C94.4733 126.12 94.7867 126.24 95.04 126.48C95.2933 126.72 95.4133 127.047 95.4 127.46C95.3867 127.833 95.38 128.207 95.38 128.58C95.38 128.953 95.38 129.333 95.38 129.72H97.22C96.9533 129.653 96.7467 129.527 96.6 129.34C96.5333 129.26 96.4133 129.127 96.24 128.94C96.0667 128.753 95.9467 128.62 95.88 128.54C95.6667 128.313 95.5667 128.053 95.58 127.76C95.6067 127.453 95.7267 127.193 95.94 126.98C96.18 126.753 96.46 126.647 96.78 126.66C97.1133 126.673 97.3933 126.793 97.62 127.02C97.6867 127.087 97.8067 127.213 97.98 127.4C98.1533 127.573 98.2733 127.693 98.34 127.76C98.5667 128.013 98.6733 128.307 98.66 128.64C98.6467 128.973 98.5067 129.253 98.24 129.48C98.1067 129.6 97.9467 129.68 97.76 129.72H98.26C98.6333 129.72 98.9267 129.84 99.14 130.08C99.3533 130.307 99.46 130.587 99.46 130.92C99.46 131.253 99.3533 131.54 99.14 131.78C98.9267 132.007 98.6333 132.12 98.26 132.12H95.46C95.54 133.693 95.7 135.22 95.94 136.7C96.18 138.18 96.52 139.467 96.96 140.56C97.0267 140.733 97.1 140.82 97.18 140.82C97.26 140.82 97.3267 140.733 97.38 140.56C97.4067 140.493 97.4267 140.427 97.44 140.36C97.4667 140.293 97.4867 140.233 97.5 140.18C97.5933 139.887 97.78 139.68 98.06 139.56C98.34 139.44 98.6533 139.44 99 139.56C99.3067 139.653 99.5267 139.82 99.66 140.06C99.8067 140.287 99.84 140.587 99.76 140.96C99.7067 141.24 99.6067 141.587 99.46 142C99.3267 142.413 99.1667 142.807 98.98 143.18C98.7 143.74 98.3467 144.12 97.92 144.32C97.4933 144.533 97.0533 144.547 96.6 144.36C96.16 144.187 95.7467 143.793 95.36 143.18ZM84.24 144.28C83.48 144.28 82.88 144.187 82.44 144C82 143.813 81.6867 143.493 81.5 143.04C81.3133 142.587 81.22 141.967 81.22 141.18C81.22 140.353 81.3133 139.72 81.5 139.28C81.6867 138.827 82 138.513 82.44 138.34C82.88 138.153 83.48 138.06 84.24 138.06C85.0133 138.06 85.6133 138.153 86.04 138.34C86.48 138.513 86.7933 138.827 86.98 139.28C87.1667 139.72 87.26 140.353 87.26 141.18C87.26 141.967 87.1667 142.587 86.98 143.04C86.7933 143.493 86.48 143.813 86.04 144C85.6133 144.187 85.0133 144.28 84.24 144.28ZM82.3 129C81.9933 129 81.7267 128.893 81.5 128.68C81.2867 128.467 81.18 128.207 81.18 127.9C81.18 127.593 81.2867 127.333 81.5 127.12C81.7267 126.893 81.9933 126.78 82.3 126.78H86.14C86.4467 126.78 86.7067 126.893 86.92 127.12C87.1333 127.333 87.24 127.593 87.24 127.9C87.24 128.207 87.1333 128.467 86.92 128.68C86.7067 128.893 86.4467 129 86.14 129H82.3ZM82.24 137.4C81.9467 137.4 81.6933 137.293 81.48 137.08C81.2667 136.867 81.16 136.613 81.16 136.32C81.16 136.013 81.2667 135.76 81.48 135.56C81.6933 135.347 81.9467 135.24 82.24 135.24H86.16C86.4667 135.24 86.72 135.347 86.92 135.56C87.1333 135.76 87.24 136.013 87.24 136.32C87.24 136.613 87.1333 136.867 86.92 137.08C86.72 137.293 86.4667 137.4 86.16 137.4H82.24ZM82.24 134.6C81.9467 134.6 81.6933 134.493 81.48 134.28C81.2667 134.067 81.16 133.813 81.16 133.52C81.16 133.213 81.2667 132.96 81.48 132.76C81.6933 132.547 81.9467 132.44 82.24 132.44H86.16C86.4667 132.44 86.72 132.547 86.92 132.76C87.1333 132.96 87.24 133.213 87.24 133.52C87.24 133.813 87.1333 134.067 86.92 134.28C86.72 134.493 86.4667 134.6 86.16 134.6H82.24ZM84.24 142.08C84.52 142.08 84.7067 142.013 84.8 141.88C84.8933 141.747 84.94 141.513 84.94 141.18C84.94 140.833 84.8933 140.6 84.8 140.48C84.7067 140.347 84.52 140.28 84.24 140.28C83.96 140.28 83.7733 140.347 83.68 140.48C83.5867 140.6 83.54 140.833 83.54 141.18C83.54 141.513 83.5867 141.747 83.68 141.88C83.7733 142.013 83.96 142.08 84.24 142.08ZM110.72 144.06C108.987 144.06 107.64 143.64 106.68 142.8C105.733 141.96 105.26 140.613 105.26 138.76V128.16C105.26 127.747 105.4 127.4 105.68 127.12C105.973 126.827 106.327 126.68 106.74 126.68C107.153 126.68 107.507 126.827 107.8 127.12C108.093 127.4 108.24 127.747 108.24 128.16V138.76C108.24 139.627 108.427 140.24 108.8 140.6C109.187 140.947 109.827 141.12 110.72 141.12C111.427 141.12 112.127 140.92 112.82 140.52C113.513 140.12 114.087 139.44 114.54 138.48C114.727 138.107 115.007 137.853 115.38 137.72C115.767 137.587 116.147 137.613 116.52 137.8C116.893 137.973 117.14 138.253 117.26 138.64C117.393 139.013 117.38 139.393 117.22 139.78C116.833 140.673 116.307 141.44 115.64 142.08C114.987 142.72 114.233 143.207 113.38 143.54C112.54 143.887 111.653 144.06 110.72 144.06ZM124.18 144.78C123.807 144.78 123.487 144.653 123.22 144.4C122.953 144.16 122.82 143.833 122.82 143.42V134.84L122.78 134.9C122.567 135.22 122.26 135.413 121.86 135.48C121.473 135.547 121.087 135.46 120.7 135.22C120.407 135.033 120.227 134.747 120.16 134.36C120.093 133.973 120.16 133.627 120.36 133.32C120.613 132.933 120.887 132.467 121.18 131.92C121.487 131.36 121.787 130.78 122.08 130.18C122.387 129.567 122.667 128.98 122.92 128.42C123.173 127.847 123.373 127.353 123.52 126.94C123.667 126.527 123.913 126.253 124.26 126.12C124.62 125.973 125 125.96 125.4 126.08C125.747 126.2 126 126.413 126.16 126.72C126.32 127.013 126.34 127.353 126.22 127.74C126.487 127.433 126.827 127.28 127.24 127.28H138.1C138.487 127.28 138.813 127.413 139.08 127.68C139.347 127.947 139.48 128.273 139.48 128.66C139.48 129.033 139.347 129.36 139.08 129.64C138.813 129.907 138.487 130.04 138.1 130.04H135.22V132.46C136.087 132.513 136.767 132.68 137.26 132.96C137.767 133.227 138.127 133.647 138.34 134.22C138.567 134.793 138.68 135.567 138.68 136.54V139.86C138.68 140.953 138.54 141.8 138.26 142.4C137.98 143 137.513 143.413 136.86 143.64C136.22 143.88 135.333 144 134.2 144H130.88C129.76 144 128.873 143.88 128.22 143.64C127.58 143.413 127.12 143 126.84 142.4C126.56 141.8 126.42 140.953 126.42 139.86V136.54C126.42 135.567 126.527 134.793 126.74 134.22C126.967 133.647 127.327 133.227 127.82 132.96C128.327 132.68 129.007 132.513 129.86 132.46V130.04H127.24C126.867 130.04 126.547 129.913 126.28 129.66C126.013 129.393 125.873 129.073 125.86 128.7C125.807 128.833 125.753 128.973 125.7 129.12C125.647 129.253 125.587 129.393 125.52 129.54V143.42C125.52 143.833 125.387 144.16 125.12 144.4C124.867 144.653 124.553 144.78 124.18 144.78ZM132.12 141.12H132.96V135.3H132.12V141.12ZM135.22 141.1C135.567 141.047 135.793 140.933 135.9 140.76C136.02 140.573 136.08 140.273 136.08 139.86V136.54C136.08 136.127 136.02 135.833 135.9 135.66C135.793 135.487 135.567 135.373 135.22 135.32V141.1ZM129.86 141.1V135.32C129.527 135.373 129.3 135.487 129.18 135.66C129.073 135.833 129.02 136.127 129.02 136.54V139.86C129.02 140.273 129.073 140.573 129.18 140.76C129.3 140.933 129.527 141.047 129.86 141.1ZM132.12 132.42H132.96V130.04H132.12V132.42ZM144.72 144.74C144.347 144.74 144.027 144.62 143.76 144.38C143.507 144.14 143.38 143.813 143.38 143.4V138C143.287 138.173 143.2 138.34 143.12 138.5C143.04 138.647 142.96 138.787 142.88 138.92C142.693 139.253 142.413 139.467 142.04 139.56C141.667 139.64 141.32 139.587 141 139.4C140.693 139.213 140.5 138.94 140.42 138.58C140.34 138.22 140.4 137.893 140.6 137.6C140.8 137.28 141.027 136.887 141.28 136.42C141.547 135.94 141.813 135.433 142.08 134.9C142.347 134.367 142.587 133.847 142.8 133.34C143.027 132.833 143.207 132.393 143.34 132.02H141.8C141.4 132.02 141.087 131.9 140.86 131.66C140.633 131.407 140.52 131.107 140.52 130.76C140.52 130.4 140.633 130.1 140.86 129.86C141.087 129.607 141.4 129.48 141.8 129.48H143.38V127.4C143.38 126.987 143.507 126.667 143.76 126.44C144.027 126.2 144.347 126.08 144.72 126.08C145.107 126.08 145.427 126.2 145.68 126.44C145.933 126.667 146.06 126.987 146.06 127.4V129.48H147.28C147.667 129.48 147.973 129.607 148.2 129.86C148.44 130.1 148.56 130.4 148.56 130.76V130.84C149.013 130.24 149.447 129.58 149.86 128.86C150.273 128.127 150.62 127.453 150.9 126.84C151.073 126.493 151.327 126.253 151.66 126.12C152.007 125.973 152.36 125.973 152.72 126.12C153.067 126.253 153.3 126.5 153.42 126.86C153.553 127.207 153.533 127.547 153.36 127.88L153.24 128.1H155.26C155.927 128.1 156.447 128.26 156.82 128.58C157.207 128.9 157.433 129.307 157.5 129.8C157.567 130.28 157.453 130.767 157.16 131.26C156.907 131.673 156.647 132.08 156.38 132.48C156.113 132.88 155.827 133.267 155.52 133.64C156.667 134.48 157.847 135.173 159.06 135.72C159.407 135.867 159.64 136.14 159.76 136.54C159.88 136.927 159.847 137.3 159.66 137.66C159.447 138.073 159.12 138.32 158.68 138.4C158.24 138.48 157.813 138.413 157.4 138.2C156.733 137.853 156.073 137.473 155.42 137.06C154.78 136.647 154.167 136.193 153.58 135.7C152.887 136.34 152.14 136.927 151.34 137.46C151.62 137.407 151.927 137.373 152.26 137.36C152.593 137.333 152.953 137.32 153.34 137.32C154.473 137.32 155.36 137.427 156 137.64C156.653 137.84 157.113 138.2 157.38 138.72C157.66 139.227 157.8 139.933 157.8 140.84C157.8 141.747 157.66 142.46 157.38 142.98C157.113 143.5 156.653 143.86 156 144.06C155.36 144.273 154.473 144.38 153.34 144.38C152.22 144.38 151.333 144.273 150.68 144.06C150.04 143.86 149.58 143.5 149.3 142.98C149.02 142.46 148.88 141.747 148.88 140.84C148.88 139.933 149.02 139.22 149.3 138.7C149.247 138.727 149.193 138.753 149.14 138.78C149.1 138.807 149.053 138.833 149 138.86C148.627 139.06 148.247 139.133 147.86 139.08C147.473 139.013 147.18 138.793 146.98 138.42C146.807 138.087 146.767 137.747 146.86 137.4C146.967 137.053 147.193 136.793 147.54 136.62C148.247 136.273 148.953 135.853 149.66 135.36C150.367 134.867 151.033 134.34 151.66 133.78C151.273 133.327 150.92 132.853 150.6 132.36C150.467 132.547 150.333 132.727 150.2 132.9C150.067 133.073 149.933 133.233 149.8 133.38C149.547 133.66 149.227 133.827 148.84 133.88C148.467 133.933 148.14 133.853 147.86 133.64C147.62 133.427 147.473 133.167 147.42 132.86C147.367 132.54 147.427 132.253 147.6 132C147.547 132.013 147.493 132.02 147.44 132.02C147.4 132.02 147.347 132.02 147.28 132.02H146.1C146.273 132.22 146.48 132.467 146.72 132.76C146.973 133.04 147.22 133.32 147.46 133.6C147.713 133.867 147.913 134.08 148.06 134.24C148.327 134.507 148.453 134.833 148.44 135.22C148.44 135.593 148.3 135.913 148.02 136.18C147.753 136.433 147.433 136.547 147.06 136.52C146.687 136.493 146.373 136.333 146.12 136.04L146.06 135.96V143.4C146.06 143.813 145.933 144.14 145.68 144.38C145.427 144.62 145.107 144.74 144.72 144.74ZM153.34 141.96C153.82 141.96 154.18 141.933 154.42 141.88C154.66 141.827 154.82 141.72 154.9 141.56C154.98 141.4 155.02 141.16 155.02 140.84C155.02 140.387 154.92 140.087 154.72 139.94C154.52 139.793 154.06 139.72 153.34 139.72C152.62 139.72 152.16 139.8 151.96 139.96C151.76 140.12 151.66 140.4 151.66 140.8C151.66 141.12 151.7 141.367 151.78 141.54C151.86 141.7 152.02 141.813 152.26 141.88C152.5 141.933 152.86 141.96 153.34 141.96ZM153.5 131.84C153.7 131.6 153.873 131.353 154.02 131.1C154.34 130.593 154.207 130.34 153.62 130.34H152.34C152.5 130.593 152.68 130.847 152.88 131.1C153.08 131.353 153.287 131.6 153.5 131.84ZM170 139.22C169.667 139.22 169.38 139.113 169.14 138.9C168.9 138.673 168.767 138.393 168.74 138.06C168.687 137.353 168.627 136.587 168.56 135.76C168.507 134.92 168.453 134.1 168.4 133.3C168.347 132.487 168.3 131.753 168.26 131.1C168.233 130.433 168.22 129.92 168.22 129.56V128.08C168.22 127.613 168.387 127.213 168.72 126.88C169.053 126.533 169.48 126.36 170 126.36C170.52 126.36 170.947 126.533 171.28 126.88C171.613 127.213 171.78 127.613 171.78 128.08V129.56C171.78 129.92 171.76 130.433 171.72 131.1C171.693 131.753 171.653 132.487 171.6 133.3C171.547 134.1 171.487 134.92 171.42 135.76C171.367 136.587 171.313 137.353 171.26 138.06C171.233 138.393 171.1 138.673 170.86 138.9C170.62 139.113 170.333 139.22 170 139.22ZM170 144.4C169.467 144.4 169.007 144.207 168.62 143.82C168.233 143.433 168.04 142.973 168.04 142.44C168.04 141.893 168.233 141.433 168.62 141.06C169.007 140.687 169.467 140.5 170 140.5C170.547 140.5 171.007 140.687 171.38 141.06C171.767 141.433 171.96 141.893 171.96 142.44C171.96 142.973 171.767 143.433 171.38 143.82C171.007 144.207 170.547 144.4 170 144.4Z" fill="#D74545"/>
<path d="M30.092 159C29.564 159 29.3 158.856 29.3 158.568C29.3 158.192 29.36 157.824 29.48 157.464C29.6 157.096 29.8 156.716 30.08 156.324C30.368 155.932 30.756 155.504 31.244 155.04C31.484 154.808 31.712 154.576 31.928 154.344C32.144 154.112 32.32 153.884 32.456 153.66C32.592 153.428 32.664 153.212 32.672 153.012C32.68 152.636 32.596 152.356 32.42 152.172C32.252 151.988 32.004 151.896 31.676 151.896C31.268 151.896 30.996 152.092 30.86 152.484C30.78 152.724 30.684 152.908 30.572 153.036C30.46 153.164 30.288 153.228 30.056 153.228C29.832 153.228 29.656 153.156 29.528 153.012C29.4 152.86 29.364 152.652 29.42 152.388C29.556 151.796 29.824 151.34 30.224 151.02C30.624 150.692 31.108 150.528 31.676 150.528C32.14 150.528 32.556 150.628 32.924 150.828C33.3 151.02 33.592 151.304 33.8 151.68C34.016 152.048 34.116 152.504 34.1 153.048C34.092 153.432 34.004 153.78 33.836 154.092C33.676 154.404 33.456 154.712 33.176 155.016C32.904 155.312 32.588 155.632 32.228 155.976C31.884 156.32 31.576 156.644 31.304 156.948C31.04 157.252 30.884 157.5 30.836 157.692H33.14C33.668 157.692 33.932 157.908 33.932 158.34C33.932 158.78 33.668 159 33.14 159H30.092ZM39.7903 159.84C39.5983 159.96 39.3903 159.996 39.1663 159.948C38.9423 159.908 38.7663 159.796 38.6383 159.612C38.5183 159.428 38.4783 159.224 38.5183 159C38.5663 158.768 38.6823 158.592 38.8663 158.472C39.4743 158.072 39.9583 157.612 40.3183 157.092C40.6863 156.572 40.9583 155.992 41.1343 155.352H39.6703C39.4943 155.648 39.3063 155.932 39.1063 156.204C38.9063 156.468 38.7023 156.704 38.4943 156.912C38.3343 157.064 38.1383 157.14 37.9063 157.14C37.6743 157.132 37.4783 157.048 37.3183 156.888C37.1663 156.728 37.0903 156.54 37.0903 156.324C37.0983 156.1 37.1783 155.904 37.3303 155.736C37.7463 155.288 38.1223 154.788 38.4583 154.236C38.7943 153.676 39.0383 153.152 39.1903 152.664C39.2623 152.432 39.3903 152.264 39.5743 152.16C39.7663 152.048 39.9743 152.024 40.1983 152.088C40.4143 152.144 40.5783 152.272 40.6903 152.472C40.8023 152.664 40.8263 152.868 40.7623 153.084C40.7303 153.188 40.6903 153.3 40.6423 153.42C40.6023 153.532 40.5543 153.648 40.4983 153.768H44.1223C44.3543 153.768 44.5463 153.844 44.6983 153.996C44.8583 154.148 44.9383 154.336 44.9383 154.56C44.9383 154.784 44.8583 154.972 44.6983 155.124C44.5463 155.276 44.3543 155.352 44.1223 155.352H42.7423C42.5263 156.32 42.1703 157.196 41.6743 157.98C41.1783 158.756 40.5503 159.376 39.7903 159.84ZM55.1263 159.936C54.8543 159.936 54.6223 159.848 54.4303 159.672C54.2463 159.496 54.1463 159.264 54.1303 158.976C54.1223 158.696 54.2103 158.468 54.3943 158.292C54.5783 158.116 54.8023 158.016 55.0663 157.992C55.3063 157.976 55.4583 157.936 55.5223 157.872C55.5943 157.8 55.6303 157.656 55.6303 157.44V155.928H51.9223C51.8023 156.696 51.5943 157.388 51.2983 158.004C51.0103 158.612 50.5983 159.156 50.0623 159.636C49.8623 159.812 49.6223 159.9 49.3423 159.9C49.0703 159.908 48.8383 159.812 48.6463 159.612C48.4623 159.42 48.3743 159.204 48.3823 158.964C48.3983 158.716 48.5103 158.5 48.7183 158.316C49.1263 157.948 49.4383 157.552 49.6543 157.128C49.8783 156.696 50.0343 156.204 50.1223 155.652C50.2103 155.1 50.2543 154.468 50.2543 153.756V151.548C50.2543 150.692 50.4583 150.088 50.8663 149.736C51.2743 149.384 51.9463 149.208 52.8823 149.208H54.8623C55.7903 149.208 56.4583 149.384 56.8663 149.736C57.2743 150.088 57.4783 150.692 57.4783 151.548V157.788C57.4783 158.54 57.2903 159.084 56.9143 159.42C56.5383 159.764 55.9423 159.936 55.1263 159.936ZM52.0663 154.308H55.6303V153.384H52.0783V153.732C52.0783 153.828 52.0743 153.924 52.0663 154.02C52.0663 154.116 52.0663 154.212 52.0663 154.308ZM52.0783 151.776H55.6303V151.656C55.6303 151.368 55.5663 151.164 55.4383 151.044C55.3183 150.924 55.0863 150.864 54.7423 150.864H52.9663C52.6223 150.864 52.3863 150.924 52.2583 151.044C52.1383 151.164 52.0783 151.368 52.0783 151.656V151.776ZM65.8303 159.66C64.9263 159.66 64.2023 159.56 63.6583 159.36C63.1223 159.168 62.7343 158.84 62.4943 158.376C62.2623 157.912 62.1463 157.28 62.1463 156.48V152.4C62.1463 151.6 62.2623 150.968 62.4943 150.504C62.7343 150.04 63.1223 149.712 63.6583 149.52C64.2023 149.32 64.9263 149.22 65.8303 149.22H66.5743C67.4783 149.22 68.1983 149.32 68.7343 149.52C69.2783 149.712 69.6663 150.04 69.8983 150.504C70.1383 150.968 70.2583 151.6 70.2583 152.4V156.48C70.2583 157.28 70.1383 157.912 69.8983 158.376C69.6663 158.84 69.2783 159.168 68.7343 159.36C68.1983 159.56 67.4783 159.66 66.5743 159.66H65.8303ZM63.9583 155.052H68.4463V153.732H63.9583V155.052ZM65.8303 158.052H66.5743C67.2463 158.052 67.7223 157.956 68.0023 157.764C68.2823 157.572 68.4303 157.208 68.4463 156.672H63.9583C63.9743 157.208 64.1223 157.572 64.4023 157.764C64.6823 157.956 65.1583 158.052 65.8303 158.052ZM63.9583 152.112H68.4463C68.4143 151.608 68.2583 151.268 67.9783 151.092C67.6983 150.916 67.2303 150.828 66.5743 150.828H65.8303C65.1743 150.828 64.7063 150.916 64.4263 151.092C64.1543 151.268 63.9983 151.608 63.9583 152.112ZM77.9143 159.744C77.5943 159.848 77.3143 159.86 77.0743 159.78C76.8423 159.708 76.6783 159.548 76.5823 159.3C76.4783 159.028 76.4863 158.776 76.6063 158.544C76.7263 158.304 76.9463 158.136 77.2663 158.04C78.0583 157.8 78.7183 157.504 79.2463 157.152C79.7823 156.8 80.2063 156.352 80.5183 155.808C80.8383 155.264 81.0663 154.592 81.2023 153.792C81.3383 152.984 81.4063 152.012 81.4063 150.876V150.144C81.4063 149.856 81.4983 149.628 81.6823 149.46C81.8663 149.284 82.0903 149.196 82.3543 149.196C82.6103 149.196 82.8303 149.284 83.0143 149.46C83.2063 149.628 83.3023 149.856 83.3023 150.144V150.876C83.3023 152.02 83.2183 153.032 83.0503 153.912C82.8903 154.784 82.6503 155.552 82.3303 156.216C82.5143 156.344 82.7183 156.496 82.9423 156.672C83.1663 156.84 83.3823 157.012 83.5903 157.188C83.8063 157.356 83.9823 157.5 84.1183 157.62C84.3263 157.804 84.4343 158.028 84.4423 158.292C84.4503 158.548 84.3623 158.776 84.1783 158.976C84.0023 159.168 83.7783 159.268 83.5063 159.276C83.2423 159.292 83.0143 159.212 82.8223 159.036C82.7183 158.94 82.5783 158.812 82.4023 158.652C82.2343 158.492 82.0543 158.328 81.8623 158.16C81.6703 157.992 81.4943 157.84 81.3343 157.704C80.9023 158.176 80.4023 158.58 79.8343 158.916C79.2663 159.244 78.6263 159.52 77.9143 159.744ZM74.3503 158.4C74.0783 158.488 73.8223 158.48 73.5823 158.376C73.3503 158.272 73.1903 158.084 73.1023 157.812C73.0223 157.572 73.0423 157.344 73.1623 157.128C73.2903 156.904 73.4823 156.752 73.7383 156.672C73.8423 156.64 73.9543 156.608 74.0743 156.576C74.2023 156.536 74.3303 156.492 74.4583 156.444V150.156C74.4583 149.868 74.5503 149.64 74.7343 149.472C74.9183 149.296 75.1383 149.208 75.3943 149.208C75.6583 149.208 75.8823 149.296 76.0663 149.472C76.2503 149.64 76.3423 149.868 76.3423 150.156V155.796C76.7023 155.66 77.0463 155.532 77.3743 155.412C77.7103 155.292 78.0023 155.184 78.2503 155.088C78.4983 154.984 78.7263 154.98 78.9343 155.076C79.1423 155.164 79.2783 155.312 79.3423 155.52C79.4303 155.768 79.4343 155.992 79.3543 156.192C79.2823 156.384 79.0943 156.548 78.7903 156.684C78.5183 156.804 78.1863 156.944 77.7943 157.104C77.4103 157.264 77.0063 157.428 76.5823 157.596C76.1583 157.756 75.7503 157.908 75.3583 158.052C74.9663 158.196 74.6303 158.312 74.3503 158.4ZM79.0183 153.012C78.8903 152.884 78.7263 152.724 78.5263 152.532C78.3343 152.34 78.1383 152.152 77.9383 151.968C77.7383 151.776 77.5703 151.628 77.4343 151.524C77.2583 151.372 77.1583 151.176 77.1343 150.936C77.1183 150.696 77.1863 150.488 77.3383 150.312C77.5143 150.112 77.7223 150 77.9623 149.976C78.2023 149.952 78.4223 150.02 78.6223 150.18C78.7583 150.284 78.9303 150.432 79.1383 150.624C79.3543 150.808 79.5703 151 79.7863 151.2C80.0023 151.392 80.1743 151.556 80.3023 151.692C80.4943 151.876 80.5943 152.096 80.6023 152.352C80.6103 152.6 80.5183 152.816 80.3263 153C80.1503 153.176 79.9303 153.268 79.6663 153.276C79.4103 153.276 79.1943 153.188 79.0183 153.012ZM86.9263 160.14C86.7023 160.14 86.5143 160.068 86.3623 159.924C86.2183 159.788 86.1463 159.596 86.1463 159.348V150.852C86.1463 150.364 86.1983 149.992 86.3023 149.736C86.4063 149.472 86.6063 149.292 86.9023 149.196C87.2063 149.092 87.6423 149.04 88.2103 149.04C89.1623 149.04 89.7863 149.228 90.0823 149.604C90.3783 149.98 90.3823 150.484 90.0943 151.116C89.9903 151.356 89.8823 151.592 89.7703 151.824C89.6663 152.048 89.5703 152.252 89.4823 152.436C89.4103 152.596 89.3623 152.724 89.3383 152.82C89.3143 152.916 89.3223 153.008 89.3623 153.096C89.4023 153.176 89.4703 153.284 89.5663 153.42C89.7823 153.7 89.9423 154.012 90.0463 154.356C90.1583 154.692 90.2143 155.04 90.2143 155.4C90.2143 156.112 90.0503 156.64 89.7223 156.984C89.3943 157.328 88.9543 157.52 88.4023 157.56C88.1063 157.584 87.8743 157.532 87.7063 157.404V159.348C87.7063 159.596 87.6343 159.788 87.4903 159.924C87.3463 160.068 87.1583 160.14 86.9263 160.14ZM91.2463 154.812C91.0063 154.892 90.7903 154.904 90.5983 154.848C90.4143 154.784 90.2783 154.64 90.1903 154.416C90.1103 154.232 90.1103 154.048 90.1903 153.864C90.2783 153.672 90.4423 153.536 90.6823 153.456C91.3463 153.248 91.9463 152.984 92.4823 152.664C92.2343 152.424 92.0023 152.168 91.7863 151.896C91.5543 152.176 91.3303 152.412 91.1143 152.604C90.9543 152.756 90.7583 152.844 90.5263 152.868C90.3023 152.884 90.1103 152.812 89.9503 152.652C89.7903 152.492 89.7183 152.312 89.7343 152.112C89.7503 151.912 89.8383 151.732 89.9983 151.572C90.1983 151.372 90.4263 151.124 90.6823 150.828C90.9383 150.524 91.1863 150.212 91.4263 149.892C91.6663 149.572 91.8583 149.292 92.0023 149.052C92.1223 148.844 92.2903 148.716 92.5063 148.668C92.7223 148.612 92.9223 148.636 93.1063 148.74C93.3143 148.852 93.4423 149.008 93.4903 149.208C93.5383 149.4 93.5063 149.588 93.3943 149.772H94.4983C95.0103 149.772 95.3943 149.876 95.6503 150.084C95.9063 150.292 96.0303 150.56 96.0223 150.888C96.0143 151.216 95.8623 151.56 95.5663 151.92C95.4623 152.04 95.3543 152.16 95.2423 152.28C95.1303 152.4 95.0183 152.516 94.9063 152.628C95.4423 152.924 96.0263 153.168 96.6583 153.36C96.8663 153.416 97.0223 153.54 97.1263 153.732C97.2383 153.924 97.2503 154.136 97.1623 154.368C97.0743 154.608 96.9143 154.764 96.6823 154.836C96.4583 154.9 96.2303 154.892 95.9983 154.812C95.1583 154.524 94.3823 154.132 93.6703 153.636C93.3183 153.876 92.9383 154.096 92.5303 154.296C92.1303 154.488 91.7023 154.66 91.2463 154.812ZM93.6223 160.14C93.3983 160.14 93.2023 160.064 93.0343 159.912C92.8743 159.768 92.7943 159.568 92.7943 159.312V158.64H89.8543C89.6543 158.64 89.4783 158.568 89.3263 158.424C89.1823 158.272 89.1103 158.096 89.1103 157.896C89.1103 157.688 89.1823 157.512 89.3263 157.368C89.4783 157.216 89.6543 157.14 89.8543 157.14H90.5623V156.768C90.5623 156.256 90.6223 155.864 90.7423 155.592C90.8623 155.312 91.0743 155.12 91.3783 155.016C91.6903 154.904 92.1223 154.848 92.6743 154.848H92.7943V154.74C92.7943 154.484 92.8743 154.284 93.0343 154.14C93.2023 153.988 93.3983 153.912 93.6223 153.912C93.8543 153.912 94.0503 153.988 94.2103 154.14C94.3783 154.284 94.4623 154.484 94.4623 154.74V154.848H95.6143C95.8143 154.848 95.9863 154.92 96.1303 155.064C96.2743 155.208 96.3463 155.38 96.3463 155.58C96.3463 155.78 96.2743 155.952 96.1303 156.096C95.9863 156.24 95.8143 156.312 95.6143 156.312H94.4623V157.14H96.3823C96.5903 157.14 96.7663 157.216 96.9103 157.368C97.0623 157.512 97.1383 157.688 97.1383 157.896C97.1383 158.096 97.0623 158.272 96.9103 158.424C96.7663 158.568 96.5903 158.64 96.3823 158.64H94.4623V159.312C94.4623 159.568 94.3783 159.768 94.2103 159.912C94.0503 160.064 93.8543 160.14 93.6223 160.14ZM87.7063 156.06C87.8023 155.988 87.9103 155.94 88.0303 155.916C88.2143 155.876 88.3503 155.792 88.4383 155.664C88.5263 155.528 88.5703 155.28 88.5703 154.92C88.5703 154.688 88.5223 154.456 88.4263 154.224C88.3383 153.992 88.2263 153.784 88.0903 153.6C87.9543 153.416 87.8583 153.26 87.8023 153.132C87.7543 153.004 87.7423 152.872 87.7663 152.736C87.7983 152.592 87.8583 152.408 87.9463 152.184C88.0263 151.992 88.1103 151.784 88.1983 151.56C88.2863 151.336 88.3703 151.112 88.4503 150.888C88.4903 150.76 88.4823 150.672 88.4263 150.624C88.3703 150.568 88.2503 150.54 88.0663 150.54C87.9383 150.54 87.8463 150.564 87.7903 150.612C87.7343 150.66 87.7063 150.752 87.7063 150.888V156.06ZM92.1583 157.14H92.7943V156.312H92.6743C92.4583 156.312 92.3183 156.34 92.2543 156.396C92.1903 156.452 92.1583 156.576 92.1583 156.768V157.14ZM93.7183 151.764C93.7823 151.708 93.8383 151.656 93.8863 151.608C93.9423 151.552 93.9983 151.496 94.0543 151.44C94.3023 151.176 94.2423 151.044 93.8743 151.044H93.0343C93.2503 151.308 93.4783 151.548 93.7183 151.764ZM109.49 159.936C109.218 159.936 108.986 159.848 108.794 159.672C108.61 159.496 108.51 159.264 108.494 158.976C108.486 158.696 108.574 158.468 108.758 158.292C108.942 158.116 109.166 158.016 109.43 157.992C109.67 157.976 109.822 157.936 109.886 157.872C109.958 157.8 109.994 157.656 109.994 157.44V155.928H106.286C106.166 156.696 105.958 157.388 105.662 158.004C105.374 158.612 104.962 159.156 104.426 159.636C104.226 159.812 103.986 159.9 103.706 159.9C103.434 159.908 103.202 159.812 103.01 159.612C102.826 159.42 102.738 159.204 102.746 158.964C102.762 158.716 102.874 158.5 103.082 158.316C103.49 157.948 103.802 157.552 104.018 157.128C104.242 156.696 104.398 156.204 104.486 155.652C104.574 155.1 104.618 154.468 104.618 153.756V151.548C104.618 150.692 104.822 150.088 105.23 149.736C105.638 149.384 106.31 149.208 107.246 149.208H109.226C110.154 149.208 110.822 149.384 111.23 149.736C111.638 150.088 111.842 150.692 111.842 151.548V157.788C111.842 158.54 111.654 159.084 111.278 159.42C110.902 159.764 110.306 159.936 109.49 159.936ZM106.43 154.308H109.994V153.384H106.442V153.732C106.442 153.828 106.438 153.924 106.43 154.02C106.43 154.116 106.43 154.212 106.43 154.308ZM106.442 151.776H109.994V151.656C109.994 151.368 109.93 151.164 109.802 151.044C109.682 150.924 109.45 150.864 109.106 150.864H107.33C106.986 150.864 106.75 150.924 106.622 151.044C106.502 151.164 106.442 151.368 106.442 151.656V151.776ZM116.27 158.892C116.158 159.116 116.034 159.272 115.898 159.36C115.762 159.456 115.626 159.468 115.49 159.396C115.218 159.244 115.198 158.936 115.43 158.472L119.39 150.684C119.502 150.452 119.626 150.296 119.762 150.216C119.906 150.128 120.042 150.12 120.17 150.192C120.442 150.344 120.462 150.652 120.23 151.116L116.27 158.892ZM125.689 159C125.241 159 125.017 158.736 125.017 158.208V157.236H122.581C122.053 157.236 121.789 157.052 121.789 156.684C121.789 156.308 121.877 155.972 122.053 155.676L124.705 151.104C124.905 150.744 125.217 150.564 125.641 150.564C126.121 150.564 126.361 150.828 126.361 151.356V155.988H126.733C127.261 155.988 127.525 156.196 127.525 156.612C127.525 157.028 127.333 157.236 126.949 157.236H126.361V158.208C126.361 158.736 126.137 159 125.689 159ZM123.193 155.988H125.017V152.808L123.193 155.988ZM130.827 159.12C129.939 159.12 129.259 158.784 128.787 158.112C128.635 157.88 128.595 157.676 128.667 157.5C128.739 157.324 128.879 157.2 129.087 157.128C129.311 157.056 129.495 157.06 129.639 157.14C129.783 157.212 129.939 157.332 130.107 157.5C130.195 157.572 130.291 157.632 130.395 157.68C130.507 157.728 130.639 157.752 130.791 157.752C131.159 157.752 131.451 157.664 131.667 157.488C131.891 157.312 132.003 157 132.003 156.552C132.003 156.16 131.895 155.848 131.679 155.616C131.471 155.376 131.159 155.256 130.743 155.256C130.303 155.256 130.083 155.036 130.083 154.596C130.083 154.164 130.303 153.948 130.743 153.948C131.119 153.948 131.387 153.84 131.547 153.624C131.715 153.408 131.799 153.14 131.799 152.82C131.799 152.444 131.695 152.188 131.487 152.052C131.279 151.908 131.047 151.836 130.791 151.836C130.671 151.836 130.563 151.86 130.467 151.908C130.371 151.956 130.283 152.016 130.203 152.088C130.035 152.264 129.875 152.388 129.723 152.46C129.579 152.532 129.399 152.524 129.183 152.436C128.983 152.348 128.851 152.216 128.787 152.04C128.731 151.856 128.783 151.656 128.943 151.44C129.431 150.792 130.059 150.468 130.827 150.468C131.323 150.468 131.755 150.564 132.123 150.756C132.491 150.948 132.779 151.216 132.987 151.56C133.195 151.904 133.299 152.304 133.299 152.76C133.299 153.168 133.191 153.536 132.975 153.864C132.759 154.184 132.487 154.42 132.159 154.572C132.551 154.724 132.871 154.984 133.119 155.352C133.367 155.72 133.491 156.14 133.491 156.612C133.491 157.388 133.251 158 132.771 158.448C132.299 158.896 131.651 159.12 130.827 159.12ZM136.508 160.788C136.292 160.916 136.104 160.968 135.944 160.944C135.792 160.92 135.684 160.852 135.62 160.74C135.556 160.628 135.572 160.52 135.668 160.416C135.772 160.32 135.928 160.196 136.136 160.044C136.344 159.892 136.504 159.716 136.616 159.516C136.736 159.316 136.796 159.116 136.796 158.916C136.796 158.876 136.792 158.844 136.784 158.82C136.784 158.788 136.784 158.756 136.784 158.724C136.696 158.828 136.588 158.916 136.46 158.988C136.34 159.06 136.212 159.096 136.076 159.096C135.836 159.096 135.628 159.016 135.452 158.856C135.284 158.696 135.2 158.48 135.2 158.208C135.2 157.928 135.3 157.712 135.5 157.56C135.708 157.408 135.948 157.332 136.22 157.332C136.636 157.332 136.98 157.488 137.252 157.8C137.524 158.104 137.66 158.492 137.66 158.964C137.66 159.356 137.556 159.704 137.348 160.008C137.14 160.32 136.86 160.58 136.508 160.788ZM141.88 159.12C141.224 159.12 140.712 158.956 140.344 158.628C139.976 158.3 139.72 157.816 139.576 157.176C139.432 156.536 139.36 155.744 139.36 154.8C139.36 153.848 139.432 153.052 139.576 152.412C139.72 151.772 139.976 151.288 140.344 150.96C140.712 150.632 141.224 150.468 141.88 150.468C142.536 150.468 143.044 150.632 143.404 150.96C143.764 151.288 144.016 151.772 144.16 152.412C144.312 153.052 144.388 153.848 144.388 154.8C144.388 155.744 144.312 156.536 144.16 157.176C144.016 157.816 143.764 158.3 143.404 158.628C143.044 158.956 142.536 159.12 141.88 159.12ZM141.88 157.752C142.152 157.752 142.364 157.668 142.516 157.5C142.676 157.324 142.788 157.024 142.852 156.6C142.924 156.168 142.96 155.568 142.96 154.8C142.96 154.032 142.924 153.432 142.852 153C142.788 152.568 142.676 152.268 142.516 152.1C142.364 151.924 142.152 151.836 141.88 151.836C141.608 151.836 141.392 151.924 141.232 152.1C141.072 152.268 140.956 152.568 140.884 153C140.82 153.432 140.788 154.032 140.788 154.8C140.788 155.568 140.82 156.168 140.884 156.6C140.956 157.024 141.072 157.324 141.232 157.5C141.392 157.668 141.608 157.752 141.88 157.752ZM148.504 159.12C147.848 159.12 147.336 158.956 146.968 158.628C146.6 158.3 146.344 157.816 146.2 157.176C146.056 156.536 145.984 155.744 145.984 154.8C145.984 153.848 146.056 153.052 146.2 152.412C146.344 151.772 146.6 151.288 146.968 150.96C147.336 150.632 147.848 150.468 148.504 150.468C149.16 150.468 149.668 150.632 150.028 150.96C150.388 151.288 150.64 151.772 150.784 152.412C150.936 153.052 151.012 153.848 151.012 154.8C151.012 155.744 150.936 156.536 150.784 157.176C150.64 157.816 150.388 158.3 150.028 158.628C149.668 158.956 149.16 159.12 148.504 159.12ZM148.504 157.752C148.776 157.752 148.988 157.668 149.14 157.5C149.3 157.324 149.412 157.024 149.476 156.6C149.548 156.168 149.584 155.568 149.584 154.8C149.584 154.032 149.548 153.432 149.476 153C149.412 152.568 149.3 152.268 149.14 152.1C148.988 151.924 148.776 151.836 148.504 151.836C148.232 151.836 148.016 151.924 147.856 152.1C147.696 152.268 147.58 152.568 147.508 153C147.444 153.432 147.412 154.032 147.412 154.8C147.412 155.568 147.444 156.168 147.508 156.6C147.58 157.024 147.696 157.324 147.856 157.5C148.016 157.668 148.232 157.752 148.504 157.752ZM155.127 159.12C154.471 159.12 153.959 158.956 153.591 158.628C153.223 158.3 152.967 157.816 152.823 157.176C152.679 156.536 152.607 155.744 152.607 154.8C152.607 153.848 152.679 153.052 152.823 152.412C152.967 151.772 153.223 151.288 153.591 150.96C153.959 150.632 154.471 150.468 155.127 150.468C155.783 150.468 156.291 150.632 156.651 150.96C157.011 151.288 157.263 151.772 157.407 152.412C157.559 153.052 157.635 153.848 157.635 154.8C157.635 155.744 157.559 156.536 157.407 157.176C157.263 157.816 157.011 158.3 156.651 158.628C156.291 158.956 155.783 159.12 155.127 159.12ZM155.127 157.752C155.399 157.752 155.611 157.668 155.763 157.5C155.923 157.324 156.035 157.024 156.099 156.6C156.171 156.168 156.207 155.568 156.207 154.8C156.207 154.032 156.171 153.432 156.099 153C156.035 152.568 155.923 152.268 155.763 152.1C155.611 151.924 155.399 151.836 155.127 151.836C154.855 151.836 154.639 151.924 154.479 152.1C154.319 152.268 154.203 152.568 154.131 153C154.067 153.432 154.035 154.032 154.035 154.8C154.035 155.568 154.067 156.168 154.131 156.6C154.203 157.024 154.319 157.324 154.479 157.5C154.639 157.668 154.855 157.752 155.127 157.752ZM160.707 160.044C160.451 160.044 160.239 159.956 160.071 159.78C159.911 159.612 159.831 159.388 159.831 159.108V152.484C159.831 151.812 159.883 151.264 159.987 150.84C160.099 150.416 160.287 150.088 160.551 149.856C160.815 149.624 161.175 149.464 161.631 149.376C162.087 149.28 162.663 149.232 163.359 149.232H166.071C166.767 149.232 167.343 149.28 167.799 149.376C168.263 149.464 168.627 149.624 168.891 149.856C169.155 150.088 169.343 150.416 169.455 150.84C169.567 151.264 169.623 151.812 169.623 152.484V157.416C169.623 158.072 169.543 158.588 169.383 158.964C169.231 159.332 168.987 159.596 168.651 159.756C168.315 159.916 167.879 160.008 167.343 160.032C167.023 160.04 166.763 159.972 166.563 159.828C166.371 159.692 166.259 159.48 166.227 159.192C166.195 158.912 166.259 158.676 166.419 158.484C166.587 158.284 166.811 158.176 167.091 158.16C167.427 158.136 167.639 158.06 167.727 157.932C167.815 157.796 167.859 157.548 167.859 157.188V155.268H161.583V159.108C161.583 159.388 161.499 159.612 161.331 159.78C161.171 159.956 160.963 160.044 160.707 160.044ZM161.583 153.648H163.851V150.888H163.359C162.863 150.888 162.487 150.924 162.231 150.996C161.975 151.068 161.803 151.216 161.715 151.44C161.627 151.664 161.583 152.012 161.583 152.484V153.648ZM165.603 153.648H167.859V152.484C167.859 152.012 167.815 151.664 167.727 151.44C167.639 151.216 167.467 151.068 167.211 150.996C166.955 150.924 166.575 150.888 166.071 150.888H165.603V153.648Z" fill="#D74545"/>
<path d="M22.6781 185.98V226H13.0501V195.782L7.30811 199.32V190.388L14.2101 185.98H22.6781Z" fill="#D74545"/>
<path d="M34.2942 226L42.9942 210.108C41.6602 210.63 40.6162 210.804 39.0502 210.804C33.0182 210.804 27.8562 205.758 27.8562 198.74C27.8562 188.996 34.4682 185.4 42.1822 185.4C50.0122 185.4 56.6242 188.996 56.6242 198.74C56.6242 202.046 55.4642 205.932 52.5062 211.268L44.5022 226H34.2942ZM46.9962 198.218C46.9962 195.434 45.5462 193.404 42.1822 193.404C38.8762 193.404 37.4842 195.434 37.4842 198.218C37.4842 201.002 38.8762 203.032 42.1822 203.032C45.5462 203.032 46.9962 201.002 46.9962 198.218Z" fill="#D74545"/>
<path d="M68.5282 215.792V228.262L59.4802 235.976V215.792H68.5282Z" fill="#D74545"/>
<path d="M168.534 213.24C168.534 222.984 161.922 226.58 154.15 226.58C146.378 226.58 139.766 222.984 139.766 213.24V198.74C139.766 188.416 146.378 185.4 154.15 185.4C161.922 185.4 168.534 188.416 168.534 198.682V213.24ZM149.336 199.842V212.138C149.336 216.43 150.496 218.576 154.15 218.576C157.746 218.576 158.906 216.43 158.906 212.138V199.842C158.906 195.55 157.746 193.404 154.15 193.404C150.496 193.404 149.336 195.55 149.336 199.842Z" fill="#D74545"/>
<path d="M136.079 213.24C136.079 222.984 129.467 226.58 121.695 226.58C113.923 226.58 107.311 222.984 107.311 213.24V198.74C107.311 188.416 113.923 185.4 121.695 185.4C129.467 185.4 136.079 188.416 136.079 198.682V213.24ZM116.881 199.842V212.138C116.881 216.43 118.041 218.576 121.695 218.576C125.291 218.576 126.451 216.43 126.451 212.138V199.842C126.451 195.55 125.291 193.404 121.695 193.404C118.041 193.404 116.881 195.55 116.881 199.842Z" fill="#D74545"/>
<path d="M103.624 213.24C103.624 222.984 97.0122 226.58 89.2402 226.58C81.4682 226.58 74.8562 222.984 74.8562 213.24V198.74C74.8562 188.416 81.4682 185.4 89.2402 185.4C97.0122 185.4 103.624 188.416 103.624 198.682V213.24ZM84.4262 199.842V212.138C84.4262 216.43 85.5862 218.576 89.2402 218.576C92.8362 218.576 93.9962 216.43 93.9962 212.138V199.842C93.9962 195.55 92.8362 193.404 89.2402 193.404C85.5862 193.404 84.4262 195.55 84.4262 199.842Z" fill="#D74545"/>
<path d="M172.98 226.044C172.724 226.044 172.512 225.956 172.344 225.78C172.184 225.612 172.104 225.388 172.104 225.108V218.484C172.104 217.812 172.156 217.264 172.26 216.84C172.372 216.416 172.56 216.088 172.824 215.856C173.088 215.624 173.448 215.464 173.904 215.376C174.36 215.28 174.936 215.232 175.632 215.232H178.344C179.04 215.232 179.616 215.28 180.072 215.376C180.536 215.464 180.9 215.624 181.164 215.856C181.428 216.088 181.616 216.416 181.728 216.84C181.84 217.264 181.896 217.812 181.896 218.484V223.416C181.896 224.072 181.816 224.588 181.656 224.964C181.504 225.332 181.26 225.596 180.924 225.756C180.588 225.916 180.152 226.008 179.616 226.032C179.296 226.04 179.036 225.972 178.836 225.828C178.644 225.692 178.532 225.48 178.5 225.192C178.468 224.912 178.532 224.676 178.692 224.484C178.86 224.284 179.084 224.176 179.364 224.16C179.7 224.136 179.912 224.06 180 223.932C180.088 223.796 180.132 223.548 180.132 223.188V221.268H173.856V225.108C173.856 225.388 173.772 225.612 173.604 225.78C173.444 225.956 173.236 226.044 172.98 226.044ZM173.856 219.648H176.124V216.888H175.632C175.136 216.888 174.76 216.924 174.504 216.996C174.248 217.068 174.076 217.216 173.988 217.44C173.9 217.664 173.856 218.012 173.856 218.484V219.648ZM177.876 219.648H180.132V218.484C180.132 218.012 180.088 217.664 180 217.44C179.912 217.216 179.74 217.068 179.484 216.996C179.228 216.924 178.848 216.888 178.344 216.888H177.876V219.648Z" fill="#3B3B3B"/>
<path d="M174.767 212.62C174.601 212.72 174.434 212.75 174.267 212.71C174.107 212.677 173.971 212.577 173.857 212.41C173.371 211.677 172.987 210.927 172.707 210.16C172.434 209.387 172.297 208.553 172.297 207.66C172.297 206.767 172.434 205.933 172.707 205.16C172.987 204.387 173.371 203.637 173.857 202.91C173.971 202.743 174.107 202.643 174.267 202.61C174.434 202.57 174.601 202.6 174.767 202.7C174.921 202.787 175.011 202.917 175.037 203.09C175.071 203.257 175.041 203.41 174.947 203.55C174.654 204.01 174.404 204.45 174.197 204.87C173.991 205.283 173.834 205.713 173.727 206.16C173.621 206.607 173.567 207.107 173.567 207.66C173.567 208.213 173.621 208.717 173.727 209.17C173.834 209.617 173.991 210.047 174.197 210.46C174.404 210.873 174.654 211.31 174.947 211.77C175.041 211.91 175.071 212.063 175.037 212.23C175.011 212.403 174.921 212.533 174.767 212.62ZM177.92 211.88C177.733 211.88 177.573 211.817 177.44 211.69C177.307 211.57 177.24 211.407 177.24 211.2V208.79C177.16 208.937 177.083 209.073 177.01 209.2C176.937 209.327 176.873 209.437 176.82 209.53C176.733 209.677 176.593 209.777 176.4 209.83C176.213 209.877 176.033 209.837 175.86 209.71C175.713 209.603 175.63 209.467 175.61 209.3C175.59 209.127 175.627 208.977 175.72 208.85C175.82 208.71 175.94 208.533 176.08 208.32C176.22 208.1 176.363 207.87 176.51 207.63C176.657 207.383 176.79 207.147 176.91 206.92C177.037 206.687 177.14 206.487 177.22 206.32H176.41C176.23 206.32 176.077 206.257 175.95 206.13C175.823 206.003 175.76 205.85 175.76 205.67C175.76 205.49 175.823 205.34 175.95 205.22C176.077 205.093 176.23 205.03 176.41 205.03H177.24V204.46C177.14 204.48 177.04 204.5 176.94 204.52C176.84 204.54 176.743 204.557 176.65 204.57C176.423 204.617 176.237 204.597 176.09 204.51C175.95 204.417 175.86 204.273 175.82 204.08C175.787 203.893 175.82 203.737 175.92 203.61C176.027 203.477 176.187 203.393 176.4 203.36C176.633 203.32 176.897 203.267 177.19 203.2C177.49 203.133 177.783 203.06 178.07 202.98C178.363 202.9 178.61 202.823 178.81 202.75C179.01 202.683 179.187 202.68 179.34 202.74C179.5 202.793 179.613 202.91 179.68 203.09C179.747 203.263 179.74 203.43 179.66 203.59C179.587 203.743 179.46 203.853 179.28 203.92C179.18 203.953 179.073 203.99 178.96 204.03C178.847 204.063 178.727 204.097 178.6 204.13V205.03H179.16C179.32 205.03 179.46 205.08 179.58 205.18C179.7 205.28 179.773 205.407 179.8 205.56C179.853 205.28 179.96 205.063 180.12 204.91C180.287 204.75 180.527 204.637 180.84 204.57C180.74 204.503 180.657 204.423 180.59 204.33C180.55 204.27 180.497 204.19 180.43 204.09C180.363 203.983 180.3 203.88 180.24 203.78C180.18 203.68 180.133 203.61 180.1 203.57C180 203.417 179.973 203.253 180.02 203.08C180.067 202.907 180.167 202.773 180.32 202.68C180.493 202.567 180.673 202.523 180.86 202.55C181.047 202.577 181.2 202.673 181.32 202.84C181.36 202.893 181.413 202.973 181.48 203.08C181.547 203.18 181.613 203.28 181.68 203.38C181.747 203.48 181.793 203.553 181.82 203.6C181.913 203.747 181.947 203.903 181.92 204.07C181.893 204.237 181.817 204.377 181.69 204.49H182.3C182.36 204.343 182.433 204.163 182.52 203.95C182.613 203.737 182.7 203.533 182.78 203.34C182.86 203.14 182.917 202.997 182.95 202.91C183.023 202.73 183.15 202.607 183.33 202.54C183.517 202.473 183.703 202.48 183.89 202.56C184.07 202.64 184.193 202.76 184.26 202.92C184.333 203.073 184.337 203.24 184.27 203.42C184.223 203.533 184.143 203.71 184.03 203.95C183.917 204.183 183.813 204.4 183.72 204.6C184.093 204.693 184.347 204.867 184.48 205.12C184.62 205.373 184.69 205.733 184.69 206.2V206.38C184.69 206.873 184.613 207.25 184.46 207.51C184.307 207.763 184.013 207.933 183.58 208.02V210.1C183.58 210.247 183.6 210.34 183.64 210.38C183.687 210.42 183.773 210.44 183.9 210.44C183.973 210.44 184.03 210.417 184.07 210.37C184.11 210.317 184.15 210.207 184.19 210.04C184.243 209.84 184.35 209.703 184.51 209.63C184.67 209.55 184.843 209.537 185.03 209.59C185.41 209.71 185.56 209.973 185.48 210.38C185.38 210.907 185.207 211.273 184.96 211.48C184.72 211.687 184.35 211.79 183.85 211.79C183.457 211.79 183.143 211.75 182.91 211.67C182.677 211.597 182.51 211.463 182.41 211.27C182.31 211.077 182.26 210.807 182.26 210.46V208.1H181.96C181.913 208.913 181.74 209.63 181.44 210.25C181.14 210.863 180.68 211.357 180.06 211.73C179.88 211.837 179.69 211.877 179.49 211.85C179.297 211.83 179.14 211.727 179.02 211.54C178.927 211.393 178.9 211.227 178.94 211.04C178.98 210.853 179.09 210.71 179.27 210.61C179.743 210.343 180.087 209.99 180.3 209.55C180.52 209.11 180.653 208.587 180.7 207.98C180.333 207.88 180.083 207.707 179.95 207.46C179.817 207.207 179.75 206.847 179.75 206.38V206.2C179.75 206.153 179.75 206.11 179.75 206.07C179.75 206.023 179.753 205.977 179.76 205.93C179.713 206.043 179.633 206.137 179.52 206.21C179.413 206.283 179.293 206.32 179.16 206.32H178.6V206.67C178.66 206.73 178.747 206.813 178.86 206.92C178.973 207.027 179.093 207.14 179.22 207.26C179.347 207.38 179.463 207.49 179.57 207.59C179.683 207.683 179.767 207.753 179.82 207.8C179.96 207.907 180.03 208.047 180.03 208.22C180.037 208.393 179.983 208.55 179.87 208.69C179.757 208.83 179.603 208.903 179.41 208.91C179.217 208.917 179.06 208.853 178.94 208.72C178.853 208.633 178.74 208.51 178.6 208.35V211.2C178.6 211.407 178.533 211.57 178.4 211.69C178.273 211.817 178.113 211.88 177.92 211.88ZM181.87 206.89H182.57C182.877 206.89 183.073 206.857 183.16 206.79C183.253 206.723 183.3 206.587 183.3 206.38V206.2C183.3 206 183.253 205.867 183.16 205.8C183.073 205.727 182.877 205.69 182.57 205.69H181.87C181.563 205.69 181.363 205.727 181.27 205.8C181.183 205.867 181.14 206 181.14 206.2V206.38C181.14 206.587 181.183 206.723 181.27 206.79C181.363 206.857 181.563 206.89 181.87 206.89ZM193.95 209.72C193.51 209.34 193.113 208.88 192.76 208.34C192.407 207.8 192.12 207.203 191.9 206.55C191.653 207.157 191.357 207.737 191.01 208.29C190.67 208.843 190.297 209.31 189.89 209.69C189.743 209.837 189.557 209.903 189.33 209.89C189.103 209.87 188.923 209.777 188.79 209.61C188.683 209.463 188.643 209.303 188.67 209.13C188.703 208.957 188.787 208.807 188.92 208.68C189.287 208.347 189.623 207.94 189.93 207.46C190.237 206.98 190.503 206.477 190.73 205.95C190.963 205.417 191.15 204.91 191.29 204.43C191.203 204.383 191.08 204.36 190.92 204.36H190.05C189.837 204.36 189.667 204.293 189.54 204.16C189.413 204.027 189.35 203.863 189.35 203.67C189.35 203.477 189.413 203.313 189.54 203.18C189.667 203.047 189.837 202.98 190.05 202.98H191.08C191.607 202.98 191.987 203.073 192.22 203.26C192.46 203.44 192.607 203.787 192.66 204.3C192.72 204.853 192.853 205.397 193.06 205.93C193.267 206.457 193.53 206.95 193.85 207.41C194.17 207.87 194.53 208.273 194.93 208.62C195.077 208.747 195.16 208.907 195.18 209.1C195.207 209.287 195.16 209.45 195.04 209.59C194.907 209.75 194.733 209.847 194.52 209.88C194.307 209.913 194.117 209.86 193.95 209.72ZM191.48 211.66C190.547 211.66 189.79 211.593 189.21 211.46C188.637 211.333 188.187 211.113 187.86 210.8C187.78 210.86 187.68 210.933 187.56 211.02C187.44 211.107 187.327 211.187 187.22 211.26C187.12 211.34 187.043 211.4 186.99 211.44C186.823 211.56 186.633 211.603 186.42 211.57C186.207 211.537 186.047 211.43 185.94 211.25C185.833 211.077 185.8 210.893 185.84 210.7C185.887 210.5 186 210.353 186.18 210.26C186.28 210.207 186.413 210.137 186.58 210.05C186.747 209.957 186.897 209.877 187.03 209.81V207.83C187.03 207.677 187.007 207.573 186.96 207.52C186.92 207.467 186.823 207.44 186.67 207.44H186.44C186.24 207.44 186.08 207.377 185.96 207.25C185.847 207.123 185.79 206.97 185.79 206.79C185.79 206.61 185.847 206.457 185.96 206.33C186.08 206.203 186.24 206.14 186.44 206.14H187.28C188.027 206.14 188.4 206.513 188.4 207.26V209.53C188.533 209.71 188.71 209.86 188.93 209.98C189.157 210.093 189.47 210.18 189.87 210.24C190.277 210.3 190.813 210.33 191.48 210.33C192.02 210.33 192.537 210.32 193.03 210.3C193.523 210.28 193.953 210.257 194.32 210.23C194.573 210.21 194.78 210.267 194.94 210.4C195.1 210.527 195.18 210.697 195.18 210.91C195.18 211.13 195.113 211.31 194.98 211.45C194.847 211.59 194.637 211.66 194.35 211.66H191.48ZM187.49 204.85C187.41 204.763 187.307 204.667 187.18 204.56C187.053 204.447 186.927 204.337 186.8 204.23C186.673 204.117 186.56 204.023 186.46 203.95C186.32 203.837 186.247 203.687 186.24 203.5C186.24 203.313 186.297 203.153 186.41 203.02C186.53 202.88 186.68 202.793 186.86 202.76C187.047 202.727 187.22 202.773 187.38 202.9C187.553 203.027 187.743 203.177 187.95 203.35C188.163 203.523 188.333 203.667 188.46 203.78C188.613 203.92 188.69 204.087 188.69 204.28C188.697 204.473 188.627 204.647 188.48 204.8C188.347 204.947 188.183 205.027 187.99 205.04C187.797 205.053 187.63 204.99 187.49 204.85ZM196.23 212.62C196.083 212.533 195.993 212.403 195.96 212.23C195.933 212.063 195.963 211.91 196.05 211.77C196.35 211.31 196.6 210.873 196.8 210.46C197.007 210.047 197.163 209.617 197.27 209.17C197.377 208.717 197.43 208.213 197.43 207.66C197.43 207.107 197.377 206.607 197.27 206.16C197.163 205.713 197.007 205.283 196.8 204.87C196.6 204.45 196.35 204.01 196.05 203.55C195.963 203.41 195.933 203.257 195.96 203.09C195.993 202.917 196.083 202.787 196.23 202.7C196.403 202.6 196.57 202.57 196.73 202.61C196.897 202.643 197.033 202.743 197.14 202.91C197.633 203.637 198.017 204.387 198.29 205.16C198.563 205.933 198.7 206.767 198.7 207.66C198.7 208.553 198.563 209.387 198.29 210.16C198.017 210.927 197.633 211.677 197.14 212.41C197.033 212.577 196.897 212.677 196.73 212.71C196.57 212.75 196.403 212.72 196.23 212.62Z" fill="#3B3B3B"/>
</svg>
