<svg width="140" height="106" viewBox="0 0 140 106" fill="none" xmlns="http://www.w3.org/2000/svg">
<path d="M79.5782 70.0262C81.7766 70.0262 83.8316 70.0487 85.8849 70.0141C86.5932 70.0019 86.9966 70.2723 87.3016 70.9345C91.4199 79.8906 95.5632 88.8329 99.6732 97.7925C99.9182 98.3281 100.192 98.4685 100.73 98.4667C106.647 98.4459 112.563 98.4546 118.478 98.4546C120.137 98.4546 120.285 98.5846 120.245 100.34C120.227 101.2 120.167 102.074 119.988 102.909C119.653 104.474 118.643 105.355 117.102 105.568C116.828 105.606 116.55 105.625 116.273 105.625C102.997 105.646 89.7216 105.67 76.4449 105.679C71.3632 105.683 66.2799 105.603 61.1999 105.648C58.8932 105.667 57.3549 104.601 56.3799 102.516C54.8916 99.3351 53.4182 96.1475 51.9116 92.901C40.2549 95.6032 29.3349 93.6567 19.2883 86.9193C11.7833 81.8874 6.35325 74.9991 3.18992 66.3012C-3.53175 47.8187 2.17159 28.3152 15.7399 16.9584C30.8783 4.28778 50.5966 4.16124 65.5916 14.6722C74.2032 20.7076 79.8832 29.045 82.4916 39.542C85.0949 50.0131 84.0099 60.141 79.5816 70.0296L79.5782 70.0262ZM59.8282 103.67C60.2866 103.745 60.7449 103.887 61.2032 103.885C72.3116 103.87 83.4199 103.838 94.5282 103.812C96.2782 103.809 98.0282 103.812 99.7782 103.811C100.01 103.811 100.242 103.783 100.54 103.766C100.108 102.817 99.6566 101.985 99.3516 101.1C99.0966 100.358 98.6799 100.221 97.9799 100.221C85.6199 100.243 73.2616 100.238 60.9016 100.236C60.5416 100.236 60.1799 100.217 59.8199 100.207C59.0666 99.817 59.0316 99.2762 59.5149 98.6279C59.9199 98.569 60.3266 98.4581 60.7316 98.4581C72.8116 98.4494 84.8932 98.4511 96.9733 98.4511C97.2966 98.4511 97.6216 98.4511 98.0382 98.4511C97.9149 98.1495 97.8399 97.9415 97.7482 97.7422C96.3049 94.5997 94.8632 91.4571 93.4116 88.318C91.2532 83.6502 89.0866 78.9858 86.9216 74.3214C86.6683 73.7459 86.3799 73.1843 86.1716 72.5933C85.9349 71.9242 85.5316 71.7457 84.8532 71.7474C71.5832 71.7699 58.3116 71.7647 45.0416 71.7647C44.7499 71.7647 44.4582 71.7647 44.0416 71.7647C44.6999 73.219 45.2899 74.5398 45.8949 75.8537C47.6032 79.563 49.3182 83.2706 51.0316 86.9782C53.2933 91.8749 55.5449 96.7767 57.8216 101.666C58.2432 102.573 58.7466 103.448 59.8266 103.672L59.8282 103.67ZM77.5966 70.0262C86.6799 52.5299 82.3099 28.8422 65.0966 16.4159C49.8266 5.39364 29.1066 6.30885 14.8549 20.0663C-0.42008 34.8118 -2.01675 58.5428 9.91659 75.4359C20.4783 90.3859 38.5549 94.6499 51.0483 91.1261C50.9399 90.8591 50.8466 90.5922 50.7299 90.3374C49.3566 87.3561 47.9799 84.3764 46.6066 81.3951C45.1016 78.1278 43.5966 74.8604 42.0999 71.5879C41.6516 70.6086 42.0016 70.0487 43.0499 70.0262C43.2166 70.0227 43.3832 70.0262 43.5499 70.0262H77.5966ZM118.678 100.29H100.838C101.297 101.292 101.77 102.2 102.128 103.155C102.34 103.72 102.638 103.845 103.178 103.842C106.87 103.818 110.562 103.831 114.253 103.828C115.138 103.828 116.047 103.937 116.897 103.755C117.41 103.644 118.028 103.164 118.247 102.679C118.557 101.991 118.542 101.145 118.677 100.292L118.678 100.29Z" fill="#282425"/>
<path d="M101.195 37.7304C99.1282 37.8812 97.0599 38.0338 94.9766 38.1863C95.6432 32.0815 98.4732 27.1172 105.148 25.9524C110.762 24.9731 115.158 28.0151 117.792 32.9586C118.965 35.1599 119.187 37.4618 118.888 39.8988C118.7 41.4398 118.62 42.9946 118.492 44.5424C117.955 44.8423 117.42 45.1404 116.883 45.4403C116.602 45.0486 116.338 44.6395 116.035 44.2668C115.535 43.6515 115.163 43.1124 115.433 42.1556C115.713 41.1624 114.777 40.0011 113.757 39.8607C112.527 39.6908 111.283 39.6128 110.043 39.5106C108.23 39.3598 106.512 38.8554 104.863 38.0667C104.47 37.8778 104.048 37.7495 103.64 37.5952L103.66 37.6022C103.6 37.5415 103.538 37.4826 103.478 37.4219L103.493 37.4323C103.407 37.3682 103.318 37.304 103.232 37.2399C102.373 36.0924 101.508 34.9502 100.662 33.794C100.35 33.3676 100.022 33.0296 99.4866 33.3538C98.9682 33.6692 98.8466 34.1476 99.1799 34.6728C99.8349 35.7024 100.518 36.713 101.19 37.7304H101.195Z" fill="#89C2EA"/>
<path d="M116.885 45.4405C117.422 45.1407 117.957 44.8425 118.493 44.5427C121.14 44.3624 122.597 46.6625 122.778 48.6472C122.97 50.7445 121.962 53.3688 118.408 53.9599V58.5081C119.332 58.4977 120.007 59.0247 120.637 59.7041C121.073 60.1756 121.578 60.5379 122.317 60.4599C122.945 60.394 123.127 60.9053 123.145 61.5016C123.153 61.7876 123.183 62.1707 123.357 62.3405C126.4 65.3115 128.738 68.8405 130.808 72.5655C133.237 76.9317 135.157 81.5493 136.523 86.3871C137.508 89.878 138.295 93.4296 139.167 96.9552C139.193 97.0661 139.187 97.1857 139.208 97.2984C139.317 97.8895 139.182 98.3159 138.552 98.4719C137.855 98.6435 137.672 98.146 137.555 97.6329C137.158 95.8736 136.83 94.0969 136.403 92.3445C134.407 84.1528 131.355 76.4273 126.837 69.3761C125.393 67.1245 123.867 64.9215 121.712 63.1916C120.723 64.1796 119.725 65.1659 118.74 66.1677C117.332 67.6029 115.922 69.0364 114.538 70.4959C113.997 71.0661 113.513 71.0748 112.967 70.5392C112.303 69.8909 111.627 69.26 110.82 68.4921C110.905 69.1872 110.978 69.728 111.033 70.2705C111.062 70.5548 111.167 70.9119 111.047 71.1147C110.863 71.4232 110.538 71.7647 110.227 71.8253C110.023 71.8652 109.558 71.4613 109.513 71.2013C109.197 69.3293 108.932 67.4469 108.722 65.5576C108.69 65.2785 108.977 64.7984 109.225 64.6961C109.47 64.5939 109.953 64.7516 110.158 64.9717C111.103 65.9823 111.982 67.0587 112.897 68.1004C113.138 68.3743 113.425 68.6048 113.717 68.8804C115.94 66.4919 118.137 64.1328 120.37 61.7321C120.167 61.5293 119.838 61.1931 119.5 60.8689C118.933 60.3264 118.298 60.2623 117.682 60.7251C116.117 61.8985 114.562 63.0893 113.025 64.3009C112.552 64.6736 112.128 64.9301 111.698 64.3079C111.267 63.6804 111.592 63.2349 112.082 62.8536C113.428 61.8067 114.76 60.7389 116.132 59.7284C116.572 59.4043 116.723 59.068 116.707 58.5185C116.665 57.1336 116.68 55.7452 116.7 54.3585C116.707 53.9044 116.645 53.6132 116.137 53.4867C115.81 53.4052 115.417 53.1625 115.272 52.8748C115.14 52.6113 115.19 52.0983 115.368 51.8643C115.525 51.658 115.982 51.58 116.28 51.6285C117.003 51.7464 117.707 52.1069 118.425 52.1225C119.658 52.1485 120.64 51.268 120.988 50.0529C121.348 48.798 120.943 47.3836 120.032 46.7128C119.203 46.1044 118.567 46.1495 118.015 46.9121C117.682 47.3732 117.348 47.7268 116.788 47.3143C116.24 46.9104 116.302 46.406 116.63 45.8825C116.72 45.7387 116.803 45.5913 116.888 45.444L116.885 45.4405Z" fill="#262223"/>
<path d="M95.7349 9.77865C95.6366 12.9004 94.6699 15.3808 92.5416 17.2944C92.1516 17.6445 92.1166 17.908 92.3333 18.3829C92.9466 19.7297 93.5233 21.0956 94.0599 22.4771C94.7133 24.1619 94.2566 25.344 92.7999 25.9091C91.7866 26.3008 90.9066 26.0651 90.3149 24.9973C89.5866 23.6835 88.9533 22.3003 88.3949 20.898C88.0416 20.0123 87.6649 19.6604 86.6466 19.7575C82.1416 20.1891 77.7266 16.2925 76.9583 11.6611C76.1399 6.72625 79.3116 1.70305 84.0099 0.429052C88.9066 -0.898681 94.3833 2.51252 95.4816 7.78878C95.6316 8.51332 95.6716 9.26385 95.7349 9.77865ZM94.0249 9.91732C94.0116 5.49558 90.5183 1.87292 86.3083 1.91105C81.9633 1.95092 78.4666 5.63945 78.5016 10.1496C78.5349 14.5003 82.1216 18.1524 86.4216 18.038C90.5499 17.9271 94.0783 14.5644 94.0266 9.91732H94.0249ZM89.5133 19.2253C90.0533 20.5981 90.5566 21.8947 91.0766 23.1825C91.1816 23.4443 91.2916 23.7597 91.4966 23.9088C91.7566 24.0977 92.1133 24.1445 92.4299 24.252C92.4949 23.9435 92.6999 23.576 92.6049 23.3368C91.9983 21.808 91.3266 20.3087 90.6633 18.7695C90.2583 18.9307 89.9316 19.0607 89.5166 19.2271L89.5133 19.2253Z" fill="#272324"/>
<path d="M106.83 61.4581C106.928 62.3733 107.032 63.3422 107.14 64.3111C107.212 64.9421 107.135 65.5383 106.41 65.6111C105.708 65.6805 105.452 65.1813 105.452 64.5035C105.452 64.3337 105.402 64.1621 105.355 63.8761C104.822 64.0043 104.275 64.072 103.783 64.2817C103.582 64.3684 103.392 64.7497 103.378 65.0062C103.33 65.9561 103.36 66.9094 103.36 67.9009C104.262 67.4936 105.16 67.0879 106.058 66.6806C106.583 66.4414 107.102 66.3184 107.37 67.0221C107.618 67.6738 107.267 68.0101 106.718 68.2822C105.525 68.875 104.352 69.5146 103.178 70.1507C102.643 70.4419 102.145 70.5876 101.61 69.8318C100.533 71.4525 99.4567 72.9432 98.52 74.5205C97.5034 76.2313 96.6134 78.0236 95.6767 79.7864C95.3984 80.3116 95.11 80.894 94.4267 80.5022C93.775 80.1296 93.9084 79.5385 94.1967 78.9301C96.0417 75.0388 98.2684 71.4022 100.933 68.0673C101.492 67.367 101.732 66.6616 101.673 65.788C101.643 65.3286 101.653 64.8658 101.67 64.4047C101.707 63.4635 102.172 62.8309 103.03 62.5605C103.71 62.3456 104.412 62.2017 105.108 62.0249C105.215 61.4806 104.97 61.3211 104.498 61.2674C101.013 60.8774 98.2067 59.2065 96.1184 56.291C94.165 53.5662 93.33 50.4497 93.4117 47.0784C93.4384 45.9916 93.665 44.9082 93.8234 43.8266C93.9134 43.213 94.11 42.6601 94.8817 42.8508C95.635 43.038 95.6067 43.6585 95.465 44.2339C94.9834 46.1978 94.9784 48.1652 95.3334 50.1429C96.3867 56.0258 101.093 60.1251 106.95 59.5635C107.895 59.4734 108.807 59.0453 109.75 58.8772C110.118 58.8113 110.635 58.917 110.908 59.1597C111.35 59.5514 111.123 60.1685 110.458 60.3869C109.257 60.7803 108.033 61.1045 106.83 61.4546V61.4581Z" fill="#262223"/>
<path d="M93.2033 39.1847C93.6716 39.1448 94.1416 39.1015 94.61 39.0651C95.0866 39.0287 95.5566 39.0876 95.6016 39.6995C95.6416 40.2247 95.445 40.6736 94.8533 40.7586C93.7866 40.9111 92.7183 41.0567 91.6516 41.2023C91.2666 41.2543 90.88 41.2924 90.4966 41.3514C89.9916 41.4311 89.6216 41.2803 89.4583 40.7412C89.3116 40.2559 89.4583 39.8988 89.9 39.6735C91.4283 38.8952 92.0883 37.467 92.505 35.8688C93.0433 33.8114 93.645 31.792 94.7816 29.9755C98.9666 23.2814 107.112 21.0142 113.903 24.7703C118.762 27.457 121.17 31.8388 121.497 37.4652C121.578 38.8796 121.3 40.32 121.16 41.7466C121.103 42.3238 120.85 42.7484 120.187 42.6271C119.495 42.5006 119.383 42.0118 119.515 41.3965C120.105 38.6318 120.012 35.907 119.012 33.255C117.102 28.1971 113.442 25.3874 108.34 24.7998C103.21 24.2087 99.16 26.4118 96.3016 30.8092C95.47 32.0884 95.0733 33.6762 94.5083 35.1356C94.0066 36.4356 93.5483 37.753 93.07 39.0616C93.0733 39.1344 93.0766 39.2055 93.08 39.2783C93.1216 39.2471 93.1616 39.2176 93.2033 39.1864V39.1847Z" fill="#252122"/>
<path d="M118.793 92.3391C118.188 92.0375 117.937 91.6076 118.353 90.9801C118.683 90.4827 119.347 90.4497 119.887 90.9229C120.068 91.0824 120.233 91.3043 120.32 91.5331C120.503 92.0149 120.832 92.4587 121.278 92.1848C121.613 91.9803 121.95 91.3441 121.89 90.9697C121.792 90.3561 121.472 89.7061 121.068 89.2364C119.648 87.5863 117.988 86.2568 115.893 85.6449C114.662 85.2861 113.435 85.2619 112.242 85.8356C112.067 85.9205 111.853 86.08 111.707 86.0349C111.347 85.9223 110.862 85.794 110.722 85.5132C110.608 85.2879 110.825 84.6621 111.07 84.5009C112.363 83.6447 113.827 83.5615 115.302 83.7157C116.44 81.4468 118.598 80.7049 121.352 82.154C123.197 83.1247 124.833 84.4177 126.057 86.1771C127.808 88.6991 126.568 92.6996 123.403 93.1659C123.172 93.2005 122.917 93.2803 122.737 93.4259C121.952 94.0568 121.128 94.2561 120.175 93.8679C120.01 93.8003 119.743 93.9459 119.543 94.0377C118.325 94.5941 117.165 94.4936 116.102 93.6651C115.11 92.892 114.7 91.6683 115.025 90.5364C115.118 90.214 115.29 89.9089 115.462 89.6195C115.73 89.1671 116.09 88.836 116.618 89.1948C117.12 89.5363 117.187 90.0303 116.858 90.5433C116.485 91.1292 116.48 91.6752 116.957 92.1848C117.388 92.6459 118.13 92.7048 118.793 92.3391ZM117.065 84.1005C120.03 85.7229 122.882 87.3973 123.76 91.1171C125.163 90.3787 125.692 88.5829 124.733 87.2812C123.348 85.4023 121.525 84.0468 119.383 83.2356C118.262 82.8109 117.633 83.1177 117.067 84.0988L117.065 84.1005Z" fill="#272324"/>
<path d="M110.703 90.4791C109.497 90.9627 109.202 92.0669 108.633 92.9665C108.263 93.5523 107.712 94.1833 107.108 94.4069C105.525 94.9927 103.963 93.8539 103.71 92.0131C103.297 89.0179 105.407 86.099 108.375 85.423C108.917 85.2999 109.408 85.4507 109.515 86.1025C109.618 86.7334 109.252 87.0107 108.685 87.165C106.668 87.7197 105.31 89.4287 105.322 91.3337C105.322 91.4775 105.28 91.6699 105.352 91.7566C105.658 92.1275 105.952 92.6094 106.352 92.7602C106.552 92.8365 107.133 92.3581 107.262 92.0166C107.847 90.4514 108.797 89.2797 110.333 88.7337C111.187 88.4303 112.083 88.231 112.977 88.101C113.228 88.0646 113.732 88.3974 113.772 88.6262C113.832 88.9659 113.65 89.4131 113.448 89.7286C113.127 90.2313 112.64 90.6265 112.345 91.1413C112.12 91.5347 112.258 91.9299 112.805 91.9941C113.368 92.0617 113.547 92.4395 113.475 92.9751C113.397 93.5506 112.992 93.7101 112.512 93.7118C111.428 93.7187 110.503 92.5765 110.585 91.3475C110.602 91.0927 110.652 90.8414 110.703 90.4774V90.4791Z" fill="#262223"/>
<path d="M101.195 37.7304C100.523 36.7129 99.8382 35.7024 99.1849 34.6728C98.8516 34.1476 98.9732 33.6692 99.4916 33.3537C100.027 33.0296 100.355 33.3676 100.667 33.794C101.513 34.9501 102.378 36.0924 103.237 37.2399C103.323 37.304 103.412 37.3681 103.498 37.4323L103.483 37.4219C103.543 37.4825 103.605 37.5415 103.665 37.6021L103.645 37.5952C106.138 39.982 109.138 40.8834 112.458 40.8279C112.79 40.8227 113.118 40.7516 113.45 40.7395C113.932 40.7204 114.368 40.8244 114.392 41.4415C114.413 41.984 114.208 42.3844 113.623 42.4763C111.438 42.8212 109.32 42.53 107.232 41.8193C104.865 41.0151 102.917 39.5591 101.197 37.7304H101.195Z" fill="#252223"/>
<path d="M133.833 103.252C128.832 102.985 125.397 100.879 123.225 96.6498C123.147 96.499 122.998 96.3135 123.032 96.1852C123.138 95.7762 123.21 95.2354 123.49 95.0291C123.875 94.7448 124.293 94.9546 124.547 95.4815C125.233 96.9063 126.088 98.2098 127.322 99.1978C130.058 101.389 133.103 101.914 136.4 100.969C136.983 100.803 137.53 100.647 137.752 101.415C137.965 102.148 137.49 102.482 136.893 102.618C135.74 102.878 134.578 103.1 133.832 103.254L133.833 103.252Z" fill="#262223"/>
<path d="M106.39 56.4001C105.877 56.3897 105.383 56.2632 105.335 55.5369C105.285 54.7795 105.773 54.6165 106.353 54.6044C107.573 54.5767 108.44 54.0047 108.985 52.8641C109.318 52.1639 109.907 51.8883 110.365 52.2159C110.945 52.6301 110.735 53.1675 110.48 53.6701C109.627 55.3567 108.288 56.2788 106.39 56.4019V56.4001Z" fill="#262223"/>
<path d="M105.738 44.5202C105.958 44.3 106.187 43.8806 106.462 43.8459C106.76 43.8078 107.26 44.0418 107.39 44.3087C107.645 44.8287 107.787 45.4492 107.81 46.0351C107.822 46.3384 107.518 46.8775 107.293 46.9191C106.98 46.9763 106.433 46.7614 106.292 46.4892C106.012 45.9536 105.94 45.2984 105.738 44.5202Z" fill="#2E2A2B"/>
<path d="M100.297 50.2783C101.263 50.3494 101.745 50.6978 101.63 51.3079C101.508 51.9597 101.068 52.1434 100.452 52.081C99.4783 51.9822 99.0083 51.6702 99.1133 51.0462C99.2266 50.3702 99.7 50.1986 100.297 50.2783Z" fill="#2E2A2B"/>
<path d="M86.9232 74.3211C89.0866 78.9872 91.2533 83.6499 93.4132 88.3177C94.8649 91.4568 96.3066 94.5993 97.7499 97.7419C97.8416 97.9412 97.9166 98.1492 98.0399 98.4508C97.6233 98.4508 97.2982 98.4508 96.9749 98.4508C84.8949 98.4508 72.8133 98.4491 60.7333 98.4577C60.3283 98.4577 59.9216 98.5687 59.5166 98.6276C59.3799 98.2827 59.2616 97.9291 59.1016 97.5963C55.5416 90.1828 51.9766 82.7711 48.4149 75.3593C48.2733 75.0629 48.1466 74.7579 47.9583 74.3332C48.4399 74.3332 48.7682 74.3332 49.0966 74.3332C61.7066 74.328 74.3166 74.3245 86.9266 74.3193L86.9232 74.3211Z" fill="#D0D2D3"/>
<path d="M59.8284 103.67C59.8251 102.516 59.8234 101.361 59.8201 100.207C60.1801 100.217 60.5417 100.236 60.9017 100.236C73.2617 100.236 85.6201 100.243 97.9801 100.221C98.6784 100.221 99.0951 100.356 99.3517 101.1C99.6567 101.985 100.108 102.817 100.54 103.766C100.242 103.785 100.01 103.811 99.7784 103.811C98.0284 103.814 96.2784 103.811 94.5284 103.812C83.4201 103.838 72.3117 103.87 61.2034 103.885C60.7451 103.885 60.2867 103.745 59.8284 103.67Z" fill="#CBCCCD"/>
<path d="M118.678 100.29C118.542 101.143 118.558 101.988 118.248 102.677C118.03 103.162 117.412 103.642 116.898 103.753C116.048 103.937 115.138 103.826 114.255 103.826C110.563 103.829 106.872 103.815 103.18 103.84C102.64 103.843 102.342 103.72 102.13 103.153C101.772 102.198 101.298 101.29 100.84 100.288H118.68L118.678 100.29Z" fill="#CBCCCD"/>
<path d="M94.025 9.9177C94.0783 14.563 90.5483 17.9274 86.42 18.0384C82.1217 18.1545 78.5333 14.5024 78.5 10.15C78.4667 5.63983 81.9617 1.9513 86.3067 1.91143C90.5183 1.8733 94.01 5.49596 94.0233 9.9177H94.025ZM86.3167 15.6048C89.255 15.6134 91.6733 13.0932 91.6967 10.0009C91.72 6.87223 89.3233 4.33637 86.3167 4.3069C83.3383 4.27743 80.87 6.84797 80.8333 10.0182C80.7983 13.0862 83.2617 15.5978 86.3167 15.6065V15.6048Z" fill="#CFD1D2"/>
<path d="M89.5133 19.2257C89.93 19.0593 90.255 18.9293 90.66 18.7681C91.3233 20.3073 91.9967 21.8083 92.6017 23.3354C92.6967 23.5746 92.4933 23.9421 92.4267 24.2506C92.1117 24.1431 91.7533 24.0981 91.4933 23.9074C91.29 23.7583 91.1783 23.4429 91.0733 23.1811C90.555 21.8915 90.05 20.5967 89.51 19.2239L89.5133 19.2257Z" fill="#CACBCC"/>
<path d="M20.4217 48.0578C19.1434 47.7181 17.8667 47.3749 16.5851 47.0456C16.3451 46.9849 16.0901 46.9762 15.8417 46.9658C15.2684 46.9416 15.0701 46.5394 15.0717 46.0454C15.0751 45.5046 15.3884 45.1978 15.9317 45.2238C18.0001 45.3226 19.9801 45.7958 21.8401 46.7682C23.4634 47.6176 24.8801 48.7408 26.0951 50.15C26.6567 50.8 27.9267 50.7653 28.4967 50.1136C31.0951 47.1444 34.3417 45.5705 38.1701 45.2412C38.3084 45.229 38.4467 45.2256 38.5851 45.2152C39.1351 45.1788 39.4267 45.5046 39.4884 46.016C39.5551 46.5672 39.2367 46.8878 38.7301 46.9676C37.9651 47.0872 37.1934 47.1669 36.4267 47.2778C36.2884 47.2969 36.1584 47.3766 36.0417 47.628C36.2267 47.6366 36.4151 47.673 36.5951 47.6522C37.7501 47.5153 38.9034 47.3714 40.0567 47.2154C41.3001 47.0473 41.5867 47.3021 41.5867 48.6472C41.5901 53.6132 41.5867 58.5792 41.5867 63.5452C41.5867 64.5557 41.5934 65.5662 41.5834 66.5768C41.5767 67.2545 41.3234 67.6896 40.5767 67.6012C38.4501 67.3498 36.4517 67.9548 34.5534 68.8024C32.8601 69.5581 31.2817 70.5912 29.6301 71.4561C29.2317 71.6641 28.7534 71.7577 28.3034 71.7941C27.4217 71.8634 26.5334 71.86 25.6484 71.8773C24.5084 71.8981 23.7451 71.0488 22.8451 70.5288C20.2151 69.0104 17.5134 67.7294 14.4451 67.5561C14.2784 67.5474 14.1117 67.5457 13.9451 67.5492C12.8684 67.5677 12.3301 67.0269 12.3301 65.9268C12.3301 60.153 12.3301 54.3793 12.3301 48.6038C12.3301 47.3194 12.6084 47.0334 13.8034 47.2085C15.9667 47.5257 18.1251 47.8758 20.2851 48.2121C20.4451 48.2572 20.6051 48.3022 20.7634 48.3473C20.7767 48.3092 20.7901 48.2693 20.8034 48.2312C20.6751 48.174 20.5467 48.115 20.4201 48.0578H20.4217ZM26.1867 52.8072C26.1834 57.7333 26.1801 62.6612 26.1767 67.5873C26.1451 67.7277 26.1584 67.9236 26.0751 67.9964C25.7901 68.2425 25.4417 68.6481 25.1701 68.6082C24.8901 68.5666 24.6317 68.1004 24.4434 67.7693C24.3451 67.5977 24.4201 67.3186 24.4201 67.0864C24.4201 62.3232 24.4084 57.5617 24.4334 52.7985C24.4367 52.1728 24.2567 51.8053 23.7301 51.4968C20.7501 49.7444 17.4451 49.3942 14.1417 49.0302C14.1067 49.0268 14.0651 49.0944 14.0401 49.1169V65.646H14.9917C15.4784 65.75 15.9884 65.7898 16.4484 65.9684C18.6917 66.8385 20.9217 67.745 23.1551 68.6394C24.2851 69.4194 25.2934 70.4092 26.8584 70.2012C27.9567 70.0556 27.9751 70.1717 27.9701 68.974C27.9684 68.5146 27.9467 68.057 27.9351 67.5977C27.9384 63.2002 27.9417 58.8028 27.9434 54.4053C27.9751 53.8316 28.1567 53.3757 28.8017 53.3653C29.4584 53.3549 29.6201 53.8333 29.6751 54.3932V69.3137C32.5234 67.5162 35.4817 66.2925 38.6867 65.7708C39.0617 65.7326 39.4367 65.6945 39.8017 65.6564V48.954C38.4534 49.162 37.1617 49.311 35.8884 49.5676C33.7201 50.0026 31.5851 50.5261 29.6684 51.7845C29.1067 52.1537 28.3484 52.23 27.6651 52.3634C27.2934 52.4362 26.8884 52.3028 26.5084 52.3478C26.3851 52.3617 26.2917 52.6477 26.1834 52.8089L26.1867 52.8072ZM34.9801 47.7354C35.0084 47.7996 35.0367 47.8637 35.0651 47.9261C35.2167 47.8585 35.3701 47.7892 35.5217 47.7216C35.5051 47.6713 35.4867 47.621 35.4701 47.5708C35.3067 47.6262 35.1434 47.6817 34.9801 47.7354Z" fill="#282526"/>
<path d="M34.3084 35.2468H36.8018V34.2658C36.8018 31.0019 36.8018 27.7363 36.8018 24.4724C36.8018 22.9506 36.9268 22.8188 38.3468 22.8188C39.6518 22.8188 40.9584 22.8171 42.2634 22.8188C43.3434 22.8223 43.5284 23.0112 43.5301 24.124C43.5334 27.504 43.5301 30.884 43.5301 34.264C43.5301 34.5743 43.5301 34.8828 43.5301 35.2451H46.0751V34.1999C46.0751 28.8838 46.0751 23.5694 46.0751 18.2532C46.0751 16.87 46.2401 16.695 47.5418 16.6915C48.8468 16.6898 50.1534 16.6846 51.4584 16.6915C52.5768 16.7002 52.8301 16.9671 52.8318 18.125C52.8334 23.4983 52.8318 28.8716 52.8318 34.245C52.8318 34.5604 52.8318 34.8776 52.8318 35.2971C53.5234 35.2971 54.1768 35.3231 54.8284 35.2902C55.4434 35.259 55.9301 35.4496 55.9384 36.136C55.9468 36.8779 55.4184 37.0443 54.7851 37.0426C52.1468 37.0339 49.5068 37.053 46.8684 37.0512C39.8968 37.0495 32.9251 37.0426 25.9534 37.0356C25.7034 37.0356 25.3884 37.124 25.2184 37.001C24.9201 36.7843 24.5168 36.4324 24.5218 36.1447C24.5268 35.8604 24.9518 35.3907 25.2468 35.3404C25.9484 35.2208 26.6834 35.3023 27.5201 35.3023C27.5201 33.9191 27.5201 32.5758 27.5201 31.2324C27.5201 29.8198 27.7184 29.61 29.0401 29.6083C30.3451 29.6083 31.6518 29.6048 32.9568 29.6083C34.0718 29.6118 34.3018 29.8614 34.3034 31.047C34.3034 32.4302 34.3034 33.8134 34.3034 35.2434L34.3084 35.2468ZM51.0968 18.5427H47.8268V35.2382H51.0968V18.5427ZM38.5534 24.6042V35.2434H41.7868V24.6042H38.5534ZM32.6084 31.411H29.3084V35.2486H32.6084V31.411Z" fill="#282527"/>
<path d="M62.2318 55.4662C63.2534 54.5215 64.4001 54.336 65.6751 54.6394C65.9084 54.6948 66.2868 54.5908 66.4401 54.414C67.4818 53.2198 68.4801 51.9874 69.5318 50.7186C68.8818 49.7947 68.6118 48.779 68.8284 47.6436C69.2018 45.6746 70.9101 44.456 72.8318 44.8079C74.7768 45.165 75.9784 46.9694 75.6268 49.0008C75.2801 50.9994 73.5801 52.3011 71.6918 51.899C71.0668 51.7655 70.7301 51.9198 70.3734 52.3947C69.9134 53.0066 69.3968 53.5716 68.9051 54.1575C68.4334 54.7208 67.9634 55.2859 67.4701 55.877C68.0618 56.9395 68.2918 58.0662 67.9168 59.2656C67.3468 61.0822 65.6418 62.065 63.8351 61.6282C62.0918 61.207 60.8534 59.4303 61.2301 57.6172C61.4201 56.702 60.7751 56.5859 60.4034 56.1647C59.9951 55.7019 59.7284 56.1335 59.4134 56.3086C58.1251 57.0244 56.8618 56.943 55.5918 56.1179C54.3668 57.3243 53.1251 58.5116 51.9401 59.7562C51.7601 59.9451 51.7534 60.4183 51.8118 60.7303C52.1918 62.7722 50.9134 64.7846 48.9884 65.1139C46.9984 65.4554 45.1618 63.9734 44.9468 61.8535C44.6601 59.0282 47.3601 57.0678 49.9151 58.2898C50.4684 58.555 50.7584 58.4891 51.1651 58.0592C52.0568 57.1128 52.9968 56.2132 53.9484 55.3292C54.3468 54.96 54.4201 54.6324 54.2818 54.076C53.9084 52.5784 54.3168 51.2386 55.4851 50.2939C56.6634 49.3406 58.0151 49.3128 59.3251 50.0304C60.6101 50.7359 61.2268 51.97 61.0351 53.4035C60.9118 54.3239 61.2218 54.7312 61.8518 55.1247C61.9684 55.1975 62.0618 55.3102 62.2334 55.4644L62.2318 55.4662ZM50.1668 61.4808C50.1534 60.4339 49.3118 59.6088 48.2801 59.6314C47.3284 59.6522 46.5751 60.5362 46.6034 61.6022C46.6301 62.6196 47.4401 63.3979 48.4618 63.384C49.4901 63.3702 50.1818 62.5988 50.1668 61.4808ZM66.4068 58.1476C66.3984 57.0366 65.6351 56.2306 64.5968 56.2392C63.5668 56.2496 62.8118 57.0886 62.8351 58.1962C62.8551 59.1668 63.6418 59.933 64.6268 59.9468C65.6884 59.9607 66.4134 59.2275 66.4051 58.1476H66.4068ZM74.0001 48.4254C74.0184 47.3351 73.1851 46.4563 72.1368 46.4598C71.2184 46.4615 70.4584 47.29 70.4351 48.3127C70.4101 49.3666 71.2184 50.2038 72.2668 50.2107C73.2584 50.2176 73.9851 49.4706 74.0018 48.4254H74.0001ZM59.3818 53.2024C59.3834 52.0948 58.6201 51.3062 57.5484 51.3096C56.5534 51.3114 55.8318 52.1191 55.8334 53.2267C55.8351 54.2528 56.5501 54.9756 57.5851 54.9982C58.6618 55.0207 59.3785 54.3031 59.3801 53.2024H59.3818Z" fill="#292626"/>
<path d="M86.3167 15.6045C83.2617 15.5959 80.7984 13.0843 80.8334 10.0163C80.87 6.84601 83.3384 4.27547 86.3167 4.30494C89.3234 4.3344 91.72 6.87201 91.6967 9.99894C91.6734 13.0912 89.255 15.6115 86.3167 15.6028V15.6045ZM86.315 13.8365C88.375 13.814 90.035 12.0616 90.0217 9.92094C90.01 7.79414 88.2934 6.04867 86.2367 6.07121C84.205 6.09374 82.5267 7.88254 82.53 10.0215C82.5334 12.1691 84.21 13.8591 86.315 13.8365Z" fill="#282527"/>
<path d="M38.6884 65.7706C35.4834 66.2941 32.5251 67.5161 29.6768 69.3135V54.393C32.2951 52.2454 35.2568 50.9506 38.6884 50.4531V65.7689V65.7706Z" fill="#88C2EA"/>
<path d="M23.1584 68.641C20.9234 67.7466 18.6951 66.84 16.4517 65.9699C15.9917 65.7914 15.4817 65.7515 14.9934 65.6475C14.9934 60.4718 14.9934 55.296 14.9934 50.1307C17.2567 49.9712 20.8617 50.8639 22.5517 52.2159C22.9667 52.5487 23.1767 52.852 23.1734 53.4119C23.1534 58.4888 23.1601 63.564 23.1584 68.641Z" fill="#88C2E9"/>
<path d="M23.1584 68.6411C23.1584 63.5641 23.1534 58.4889 23.1734 53.412C23.1751 52.8521 22.9667 52.5488 22.5517 52.216C20.8634 50.864 17.2567 49.9713 14.9934 50.1308C14.9934 55.2944 14.9934 60.4701 14.9934 65.6476H14.0417V49.1185C14.0651 49.0977 14.1084 49.0284 14.1434 49.0319C17.4484 49.3959 20.7534 49.7477 23.7317 51.4984C24.2568 51.8069 24.4384 52.1744 24.4351 52.8001C24.4101 57.5633 24.4217 62.3248 24.4217 67.088C24.4217 67.3185 24.3467 67.5976 24.4451 67.7709C24.6318 68.102 24.8917 68.5683 25.1717 68.6099C25.4434 68.6497 25.7917 68.2441 26.0767 67.998C26.1617 67.9252 26.1484 67.7276 26.1801 67.5889C26.7667 67.5924 27.3534 67.5959 27.9401 67.6011C27.9517 68.0604 27.9734 68.518 27.9751 68.9773C27.9801 70.1751 27.9617 70.0589 26.8634 70.2045C25.3001 70.4125 24.2901 69.4228 23.1601 68.6428L23.1584 68.6411Z" fill="#F5F5F6"/>
<path d="M26.1866 52.8071C26.7732 53.3393 27.3599 53.8714 27.9466 54.4053C27.9432 58.8027 27.9399 63.2002 27.9382 67.5994C27.3516 67.5959 26.7649 67.5925 26.1782 67.5873C26.1816 62.6611 26.1849 57.735 26.1882 52.8071H26.1866Z" fill="#87BFE5"/>
<path d="M51.0967 18.5425V35.2379H47.8267V18.5425H51.0967Z" fill="#87C0E7"/>
<path d="M38.5532 24.604H41.7866V35.2432H38.5532V24.604Z" fill="#88C1E9"/>
<path d="M32.6083 31.4106V35.2482H29.3083V31.4106H32.6083Z" fill="#83B9DF"/>
<path d="M50.1666 61.4808C50.1816 62.5988 49.4883 63.3701 48.4616 63.384C47.44 63.3978 46.63 62.6196 46.6033 61.6021C46.575 60.5361 47.3283 59.6521 48.28 59.6313C49.3133 59.6088 50.1533 60.4338 50.1666 61.4808Z" fill="#CACBCC"/>
<path d="M66.4067 58.1473C66.4134 59.2271 65.69 59.9586 64.6284 59.9465C63.6434 59.9343 62.8567 59.1665 62.8367 58.1958C62.8134 57.0882 63.5684 56.2493 64.5984 56.2389C65.6367 56.2285 66.4 57.0362 66.4084 58.1473H66.4067Z" fill="#CBCCCD"/>
<path d="M74.0001 48.4251C73.9834 49.4703 73.2568 50.2173 72.2651 50.2104C71.2168 50.2035 70.4084 49.3645 70.4334 48.3124C70.4584 47.288 71.2184 46.4612 72.1351 46.4595C73.1834 46.4577 74.0168 47.3348 73.9984 48.4251H74.0001Z" fill="#CACBCC"/>
<path d="M59.3816 53.2024C59.38 54.303 58.6616 55.0206 57.5866 54.9981C56.5516 54.9773 55.8366 54.2545 55.835 53.2266C55.8333 52.119 56.555 51.3113 57.55 51.3096C58.6216 51.3078 59.385 52.0948 59.3833 53.2024H59.3816Z" fill="#CACBCC"/>
<path d="M86.315 13.8364C84.21 13.8589 82.5334 12.1689 82.53 10.0213C82.5267 7.88235 84.205 6.09355 86.2367 6.07102C88.2934 6.04848 90.0084 7.79395 90.0217 9.92075C90.0334 12.0614 88.375 13.8138 86.315 13.8364Z" fill="#88C1E9"/>
</svg>
