<svg width="153" height="140" viewBox="0 0 153 140" fill="none" xmlns="http://www.w3.org/2000/svg">
<path d="M114.333 65.3254C114.623 65.1743 114.911 65.0233 115.201 64.8706C115.83 65.3331 116.267 65.1342 116.711 64.5299C117.14 63.9441 117.693 63.4523 118.19 62.9189C118.252 62.9713 118.312 63.0222 118.374 63.0746C118.374 63.4816 118.385 63.8901 118.373 64.2971C118.243 68.8235 118.593 73.319 119.202 77.7975C119.335 78.7718 119.512 78.8859 120.429 78.6578L120.5 79.2667C120.335 79.5504 120.083 79.8186 120.032 80.1223C119.982 80.4183 120.038 80.887 120.227 81.0288C120.43 81.1815 120.862 81.1013 121.159 81.0073C121.337 80.9502 121.462 80.682 121.587 80.4923C123.029 78.3263 124.463 76.1541 125.904 73.9865C129.753 68.1975 133.605 62.4101 137.459 56.6258C137.734 56.2142 138.025 55.8226 137.681 55.3108C137.903 55.1735 138.123 55.0363 138.366 54.8853C138.862 55.6592 139.358 56.4362 139.856 57.2116C139.411 57.6541 139.554 58.0873 139.797 58.593C141.532 62.1958 143.352 65.7617 144.928 69.437C146.907 74.0528 148.253 78.8967 149.303 83.8208C150.426 89.0902 151.063 94.4198 151.233 99.8094C151.251 100.369 151.441 100.75 152.018 100.849C151.889 102.379 151.693 103.893 150.769 105.184C150.025 106.221 148.998 106.713 147.763 106.795C146.345 105.157 144.743 103.781 142.766 102.877C140.747 101.955 138.654 101.491 136.446 101.559C135.933 101.575 135.569 101.787 135.556 102.367C135.542 102.939 135.903 103.101 136.387 103.11C136.458 103.11 136.526 103.158 136.596 103.183C136.604 103.261 136.613 103.34 136.621 103.418C135.972 103.365 135.322 103.323 134.675 103.252C132.364 102.998 130.221 104.368 127.898 103.972C127.827 103.96 127.747 104.004 127.675 103.995C127.062 103.909 126.75 104.262 126.551 104.786C126.322 104.792 126.092 104.798 125.863 104.804C125.602 104.148 125.091 104.037 124.506 104.209C123.617 104.471 122.694 104.681 121.871 105.09C120.626 105.708 119.356 106.36 118.683 107.727C115.524 107.673 112.365 107.627 109.205 107.562C107.452 107.527 105.698 107.475 103.947 107.408C102.573 107.356 101.199 107.271 99.7569 107.197C99.5804 106.081 99.3934 104.932 99.2199 103.782C98.8821 101.539 98.5502 99.296 98.2214 97.0514C97.8443 94.4783 97.4763 91.9053 97.0992 89.3338C96.8006 87.2911 96.523 85.2438 96.1595 83.2134C96.1082 82.9282 95.6542 82.6106 95.3254 82.5058C93.4626 81.9122 91.6013 81.2878 89.6993 80.8577C88.3343 80.5494 88.0809 79.5195 87.7491 78.4527C88.1804 78.1521 88.1714 77.7651 88.0055 77.3073C87.2709 75.2815 86.5545 73.2496 85.8425 71.2531C86.8365 70.7367 87.82 70.2433 88.7823 69.7176C89.3479 69.4078 89.8502 68.9514 90.4414 68.7263C91.1458 68.4581 91.7597 67.4899 91.5486 66.7129C91.9649 66.5063 92.3812 66.3013 92.7975 66.0947C92.894 66.272 92.9996 66.4462 93.0871 66.6281C95.4732 71.5476 97.8504 76.4732 100.253 81.385C100.647 82.1882 101.151 82.9359 101.635 83.7638C101.41 84.274 101.143 84.9092 100.852 85.5321C100.605 86.0578 100.781 86.454 101.234 86.6898C101.743 86.9566 102.018 86.5943 102.225 86.1703C102.793 85.0017 103.356 83.83 103.935 82.6661C106.783 76.9388 110.166 71.5553 113.958 66.4354C114.177 66.1394 114.208 65.6985 114.327 65.3254H114.333ZM138.542 68.4165C138.207 68.3933 137.937 68.3825 137.669 68.3563C136.596 68.2469 135.527 68.102 134.453 68.0388C134.153 68.0203 133.7 68.1482 133.568 68.3671C133.426 68.603 133.527 69.0393 133.614 69.3615C133.699 69.676 133.964 69.9412 134.04 70.2541C134.254 71.156 134.59 72.0795 134.547 72.9783C134.486 74.2023 133.443 74.799 132.494 75.3355C129.188 77.207 125.869 79.0555 122.557 80.9178C122.098 81.1753 121.65 81.479 122.008 82.1173C122.344 82.7185 122.827 82.572 123.302 82.31C123.653 82.1157 124 81.9091 124.349 81.7087C127.578 79.8525 130.829 78.0349 134.026 76.1263C135.939 74.984 136.55 73.1494 135.921 70.9725C135.809 70.5887 135.688 70.2079 135.542 69.7253C136.661 69.8394 137.704 69.9412 138.743 70.0537C139.87 70.1755 140.135 69.9335 140.093 68.7572C140.054 67.6811 140.064 66.5973 139.925 65.5335C139.628 63.255 139.265 60.9856 138.886 58.7209C138.841 58.4527 138.571 58.1135 138.33 58.0256C138.127 57.9516 137.704 58.1212 137.578 58.317C137.426 58.5544 137.4 58.9522 137.464 59.2466C138.109 62.2298 138.474 65.2437 138.542 68.4165ZM124.085 101.189C123.503 97.0298 122.937 92.8688 122.329 88.714C122.125 87.3219 121.846 85.9375 121.522 84.5701C121.46 84.3126 120.937 83.9303 120.766 83.9935C120.474 84.1029 120.269 84.5053 120.074 84.8152C120.012 84.9154 120.086 85.1143 120.116 85.2638C121.198 90.5641 121.935 95.9167 122.433 101.305C122.489 101.911 122.667 102.393 123.356 102.356C124.121 102.315 123.99 101.718 124.085 101.189ZM119.386 80.5124C119.275 80.167 119.217 79.9743 119.151 79.7847C118.472 77.8083 117.769 75.8396 117.122 73.8524C116.72 72.616 116.413 71.3456 116.039 70.0984C115.813 69.3461 115.199 69.1195 114.759 69.656C114.579 69.8749 114.533 70.3389 114.619 70.6318C115.347 73.1309 116.104 75.6207 116.89 78.1012C117.159 78.9507 117.486 79.7909 117.892 80.5787C118.017 80.8223 118.481 80.9733 118.8 80.9872C118.996 80.9965 119.207 80.6681 119.385 80.5124H119.386Z" fill="#D0D2D3"/>
<path d="M61.946 116.026C61.7439 115.906 61.5553 115.744 61.3382 115.673C55.6367 113.822 49.9367 111.966 44.2216 110.156C43.4976 109.926 43.2306 109.528 43.125 108.819C42.1175 102.047 41.0978 95.2772 40.0676 88.5077C39.3994 84.114 38.7011 79.7248 38.0284 75.3311C37.6377 72.7796 37.2591 70.2266 36.9077 67.6705C36.7704 66.6777 37.1973 66.3524 38.1551 66.65C44.6696 68.6803 51.184 70.7169 57.7031 72.7303C57.9323 72.8012 58.329 72.7596 58.4693 72.6023C59.6111 71.3243 61.0169 71.1825 62.5358 71.571C63.1587 71.7313 63.7454 72.0396 64.3593 72.2431C64.8209 72.3957 64.9974 72.6995 64.9627 73.1697C64.5977 73.7154 64.1587 73.8141 63.5433 73.5551C62.9053 73.2868 62.225 73.1065 61.5478 72.9585C60.9641 72.832 60.3879 72.9076 59.8419 73.4302C61.8691 74.0361 63.8028 74.6142 65.7365 75.1923C69.2524 76.3054 72.7638 77.4293 76.2827 78.5285C82.034 80.3261 87.7868 82.1129 93.5441 83.8889C94.066 84.0492 94.3405 84.3236 94.425 84.8832C95.0026 88.6989 95.603 92.5099 96.1912 96.324C96.7252 99.785 97.2531 103.246 97.781 106.707C98.4628 111.179 99.1415 115.652 99.8263 120.123C100.151 122.246 100.485 124.365 100.814 126.487C100.834 126.613 100.855 126.74 100.872 126.866C101.013 128.044 100.66 128.361 99.5608 128.007C97.8896 127.467 96.2244 126.906 94.5562 126.356C92.1504 125.562 89.7355 124.794 87.3433 123.957C86.7596 123.752 86.3765 123.883 85.9285 124.228C84.2165 125.551 82.4699 126.829 80.7655 128.161C80.3507 128.486 80.0158 128.5 79.6161 128.226C79.313 127.615 79.4834 127.163 80.0249 126.784C80.684 126.322 81.3175 125.819 81.9586 125.33C82.8832 124.626 83.8048 123.92 84.8199 123.143C81.3025 121.985 77.9298 120.875 74.4531 119.73C74.5406 120.115 74.5753 120.417 74.6778 120.692C75.0429 121.671 75.4245 122.643 75.8136 123.613C76.1108 124.35 75.9147 124.882 75.2827 124.984C74.7156 125.074 74.5692 124.606 74.3792 124.234C74.168 123.82 74.0051 123.38 73.8211 122.952C73.8513 124.091 74.07 125.138 74.1695 126.195C74.2389 126.928 74.5044 127.318 75.2269 127.487C76.0534 127.681 76.8664 127.961 77.6538 128.283C77.9917 128.42 78.2511 128.758 78.5467 129.003C78.3009 129.943 78.1214 130.046 77.2269 129.755C76.5889 129.547 75.9509 129.342 75.2389 129.111C75.2389 131.309 75.2389 133.43 75.2389 135.553C75.2389 136.426 75.2284 137.298 75.242 138.171C75.251 138.768 75.245 139.364 74.4712 139.394C73.711 139.421 73.708 138.815 73.6823 138.265C73.8166 135.135 73.708 132.023 73.0986 128.939C73.0172 128.531 72.8678 128.293 72.4259 128.175C71.3867 127.896 70.37 127.532 69.3429 127.202C67.9658 126.744 66.5871 126.286 65.0894 125.788C65.2251 126.8 65.3202 127.705 65.474 128.597C65.5796 129.208 65.3382 129.555 64.7892 129.666C64.2115 129.781 64.0652 129.343 63.9898 128.889C63.8194 127.856 63.6233 126.824 63.5162 125.785C63.4694 125.33 63.2613 125.186 62.8963 125.076C62.2235 124.873 61.5372 124.694 60.9022 124.402C60.584 124.256 60.3623 123.887 60.0983 123.619C60.2416 122.862 60.6549 122.679 61.3517 122.942C61.9158 123.157 62.5071 123.295 63.1647 123.493C62.9958 122.389 62.8555 121.41 62.6941 120.436C62.4513 118.963 62.1949 117.494 61.9445 116.023L61.946 116.026ZM66.5947 90.4903L66.7847 90.6013C66.8964 90.535 67.0985 90.4749 67.1015 90.404C67.1136 90.1511 67.0532 89.8967 67.0276 89.6408C66.9718 89.0874 67.2493 88.7436 67.744 88.631C68.2765 88.5108 68.5088 88.8977 68.4967 89.3433C68.4514 91.0252 69.2599 91.958 70.821 92.3387C71.2464 92.442 71.5103 92.8028 71.3173 93.2838C71.1121 93.7941 70.7019 93.9344 70.2026 93.7525C69.8813 93.6353 69.5721 93.4842 69.1272 93.293C70.1875 100.183 71.2268 106.945 72.2675 113.708C72.3927 111.619 72.3867 109.541 72.3942 107.463C72.4078 103.496 72.2163 99.5661 70.6023 95.8615C70.3323 95.2402 70.5224 94.6451 71.0232 94.511C71.6476 94.3429 71.8211 94.8255 72.0187 95.2972C73.7728 99.4875 73.8603 103.909 73.8452 108.363C73.8347 111.334 73.975 114.304 74.0202 117.277C74.0293 117.859 74.3158 118.054 74.797 118.211C81.5966 120.44 88.3916 122.685 95.1867 124.925C96.508 125.36 97.8308 125.79 99.2094 126.242C99.1958 125.995 99.2003 125.841 99.1762 125.693C98.7463 122.966 98.3014 120.241 97.8836 117.514C97.0479 112.054 96.2365 106.59 95.3978 101.129C94.6225 96.0742 93.8171 91.0237 93.0584 85.967C92.983 85.4675 92.7899 85.2964 92.3555 85.1607C83.0747 82.2794 73.7985 79.3826 64.5192 76.4935C64.3246 76.4334 64.115 76.4241 63.8661 76.3825C63.9068 76.6245 63.9204 76.7525 63.9491 76.8774C64.7349 80.2952 65.5192 83.7147 66.3096 87.1325C66.4288 87.649 66.5193 88.1485 66.023 88.5278C65.1693 88.8145 64.9778 88.2194 64.8314 87.5827C64.0064 83.9968 63.1346 80.4217 62.3985 76.8172C62.2175 75.9308 61.8781 75.5377 61.0697 75.4498C60.5372 75.2879 60.0048 75.126 59.4723 74.9642C59.412 74.9688 59.3517 74.9734 59.2913 74.978C59.3155 75.0135 59.3396 75.0474 59.3652 75.0829C59.4241 75.4837 59.4437 75.8969 59.5462 76.2854C60.4196 79.5737 61.308 82.859 62.1919 86.1443C62.3337 86.6685 62.4136 87.1988 61.7575 87.3977C61.0516 87.612 60.8449 87.1048 60.6971 86.5375C60.2491 84.8031 59.777 83.0749 59.3396 81.3374C58.8223 79.2824 58.2958 77.2289 57.8569 75.1569C57.7438 74.6188 57.6367 74.3413 57.0801 74.1702C51.5822 72.4821 46.0964 70.7554 40.6061 69.0426C39.9515 68.8391 39.2893 68.6603 38.5925 68.4599C38.5925 68.6665 38.5789 68.7682 38.594 68.8669C39.2743 73.3408 39.9605 77.8147 40.6408 82.2886C41.3603 87.0154 42.0767 91.7437 42.7932 96.472C43.3724 100.291 43.9591 104.108 44.5202 107.928C44.5957 108.443 44.7857 108.717 45.294 108.879C49.9623 110.359 54.623 111.869 59.2853 113.366C60.0591 113.614 60.8374 113.847 61.682 114.107C61.6624 113.853 61.6609 113.702 61.6383 113.554C61.1285 110.191 60.6232 106.829 60.1028 103.468C59.237 97.8595 58.3637 92.2509 57.4859 86.6423C57.3923 86.041 57.6533 85.6788 58.1812 85.5616C58.7393 85.4367 58.9052 85.819 58.9761 86.3216C59.2144 87.9928 59.4784 89.6609 59.7363 91.329C60.4754 96.1035 61.222 100.878 61.9566 105.654C62.8736 111.619 63.7771 117.585 64.7093 123.547C64.747 123.786 64.9928 124.106 65.21 124.18C67.1347 124.837 69.0744 125.448 71.0096 126.07C71.5405 126.251 72.0714 126.431 72.6522 126.629C72.6522 126.422 72.6657 126.32 72.6506 126.222C72.2283 123.473 71.806 120.725 71.3806 117.978C70.8603 114.624 70.3339 111.27 69.818 107.916C69.0548 102.949 68.3021 97.9782 67.5238 93.014C67.4891 92.7966 67.2689 92.5422 67.0683 92.4343C66.7003 92.2339 66.2825 92.1291 65.8858 91.9842C64.305 91.4477 62.7228 90.9096 61.1421 90.3747C60.6262 90.2005 60.0772 90.0077 60.2627 89.294C60.4558 88.5524 61.0244 88.7097 61.5493 88.8561C62.3412 89.0766 63.1331 89.3001 63.9265 89.5221C64.8149 89.8567 65.7033 90.1912 66.5902 90.5257V90.4934L66.5947 90.4903Z" fill="#252122"/>
<path d="M110.07 36.0695C109.872 34.8516 109.536 33.6383 109.504 32.4158C109.445 30.0694 110.362 28.059 111.922 26.3447C112.094 26.1551 112.195 25.8976 112.327 25.671V25.6987C112.433 25.6217 112.539 25.5446 112.643 25.469C112.827 25.3457 112.997 25.1915 113.196 25.1052C115.469 24.1247 117.836 23.4942 120.29 23.2567C123.071 22.987 125.74 23.3184 128.156 24.9202C131.74 27.2944 133.856 32.0566 132.651 36.8095C132.209 37.0685 131.767 37.3275 131.326 37.5865C130.767 36.9359 130.206 36.2869 129.646 35.6363C130.269 34.662 130.034 32.829 129.123 31.7174C128.741 32.0412 128.369 32.3803 127.973 32.6856C126.841 33.5582 125.699 34.4184 124.56 35.2833L124.571 35.2725L124.277 35.3804C121.991 35.9369 119.714 35.9616 117.451 35.2555C117.328 35.2108 117.204 35.1661 117.082 35.1214L117.076 35.1461C117.008 35.0443 116.96 34.9148 116.868 34.8439C115.976 34.1517 115.115 33.4071 114.165 32.8135C113.693 32.5175 113.044 32.3695 112.487 32.3988C111.7 32.4404 111.412 32.997 111.569 33.8094C111.857 35.2972 112.617 35.8445 114.201 35.7011C114.982 36.0356 115.765 36.3686 116.617 36.7325C114.279 37.7099 111.934 37.5264 110.232 36.2854C110.177 36.2052 110.121 36.125 110.065 36.0449L110.071 36.0695H110.07Z" fill="#88C2E9"/>
<path d="M33.9544 58.7075C33.9378 62.9316 32.6723 66.6224 30.1202 69.8383C29.8276 70.2068 29.9 70.438 30.1096 70.7726C31.2258 72.564 32.3209 74.3708 33.44 76.1607C33.6723 76.5322 33.9212 76.9562 33.5185 77.2383C33.2259 77.4433 32.6829 77.525 32.3571 77.3925C31.176 76.9115 30.0342 76.3272 28.8864 75.7614C27.8728 75.2619 26.8622 74.7531 25.8697 74.2105C25.5017 74.0101 25.2226 74.0193 24.8395 74.1966C18.7172 77.0425 12.8076 76.671 7.278 72.7027C0.549325 67.8742 -1.50804 57.8703 2.59764 50.6045C5.18896 46.0196 9.02917 43.1366 14.0776 42.1315C19.1742 41.1171 23.8063 42.3843 27.8607 45.7359C31.3389 48.6111 33.259 52.3712 33.8563 56.8667C33.9408 57.5003 33.9257 58.1463 33.9529 58.7059L33.9544 58.7075ZM30.5471 74.784C30.6029 74.8055 30.6587 74.8287 30.7145 74.8503C30.7024 74.787 30.6919 74.7254 30.6798 74.6622C29.9754 73.5121 29.268 72.3651 28.5666 71.2135C27.9316 70.1728 27.918 70.0403 28.6903 69.1399C30.8261 66.6532 32.0192 63.7456 32.2967 60.4773C32.7719 54.8672 30.9196 50.1666 26.5862 46.6748C20.0415 41.4007 10.4048 42.6341 5.29002 49.2756C-0.060042 56.2238 1.27031 66.2493 8.24183 71.4678C9.78334 72.621 11.4697 73.4843 13.3264 73.9746C13.708 74.0748 13.708 74.0717 13.8875 73.805H13.9584C13.9901 74.1565 14.0233 74.1858 14.5919 74.2737C18.0505 74.8133 21.3553 74.4078 24.4308 72.5979C25.022 72.251 25.5816 72.2618 26.2015 72.5902C27.6345 73.3518 29.096 74.0563 30.5456 74.7824L30.5471 74.784Z" fill="#282425"/>
<path d="M33.1971 96.3655C34.7507 96.2653 36.2274 96.1713 37.704 96.0757C37.9288 96.0618 38.1761 95.9755 38.3737 96.0418C38.6693 96.142 39.1384 96.3224 39.1611 96.5166C39.2003 96.8435 39.0494 97.3507 38.8036 97.5295C37.3752 98.5655 35.9061 99.5491 34.4249 100.505C33.9347 100.821 33.7537 101.159 33.7115 101.775C33.363 106.948 31.1428 111.175 27.1366 114.295C22.0611 118.25 16.4003 118.976 10.5329 116.504C5.07123 114.203 1.66993 109.941 0.571868 103.967C-0.529215 97.9827 1.04548 92.7426 5.31105 88.4645C8.33978 85.429 12.0473 83.7732 16.3008 83.6668C23.4397 83.4895 28.5907 86.8504 31.9859 93.1758C32.2499 93.6676 32.4656 94.1902 32.6632 94.7144C32.8608 95.234 33.0086 95.7735 33.1971 96.364V96.3655ZM35.5365 97.8949C34.6858 97.8949 33.983 97.8625 33.2861 97.9026C32.1126 97.9689 31.9754 97.8995 31.6571 96.7617C30.2875 91.8777 27.3041 88.4229 22.7579 86.4203C15.5345 83.2367 7.23418 86.2522 3.47843 93.5875C-0.0178908 100.416 1.82077 108.398 7.80734 113.116C13.8135 117.849 22.0852 117.237 27.5756 111.867C30.4203 109.084 31.9648 105.626 32.1503 101.593C32.2001 100.499 32.5817 99.768 33.5289 99.2577C34.2032 98.8954 34.8065 98.3975 35.538 97.8949H35.5365Z" fill="#282425"/>
<path d="M98.9077 65.6445C98.781 65.4796 98.594 65.3346 98.5352 65.1466C97.7373 62.6383 96.9559 60.1254 96.1791 57.6109C96.1052 57.3719 96.0947 57.1129 96.054 56.8632C96.1535 56.4254 96.342 55.9875 96.342 55.5497C96.3571 39.1248 96.3541 22.6983 96.3556 6.2734C96.3556 5.96661 96.3798 5.65982 96.3918 5.35303C96.8428 5.59969 97.2953 5.84482 97.7448 6.09457C98.1551 6.32119 98.5638 6.55244 98.9726 6.78215C98.9726 7.37261 98.9726 7.96307 98.9726 8.55353C98.9726 27.2524 98.9726 45.9528 98.9696 64.6517C98.9696 64.9816 98.9303 65.3131 98.9092 65.643L98.9077 65.6445Z" fill="#D0D2D3"/>
<path d="M98.9077 65.6449C98.9288 65.315 98.9681 64.9835 98.9681 64.6536C98.9711 45.9547 98.9711 27.2543 98.9711 8.55542C98.9711 7.96496 98.9711 7.3745 98.9711 6.78405C99.0435 6.28917 99.2999 5.95 99.8112 6.01475C100.348 6.08259 100.55 6.48188 100.516 7.01684C100.508 7.1448 100.516 7.2743 100.516 7.40225C100.516 28.0298 100.516 48.6557 100.516 69.2832C100.516 69.4883 100.523 69.6948 100.513 69.8999C100.485 70.3763 100.353 70.7694 99.7795 70.7647C99.2079 70.7601 98.9831 70.4287 98.9786 69.8814C98.9711 68.648 98.9605 67.4163 98.9469 66.1829C98.9454 66.0041 98.9213 65.8253 98.9077 65.6464V65.6449Z" fill="#353132"/>
<path d="M45.5249 55.6255C45.5279 54.534 45.5309 53.444 45.5355 52.3525C45.9231 52.4527 46.3138 52.536 46.6954 52.6547C53.9957 54.9225 61.296 57.1887 68.5918 59.4658C71.3642 60.3307 74.1289 61.2218 76.8967 62.1005C76.8877 63.1951 76.8771 64.2881 76.8681 65.3827C76.6494 65.3303 76.4261 65.2917 76.2104 65.2255C68.9176 62.9731 61.6218 60.7269 54.3336 58.4575C51.3893 57.5403 48.4601 56.5705 45.5249 55.6255Z" fill="#D0D2D3"/>
<path d="M114.334 65.3255C114.214 65.6986 114.183 66.1395 113.964 66.4355C110.172 71.5554 106.789 76.9374 103.941 82.6662C103.362 83.8302 102.799 85.0018 102.231 86.1704C102.024 86.5959 101.75 86.9567 101.24 86.69C100.787 86.4541 100.612 86.0579 100.858 85.5322C101.149 84.9093 101.416 84.2757 101.641 83.7639C101.157 82.936 100.651 82.1883 100.259 81.3851C97.8565 76.4733 95.4809 71.5477 93.0932 66.6282C93.0042 66.4463 92.9001 66.2721 92.8036 66.0948C92.6995 65.8081 92.606 65.5182 92.4899 65.2361C92.2878 64.7459 92.0736 64.2602 91.8775 63.8055C90.9649 64.5593 90.1414 65.3764 89.1927 65.9869C88.3178 66.5496 87.3178 66.9135 86.3555 67.322C85.9075 67.5116 85.446 67.4916 85.2438 66.9088C85.0281 66.286 85.3992 65.9669 85.8969 65.8343C87.7266 65.3487 89.2801 64.379 90.4219 62.8697C91.0856 61.9909 91.4944 60.9102 92.0178 59.9189L92.0012 59.9328C92.1218 59.6676 92.2591 59.4086 92.3586 59.1357C92.511 58.7195 92.7553 58.4898 93.2154 58.6039C93.686 58.721 93.9122 59.0494 93.8051 59.5119C93.6664 60.107 93.5186 60.7237 93.2365 61.254C92.9047 61.8768 92.9001 62.3732 93.2003 63.0284C94.6951 66.2891 96.0571 69.6144 97.6046 72.8458C99.027 75.8181 100.627 78.701 102.151 81.6225C102.232 81.7767 102.332 81.9216 102.419 82.065C103.771 79.6707 105.017 77.2257 106.478 74.924C108.579 71.6171 110.831 68.4089 113.038 65.1714C113.432 64.5948 113.801 64.6657 114.335 65.3271L114.334 65.3255Z" fill="#272324"/>
<path d="M112.727 41.8707C112.878 42.5367 113.027 43.2012 113.178 43.8672C114.24 43.6082 114.35 43.6791 114.637 44.7583C114.872 45.6432 115.501 46.1072 116.287 45.9762C117.062 45.8467 117.397 45.3195 117.322 44.3235C117.302 44.0722 117.236 43.824 117.198 43.5727C117.107 42.9545 117.515 42.5337 118.126 42.6385C118.75 42.7464 119.264 42.6154 119.702 42.1066C120.115 41.6256 120.682 41.7505 120.96 42.341C121.025 42.4782 121.059 42.6293 121.115 42.7695C121.661 44.1216 122.693 44.6781 123.981 44.3174C125.2 43.9767 125.809 42.9345 125.58 41.5208C125.489 40.9612 125.468 40.454 126.151 40.346C126.866 40.232 127.04 40.75 127.115 41.3312C127.323 42.9561 126.896 44.3575 125.566 45.3272C124.305 46.246 122.904 46.3647 121.54 45.5754C120.993 45.2593 120.583 44.6966 120.091 44.2711C119.952 44.1509 119.69 44.0029 119.578 44.0599C119.344 44.1786 118.99 44.4422 119.005 44.618C119.106 45.8112 119.27 46.9999 119.466 48.1823C119.494 48.3488 119.782 48.5539 119.976 48.5909C120.477 48.6849 120.664 48.9994 120.65 49.4511C120.634 49.9738 120.233 50.1079 119.813 50.148C118.89 50.2358 118.116 49.5883 117.845 48.503C117.739 48.0821 117.676 47.6505 117.579 47.1463C116.319 47.8092 115.13 47.6397 113.875 46.8627C114.201 47.8632 114.49 48.8776 114.86 49.8612C115.706 52.109 116.702 54.2673 118.507 55.923C119.575 56.9035 120.773 57.622 122.186 57.8856C123.485 58.1276 124.658 57.7545 125.694 56.9282C125.792 56.8496 125.883 56.7602 125.981 56.68C126.405 56.3362 126.836 56.2098 127.221 56.717C127.589 57.2026 127.338 57.5634 126.957 57.8948C125.359 59.2916 123.507 59.7495 121.492 59.2685C119.166 58.7135 117.331 57.383 115.935 55.368C114.089 52.7025 113.168 49.6515 112.321 46.5744C111.821 44.7537 111.471 42.8882 111.074 41.0382C111.018 40.7792 110.997 40.437 111.121 40.2366C111.258 40.013 111.585 39.7772 111.819 39.788C112.042 39.7972 112.346 40.0762 112.445 40.3121C112.59 40.6528 112.585 41.0614 112.644 41.4406C112.671 41.5855 112.699 41.732 112.726 41.8769L112.727 41.8707Z" fill="#252122"/>
<path d="M60.1316 36.6863C62.2312 37.3477 64.3383 37.9906 66.4259 38.6889C66.7351 38.7922 67.1001 39.1098 67.1966 39.4089C67.4018 40.0441 66.8361 40.4249 66.1046 40.2029C63.7516 39.4906 61.4257 38.6612 59.0396 38.0939C56.308 37.4448 53.5236 37.0286 50.7633 36.509C50.5416 36.4674 50.249 36.489 50.1193 36.3518C49.8885 36.1066 49.6215 35.7598 49.6291 35.4638C49.6351 35.2634 50.0861 34.9119 50.3395 34.9103C51.7935 34.9057 53.2491 35.0306 54.7031 35.0275C58.2929 35.0229 61.8843 34.9797 65.4741 34.9381C66.3474 34.9273 67.2208 34.8625 68.1197 34.6714C66.8678 34.3707 65.6159 34.0655 64.3625 33.7726C61.2583 33.048 58.1527 32.3249 55.0455 31.6111C54.5025 31.4863 53.9474 31.3444 54.1043 30.6152C54.2566 29.9014 54.8207 29.9431 55.3713 30.071C59.0622 30.9344 62.7531 31.7977 66.4425 32.661C68.8136 33.216 71.1816 33.7787 73.5542 34.3214C74.0339 34.4309 74.4547 34.5711 74.4034 35.177C74.3552 35.749 73.9464 35.9263 73.4532 35.9586C70.1741 36.1683 66.895 36.3949 63.6143 36.5738C62.4393 36.6385 61.2568 36.5846 60.0788 36.5846C60.0969 36.6185 60.115 36.6524 60.1331 36.6863H60.1316Z" fill="#242021"/>
<path d="M96.3918 5.3546C96.3798 5.66139 96.3556 5.96818 96.3556 6.27497C96.3541 22.6999 96.3556 39.1263 96.342 55.5513C96.342 55.9891 96.155 56.4269 96.054 56.8648C95.0419 56.9958 94.8232 56.817 94.8232 55.8103C94.8216 37.9208 94.8216 20.0313 94.8232 2.14177C94.8232 2.01381 94.8247 1.88585 94.8292 1.75635C94.8458 1.2846 95.0524 0.950056 95.5366 0.931556C96.0494 0.911515 96.33 1.23064 96.3436 1.73939C96.3662 2.55956 96.3496 3.38126 96.3571 4.20297C96.3602 4.58685 96.3813 4.97072 96.3933 5.35614L96.3918 5.3546Z" fill="#231F20"/>
<path d="M152.021 100.852C151.445 100.753 151.253 100.373 151.236 99.8129C151.066 94.4248 150.43 89.0937 149.306 83.8243C148.256 78.9002 146.911 74.0563 144.932 69.4405C143.355 65.7652 141.535 62.1993 139.8 58.5964C139.557 58.0908 139.414 57.6576 139.859 57.2151C140.462 56.9438 140.84 57.1889 141.144 57.7393C145.526 65.6742 148.737 74.0671 150.681 82.9656C151.873 88.4215 152.559 93.9407 152.766 99.5231C152.787 100.115 152.865 100.756 152.024 100.85L152.021 100.852Z" fill="#272324"/>
<path d="M84.906 46.1242C85.2755 47.3714 85.639 48.6201 86.0161 49.8642C86.1745 50.3899 86.4671 50.9018 86.4897 51.4306C86.5018 51.7235 86.0991 52.2708 85.8607 52.2831C85.538 52.3016 85.1941 51.9162 84.906 51.6233C83.2513 51.9008 82.8667 54.3412 83.8411 55.5021C83.9708 55.6578 84.09 55.8243 84.2287 55.9692C84.5485 56.3053 84.8155 56.6429 84.3735 57.0762C83.9452 57.4955 83.5319 57.4246 83.1156 57.0422C81.6902 55.7349 81.3342 53.723 82.2649 52.0118C82.4278 51.7112 82.4248 51.5585 82.2528 51.2425C80.7656 48.5091 79.2316 45.7973 77.8952 42.9869C77.0551 41.2186 78.1969 39.5027 79.9405 39.6183C80.8923 39.6815 81.6887 40.1194 82.1804 40.9673C82.5967 41.6842 82.9165 42.4596 83.2905 43.2027C83.5982 43.8147 83.6918 44.5948 84.7778 44.2479C85.6028 43.9859 86.2077 44.7521 86.5893 45.3703C87.5199 46.8811 88.3389 48.4644 89.1625 50.0415C89.3933 50.4824 89.2092 50.911 88.7432 51.1114C88.2952 51.3042 88.0207 51.1084 87.8035 50.6551C87.2107 49.4141 86.5802 48.19 85.9347 46.9782C85.7416 46.6159 85.446 46.3122 85.1971 45.9823L84.9075 46.1211L84.906 46.1242ZM84.3645 50.0477C84.096 48.9639 83.8366 47.9341 83.5862 46.9027C83.5153 46.6113 83.5485 46.2567 83.3931 46.0332C82.927 45.3626 82.3916 44.7428 81.8818 44.103C80.8531 44.9402 80.7535 45.3256 81.3569 46.4664C82.0733 47.8215 82.8154 49.1628 83.556 50.5287C83.8637 50.3468 84.0975 50.208 84.366 50.0492L84.3645 50.0477ZM79.8199 43.9042C80.2814 43.4925 80.5967 43.104 80.9994 42.8836C81.4338 42.6446 81.3719 42.3964 81.1608 42.1081C80.9707 41.846 80.7581 41.5454 80.4866 41.4159C80.2045 41.2818 79.7445 41.1924 79.5348 41.3404C79.3221 41.4899 79.203 41.9755 79.2558 42.2746C79.3523 42.8127 79.6072 43.3199 79.8199 43.9042Z" fill="#252122"/>
<path d="M137.681 55.3127C138.026 55.8245 137.734 56.2161 137.459 56.6277C133.604 62.4121 129.753 68.1995 125.904 73.9884C124.462 76.156 123.028 78.3267 121.587 80.4943C121.462 80.6839 121.337 80.9522 121.159 81.0092C120.862 81.1032 120.43 81.1834 120.227 81.0308C120.037 80.8889 119.981 80.4203 120.032 80.1243C120.083 79.8206 120.335 79.5523 120.5 79.2687C121.118 78.3822 121.736 77.4957 122.396 76.5538C121.774 76.2177 121.73 75.7213 121.837 75.1139C122.334 72.3019 122.812 69.4852 123.258 66.664C123.364 66.0026 123.661 65.6727 124.302 65.648L124.311 65.6403C124.497 65.9517 124.682 66.2631 124.868 66.5746C124.4 69.2247 123.934 71.8748 123.466 74.5249C123.877 74.2521 124.126 73.916 124.355 73.566C125.489 71.8317 126.616 70.0942 127.747 68.3583C128.988 66.5237 130.236 64.6937 131.47 62.8545C133.085 60.4434 134.696 58.0291 136.295 55.6072C136.681 55.0213 137.121 54.9196 137.684 55.3142L137.681 55.3127Z" fill="#282425"/>
<path d="M76.8982 62.1005C74.1304 61.2218 71.3657 60.3307 68.5933 59.4658C61.296 57.1888 53.9957 54.921 46.6969 52.6547C46.3153 52.536 45.9231 52.4528 45.537 52.3526C44.2745 51.9425 43.015 51.5185 41.748 51.1254C41.2126 50.9604 40.8792 50.6737 41.0542 50.0755C41.2382 49.4434 41.7133 49.4835 42.2141 49.6392C47.8432 51.3875 53.4738 53.1327 59.1029 54.8809C65.3806 56.8296 71.6568 58.7798 77.9344 60.73C78.1019 60.7824 78.2663 60.8471 78.4352 60.8996C78.9541 61.0584 79.1743 61.4176 79.0295 61.9433C78.8741 62.5044 78.4277 62.4829 77.9857 62.3826C77.6222 62.3009 77.2617 62.1961 76.9012 62.1005H76.8982Z" fill="#272324"/>
<path d="M132.652 36.8096C133.857 32.0566 131.74 27.2928 128.157 24.9202C125.741 23.32 123.071 22.987 120.291 23.2568C117.837 23.4942 115.471 24.1247 113.198 25.1052C112.999 25.1916 112.828 25.3457 112.643 25.4691C112.537 25.5461 112.433 25.6232 112.327 25.6988V25.671C110.938 26.3786 109.928 27.4748 109.183 28.8499C109.002 29.1829 108.872 29.5961 108.597 29.8104C108.353 30.0015 107.902 30.0833 107.617 29.9846C107.46 29.9306 107.317 29.3525 107.407 29.1028C108.14 27.0863 109.475 25.5199 111.281 24.4855C115.852 21.8646 120.748 20.7978 125.881 22.1961C132.002 23.8642 135.722 30.6491 134.197 36.9622C134.097 37.3753 133.955 37.7669 133.423 37.7346C132.853 37.6991 132.658 37.3353 132.651 36.808L132.652 36.8096Z" fill="#252122"/>
<path d="M126.554 104.788C126.753 104.264 127.065 103.91 127.678 103.997C127.75 104.008 127.83 103.963 127.901 103.974C130.225 104.37 132.369 102.998 134.678 103.254C135.325 103.325 135.975 103.366 136.624 103.42C138.571 103.863 140.394 104.606 141.993 105.841C142.336 106.106 142.55 106.545 142.874 106.972C143.369 107.399 144.049 107.814 144.494 108.411C145.414 109.647 144.883 111.348 143.402 111.711C142.309 111.98 141.128 111.958 139.989 111.93C139.352 111.915 138.93 111.939 138.467 112.518C137.296 113.979 135.694 114.645 133.842 114.667C133.272 114.673 132.895 114.382 132.903 113.81C132.91 113.234 133.338 113.09 133.859 113.09C135.026 113.093 136.1 112.763 136.934 111.899C137.204 111.62 137.379 111.203 137.492 110.817C137.651 110.275 137.922 110.08 138.477 110.147C139.521 110.27 140.571 110.342 141.621 110.418C141.868 110.436 142.158 110.455 142.36 110.344C142.72 110.147 143.296 109.857 143.304 109.592C143.319 109.017 142.812 108.667 142.233 108.642C141.788 108.623 141.337 108.7 140.892 108.764C140.646 108.799 140.41 108.896 140.167 108.959C139.713 109.078 139.367 108.953 139.215 108.471C139.048 107.94 139.316 107.627 139.77 107.467C140.168 107.327 140.585 107.242 141.008 107.128C139.256 105.374 135.237 104.345 132.915 104.942C132.844 105.406 132.91 105.945 132.694 106.117C132.44 106.32 131.881 106.349 131.56 106.206C130.286 105.637 128.973 105.404 127.604 105.554C126.979 105.622 126.648 105.404 126.552 104.785L126.554 104.788Z" fill="#262223"/>
<path d="M45.5249 55.6255C48.4601 56.5705 51.3893 57.5403 54.3336 58.4575C61.6218 60.7269 68.9176 62.9731 76.2104 65.2255C76.4261 65.2917 76.6494 65.3303 76.8681 65.3827C77.1471 65.486 77.4216 65.6047 77.7067 65.6864C78.2422 65.839 78.6675 66.0903 78.488 66.7486C78.3025 67.43 77.8213 67.3622 77.2829 67.1942C73.1365 65.9022 68.984 64.6304 64.8361 63.3415C58.1979 61.2773 51.5628 59.2037 44.9261 57.1332C44.7587 57.0808 44.5928 57.0222 44.4314 56.9575C43.9683 56.7694 43.7451 56.4241 43.9065 55.9277C44.0588 55.4575 44.4208 55.3403 44.8748 55.4682C45.089 55.5284 45.3092 55.5731 45.5264 55.6255H45.5249Z" fill="#282425"/>
<path d="M110.231 36.2852C111.934 37.5262 114.279 37.7097 116.616 36.7323C115.763 36.3684 114.982 36.0339 114.199 35.7009C113.807 35.4403 113.368 35.2291 113.042 34.8992C112.884 34.7404 112.842 34.3273 112.923 34.0945C112.994 33.891 113.309 33.6643 113.525 33.6566C113.798 33.6458 114.082 33.8355 114.355 33.9542C115.263 34.3473 116.168 34.7481 117.074 35.1459L117.08 35.1212C117.204 35.1659 117.327 35.2106 117.45 35.2553C119.714 35.9614 121.99 35.9367 124.275 35.3802C124.373 35.3447 124.471 35.3078 124.569 35.2723L124.558 35.2831C125.571 34.8653 126.584 34.4521 127.593 34.0266C128.27 33.7414 128.785 33.9449 128.798 34.6109C128.812 35.2476 129.175 35.4573 129.645 35.6361C130.204 36.2852 130.765 36.9357 131.325 37.5863C131.405 38.0627 131.32 38.4728 130.823 38.647C130.311 38.8258 130.076 38.4528 129.782 38.1105C129.361 37.6172 128.899 37.1423 128.391 36.7461C127.353 35.9398 126.27 36.37 125.199 36.7184C123.536 37.2595 121.822 37.4861 120.092 37.2795C119.116 37.1624 118.427 37.7528 117.631 38.0596C115.315 38.9522 113.009 39.2976 110.632 38.3125C107.882 37.1716 106.404 34.2409 107.163 31.4305C107.315 30.8662 107.609 30.5502 108.167 30.6643C108.805 30.7938 108.789 31.2809 108.658 31.8082C108.225 33.5364 108.636 34.9794 110.063 36.0709L110.057 36.0462C110.113 36.1264 110.169 36.2065 110.225 36.2867L110.231 36.2852Z" fill="#262224"/>
<path d="M78.5469 129.006C78.2513 128.759 77.9918 128.423 77.654 128.286C76.8666 127.965 76.0536 127.684 75.2271 127.49C74.5046 127.321 74.2376 126.93 74.1697 126.198C74.0702 125.141 73.853 124.094 73.8213 122.955C74.0053 123.383 74.1682 123.822 74.3794 124.237C74.5694 124.609 74.7157 125.077 75.2829 124.986C75.9164 124.885 76.1109 124.353 75.8138 123.616C75.4247 122.646 75.043 121.673 74.678 120.694C74.5755 120.42 74.5408 120.118 74.4533 119.732C77.9315 120.878 81.3026 121.988 84.8201 123.146C83.805 123.921 82.8834 124.629 81.9587 125.333C81.3162 125.822 80.6842 126.325 80.0251 126.787C79.4851 127.166 79.3131 127.618 79.6163 128.229C79.2603 128.488 78.9029 128.747 78.5469 129.004V129.006Z" fill="#CCCECF"/>
<path d="M60.3593 16.3008C60.7726 16.3533 61.207 16.4226 61.6444 16.4596C62.1165 16.4997 62.4891 16.7371 62.3729 17.2135C62.2975 17.5203 61.9023 17.7469 61.6444 18.0013C61.6188 18.0275 61.5464 18.0121 61.4966 18.0044C60.1466 17.8086 58.8193 17.4925 57.4286 17.8857C57.0304 17.9982 56.4995 17.6174 55.9686 17.4432C55.228 17.9319 54.9731 17.8857 54.4406 17.0424C53.4346 15.4498 53.0922 13.7879 54.1043 12.0674C54.9685 10.5967 56.587 9.97692 58.1285 10.4533C59.6278 10.9173 60.8103 12.5978 60.7349 14.2735C60.7047 14.9241 60.5011 15.567 60.3593 16.3008ZM59.0441 15.1184C59.3789 13.8095 59.0682 12.7997 58.1873 12.2108C57.4422 11.7128 56.4603 11.7791 55.7514 12.3727C55.0847 12.9308 54.9097 14.0346 55.3124 15.1292C56.5191 13.3331 57.6142 13.3085 59.0425 15.1168L59.0441 15.1184ZM57.3366 15.362C57.1601 15.7289 57.0485 15.9601 56.9354 16.1929C57.2401 16.2608 57.5448 16.327 57.8495 16.3949C57.8645 16.327 57.8781 16.2592 57.8932 16.1914C57.7559 15.9863 57.6172 15.7813 57.3366 15.362Z" fill="#252122"/>
<path d="M69.3413 127.205C70.367 127.535 71.3851 127.899 72.4243 128.178C72.8663 128.297 73.0171 128.532 73.0971 128.943C73.7064 132.024 73.815 135.137 73.6808 138.268C72.364 138.341 71.094 138.103 69.8587 137.648C69.8481 134.929 69.8572 132.208 69.8074 129.49C69.7998 129.114 69.5087 128.742 69.3489 128.367C69.3458 127.981 69.3443 127.594 69.3413 127.205Z" fill="#CDCECF"/>
<path d="M118.687 107.731C119.359 106.363 120.629 105.711 121.874 105.093C122.697 104.683 123.62 104.473 124.509 104.213C125.094 104.04 125.607 104.151 125.866 104.808C125.85 105.4 125.53 105.637 124.975 105.731C123.503 105.983 122.15 106.567 120.904 107.407C120.759 107.504 120.622 107.614 120.494 107.732C120.426 107.796 120.385 107.891 120.245 108.102C121.964 107.76 123.552 107.443 125.141 107.13C126.132 106.934 126.317 107.045 126.614 107.971C127.068 107.828 127.518 107.662 127.978 107.546C128.494 107.415 128.872 107.608 128.999 108.159C129.118 108.682 128.788 108.909 128.369 109.027C126.761 109.487 125.641 110.467 125.115 112.123C124.958 112.616 124.562 112.769 124.083 112.618C123.575 112.458 123.497 112.001 123.678 111.624C124.142 110.654 124.693 109.726 125.222 108.761C124.228 108.95 123.147 109.157 122.065 109.364C121.572 109.458 121.082 109.581 120.584 109.635C119.331 109.769 118.408 109.138 118.685 107.731H118.687Z" fill="#262223"/>
<path d="M120.427 78.6596C119.512 78.8878 119.334 78.7737 119.201 77.7994C118.591 73.3208 118.242 68.8253 118.371 64.299C118.383 63.892 118.373 63.4834 118.373 63.0764C118.311 63.024 118.251 62.9732 118.189 62.9207C117.691 63.4542 117.139 63.946 116.709 64.5318C116.266 65.1346 115.828 65.335 115.199 64.8725C114.768 63.9244 115.545 63.3771 116.017 62.9254C116.803 62.1746 117.759 61.5795 118.715 61.0569C119.48 60.6391 119.976 61.0892 119.964 62.005C119.937 64.077 119.822 66.1536 119.934 68.2179C120.1 71.2766 120.444 74.326 120.673 77.3831C120.705 77.7994 120.513 78.2341 120.426 78.6596H120.427Z" fill="#272324"/>
<path d="M126.044 60.7023C126.513 60.1396 126.924 59.509 127.462 59.0265C129.154 57.5141 130.922 56.0896 132.605 54.5664C133.236 53.996 133.738 53.2699 134.259 52.5823C134.637 52.0797 135.055 51.8423 135.589 52.2601C136.201 52.738 135.741 53.1512 135.441 53.552C133.304 56.4103 130.719 58.769 127.702 60.7285C128.206 61.8601 128.702 62.9639 129.189 64.0708C129.292 64.3021 129.483 64.5826 129.427 64.7769C129.332 65.1068 129.13 65.5076 128.86 65.6448C128.688 65.7312 128.221 65.466 128.047 65.2332C127.767 64.857 127.62 64.3761 127.418 63.9398C126.96 62.8606 126.503 61.7799 126.044 60.7007V60.7023Z" fill="#262223"/>
<path d="M91.5531 66.7132C91.7642 67.4902 91.1504 68.4584 90.446 68.7266C89.8547 68.9517 89.3524 69.4096 88.7868 69.7179C87.823 70.2452 86.8411 70.737 85.8471 71.2534C86.559 73.2499 87.277 75.2818 88.01 77.3076C88.1759 77.7654 88.185 78.1508 87.7536 78.453C87.1065 78.6026 86.7385 78.3497 86.5153 77.6961C85.8229 75.6749 85.0853 73.6708 84.3598 71.6466C83.7459 71.7822 83.0189 72.0967 82.8108 71.1779C82.6072 70.2791 83.4217 70.256 83.9601 70.1111C86.2981 69.4805 88.366 68.352 90.173 66.7148C90.6345 66.297 91.093 66.2184 91.5546 66.7132H91.5531Z" fill="#282425"/>
<path d="M134.765 37.8638C135.958 37.9054 137.293 38.6701 138.135 40.1732C138.848 41.4481 138.758 42.7771 137.992 44.0335C136.731 46.104 133.912 46.437 132.515 44.6409C132.334 44.4097 132.337 43.8393 132.497 43.5849C132.61 43.4061 133.224 43.3459 133.458 43.4939C134.97 44.4498 136.02 44.3943 136.722 43.2257C137.465 41.9862 136.954 40.5077 135.504 39.7184C134.132 38.9707 133.409 39.1911 132.568 40.5971C132.326 41.0011 132.016 41.2477 131.51 40.9887C131.007 40.7297 131.016 40.3489 131.194 39.8941C131.72 38.5529 132.74 37.8715 134.762 37.8653L134.765 37.8638Z" fill="#262223"/>
<path d="M73.7685 28.3443C73.23 27.3407 72.7338 26.4172 72.1938 25.4136C71.3235 26.3648 70.5241 27.242 69.7231 28.1177C69.604 28.2487 69.4848 28.3782 69.3596 28.5031C69.0655 28.7991 68.7623 28.9579 68.3822 28.6218C67.9855 28.2718 67.9312 27.8787 68.2691 27.4917C69.42 26.1736 70.5738 24.8586 71.7624 23.5759C72.1998 23.1042 72.7338 23.209 73.052 23.7917C73.9495 25.4382 74.8394 27.0894 75.6961 28.7575C76.123 29.59 75.7625 30.1187 74.853 30.0232C73.7081 29.9045 72.5709 29.7287 71.4275 29.5946C70.8423 29.5252 70.5557 29.1907 70.6281 28.6172C70.7081 27.9866 71.1892 27.9897 71.6659 28.0529C72.3341 28.1423 73.0038 28.2364 73.7685 28.3427V28.3443Z" fill="#242021"/>
<path d="M136.599 103.186C136.53 103.161 136.461 103.115 136.39 103.114C135.906 103.103 135.545 102.942 135.559 102.37C135.572 101.791 135.934 101.578 136.449 101.563C138.657 101.495 140.752 101.959 142.769 102.881C144.746 103.784 146.349 105.161 147.766 106.798C147.901 107.29 147.855 107.834 147.367 107.962C147.07 108.039 146.565 107.754 146.316 107.478C144.049 104.967 141.287 103.49 137.948 103.186C137.501 103.146 137.049 103.184 136.599 103.186Z" fill="#282425"/>
<path d="M58.8209 23.6636C58.8299 25.1159 57.8721 26.1503 56.7605 26.0177C56.486 25.9854 56.0817 25.6107 56.0516 25.3548C56.0229 25.1097 56.3502 24.6765 56.6142 24.5686C57.3427 24.2726 57.486 23.9812 57.0501 23.3214C56.1828 22.0079 54.3999 21.8568 53.6247 23.03C53.1465 23.753 53.3275 24.3836 54.1239 24.6395C54.6398 24.806 55.035 25.0342 54.8102 25.6601C54.584 26.2906 54.0591 26.3076 53.5553 26.1087C52.6397 25.7479 52.0002 25.1097 51.8493 24.0614C51.6819 22.8989 52.1344 21.9817 53.0123 21.3203C54.768 19.9991 57.7183 20.8208 58.6097 22.8496C58.75 23.1687 58.7877 23.5341 58.8194 23.6621L58.8209 23.6636Z" fill="#252122"/>
<path d="M64.1619 24.8185C64.7471 25.486 65.2464 26.058 65.7487 26.6268C66.1077 27.0354 66.1574 27.4655 65.7396 27.8355C65.346 28.1839 64.9658 28.0729 64.631 27.6752C64.1725 27.1325 63.6627 26.633 63.2298 26.0703C62.8301 25.5508 62.4243 25.4829 61.8934 25.8267C61.5344 26.058 61.1513 26.2491 60.7757 26.4511C60.2885 26.7132 59.8405 26.7101 59.5796 26.1443C59.3337 25.6124 59.5871 25.284 60.0743 25.0574C60.5736 24.8262 61.0547 24.5502 61.5781 24.2758C61.2237 23.8811 60.8949 23.5312 60.5826 23.1658C60.2252 22.7465 60.2372 22.3086 60.643 21.9494C61.0472 21.5918 61.4861 21.7074 61.7275 22.139C62.5435 23.5959 63.6325 23.6453 64.9312 22.8929C65.1438 22.7696 65.3927 22.6971 65.634 22.6416C66.0896 22.5353 66.5194 22.6863 66.5315 23.175C66.5406 23.4973 66.3037 23.9736 66.0383 24.1247C65.4802 24.4392 64.8316 24.5841 64.1619 24.8185Z" fill="#262223"/>
<path d="M61.9461 116.026C62.1965 117.497 62.4529 118.966 62.6957 120.439C62.8556 121.413 62.9974 122.392 63.1663 123.496C62.5087 123.3 61.9174 123.16 61.3533 122.945C60.6565 122.68 60.2432 122.865 60.0999 123.622C58.8766 123.194 57.6534 122.763 56.3818 122.318C56.6745 121.865 56.9173 121.488 57.1601 121.112C57.6157 121.629 58.0576 121.644 58.5553 121.139C59.5086 120.169 60.4951 119.235 61.4544 118.273C62.0894 117.634 62.0094 117.209 61.2025 116.759C61.4498 116.515 61.6987 116.271 61.9461 116.028V116.026Z" fill="#CDCECF"/>
<path d="M92.0163 59.9192C91.8624 60.1104 91.692 60.2892 91.5562 60.4927C91.2485 60.9552 90.983 61.4486 90.6557 61.8941C90.3601 62.298 89.9815 62.6588 89.4611 62.2471C88.9468 61.8401 89.1293 61.4193 89.4265 60.9198C89.8986 60.1258 90.4219 59.3056 90.6422 58.4238C91.0675 56.7172 90.6211 55.1447 89.4566 53.8142C89.2892 53.6231 89.1203 53.435 88.9453 53.2531C88.6044 52.9016 88.446 52.51 88.8337 52.1168C89.2153 51.7299 89.6512 51.7869 90.0388 52.14C91.3631 53.3456 92.1656 54.8502 92.2606 56.6601C92.3059 57.5096 92.1143 58.3729 92.0344 59.2316C92.0132 59.4644 92.0102 59.6972 91.9997 59.93L92.0163 59.9161V59.9192Z" fill="#252122"/>
<path d="M127.744 68.3579C126.614 70.0938 125.486 71.8313 124.352 73.5657C124.123 73.9156 123.874 74.2517 123.463 74.5246C123.931 71.8745 124.397 69.2243 124.865 66.5742C125.768 66.3738 126.672 66.1734 127.743 65.9375V68.3595L127.744 68.3579Z" fill="#86BEE5"/>
<path d="M123.795 51.9532C122.638 52.4836 121.498 52.6531 120.305 52.3695C119.789 52.2461 119.394 52.0149 119.5 51.3967C119.601 50.8031 120.029 50.7029 120.53 50.8186C121.761 51.1038 122.838 50.7924 123.851 50.0446C124.114 49.8504 124.655 49.7086 124.848 49.8519C125.079 50.0231 125.083 50.5241 125.165 50.8879C125.221 51.1331 125.234 51.3874 125.273 51.6372C125.565 53.4548 124.154 55.0396 122.367 54.8223C122.07 54.7868 121.644 54.4122 121.583 54.1254C121.482 53.6583 121.815 53.35 122.341 53.3022C123.399 53.2051 123.7 52.9214 123.797 51.9548L123.795 51.9532Z" fill="#262223"/>
<path d="M69.3505 128.366C69.5104 128.739 69.803 129.11 69.8091 129.488C69.8588 132.208 69.8498 134.927 69.8603 137.647C69.8453 137.953 69.9131 138.299 69.794 138.555C69.6658 138.831 69.3505 139.218 69.1424 139.204C68.8573 139.184 68.5768 138.848 68.3354 138.604C68.257 138.524 68.3007 138.309 68.3007 138.157C68.3007 135.262 68.2962 132.365 68.3007 129.47C68.3007 128.594 68.4938 128.401 69.349 128.367L69.3505 128.366Z" fill="#231F20"/>
<path d="M124.31 65.6401L124.301 65.6478C124.049 65.4844 123.774 65.3456 123.551 65.1468C123.35 64.9695 123.204 64.7274 122.999 64.47C122.747 64.8184 122.528 65.1452 122.284 65.452C121.981 65.8328 121.542 65.9114 121.24 65.5769C121.05 65.3657 120.938 64.8199 121.071 64.6057C122.07 62.9992 123.116 61.4221 124.21 59.882C124.361 59.6692 124.893 59.5937 125.193 59.6739C125.67 59.7987 125.66 60.2628 125.551 60.6898C125.334 60.992 125.123 61.2972 124.901 61.5948C124.524 62.0989 124.086 62.5799 124.301 63.2999C124.494 63.5912 124.623 64.0075 124.892 64.1478C125.4 64.4145 125.871 64.6642 125.632 65.3179C125.38 66.0055 124.821 65.8143 124.311 65.6386L124.31 65.6401Z" fill="#252122"/>
<path d="M135.346 110.404C135.161 110.576 134.895 110.852 134.601 111.091C133.588 111.915 132.539 112.695 131.557 113.555C131.127 113.931 130.814 114.449 130.468 114.919C130.135 115.373 129.726 115.582 129.253 115.221C128.747 114.836 128.949 114.4 129.265 113.959C130.556 112.163 132.117 110.68 134.04 109.614C134.631 109.288 135.319 109.608 135.346 110.404Z" fill="#242021"/>
<path d="M126.361 114.32C126.147 114.145 125.872 114.03 125.801 113.837C125.709 113.586 125.658 113.177 125.795 113.001C127.159 111.244 128.833 109.858 130.832 108.925C131.047 108.825 131.583 109.064 131.727 109.301C131.842 109.486 131.681 110.082 131.474 110.205C129.761 111.229 128.222 112.456 126.895 113.965C126.771 114.105 126.577 114.179 126.359 114.318L126.361 114.32Z" fill="#242021"/>
<path d="M104.995 56.1913C104.795 55.9601 104.421 55.7196 104.418 55.4744C104.413 55.1754 104.664 54.6789 104.905 54.6034C106.567 54.0869 108.25 53.6291 109.944 53.2329C110.184 53.1774 110.656 53.4996 110.772 53.7617C110.864 53.9698 110.643 54.5664 110.45 54.6265C108.694 55.18 106.913 55.6533 104.995 56.1898V56.1913Z" fill="#272324"/>
<path d="M112.611 58.6734C113.349 58.7027 113.726 59.2608 113.466 59.7773C112.714 61.2758 111.917 62.7511 111.128 64.2311C110.896 64.6674 110.527 64.7507 110.11 64.5225C109.626 64.2573 109.658 63.8025 109.833 63.3878C110.041 62.8991 110.336 62.449 110.585 61.9757C111.045 61.0985 111.477 60.2012 111.968 59.3425C112.14 59.0434 112.456 58.8291 112.613 58.6719L112.611 58.6734Z" fill="#272324"/>
<path d="M61.2025 116.757C62.0079 117.207 62.0894 117.633 61.4544 118.271C60.4951 119.235 59.5071 120.169 58.5554 121.137C58.0576 121.643 57.6157 121.627 57.1602 121.111C57.2522 120.761 57.2401 120.306 57.4558 120.08C58.4649 119.017 59.5313 118.011 60.5961 117.004C60.7455 116.862 60.9989 116.836 61.204 116.757H61.2025Z" fill="#282425"/>
<path d="M81.8169 56.7433C81.7475 57.7484 82.2423 58.4622 83.2408 58.6626C83.8125 58.7767 84.2453 58.9833 84.1051 59.6354C83.9663 60.2829 83.4489 60.3091 82.9074 60.1904C81.2362 59.8235 80.0537 58.1477 80.3056 56.5413C80.3931 55.9832 80.5017 55.5207 81.197 55.5947C81.7129 55.6502 81.8712 55.9401 81.8154 56.7433H81.8169Z" fill="#262223"/>
<path d="M104.007 44.5625C104.457 44.7136 104.765 44.8138 105.071 44.9202C106.136 45.2886 107.204 45.6494 108.264 46.0317C108.726 46.1982 108.964 46.5358 108.792 47.0492C108.617 47.5734 108.258 47.6443 107.771 47.4732C106.517 47.0323 105.252 46.6314 103.998 46.192C103.544 46.0333 103.267 45.6756 103.443 45.1838C103.534 44.931 103.826 44.7537 104.007 44.5625Z" fill="#252122"/>
<path d="M112.727 41.8709C112.7 41.726 112.673 41.5795 112.646 41.4346C113.566 39.8097 115.602 39.2701 117.162 40.2228C117.625 40.505 117.788 40.8503 117.551 41.3698C117.319 41.8801 116.914 41.8539 116.539 41.6597C115.619 41.1864 114.797 41.2789 114.059 42.005C113.548 42.5091 113.159 42.0405 112.729 41.8709H112.727Z" fill="#2F2B2C"/>
<path d="M65.7366 75.1954C63.8029 74.6173 61.8692 74.0392 59.842 73.4333C60.3896 72.9091 60.9657 72.8336 61.548 72.9615C62.2252 73.1095 62.9055 73.2899 63.5435 73.5582C64.1589 73.8172 64.5978 73.717 64.9628 73.1728C65.2208 73.848 65.4787 74.5217 65.7366 75.197V75.1954Z" fill="#CCCECF"/>
<path d="M124.299 63.3C124.085 62.5785 124.522 62.099 124.899 61.5949C125.121 61.2974 125.334 60.9921 125.55 60.6899C125.714 60.6946 125.88 60.6977 126.044 60.7023C126.503 61.7814 126.96 62.8621 127.418 63.9413C126.346 63.8966 125.263 63.8981 124.299 63.3Z" fill="#88C2E9"/>
<path d="M123.46 42.7125C123.296 42.9376 123.169 43.286 122.946 43.3708C122.721 43.4556 122.233 43.3662 122.151 43.2028C121.792 42.4705 121.504 41.695 121.273 40.9088C121.228 40.7546 121.518 40.3646 121.715 40.3044C121.955 40.2335 122.423 40.3091 122.512 40.4756C122.874 41.1585 123.129 41.9016 123.459 42.7141L123.46 42.7125Z" fill="#2B2728"/>
<path d="M116.552 44.3003C116.349 44.4946 116.141 44.843 115.869 44.9062C115.64 44.9601 115.19 44.752 115.092 44.5377C114.843 43.9935 114.656 43.3876 114.613 42.7941C114.593 42.5228 114.928 42.0433 115.178 41.9816C115.415 41.9231 115.887 42.2175 116.017 42.4796C116.27 42.993 116.356 43.5927 116.552 44.3003Z" fill="#2D292A"/>
<path d="M69.812 40.1163C69.5179 40.3398 69.2419 40.7114 68.9266 40.7515C68.3836 40.8193 68.0941 40.3229 68.1861 39.8573C68.2434 39.5644 68.6657 39.1558 68.9327 39.1466C69.2208 39.1389 69.5209 39.5382 69.8166 39.7586C69.8151 39.8773 69.8136 39.9961 69.812 40.1148V40.1163Z" fill="#2F2B2C"/>
<path d="M71.3159 40.3676C71.423 39.6646 71.7398 39.3655 72.1666 39.4472C72.4396 39.4996 72.8695 39.922 72.8408 40.1194C72.7971 40.42 72.4502 40.8347 72.1711 40.8917C71.9298 40.9411 71.604 40.5587 71.3159 40.3676Z" fill="#2F2B2C"/>
<path d="M138.542 68.4169C138.474 65.2426 138.109 62.2286 137.464 59.247C137.4 58.951 137.426 58.5548 137.578 58.3174C137.704 58.1216 138.129 57.952 138.329 58.026C138.572 58.1154 138.842 58.4546 138.886 58.7213C139.265 60.9876 139.63 63.2569 139.925 65.5339C140.064 66.5977 140.054 67.6815 140.093 68.7576C140.135 69.9339 139.87 70.1759 138.743 70.0541C137.702 69.9416 136.661 69.8398 135.542 69.7257C135.688 70.2067 135.809 70.5891 135.921 70.9729C136.55 73.1513 135.94 74.9859 134.026 76.1267C130.829 78.0353 127.577 79.8529 124.349 81.7091C124 81.9095 123.653 82.1161 123.302 82.3104C122.825 82.574 122.344 82.7204 122.008 82.1176C121.652 81.4809 122.1 81.1757 122.557 80.9182C125.868 79.0559 129.187 77.2074 132.494 75.3359C133.442 74.7994 134.486 74.2027 134.547 72.9786C134.59 72.0799 134.252 71.1548 134.04 70.2545C133.966 69.94 133.7 69.6749 133.614 69.3619C133.527 69.0397 133.426 68.6034 133.568 68.3675C133.699 68.1486 134.151 68.0222 134.453 68.0391C135.527 68.1023 136.596 68.2473 137.669 68.3567C137.937 68.3845 138.206 68.3953 138.542 68.4169Z" fill="#292526"/>
<path d="M124.085 101.189C123.988 101.72 124.121 102.316 123.356 102.356C122.669 102.393 122.491 101.911 122.433 101.305C121.935 95.9168 121.199 90.5642 120.116 85.2639C120.086 85.1144 120.011 84.9139 120.074 84.8153C120.269 84.5054 120.474 84.103 120.766 83.9936C120.937 83.9288 121.462 84.3127 121.522 84.5702C121.848 85.9376 122.126 87.322 122.329 88.7142C122.937 92.8689 123.503 97.0315 124.085 101.189Z" fill="#2B2728"/>
<path d="M119.386 80.5127C119.207 80.6684 118.997 80.9968 118.801 80.9875C118.484 80.9736 118.018 80.8226 117.893 80.579C117.489 79.7912 117.162 78.951 116.892 78.1015C116.106 75.621 115.349 73.1312 114.62 70.6321C114.534 70.3392 114.581 69.8752 114.76 69.6563C115.199 69.1213 115.815 69.3464 116.041 70.0987C116.415 71.3459 116.721 72.6147 117.124 73.8527C117.771 75.8399 118.474 77.8086 119.153 79.785C119.218 79.9746 119.276 80.1674 119.388 80.5127H119.386Z" fill="#2D292A"/>
<path d="M66.0246 88.5232C66.5208 88.1439 66.4303 87.6444 66.3112 87.128C65.5208 83.7101 64.7365 80.2922 63.9506 76.8728C63.922 76.7495 63.9084 76.6215 63.8677 76.3779C64.1166 76.418 64.3262 76.4273 64.5208 76.4889C73.8001 79.378 83.0763 82.2763 92.3571 85.1562C92.793 85.2918 92.986 85.463 93.06 85.9625C93.8186 91.0207 94.6241 96.0696 95.3994 101.125C96.2365 106.585 97.0495 112.049 97.8851 117.51C98.3029 120.238 98.7479 122.962 99.1778 125.688C99.2019 125.838 99.1974 125.992 99.2109 126.237C97.8338 125.787 96.5095 125.357 95.1882 124.92C88.3917 122.68 81.5981 120.436 74.7986 118.206C74.3174 118.049 74.0308 117.856 74.0218 117.272C73.978 114.3 73.8378 111.329 73.8468 108.358C73.8619 103.906 73.7744 99.4829 72.0202 95.2926C71.8226 94.8209 71.6492 94.3399 71.0247 94.5064C70.524 94.6405 70.3339 95.2356 70.6039 95.8569C72.2163 99.5615 72.4094 103.493 72.3958 107.458C72.3882 109.536 72.3958 111.616 72.2691 113.703C71.2283 106.941 70.1891 100.18 69.1287 93.2885C69.5737 93.4796 69.8829 93.6307 70.2042 93.7479C70.7034 93.9298 71.1137 93.7895 71.3188 93.2792C71.5134 92.7967 71.2495 92.4375 70.8226 92.3342C69.2615 91.9534 68.453 91.0207 68.4983 89.3387C68.5103 88.8932 68.278 88.5062 67.7456 88.6265C67.2494 88.739 66.9718 89.0813 67.0291 89.6363C67.0548 89.8906 67.1151 90.1466 67.1031 90.3994C67.1 90.4703 66.8964 90.532 66.7863 90.5967L66.5963 90.4857C66.5963 90.4857 66.5963 90.5181 66.5963 90.5165C66.4062 89.8505 66.2162 89.1846 66.0261 88.517L66.0246 88.5232Z" fill="#CFD1D2"/>
<path d="M63.9296 89.5189C63.1377 89.2969 62.3459 89.0749 61.5525 88.8529C61.0276 88.7064 60.4589 88.5476 60.2659 89.2907C60.0804 90.0045 60.6294 90.1957 61.1452 90.3714C62.7275 90.9064 64.3082 91.4444 65.889 91.9809C66.0368 92.9367 66.1891 93.8926 66.3309 94.85C66.8 98.0258 67.257 101.205 67.7351 104.379C68.2133 107.553 68.7141 110.724 69.2012 113.896C69.5964 116.464 69.9916 119.031 70.3778 121.601C70.601 123.087 70.8031 124.578 71.0143 126.066C69.0791 125.441 67.1394 124.832 65.2147 124.176C64.9975 124.102 64.7517 123.779 64.714 123.542C63.7803 117.58 62.8783 111.614 61.9613 105.649C61.2267 100.873 60.4801 96.1002 59.741 91.3242C59.4831 89.6561 59.2191 87.988 58.9808 86.3168C58.9099 85.8142 58.744 85.4319 58.1859 85.5568C57.658 85.6755 57.3955 86.0362 57.4905 86.6375C58.3684 92.2445 59.2417 97.8531 60.1075 103.463C60.6264 106.824 61.1332 110.186 61.643 113.549C61.6656 113.697 61.6671 113.848 61.6867 114.102C60.8421 113.842 60.0638 113.609 59.29 113.361C54.6262 111.864 49.967 110.354 45.2987 108.874C44.7889 108.713 44.6003 108.438 44.5249 107.923C43.9638 104.103 43.3771 100.286 42.7979 96.4672C42.0814 91.7389 41.365 87.0121 40.6455 82.2838C39.9637 77.8099 39.2789 73.336 38.5987 68.8621C38.5836 68.765 38.5972 68.6617 38.5972 68.4551C39.2955 68.657 39.9577 68.8343 40.6108 69.0378C46.1011 70.7491 51.5869 72.4773 57.0848 74.1654C57.6429 74.3365 57.7485 74.614 57.8616 75.1521C58.299 77.2241 58.8269 79.2776 59.3443 81.3326C59.7817 83.0701 60.2538 84.7983 60.7018 86.5327C60.8481 87.1 61.0562 87.6072 61.7621 87.3929C62.4183 87.194 62.3383 86.6637 62.1965 86.1395C61.3112 82.8542 60.4243 79.5705 59.5509 76.2806C59.4484 75.8921 59.4288 75.4789 59.3699 75.0781C59.4061 75.038 59.4423 74.9979 59.477 74.9594C60.0095 75.1212 60.5419 75.2831 61.0743 75.4465C61.0789 75.6254 61.0562 75.8104 61.094 75.983C61.6656 78.6224 62.2599 81.2571 62.8195 83.901C63.2147 85.7695 63.5646 87.6473 63.9341 89.5204L63.9296 89.5189Z" fill="#CFD1D2"/>
<path d="M59.3654 75.0796C59.3413 75.0442 59.3171 75.0103 59.2915 74.9748C59.3518 74.9702 59.4122 74.9656 59.4725 74.9609C59.4363 75.001 59.4016 75.0396 59.3654 75.0796Z" fill="#CFD1D2"/>
<path d="M117.074 35.1474C116.168 34.7496 115.263 34.3488 114.355 33.9556C114.082 33.8369 113.797 33.6473 113.525 33.6581C113.309 33.6674 112.994 33.894 112.923 34.0959C112.842 34.3287 112.884 34.7419 113.042 34.9007C113.368 35.2291 113.807 35.4418 114.199 35.7023C112.616 35.8457 111.855 35.2984 111.567 33.8107C111.41 32.9983 111.699 32.4417 112.486 32.4001C113.042 32.3708 113.691 32.5204 114.163 32.8148C115.113 33.4084 115.975 34.1545 116.866 34.8452C116.958 34.9161 117.005 35.0456 117.074 35.1474Z" fill="#F1F1F1"/>
<path d="M117.451 35.2552C117.328 35.2105 117.204 35.1658 117.082 35.1211C117.205 35.1658 117.329 35.2105 117.451 35.2552Z" fill="#F1F1F1"/>
<path d="M13.8876 73.803C13.1093 73.4654 12.9374 73.043 13.4412 72.4386C14.0701 71.6817 14.7519 70.9663 15.4714 70.2988C15.6478 70.1354 16.129 70.103 16.3296 70.2356C16.5302 70.3666 16.7248 70.9371 16.6313 71.0419C15.7776 71.9962 14.859 72.8903 13.96 73.803H13.8891H13.8876Z" fill="#2F2B2C"/>
<path d="M84.3644 50.0478C84.096 50.2066 83.8622 50.3453 83.5545 50.5272C82.8139 49.1613 82.0733 47.8201 81.3553 46.4649C80.752 45.3256 80.8515 44.9387 81.8802 44.1016C82.39 44.7414 82.9255 45.3611 83.3916 46.0317C83.5469 46.2553 83.5137 46.6114 83.5846 46.9012C83.8365 47.9341 84.0944 48.964 84.3629 50.0462L84.3644 50.0478Z" fill="#F1F1F1"/>
<path d="M79.8197 43.904C79.6071 43.3197 79.3522 42.811 79.2556 42.2745C79.2028 41.9754 79.322 41.4913 79.5347 41.3402C79.7428 41.1922 80.2044 41.2816 80.4864 41.4158C80.7594 41.5453 80.9706 41.8459 81.1606 42.108C81.3718 42.3978 81.4321 42.646 80.9993 42.8834C80.5965 43.1054 80.2813 43.4939 79.8197 43.904Z" fill="#7EB0D4"/>
<path d="M59.044 15.1183C57.6156 13.3099 56.5206 13.3346 55.3139 15.1306C54.9097 14.036 55.0861 12.9322 55.7528 12.3741C56.4617 11.7806 57.4437 11.7143 58.1888 12.2122C59.0681 12.7996 59.3804 13.8109 59.0455 15.1198L59.044 15.1183Z" fill="#F1F1F1"/>
<path d="M57.3365 15.3618C57.6186 15.7811 57.7558 15.9862 57.8931 16.1912C57.878 16.2591 57.8644 16.3269 57.8494 16.3947C57.5447 16.3269 57.24 16.2606 56.9353 16.1928C57.0469 15.9615 57.1585 15.7287 57.3365 15.3618Z" fill="#D0D2D3"/>
<path d="M19.6509 66.0319C17.9676 66.6239 16.3447 66.6424 14.6508 66.2092C15.1048 66.8058 15.5483 67.4117 16.0143 67.9975C16.3658 68.4385 16.5815 68.9148 16.0913 69.3388C15.5965 69.7658 15.1772 69.4991 14.8318 69.0197C14.4034 68.4215 13.9449 67.8464 13.5075 67.2714C12.8001 67.5412 12.7322 67.9698 13.0399 68.5957C13.2631 69.0474 13.4592 69.5469 13.512 70.0418C13.5422 70.3347 13.3491 70.791 13.1138 70.9437C12.7503 71.1795 12.3325 71.0439 12.147 70.5567C11.8468 69.772 11.5497 68.9857 11.2389 68.164C10.5723 68.4662 9.9086 68.7483 9.26152 69.0659C8.714 69.3342 8.26602 69.2632 8.0081 68.6851C7.74414 68.09 8.19965 67.868 8.61595 67.6568C9.46665 67.2267 10.3174 66.7981 11.1681 66.3664C11.1907 66.3557 11.2118 66.3217 11.2299 66.3248C12.3174 66.5252 12.5346 65.7097 12.7563 64.8602C11.3883 63.6762 10.6597 62.0698 10.4561 60.2106C8.28261 59.8267 7.43342 57.8996 8.70042 56.2901C9.2766 55.5578 10.0881 55.3374 10.9871 55.5917C11.4607 55.7259 11.7714 56.0064 11.5678 56.4489C11.438 56.731 11.0021 57.0193 10.6899 57.0332C9.88748 57.0702 9.47872 57.5173 9.75173 58.2681C9.8015 58.4053 9.9644 58.5718 10.0911 58.5857C10.2163 58.5995 10.4561 58.4608 10.4803 58.3513C10.5949 57.8318 10.8996 57.6653 11.3656 57.7917C11.8679 57.9289 12.0142 58.3374 11.9629 58.8107C11.8408 59.9084 11.9976 60.9444 12.4878 61.9372C13.7594 64.5149 16.9344 65.6264 19.4971 64.3715C20.8138 63.7271 21.7566 63.8767 22.4685 65.1377C23.0236 66.1213 24.016 66.1876 24.7838 66.7056C25.2815 67.0417 25.8668 67.2529 26.3313 67.6244C26.5259 67.7802 26.6677 68.3182 26.5546 68.4862C26.3917 68.7283 25.8879 68.9888 25.6797 68.8948C24.7491 68.4724 23.8712 67.9312 22.9783 67.4256C22.4685 67.1373 21.9662 66.8367 21.3825 66.4959C20.7098 67.3701 19.9511 68.3305 19.2301 69.3172C19.1366 69.4452 19.1743 69.7381 19.2467 69.9138C19.5091 70.549 19.8364 71.1564 20.0944 71.7947C20.2693 72.2279 20.3991 72.7289 19.8334 72.9833C19.2497 73.2469 18.9269 72.9386 18.6645 72.3913C18.3538 71.7469 18.2949 70.9313 17.3779 70.6708C16.9525 70.5505 16.9058 70.0125 17.2316 69.5716C18.0053 68.5232 18.7625 67.4626 19.5212 66.4034C19.574 66.331 19.5846 66.2277 19.6509 66.0319Z" fill="#2B2728"/>
<path d="M17.7669 47.1277C16.2238 46.9303 14.7894 47.3327 13.3927 47.9494C13.2087 48.0311 13.0352 48.1344 12.8572 48.2284C12.4168 48.4581 12.0865 48.3163 11.8497 47.9031C11.5887 47.4452 11.7773 47.1045 12.171 46.8764C13.8196 45.9221 15.6009 45.4642 17.4908 45.5027C19.1198 45.5351 20.6523 45.9652 22.0762 46.7977C23.6449 47.715 24.7384 49.0378 25.2588 50.7953C25.7822 52.5651 25.3266 54.1222 23.9933 55.4218C25.6253 55.65 26.47 56.5226 26.4488 57.907C26.4262 59.35 25.7022 60.0299 24.2256 60.1501C23.7912 61.2586 23.4156 62.3023 22.9736 63.3136C22.6961 63.9472 22.1395 64.1646 21.7051 63.8732C21.1606 63.5079 21.3371 63.0746 21.6192 62.6152C22.3296 61.4559 22.6478 60.1964 22.488 58.8196C22.4231 58.26 22.6554 57.8037 23.2255 57.7944C23.5106 57.7898 23.8017 58.1167 24.0913 58.2939C24.0581 58.3911 24.025 58.4882 23.9933 58.5838C24.2678 58.5391 24.7278 58.5668 24.7776 58.4327C24.8892 58.1336 24.8922 57.7081 24.7565 57.426C24.663 57.2317 24.2557 57.2055 24.0023 57.0776C23.666 56.908 23.1788 56.7847 23.0641 56.5087C22.9601 56.2574 23.2693 55.8288 23.3975 55.4773C23.3598 55.4604 23.1561 55.3709 22.954 55.2815C22.6252 54.7342 22.8862 54.3334 23.2376 53.9202C24.0657 52.9474 24.2014 51.8529 23.6222 50.7136C22.396 48.2978 20.3537 47.2433 17.7684 47.1277H17.7669Z" fill="#2B2728"/>
<path d="M13.9871 53.6152C13.6628 52.812 13.2918 51.9671 12.9826 51.0992C12.8046 50.5966 12.9479 50.1449 13.5376 50.0709C14.0625 50.0061 14.3536 50.3006 14.4607 50.8494C14.7503 52.3495 15.5241 53.0031 16.9253 53.0201C16.5558 52.2693 16.147 51.5139 15.8137 50.7245C15.6704 50.3869 15.6659 49.9799 15.6357 49.6007C15.598 49.1243 15.8122 48.7173 16.2949 48.8036C16.6056 48.8591 16.9495 49.1813 17.1184 49.4804C17.2949 49.7903 17.227 50.2343 17.3552 50.5873C17.7383 51.6372 18.4578 52.3325 19.5453 52.6023C19.761 52.6563 20.0672 52.684 20.1577 52.8335C20.3327 53.1249 20.4805 53.5057 20.4428 53.8248C20.4247 53.9759 19.9465 54.1686 19.6796 54.1625C19.2919 54.1548 18.9073 53.9836 18.5076 53.8788C17.6614 55.052 16.5286 54.5309 15.4472 54.4076C15.1244 55.3665 15.046 55.4312 14.0143 55.2863C12.5195 55.0751 11.1288 54.6188 10.1092 53.3855C9.1167 52.1845 8.8829 50.8263 9.44099 49.3756C9.54204 49.1135 9.99002 48.8067 10.2479 48.8314C10.7623 48.8822 10.9508 49.3093 10.8392 49.8581C10.3973 52.0211 11.9071 53.7185 13.9871 53.6152Z" fill="#2D292A"/>
<path d="M17.767 47.128C20.3508 47.2436 22.3946 48.2997 23.6209 50.7139C24.1986 51.8532 24.0643 52.9478 23.2363 53.9206C22.8848 54.3338 22.6239 54.7361 22.9527 55.2819C22.5711 55.3883 22.1895 55.5871 21.8094 55.5825C21.1005 55.5733 20.9511 55.1339 21.295 54.4972C21.5786 53.9715 21.7958 53.3995 21.9678 52.8245C22.0794 52.4545 21.918 52.234 21.461 52.1985C20.3478 52.1107 19.2331 51.8948 18.4729 50.9668C17.5544 49.8444 17.4111 48.5201 17.767 47.1265V47.128Z" fill="#88C2E9"/>
<path d="M17.0022 64.1525C16.3129 63.7887 15.5889 63.4772 14.9584 63.0286C14.7759 62.8991 14.7141 62.2439 14.8649 62.0635C15.0399 61.8539 15.6342 61.7244 15.8303 61.8693C16.7699 62.5569 17.5829 62.5199 18.4759 61.7829C18.6584 61.6319 19.221 61.7336 19.4503 61.9217C19.8032 62.21 19.7263 62.6648 19.3914 62.9916C18.7549 63.6129 18.0053 63.9783 17.1048 63.9521C17.0701 64.0199 17.0369 64.0877 17.0022 64.1556V64.1525Z" fill="#2F2B2C"/>
<path d="M17.0112 61.6443C16.6009 61.3005 16.1213 61.0847 15.9795 60.7286C15.8256 60.3431 15.9629 59.8236 16.0202 59.3673C16.0338 59.2578 16.2284 59.0929 16.343 59.0898C16.6386 59.0821 17.1485 59.0697 17.1967 59.2023C17.4184 59.8128 18.5572 59.9161 18.1304 60.7979C17.963 61.1433 17.4607 61.319 17.0112 61.6428V61.6443Z" fill="#2D292A"/>
<path d="M20.007 57.2347C19.9572 57.5616 19.9889 57.8637 19.8607 58.0472C19.7204 58.2476 19.4217 58.4619 19.2106 58.4434C18.9692 58.4218 18.6042 58.1906 18.5499 57.9809C18.4413 57.5538 18.4308 57.0621 18.5273 56.6319C18.5756 56.4115 18.9255 56.1571 19.1683 56.1201C19.3689 56.0893 19.6782 56.3097 19.8169 56.5086C19.9617 56.7152 19.9587 57.0297 20.007 57.2347Z" fill="#353132"/>
<path d="M13.9736 57.3584C14.1245 56.6584 14.1984 56.0957 14.9163 56.1111C15.6313 56.1266 15.666 56.7109 15.663 57.2736C15.6584 58.1323 15.2467 58.6595 14.7037 58.382C14.3748 58.214 14.2104 57.7114 13.9736 57.3584Z" fill="#2D292A"/>
<path d="M11.3942 97.5648C11.7034 97.9394 11.9116 98.3217 11.5646 98.7996C11.2494 99.2344 10.8949 99.1064 10.4967 98.9445C9.99899 98.7426 9.73805 99.0247 9.62945 99.4934C9.48314 100.132 9.78783 100.626 10.4651 100.799C10.5028 100.582 10.5631 100.369 10.5737 100.153C10.5978 99.6861 10.7486 99.3161 11.2705 99.3623C11.7909 99.4086 12.0368 99.7354 12.0745 100.292C12.1348 101.2 12.1152 102.15 12.3822 103.001C13.3188 105.987 16.4969 107.283 19.2466 105.888C20.3085 105.349 20.313 105.359 20.7745 106.472C20.8394 106.63 21.0807 106.701 21.2104 106.839C22.482 108.193 24.1954 108.828 25.7354 109.739C26.2091 110.02 26.553 110.327 26.2256 110.885C25.8983 111.443 25.4338 111.364 24.9315 111.064C24.2437 110.654 23.5257 110.294 22.7535 109.875C22.3749 111.156 21.758 112.261 20.2934 112.354C19.0988 112.429 18.0414 111.939 17.0761 111.245C17.0836 111.09 17.0399 110.902 17.1093 110.781C17.5874 109.944 18.0806 109.115 18.5859 108.295C18.8544 107.86 19.2345 107.727 19.6734 108.03C20.1154 108.333 20.1033 108.726 19.8333 109.158C19.5558 109.602 19.2979 110.058 19.0249 110.522C19.2059 110.6 19.319 110.649 19.4351 110.695C20.0716 110.951 20.6252 110.868 20.9978 110.236C21.4382 109.486 21.3567 108.967 20.7067 108.429C20.3582 108.141 19.9646 107.909 19.4442 107.552C18.3069 108.023 16.7865 108.281 15.1952 107.817C15.0217 107.766 14.7895 107.931 14.6658 107.971C15.3521 108.777 15.9976 109.477 16.5678 110.234C16.7759 110.51 16.8076 110.926 16.9192 111.278C16.3159 111.905 15.9856 111.918 15.4622 111.267C14.8407 110.498 14.251 109.702 13.6356 108.904C12.8754 109.377 12.7743 110.24 13.5481 110.922C13.6823 111.04 13.9689 110.96 14.1529 111.045C14.4787 111.196 14.9116 111.33 15.0579 111.606C15.2842 112.03 14.9825 112.34 14.5406 112.511C13.5149 112.906 12.4651 112.394 11.8799 111.167C11.7381 110.871 11.637 110.555 11.4953 110.194C10.7939 110.516 10.0955 110.84 9.39415 111.158C9.09852 111.292 8.78328 111.537 8.50122 111.504C8.18749 111.469 7.79381 111.238 7.64449 110.97C7.55097 110.802 7.76365 110.265 7.97632 110.142C8.75764 109.693 9.61135 109.379 10.4078 108.956C11.447 108.404 12.4576 107.797 13.6054 107.142C11.8859 105.874 10.9689 104.323 10.631 102.421C8.97484 102.116 8.25838 101.479 8.10905 100.184C7.94615 98.7765 8.39262 97.9579 9.65057 97.3628C10.2328 97.4291 10.815 97.4954 11.3972 97.5617L11.3942 97.5648Z" fill="#2A2627"/>
<path d="M9.43188 93.8293C10.168 91.7342 11.7261 90.4885 13.61 89.5574C13.8423 89.4417 14.076 89.1534 14.1469 88.8991C14.5165 87.5763 16.147 86.5403 17.7971 86.6343C19.3326 86.7222 20.5981 87.3774 21.5257 88.6231C21.7308 88.8991 21.7158 89.3446 21.8032 89.7115C21.4473 89.7963 21.0913 89.8811 20.7353 89.9659C20.672 89.9813 20.6071 89.9936 20.4623 90.0245C21.0083 90.5086 21.5921 90.877 21.9752 91.3996C22.6087 92.2661 23.1864 93.1957 23.6479 94.1685C24.0627 95.0411 23.9013 95.2322 22.9707 95.5051C22.9556 96.5689 22.8606 96.7045 21.8379 96.9265C19.9902 97.3258 18.3763 96.8494 16.9962 95.5344C16.8861 95.4296 16.776 95.3247 16.6643 95.2214C16.6493 95.2076 16.6206 95.2091 16.5437 95.1891C15.2842 96.4948 13.7246 97.2056 11.895 97.2734C11.72 97.2641 11.5436 97.2688 11.3701 97.2426C10.8663 97.1624 10.6325 96.8464 10.6597 96.333C10.6868 95.8366 11.0021 95.6916 11.4304 95.7024C13.2857 95.7487 14.7684 95.0071 15.9464 93.5456C16.5045 92.8519 16.9238 92.9028 17.4442 93.6212C18.77 95.4527 20.2044 95.8843 22.399 95.1135C21.9978 93.7568 21.304 92.6206 20.1471 91.7851C17.1561 89.6236 12.6115 90.6627 11.0111 93.9634C10.8603 94.2749 10.4349 94.668 10.1755 94.6402C9.90399 94.6109 9.67925 94.1207 9.4349 93.8324L9.43188 93.8293ZM20.3552 89.6452C19.1742 88.0141 16.693 87.638 15.8091 89.0332C17.3431 88.9145 18.7504 89.2552 20.1018 89.8749C20.2406 89.9381 20.3809 90.0013 20.5196 90.0646C20.5438 90.0322 20.5664 89.9983 20.5905 89.9659C20.5121 89.858 20.4337 89.7516 20.3537 89.6437L20.3552 89.6452Z" fill="#292628"/>
<path d="M9.43196 93.8296C9.67631 94.1179 9.90105 94.6096 10.1726 94.6374C10.432 94.6651 10.8573 94.2705 11.0082 93.9606C12.6085 90.6584 17.1531 89.6208 20.1441 91.7822C21.301 92.6178 21.9964 93.754 22.3961 95.1107C20.203 95.8831 18.7685 95.4514 17.4412 93.6183C16.9208 92.8999 16.5015 92.8506 15.9434 93.5428C14.7654 95.0043 13.2827 95.7458 11.4275 95.6996C10.9976 95.6888 10.6824 95.8337 10.6567 96.3301C10.6296 96.8435 10.8634 97.1596 11.3672 97.2397C11.5391 97.2675 11.7171 97.2613 11.8921 97.2706C11.7261 97.3677 11.5602 97.4648 11.3928 97.5619C10.8106 97.4956 10.2284 97.4294 9.64614 97.3631C9.34749 96.2669 8.94024 95.1816 9.32185 94.0176C9.34448 93.9498 9.39425 93.8912 9.43196 93.828V93.8296Z" fill="#88C2E9"/>
<path d="M23.5169 102.387C23.1503 103.268 22.7989 104.103 22.455 104.943C22.2227 105.512 21.8139 105.77 21.2634 105.494C20.6933 105.207 20.8064 104.691 21.0749 104.245C21.7793 103.073 22.0477 101.811 21.9814 100.445C21.9678 100.155 22.0824 99.7696 22.2785 99.5753C22.7189 99.1406 23.268 99.3518 23.4052 99.9592C23.4656 100.226 23.4791 100.503 23.5153 100.782C24.1986 100.605 24.5335 100.092 24.3706 99.4921C24.1896 98.8215 23.7808 98.8338 23.2001 99.008C22.9573 99.0805 22.4384 98.8246 22.3404 98.5887C22.2393 98.3497 22.4007 97.8101 22.6209 97.6452C23.6134 96.9036 25.1564 97.3923 25.6617 98.5424C26.4807 100.406 25.5048 102.094 23.5153 102.389L23.5169 102.387Z" fill="#2B2728"/>
<path d="M16.9192 111.278C16.8076 110.926 16.7759 110.51 16.5678 110.234C15.9976 109.476 15.3521 108.777 14.6658 107.971C14.7895 107.933 15.0217 107.768 15.1952 107.817C16.785 108.279 18.3069 108.024 19.4442 107.552C19.9645 107.909 20.3582 108.141 20.7066 108.429C21.3567 108.967 21.4382 109.487 20.9978 110.236C20.6252 110.869 20.0716 110.953 19.4351 110.695C19.3205 110.649 19.2059 110.598 19.0249 110.523C19.2979 110.06 19.5558 109.602 19.8333 109.158C20.1033 108.727 20.1139 108.333 19.6734 108.03C19.2345 107.728 18.8544 107.86 18.5859 108.295C18.0806 109.115 17.5874 109.944 17.1093 110.782C17.0399 110.902 17.0851 111.09 17.0761 111.246C17.0233 111.256 16.972 111.266 16.9192 111.276V111.278Z" fill="#F1F1F1"/>
<path d="M16.4155 105.036C16.0972 104.863 15.503 104.573 14.9434 104.226C14.5437 103.98 14.509 103.525 14.8212 103.252C15.0565 103.045 15.6176 102.884 15.8046 103.024C16.5648 103.59 17.224 103.536 17.9238 102.97C18.316 102.652 18.7564 102.749 18.9465 103.15C19.0702 103.411 19.0098 103.91 18.8334 104.145C18.3266 104.811 17.5664 105.008 16.417 105.037L16.4155 105.036Z" fill="#2D292A"/>
<path d="M19.7307 99.5875C19.5995 100.287 19.4773 100.815 18.7956 100.847C18.5633 100.858 18.1319 100.596 18.1138 100.422C18.0489 99.8249 17.251 99.2745 17.8589 98.6794C18.0957 98.4482 18.7171 98.3634 19.0037 98.5191C19.337 98.6995 19.4954 99.2175 19.7307 99.5875Z" fill="#2F2B2C"/>
<path d="M15.7684 99.8326C15.503 100.173 15.2994 100.696 14.96 100.816C14.3401 101.035 14.1032 100.494 13.9916 99.9467C13.9811 99.8974 13.9584 99.8481 13.9283 99.808C13.6357 99.4164 13.5301 98.9385 13.9283 98.6471C14.1998 98.4482 14.7473 98.3603 15.0113 98.513C15.3009 98.681 15.408 99.1805 15.589 99.5382C15.6101 99.5783 15.592 99.6399 15.592 99.6908L15.7684 99.8326Z" fill="#2F2B2C"/>
<path d="M17.1773 102.97C16.3432 102.998 15.8681 102.562 15.8832 102.001C15.8967 101.51 16.1351 101.17 16.6434 101.126C17.0687 101.091 17.7173 101.74 17.6238 102.186C17.5559 102.514 17.2814 102.796 17.1758 102.97H17.1773Z" fill="#2F2B2C"/>
<path d="M20.1018 89.8765C18.7503 89.2567 17.3415 88.9145 15.8091 89.0347C16.693 87.638 19.1742 88.0142 20.3552 89.6468C20.2707 89.7239 20.1863 89.801 20.1018 89.878V89.8765Z" fill="#7EB0D4"/>
</svg>
