<svg width="320" height="128" viewBox="0 0 320 128" fill="none" xmlns="http://www.w3.org/2000/svg">
<g clip-path="url(#clip0_2053_524)">
<path d="M288.652 123H278.984L265.032 103H274.7L288.652 123ZM269.316 123H259.648L245.696 103H255.364L269.316 123ZM249.98 123H240.312L226.36 103H236.028L249.98 123ZM230.644 123H220.976L207.024 103H216.692L230.644 123ZM211.308 123H201.64L187.688 103H197.356L211.308 123ZM191.972 123H182.304L168.352 103H178.02L191.972 123ZM172.636 123H162.968L149.016 103H158.684L172.636 123ZM153.3 123H143.632L129.68 103H139.348L153.3 123ZM133.964 123H124.296L110.344 103H120.012L133.964 123ZM114.628 123H104.96L91.008 103H100.676L114.628 123ZM95.2921 123H85.6241L71.672 103H81.34L95.2921 123ZM75.9561 123H66.2881L52.336 103H62.004L75.9561 123ZM56.6201 123H46.9521L33 103H42.668L56.6201 123Z" fill="#B7AFA5" fill-opacity="0.5"/>
</g>
<path d="M0 0H320V128C320 128 305 42.88 160 42.88C15 42.88 0 128 0 128V0Z" fill="#89C3EB"/>
<mask id="path-3-outside-1_2053_524" maskUnits="userSpaceOnUse" x="19" y="31" width="283" height="26" fill="black">
<rect fill="white" x="19" y="31" width="283" height="26"/>
<path d="M28.8078 55.48C27.2078 55.48 25.7144 55.2027 24.3278 54.648C22.9411 54.072 21.7571 53.112 20.7758 51.768C20.3704 51.192 20.2318 50.6587 20.3598 50.168C20.5091 49.6773 20.8718 49.272 21.4478 48.952C22.0024 48.632 22.5038 48.5467 22.9518 48.696C23.4211 48.824 23.8798 49.1333 24.3278 49.624C24.8611 50.2213 25.5011 50.6907 26.2478 51.032C26.9944 51.352 27.9011 51.512 28.9678 51.512C30.4398 51.512 31.4211 51.2667 31.9118 50.776C32.4024 50.264 32.6478 49.592 32.6478 48.76C32.6478 48.2267 32.5198 47.768 32.2638 47.384C32.0291 47 31.4958 46.6373 30.6638 46.296C29.8531 45.9333 28.5944 45.5493 26.8878 45.144C24.8184 44.6533 23.2931 43.864 22.3118 42.776C21.3304 41.688 20.8398 40.3333 20.8398 38.712C20.8398 37.368 21.1598 36.1947 21.7998 35.192C22.4398 34.1893 23.3358 33.4107 24.4878 32.856C25.6611 32.28 27.0371 31.992 28.6158 31.992C30.2798 31.992 31.7198 32.2907 32.9358 32.888C34.1731 33.4853 35.1864 34.232 35.9757 35.128C36.4024 35.64 36.5624 36.152 36.4558 36.664C36.3491 37.1547 36.0291 37.6027 35.4958 38.008C34.9624 38.4133 34.4611 38.5733 33.9918 38.488C33.5224 38.3813 33.0531 38.0933 32.5838 37.624C32.1144 37.1547 31.5598 36.76 30.9198 36.44C30.2798 36.12 29.4904 35.96 28.5518 35.96C27.5491 35.96 26.7278 36.1733 26.0878 36.6C25.4691 37.0053 25.1598 37.6453 25.1598 38.52C25.1598 38.8613 25.2451 39.2133 25.4158 39.576C25.6078 39.9173 26.0344 40.2587 26.6958 40.6C27.3784 40.9413 28.4558 41.2933 29.9278 41.656C32.4238 42.2533 34.2264 43.1493 35.3358 44.344C36.4664 45.5173 37.0318 46.968 37.0318 48.696C37.0318 50.8933 36.2851 52.5787 34.7917 53.752C33.3198 54.904 31.3251 55.48 28.8078 55.48ZM42.5655 55C41.2428 55 40.5815 54.3387 40.5815 53.016V34.584C40.5815 33.2613 41.2428 32.6 42.5655 32.6H42.7575C44.0802 32.6 44.7415 33.2613 44.7415 34.584V41.272H54.3095V34.584C54.3095 33.2613 54.9708 32.6 56.2935 32.6H56.5175C57.8402 32.6 58.5015 33.2613 58.5015 34.584V53.016C58.5015 54.3387 57.8402 55 56.5175 55H56.2935C54.9708 55 54.3095 54.3387 54.3095 53.016V45.112H44.7415V53.016C44.7415 54.3387 44.0802 55 42.7575 55H42.5655ZM72.241 55.544C70.2143 55.544 68.401 55.064 66.801 54.104C65.201 53.144 63.9423 51.7893 63.025 50.04C62.129 48.2693 61.681 46.1893 61.681 43.8C61.681 41.3893 62.129 39.3093 63.025 37.56C63.9423 35.7893 65.201 34.424 66.801 33.464C68.401 32.4827 70.2143 31.992 72.241 31.992C74.2677 31.992 76.0703 32.4827 77.649 33.464C79.249 34.424 80.497 35.7893 81.393 37.56C82.3103 39.3093 82.769 41.3893 82.769 43.8C82.769 46.1893 82.3103 48.2693 81.393 50.04C80.497 51.7893 79.249 53.144 77.649 54.104C76.0703 55.064 74.2677 55.544 72.241 55.544ZM72.241 51.512C73.521 51.512 74.6197 51.192 75.537 50.552C76.4757 49.8907 77.1903 48.984 77.681 47.832C78.193 46.68 78.449 45.336 78.449 43.8C78.449 42.2427 78.193 40.888 77.681 39.736C77.1903 38.584 76.4757 37.688 75.537 37.048C74.6197 36.3867 73.521 36.056 72.241 36.056C70.9823 36.056 69.8837 36.3867 68.945 37.048C68.0277 37.688 67.313 38.584 66.801 39.736C66.289 40.888 66.033 42.2427 66.033 43.8C66.033 45.336 66.289 46.68 66.801 47.832C67.313 48.984 68.0277 49.8907 68.945 50.552C69.8837 51.192 70.9823 51.512 72.241 51.512ZM93.4588 55.096C92.8614 55.096 92.3068 54.9467 91.7948 54.648C91.2828 54.3493 90.9201 53.9013 90.7068 53.304L84.3068 35.032C84.0294 34.264 84.0294 33.6667 84.3068 33.24C84.5841 32.8133 85.1814 32.6 86.0988 32.6C87.3148 32.6 88.1148 33.176 88.4988 34.328L93.4268 49.4L98.3868 34.328C98.7708 33.176 99.5921 32.6 100.851 32.6C101.619 32.6 102.152 32.824 102.451 33.272C102.771 33.6987 102.803 34.2853 102.547 35.032L96.1468 53.304C95.9334 53.9013 95.5708 54.3493 95.0588 54.648C94.5468 54.9467 94.0134 55.096 93.4588 55.096ZM107.912 55C106.504 55 105.8 54.296 105.8 52.888V34.712C105.8 33.304 106.504 32.6 107.912 32.6H118.952C120.36 32.6 121.064 33.24 121.064 34.52C121.064 35.8 120.36 36.44 118.952 36.44H109.96V41.656H117.992C119.4 41.656 120.104 42.296 120.104 43.576C120.104 44.856 119.4 45.496 117.992 45.496H109.96V51.16H119.304C120.712 51.16 121.416 51.8 121.416 53.08C121.416 54.36 120.712 55 119.304 55H107.912ZM126.725 55C125.317 55 124.613 54.296 124.613 52.888V34.712C124.613 33.304 125.306 32.6 126.693 32.6C128.079 32.6 128.773 33.304 128.773 34.712V51.16H138.149C139.557 51.16 140.261 51.8 140.261 53.08C140.261 54.36 139.557 55 138.149 55H126.725ZM154.006 55C152.598 55 151.894 54.296 151.894 52.888V34.712C151.894 33.304 152.598 32.6 154.006 32.6H165.046C166.454 32.6 167.158 33.24 167.158 34.52C167.158 35.8 166.454 36.44 165.046 36.44H156.054V41.656H164.086C165.494 41.656 166.198 42.296 166.198 43.576C166.198 44.856 165.494 45.496 164.086 45.496H156.054V51.16H165.398C166.806 51.16 167.51 51.8 167.51 53.08C167.51 54.36 166.806 55 165.398 55H154.006ZM172.786 55C171.4 55 170.707 54.296 170.707 52.888V34.712C170.707 33.304 171.4 32.6 172.786 32.6H173.235C174.301 32.6 175.144 33.0587 175.763 33.976L184.883 47.736V34.712C184.883 33.304 185.587 32.6 186.995 32.6C188.381 32.6 189.075 33.304 189.075 34.712V52.888C189.075 54.296 188.413 55 187.091 55H186.739C185.629 55 184.787 54.5413 184.211 53.624L174.867 39.352V52.888C174.867 54.296 174.173 55 172.786 55ZM202.644 55.544C200.617 55.544 198.814 55.064 197.236 54.104C195.678 53.144 194.452 51.7893 193.556 50.04C192.681 48.2693 192.243 46.1893 192.243 43.8C192.243 41.3893 192.681 39.3093 193.556 37.56C194.452 35.7893 195.678 34.424 197.236 33.464C198.814 32.4827 200.617 31.992 202.644 31.992C203.902 31.992 205.086 32.1627 206.196 32.504C207.326 32.8453 208.329 33.2933 209.204 33.848C209.78 34.2107 210.089 34.6587 210.132 35.192C210.174 35.704 209.982 36.2267 209.556 36.76C209.15 37.2933 208.702 37.5707 208.212 37.592C207.742 37.6133 207.22 37.4533 206.644 37.112C206.068 36.792 205.438 36.536 204.756 36.344C204.073 36.152 203.369 36.056 202.644 36.056C201.385 36.056 200.297 36.3867 199.38 37.048C198.484 37.688 197.79 38.584 197.3 39.736C196.83 40.888 196.596 42.2427 196.596 43.8C196.596 45.336 196.83 46.68 197.3 47.832C197.79 48.984 198.484 49.8907 199.38 50.552C200.297 51.192 201.385 51.512 202.644 51.512C203.625 51.512 204.425 51.4267 205.044 51.256C205.662 51.064 206.185 50.8293 206.612 50.552V46.232H205.332C203.924 46.232 203.22 45.592 203.22 44.312C203.22 43.032 203.924 42.392 205.332 42.392H208.724C210.132 42.392 210.836 43.096 210.836 44.504V51.64C210.836 52.216 210.74 52.7067 210.548 53.112C210.356 53.496 210.014 53.8053 209.524 54.04C208.542 54.5307 207.454 54.904 206.26 55.16C205.065 55.416 203.86 55.544 202.644 55.544ZM216.693 55C215.306 55 214.613 54.296 214.613 52.888V34.712C214.613 33.304 215.306 32.6 216.693 32.6C218.079 32.6 218.773 33.304 218.773 34.712V52.888C218.773 54.296 218.079 55 216.693 55ZM225.13 55C223.744 55 223.05 54.296 223.05 52.888V34.712C223.05 33.304 223.744 32.6 225.13 32.6H225.578C226.645 32.6 227.488 33.0587 228.106 33.976L237.226 47.736V34.712C237.226 33.304 237.93 32.6 239.338 32.6C240.725 32.6 241.418 33.304 241.418 34.712V52.888C241.418 54.296 240.757 55 239.434 55H239.082C237.973 55 237.13 54.5413 236.554 53.624L227.21 39.352V52.888C227.21 54.296 226.517 55 225.13 55ZM247.787 55C246.379 55 245.675 54.296 245.675 52.888V34.712C245.675 33.304 246.379 32.6 247.787 32.6H258.827C260.235 32.6 260.939 33.24 260.939 34.52C260.939 35.8 260.235 36.44 258.827 36.44H249.835V41.656H257.867C259.275 41.656 259.979 42.296 259.979 43.576C259.979 44.856 259.275 45.496 257.867 45.496H249.835V51.16H259.179C260.587 51.16 261.291 51.8 261.291 53.08C261.291 54.36 260.587 55 259.179 55H247.787ZM266.6 55C265.192 55 264.488 54.296 264.488 52.888V34.712C264.488 33.304 265.192 32.6 266.6 32.6H277.64C279.048 32.6 279.752 33.24 279.752 34.52C279.752 35.8 279.048 36.44 277.64 36.44H268.648V41.656H276.68C278.088 41.656 278.792 42.296 278.792 43.576C278.792 44.856 278.088 45.496 276.68 45.496H268.648V51.16H277.992C279.4 51.16 280.104 51.8 280.104 53.08C280.104 54.36 279.4 55 277.992 55H266.6ZM285.38 55C283.994 55 283.3 54.296 283.3 52.888V34.712C283.3 33.304 284.004 32.6 285.412 32.6H293.668C295.076 32.6 296.292 32.8133 297.316 33.24C298.362 33.6667 299.162 34.36 299.716 35.32C300.292 36.28 300.58 37.5707 300.58 39.192C300.58 41.1973 300.143 42.712 299.268 43.736C298.415 44.7387 297.231 45.3787 295.716 45.656L299.044 52.504C299.407 53.2293 299.471 53.8267 299.236 54.296C299.023 54.7653 298.564 55 297.86 55H297.188C296.015 55 295.194 54.4667 294.724 53.4L291.46 45.848H287.46V52.888C287.46 54.296 286.767 55 285.38 55ZM287.46 41.976H293.092C294.052 41.976 294.81 41.7627 295.364 41.336C295.919 40.9093 296.196 40.1947 296.196 39.192C296.196 38.2107 295.919 37.5067 295.364 37.08C294.81 36.6533 294.052 36.44 293.092 36.44H287.46V41.976Z"/>
</mask>
<path d="M28.8078 55.48C27.2078 55.48 25.7144 55.2027 24.3278 54.648C22.9411 54.072 21.7571 53.112 20.7758 51.768C20.3704 51.192 20.2318 50.6587 20.3598 50.168C20.5091 49.6773 20.8718 49.272 21.4478 48.952C22.0024 48.632 22.5038 48.5467 22.9518 48.696C23.4211 48.824 23.8798 49.1333 24.3278 49.624C24.8611 50.2213 25.5011 50.6907 26.2478 51.032C26.9944 51.352 27.9011 51.512 28.9678 51.512C30.4398 51.512 31.4211 51.2667 31.9118 50.776C32.4024 50.264 32.6478 49.592 32.6478 48.76C32.6478 48.2267 32.5198 47.768 32.2638 47.384C32.0291 47 31.4958 46.6373 30.6638 46.296C29.8531 45.9333 28.5944 45.5493 26.8878 45.144C24.8184 44.6533 23.2931 43.864 22.3118 42.776C21.3304 41.688 20.8398 40.3333 20.8398 38.712C20.8398 37.368 21.1598 36.1947 21.7998 35.192C22.4398 34.1893 23.3358 33.4107 24.4878 32.856C25.6611 32.28 27.0371 31.992 28.6158 31.992C30.2798 31.992 31.7198 32.2907 32.9358 32.888C34.1731 33.4853 35.1864 34.232 35.9757 35.128C36.4024 35.64 36.5624 36.152 36.4558 36.664C36.3491 37.1547 36.0291 37.6027 35.4958 38.008C34.9624 38.4133 34.4611 38.5733 33.9918 38.488C33.5224 38.3813 33.0531 38.0933 32.5838 37.624C32.1144 37.1547 31.5598 36.76 30.9198 36.44C30.2798 36.12 29.4904 35.96 28.5518 35.96C27.5491 35.96 26.7278 36.1733 26.0878 36.6C25.4691 37.0053 25.1598 37.6453 25.1598 38.52C25.1598 38.8613 25.2451 39.2133 25.4158 39.576C25.6078 39.9173 26.0344 40.2587 26.6958 40.6C27.3784 40.9413 28.4558 41.2933 29.9278 41.656C32.4238 42.2533 34.2264 43.1493 35.3358 44.344C36.4664 45.5173 37.0318 46.968 37.0318 48.696C37.0318 50.8933 36.2851 52.5787 34.7917 53.752C33.3198 54.904 31.3251 55.48 28.8078 55.48ZM42.5655 55C41.2428 55 40.5815 54.3387 40.5815 53.016V34.584C40.5815 33.2613 41.2428 32.6 42.5655 32.6H42.7575C44.0802 32.6 44.7415 33.2613 44.7415 34.584V41.272H54.3095V34.584C54.3095 33.2613 54.9708 32.6 56.2935 32.6H56.5175C57.8402 32.6 58.5015 33.2613 58.5015 34.584V53.016C58.5015 54.3387 57.8402 55 56.5175 55H56.2935C54.9708 55 54.3095 54.3387 54.3095 53.016V45.112H44.7415V53.016C44.7415 54.3387 44.0802 55 42.7575 55H42.5655ZM72.241 55.544C70.2143 55.544 68.401 55.064 66.801 54.104C65.201 53.144 63.9423 51.7893 63.025 50.04C62.129 48.2693 61.681 46.1893 61.681 43.8C61.681 41.3893 62.129 39.3093 63.025 37.56C63.9423 35.7893 65.201 34.424 66.801 33.464C68.401 32.4827 70.2143 31.992 72.241 31.992C74.2677 31.992 76.0703 32.4827 77.649 33.464C79.249 34.424 80.497 35.7893 81.393 37.56C82.3103 39.3093 82.769 41.3893 82.769 43.8C82.769 46.1893 82.3103 48.2693 81.393 50.04C80.497 51.7893 79.249 53.144 77.649 54.104C76.0703 55.064 74.2677 55.544 72.241 55.544ZM72.241 51.512C73.521 51.512 74.6197 51.192 75.537 50.552C76.4757 49.8907 77.1903 48.984 77.681 47.832C78.193 46.68 78.449 45.336 78.449 43.8C78.449 42.2427 78.193 40.888 77.681 39.736C77.1903 38.584 76.4757 37.688 75.537 37.048C74.6197 36.3867 73.521 36.056 72.241 36.056C70.9823 36.056 69.8837 36.3867 68.945 37.048C68.0277 37.688 67.313 38.584 66.801 39.736C66.289 40.888 66.033 42.2427 66.033 43.8C66.033 45.336 66.289 46.68 66.801 47.832C67.313 48.984 68.0277 49.8907 68.945 50.552C69.8837 51.192 70.9823 51.512 72.241 51.512ZM93.4588 55.096C92.8614 55.096 92.3068 54.9467 91.7948 54.648C91.2828 54.3493 90.9201 53.9013 90.7068 53.304L84.3068 35.032C84.0294 34.264 84.0294 33.6667 84.3068 33.24C84.5841 32.8133 85.1814 32.6 86.0988 32.6C87.3148 32.6 88.1148 33.176 88.4988 34.328L93.4268 49.4L98.3868 34.328C98.7708 33.176 99.5921 32.6 100.851 32.6C101.619 32.6 102.152 32.824 102.451 33.272C102.771 33.6987 102.803 34.2853 102.547 35.032L96.1468 53.304C95.9334 53.9013 95.5708 54.3493 95.0588 54.648C94.5468 54.9467 94.0134 55.096 93.4588 55.096ZM107.912 55C106.504 55 105.8 54.296 105.8 52.888V34.712C105.8 33.304 106.504 32.6 107.912 32.6H118.952C120.36 32.6 121.064 33.24 121.064 34.52C121.064 35.8 120.36 36.44 118.952 36.44H109.96V41.656H117.992C119.4 41.656 120.104 42.296 120.104 43.576C120.104 44.856 119.4 45.496 117.992 45.496H109.96V51.16H119.304C120.712 51.16 121.416 51.8 121.416 53.08C121.416 54.36 120.712 55 119.304 55H107.912ZM126.725 55C125.317 55 124.613 54.296 124.613 52.888V34.712C124.613 33.304 125.306 32.6 126.693 32.6C128.079 32.6 128.773 33.304 128.773 34.712V51.16H138.149C139.557 51.16 140.261 51.8 140.261 53.08C140.261 54.36 139.557 55 138.149 55H126.725ZM154.006 55C152.598 55 151.894 54.296 151.894 52.888V34.712C151.894 33.304 152.598 32.6 154.006 32.6H165.046C166.454 32.6 167.158 33.24 167.158 34.52C167.158 35.8 166.454 36.44 165.046 36.44H156.054V41.656H164.086C165.494 41.656 166.198 42.296 166.198 43.576C166.198 44.856 165.494 45.496 164.086 45.496H156.054V51.16H165.398C166.806 51.16 167.51 51.8 167.51 53.08C167.51 54.36 166.806 55 165.398 55H154.006ZM172.786 55C171.4 55 170.707 54.296 170.707 52.888V34.712C170.707 33.304 171.4 32.6 172.786 32.6H173.235C174.301 32.6 175.144 33.0587 175.763 33.976L184.883 47.736V34.712C184.883 33.304 185.587 32.6 186.995 32.6C188.381 32.6 189.075 33.304 189.075 34.712V52.888C189.075 54.296 188.413 55 187.091 55H186.739C185.629 55 184.787 54.5413 184.211 53.624L174.867 39.352V52.888C174.867 54.296 174.173 55 172.786 55ZM202.644 55.544C200.617 55.544 198.814 55.064 197.236 54.104C195.678 53.144 194.452 51.7893 193.556 50.04C192.681 48.2693 192.243 46.1893 192.243 43.8C192.243 41.3893 192.681 39.3093 193.556 37.56C194.452 35.7893 195.678 34.424 197.236 33.464C198.814 32.4827 200.617 31.992 202.644 31.992C203.902 31.992 205.086 32.1627 206.196 32.504C207.326 32.8453 208.329 33.2933 209.204 33.848C209.78 34.2107 210.089 34.6587 210.132 35.192C210.174 35.704 209.982 36.2267 209.556 36.76C209.15 37.2933 208.702 37.5707 208.212 37.592C207.742 37.6133 207.22 37.4533 206.644 37.112C206.068 36.792 205.438 36.536 204.756 36.344C204.073 36.152 203.369 36.056 202.644 36.056C201.385 36.056 200.297 36.3867 199.38 37.048C198.484 37.688 197.79 38.584 197.3 39.736C196.83 40.888 196.596 42.2427 196.596 43.8C196.596 45.336 196.83 46.68 197.3 47.832C197.79 48.984 198.484 49.8907 199.38 50.552C200.297 51.192 201.385 51.512 202.644 51.512C203.625 51.512 204.425 51.4267 205.044 51.256C205.662 51.064 206.185 50.8293 206.612 50.552V46.232H205.332C203.924 46.232 203.22 45.592 203.22 44.312C203.22 43.032 203.924 42.392 205.332 42.392H208.724C210.132 42.392 210.836 43.096 210.836 44.504V51.64C210.836 52.216 210.74 52.7067 210.548 53.112C210.356 53.496 210.014 53.8053 209.524 54.04C208.542 54.5307 207.454 54.904 206.26 55.16C205.065 55.416 203.86 55.544 202.644 55.544ZM216.693 55C215.306 55 214.613 54.296 214.613 52.888V34.712C214.613 33.304 215.306 32.6 216.693 32.6C218.079 32.6 218.773 33.304 218.773 34.712V52.888C218.773 54.296 218.079 55 216.693 55ZM225.13 55C223.744 55 223.05 54.296 223.05 52.888V34.712C223.05 33.304 223.744 32.6 225.13 32.6H225.578C226.645 32.6 227.488 33.0587 228.106 33.976L237.226 47.736V34.712C237.226 33.304 237.93 32.6 239.338 32.6C240.725 32.6 241.418 33.304 241.418 34.712V52.888C241.418 54.296 240.757 55 239.434 55H239.082C237.973 55 237.13 54.5413 236.554 53.624L227.21 39.352V52.888C227.21 54.296 226.517 55 225.13 55ZM247.787 55C246.379 55 245.675 54.296 245.675 52.888V34.712C245.675 33.304 246.379 32.6 247.787 32.6H258.827C260.235 32.6 260.939 33.24 260.939 34.52C260.939 35.8 260.235 36.44 258.827 36.44H249.835V41.656H257.867C259.275 41.656 259.979 42.296 259.979 43.576C259.979 44.856 259.275 45.496 257.867 45.496H249.835V51.16H259.179C260.587 51.16 261.291 51.8 261.291 53.08C261.291 54.36 260.587 55 259.179 55H247.787ZM266.6 55C265.192 55 264.488 54.296 264.488 52.888V34.712C264.488 33.304 265.192 32.6 266.6 32.6H277.64C279.048 32.6 279.752 33.24 279.752 34.52C279.752 35.8 279.048 36.44 277.64 36.44H268.648V41.656H276.68C278.088 41.656 278.792 42.296 278.792 43.576C278.792 44.856 278.088 45.496 276.68 45.496H268.648V51.16H277.992C279.4 51.16 280.104 51.8 280.104 53.08C280.104 54.36 279.4 55 277.992 55H266.6ZM285.38 55C283.994 55 283.3 54.296 283.3 52.888V34.712C283.3 33.304 284.004 32.6 285.412 32.6H293.668C295.076 32.6 296.292 32.8133 297.316 33.24C298.362 33.6667 299.162 34.36 299.716 35.32C300.292 36.28 300.58 37.5707 300.58 39.192C300.58 41.1973 300.143 42.712 299.268 43.736C298.415 44.7387 297.231 45.3787 295.716 45.656L299.044 52.504C299.407 53.2293 299.471 53.8267 299.236 54.296C299.023 54.7653 298.564 55 297.86 55H297.188C296.015 55 295.194 54.4667 294.724 53.4L291.46 45.848H287.46V52.888C287.46 54.296 286.767 55 285.38 55ZM287.46 41.976H293.092C294.052 41.976 294.81 41.7627 295.364 41.336C295.919 40.9093 296.196 40.1947 296.196 39.192C296.196 38.2107 295.919 37.5067 295.364 37.08C294.81 36.6533 294.052 36.44 293.092 36.44H287.46V41.976Z" fill="white"/>
<path d="M24.3278 54.648L24.1359 55.1098L24.1421 55.1122L24.3278 54.648ZM20.7758 51.768L20.3668 52.0558L20.3719 52.0628L20.7758 51.768ZM20.3598 50.168L19.8814 50.0224L19.8785 50.032L19.8759 50.0418L20.3598 50.168ZM21.4478 48.952L21.6906 49.3891L21.6976 49.3851L21.4478 48.952ZM22.9518 48.696L22.7936 49.1703L22.8068 49.1747L22.8202 49.1784L22.9518 48.696ZM24.3278 49.624L24.7007 49.291L24.697 49.2869L24.3278 49.624ZM26.2478 51.032L26.0398 51.4869L26.0508 51.4916L26.2478 51.032ZM31.9118 50.776L32.2654 51.1296L32.2727 51.122L31.9118 50.776ZM32.2638 47.384L31.8371 47.6447L31.8423 47.6531L31.8477 47.6614L32.2638 47.384ZM30.6638 46.296L30.4596 46.7524L30.4667 46.7556L30.474 46.7586L30.6638 46.296ZM26.8878 45.144L27.0033 44.6575L27.0031 44.6575L26.8878 45.144ZM22.3118 42.776L22.683 42.4411L22.3118 42.776ZM21.7998 35.192L21.3783 34.923L21.7998 35.192ZM24.4878 32.856L24.7047 33.3065L24.7081 33.3048L24.4878 32.856ZM32.9358 32.888L32.7153 33.3368L32.7184 33.3383L32.9358 32.888ZM35.9757 35.128L36.36 34.8078L36.3509 34.7975L35.9757 35.128ZM36.4558 36.664L36.9444 36.7702L36.9452 36.766L36.4558 36.664ZM35.4958 38.008L35.1932 37.6099L35.4958 38.008ZM33.9918 38.488L33.8809 38.9756L33.8916 38.978L33.9023 38.9799L33.9918 38.488ZM32.5838 37.624L32.9373 37.2704H32.9373L32.5838 37.624ZM30.9198 36.44L31.1434 35.9928L30.9198 36.44ZM26.0878 36.6L26.3618 37.0182L26.3651 37.016L26.0878 36.6ZM25.4158 39.576L24.9633 39.7889L24.9711 39.8053L24.98 39.8211L25.4158 39.576ZM26.6958 40.6L26.4664 41.0443L26.4721 41.0472L26.6958 40.6ZM29.9278 41.656L29.8081 42.1415L29.8114 42.1423L29.9278 41.656ZM35.3358 44.344L34.9693 44.6843L34.9757 44.6909L35.3358 44.344ZM34.7917 53.752L35.0999 54.1458L35.1007 54.1452L34.7917 53.752ZM28.8078 54.98C27.2668 54.98 25.8369 54.7132 24.5134 54.1838L24.1421 55.1122C25.5919 55.6922 27.1487 55.98 28.8078 55.98V54.98ZM24.5196 54.1863C23.2265 53.6491 22.1129 52.7514 21.1796 51.4732L20.3719 52.0628C21.4013 53.4726 22.6557 54.4949 24.1359 55.1097L24.5196 54.1863ZM21.1847 51.4803C20.8295 50.9756 20.7655 50.5934 20.8436 50.2942L19.8759 50.0418C19.698 50.7239 19.9113 51.4084 20.3668 52.0557L21.1847 51.4803ZM20.8381 50.3136C20.9398 49.9794 21.1943 49.6648 21.6906 49.3891L21.2049 48.5149C20.5492 48.8792 20.0784 49.3753 19.8814 50.0224L20.8381 50.3136ZM21.6976 49.3851C22.1746 49.1099 22.5247 49.0807 22.7936 49.1703L23.1099 48.2217C22.4828 48.0126 21.8302 48.1541 21.1979 48.5189L21.6976 49.3851ZM22.8202 49.1784C23.1705 49.2739 23.5518 49.5157 23.9585 49.9611L24.697 49.2869C24.2077 48.751 23.6717 48.3741 23.0833 48.2136L22.8202 49.1784ZM23.9548 49.957C24.5353 50.6072 25.232 51.1174 26.0399 51.4867L26.4556 50.5773C25.7702 50.2639 25.1868 49.8355 24.7007 49.291L23.9548 49.957ZM26.0508 51.4916C26.8759 51.8452 27.8535 52.012 28.9678 52.012V51.012C27.9486 51.012 27.1129 50.8588 26.4447 50.5724L26.0508 51.4916ZM28.9678 52.012C29.7279 52.012 30.3852 51.949 30.929 51.8131C31.4698 51.6779 31.933 51.4618 32.2653 51.1296L31.5582 50.4224C31.3998 50.5808 31.127 50.7328 30.6865 50.8429C30.249 50.9523 29.6796 51.012 28.9678 51.012V52.012ZM32.2727 51.122C32.8679 50.5009 33.1478 49.697 33.1478 48.76H32.1478C32.1478 49.487 31.9369 50.0271 31.5508 50.43L32.2727 51.122ZM33.1478 48.76C33.1478 48.1437 32.9987 47.585 32.6798 47.1066L31.8477 47.6614C32.0408 47.951 32.1478 48.3096 32.1478 48.76H33.1478ZM32.6904 47.1233C32.3672 46.5944 31.7019 46.1815 30.8535 45.8334L30.474 46.7586C31.2896 47.0932 31.691 47.4056 31.8371 47.6447L32.6904 47.1233ZM30.8679 45.8396C30.013 45.4571 28.717 45.0645 27.0033 44.6575L26.7722 45.6305C28.4718 46.0341 29.6932 46.4096 30.4596 46.7524L30.8679 45.8396ZM27.0031 44.6575C24.99 44.1802 23.5721 43.4268 22.683 42.4411L21.9405 43.1109C23.0141 44.3012 24.6468 45.1265 26.7724 45.6305L27.0031 44.6575ZM22.683 42.4411C21.7936 41.455 21.3398 40.2239 21.3398 38.712H20.3398C20.3398 40.4428 20.8672 41.921 21.9405 43.1109L22.683 42.4411ZM21.3398 38.712C21.3398 37.4506 21.6389 36.3732 22.2212 35.461L21.3783 34.923C20.6806 36.0161 20.3398 37.2854 20.3398 38.712H21.3398ZM22.2212 35.461C22.8075 34.5426 23.6299 33.824 24.7047 33.3065L24.2708 32.4055C23.0416 32.9973 22.072 33.8361 21.3783 34.923L22.2212 35.461ZM24.7081 33.3048C25.8001 32.7688 27.0978 32.492 28.6158 32.492V31.492C26.9764 31.492 25.5221 31.7912 24.2674 32.4072L24.7081 33.3048ZM28.6158 32.492C30.2204 32.492 31.5818 32.78 32.7153 33.3368L33.1562 32.4392C31.8577 31.8014 30.3391 31.492 28.6158 31.492V32.492ZM32.7184 33.3383C33.9046 33.9109 34.8615 34.6195 35.6006 35.4585L36.3509 34.7975C35.5114 33.8445 34.4415 33.0597 33.1531 32.4377L32.7184 33.3383ZM35.5916 35.4481C35.9499 35.8779 36.0335 36.2391 35.9663 36.562L36.9452 36.766C37.0913 36.0649 36.855 35.4021 36.3599 34.8079L35.5916 35.4481ZM35.9672 36.5578C35.8932 36.8981 35.6637 37.2523 35.1932 37.6099L35.7983 38.4061C36.3944 37.953 36.805 37.4112 36.9443 36.7702L35.9672 36.5578ZM35.1932 37.6099C34.7252 37.9656 34.364 38.0475 34.0812 37.9961L33.9023 38.9799C34.5582 39.0992 35.1997 38.861 35.7983 38.4061L35.1932 37.6099ZM34.1026 38.0004C33.7538 37.9212 33.3643 37.6974 32.9373 37.2704L32.2302 37.9776C32.7419 38.4892 33.2911 38.8415 33.8809 38.9756L34.1026 38.0004ZM32.9373 37.2704C32.4271 36.7603 31.8277 36.3349 31.1434 35.9928L30.6961 36.8872C31.2918 37.1851 31.8017 37.5491 32.2302 37.9776L32.9373 37.2704ZM31.1434 35.9928C30.4157 35.629 29.5448 35.46 28.5518 35.46V36.46C29.4361 36.46 30.1438 36.611 30.6961 36.8872L31.1434 35.9928ZM28.5518 35.46C27.48 35.46 26.5541 35.6882 25.8104 36.184L26.3651 37.016C26.9014 36.6585 27.6182 36.46 28.5518 36.46V35.46ZM25.8137 36.1818C25.0266 36.6975 24.6598 37.5124 24.6598 38.52H25.6598C25.6598 37.7783 25.9115 37.3132 26.3618 37.0182L25.8137 36.1818ZM24.6598 38.52C24.6598 38.9467 24.7668 39.3711 24.9633 39.7889L25.8682 39.3631C25.7234 39.0555 25.6598 38.776 25.6598 38.52H24.6598ZM24.98 39.8211C25.2465 40.295 25.7844 40.6923 26.4664 41.0443L26.9251 40.1557C26.2844 39.825 25.969 39.5396 25.8515 39.3309L24.98 39.8211ZM26.4721 41.0472C27.2064 41.4143 28.3281 41.7768 29.8081 42.1415L30.0474 41.1705C28.5834 40.8098 27.5504 40.4683 26.9194 40.1528L26.4721 41.0472ZM29.8114 42.1423C32.2621 42.7288 33.9555 43.5924 34.9694 44.6842L35.7021 44.0038C34.4973 42.7063 32.5854 41.7779 30.0441 41.1697L29.8114 42.1423ZM34.9757 44.6909C36.0108 45.7651 36.5318 47.0888 36.5318 48.696H37.5318C37.5318 46.8472 36.9221 45.2696 35.6958 43.9971L34.9757 44.6909ZM36.5318 48.696C36.5318 50.7671 35.8357 52.2959 34.4828 53.3588L35.1007 54.1452C36.7345 52.8614 37.5318 51.0196 37.5318 48.696H36.5318ZM34.4836 53.3582C33.1257 54.4209 31.2519 54.98 28.8078 54.98V55.98C31.3983 55.98 33.5138 55.3871 35.0999 54.1458L34.4836 53.3582ZM44.7415 41.272H44.2415V41.772H44.7415V41.272ZM54.3095 41.272V41.772H54.8095V41.272H54.3095ZM54.3095 45.112H54.8095V44.612H54.3095V45.112ZM44.7415 45.112V44.612H44.2415V45.112H44.7415ZM42.5655 54.5C41.9812 54.5 41.6349 54.3543 41.4311 54.1504C41.2272 53.9466 41.0815 53.6003 41.0815 53.016H40.0815C40.0815 53.7544 40.2664 54.4 40.7239 54.8576C41.1815 55.3151 41.8271 55.5 42.5655 55.5V54.5ZM41.0815 53.016V34.584H40.0815V53.016H41.0815ZM41.0815 34.584C41.0815 33.9997 41.2272 33.6534 41.4311 33.4496C41.6349 33.2457 41.9812 33.1 42.5655 33.1V32.1C41.8271 32.1 41.1815 32.2849 40.7239 32.7424C40.2664 33.2 40.0815 33.8456 40.0815 34.584H41.0815ZM42.5655 33.1H42.7575V32.1H42.5655V33.1ZM42.7575 33.1C43.3418 33.1 43.6881 33.2457 43.8919 33.4496C44.0958 33.6534 44.2415 33.9997 44.2415 34.584H45.2415C45.2415 33.8456 45.0566 33.2 44.5991 32.7424C44.1415 32.2849 43.4959 32.1 42.7575 32.1V33.1ZM44.2415 34.584V41.272H45.2415V34.584H44.2415ZM44.7415 41.772H54.3095V40.772H44.7415V41.772ZM54.8095 41.272V34.584H53.8095V41.272H54.8095ZM54.8095 34.584C54.8095 33.9997 54.9552 33.6534 55.1591 33.4496C55.3629 33.2457 55.7092 33.1 56.2935 33.1V32.1C55.5551 32.1 54.9095 32.2849 54.4519 32.7424C53.9944 33.2 53.8095 33.8456 53.8095 34.584H54.8095ZM56.2935 33.1H56.5175V32.1H56.2935V33.1ZM56.5175 33.1C57.1018 33.1 57.4481 33.2457 57.6519 33.4496C57.8558 33.6534 58.0015 33.9997 58.0015 34.584H59.0015C59.0015 33.8456 58.8166 33.2 58.3591 32.7424C57.9015 32.2849 57.2559 32.1 56.5175 32.1V33.1ZM58.0015 34.584V53.016H59.0015V34.584H58.0015ZM58.0015 53.016C58.0015 53.6003 57.8558 53.9466 57.6519 54.1504C57.4481 54.3543 57.1018 54.5 56.5175 54.5V55.5C57.2559 55.5 57.9015 55.3151 58.3591 54.8576C58.8166 54.4 59.0015 53.7544 59.0015 53.016H58.0015ZM56.5175 54.5H56.2935V55.5H56.5175V54.5ZM56.2935 54.5C55.7092 54.5 55.3629 54.3543 55.1591 54.1504C54.9552 53.9466 54.8095 53.6003 54.8095 53.016H53.8095C53.8095 53.7544 53.9944 54.4 54.4519 54.8576C54.9095 55.3151 55.5551 55.5 56.2935 55.5V54.5ZM54.8095 53.016V45.112H53.8095V53.016H54.8095ZM54.3095 44.612H44.7415V45.612H54.3095V44.612ZM44.2415 45.112V53.016H45.2415V45.112H44.2415ZM44.2415 53.016C44.2415 53.6003 44.0958 53.9466 43.8919 54.1504C43.6881 54.3543 43.3418 54.5 42.7575 54.5V55.5C43.4959 55.5 44.1415 55.3151 44.5991 54.8576C45.0566 54.4 45.2415 53.7544 45.2415 53.016H44.2415ZM42.7575 54.5H42.5655V55.5H42.7575V54.5ZM66.801 54.104L66.5438 54.5327L66.801 54.104ZM63.025 50.04L62.5788 50.2658L62.5822 50.2722L63.025 50.04ZM63.025 37.56L62.581 37.33L62.58 37.3321L63.025 37.56ZM66.801 33.464L67.0583 33.8928L67.0624 33.8902L66.801 33.464ZM77.649 33.464L77.385 33.8887L77.3918 33.8927L77.649 33.464ZM81.393 37.56L80.9468 37.7858L80.9502 37.7922L81.393 37.56ZM81.393 50.04L80.949 49.81L80.948 49.8121L81.393 50.04ZM77.649 54.104L77.3917 53.6752L77.3892 53.6768L77.649 54.104ZM75.537 50.552L75.8231 50.9621L75.825 50.9607L75.537 50.552ZM77.681 47.832L77.224 47.6289L77.221 47.6361L77.681 47.832ZM77.681 39.736L77.2209 39.932L77.2241 39.9391L77.681 39.736ZM75.537 37.048L75.2445 37.4537L75.2553 37.4611L75.537 37.048ZM68.945 37.048L69.2311 37.4581L69.233 37.4567L68.945 37.048ZM66.801 39.736L66.3441 39.5329L66.801 39.736ZM66.801 47.832L66.3441 48.0351L66.801 47.832ZM68.945 50.552L68.6525 50.9577L68.6633 50.9651L68.945 50.552ZM72.241 55.044C70.2969 55.044 68.5739 54.5846 67.0582 53.6753L66.5438 54.5327C68.2281 55.5434 70.1318 56.044 72.241 56.044V55.044ZM67.0582 53.6753C65.5417 52.7653 64.3451 51.4808 63.4678 49.8078L62.5822 50.2722C63.5396 52.0979 64.8603 53.5227 66.5438 54.5327L67.0582 53.6753ZM63.4711 49.8142C62.6171 48.1264 62.181 46.1267 62.181 43.8H61.181C61.181 46.2519 61.6409 48.4122 62.5789 50.2658L63.4711 49.8142ZM62.181 43.8C62.181 41.4509 62.6174 39.4525 63.47 37.7879L62.58 37.3321C61.6406 39.1662 61.181 41.3277 61.181 43.8H62.181ZM63.469 37.79C64.3467 36.0957 65.5432 34.8018 67.0582 33.8927L66.5438 33.0353C64.8588 34.0462 63.5379 35.483 62.581 37.33L63.469 37.79ZM67.0624 33.8902C68.5775 32.961 70.299 32.492 72.241 32.492V31.492C70.1297 31.492 68.2245 32.0044 66.5396 33.0378L67.0624 33.8902ZM72.241 32.492C74.1831 32.492 75.8927 32.961 77.385 33.8886L77.913 33.0394C76.248 32.0044 74.3522 31.492 72.241 31.492V32.492ZM77.3918 33.8927C78.9057 34.8011 80.0906 36.0936 80.9469 37.7858L81.8391 37.3342C80.9034 35.485 79.5923 34.0469 77.9062 33.0353L77.3918 33.8927ZM80.9502 37.7922C81.8226 39.4558 82.269 41.4526 82.269 43.8H83.269C83.269 41.3261 82.7981 39.1629 81.8358 37.3278L80.9502 37.7922ZM82.269 43.8C82.269 46.125 81.8229 48.1232 80.949 49.81L81.837 50.27C82.7977 48.4155 83.269 46.2536 83.269 43.8H82.269ZM80.948 49.8121C80.0922 51.4829 78.9073 52.7659 77.3918 53.6753L77.9062 54.5327C79.5907 53.5221 80.9018 52.0958 81.838 50.2679L80.948 49.8121ZM77.3892 53.6768C75.8963 54.5846 74.1852 55.044 72.241 55.044V56.044C74.3501 56.044 76.2444 55.5434 77.9088 54.5312L77.3892 53.6768ZM72.241 52.012C73.608 52.012 74.8101 51.6688 75.8231 50.9621L75.2509 50.1419C74.4292 50.7152 73.434 51.012 72.241 51.012V52.012ZM75.825 50.9607C76.8465 50.241 77.6173 49.2575 78.141 48.0279L77.221 47.6361C76.7633 48.7105 76.1048 49.5403 75.249 50.1433L75.825 50.9607ZM78.1379 48.0351C78.6838 46.8068 78.949 45.391 78.949 43.8H77.949C77.949 45.281 77.7022 46.5532 77.2241 47.6289L78.1379 48.0351ZM78.949 43.8C78.949 42.1887 78.6842 40.762 78.1379 39.5329L77.2241 39.9391C77.7018 41.014 77.949 42.2966 77.949 43.8H78.949ZM78.141 39.5401C77.6169 38.3094 76.8443 37.3342 75.8187 36.6349L75.2553 37.4611C76.107 38.0418 76.7638 38.8586 77.221 39.9319L78.141 39.5401ZM75.8294 36.6424C74.8159 35.9118 73.6115 35.556 72.241 35.556V36.556C73.4305 36.556 74.4234 36.8616 75.2446 37.4536L75.8294 36.6424ZM72.241 35.556C70.8896 35.556 69.6881 35.9128 68.657 36.6393L69.233 37.4567C70.0792 36.8605 71.075 36.556 72.241 36.556V35.556ZM68.6589 36.6379C67.6577 37.3365 66.8883 38.3085 66.3441 39.5329L67.2579 39.9391C67.7377 38.8595 68.3977 38.0395 69.2311 37.4581L68.6589 36.6379ZM66.3441 39.5329C65.7978 40.762 65.533 42.1887 65.533 43.8H66.533C66.533 42.2966 66.7802 41.014 67.2579 39.9391L66.3441 39.5329ZM65.533 43.8C65.533 45.391 65.7982 46.8068 66.3441 48.0351L67.2579 47.6289C66.7798 46.5532 66.533 45.281 66.533 43.8H65.533ZM66.3441 48.0351C66.8878 49.2584 67.6555 50.2387 68.6526 50.9576L69.2374 50.1464C68.3999 49.5426 67.7382 48.7096 67.2579 47.6289L66.3441 48.0351ZM68.6633 50.9651C69.6939 51.6678 70.8931 52.012 72.241 52.012V51.012C71.0715 51.012 70.0734 50.7162 69.2267 50.1389L68.6633 50.9651ZM91.7948 54.648L91.5428 55.0799L91.7948 54.648ZM90.7067 53.304L90.2348 53.4693L90.2359 53.4722L90.7067 53.304ZM84.3067 35.032L84.7787 34.8667L84.777 34.8622L84.3067 35.032ZM84.3067 33.24L84.726 33.5125V33.5125L84.3067 33.24ZM88.4987 34.328L88.974 34.1726L88.9731 34.1699L88.4987 34.328ZM93.4268 49.4L92.9515 49.5554L93.4252 51.0042L93.9017 49.5563L93.4268 49.4ZM98.3867 34.328L97.9124 34.1699L97.9118 34.1717L98.3867 34.328ZM102.451 33.272L102.035 33.5493L102.042 33.5609L102.051 33.572L102.451 33.272ZM102.547 35.032L103.019 35.1973L103.02 35.1942L102.547 35.032ZM96.1468 53.304L96.6176 53.4722L96.6186 53.4693L96.1468 53.304ZM95.0587 54.648L94.8068 54.2161L95.0587 54.648ZM93.4587 54.596C92.9492 54.596 92.4816 54.4698 92.0467 54.2161L91.5428 55.0799C92.1319 55.4235 92.7736 55.596 93.4587 55.596V54.596ZM92.0467 54.2161C91.6439 53.9812 91.3543 53.6306 91.1776 53.1358L90.2359 53.4722C90.4858 54.1721 90.9216 54.7175 91.5428 55.0799L92.0467 54.2161ZM91.1786 53.1387L84.7786 34.8667L83.8349 35.1973L90.2349 53.4693L91.1786 53.1387ZM84.777 34.8622C84.5205 34.1519 84.5751 33.7446 84.726 33.5125L83.8875 32.9675C83.4837 33.5888 83.5383 34.3761 83.8365 35.2018L84.777 34.8622ZM84.726 33.5125C84.8566 33.3115 85.2176 33.1 86.0987 33.1V32.1C85.1452 32.1 84.3115 32.3152 83.8875 32.9675L84.726 33.5125ZM86.0987 33.1C86.6267 33.1 87.0219 33.2241 87.3186 33.4378C87.6153 33.6514 87.8578 33.9863 88.0244 34.4861L88.9731 34.1699C88.7557 33.5177 88.4062 32.9886 87.9029 32.6262C87.3997 32.2639 86.7868 32.1 86.0987 32.1V33.1ZM88.0235 34.4834L92.9515 49.5554L93.902 49.2446L88.974 34.1726L88.0235 34.4834ZM93.9017 49.5563L98.8617 34.4843L97.9118 34.1717L92.9518 49.2437L93.9017 49.5563ZM98.8611 34.4861C99.0265 33.9899 99.2721 33.6558 99.5778 33.4414C99.8851 33.2259 100.298 33.1 100.851 33.1V32.1C100.145 32.1 99.5177 32.2621 99.0037 32.6226C98.4881 32.9842 98.131 33.5141 97.9124 34.1699L98.8611 34.4861ZM100.851 33.1C101.529 33.1 101.865 33.2942 102.035 33.5493L102.867 32.9946C102.44 32.3538 101.709 32.1 100.851 32.1V33.1ZM102.051 33.572C102.23 33.8106 102.303 34.2 102.074 34.8698L103.02 35.1942C103.302 34.3706 103.312 33.5867 102.851 32.972L102.051 33.572ZM102.075 34.8667L95.6749 53.1387L96.6186 53.4693L103.019 35.1973L102.075 34.8667ZM95.6759 53.1358C95.4992 53.6306 95.2096 53.9812 94.8068 54.2161L95.3107 55.0799C95.9319 54.7175 96.3677 54.1721 96.6176 53.4722L95.6759 53.1358ZM94.8068 54.2161C94.3658 54.4733 93.9188 54.596 93.4587 54.596V55.596C94.108 55.596 94.7277 55.42 95.3107 55.0799L94.8068 54.2161ZM109.96 36.44V35.94H109.46V36.44H109.96ZM109.96 41.656H109.46V42.156H109.96V41.656ZM109.96 45.496V44.996H109.46V45.496H109.96ZM109.96 51.16H109.46V51.66H109.96V51.16ZM107.912 54.5C107.285 54.5 106.907 54.3436 106.682 54.1184C106.457 53.8933 106.3 53.5149 106.3 52.888H105.3C105.3 53.6691 105.496 54.3467 105.975 54.8256C106.454 55.3044 107.131 55.5 107.912 55.5V54.5ZM106.3 52.888V34.712H105.3V52.888H106.3ZM106.3 34.712C106.3 34.0851 106.457 33.7067 106.682 33.4816C106.907 33.2564 107.285 33.1 107.912 33.1V32.1C107.131 32.1 106.454 32.2956 105.975 32.7744C105.496 33.2533 105.3 33.9309 105.3 34.712H106.3ZM107.912 33.1H118.952V32.1H107.912V33.1ZM118.952 33.1C119.59 33.1 119.976 33.246 120.2 33.45C120.415 33.6457 120.564 33.97 120.564 34.52H121.564C121.564 33.79 121.361 33.1543 120.873 32.71C120.393 32.274 119.722 32.1 118.952 32.1V33.1ZM120.564 34.52C120.564 35.07 120.415 35.3943 120.2 35.59C119.976 35.794 119.59 35.94 118.952 35.94V36.94C119.722 36.94 120.393 36.766 120.873 36.33C121.361 35.8857 121.564 35.25 121.564 34.52H120.564ZM118.952 35.94H109.96V36.94H118.952V35.94ZM109.46 36.44V41.656H110.46V36.44H109.46ZM109.96 42.156H117.992V41.156H109.96V42.156ZM117.992 42.156C118.63 42.156 119.016 42.302 119.24 42.506C119.455 42.7017 119.604 43.026 119.604 43.576H120.604C120.604 42.846 120.401 42.2103 119.913 41.766C119.433 41.33 118.762 41.156 117.992 41.156V42.156ZM119.604 43.576C119.604 44.126 119.455 44.4503 119.24 44.646C119.016 44.85 118.63 44.996 117.992 44.996V45.996C118.762 45.996 119.433 45.822 119.913 45.386C120.401 44.9417 120.604 44.306 120.604 43.576H119.604ZM117.992 44.996H109.96V45.996H117.992V44.996ZM109.46 45.496V51.16H110.46V45.496H109.46ZM109.96 51.66H119.304V50.66H109.96V51.66ZM119.304 51.66C119.942 51.66 120.328 51.806 120.552 52.01C120.767 52.2057 120.916 52.53 120.916 53.08H121.916C121.916 52.35 121.713 51.7143 121.225 51.27C120.745 50.834 120.074 50.66 119.304 50.66V51.66ZM120.916 53.08C120.916 53.63 120.767 53.9543 120.552 54.15C120.328 54.354 119.942 54.5 119.304 54.5V55.5C120.074 55.5 120.745 55.326 121.225 54.89C121.713 54.4457 121.916 53.81 121.916 53.08H120.916ZM119.304 54.5H107.912V55.5H119.304V54.5ZM128.773 51.16H128.273V51.66H128.773V51.16ZM126.725 54.5C126.098 54.5 125.719 54.3436 125.494 54.1184C125.269 53.8933 125.113 53.5149 125.113 52.888H124.113C124.113 53.6691 124.308 54.3467 124.787 54.8256C125.266 55.3044 125.944 55.5 126.725 55.5V54.5ZM125.113 52.888V34.712H124.113V52.888H125.113ZM125.113 34.712C125.113 34.0832 125.267 33.7038 125.489 33.4788C125.709 33.2553 126.078 33.1 126.693 33.1V32.1C125.92 32.1 125.25 32.2967 124.777 32.7772C124.305 33.2562 124.113 33.9328 124.113 34.712H125.113ZM126.693 33.1C127.307 33.1 127.676 33.2553 127.897 33.4788C128.118 33.7038 128.273 34.0832 128.273 34.712H129.273C129.273 33.9328 129.081 33.2562 128.609 32.7772C128.136 32.2967 127.465 32.1 126.693 32.1V33.1ZM128.273 34.712V51.16H129.273V34.712H128.273ZM128.773 51.66H138.149V50.66H128.773V51.66ZM138.149 51.66C138.787 51.66 139.172 51.806 139.396 52.01C139.612 52.2057 139.761 52.53 139.761 53.08H140.761C140.761 52.35 140.558 51.7143 140.069 51.27C139.589 50.834 138.919 50.66 138.149 50.66V51.66ZM139.761 53.08C139.761 53.63 139.612 53.9543 139.396 54.15C139.172 54.354 138.787 54.5 138.149 54.5V55.5C138.919 55.5 139.589 55.326 140.069 54.89C140.558 54.4457 140.761 53.81 140.761 53.08H139.761ZM138.149 54.5H126.725V55.5H138.149V54.5ZM156.054 36.44V35.94H155.554V36.44H156.054ZM156.054 41.656H155.554V42.156H156.054V41.656ZM156.054 45.496V44.996H155.554V45.496H156.054ZM156.054 51.16H155.554V51.66H156.054V51.16ZM154.006 54.5C153.379 54.5 153.001 54.3436 152.776 54.1184C152.55 53.8933 152.394 53.5149 152.394 52.888H151.394C151.394 53.6691 151.59 54.3467 152.068 54.8256C152.547 55.3044 153.225 55.5 154.006 55.5V54.5ZM152.394 52.888V34.712H151.394V52.888H152.394ZM152.394 34.712C152.394 34.0851 152.55 33.7067 152.776 33.4816C153.001 33.2564 153.379 33.1 154.006 33.1V32.1C153.225 32.1 152.547 32.2956 152.068 32.7744C151.59 33.2533 151.394 33.9309 151.394 34.712H152.394ZM154.006 33.1H165.046V32.1H154.006V33.1ZM165.046 33.1C165.684 33.1 166.069 33.246 166.294 33.45C166.509 33.6457 166.658 33.97 166.658 34.52H167.658C167.658 33.79 167.455 33.1543 166.966 32.71C166.487 32.274 165.816 32.1 165.046 32.1V33.1ZM166.658 34.52C166.658 35.07 166.509 35.3943 166.294 35.59C166.069 35.794 165.684 35.94 165.046 35.94V36.94C165.816 36.94 166.487 36.766 166.966 36.33C167.455 35.8857 167.658 35.25 167.658 34.52H166.658ZM165.046 35.94H156.054V36.94H165.046V35.94ZM155.554 36.44V41.656H156.554V36.44H155.554ZM156.054 42.156H164.086V41.156H156.054V42.156ZM164.086 42.156C164.724 42.156 165.109 42.302 165.334 42.506C165.549 42.7017 165.698 43.026 165.698 43.576H166.698C166.698 42.846 166.495 42.2103 166.006 41.766C165.527 41.33 164.856 41.156 164.086 41.156V42.156ZM165.698 43.576C165.698 44.126 165.549 44.4503 165.334 44.646C165.109 44.85 164.724 44.996 164.086 44.996V45.996C164.856 45.996 165.527 45.822 166.006 45.386C166.495 44.9417 166.698 44.306 166.698 43.576H165.698ZM164.086 44.996H156.054V45.996H164.086V44.996ZM155.554 45.496V51.16H156.554V45.496H155.554ZM156.054 51.66H165.398V50.66H156.054V51.66ZM165.398 51.66C166.036 51.66 166.421 51.806 166.646 52.01C166.861 52.2057 167.01 52.53 167.01 53.08H168.01C168.01 52.35 167.807 51.7143 167.318 51.27C166.839 50.834 166.168 50.66 165.398 50.66V51.66ZM167.01 53.08C167.01 53.63 166.861 53.9543 166.646 54.15C166.421 54.354 166.036 54.5 165.398 54.5V55.5C166.168 55.5 166.839 55.326 167.318 54.89C167.807 54.4457 168.01 53.81 168.01 53.08H167.01ZM165.398 54.5H154.006V55.5H165.398V54.5ZM175.762 33.976L176.179 33.6998L176.177 33.6964L175.762 33.976ZM184.883 47.736L184.466 48.0122L185.383 49.3954V47.736H184.883ZM184.21 53.624L184.634 53.3581L184.629 53.3501L184.21 53.624ZM174.867 39.352L175.285 39.0781L174.367 37.6755V39.352H174.867ZM172.786 54.5C172.172 54.5 171.803 54.3447 171.583 54.1212C171.361 53.8962 171.206 53.5168 171.206 52.888H170.206C170.206 53.6672 170.398 54.3438 170.87 54.8228C171.343 55.3033 172.014 55.5 172.786 55.5V54.5ZM171.206 52.888V34.712H170.206V52.888H171.206ZM171.206 34.712C171.206 34.0832 171.361 33.7038 171.583 33.4788C171.803 33.2553 172.172 33.1 172.786 33.1V32.1C172.014 32.1 171.343 32.2967 170.87 32.7772C170.398 33.2562 170.206 33.9328 170.206 34.712H171.206ZM172.786 33.1H173.234V32.1H172.786V33.1ZM173.234 33.1C174.128 33.1 174.818 33.4699 175.348 34.2556L176.177 33.6964C175.47 32.6474 174.475 32.1 173.234 32.1V33.1ZM175.346 34.2522L184.466 48.0122L185.299 47.4598L176.179 33.6998L175.346 34.2522ZM185.383 47.736V34.712H184.383V47.736H185.383ZM185.383 34.712C185.383 34.0851 185.539 33.7067 185.764 33.4816C185.989 33.2564 186.368 33.1 186.995 33.1V32.1C186.213 32.1 185.536 32.2956 185.057 32.7744C184.578 33.2533 184.383 33.9309 184.383 34.712H185.383ZM186.995 33.1C187.609 33.1 187.978 33.2553 188.198 33.4788C188.42 33.7038 188.574 34.0832 188.574 34.712H189.574C189.574 33.9328 189.383 33.2562 188.911 32.7772C188.438 32.2967 187.767 32.1 186.995 32.1V33.1ZM188.574 34.712V52.888H189.574V34.712H188.574ZM188.574 52.888C188.574 53.5224 188.425 53.9052 188.214 54.1297C188.009 54.3482 187.666 54.5 187.09 54.5V55.5C187.837 55.5 188.487 55.2998 188.943 54.8143C189.393 54.3348 189.574 53.6616 189.574 52.888H188.574ZM187.09 54.5H186.738V55.5H187.09V54.5ZM186.738 54.5C185.796 54.5 185.116 54.1255 184.634 53.3581L183.787 53.8899C184.457 54.9571 185.462 55.5 186.738 55.5V54.5ZM184.629 53.3501L175.285 39.0781L174.448 39.6259L183.792 53.8979L184.629 53.3501ZM174.367 39.352V52.888H175.367V39.352H174.367ZM174.367 52.888C174.367 53.5168 174.212 53.8962 173.99 54.1212C173.77 54.3447 173.401 54.5 172.786 54.5V55.5C173.559 55.5 174.23 55.3033 174.703 54.8228C175.175 54.3438 175.367 53.6672 175.367 52.888H174.367ZM197.236 54.104L196.973 54.5296L196.976 54.5312L197.236 54.104ZM193.555 50.04L193.107 50.2615L193.11 50.2679L193.555 50.04ZM193.555 37.56L193.109 37.3342L193.108 37.3364L193.555 37.56ZM197.236 33.464L197.498 33.8896L197.499 33.8886L197.236 33.464ZM206.195 32.504L206.048 32.9819L206.051 32.9827L206.195 32.504ZM209.204 33.848L208.936 34.2703L208.937 34.2711L209.204 33.848ZM210.132 35.192L209.633 35.2319L209.633 35.2335L210.132 35.192ZM209.555 36.76L209.165 36.4476L209.157 36.4575L209.555 36.76ZM208.212 37.592L208.19 37.0925L208.189 37.0925L208.212 37.592ZM206.643 37.112L206.898 36.6817L206.886 36.6749L206.643 37.112ZM199.38 37.048L199.67 37.4549L199.672 37.4536L199.38 37.048ZM197.299 39.736L196.839 39.54L196.836 39.5473L197.299 39.736ZM197.299 47.832L196.836 48.0207L196.839 48.0279L197.299 47.832ZM199.38 50.552L199.082 50.9544L199.093 50.9621L199.38 50.552ZM205.044 51.256L205.176 51.738L205.184 51.7359L205.192 51.7335L205.044 51.256ZM206.611 50.552L206.884 50.9712L207.111 50.8233V50.552H206.611ZM206.611 46.232H207.111V45.732H206.611V46.232ZM210.548 53.112L210.995 53.3357L210.999 53.326L210.548 53.112ZM209.523 54.04L209.308 53.5889L209.3 53.5928L209.523 54.04ZM206.26 55.16L206.155 54.6711L206.26 55.16ZM202.643 55.044C200.699 55.044 198.988 54.5846 197.495 53.6768L196.976 54.5312C198.64 55.5434 200.534 56.044 202.643 56.044V55.044ZM197.498 53.6784C196.024 52.7699 194.858 51.4863 194.001 49.8121L193.11 50.2679C194.045 52.0923 195.332 53.5181 196.973 54.5296L197.498 53.6784ZM194.004 49.8186C193.17 48.1297 192.743 46.1284 192.743 43.8H191.743C191.743 46.2502 192.192 48.409 193.107 50.2614L194.004 49.8186ZM192.743 43.8C192.743 41.4492 193.17 39.4492 194.003 37.7836L193.108 37.3364C192.192 39.1694 191.743 41.3294 191.743 43.8H192.743ZM194.002 37.7858C194.86 36.0902 196.026 34.7971 197.498 33.8896L196.973 33.0384C195.331 34.0509 194.043 35.4885 193.109 37.3342L194.002 37.7858ZM197.499 33.8886C198.992 32.961 200.701 32.492 202.643 32.492V31.492C200.532 31.492 198.637 32.0044 196.972 33.0394L197.499 33.8886ZM202.643 32.492C203.857 32.492 204.991 32.6564 206.048 32.9819L206.343 32.0261C205.182 31.6689 203.948 31.492 202.643 31.492V32.492ZM206.051 32.9827C207.144 33.3127 208.104 33.743 208.936 34.2703L209.471 33.4257C208.553 32.8436 207.508 32.378 206.34 32.0253L206.051 32.9827ZM208.937 34.2711C209.42 34.575 209.606 34.8976 209.633 35.2319L210.63 35.1521C210.571 34.4197 210.139 33.8463 209.47 33.4249L208.937 34.2711ZM209.633 35.2335C209.662 35.5808 209.539 35.9804 209.165 36.4477L209.946 37.0723C210.425 36.4729 210.686 35.8272 210.63 35.1505L209.633 35.2335ZM209.157 36.4575C208.807 36.9179 208.483 37.0797 208.19 37.0925L208.233 38.0915C208.921 38.0616 209.493 37.6687 209.954 37.0625L209.157 36.4575ZM208.189 37.0925C207.85 37.1079 207.425 36.9937 206.898 36.6819L206.389 37.5421C207.014 37.913 207.634 38.1187 208.234 38.0915L208.189 37.0925ZM206.886 36.6749C206.274 36.3347 205.608 36.0644 204.891 35.8627L204.62 36.8253C205.268 37.0076 205.861 37.2493 206.401 37.5491L206.886 36.6749ZM204.891 35.8627C204.163 35.658 203.414 35.556 202.643 35.556V36.556C203.324 36.556 203.983 36.646 204.62 36.8253L204.891 35.8627ZM202.643 35.556C201.292 35.556 200.099 35.9128 199.087 36.6424L199.672 37.4536C200.495 36.8605 201.477 36.556 202.643 36.556V35.556ZM199.089 36.6411C198.108 37.3416 197.361 38.3154 196.839 39.5401L197.76 39.9319C198.219 38.8526 198.859 38.0344 199.67 37.4549L199.089 36.6411ZM196.836 39.5473C196.337 40.7723 196.096 42.1937 196.096 43.8H197.096C197.096 42.2916 197.323 41.0037 197.763 39.9246L196.836 39.5473ZM196.096 43.8C196.096 45.386 196.338 46.7965 196.836 48.0206L197.763 47.6434C197.323 46.5635 197.096 45.286 197.096 43.8H196.096ZM196.839 48.0279C197.361 49.2516 198.106 50.2336 199.083 50.9543L199.676 50.1497C198.861 49.5477 198.22 48.7164 197.76 47.6361L196.839 48.0279ZM199.093 50.9621C200.105 51.6678 201.296 52.012 202.643 52.012V51.012C201.474 51.012 200.489 50.7162 199.666 50.1419L199.093 50.9621ZM202.643 52.012C203.649 52.012 204.498 51.9251 205.176 51.738L204.911 50.774C204.352 50.9282 203.601 51.012 202.643 51.012V52.012ZM205.192 51.7335C205.843 51.5314 206.41 51.2794 206.884 50.9712L206.339 50.1328C205.96 50.3793 205.481 50.5966 204.895 50.7785L205.192 51.7335ZM207.111 50.552V46.232H206.111V50.552H207.111ZM206.611 45.732H205.331V46.732H206.611V45.732ZM205.331 45.732C204.693 45.732 204.308 45.586 204.084 45.382C203.869 45.1863 203.719 44.862 203.719 44.312H202.719C202.719 45.042 202.922 45.6777 203.411 46.122C203.891 46.558 204.562 46.732 205.331 46.732V45.732ZM203.719 44.312C203.719 43.762 203.869 43.4377 204.084 43.242C204.308 43.038 204.693 42.892 205.331 42.892V41.892C204.562 41.892 203.891 42.066 203.411 42.502C202.922 42.9463 202.719 43.582 202.719 44.312H203.719ZM205.331 42.892H208.723V41.892H205.331V42.892ZM208.723 42.892C209.35 42.892 209.729 43.0484 209.954 43.2736C210.179 43.4987 210.335 43.8771 210.335 44.504H211.335C211.335 43.7229 211.14 43.0453 210.661 42.5664C210.182 42.0876 209.505 41.892 208.723 41.892V42.892ZM210.335 44.504V51.64H211.335V44.504H210.335ZM210.335 51.64C210.335 52.1623 210.248 52.5757 210.096 52.898L210.999 53.326C211.231 52.8376 211.335 52.2697 211.335 51.64H210.335ZM210.1 52.8884C209.97 53.149 209.725 53.3892 209.308 53.5889L209.739 54.4911C210.303 54.2214 210.741 53.843 210.995 53.3356L210.1 52.8884ZM209.3 53.5928C208.36 54.0626 207.313 54.4229 206.155 54.6711L206.364 55.6489C207.596 55.3851 208.724 54.9987 209.747 54.4872L209.3 53.5928ZM206.155 54.6711C204.994 54.9198 203.824 55.044 202.643 55.044V56.044C203.895 56.044 205.135 55.9122 206.364 55.6489L206.155 54.6711ZM216.693 54.5C216.078 54.5 215.709 54.3447 215.489 54.1212C215.267 53.8962 215.113 53.5168 215.113 52.888H214.113C214.113 53.6672 214.305 54.3438 214.777 54.8228C215.25 55.3033 215.92 55.5 216.693 55.5V54.5ZM215.113 52.888V34.712H214.113V52.888H215.113ZM215.113 34.712C215.113 34.0832 215.267 33.7038 215.489 33.4788C215.709 33.2553 216.078 33.1 216.693 33.1V32.1C215.92 32.1 215.25 32.2967 214.777 32.7772C214.305 33.2562 214.113 33.9328 214.113 34.712H215.113ZM216.693 33.1C217.307 33.1 217.676 33.2553 217.897 33.4788C218.118 33.7038 218.273 34.0832 218.273 34.712H219.273C219.273 33.9328 219.081 33.2562 218.609 32.7772C218.136 32.2967 217.465 32.1 216.693 32.1V33.1ZM218.273 34.712V52.888H219.273V34.712H218.273ZM218.273 52.888C218.273 53.5168 218.118 53.8962 217.897 54.1212C217.676 54.3447 217.307 54.5 216.693 54.5V55.5C217.465 55.5 218.136 55.3033 218.609 54.8228C219.081 54.3438 219.273 53.6672 219.273 52.888H218.273ZM228.106 33.976L228.523 33.6998L228.521 33.6964L228.106 33.976ZM237.226 47.736L236.809 48.0122L237.726 49.3954V47.736H237.226ZM236.554 53.624L236.978 53.3581L236.973 53.3501L236.554 53.624ZM227.21 39.352L227.629 39.0781L226.71 37.6755V39.352H227.21ZM225.13 54.5C224.516 54.5 224.147 54.3447 223.926 54.1212C223.705 53.8962 223.55 53.5168 223.55 52.888H222.55C222.55 53.6672 222.742 54.3438 223.214 54.8228C223.687 55.3033 224.358 55.5 225.13 55.5V54.5ZM223.55 52.888V34.712H222.55V52.888H223.55ZM223.55 34.712C223.55 34.0832 223.705 33.7038 223.926 33.4788C224.147 33.2553 224.516 33.1 225.13 33.1V32.1C224.358 32.1 223.687 32.2967 223.214 32.7772C222.742 33.2562 222.55 33.9328 222.55 34.712H223.55ZM225.13 33.1H225.578V32.1H225.13V33.1ZM225.578 33.1C226.471 33.1 227.162 33.4699 227.692 34.2556L228.521 33.6964C227.813 32.6474 226.818 32.1 225.578 32.1V33.1ZM227.689 34.2522L236.809 48.0122L237.643 47.4598L228.523 33.6998L227.689 34.2522ZM237.726 47.736V34.712H236.726V47.736H237.726ZM237.726 34.712C237.726 34.0851 237.883 33.7067 238.108 33.4816C238.333 33.2564 238.711 33.1 239.338 33.1V32.1C238.557 32.1 237.88 32.2956 237.401 32.7744C236.922 33.2533 236.726 33.9309 236.726 34.712H237.726ZM239.338 33.1C239.953 33.1 240.322 33.2553 240.542 33.4788C240.764 33.7038 240.918 34.0832 240.918 34.712H241.918C241.918 33.9328 241.726 33.2562 241.254 32.7772C240.781 32.2967 240.111 32.1 239.338 32.1V33.1ZM240.918 34.712V52.888H241.918V34.712H240.918ZM240.918 52.888C240.918 53.5224 240.769 53.9052 240.558 54.1297C240.353 54.3482 240.01 54.5 239.434 54.5V55.5C240.181 55.5 240.831 55.2998 241.287 54.8143C241.737 54.3348 241.918 53.6616 241.918 52.888H240.918ZM239.434 54.5H239.082V55.5H239.434V54.5ZM239.082 54.5C238.14 54.5 237.46 54.1255 236.978 53.3581L236.131 53.8899C236.801 54.9571 237.806 55.5 239.082 55.5V54.5ZM236.973 53.3501L227.629 39.0781L226.792 39.6259L236.136 53.8979L236.973 53.3501ZM226.71 39.352V52.888H227.71V39.352H226.71ZM226.71 52.888C226.71 53.5168 226.556 53.8962 226.334 54.1212C226.114 54.3447 225.745 54.5 225.13 54.5V55.5C225.903 55.5 226.573 55.3033 227.046 54.8228C227.518 54.3438 227.71 53.6672 227.71 52.888H226.71ZM249.835 36.44V35.94H249.335V36.44H249.835ZM249.835 41.656H249.335V42.156H249.835V41.656ZM249.835 45.496V44.996H249.335V45.496H249.835ZM249.835 51.16H249.335V51.66H249.835V51.16ZM247.787 54.5C247.16 54.5 246.782 54.3436 246.557 54.1184C246.332 53.8933 246.175 53.5149 246.175 52.888H245.175C245.175 53.6691 245.371 54.3467 245.85 54.8256C246.329 55.3044 247.006 55.5 247.787 55.5V54.5ZM246.175 52.888V34.712H245.175V52.888H246.175ZM246.175 34.712C246.175 34.0851 246.332 33.7067 246.557 33.4816C246.782 33.2564 247.16 33.1 247.787 33.1V32.1C247.006 32.1 246.329 32.2956 245.85 32.7744C245.371 33.2533 245.175 33.9309 245.175 34.712H246.175ZM247.787 33.1H258.827V32.1H247.787V33.1ZM258.827 33.1C259.465 33.1 259.851 33.246 260.075 33.45C260.29 33.6457 260.439 33.97 260.439 34.52H261.439C261.439 33.79 261.236 33.1543 260.748 32.71C260.268 32.274 259.597 32.1 258.827 32.1V33.1ZM260.439 34.52C260.439 35.07 260.29 35.3943 260.075 35.59C259.851 35.794 259.465 35.94 258.827 35.94V36.94C259.597 36.94 260.268 36.766 260.748 36.33C261.236 35.8857 261.439 35.25 261.439 34.52H260.439ZM258.827 35.94H249.835V36.94H258.827V35.94ZM249.335 36.44V41.656H250.335V36.44H249.335ZM249.835 42.156H257.867V41.156H249.835V42.156ZM257.867 42.156C258.505 42.156 258.891 42.302 259.115 42.506C259.33 42.7017 259.479 43.026 259.479 43.576H260.479C260.479 42.846 260.276 42.2103 259.788 41.766C259.308 41.33 258.637 41.156 257.867 41.156V42.156ZM259.479 43.576C259.479 44.126 259.33 44.4503 259.115 44.646C258.891 44.85 258.505 44.996 257.867 44.996V45.996C258.637 45.996 259.308 45.822 259.788 45.386C260.276 44.9417 260.479 44.306 260.479 43.576H259.479ZM257.867 44.996H249.835V45.996H257.867V44.996ZM249.335 45.496V51.16H250.335V45.496H249.335ZM249.835 51.66H259.179V50.66H249.835V51.66ZM259.179 51.66C259.817 51.66 260.203 51.806 260.427 52.01C260.642 52.2057 260.791 52.53 260.791 53.08H261.791C261.791 52.35 261.588 51.7143 261.1 51.27C260.62 50.834 259.949 50.66 259.179 50.66V51.66ZM260.791 53.08C260.791 53.63 260.642 53.9543 260.427 54.15C260.203 54.354 259.817 54.5 259.179 54.5V55.5C259.949 55.5 260.62 55.326 261.1 54.89C261.588 54.4457 261.791 53.81 261.791 53.08H260.791ZM259.179 54.5H247.787V55.5H259.179V54.5ZM268.648 36.44V35.94H268.148V36.44H268.648ZM268.648 41.656H268.148V42.156H268.648V41.656ZM268.648 45.496V44.996H268.148V45.496H268.648ZM268.648 51.16H268.148V51.66H268.648V51.16ZM266.6 54.5C265.973 54.5 265.594 54.3436 265.369 54.1184C265.144 53.8933 264.988 53.5149 264.988 52.888H263.988C263.988 53.6691 264.183 54.3467 264.662 54.8256C265.141 55.3044 265.819 55.5 266.6 55.5V54.5ZM264.988 52.888V34.712H263.988V52.888H264.988ZM264.988 34.712C264.988 34.0851 265.144 33.7067 265.369 33.4816C265.594 33.2564 265.973 33.1 266.6 33.1V32.1C265.819 32.1 265.141 32.2956 264.662 32.7744C264.183 33.2533 263.988 33.9309 263.988 34.712H264.988ZM266.6 33.1H277.64V32.1H266.6V33.1ZM277.64 33.1C278.278 33.1 278.663 33.246 278.887 33.45C279.103 33.6457 279.252 33.97 279.252 34.52H280.252C280.252 33.79 280.049 33.1543 279.56 32.71C279.08 32.274 278.41 32.1 277.64 32.1V33.1ZM279.252 34.52C279.252 35.07 279.103 35.3943 278.887 35.59C278.663 35.794 278.278 35.94 277.64 35.94V36.94C278.41 36.94 279.08 36.766 279.56 36.33C280.049 35.8857 280.252 35.25 280.252 34.52H279.252ZM277.64 35.94H268.648V36.94H277.64V35.94ZM268.148 36.44V41.656H269.148V36.44H268.148ZM268.648 42.156H276.68V41.156H268.648V42.156ZM276.68 42.156C277.318 42.156 277.703 42.302 277.927 42.506C278.143 42.7017 278.292 43.026 278.292 43.576H279.292C279.292 42.846 279.089 42.2103 278.6 41.766C278.12 41.33 277.45 41.156 276.68 41.156V42.156ZM278.292 43.576C278.292 44.126 278.143 44.4503 277.927 44.646C277.703 44.85 277.318 44.996 276.68 44.996V45.996C277.45 45.996 278.12 45.822 278.6 45.386C279.089 44.9417 279.292 44.306 279.292 43.576H278.292ZM276.68 44.996H268.648V45.996H276.68V44.996ZM268.148 45.496V51.16H269.148V45.496H268.148ZM268.648 51.66H277.992V50.66H268.648V51.66ZM277.992 51.66C278.63 51.66 279.015 51.806 279.239 52.01C279.455 52.2057 279.604 52.53 279.604 53.08H280.604C280.604 52.35 280.401 51.7143 279.912 51.27C279.432 50.834 278.762 50.66 277.992 50.66V51.66ZM279.604 53.08C279.604 53.63 279.455 53.9543 279.239 54.15C279.015 54.354 278.63 54.5 277.992 54.5V55.5C278.762 55.5 279.432 55.326 279.912 54.89C280.401 54.4457 280.604 53.81 280.604 53.08H279.604ZM277.992 54.5H266.6V55.5H277.992V54.5ZM297.316 33.24L297.124 33.7016L297.127 33.7029L297.316 33.24ZM299.716 35.32L299.283 35.5702L299.288 35.5772L299.716 35.32ZM299.268 43.736L298.888 43.4113L298.887 43.4119L299.268 43.736ZM295.716 45.656L295.626 45.1642L294.979 45.2827L295.267 45.8745L295.716 45.656ZM299.044 52.504L298.595 52.7226L298.597 52.7276L299.044 52.504ZM299.236 54.296L298.789 54.0724L298.785 54.0807L298.781 54.0891L299.236 54.296ZM294.724 53.4L294.265 53.5984L294.267 53.6014L294.724 53.4ZM291.46 45.848L291.919 45.6496L291.789 45.348H291.46V45.848ZM287.46 45.848V45.348H286.96V45.848H287.46ZM287.46 41.976H286.96V42.476H287.46V41.976ZM295.364 41.336L295.669 41.7323L295.364 41.336ZM295.364 37.08L295.059 37.4763L295.364 37.08ZM287.46 36.44V35.94H286.96V36.44H287.46ZM285.38 54.5C284.766 54.5 284.397 54.3447 284.176 54.1212C283.955 53.8962 283.8 53.5168 283.8 52.888H282.8C282.8 53.6672 282.992 54.3438 283.464 54.8228C283.937 55.3033 284.608 55.5 285.38 55.5V54.5ZM283.8 52.888V34.712H282.8V52.888H283.8ZM283.8 34.712C283.8 34.0851 283.957 33.7067 284.182 33.4816C284.407 33.2564 284.785 33.1 285.412 33.1V32.1C284.631 32.1 283.954 32.2956 283.475 32.7744C282.996 33.2533 282.8 33.9309 282.8 34.712H283.8ZM285.412 33.1H293.668V32.1H285.412V33.1ZM293.668 33.1C295.027 33.1 296.175 33.3061 297.124 33.7015L297.509 32.7785C296.41 32.3206 295.125 32.1 293.668 32.1V33.1ZM297.127 33.7029C298.072 34.0885 298.785 34.708 299.283 35.5701L300.149 35.0699C299.538 34.0119 298.651 33.2448 297.505 32.7771L297.127 33.7029ZM299.288 35.5772C299.801 36.4322 300.08 37.623 300.08 39.192H301.08C301.08 37.5183 300.784 36.1278 300.145 35.0628L299.288 35.5772ZM300.08 39.192C300.08 41.1347 299.655 42.513 298.888 43.4113L299.648 44.0607C300.631 42.911 301.08 41.26 301.08 39.192H300.08ZM298.887 43.4119C298.121 44.3124 297.048 44.9039 295.626 45.1642L295.806 46.1478C297.414 45.8534 298.709 45.1649 299.649 44.0601L298.887 43.4119ZM295.267 45.8745L298.595 52.7225L299.494 52.2854L296.166 45.4375L295.267 45.8745ZM298.597 52.7276C298.929 53.3908 298.922 53.8073 298.789 54.0724L299.683 54.5196C300.02 53.8461 299.885 53.0679 299.491 52.2804L298.597 52.7276ZM298.781 54.0891C298.679 54.314 298.453 54.5 297.86 54.5V55.5C298.676 55.5 299.367 55.2167 299.691 54.5029L298.781 54.0891ZM297.86 54.5H297.188V55.5H297.86V54.5ZM297.188 54.5C296.679 54.5 296.279 54.385 295.965 54.1807C295.65 53.9764 295.385 53.66 295.182 53.1986L294.267 53.6014C294.533 54.2067 294.913 54.6902 295.42 55.0193C295.927 55.3483 296.524 55.5 297.188 55.5V54.5ZM295.183 53.2016L291.919 45.6496L291.001 46.0464L294.265 53.5984L295.183 53.2016ZM291.46 45.348H287.46V46.348H291.46V45.348ZM286.96 45.848V52.888H287.96V45.848H286.96ZM286.96 52.888C286.96 53.5168 286.806 53.8962 286.584 54.1212C286.364 54.3447 285.995 54.5 285.38 54.5V55.5C286.153 55.5 286.823 55.3033 287.296 54.8228C287.768 54.3438 287.96 53.6672 287.96 52.888H286.96ZM287.46 42.476H293.092V41.476H287.46V42.476ZM293.092 42.476C294.122 42.476 295 42.2473 295.669 41.7323L295.059 40.9397C294.62 41.278 293.982 41.476 293.092 41.476V42.476ZM295.669 41.7323C296.394 41.175 296.696 40.2793 296.696 39.192H295.696C295.696 40.11 295.444 40.6437 295.059 40.9397L295.669 41.7323ZM296.696 39.192C296.696 38.1216 296.391 37.2391 295.669 36.6837L295.059 37.4763C295.447 37.7742 295.696 38.2997 295.696 39.192H296.696ZM295.669 36.6837C295 36.1687 294.122 35.94 293.092 35.94V36.94C293.982 36.94 294.62 37.1379 295.059 37.4763L295.669 36.6837ZM293.092 35.94H287.46V36.94H293.092V35.94ZM286.96 36.44V41.976H287.96V36.44H286.96Z" fill="#3B3B3B" mask="url(#path-3-outside-1_2053_524)"/>
<path d="M73.204 111.484C69.964 111.484 67.252 111.268 65.068 110.836C62.884 110.404 61.156 109.636 59.884 108.532C59.62 108.724 59.26 108.964 58.804 109.252C58.372 109.564 57.952 109.852 57.544 110.116C57.16 110.38 56.86 110.584 56.644 110.728C56.092 111.112 55.456 111.232 54.736 111.088C54.016 110.944 53.488 110.56 53.152 109.936C52.84 109.312 52.768 108.676 52.936 108.028C53.104 107.38 53.488 106.912 54.088 106.624C54.424 106.456 54.856 106.252 55.384 106.012C55.936 105.748 56.44 105.508 56.896 105.292V97.516C56.896 97.012 56.824 96.664 56.68 96.472C56.536 96.28 56.2 96.184 55.672 96.184H55.024C54.352 96.184 53.812 95.968 53.404 95.536C53.02 95.104 52.828 94.588 52.828 93.988C52.828 93.364 53.02 92.836 53.404 92.404C53.812 91.972 54.352 91.756 55.024 91.756H57.724C60.268 91.756 61.54 93.028 61.54 95.572V104.572C62.116 105.244 62.896 105.772 63.88 106.156C63.688 105.628 63.688 105.124 63.88 104.644C64.096 104.164 64.504 103.78 65.104 103.492C65.44 103.348 65.848 103.156 66.328 102.916C66.832 102.676 67.336 102.436 67.84 102.196H63.88C63.352 102.196 62.932 102.028 62.62 101.692C62.332 101.332 62.188 100.924 62.188 100.468C62.188 99.988 62.332 99.58 62.62 99.244C62.932 98.884 63.352 98.704 63.88 98.704H67.66V97.3H64.636C64.18 97.3 63.784 97.12 63.448 96.76C63.112 96.4 62.944 95.992 62.944 95.536C62.944 95.056 63.088 94.648 63.376 94.312C63.688 93.952 64.108 93.772 64.636 93.772H67.66V92.296H66.796C65.284 92.296 64.192 91.984 63.52 91.36C62.848 90.736 62.512 89.608 62.512 87.976C62.512 86.44 62.812 85.384 63.412 84.808C64.012 84.232 65.116 83.944 66.724 83.944H67.516C67.924 83.944 68.188 83.896 68.308 83.8C68.428 83.704 68.488 83.536 68.488 83.296C68.488 83.032 68.428 82.864 68.308 82.792C68.188 82.72 67.924 82.684 67.516 82.684H63.808C63.256 82.684 62.824 82.516 62.512 82.18C62.2 81.82 62.044 81.4 62.044 80.92C62.044 80.44 62.2 80.032 62.512 79.696C62.824 79.336 63.256 79.156 63.808 79.156H68.308C69.916 79.156 71.032 79.444 71.656 80.02C72.28 80.596 72.592 81.652 72.592 83.188C72.592 84.724 72.28 85.78 71.656 86.356C71.032 86.932 69.916 87.22 68.308 87.22H67.696C67.336 87.22 67.096 87.28 66.976 87.4C66.856 87.52 66.796 87.712 66.796 87.976C66.796 88.312 66.868 88.528 67.012 88.624C67.18 88.72 67.432 88.768 67.768 88.768H68.308C68.74 88.768 69.064 88.72 69.28 88.624C69.496 88.504 69.7 88.264 69.892 87.904C70.108 87.52 70.468 87.256 70.972 87.112C71.476 86.968 71.992 87.016 72.52 87.256C73.072 87.496 73.42 87.844 73.564 88.3C73.732 88.756 73.732 89.224 73.564 89.704C73.276 90.592 72.832 91.228 72.232 91.612V93.772H75.616V91.756C74.584 91.204 74.068 89.944 74.068 87.976C74.068 86.44 74.368 85.384 74.968 84.808C75.568 84.232 76.672 83.944 78.28 83.944H79.576C79.984 83.944 80.248 83.896 80.368 83.8C80.488 83.704 80.548 83.536 80.548 83.296C80.548 83.032 80.488 82.864 80.368 82.792C80.248 82.72 79.984 82.684 79.576 82.684H75.364C74.812 82.684 74.38 82.516 74.068 82.18C73.756 81.82 73.6 81.4 73.6 80.92C73.6 80.44 73.756 80.032 74.068 79.696C74.38 79.336 74.812 79.156 75.364 79.156H80.368C81.976 79.156 83.092 79.444 83.716 80.02C84.34 80.596 84.652 81.652 84.652 83.188C84.652 84.724 84.34 85.78 83.716 86.356C83.092 86.932 81.976 87.22 80.368 87.22H79.252C78.892 87.22 78.652 87.28 78.532 87.4C78.412 87.52 78.352 87.712 78.352 87.976C78.352 88.312 78.424 88.528 78.568 88.624C78.736 88.72 78.988 88.768 79.324 88.768H80.368C80.8 88.768 81.124 88.72 81.34 88.624C81.556 88.504 81.76 88.264 81.952 87.904C82.168 87.52 82.528 87.256 83.032 87.112C83.536 86.968 84.052 87.016 84.58 87.256C85.132 87.496 85.48 87.844 85.624 88.3C85.792 88.756 85.792 89.224 85.624 89.704C85.288 90.736 84.748 91.432 84.004 91.792C83.284 92.128 82.216 92.296 80.8 92.296H80.188V93.772H83.932C84.484 93.772 84.904 93.952 85.192 94.312C85.48 94.648 85.624 95.056 85.624 95.536C85.624 95.992 85.48 96.4 85.192 96.76C84.904 97.12 84.484 97.3 83.932 97.3H80.188V98.704H84.796C85.348 98.704 85.756 98.884 86.02 99.244C86.308 99.58 86.452 99.988 86.452 100.468C86.452 100.924 86.308 101.332 86.02 101.692C85.756 102.028 85.348 102.196 84.796 102.196H79.648C80.152 102.436 80.656 102.676 81.16 102.916C81.664 103.156 82.072 103.348 82.384 103.492C83.032 103.804 83.452 104.224 83.644 104.752C83.836 105.28 83.8 105.82 83.536 106.372C83.488 106.468 83.416 106.564 83.32 106.66C83.248 106.756 83.176 106.852 83.104 106.948C83.272 106.924 83.428 106.912 83.572 106.912C83.716 106.912 83.86 106.9 84.004 106.876C84.844 106.804 85.528 106.972 86.056 107.38C86.608 107.788 86.884 108.352 86.884 109.072C86.884 109.816 86.656 110.404 86.2 110.836C85.768 111.268 85.06 111.484 84.076 111.484H73.204ZM60.856 86.5C60.376 86.956 59.8 87.196 59.128 87.22C58.456 87.22 57.892 86.968 57.436 86.464C57.028 85.984 56.512 85.456 55.888 84.88C55.288 84.304 54.748 83.812 54.268 83.404C53.812 82.996 53.584 82.468 53.584 81.82C53.608 81.148 53.848 80.584 54.304 80.128C54.76 79.672 55.3 79.408 55.924 79.336C56.572 79.264 57.16 79.468 57.688 79.948C58.264 80.428 58.864 80.944 59.488 81.496C60.112 82.048 60.616 82.528 61 82.936C61.528 83.44 61.768 84.04 61.72 84.736C61.696 85.408 61.408 85.996 60.856 86.5ZM73.204 107.2C74.26 107.2 75.364 107.188 76.516 107.164C77.692 107.14 78.82 107.116 79.9 107.092C79.3 106.78 78.616 106.42 77.848 106.012C77.08 105.58 76.42 105.184 75.868 104.824C75.412 104.512 75.112 104.104 74.968 103.6C74.824 103.072 74.872 102.604 75.112 102.196H72.376C72.616 102.604 72.664 103.072 72.52 103.6C72.4 104.104 72.112 104.512 71.656 104.824C71.128 105.136 70.504 105.496 69.784 105.904C69.064 106.312 68.416 106.672 67.84 106.984C69.328 107.128 71.116 107.2 73.204 107.2ZM72.232 98.704H75.616V97.3H72.232V98.704ZM106.864 110.872C104.632 110.872 102.904 110.32 101.68 109.216C100.48 108.136 99.88 106.624 99.88 104.68C99.88 102.832 100.516 101.344 101.788 100.216C103.06 99.064 104.836 98.488 107.116 98.488C107.332 98.488 107.548 98.488 107.764 98.488C107.98 98.488 108.196 98.5 108.412 98.524C108.388 97.564 108.352 96.544 108.304 95.464C108.28 94.384 108.244 93.268 108.196 92.116C105.676 92.26 103.564 92.296 101.86 92.224C101.14 92.2 100.54 91.924 100.06 91.396C99.58 90.868 99.352 90.244 99.376 89.524C99.4 88.804 99.676 88.204 100.204 87.724C100.732 87.22 101.356 86.992 102.076 87.04C102.796 87.064 103.684 87.064 104.74 87.04C105.796 87.016 106.912 86.98 108.088 86.932C108.088 86.14 108.076 85.372 108.052 84.628C108.052 83.86 108.052 83.128 108.052 82.432C108.052 81.688 108.316 81.064 108.844 80.56C109.372 80.032 110.008 79.768 110.752 79.768C111.496 79.768 112.12 80.032 112.624 80.56C113.152 81.064 113.416 81.688 113.416 82.432C113.416 83.08 113.416 83.752 113.416 84.448C113.44 85.144 113.452 85.852 113.452 86.572C114.388 86.5 115.24 86.428 116.008 86.356C116.776 86.26 117.412 86.176 117.916 86.104C117.628 85.936 117.424 85.744 117.304 85.528C117.112 85.216 116.8 84.772 116.368 84.196C115.96 83.596 115.624 83.092 115.36 82.684C115.168 82.396 115.108 82.036 115.18 81.604C115.252 81.148 115.48 80.776 115.864 80.488C116.2 80.248 116.572 80.14 116.98 80.164C117.412 80.188 117.784 80.344 118.096 80.632C118.456 80.968 118.852 81.412 119.284 81.964C119.74 82.492 120.1 82.984 120.364 83.44C120.628 83.872 120.712 84.328 120.616 84.808C120.52 85.264 120.268 85.66 119.86 85.996C119.788 86.044 119.704 86.092 119.608 86.14C119.536 86.164 119.452 86.2 119.356 86.248C119.764 86.416 120.112 86.668 120.4 87.004C120.712 87.34 120.904 87.748 120.976 88.228C121.096 88.924 120.94 89.572 120.508 90.172C120.1 90.748 119.536 91.096 118.816 91.216C118.216 91.312 117.46 91.408 116.548 91.504C115.636 91.6 114.64 91.696 113.56 91.792C113.608 93.232 113.644 94.636 113.668 96.004C113.692 97.348 113.716 98.572 113.74 99.676C115.084 100.132 116.32 100.66 117.448 101.26C118.576 101.86 119.536 102.46 120.328 103.06C120.928 103.516 121.288 104.116 121.408 104.86C121.528 105.58 121.372 106.252 120.94 106.876C120.508 107.476 119.92 107.86 119.176 108.028C118.456 108.172 117.796 108.016 117.196 107.56C116.668 107.152 116.128 106.756 115.576 106.372C115.024 105.988 114.436 105.64 113.812 105.328C113.38 109.024 111.064 110.872 106.864 110.872ZM95.056 110.908C94.312 111.028 93.64 110.872 93.04 110.44C92.44 110.032 92.068 109.468 91.924 108.748C91.78 107.956 91.66 106.876 91.564 105.508C91.492 104.116 91.444 102.568 91.42 100.864C91.42 99.136 91.432 97.348 91.456 95.5C91.504 93.628 91.576 91.816 91.672 90.064C91.768 88.312 91.888 86.716 92.032 85.276C92.2 83.836 92.392 82.672 92.608 81.784C92.8 81.064 93.208 80.512 93.832 80.128C94.456 79.744 95.128 79.636 95.848 79.804C96.568 79.972 97.12 80.38 97.504 81.028C97.912 81.652 98.02 82.324 97.828 83.044C97.612 83.908 97.432 85.012 97.288 86.356C97.144 87.676 97.024 89.128 96.928 90.712C96.832 92.296 96.76 93.928 96.712 95.608C96.688 97.264 96.688 98.884 96.712 100.468C96.736 102.028 96.784 103.444 96.856 104.716C96.952 105.988 97.072 107.02 97.216 107.812C97.336 108.532 97.18 109.192 96.748 109.792C96.34 110.416 95.776 110.788 95.056 110.908ZM123.784 82.864C123.424 83.176 122.992 83.32 122.488 83.296C121.984 83.272 121.564 83.056 121.228 82.648C120.988 82.384 120.64 81.976 120.184 81.424C119.728 80.848 119.332 80.368 118.996 79.984C118.78 79.72 118.684 79.372 118.708 78.94C118.756 78.484 118.948 78.1 119.284 77.788C119.572 77.524 119.932 77.38 120.364 77.356C120.796 77.332 121.18 77.452 121.516 77.716C121.924 78.028 122.368 78.436 122.848 78.94C123.352 79.42 123.76 79.864 124.072 80.272C124.36 80.68 124.48 81.124 124.432 81.604C124.408 82.084 124.192 82.504 123.784 82.864ZM106.864 105.796C107.392 105.796 107.8 105.664 108.088 105.4C108.4 105.136 108.556 104.716 108.556 104.14V103.564C108.268 103.516 107.98 103.48 107.692 103.456C107.428 103.432 107.152 103.42 106.864 103.42C106.288 103.42 105.856 103.54 105.568 103.78C105.304 103.996 105.172 104.284 105.172 104.644C105.172 105.028 105.304 105.316 105.568 105.508C105.832 105.7 106.264 105.796 106.864 105.796ZM135.016 112.06C134.32 112.06 133.708 111.808 133.18 111.304C132.676 110.8 132.424 110.188 132.424 109.468V103.456C132.16 103.864 131.908 104.248 131.668 104.608C131.452 104.968 131.248 105.304 131.056 105.616C130.672 106.264 130.108 106.672 129.364 106.84C128.644 106.984 127.972 106.852 127.348 106.444C126.748 106.036 126.376 105.472 126.232 104.752C126.112 104.008 126.268 103.336 126.7 102.736C127.444 101.68 128.296 100.456 129.256 99.064C130.24 97.648 131.296 96.22 132.424 94.78V91.108C132.112 91.18 131.716 91.3 131.236 91.468C130.756 91.612 130.3 91.744 129.868 91.864C129.46 91.984 129.172 92.068 129.004 92.116C128.284 92.284 127.612 92.176 126.988 91.792C126.364 91.384 125.968 90.82 125.8 90.1C125.632 89.38 125.752 88.708 126.16 88.084C126.568 87.46 127.132 87.064 127.852 86.896C128.116 86.824 128.488 86.74 128.968 86.644C129.472 86.548 129.976 86.44 130.48 86.32C130.984 86.2 131.392 86.116 131.704 86.068C131.824 86.02 131.944 85.996 132.064 85.996C132.208 85.972 132.328 85.948 132.424 85.924V81.316C132.424 80.596 132.676 79.984 133.18 79.48C133.708 78.976 134.32 78.724 135.016 78.724C135.736 78.724 136.348 78.976 136.852 79.48C137.38 79.984 137.644 80.596 137.644 81.316V86.572C138.076 86.884 138.448 87.292 138.76 87.796C138.808 87.844 138.844 87.892 138.868 87.94C138.892 87.988 138.916 88.036 138.94 88.084C139.972 87.316 141.016 86.704 142.072 86.248C143.128 85.768 144.184 85.528 145.24 85.528C148.024 85.528 149.992 86.428 151.144 88.228C152.32 90.028 152.584 92.788 151.936 96.508C151.648 98.164 151.432 99.472 151.288 100.432C151.168 101.368 151.108 102.076 151.108 102.556C151.108 103.012 151.144 103.324 151.216 103.492C151.312 103.66 151.432 103.78 151.576 103.852C152.056 104.116 152.548 104.14 153.052 103.924C153.58 103.684 154.18 103.264 154.852 102.664C155.404 102.16 156.052 101.968 156.796 102.088C157.564 102.208 158.176 102.544 158.632 103.096C159.112 103.672 159.316 104.332 159.244 105.076C159.172 105.82 158.86 106.444 158.308 106.948C156.628 108.484 154.864 109.384 153.016 109.648C151.168 109.912 149.536 109.624 148.12 108.784C146.8 107.968 146.008 106.732 145.744 105.076C145.504 103.42 145.672 101.14 146.248 98.236C146.68 96.124 146.884 94.54 146.86 93.484C146.86 92.404 146.668 91.672 146.284 91.288C145.924 90.904 145.42 90.712 144.772 90.712C144.148 90.712 143.44 90.964 142.648 91.468C141.88 91.972 141.064 92.644 140.2 93.484C139.36 94.324 138.508 95.26 137.644 96.292V109.468C137.644 110.188 137.38 110.8 136.852 111.304C136.348 111.808 135.736 112.06 135.016 112.06ZM177.568 111.232C176.08 111.16 174.772 110.848 173.644 110.296C172.54 109.768 171.688 109.024 171.088 108.064C170.488 107.104 170.224 105.988 170.296 104.716C170.368 103.636 170.692 102.688 171.268 101.872C171.844 101.056 172.624 100.432 173.608 100C174.616 99.544 175.756 99.376 177.028 99.496C179.02 99.64 180.46 100.252 181.348 101.332C182.236 102.412 182.572 103.72 182.356 105.256C183.028 104.8 183.508 104.224 183.796 103.528C184.108 102.808 184.264 101.992 184.264 101.08C184.264 100.336 184.024 99.604 183.544 98.884C183.088 98.164 182.428 97.576 181.564 97.12C180.724 96.64 179.716 96.4 178.54 96.4C177.388 96.376 176.116 96.7 174.724 97.372C173.332 98.044 171.856 99.172 170.296 100.756C169.744 101.332 169.036 101.632 168.172 101.656C167.332 101.656 166.648 101.344 166.12 100.72C165.664 100.168 165.448 99.532 165.472 98.812C165.52 98.068 165.832 97.48 166.408 97.048C167.848 95.968 169.312 94.804 170.8 93.556C172.288 92.308 173.704 91.084 175.048 89.884C176.392 88.66 177.568 87.556 178.576 86.572C178.96 86.212 179.092 85.876 178.972 85.564C178.852 85.252 178.48 85.144 177.856 85.24C177.016 85.36 176.152 85.48 175.264 85.6C174.376 85.72 173.476 85.84 172.564 85.96C171.844 86.056 171.184 85.888 170.584 85.456C170.008 85 169.66 84.4 169.54 83.656C169.444 82.936 169.612 82.288 170.044 81.712C170.5 81.112 171.1 80.764 171.844 80.668C172.444 80.572 173.164 80.488 174.004 80.416C174.868 80.344 175.732 80.272 176.596 80.2C177.46 80.128 178.192 80.08 178.792 80.056C180.4 79.936 181.72 80.176 182.752 80.776C183.784 81.352 184.492 82.132 184.876 83.116C185.26 84.1 185.296 85.156 184.984 86.284C184.696 87.412 184.012 88.468 182.932 89.452C182.62 89.764 182.188 90.16 181.636 90.64C181.108 91.12 180.508 91.648 179.836 92.224C181.588 92.176 183.196 92.5 184.66 93.196C186.148 93.868 187.348 94.888 188.26 96.256C189.172 97.6 189.628 99.268 189.628 101.26C189.628 103.54 189.112 105.448 188.08 106.984C187.048 108.496 185.62 109.612 183.796 110.332C181.996 111.052 179.92 111.352 177.568 111.232ZM176.632 106.3C176.944 106.324 177.388 106.324 177.964 106.3C178.252 105.724 178.312 105.208 178.144 104.752C177.976 104.272 177.58 103.984 176.956 103.888C176.476 103.792 176.068 103.84 175.732 104.032C175.396 104.224 175.204 104.5 175.156 104.86C175.108 105.292 175.216 105.616 175.48 105.832C175.768 106.048 176.152 106.204 176.632 106.3ZM209.464 110.872C208.792 110.872 208.264 110.656 207.88 110.224C207.52 109.816 207.34 109.324 207.34 108.748C207.34 108.148 207.52 107.644 207.88 107.236C208.264 106.804 208.792 106.588 209.464 106.588H217.636V103.744H213.496C212.824 103.744 212.296 103.54 211.912 103.132C211.528 102.7 211.336 102.184 211.336 101.584C211.336 101.008 211.528 100.516 211.912 100.108C212.296 99.676 212.824 99.46 213.496 99.46H217.636V96.796H216.844C214.708 96.796 213.16 96.388 212.2 95.572C211.264 94.732 210.796 93.304 210.796 91.288V85.492C210.796 83.5 211.264 82.084 212.2 81.244C213.16 80.404 214.708 79.984 216.844 79.984H223.288C225.424 79.984 226.972 80.404 227.932 81.244C228.916 82.084 229.408 83.5 229.408 85.492V91.288C229.408 93.304 228.916 94.732 227.932 95.572C226.972 96.388 225.424 96.796 223.288 96.796H222.532V99.46H226.996C227.668 99.46 228.196 99.676 228.58 100.108C228.964 100.516 229.156 101.008 229.156 101.584C229.156 102.184 228.964 102.7 228.58 103.132C228.196 103.54 227.668 103.744 226.996 103.744H222.532V106.588H228.796C229.468 106.588 229.984 106.804 230.344 107.236C230.728 107.644 230.92 108.148 230.92 108.748C230.92 109.324 230.728 109.816 230.344 110.224C229.984 110.656 229.468 110.872 228.796 110.872H209.464ZM199.996 107.2C199.18 107.416 198.496 107.356 197.944 107.02C197.392 106.684 197.02 106.18 196.828 105.508C196.612 104.74 196.684 104.092 197.044 103.564C197.404 103.036 197.968 102.688 198.736 102.52C199.12 102.424 199.516 102.328 199.924 102.232C200.356 102.136 200.788 102.04 201.22 101.944V95.212H199.456C198.76 95.212 198.208 94.996 197.8 94.564C197.392 94.108 197.188 93.568 197.188 92.944C197.188 92.32 197.392 91.792 197.8 91.36C198.208 90.904 198.76 90.676 199.456 90.676H201.22V84.988H199.276C198.58 84.988 198.028 84.772 197.62 84.34C197.236 83.884 197.044 83.356 197.044 82.756C197.044 82.132 197.236 81.604 197.62 81.172C198.028 80.716 198.58 80.488 199.276 80.488H208.096C208.792 80.488 209.332 80.716 209.716 81.172C210.124 81.604 210.328 82.132 210.328 82.756C210.328 83.356 210.124 83.884 209.716 84.34C209.332 84.772 208.792 84.988 208.096 84.988H206.116V90.676H207.556C208.252 90.676 208.804 90.904 209.212 91.36C209.62 91.792 209.824 92.32 209.824 92.944C209.824 93.568 209.62 94.108 209.212 94.564C208.804 94.996 208.252 95.212 207.556 95.212H206.116V100.756C206.5 100.636 206.86 100.528 207.196 100.432C207.556 100.336 207.892 100.24 208.204 100.144C208.876 99.952 209.452 99.988 209.932 100.252C210.436 100.516 210.772 100.96 210.94 101.584C211.108 102.208 211.072 102.76 210.832 103.24C210.592 103.696 210.1 104.056 209.356 104.32C208.564 104.608 207.592 104.932 206.44 105.292C205.312 105.652 204.172 106 203.02 106.336C201.868 106.672 200.86 106.96 199.996 107.2ZM222.532 92.836H222.784C223.552 92.836 224.056 92.728 224.296 92.512C224.536 92.272 224.656 91.852 224.656 91.252V90.28H222.532V92.836ZM222.532 86.464H224.656V85.528C224.656 84.904 224.536 84.484 224.296 84.268C224.056 84.052 223.552 83.944 222.784 83.944H222.532V86.464ZM217.42 92.836H217.636V90.28H215.548V91.252C215.548 91.852 215.668 92.272 215.908 92.512C216.148 92.728 216.652 92.836 217.42 92.836ZM215.548 86.464H217.636V83.944H217.42C216.652 83.944 216.148 84.052 215.908 84.268C215.668 84.484 215.548 84.904 215.548 85.528V86.464ZM246.292 111.268C243.604 111.268 241.444 110.968 239.812 110.368C238.204 109.792 237.04 108.784 236.32 107.344C235.6 105.904 235.24 103.912 235.24 101.368V96.184C235.24 93.616 235.6 91.624 236.32 90.208C237.04 88.768 238.204 87.76 239.812 87.184C241.444 86.584 243.604 86.284 246.292 86.284H247.228V80.776C247.228 79.936 247.492 79.264 248.02 78.76C248.572 78.232 249.232 77.968 250 77.968C250.768 77.968 251.416 78.232 251.944 78.76C252.496 79.264 252.772 79.936 252.772 80.776V86.284H253.6C256.312 86.284 258.472 86.584 260.08 87.184C261.712 87.76 262.888 88.768 263.608 90.208C264.328 91.624 264.688 93.616 264.688 96.184V101.368C264.688 103.912 264.328 105.904 263.608 107.344C262.888 108.784 261.712 109.792 260.08 110.368C258.472 110.968 256.312 111.268 253.6 111.268H246.292ZM246.184 106.444H247.228V100.972H240.82V101.512C240.82 102.808 240.964 103.816 241.252 104.536C241.54 105.256 242.068 105.76 242.836 106.048C243.628 106.312 244.744 106.444 246.184 106.444ZM252.772 106.444H253.744C255.208 106.444 256.312 106.312 257.056 106.048C257.824 105.76 258.352 105.256 258.64 104.536C258.928 103.816 259.072 102.808 259.072 101.512V100.972H252.772V106.444ZM240.82 96.112H247.228V91.072H246.184C244.744 91.072 243.628 91.216 242.836 91.504C242.068 91.768 241.54 92.26 241.252 92.98C240.964 93.7 240.82 94.708 240.82 96.004V96.112ZM252.772 96.112H259.072V96.004C259.072 94.708 258.928 93.7 258.64 92.98C258.352 92.26 257.824 91.768 257.056 91.504C256.312 91.216 255.208 91.072 253.744 91.072H252.772V96.112Z" fill="#89C3EB"/>
<path d="M155.52 73.608C155.2 73.5547 154.939 73.4 154.736 73.144C154.533 72.888 154.453 72.5947 154.496 72.264C154.549 71.9333 154.704 71.672 154.96 71.48C155.216 71.2773 155.509 71.1973 155.84 71.24C156.171 71.2827 156.453 71.2933 156.688 71.272C156.923 71.24 157.12 71.1333 157.28 70.952C157.451 70.76 157.595 70.4613 157.712 70.056C157.84 69.6507 157.952 69.0907 158.048 68.376C158.144 67.7253 158.155 67.2347 158.08 66.904C158.005 66.5733 157.835 66.3547 157.568 66.248C157.301 66.1307 156.923 66.088 156.432 66.12C156.037 67.4747 155.547 68.7867 154.96 70.056C154.373 71.3253 153.717 72.4027 152.992 73.288C152.789 73.5333 152.523 73.6773 152.192 73.72C151.872 73.7627 151.579 73.6827 151.312 73.48C151.056 73.2773 150.907 73.0107 150.864 72.68C150.821 72.3493 150.907 72.0613 151.12 71.816C151.696 71.1227 152.229 70.3013 152.72 69.352C153.211 68.4027 153.637 67.4 154 66.344C153.723 66.3653 153.445 66.392 153.168 66.424C152.891 66.456 152.629 66.4827 152.384 66.504C152.053 66.536 151.76 66.4507 151.504 66.248C151.248 66.0453 151.104 65.7787 151.072 65.448C151.04 65.1173 151.125 64.824 151.328 64.568C151.531 64.312 151.797 64.168 152.128 64.136C152.533 64.0933 152.949 64.056 153.376 64.024C153.813 63.992 154.24 63.96 154.656 63.928C154.752 63.4907 154.827 63.064 154.88 62.648C154.944 62.2213 154.987 61.8 155.008 61.384C155.029 61.0533 155.163 60.7813 155.408 60.568C155.653 60.344 155.941 60.2427 156.272 60.264C156.603 60.2853 156.88 60.4187 157.104 60.664C157.339 60.9093 157.435 61.1973 157.392 61.528C157.317 62.2747 157.189 63.048 157.008 63.848C158.416 63.912 159.381 64.3333 159.904 65.112C160.427 65.88 160.581 67.0747 160.368 68.696C160.187 70.072 159.899 71.1387 159.504 71.896C159.12 72.6533 158.603 73.1547 157.952 73.4C157.301 73.656 156.491 73.7253 155.52 73.608ZM164.656 68.904C164.368 69.0533 164.064 69.0853 163.744 69C163.435 68.904 163.2 68.712 163.04 68.424C162.859 68.104 162.629 67.7573 162.352 67.384C162.085 67 161.803 66.632 161.504 66.28C161.205 65.928 160.933 65.624 160.688 65.368C160.464 65.1227 160.341 64.8453 160.32 64.536C160.299 64.216 160.4 63.9387 160.624 63.704C160.848 63.4587 161.125 63.336 161.456 63.336C161.797 63.336 162.085 63.448 162.32 63.672C162.864 64.1947 163.387 64.7813 163.888 65.432C164.389 66.072 164.805 66.6907 165.136 67.288C165.296 67.5653 165.328 67.864 165.232 68.184C165.136 68.504 164.944 68.744 164.656 68.904ZM164.672 62.184C164.555 62.0773 164.373 61.9227 164.128 61.72C163.883 61.5067 163.669 61.3307 163.488 61.192C163.381 61.096 163.312 60.952 163.28 60.76C163.259 60.5573 163.317 60.3707 163.456 60.2C163.563 60.0507 163.707 59.96 163.888 59.928C164.069 59.8853 164.245 59.9067 164.416 59.992C164.608 60.0987 164.832 60.2427 165.088 60.424C165.344 60.5947 165.557 60.76 165.728 60.92C165.888 61.0693 165.979 61.2507 166 61.464C166.021 61.6773 165.957 61.88 165.808 62.072C165.68 62.2427 165.504 62.344 165.28 62.376C165.056 62.3973 164.853 62.3333 164.672 62.184ZM163.184 63.752C163.077 63.6347 162.907 63.464 162.672 63.24C162.448 63.0053 162.261 62.808 162.112 62.648C162.005 62.5307 161.952 62.376 161.952 62.184C161.952 61.992 162.021 61.816 162.16 61.656C162.277 61.528 162.432 61.4533 162.624 61.432C162.816 61.4 162.992 61.4373 163.152 61.544C163.333 61.6613 163.541 61.8213 163.776 62.024C164.021 62.2267 164.213 62.4187 164.352 62.6C164.501 62.7707 164.576 62.9627 164.576 63.176C164.576 63.3787 164.496 63.5707 164.336 63.752C164.197 63.9013 164.011 63.9813 163.776 63.992C163.541 64.0027 163.344 63.9227 163.184 63.752Z" fill="#89C3EB"/>
<defs>
<clipPath id="clip0_2053_524">
<rect width="255.652" height="20" fill="white" transform="translate(33 103)"/>
</clipPath>
</defs>
</svg>
