<svg width="284" height="99" viewBox="0 0 284 99" fill="none" xmlns="http://www.w3.org/2000/svg">
<mask id="path-1-outside-1_699_438" maskUnits="userSpaceOnUse" x="1" y="13" width="283" height="26" fill="black">
<rect fill="white" x="1" y="13" width="283" height="26"/>
<path d="M10.8078 37.48C9.20775 37.48 7.71442 37.2027 6.32775 36.648C4.94108 36.072 3.75708 35.112 2.77575 33.768C2.37042 33.192 2.23175 32.6587 2.35975 32.168C2.50908 31.6773 2.87175 31.272 3.44775 30.952C4.00242 30.632 4.50375 30.5467 4.95175 30.696C5.42108 30.824 5.87975 31.1333 6.32775 31.624C6.86108 32.2213 7.50108 32.6907 8.24775 33.032C8.99442 33.352 9.90108 33.512 10.9678 33.512C12.4398 33.512 13.4211 33.2667 13.9118 32.776C14.4024 32.264 14.6478 31.592 14.6478 30.76C14.6478 30.2267 14.5198 29.768 14.2638 29.384C14.0291 29 13.4958 28.6373 12.6638 28.296C11.8531 27.9333 10.5944 27.5493 8.88775 27.144C6.81842 26.6533 5.29308 25.864 4.31175 24.776C3.33042 23.688 2.83975 22.3333 2.83975 20.712C2.83975 19.368 3.15975 18.1947 3.79975 17.192C4.43975 16.1893 5.33575 15.4107 6.48775 14.856C7.66108 14.28 9.03708 13.992 10.6158 13.992C12.2798 13.992 13.7198 14.2907 14.9358 14.888C16.1731 15.4853 17.1864 16.232 17.9757 17.128C18.4024 17.64 18.5624 18.152 18.4558 18.664C18.3491 19.1547 18.0291 19.6027 17.4958 20.008C16.9624 20.4133 16.4611 20.5733 15.9918 20.488C15.5224 20.3813 15.0531 20.0933 14.5838 19.624C14.1144 19.1547 13.5598 18.76 12.9198 18.44C12.2798 18.12 11.4904 17.96 10.5518 17.96C9.54908 17.96 8.72775 18.1733 8.08775 18.6C7.46908 19.0053 7.15975 19.6453 7.15975 20.52C7.15975 20.8613 7.24508 21.2133 7.41575 21.576C7.60775 21.9173 8.03442 22.2587 8.69575 22.6C9.37842 22.9413 10.4558 23.2933 11.9278 23.656C14.4238 24.2533 16.2264 25.1493 17.3358 26.344C18.4664 27.5173 19.0318 28.968 19.0318 30.696C19.0318 32.8933 18.2851 34.5787 16.7917 35.752C15.3198 36.904 13.3251 37.48 10.8078 37.48ZM24.5655 37C23.2428 37 22.5815 36.3387 22.5815 35.016V16.584C22.5815 15.2613 23.2428 14.6 24.5655 14.6H24.7575C26.0802 14.6 26.7415 15.2613 26.7415 16.584V23.272H36.3095V16.584C36.3095 15.2613 36.9708 14.6 38.2935 14.6H38.5175C39.8402 14.6 40.5015 15.2613 40.5015 16.584V35.016C40.5015 36.3387 39.8402 37 38.5175 37H38.2935C36.9708 37 36.3095 36.3387 36.3095 35.016V27.112H26.7415V35.016C26.7415 36.3387 26.0802 37 24.7575 37H24.5655ZM54.241 37.544C52.2143 37.544 50.401 37.064 48.801 36.104C47.201 35.144 45.9423 33.7893 45.025 32.04C44.129 30.2693 43.681 28.1893 43.681 25.8C43.681 23.3893 44.129 21.3093 45.025 19.56C45.9423 17.7893 47.201 16.424 48.801 15.464C50.401 14.4827 52.2143 13.992 54.241 13.992C56.2677 13.992 58.0703 14.4827 59.649 15.464C61.249 16.424 62.497 17.7893 63.393 19.56C64.3103 21.3093 64.769 23.3893 64.769 25.8C64.769 28.1893 64.3103 30.2693 63.393 32.04C62.497 33.7893 61.249 35.144 59.649 36.104C58.0703 37.064 56.2677 37.544 54.241 37.544ZM54.241 33.512C55.521 33.512 56.6197 33.192 57.537 32.552C58.4757 31.8907 59.1903 30.984 59.681 29.832C60.193 28.68 60.449 27.336 60.449 25.8C60.449 24.2427 60.193 22.888 59.681 21.736C59.1903 20.584 58.4757 19.688 57.537 19.048C56.6197 18.3867 55.521 18.056 54.241 18.056C52.9823 18.056 51.8837 18.3867 50.945 19.048C50.0277 19.688 49.313 20.584 48.801 21.736C48.289 22.888 48.033 24.2427 48.033 25.8C48.033 27.336 48.289 28.68 48.801 29.832C49.313 30.984 50.0277 31.8907 50.945 32.552C51.8837 33.192 52.9823 33.512 54.241 33.512ZM75.4588 37.096C74.8614 37.096 74.3068 36.9467 73.7948 36.648C73.2828 36.3493 72.9201 35.9013 72.7068 35.304L66.3068 17.032C66.0294 16.264 66.0294 15.6667 66.3068 15.24C66.5841 14.8133 67.1814 14.6 68.0988 14.6C69.3148 14.6 70.1148 15.176 70.4988 16.328L75.4268 31.4L80.3868 16.328C80.7708 15.176 81.5921 14.6 82.8507 14.6C83.6188 14.6 84.1521 14.824 84.4508 15.272C84.7708 15.6987 84.8028 16.2853 84.5468 17.032L78.1468 35.304C77.9334 35.9013 77.5708 36.3493 77.0588 36.648C76.5468 36.9467 76.0134 37.096 75.4588 37.096ZM89.9123 37C88.5043 37 87.8003 36.296 87.8003 34.888V16.712C87.8003 15.304 88.5043 14.6 89.9123 14.6H100.952C102.36 14.6 103.064 15.24 103.064 16.52C103.064 17.8 102.36 18.44 100.952 18.44H91.9603V23.656H99.9923C101.4 23.656 102.104 24.296 102.104 25.576C102.104 26.856 101.4 27.496 99.9923 27.496H91.9603V33.16H101.304C102.712 33.16 103.416 33.8 103.416 35.08C103.416 36.36 102.712 37 101.304 37H89.9123ZM108.725 37C107.317 37 106.613 36.296 106.613 34.888V16.712C106.613 15.304 107.306 14.6 108.693 14.6C110.079 14.6 110.773 15.304 110.773 16.712V33.16H120.149C121.557 33.16 122.261 33.8 122.261 35.08C122.261 36.36 121.557 37 120.149 37H108.725ZM136.006 37C134.598 37 133.894 36.296 133.894 34.888V16.712C133.894 15.304 134.598 14.6 136.006 14.6H147.046C148.454 14.6 149.158 15.24 149.158 16.52C149.158 17.8 148.454 18.44 147.046 18.44H138.054V23.656H146.086C147.494 23.656 148.198 24.296 148.198 25.576C148.198 26.856 147.494 27.496 146.086 27.496H138.054V33.16H147.398C148.806 33.16 149.51 33.8 149.51 35.08C149.51 36.36 148.806 37 147.398 37H136.006ZM154.786 37C153.4 37 152.707 36.296 152.707 34.888V16.712C152.707 15.304 153.4 14.6 154.786 14.6H155.235C156.301 14.6 157.144 15.0587 157.763 15.976L166.883 29.736V16.712C166.883 15.304 167.587 14.6 168.995 14.6C170.381 14.6 171.075 15.304 171.075 16.712V34.888C171.075 36.296 170.413 37 169.091 37H168.739C167.629 37 166.787 36.5413 166.211 35.624L156.867 21.352V34.888C156.867 36.296 156.173 37 154.786 37ZM184.644 37.544C182.617 37.544 180.814 37.064 179.236 36.104C177.678 35.144 176.452 33.7893 175.556 32.04C174.681 30.2693 174.243 28.1893 174.243 25.8C174.243 23.3893 174.681 21.3093 175.556 19.56C176.452 17.7893 177.678 16.424 179.236 15.464C180.814 14.4827 182.617 13.992 184.644 13.992C185.902 13.992 187.086 14.1627 188.196 14.504C189.326 14.8453 190.329 15.2933 191.204 15.848C191.78 16.2107 192.089 16.6587 192.132 17.192C192.174 17.704 191.982 18.2267 191.556 18.76C191.15 19.2933 190.702 19.5707 190.212 19.592C189.742 19.6133 189.22 19.4533 188.644 19.112C188.068 18.792 187.438 18.536 186.756 18.344C186.073 18.152 185.369 18.056 184.644 18.056C183.385 18.056 182.297 18.3867 181.38 19.048C180.484 19.688 179.79 20.584 179.3 21.736C178.83 22.888 178.596 24.2427 178.596 25.8C178.596 27.336 178.83 28.68 179.3 29.832C179.79 30.984 180.484 31.8907 181.38 32.552C182.297 33.192 183.385 33.512 184.644 33.512C185.625 33.512 186.425 33.4267 187.044 33.256C187.662 33.064 188.185 32.8293 188.612 32.552V28.232H187.332C185.924 28.232 185.22 27.592 185.22 26.312C185.22 25.032 185.924 24.392 187.332 24.392H190.724C192.132 24.392 192.836 25.096 192.836 26.504V33.64C192.836 34.216 192.74 34.7067 192.548 35.112C192.356 35.496 192.014 35.8053 191.524 36.04C190.542 36.5307 189.454 36.904 188.26 37.16C187.065 37.416 185.86 37.544 184.644 37.544ZM198.693 37C197.306 37 196.613 36.296 196.613 34.888V16.712C196.613 15.304 197.306 14.6 198.693 14.6C200.079 14.6 200.773 15.304 200.773 16.712V34.888C200.773 36.296 200.079 37 198.693 37ZM207.13 37C205.744 37 205.05 36.296 205.05 34.888V16.712C205.05 15.304 205.744 14.6 207.13 14.6H207.578C208.645 14.6 209.488 15.0587 210.106 15.976L219.226 29.736V16.712C219.226 15.304 219.93 14.6 221.338 14.6C222.725 14.6 223.418 15.304 223.418 16.712V34.888C223.418 36.296 222.757 37 221.434 37H221.082C219.973 37 219.13 36.5413 218.554 35.624L209.21 21.352V34.888C209.21 36.296 208.517 37 207.13 37ZM229.787 37C228.379 37 227.675 36.296 227.675 34.888V16.712C227.675 15.304 228.379 14.6 229.787 14.6H240.827C242.235 14.6 242.939 15.24 242.939 16.52C242.939 17.8 242.235 18.44 240.827 18.44H231.835V23.656H239.867C241.275 23.656 241.979 24.296 241.979 25.576C241.979 26.856 241.275 27.496 239.867 27.496H231.835V33.16H241.179C242.587 33.16 243.291 33.8 243.291 35.08C243.291 36.36 242.587 37 241.179 37H229.787ZM248.6 37C247.192 37 246.488 36.296 246.488 34.888V16.712C246.488 15.304 247.192 14.6 248.6 14.6H259.64C261.048 14.6 261.752 15.24 261.752 16.52C261.752 17.8 261.048 18.44 259.64 18.44H250.648V23.656H258.68C260.088 23.656 260.792 24.296 260.792 25.576C260.792 26.856 260.088 27.496 258.68 27.496H250.648V33.16H259.992C261.4 33.16 262.104 33.8 262.104 35.08C262.104 36.36 261.4 37 259.992 37H248.6ZM267.38 37C265.994 37 265.3 36.296 265.3 34.888V16.712C265.3 15.304 266.004 14.6 267.412 14.6H275.668C277.076 14.6 278.292 14.8133 279.316 15.24C280.362 15.6667 281.162 16.36 281.716 17.32C282.292 18.28 282.58 19.5707 282.58 21.192C282.58 23.1973 282.143 24.712 281.268 25.736C280.415 26.7387 279.231 27.3787 277.716 27.656L281.044 34.504C281.407 35.2293 281.471 35.8267 281.236 36.296C281.023 36.7653 280.564 37 279.86 37H279.188C278.015 37 277.194 36.4667 276.724 35.4L273.46 27.848H269.46V34.888C269.46 36.296 268.767 37 267.38 37ZM269.46 23.976H275.092C276.052 23.976 276.81 23.7627 277.364 23.336C277.919 22.9093 278.196 22.1947 278.196 21.192C278.196 20.2107 277.919 19.5067 277.364 19.08C276.81 18.6533 276.052 18.44 275.092 18.44H269.46V23.976Z"/>
</mask>
<path d="M10.8078 37.48C9.20775 37.48 7.71442 37.2027 6.32775 36.648C4.94108 36.072 3.75708 35.112 2.77575 33.768C2.37042 33.192 2.23175 32.6587 2.35975 32.168C2.50908 31.6773 2.87175 31.272 3.44775 30.952C4.00242 30.632 4.50375 30.5467 4.95175 30.696C5.42108 30.824 5.87975 31.1333 6.32775 31.624C6.86108 32.2213 7.50108 32.6907 8.24775 33.032C8.99442 33.352 9.90108 33.512 10.9678 33.512C12.4398 33.512 13.4211 33.2667 13.9118 32.776C14.4024 32.264 14.6478 31.592 14.6478 30.76C14.6478 30.2267 14.5198 29.768 14.2638 29.384C14.0291 29 13.4958 28.6373 12.6638 28.296C11.8531 27.9333 10.5944 27.5493 8.88775 27.144C6.81842 26.6533 5.29308 25.864 4.31175 24.776C3.33042 23.688 2.83975 22.3333 2.83975 20.712C2.83975 19.368 3.15975 18.1947 3.79975 17.192C4.43975 16.1893 5.33575 15.4107 6.48775 14.856C7.66108 14.28 9.03708 13.992 10.6158 13.992C12.2798 13.992 13.7198 14.2907 14.9358 14.888C16.1731 15.4853 17.1864 16.232 17.9757 17.128C18.4024 17.64 18.5624 18.152 18.4558 18.664C18.3491 19.1547 18.0291 19.6027 17.4958 20.008C16.9624 20.4133 16.4611 20.5733 15.9918 20.488C15.5224 20.3813 15.0531 20.0933 14.5838 19.624C14.1144 19.1547 13.5598 18.76 12.9198 18.44C12.2798 18.12 11.4904 17.96 10.5518 17.96C9.54908 17.96 8.72775 18.1733 8.08775 18.6C7.46908 19.0053 7.15975 19.6453 7.15975 20.52C7.15975 20.8613 7.24508 21.2133 7.41575 21.576C7.60775 21.9173 8.03442 22.2587 8.69575 22.6C9.37842 22.9413 10.4558 23.2933 11.9278 23.656C14.4238 24.2533 16.2264 25.1493 17.3358 26.344C18.4664 27.5173 19.0318 28.968 19.0318 30.696C19.0318 32.8933 18.2851 34.5787 16.7917 35.752C15.3198 36.904 13.3251 37.48 10.8078 37.48ZM24.5655 37C23.2428 37 22.5815 36.3387 22.5815 35.016V16.584C22.5815 15.2613 23.2428 14.6 24.5655 14.6H24.7575C26.0802 14.6 26.7415 15.2613 26.7415 16.584V23.272H36.3095V16.584C36.3095 15.2613 36.9708 14.6 38.2935 14.6H38.5175C39.8402 14.6 40.5015 15.2613 40.5015 16.584V35.016C40.5015 36.3387 39.8402 37 38.5175 37H38.2935C36.9708 37 36.3095 36.3387 36.3095 35.016V27.112H26.7415V35.016C26.7415 36.3387 26.0802 37 24.7575 37H24.5655ZM54.241 37.544C52.2143 37.544 50.401 37.064 48.801 36.104C47.201 35.144 45.9423 33.7893 45.025 32.04C44.129 30.2693 43.681 28.1893 43.681 25.8C43.681 23.3893 44.129 21.3093 45.025 19.56C45.9423 17.7893 47.201 16.424 48.801 15.464C50.401 14.4827 52.2143 13.992 54.241 13.992C56.2677 13.992 58.0703 14.4827 59.649 15.464C61.249 16.424 62.497 17.7893 63.393 19.56C64.3103 21.3093 64.769 23.3893 64.769 25.8C64.769 28.1893 64.3103 30.2693 63.393 32.04C62.497 33.7893 61.249 35.144 59.649 36.104C58.0703 37.064 56.2677 37.544 54.241 37.544ZM54.241 33.512C55.521 33.512 56.6197 33.192 57.537 32.552C58.4757 31.8907 59.1903 30.984 59.681 29.832C60.193 28.68 60.449 27.336 60.449 25.8C60.449 24.2427 60.193 22.888 59.681 21.736C59.1903 20.584 58.4757 19.688 57.537 19.048C56.6197 18.3867 55.521 18.056 54.241 18.056C52.9823 18.056 51.8837 18.3867 50.945 19.048C50.0277 19.688 49.313 20.584 48.801 21.736C48.289 22.888 48.033 24.2427 48.033 25.8C48.033 27.336 48.289 28.68 48.801 29.832C49.313 30.984 50.0277 31.8907 50.945 32.552C51.8837 33.192 52.9823 33.512 54.241 33.512ZM75.4588 37.096C74.8614 37.096 74.3068 36.9467 73.7948 36.648C73.2828 36.3493 72.9201 35.9013 72.7068 35.304L66.3068 17.032C66.0294 16.264 66.0294 15.6667 66.3068 15.24C66.5841 14.8133 67.1814 14.6 68.0988 14.6C69.3148 14.6 70.1148 15.176 70.4988 16.328L75.4268 31.4L80.3868 16.328C80.7708 15.176 81.5921 14.6 82.8507 14.6C83.6188 14.6 84.1521 14.824 84.4508 15.272C84.7708 15.6987 84.8028 16.2853 84.5468 17.032L78.1468 35.304C77.9334 35.9013 77.5708 36.3493 77.0588 36.648C76.5468 36.9467 76.0134 37.096 75.4588 37.096ZM89.9123 37C88.5043 37 87.8003 36.296 87.8003 34.888V16.712C87.8003 15.304 88.5043 14.6 89.9123 14.6H100.952C102.36 14.6 103.064 15.24 103.064 16.52C103.064 17.8 102.36 18.44 100.952 18.44H91.9603V23.656H99.9923C101.4 23.656 102.104 24.296 102.104 25.576C102.104 26.856 101.4 27.496 99.9923 27.496H91.9603V33.16H101.304C102.712 33.16 103.416 33.8 103.416 35.08C103.416 36.36 102.712 37 101.304 37H89.9123ZM108.725 37C107.317 37 106.613 36.296 106.613 34.888V16.712C106.613 15.304 107.306 14.6 108.693 14.6C110.079 14.6 110.773 15.304 110.773 16.712V33.16H120.149C121.557 33.16 122.261 33.8 122.261 35.08C122.261 36.36 121.557 37 120.149 37H108.725ZM136.006 37C134.598 37 133.894 36.296 133.894 34.888V16.712C133.894 15.304 134.598 14.6 136.006 14.6H147.046C148.454 14.6 149.158 15.24 149.158 16.52C149.158 17.8 148.454 18.44 147.046 18.44H138.054V23.656H146.086C147.494 23.656 148.198 24.296 148.198 25.576C148.198 26.856 147.494 27.496 146.086 27.496H138.054V33.16H147.398C148.806 33.16 149.51 33.8 149.51 35.08C149.51 36.36 148.806 37 147.398 37H136.006ZM154.786 37C153.4 37 152.707 36.296 152.707 34.888V16.712C152.707 15.304 153.4 14.6 154.786 14.6H155.235C156.301 14.6 157.144 15.0587 157.763 15.976L166.883 29.736V16.712C166.883 15.304 167.587 14.6 168.995 14.6C170.381 14.6 171.075 15.304 171.075 16.712V34.888C171.075 36.296 170.413 37 169.091 37H168.739C167.629 37 166.787 36.5413 166.211 35.624L156.867 21.352V34.888C156.867 36.296 156.173 37 154.786 37ZM184.644 37.544C182.617 37.544 180.814 37.064 179.236 36.104C177.678 35.144 176.452 33.7893 175.556 32.04C174.681 30.2693 174.243 28.1893 174.243 25.8C174.243 23.3893 174.681 21.3093 175.556 19.56C176.452 17.7893 177.678 16.424 179.236 15.464C180.814 14.4827 182.617 13.992 184.644 13.992C185.902 13.992 187.086 14.1627 188.196 14.504C189.326 14.8453 190.329 15.2933 191.204 15.848C191.78 16.2107 192.089 16.6587 192.132 17.192C192.174 17.704 191.982 18.2267 191.556 18.76C191.15 19.2933 190.702 19.5707 190.212 19.592C189.742 19.6133 189.22 19.4533 188.644 19.112C188.068 18.792 187.438 18.536 186.756 18.344C186.073 18.152 185.369 18.056 184.644 18.056C183.385 18.056 182.297 18.3867 181.38 19.048C180.484 19.688 179.79 20.584 179.3 21.736C178.83 22.888 178.596 24.2427 178.596 25.8C178.596 27.336 178.83 28.68 179.3 29.832C179.79 30.984 180.484 31.8907 181.38 32.552C182.297 33.192 183.385 33.512 184.644 33.512C185.625 33.512 186.425 33.4267 187.044 33.256C187.662 33.064 188.185 32.8293 188.612 32.552V28.232H187.332C185.924 28.232 185.22 27.592 185.22 26.312C185.22 25.032 185.924 24.392 187.332 24.392H190.724C192.132 24.392 192.836 25.096 192.836 26.504V33.64C192.836 34.216 192.74 34.7067 192.548 35.112C192.356 35.496 192.014 35.8053 191.524 36.04C190.542 36.5307 189.454 36.904 188.26 37.16C187.065 37.416 185.86 37.544 184.644 37.544ZM198.693 37C197.306 37 196.613 36.296 196.613 34.888V16.712C196.613 15.304 197.306 14.6 198.693 14.6C200.079 14.6 200.773 15.304 200.773 16.712V34.888C200.773 36.296 200.079 37 198.693 37ZM207.13 37C205.744 37 205.05 36.296 205.05 34.888V16.712C205.05 15.304 205.744 14.6 207.13 14.6H207.578C208.645 14.6 209.488 15.0587 210.106 15.976L219.226 29.736V16.712C219.226 15.304 219.93 14.6 221.338 14.6C222.725 14.6 223.418 15.304 223.418 16.712V34.888C223.418 36.296 222.757 37 221.434 37H221.082C219.973 37 219.13 36.5413 218.554 35.624L209.21 21.352V34.888C209.21 36.296 208.517 37 207.13 37ZM229.787 37C228.379 37 227.675 36.296 227.675 34.888V16.712C227.675 15.304 228.379 14.6 229.787 14.6H240.827C242.235 14.6 242.939 15.24 242.939 16.52C242.939 17.8 242.235 18.44 240.827 18.44H231.835V23.656H239.867C241.275 23.656 241.979 24.296 241.979 25.576C241.979 26.856 241.275 27.496 239.867 27.496H231.835V33.16H241.179C242.587 33.16 243.291 33.8 243.291 35.08C243.291 36.36 242.587 37 241.179 37H229.787ZM248.6 37C247.192 37 246.488 36.296 246.488 34.888V16.712C246.488 15.304 247.192 14.6 248.6 14.6H259.64C261.048 14.6 261.752 15.24 261.752 16.52C261.752 17.8 261.048 18.44 259.64 18.44H250.648V23.656H258.68C260.088 23.656 260.792 24.296 260.792 25.576C260.792 26.856 260.088 27.496 258.68 27.496H250.648V33.16H259.992C261.4 33.16 262.104 33.8 262.104 35.08C262.104 36.36 261.4 37 259.992 37H248.6ZM267.38 37C265.994 37 265.3 36.296 265.3 34.888V16.712C265.3 15.304 266.004 14.6 267.412 14.6H275.668C277.076 14.6 278.292 14.8133 279.316 15.24C280.362 15.6667 281.162 16.36 281.716 17.32C282.292 18.28 282.58 19.5707 282.58 21.192C282.58 23.1973 282.143 24.712 281.268 25.736C280.415 26.7387 279.231 27.3787 277.716 27.656L281.044 34.504C281.407 35.2293 281.471 35.8267 281.236 36.296C281.023 36.7653 280.564 37 279.86 37H279.188C278.015 37 277.194 36.4667 276.724 35.4L273.46 27.848H269.46V34.888C269.46 36.296 268.767 37 267.38 37ZM269.46 23.976H275.092C276.052 23.976 276.81 23.7627 277.364 23.336C277.919 22.9093 278.196 22.1947 278.196 21.192C278.196 20.2107 277.919 19.5067 277.364 19.08C276.81 18.6533 276.052 18.44 275.092 18.44H269.46V23.976Z" fill="white"/>
<path d="M6.32775 36.648L6.13593 37.1098L6.14206 37.1122L6.32775 36.648ZM2.77575 33.768L2.36678 34.0558L2.37194 34.0628L2.77575 33.768ZM2.35975 32.168L1.88141 32.0224L1.87848 32.032L1.87594 32.0418L2.35975 32.168ZM3.44775 30.952L3.6906 31.3891L3.69761 31.3851L3.44775 30.952ZM4.95175 30.696L4.79364 31.1703L4.8068 31.1747L4.82019 31.1784L4.95175 30.696ZM6.32775 31.624L6.70074 31.291L6.69699 31.2869L6.32775 31.624ZM8.24775 33.032L8.03981 33.4869L8.05079 33.4916L8.24775 33.032ZM13.9118 32.776L14.2654 33.1296L14.2727 33.122L13.9118 32.776ZM14.2638 29.384L13.8371 29.6447L13.8423 29.6531L13.8477 29.6614L14.2638 29.384ZM12.6638 28.296L12.4596 28.7524L12.4667 28.7556L12.474 28.7586L12.6638 28.296ZM8.88775 27.144L9.00329 26.6575L9.00311 26.6575L8.88775 27.144ZM4.31175 24.776L4.68303 24.4411L4.31175 24.776ZM3.79975 17.192L3.37829 16.923L3.79975 17.192ZM6.48775 14.856L6.70466 15.3065L6.70809 15.3048L6.48775 14.856ZM14.9358 14.888L14.7153 15.3368L14.7184 15.3383L14.9358 14.888ZM17.9757 17.128L18.36 16.8078L18.3509 16.7975L17.9757 17.128ZM18.4558 18.664L18.9444 18.7702L18.9452 18.766L18.4558 18.664ZM17.4958 20.008L17.1932 19.6099L17.4958 20.008ZM15.9918 20.488L15.8809 20.9756L15.8916 20.978L15.9023 20.9799L15.9918 20.488ZM14.5838 19.624L14.9373 19.2704H14.9373L14.5838 19.624ZM12.9198 18.44L13.1434 17.9928L12.9198 18.44ZM8.08775 18.6L8.36177 19.0182L8.3651 19.016L8.08775 18.6ZM7.41575 21.576L6.96334 21.7889L6.97107 21.8053L6.97996 21.8211L7.41575 21.576ZM8.69575 22.6L8.46641 23.0443L8.47214 23.0472L8.69575 22.6ZM11.9278 23.656L11.8081 24.1415L11.8114 24.1423L11.9278 23.656ZM17.3358 26.344L16.9693 26.6843L16.9757 26.6909L17.3358 26.344ZM16.7917 35.752L17.0999 36.1458L17.1007 36.1452L16.7917 35.752ZM10.8078 36.98C9.26678 36.98 7.83694 36.7132 6.51345 36.1838L6.14206 37.1122C7.59189 37.6922 9.14872 37.98 10.8078 37.98V36.98ZM6.51955 36.1863C5.22648 35.6491 4.11288 34.7514 3.17956 33.4732L2.37194 34.0628C3.40128 35.4726 4.65569 36.4949 6.13595 37.1097L6.51955 36.1863ZM3.18465 33.4803C2.82952 32.9756 2.76551 32.5934 2.84356 32.2942L1.87594 32.0418C1.69799 32.7239 1.91131 33.4084 2.36685 34.0557L3.18465 33.4803ZM2.83809 32.3136C2.9398 31.9794 3.19431 31.6648 3.69057 31.3891L3.20493 30.5149C2.54919 30.8792 2.07837 31.3753 1.88141 32.0224L2.83809 32.3136ZM3.69761 31.3851C4.17459 31.1099 4.52473 31.0807 4.79364 31.1703L5.10986 30.2217C4.48277 30.0126 3.83024 30.1541 3.19789 30.5189L3.69761 31.3851ZM4.82019 31.1784C5.17046 31.2739 5.55179 31.5157 5.95851 31.9611L6.69699 31.2869C6.20771 30.751 5.67171 30.3741 5.08331 30.2136L4.82019 31.1784ZM5.95478 31.957C6.53532 32.6072 7.23198 33.1174 8.03987 33.4867L8.45563 32.5773C7.77019 32.2639 7.18685 31.8355 6.70072 31.291L5.95478 31.957ZM8.05079 33.4916C8.87589 33.8452 9.85355 34.012 10.9678 34.012V33.012C9.94862 33.012 9.11294 32.8588 8.44471 32.5724L8.05079 33.4916ZM10.9678 34.012C11.7279 34.012 12.3852 33.949 12.929 33.8131C13.4698 33.6779 13.933 33.4618 14.2653 33.1296L13.5582 32.4224C13.3998 32.5808 13.127 32.7328 12.6865 32.8429C12.249 32.9523 11.6796 33.012 10.9678 33.012V34.012ZM14.2727 33.122C14.8679 32.5009 15.1478 31.697 15.1478 30.76H14.1478C14.1478 31.487 13.9369 32.0271 13.5508 32.43L14.2727 33.122ZM15.1478 30.76C15.1478 30.1437 14.9987 29.585 14.6798 29.1066L13.8477 29.6614C14.0408 29.951 14.1478 30.3096 14.1478 30.76H15.1478ZM14.6904 29.1233C14.3672 28.5944 13.7019 28.1815 12.8535 27.8334L12.474 28.7586C13.2896 29.0932 13.691 29.4056 13.8371 29.6447L14.6904 29.1233ZM12.8679 27.8396C12.013 27.4571 10.717 27.0645 9.00329 26.6575L8.77221 27.6305C10.4718 28.0341 11.6932 28.4096 12.4596 28.7524L12.8679 27.8396ZM9.00311 26.6575C6.98998 26.1802 5.57209 25.4268 4.68303 24.4411L3.94047 25.1109C5.01408 26.3012 6.64685 27.1265 8.77239 27.6305L9.00311 26.6575ZM4.68303 24.4411C3.79362 23.455 3.33975 22.2239 3.33975 20.712H2.33975C2.33975 22.4428 2.86721 23.921 3.94047 25.1109L4.68303 24.4411ZM3.33975 20.712C3.33975 19.4506 3.63895 18.3732 4.22121 17.461L3.37829 16.923C2.68055 18.0161 2.33975 19.2854 2.33975 20.712H3.33975ZM4.22121 17.461C4.80746 16.5426 5.62986 15.824 6.70466 15.3065L6.27084 14.4055C5.04164 14.9973 4.07204 15.8361 3.37829 16.923L4.22121 17.461ZM6.70809 15.3048C7.80006 14.7688 9.09782 14.492 10.6158 14.492V13.492C8.97635 13.492 7.52211 13.7912 6.26741 14.4072L6.70809 15.3048ZM10.6158 14.492C12.2204 14.492 13.5818 14.78 14.7153 15.3368L15.1562 14.4392C13.8577 13.8014 12.3391 13.492 10.6158 13.492V14.492ZM14.7184 15.3383C15.9046 15.9109 16.8615 16.6195 17.6006 17.4585L18.3509 16.7975C17.5114 15.8445 16.4415 15.0597 15.1531 14.4377L14.7184 15.3383ZM17.5916 17.4481C17.9499 17.8779 18.0335 18.2391 17.9663 18.562L18.9452 18.766C19.0913 18.0649 18.855 17.4021 18.3599 16.8079L17.5916 17.4481ZM17.9672 18.5578C17.8932 18.8981 17.6637 19.2523 17.1932 19.6099L17.7983 20.4061C18.3944 19.953 18.805 19.4112 18.9443 18.7702L17.9672 18.5578ZM17.1932 19.6099C16.7252 19.9656 16.364 20.0475 16.0812 19.9961L15.9023 20.9799C16.5582 21.0992 17.1997 20.861 17.7983 20.4061L17.1932 19.6099ZM16.1026 20.0004C15.7538 19.9212 15.3643 19.6974 14.9373 19.2704L14.2302 19.9776C14.7419 20.4892 15.2911 20.8415 15.8809 20.9756L16.1026 20.0004ZM14.9373 19.2704C14.4271 18.7603 13.8277 18.3349 13.1434 17.9928L12.6961 18.8872C13.2918 19.1851 13.8017 19.5491 14.2302 19.9776L14.9373 19.2704ZM13.1434 17.9928C12.4157 17.629 11.5448 17.46 10.5518 17.46V18.46C11.4361 18.46 12.1438 18.611 12.6961 18.8872L13.1434 17.9928ZM10.5518 17.46C9.47997 17.46 8.55412 17.6882 7.8104 18.184L8.3651 19.016C8.90138 18.6585 9.6182 18.46 10.5518 18.46V17.46ZM7.81374 18.1818C7.02662 18.6975 6.65975 19.5124 6.65975 20.52H7.65975C7.65975 19.7783 7.91154 19.3132 8.36176 19.0182L7.81374 18.1818ZM6.65975 20.52C6.65975 20.9467 6.76675 21.3711 6.96334 21.7889L7.86816 21.3631C7.72341 21.0555 7.65975 20.776 7.65975 20.52H6.65975ZM6.97996 21.8211C7.24654 22.295 7.7844 22.6923 8.46643 23.0443L8.92507 22.1557C8.28443 21.825 7.96896 21.5396 7.85154 21.3309L6.97996 21.8211ZM8.47214 23.0472C9.20638 23.4143 10.3281 23.7768 11.8081 24.1415L12.0474 23.1705C10.5834 22.8098 9.55045 22.4683 8.91936 22.1528L8.47214 23.0472ZM11.8114 24.1423C14.2621 24.7288 15.9555 25.5924 16.9694 26.6842L17.7021 26.0038C16.4973 24.7063 14.5854 23.7779 12.0441 23.1697L11.8114 24.1423ZM16.9757 26.6909C18.0108 27.7651 18.5318 29.0888 18.5318 30.696H19.5318C19.5318 28.8472 18.9221 27.2696 17.6958 25.9971L16.9757 26.6909ZM18.5318 30.696C18.5318 32.7671 17.8357 34.2959 16.4828 35.3588L17.1007 36.1452C18.7345 34.8614 19.5318 33.0196 19.5318 30.696H18.5318ZM16.4836 35.3582C15.1257 36.4209 13.2519 36.98 10.8078 36.98V37.98C13.3983 37.98 15.5138 37.3871 17.0999 36.1458L16.4836 35.3582ZM26.7415 23.272H26.2415V23.772H26.7415V23.272ZM36.3095 23.272V23.772H36.8095V23.272H36.3095ZM36.3095 27.112H36.8095V26.612H36.3095V27.112ZM26.7415 27.112V26.612H26.2415V27.112H26.7415ZM24.5655 36.5C23.9812 36.5 23.6349 36.3543 23.4311 36.1504C23.2272 35.9466 23.0815 35.6003 23.0815 35.016H22.0815C22.0815 35.7544 22.2664 36.4 22.7239 36.8576C23.1815 37.3151 23.8271 37.5 24.5655 37.5V36.5ZM23.0815 35.016V16.584H22.0815V35.016H23.0815ZM23.0815 16.584C23.0815 15.9997 23.2272 15.6534 23.4311 15.4496C23.6349 15.2457 23.9812 15.1 24.5655 15.1V14.1C23.8271 14.1 23.1815 14.2849 22.7239 14.7424C22.2664 15.2 22.0815 15.8456 22.0815 16.584H23.0815ZM24.5655 15.1H24.7575V14.1H24.5655V15.1ZM24.7575 15.1C25.3418 15.1 25.6881 15.2457 25.8919 15.4496C26.0958 15.6534 26.2415 15.9997 26.2415 16.584H27.2415C27.2415 15.8456 27.0566 15.2 26.5991 14.7424C26.1415 14.2849 25.4959 14.1 24.7575 14.1V15.1ZM26.2415 16.584V23.272H27.2415V16.584H26.2415ZM26.7415 23.772H36.3095V22.772H26.7415V23.772ZM36.8095 23.272V16.584H35.8095V23.272H36.8095ZM36.8095 16.584C36.8095 15.9997 36.9552 15.6534 37.1591 15.4496C37.3629 15.2457 37.7092 15.1 38.2935 15.1V14.1C37.5551 14.1 36.9095 14.2849 36.4519 14.7424C35.9944 15.2 35.8095 15.8456 35.8095 16.584H36.8095ZM38.2935 15.1H38.5175V14.1H38.2935V15.1ZM38.5175 15.1C39.1018 15.1 39.4481 15.2457 39.6519 15.4496C39.8558 15.6534 40.0015 15.9997 40.0015 16.584H41.0015C41.0015 15.8456 40.8166 15.2 40.3591 14.7424C39.9015 14.2849 39.2559 14.1 38.5175 14.1V15.1ZM40.0015 16.584V35.016H41.0015V16.584H40.0015ZM40.0015 35.016C40.0015 35.6003 39.8558 35.9466 39.6519 36.1504C39.4481 36.3543 39.1018 36.5 38.5175 36.5V37.5C39.2559 37.5 39.9015 37.3151 40.3591 36.8576C40.8166 36.4 41.0015 35.7544 41.0015 35.016H40.0015ZM38.5175 36.5H38.2935V37.5H38.5175V36.5ZM38.2935 36.5C37.7092 36.5 37.3629 36.3543 37.1591 36.1504C36.9552 35.9466 36.8095 35.6003 36.8095 35.016H35.8095C35.8095 35.7544 35.9944 36.4 36.4519 36.8576C36.9095 37.3151 37.5551 37.5 38.2935 37.5V36.5ZM36.8095 35.016V27.112H35.8095V35.016H36.8095ZM36.3095 26.612H26.7415V27.612H36.3095V26.612ZM26.2415 27.112V35.016H27.2415V27.112H26.2415ZM26.2415 35.016C26.2415 35.6003 26.0958 35.9466 25.8919 36.1504C25.6881 36.3543 25.3418 36.5 24.7575 36.5V37.5C25.4959 37.5 26.1415 37.3151 26.5991 36.8576C27.0566 36.4 27.2415 35.7544 27.2415 35.016H26.2415ZM24.7575 36.5H24.5655V37.5H24.7575V36.5ZM48.801 36.104L48.5438 36.5327L48.801 36.104ZM45.025 32.04L44.5788 32.2658L44.5822 32.2722L45.025 32.04ZM45.025 19.56L44.581 19.33L44.58 19.3321L45.025 19.56ZM48.801 15.464L49.0583 15.8928L49.0624 15.8902L48.801 15.464ZM59.649 15.464L59.385 15.8887L59.3918 15.8927L59.649 15.464ZM63.393 19.56L62.9468 19.7858L62.9502 19.7922L63.393 19.56ZM63.393 32.04L62.949 31.81L62.948 31.8121L63.393 32.04ZM59.649 36.104L59.3917 35.6752L59.3892 35.6768L59.649 36.104ZM57.537 32.552L57.8231 32.9621L57.825 32.9607L57.537 32.552ZM59.681 29.832L59.224 29.6289L59.221 29.6361L59.681 29.832ZM59.681 21.736L59.2209 21.932L59.2241 21.9391L59.681 21.736ZM57.537 19.048L57.2445 19.4537L57.2553 19.4611L57.537 19.048ZM50.945 19.048L51.2311 19.4581L51.233 19.4567L50.945 19.048ZM48.801 21.736L48.3441 21.5329L48.801 21.736ZM48.801 29.832L48.3441 30.0351L48.801 29.832ZM50.945 32.552L50.6525 32.9577L50.6633 32.9651L50.945 32.552ZM54.241 37.044C52.2969 37.044 50.5739 36.5846 49.0582 35.6753L48.5438 36.5327C50.2281 37.5434 52.1318 38.044 54.241 38.044V37.044ZM49.0582 35.6753C47.5417 34.7653 46.3451 33.4808 45.4678 31.8078L44.5822 32.2722C45.5396 34.0979 46.8603 35.5227 48.5438 36.5327L49.0582 35.6753ZM45.4711 31.8142C44.6171 30.1264 44.181 28.1267 44.181 25.8H43.181C43.181 28.2519 43.6409 30.4122 44.5789 32.2658L45.4711 31.8142ZM44.181 25.8C44.181 23.4509 44.6174 21.4525 45.47 19.7879L44.58 19.3321C43.6406 21.1662 43.181 23.3277 43.181 25.8H44.181ZM45.469 19.79C46.3467 18.0957 47.5432 16.8018 49.0582 15.8927L48.5438 15.0353C46.8588 16.0462 45.5379 17.483 44.581 19.33L45.469 19.79ZM49.0624 15.8902C50.5775 14.961 52.299 14.492 54.241 14.492V13.492C52.1297 13.492 50.2245 14.0044 48.5396 15.0378L49.0624 15.8902ZM54.241 14.492C56.1831 14.492 57.8927 14.961 59.385 15.8886L59.913 15.0394C58.248 14.0044 56.3522 13.492 54.241 13.492V14.492ZM59.3918 15.8927C60.9057 16.8011 62.0906 18.0936 62.9469 19.7858L63.8391 19.3342C62.9034 17.485 61.5923 16.0469 59.9062 15.0353L59.3918 15.8927ZM62.9502 19.7922C63.8226 21.4558 64.269 23.4526 64.269 25.8H65.269C65.269 23.3261 64.7981 21.1629 63.8358 19.3278L62.9502 19.7922ZM64.269 25.8C64.269 28.125 63.8229 30.1232 62.949 31.81L63.837 32.27C64.7977 30.4155 65.269 28.2536 65.269 25.8H64.269ZM62.948 31.8121C62.0922 33.4829 60.9073 34.7659 59.3918 35.6753L59.9062 36.5327C61.5907 35.5221 62.9018 34.0958 63.838 32.2679L62.948 31.8121ZM59.3892 35.6768C57.8963 36.5846 56.1852 37.044 54.241 37.044V38.044C56.3501 38.044 58.2444 37.5434 59.9088 36.5312L59.3892 35.6768ZM54.241 34.012C55.608 34.012 56.8101 33.6688 57.8231 32.9621L57.2509 32.1419C56.4292 32.7152 55.434 33.012 54.241 33.012V34.012ZM57.825 32.9607C58.8465 32.241 59.6173 31.2575 60.141 30.0279L59.221 29.6361C58.7633 30.7105 58.1048 31.5403 57.249 32.1433L57.825 32.9607ZM60.1379 30.0351C60.6838 28.8068 60.949 27.391 60.949 25.8H59.949C59.949 27.281 59.7022 28.5532 59.2241 29.6289L60.1379 30.0351ZM60.949 25.8C60.949 24.1887 60.6842 22.762 60.1379 21.5329L59.2241 21.9391C59.7018 23.014 59.949 24.2966 59.949 25.8H60.949ZM60.141 21.5401C59.6169 20.3094 58.8443 19.3342 57.8187 18.6349L57.2553 19.4611C58.107 20.0418 58.7638 20.8586 59.221 21.9319L60.141 21.5401ZM57.8294 18.6424C56.8159 17.9118 55.6115 17.556 54.241 17.556V18.556C55.4305 18.556 56.4234 18.8616 57.2446 19.4536L57.8294 18.6424ZM54.241 17.556C52.8896 17.556 51.6881 17.9128 50.657 18.6393L51.233 19.4567C52.0792 18.8605 53.075 18.556 54.241 18.556V17.556ZM50.6589 18.6379C49.6577 19.3365 48.8883 20.3085 48.3441 21.5329L49.2579 21.9391C49.7377 20.8595 50.3977 20.0395 51.2311 19.4581L50.6589 18.6379ZM48.3441 21.5329C47.7978 22.762 47.533 24.1887 47.533 25.8H48.533C48.533 24.2966 48.7802 23.014 49.2579 21.9391L48.3441 21.5329ZM47.533 25.8C47.533 27.391 47.7982 28.8068 48.3441 30.0351L49.2579 29.6289C48.7798 28.5532 48.533 27.281 48.533 25.8H47.533ZM48.3441 30.0351C48.8878 31.2584 49.6555 32.2387 50.6526 32.9576L51.2374 32.1464C50.3999 31.5426 49.7382 30.7096 49.2579 29.6289L48.3441 30.0351ZM50.6633 32.9651C51.6939 33.6678 52.8931 34.012 54.241 34.012V33.012C53.0715 33.012 52.0734 32.7162 51.2267 32.1389L50.6633 32.9651ZM73.7948 36.648L73.5428 37.0799L73.7948 36.648ZM72.7067 35.304L72.2348 35.4693L72.2359 35.4722L72.7067 35.304ZM66.3067 17.032L66.7787 16.8667L66.777 16.8622L66.3067 17.032ZM66.3067 15.24L66.726 15.5125V15.5125L66.3067 15.24ZM70.4987 16.328L70.974 16.1726L70.9731 16.1699L70.4987 16.328ZM75.4268 31.4L74.9515 31.5554L75.4252 33.0042L75.9017 31.5563L75.4268 31.4ZM80.3867 16.328L79.9124 16.1699L79.9118 16.1717L80.3867 16.328ZM84.4508 15.272L84.0347 15.5493L84.0424 15.5609L84.0508 15.572L84.4508 15.272ZM84.5468 17.032L85.0187 17.1973L85.0197 17.1942L84.5468 17.032ZM78.1468 35.304L78.6176 35.4722L78.6186 35.4693L78.1468 35.304ZM77.0587 36.648L76.8068 36.2161L77.0587 36.648ZM75.4587 36.596C74.9492 36.596 74.4816 36.4698 74.0467 36.2161L73.5428 37.0799C74.1319 37.4235 74.7736 37.596 75.4587 37.596V36.596ZM74.0467 36.2161C73.6439 35.9812 73.3543 35.6306 73.1776 35.1358L72.2359 35.4722C72.4858 36.1721 72.9216 36.7175 73.5428 37.0799L74.0467 36.2161ZM73.1786 35.1387L66.7786 16.8667L65.8349 17.1973L72.2349 35.4693L73.1786 35.1387ZM66.777 16.8622C66.5205 16.1519 66.5751 15.7446 66.726 15.5125L65.8875 14.9675C65.4837 15.5888 65.5383 16.3761 65.8365 17.2018L66.777 16.8622ZM66.726 15.5125C66.8566 15.3115 67.2176 15.1 68.0987 15.1V14.1C67.1452 14.1 66.3115 14.3152 65.8875 14.9675L66.726 15.5125ZM68.0987 15.1C68.6267 15.1 69.0219 15.2241 69.3186 15.4378C69.6153 15.6514 69.8578 15.9863 70.0244 16.4861L70.9731 16.1699C70.7557 15.5177 70.4062 14.9886 69.9029 14.6262C69.3997 14.2639 68.7868 14.1 68.0987 14.1V15.1ZM70.0235 16.4834L74.9515 31.5554L75.902 31.2446L70.974 16.1726L70.0235 16.4834ZM75.9017 31.5563L80.8617 16.4843L79.9118 16.1717L74.9518 31.2437L75.9017 31.5563ZM80.8611 16.4861C81.0265 15.9899 81.2721 15.6558 81.5778 15.4414C81.8851 15.2259 82.2978 15.1 82.8508 15.1V14.1C82.145 14.1 81.5177 14.2621 81.0037 14.6226C80.4881 14.9842 80.131 15.5141 79.9124 16.1699L80.8611 16.4861ZM82.8508 15.1C83.5286 15.1 83.8646 15.2942 84.0347 15.5493L84.8668 14.9946C84.4395 14.3538 83.7089 14.1 82.8508 14.1V15.1ZM84.0508 15.572C84.2297 15.8106 84.3034 16.2 84.0738 16.8698L85.0197 17.1942C85.3021 16.3706 85.3118 15.5867 84.8507 14.972L84.0508 15.572ZM84.0749 16.8667L77.6749 35.1387L78.6186 35.4693L85.0186 17.1973L84.0749 16.8667ZM77.6759 35.1358C77.4992 35.6306 77.2096 35.9812 76.8068 36.2161L77.3107 37.0799C77.9319 36.7175 78.3677 36.1721 78.6176 35.4722L77.6759 35.1358ZM76.8068 36.2161C76.3658 36.4733 75.9188 36.596 75.4587 36.596V37.596C76.108 37.596 76.7277 37.42 77.3107 37.0799L76.8068 36.2161ZM91.9603 18.44V17.94H91.4603V18.44H91.9603ZM91.9603 23.656H91.4603V24.156H91.9603V23.656ZM91.9603 27.496V26.996H91.4603V27.496H91.9603ZM91.9603 33.16H91.4603V33.66H91.9603V33.16ZM89.9122 36.5C89.2853 36.5 88.907 36.3436 88.6818 36.1184C88.4566 35.8933 88.3002 35.5149 88.3002 34.888H87.3002C87.3002 35.6691 87.4959 36.3467 87.9747 36.8256C88.4535 37.3044 89.1312 37.5 89.9122 37.5V36.5ZM88.3002 34.888V16.712H87.3002V34.888H88.3002ZM88.3002 16.712C88.3002 16.0851 88.4566 15.7067 88.6818 15.4816C88.907 15.2564 89.2853 15.1 89.9122 15.1V14.1C89.1312 14.1 88.4535 14.2956 87.9747 14.7744C87.4959 15.2533 87.3002 15.9309 87.3002 16.712H88.3002ZM89.9122 15.1H100.952V14.1H89.9122V15.1ZM100.952 15.1C101.59 15.1 101.976 15.246 102.2 15.45C102.415 15.6457 102.564 15.97 102.564 16.52H103.564C103.564 15.79 103.361 15.1543 102.873 14.71C102.393 14.274 101.722 14.1 100.952 14.1V15.1ZM102.564 16.52C102.564 17.07 102.415 17.3943 102.2 17.59C101.976 17.794 101.59 17.94 100.952 17.94V18.94C101.722 18.94 102.393 18.766 102.873 18.33C103.361 17.8857 103.564 17.25 103.564 16.52H102.564ZM100.952 17.94H91.9603V18.94H100.952V17.94ZM91.4603 18.44V23.656H92.4603V18.44H91.4603ZM91.9603 24.156H99.9922V23.156H91.9603V24.156ZM99.9922 24.156C100.63 24.156 101.016 24.302 101.24 24.506C101.455 24.7017 101.604 25.026 101.604 25.576H102.604C102.604 24.846 102.401 24.2103 101.913 23.766C101.433 23.33 100.762 23.156 99.9922 23.156V24.156ZM101.604 25.576C101.604 26.126 101.455 26.4503 101.24 26.646C101.016 26.85 100.63 26.996 99.9922 26.996V27.996C100.762 27.996 101.433 27.822 101.913 27.386C102.401 26.9417 102.604 26.306 102.604 25.576H101.604ZM99.9922 26.996H91.9603V27.996H99.9922V26.996ZM91.4603 27.496V33.16H92.4603V27.496H91.4603ZM91.9603 33.66H101.304V32.66H91.9603V33.66ZM101.304 33.66C101.942 33.66 102.328 33.806 102.552 34.01C102.767 34.2057 102.916 34.53 102.916 35.08H103.916C103.916 34.35 103.713 33.7143 103.225 33.27C102.745 32.834 102.074 32.66 101.304 32.66V33.66ZM102.916 35.08C102.916 35.63 102.767 35.9543 102.552 36.15C102.328 36.354 101.942 36.5 101.304 36.5V37.5C102.074 37.5 102.745 37.326 103.225 36.89C103.713 36.4457 103.916 35.81 103.916 35.08H102.916ZM101.304 36.5H89.9122V37.5H101.304V36.5ZM110.773 33.16H110.273V33.66H110.773V33.16ZM108.725 36.5C108.098 36.5 107.719 36.3436 107.494 36.1184C107.269 35.8933 107.113 35.5149 107.113 34.888H106.113C106.113 35.6691 106.308 36.3467 106.787 36.8256C107.266 37.3044 107.944 37.5 108.725 37.5V36.5ZM107.113 34.888V16.712H106.113V34.888H107.113ZM107.113 16.712C107.113 16.0832 107.267 15.7038 107.489 15.4788C107.709 15.2553 108.078 15.1 108.693 15.1V14.1C107.92 14.1 107.25 14.2967 106.777 14.7772C106.305 15.2562 106.113 15.9328 106.113 16.712H107.113ZM108.693 15.1C109.307 15.1 109.676 15.2553 109.897 15.4788C110.118 15.7038 110.273 16.0832 110.273 16.712H111.273C111.273 15.9328 111.081 15.2562 110.609 14.7772C110.136 14.2967 109.465 14.1 108.693 14.1V15.1ZM110.273 16.712V33.16H111.273V16.712H110.273ZM110.773 33.66H120.149V32.66H110.773V33.66ZM120.149 33.66C120.787 33.66 121.172 33.806 121.396 34.01C121.612 34.2057 121.761 34.53 121.761 35.08H122.761C122.761 34.35 122.558 33.7143 122.069 33.27C121.589 32.834 120.919 32.66 120.149 32.66V33.66ZM121.761 35.08C121.761 35.63 121.612 35.9543 121.396 36.15C121.172 36.354 120.787 36.5 120.149 36.5V37.5C120.919 37.5 121.589 37.326 122.069 36.89C122.558 36.4457 122.761 35.81 122.761 35.08H121.761ZM120.149 36.5H108.725V37.5H120.149V36.5ZM138.054 18.44V17.94H137.554V18.44H138.054ZM138.054 23.656H137.554V24.156H138.054V23.656ZM138.054 27.496V26.996H137.554V27.496H138.054ZM138.054 33.16H137.554V33.66H138.054V33.16ZM136.006 36.5C135.379 36.5 135.001 36.3436 134.776 36.1184C134.55 35.8933 134.394 35.5149 134.394 34.888H133.394C133.394 35.6691 133.59 36.3467 134.068 36.8256C134.547 37.3044 135.225 37.5 136.006 37.5V36.5ZM134.394 34.888V16.712H133.394V34.888H134.394ZM134.394 16.712C134.394 16.0851 134.55 15.7067 134.776 15.4816C135.001 15.2564 135.379 15.1 136.006 15.1V14.1C135.225 14.1 134.547 14.2956 134.068 14.7744C133.59 15.2533 133.394 15.9309 133.394 16.712H134.394ZM136.006 15.1H147.046V14.1H136.006V15.1ZM147.046 15.1C147.684 15.1 148.069 15.246 148.294 15.45C148.509 15.6457 148.658 15.97 148.658 16.52H149.658C149.658 15.79 149.455 15.1543 148.966 14.71C148.487 14.274 147.816 14.1 147.046 14.1V15.1ZM148.658 16.52C148.658 17.07 148.509 17.3943 148.294 17.59C148.069 17.794 147.684 17.94 147.046 17.94V18.94C147.816 18.94 148.487 18.766 148.966 18.33C149.455 17.8857 149.658 17.25 149.658 16.52H148.658ZM147.046 17.94H138.054V18.94H147.046V17.94ZM137.554 18.44V23.656H138.554V18.44H137.554ZM138.054 24.156H146.086V23.156H138.054V24.156ZM146.086 24.156C146.724 24.156 147.109 24.302 147.334 24.506C147.549 24.7017 147.698 25.026 147.698 25.576H148.698C148.698 24.846 148.495 24.2103 148.006 23.766C147.527 23.33 146.856 23.156 146.086 23.156V24.156ZM147.698 25.576C147.698 26.126 147.549 26.4503 147.334 26.646C147.109 26.85 146.724 26.996 146.086 26.996V27.996C146.856 27.996 147.527 27.822 148.006 27.386C148.495 26.9417 148.698 26.306 148.698 25.576H147.698ZM146.086 26.996H138.054V27.996H146.086V26.996ZM137.554 27.496V33.16H138.554V27.496H137.554ZM138.054 33.66H147.398V32.66H138.054V33.66ZM147.398 33.66C148.036 33.66 148.421 33.806 148.646 34.01C148.861 34.2057 149.01 34.53 149.01 35.08H150.01C150.01 34.35 149.807 33.7143 149.318 33.27C148.839 32.834 148.168 32.66 147.398 32.66V33.66ZM149.01 35.08C149.01 35.63 148.861 35.9543 148.646 36.15C148.421 36.354 148.036 36.5 147.398 36.5V37.5C148.168 37.5 148.839 37.326 149.318 36.89C149.807 36.4457 150.01 35.81 150.01 35.08H149.01ZM147.398 36.5H136.006V37.5H147.398V36.5ZM157.762 15.976L158.179 15.6998L158.177 15.6964L157.762 15.976ZM166.883 29.736L166.466 30.0122L167.383 31.3954V29.736H166.883ZM166.21 35.624L166.634 35.3581L166.629 35.3501L166.21 35.624ZM156.867 21.352L157.285 21.0781L156.367 19.6755V21.352H156.867ZM154.786 36.5C154.172 36.5 153.803 36.3447 153.583 36.1212C153.361 35.8962 153.206 35.5168 153.206 34.888H152.206C152.206 35.6672 152.398 36.3438 152.87 36.8228C153.343 37.3033 154.014 37.5 154.786 37.5V36.5ZM153.206 34.888V16.712H152.206V34.888H153.206ZM153.206 16.712C153.206 16.0832 153.361 15.7038 153.583 15.4788C153.803 15.2553 154.172 15.1 154.786 15.1V14.1C154.014 14.1 153.343 14.2967 152.87 14.7772C152.398 15.2562 152.206 15.9328 152.206 16.712H153.206ZM154.786 15.1H155.234V14.1H154.786V15.1ZM155.234 15.1C156.128 15.1 156.818 15.4699 157.348 16.2556L158.177 15.6964C157.47 14.6474 156.475 14.1 155.234 14.1V15.1ZM157.346 16.2522L166.466 30.0122L167.299 29.4598L158.179 15.6998L157.346 16.2522ZM167.383 29.736V16.712H166.383V29.736H167.383ZM167.383 16.712C167.383 16.0851 167.539 15.7067 167.764 15.4816C167.989 15.2564 168.368 15.1 168.995 15.1V14.1C168.213 14.1 167.536 14.2956 167.057 14.7744C166.578 15.2533 166.383 15.9309 166.383 16.712H167.383ZM168.995 15.1C169.609 15.1 169.978 15.2553 170.198 15.4788C170.42 15.7038 170.574 16.0832 170.574 16.712H171.574C171.574 15.9328 171.383 15.2562 170.911 14.7772C170.438 14.2967 169.767 14.1 168.995 14.1V15.1ZM170.574 16.712V34.888H171.574V16.712H170.574ZM170.574 34.888C170.574 35.5224 170.425 35.9052 170.214 36.1297C170.009 36.3482 169.666 36.5 169.09 36.5V37.5C169.837 37.5 170.487 37.2998 170.943 36.8143C171.393 36.3348 171.574 35.6616 171.574 34.888H170.574ZM169.09 36.5H168.738V37.5H169.09V36.5ZM168.738 36.5C167.796 36.5 167.116 36.1255 166.634 35.3581L165.787 35.8899C166.457 36.9571 167.462 37.5 168.738 37.5V36.5ZM166.629 35.3501L157.285 21.0781L156.448 21.6259L165.792 35.8979L166.629 35.3501ZM156.367 21.352V34.888H157.367V21.352H156.367ZM156.367 34.888C156.367 35.5168 156.212 35.8962 155.99 36.1212C155.77 36.3447 155.401 36.5 154.786 36.5V37.5C155.559 37.5 156.23 37.3033 156.703 36.8228C157.175 36.3438 157.367 35.6672 157.367 34.888H156.367ZM179.236 36.104L178.973 36.5296L178.976 36.5312L179.236 36.104ZM175.555 32.04L175.107 32.2615L175.11 32.2679L175.555 32.04ZM175.555 19.56L175.109 19.3342L175.108 19.3364L175.555 19.56ZM179.236 15.464L179.498 15.8896L179.499 15.8886L179.236 15.464ZM188.195 14.504L188.048 14.9819L188.051 14.9827L188.195 14.504ZM191.204 15.848L190.936 16.2703L190.937 16.2711L191.204 15.848ZM192.132 17.192L191.633 17.2319L191.633 17.2335L192.132 17.192ZM191.555 18.76L191.165 18.4476L191.157 18.4575L191.555 18.76ZM190.212 19.592L190.19 19.0925L190.189 19.0925L190.212 19.592ZM188.643 19.112L188.898 18.6817L188.886 18.6749L188.643 19.112ZM181.38 19.048L181.67 19.4549L181.672 19.4536L181.38 19.048ZM179.299 21.736L178.839 21.54L178.836 21.5473L179.299 21.736ZM179.299 29.832L178.836 30.0207L178.839 30.0279L179.299 29.832ZM181.38 32.552L181.082 32.9544L181.093 32.9621L181.38 32.552ZM187.044 33.256L187.176 33.738L187.184 33.7359L187.192 33.7335L187.044 33.256ZM188.611 32.552L188.884 32.9712L189.111 32.8233V32.552H188.611ZM188.611 28.232H189.111V27.732H188.611V28.232ZM192.548 35.112L192.995 35.3357L192.999 35.326L192.548 35.112ZM191.523 36.04L191.308 35.5889L191.3 35.5928L191.523 36.04ZM188.26 37.16L188.155 36.6711L188.26 37.16ZM184.643 37.044C182.699 37.044 180.988 36.5846 179.495 35.6768L178.976 36.5312C180.64 37.5434 182.534 38.044 184.643 38.044V37.044ZM179.498 35.6784C178.024 34.7699 176.858 33.4863 176.001 31.8121L175.11 32.2679C176.045 34.0923 177.332 35.5181 178.973 36.5296L179.498 35.6784ZM176.004 31.8186C175.17 30.1297 174.743 28.1284 174.743 25.8H173.743C173.743 28.2502 174.192 30.409 175.107 32.2614L176.004 31.8186ZM174.743 25.8C174.743 23.4492 175.17 21.4492 176.003 19.7836L175.108 19.3364C174.192 21.1694 173.743 23.3294 173.743 25.8H174.743ZM176.002 19.7858C176.86 18.0902 178.026 16.7971 179.498 15.8896L178.973 15.0384C177.331 16.0509 176.043 17.4885 175.109 19.3342L176.002 19.7858ZM179.499 15.8886C180.992 14.961 182.701 14.492 184.643 14.492V13.492C182.532 13.492 180.637 14.0044 178.972 15.0394L179.499 15.8886ZM184.643 14.492C185.857 14.492 186.991 14.6564 188.048 14.9819L188.343 14.0261C187.182 13.6689 185.948 13.492 184.643 13.492V14.492ZM188.051 14.9827C189.144 15.3127 190.104 15.743 190.936 16.2703L191.471 15.4257C190.553 14.8436 189.508 14.378 188.34 14.0253L188.051 14.9827ZM190.937 16.2711C191.42 16.575 191.606 16.8976 191.633 17.2319L192.63 17.1521C192.571 16.4197 192.139 15.8463 191.47 15.4249L190.937 16.2711ZM191.633 17.2335C191.662 17.5808 191.539 17.9804 191.165 18.4477L191.946 19.0723C192.425 18.4729 192.686 17.8272 192.63 17.1505L191.633 17.2335ZM191.157 18.4575C190.807 18.9179 190.483 19.0797 190.19 19.0925L190.233 20.0915C190.921 20.0616 191.493 19.6687 191.954 19.0625L191.157 18.4575ZM190.189 19.0925C189.85 19.1079 189.425 18.9937 188.898 18.6819L188.389 19.5421C189.014 19.913 189.634 20.1187 190.234 20.0915L190.189 19.0925ZM188.886 18.6749C188.274 18.3347 187.608 18.0644 186.891 17.8627L186.62 18.8253C187.268 19.0076 187.861 19.2493 188.401 19.5491L188.886 18.6749ZM186.891 17.8627C186.163 17.658 185.414 17.556 184.643 17.556V18.556C185.324 18.556 185.983 18.646 186.62 18.8253L186.891 17.8627ZM184.643 17.556C183.292 17.556 182.099 17.9128 181.087 18.6424L181.672 19.4536C182.495 18.8605 183.477 18.556 184.643 18.556V17.556ZM181.089 18.6411C180.108 19.3416 179.361 20.3154 178.839 21.5401L179.76 21.9319C180.219 20.8526 180.859 20.0344 181.67 19.4549L181.089 18.6411ZM178.836 21.5473C178.337 22.7723 178.096 24.1937 178.096 25.8H179.096C179.096 24.2916 179.323 23.0037 179.763 21.9246L178.836 21.5473ZM178.096 25.8C178.096 27.386 178.338 28.7965 178.836 30.0206L179.763 29.6434C179.323 28.5635 179.096 27.286 179.096 25.8H178.096ZM178.839 30.0279C179.361 31.2516 180.106 32.2336 181.083 32.9543L181.676 32.1497C180.861 31.5477 180.22 30.7164 179.76 29.6361L178.839 30.0279ZM181.093 32.9621C182.105 33.6678 183.296 34.012 184.643 34.012V33.012C183.474 33.012 182.489 32.7162 181.666 32.1419L181.093 32.9621ZM184.643 34.012C185.649 34.012 186.498 33.9251 187.176 33.738L186.911 32.774C186.352 32.9282 185.601 33.012 184.643 33.012V34.012ZM187.192 33.7335C187.843 33.5314 188.41 33.2794 188.884 32.9712L188.339 32.1328C187.96 32.3793 187.481 32.5966 186.895 32.7785L187.192 33.7335ZM189.111 32.552V28.232H188.111V32.552H189.111ZM188.611 27.732H187.331V28.732H188.611V27.732ZM187.331 27.732C186.693 27.732 186.308 27.586 186.084 27.382C185.869 27.1863 185.719 26.862 185.719 26.312H184.719C184.719 27.042 184.922 27.6777 185.411 28.122C185.891 28.558 186.562 28.732 187.331 28.732V27.732ZM185.719 26.312C185.719 25.762 185.869 25.4377 186.084 25.242C186.308 25.038 186.693 24.892 187.331 24.892V23.892C186.562 23.892 185.891 24.066 185.411 24.502C184.922 24.9463 184.719 25.582 184.719 26.312H185.719ZM187.331 24.892H190.723V23.892H187.331V24.892ZM190.723 24.892C191.35 24.892 191.729 25.0484 191.954 25.2736C192.179 25.4987 192.335 25.8771 192.335 26.504H193.335C193.335 25.7229 193.14 25.0453 192.661 24.5664C192.182 24.0876 191.505 23.892 190.723 23.892V24.892ZM192.335 26.504V33.64H193.335V26.504H192.335ZM192.335 33.64C192.335 34.1623 192.248 34.5757 192.096 34.898L192.999 35.326C193.231 34.8376 193.335 34.2697 193.335 33.64H192.335ZM192.1 34.8884C191.97 35.149 191.725 35.3892 191.308 35.5889L191.739 36.4911C192.303 36.2214 192.741 35.843 192.995 35.3356L192.1 34.8884ZM191.3 35.5928C190.36 36.0626 189.313 36.4229 188.155 36.6711L188.364 37.6489C189.596 37.3851 190.724 36.9987 191.747 36.4872L191.3 35.5928ZM188.155 36.6711C186.994 36.9198 185.824 37.044 184.643 37.044V38.044C185.895 38.044 187.135 37.9122 188.364 37.6489L188.155 36.6711ZM198.693 36.5C198.078 36.5 197.709 36.3447 197.489 36.1212C197.267 35.8962 197.113 35.5168 197.113 34.888H196.113C196.113 35.6672 196.305 36.3438 196.777 36.8228C197.25 37.3033 197.92 37.5 198.693 37.5V36.5ZM197.113 34.888V16.712H196.113V34.888H197.113ZM197.113 16.712C197.113 16.0832 197.267 15.7038 197.489 15.4788C197.709 15.2553 198.078 15.1 198.693 15.1V14.1C197.92 14.1 197.25 14.2967 196.777 14.7772C196.305 15.2562 196.113 15.9328 196.113 16.712H197.113ZM198.693 15.1C199.307 15.1 199.676 15.2553 199.897 15.4788C200.118 15.7038 200.273 16.0832 200.273 16.712H201.273C201.273 15.9328 201.081 15.2562 200.609 14.7772C200.136 14.2967 199.465 14.1 198.693 14.1V15.1ZM200.273 16.712V34.888H201.273V16.712H200.273ZM200.273 34.888C200.273 35.5168 200.118 35.8962 199.897 36.1212C199.676 36.3447 199.307 36.5 198.693 36.5V37.5C199.465 37.5 200.136 37.3033 200.609 36.8228C201.081 36.3438 201.273 35.6672 201.273 34.888H200.273ZM210.106 15.976L210.523 15.6998L210.521 15.6964L210.106 15.976ZM219.226 29.736L218.809 30.0122L219.726 31.3954V29.736H219.226ZM218.554 35.624L218.978 35.3581L218.973 35.3501L218.554 35.624ZM209.21 21.352L209.629 21.0781L208.71 19.6755V21.352H209.21ZM207.13 36.5C206.516 36.5 206.147 36.3447 205.926 36.1212C205.705 35.8962 205.55 35.5168 205.55 34.888H204.55C204.55 35.6672 204.742 36.3438 205.214 36.8228C205.687 37.3033 206.358 37.5 207.13 37.5V36.5ZM205.55 34.888V16.712H204.55V34.888H205.55ZM205.55 16.712C205.55 16.0832 205.705 15.7038 205.926 15.4788C206.147 15.2553 206.516 15.1 207.13 15.1V14.1C206.358 14.1 205.687 14.2967 205.214 14.7772C204.742 15.2562 204.55 15.9328 204.55 16.712H205.55ZM207.13 15.1H207.578V14.1H207.13V15.1ZM207.578 15.1C208.471 15.1 209.162 15.4699 209.692 16.2556L210.521 15.6964C209.813 14.6474 208.818 14.1 207.578 14.1V15.1ZM209.689 16.2522L218.809 30.0122L219.643 29.4598L210.523 15.6998L209.689 16.2522ZM219.726 29.736V16.712H218.726V29.736H219.726ZM219.726 16.712C219.726 16.0851 219.883 15.7067 220.108 15.4816C220.333 15.2564 220.711 15.1 221.338 15.1V14.1C220.557 14.1 219.88 14.2956 219.401 14.7744C218.922 15.2533 218.726 15.9309 218.726 16.712H219.726ZM221.338 15.1C221.953 15.1 222.322 15.2553 222.542 15.4788C222.764 15.7038 222.918 16.0832 222.918 16.712H223.918C223.918 15.9328 223.726 15.2562 223.254 14.7772C222.781 14.2967 222.111 14.1 221.338 14.1V15.1ZM222.918 16.712V34.888H223.918V16.712H222.918ZM222.918 34.888C222.918 35.5224 222.769 35.9052 222.558 36.1297C222.353 36.3482 222.01 36.5 221.434 36.5V37.5C222.181 37.5 222.831 37.2998 223.287 36.8143C223.737 36.3348 223.918 35.6616 223.918 34.888H222.918ZM221.434 36.5H221.082V37.5H221.434V36.5ZM221.082 36.5C220.14 36.5 219.46 36.1255 218.978 35.3581L218.131 35.8899C218.801 36.9571 219.806 37.5 221.082 37.5V36.5ZM218.973 35.3501L209.629 21.0781L208.792 21.6259L218.136 35.8979L218.973 35.3501ZM208.71 21.352V34.888H209.71V21.352H208.71ZM208.71 34.888C208.71 35.5168 208.556 35.8962 208.334 36.1212C208.114 36.3447 207.745 36.5 207.13 36.5V37.5C207.903 37.5 208.573 37.3033 209.046 36.8228C209.518 36.3438 209.71 35.6672 209.71 34.888H208.71ZM231.835 18.44V17.94H231.335V18.44H231.835ZM231.835 23.656H231.335V24.156H231.835V23.656ZM231.835 27.496V26.996H231.335V27.496H231.835ZM231.835 33.16H231.335V33.66H231.835V33.16ZM229.787 36.5C229.16 36.5 228.782 36.3436 228.557 36.1184C228.332 35.8933 228.175 35.5149 228.175 34.888H227.175C227.175 35.6691 227.371 36.3467 227.85 36.8256C228.329 37.3044 229.006 37.5 229.787 37.5V36.5ZM228.175 34.888V16.712H227.175V34.888H228.175ZM228.175 16.712C228.175 16.0851 228.332 15.7067 228.557 15.4816C228.782 15.2564 229.16 15.1 229.787 15.1V14.1C229.006 14.1 228.329 14.2956 227.85 14.7744C227.371 15.2533 227.175 15.9309 227.175 16.712H228.175ZM229.787 15.1H240.827V14.1H229.787V15.1ZM240.827 15.1C241.465 15.1 241.851 15.246 242.075 15.45C242.29 15.6457 242.439 15.97 242.439 16.52H243.439C243.439 15.79 243.236 15.1543 242.748 14.71C242.268 14.274 241.597 14.1 240.827 14.1V15.1ZM242.439 16.52C242.439 17.07 242.29 17.3943 242.075 17.59C241.851 17.794 241.465 17.94 240.827 17.94V18.94C241.597 18.94 242.268 18.766 242.748 18.33C243.236 17.8857 243.439 17.25 243.439 16.52H242.439ZM240.827 17.94H231.835V18.94H240.827V17.94ZM231.335 18.44V23.656H232.335V18.44H231.335ZM231.835 24.156H239.867V23.156H231.835V24.156ZM239.867 24.156C240.505 24.156 240.891 24.302 241.115 24.506C241.33 24.7017 241.479 25.026 241.479 25.576H242.479C242.479 24.846 242.276 24.2103 241.788 23.766C241.308 23.33 240.637 23.156 239.867 23.156V24.156ZM241.479 25.576C241.479 26.126 241.33 26.4503 241.115 26.646C240.891 26.85 240.505 26.996 239.867 26.996V27.996C240.637 27.996 241.308 27.822 241.788 27.386C242.276 26.9417 242.479 26.306 242.479 25.576H241.479ZM239.867 26.996H231.835V27.996H239.867V26.996ZM231.335 27.496V33.16H232.335V27.496H231.335ZM231.835 33.66H241.179V32.66H231.835V33.66ZM241.179 33.66C241.817 33.66 242.203 33.806 242.427 34.01C242.642 34.2057 242.791 34.53 242.791 35.08H243.791C243.791 34.35 243.588 33.7143 243.1 33.27C242.62 32.834 241.949 32.66 241.179 32.66V33.66ZM242.791 35.08C242.791 35.63 242.642 35.9543 242.427 36.15C242.203 36.354 241.817 36.5 241.179 36.5V37.5C241.949 37.5 242.62 37.326 243.1 36.89C243.588 36.4457 243.791 35.81 243.791 35.08H242.791ZM241.179 36.5H229.787V37.5H241.179V36.5ZM250.648 18.44V17.94H250.148V18.44H250.648ZM250.648 23.656H250.148V24.156H250.648V23.656ZM250.648 27.496V26.996H250.148V27.496H250.648ZM250.648 33.16H250.148V33.66H250.648V33.16ZM248.6 36.5C247.973 36.5 247.594 36.3436 247.369 36.1184C247.144 35.8933 246.988 35.5149 246.988 34.888H245.988C245.988 35.6691 246.183 36.3467 246.662 36.8256C247.141 37.3044 247.819 37.5 248.6 37.5V36.5ZM246.988 34.888V16.712H245.988V34.888H246.988ZM246.988 16.712C246.988 16.0851 247.144 15.7067 247.369 15.4816C247.594 15.2564 247.973 15.1 248.6 15.1V14.1C247.819 14.1 247.141 14.2956 246.662 14.7744C246.183 15.2533 245.988 15.9309 245.988 16.712H246.988ZM248.6 15.1H259.64V14.1H248.6V15.1ZM259.64 15.1C260.278 15.1 260.663 15.246 260.887 15.45C261.103 15.6457 261.252 15.97 261.252 16.52H262.252C262.252 15.79 262.049 15.1543 261.56 14.71C261.08 14.274 260.41 14.1 259.64 14.1V15.1ZM261.252 16.52C261.252 17.07 261.103 17.3943 260.887 17.59C260.663 17.794 260.278 17.94 259.64 17.94V18.94C260.41 18.94 261.08 18.766 261.56 18.33C262.049 17.8857 262.252 17.25 262.252 16.52H261.252ZM259.64 17.94H250.648V18.94H259.64V17.94ZM250.148 18.44V23.656H251.148V18.44H250.148ZM250.648 24.156H258.68V23.156H250.648V24.156ZM258.68 24.156C259.318 24.156 259.703 24.302 259.927 24.506C260.143 24.7017 260.292 25.026 260.292 25.576H261.292C261.292 24.846 261.089 24.2103 260.6 23.766C260.12 23.33 259.45 23.156 258.68 23.156V24.156ZM260.292 25.576C260.292 26.126 260.143 26.4503 259.927 26.646C259.703 26.85 259.318 26.996 258.68 26.996V27.996C259.45 27.996 260.12 27.822 260.6 27.386C261.089 26.9417 261.292 26.306 261.292 25.576H260.292ZM258.68 26.996H250.648V27.996H258.68V26.996ZM250.148 27.496V33.16H251.148V27.496H250.148ZM250.648 33.66H259.992V32.66H250.648V33.66ZM259.992 33.66C260.63 33.66 261.015 33.806 261.239 34.01C261.455 34.2057 261.604 34.53 261.604 35.08H262.604C262.604 34.35 262.401 33.7143 261.912 33.27C261.432 32.834 260.762 32.66 259.992 32.66V33.66ZM261.604 35.08C261.604 35.63 261.455 35.9543 261.239 36.15C261.015 36.354 260.63 36.5 259.992 36.5V37.5C260.762 37.5 261.432 37.326 261.912 36.89C262.401 36.4457 262.604 35.81 262.604 35.08H261.604ZM259.992 36.5H248.6V37.5H259.992V36.5ZM279.316 15.24L279.124 15.7016L279.127 15.7029L279.316 15.24ZM281.716 17.32L281.283 17.5702L281.288 17.5772L281.716 17.32ZM281.268 25.736L280.888 25.4113L280.887 25.4119L281.268 25.736ZM277.716 27.656L277.626 27.1642L276.979 27.2827L277.267 27.8745L277.716 27.656ZM281.044 34.504L280.595 34.7226L280.597 34.7276L281.044 34.504ZM281.236 36.296L280.789 36.0724L280.785 36.0807L280.781 36.0891L281.236 36.296ZM276.724 35.4L276.265 35.5984L276.267 35.6014L276.724 35.4ZM273.46 27.848L273.919 27.6496L273.789 27.348H273.46V27.848ZM269.46 27.848V27.348H268.96V27.848H269.46ZM269.46 23.976H268.96V24.476H269.46V23.976ZM277.364 23.336L277.669 23.7323L277.364 23.336ZM277.364 19.08L277.059 19.4763L277.364 19.08ZM269.46 18.44V17.94H268.96V18.44H269.46ZM267.38 36.5C266.766 36.5 266.397 36.3447 266.176 36.1212C265.955 35.8962 265.8 35.5168 265.8 34.888H264.8C264.8 35.6672 264.992 36.3438 265.464 36.8228C265.937 37.3033 266.608 37.5 267.38 37.5V36.5ZM265.8 34.888V16.712H264.8V34.888H265.8ZM265.8 16.712C265.8 16.0851 265.957 15.7067 266.182 15.4816C266.407 15.2564 266.785 15.1 267.412 15.1V14.1C266.631 14.1 265.954 14.2956 265.475 14.7744C264.996 15.2533 264.8 15.9309 264.8 16.712H265.8ZM267.412 15.1H275.668V14.1H267.412V15.1ZM275.668 15.1C277.027 15.1 278.175 15.3061 279.124 15.7015L279.509 14.7785C278.41 14.3206 277.125 14.1 275.668 14.1V15.1ZM279.127 15.7029C280.072 16.0885 280.785 16.708 281.283 17.5701L282.149 17.0699C281.538 16.0119 280.651 15.2448 279.505 14.7771L279.127 15.7029ZM281.288 17.5772C281.801 18.4322 282.08 19.623 282.08 21.192H283.08C283.08 19.5183 282.784 18.1278 282.145 17.0628L281.288 17.5772ZM282.08 21.192C282.08 23.1347 281.655 24.513 280.888 25.4113L281.648 26.0607C282.631 24.911 283.08 23.26 283.08 21.192H282.08ZM280.887 25.4119C280.121 26.3124 279.048 26.9039 277.626 27.1642L277.806 28.1478C279.414 27.8534 280.709 27.1649 281.649 26.0601L280.887 25.4119ZM277.267 27.8745L280.595 34.7225L281.494 34.2854L278.166 27.4375L277.267 27.8745ZM280.597 34.7276C280.929 35.3908 280.922 35.8073 280.789 36.0724L281.683 36.5196C282.02 35.8461 281.885 35.0679 281.491 34.2804L280.597 34.7276ZM280.781 36.0891C280.679 36.314 280.453 36.5 279.86 36.5V37.5C280.676 37.5 281.367 37.2167 281.691 36.5029L280.781 36.0891ZM279.86 36.5H279.188V37.5H279.86V36.5ZM279.188 36.5C278.679 36.5 278.279 36.385 277.965 36.1807C277.65 35.9764 277.385 35.66 277.182 35.1986L276.267 35.6014C276.533 36.2067 276.913 36.6902 277.42 37.0193C277.927 37.3483 278.524 37.5 279.188 37.5V36.5ZM277.183 35.2016L273.919 27.6496L273.001 28.0464L276.265 35.5984L277.183 35.2016ZM273.46 27.348H269.46V28.348H273.46V27.348ZM268.96 27.848V34.888H269.96V27.848H268.96ZM268.96 34.888C268.96 35.5168 268.806 35.8962 268.584 36.1212C268.364 36.3447 267.995 36.5 267.38 36.5V37.5C268.153 37.5 268.823 37.3033 269.296 36.8228C269.768 36.3438 269.96 35.6672 269.96 34.888H268.96ZM269.46 24.476H275.092V23.476H269.46V24.476ZM275.092 24.476C276.122 24.476 277 24.2473 277.669 23.7323L277.059 22.9397C276.62 23.278 275.982 23.476 275.092 23.476V24.476ZM277.669 23.7323C278.394 23.175 278.696 22.2793 278.696 21.192H277.696C277.696 22.11 277.444 22.6437 277.059 22.9397L277.669 23.7323ZM278.696 21.192C278.696 20.1216 278.391 19.2391 277.669 18.6837L277.059 19.4763C277.447 19.7742 277.696 20.2997 277.696 21.192H278.696ZM277.669 18.6837C277 18.1687 276.122 17.94 275.092 17.94V18.94C275.982 18.94 276.62 19.1379 277.059 19.4763L277.669 18.6837ZM275.092 17.94H269.46V18.94H275.092V17.94ZM268.96 18.44V23.976H269.96V18.44H268.96Z" fill="#3B3B3B" mask="url(#path-1-outside-1_699_438)"/>
<path d="M57.032 71.528C56.4133 71.528 55.88 71.3253 55.432 70.92C54.984 70.4933 54.76 69.9387 54.76 69.256V68.296C54.76 66.7173 55.1013 65.544 55.784 64.776C56.4667 64.008 57.6933 63.5493 59.464 63.4C59.4 63.272 59.2933 63.0907 59.144 62.856C58.9947 62.6213 58.8453 62.3973 58.696 62.184C58.568 61.9493 58.4827 61.8 58.44 61.736C58.2267 61.3733 58.1307 60.9893 58.152 60.584C58.1947 60.1573 58.3547 59.7947 58.632 59.496C58.0347 59.4533 57.544 59.2507 57.16 58.888C56.7973 58.504 56.616 58.0133 56.616 57.416C56.616 56.7973 56.84 56.3173 57.288 55.976C57.736 55.6133 58.3013 55.4427 58.984 55.464C60.4773 55.4853 62.0347 55.4747 63.656 55.432C65.2987 55.368 66.92 55.272 68.52 55.144C70.1413 54.9947 71.6667 54.824 73.096 54.632C74.5253 54.4187 75.7947 54.1947 76.904 53.96C77.672 53.7893 78.2907 53.8427 78.76 54.12C79.2507 54.376 79.56 54.7493 79.688 55.24C79.88 55.944 79.7947 56.5307 79.432 57C79.0907 57.448 78.664 57.7253 78.152 57.832L77.704 57.928C78.0667 58.2053 78.3013 58.5787 78.408 59.048C78.5147 59.5173 78.4507 60.008 78.216 60.52C78.1307 60.7333 77.9387 61.1173 77.64 61.672C77.3413 62.2267 77.0427 62.7813 76.744 63.336H77.16C78.7387 63.336 79.976 63.4853 80.872 63.784C81.768 64.0613 82.3973 64.5413 82.76 65.224C83.144 65.9067 83.336 66.8453 83.336 68.04V69.224C83.336 69.928 83.112 70.4933 82.664 70.92C82.216 71.3253 81.6827 71.528 81.064 71.528C80.424 71.528 79.88 71.3253 79.432 70.92C79.0053 70.4933 78.792 69.928 78.792 69.224V68.168C78.792 67.6773 78.6747 67.3573 78.44 67.208C78.2053 67.0587 77.7467 66.984 77.064 66.984H61.032C60.3493 66.984 59.8907 67.0587 59.656 67.208C59.4213 67.3573 59.304 67.6773 59.304 68.168V69.256C59.304 69.9387 59.08 70.4933 58.632 70.92C58.184 71.3253 57.6507 71.528 57.032 71.528ZM57.736 83.72C56.8827 83.8053 56.2 83.6773 55.688 83.336C55.1973 83.016 54.9093 82.504 54.824 81.8C54.7387 81.096 54.9093 80.52 55.336 80.072C55.784 79.6027 56.4133 79.336 57.224 79.272C58.76 79.1653 60.2107 78.952 61.576 78.632C62.9413 78.2907 64.2107 77.8853 65.384 77.416C64.0827 76.008 63.016 74.28 62.184 72.232H61.48C60.9467 72.232 60.4987 72.0507 60.136 71.688C59.7733 71.304 59.592 70.8453 59.592 70.312C59.592 69.7787 59.7733 69.32 60.136 68.936C60.4987 68.552 60.9467 68.36 61.48 68.36H72.008C73.3733 68.36 74.472 68.5733 75.304 69C76.1573 69.4267 76.744 69.992 77.064 70.696C77.384 71.4 77.4373 72.168 77.224 73C77.0107 73.832 76.5307 74.6533 75.784 75.464C75.4427 75.848 75.0907 76.2213 74.728 76.584C74.3653 76.9253 73.992 77.256 73.608 77.576C74.6107 77.96 75.72 78.2693 76.936 78.504C78.1733 78.7387 79.5387 78.8987 81.032 78.984C81.8427 79.0053 82.472 79.2613 82.92 79.752C83.368 80.2427 83.56 80.8293 83.496 81.512C83.368 82.9627 82.408 83.656 80.616 83.592C76.0933 83.4213 72.2747 82.408 69.16 80.552C67.6027 81.3627 65.8747 82.0347 63.976 82.568C62.0987 83.1013 60.0187 83.4853 57.736 83.72ZM70.408 63.336H72.2C72.392 62.9093 72.6267 62.3867 72.904 61.768C73.1813 61.128 73.448 60.52 73.704 59.944C73.9813 59.368 74.1627 58.9627 74.248 58.728C74.2693 58.6853 74.28 58.6427 74.28 58.6C74.3013 58.5573 74.3227 58.5253 74.344 58.504C73.5333 58.6107 72.68 58.7173 71.784 58.824C70.888 58.9093 69.9707 58.9947 69.032 59.08C69.16 59.208 69.288 59.368 69.416 59.56C69.4373 59.6027 69.5227 59.7733 69.672 60.072C69.8213 60.3493 69.9707 60.6373 70.12 60.936C70.2693 61.2133 70.3547 61.384 70.376 61.448C70.7387 62.1093 70.7493 62.7387 70.408 63.336ZM63.208 63.336H66.536L66.472 63.272C66.4293 63.1653 66.3333 62.984 66.184 62.728C66.056 62.4507 65.928 62.184 65.8 61.928C65.672 61.672 65.5867 61.512 65.544 61.448C65.3733 61.0853 65.3093 60.712 65.352 60.328C65.3947 59.944 65.5333 59.6133 65.768 59.336C65.1067 59.3573 64.456 59.3893 63.816 59.432C63.176 59.4533 62.5467 59.464 61.928 59.464C61.9493 59.5067 61.9813 59.5493 62.024 59.592C62.0667 59.6347 62.1627 59.7947 62.312 60.072C62.4827 60.328 62.6533 60.5947 62.824 60.872C62.9947 61.128 63.0907 61.288 63.112 61.352C63.56 62.0347 63.592 62.696 63.208 63.336ZM69.544 75.176C69.928 74.8987 70.2907 74.6213 70.632 74.344C70.9947 74.0453 71.3253 73.736 71.624 73.416C71.9653 73.096 72.0827 72.8187 71.976 72.584C71.8907 72.3493 71.6027 72.232 71.112 72.232H67.112C67.4747 72.7867 67.848 73.3093 68.232 73.8C68.6373 74.2907 69.0747 74.7493 69.544 75.176ZM100.744 83.912C100.189 83.912 99.7093 83.7307 99.304 83.368C98.92 83.0053 98.728 82.504 98.728 81.864V78.792H97.96C97.576 78.792 97.2453 78.6533 96.968 78.376C96.968 79.528 96.8187 80.456 96.52 81.16C96.2427 81.864 95.7413 82.376 95.016 82.696C94.312 83.016 93.288 83.176 91.944 83.176C90.6 83.176 89.5653 83.0053 88.84 82.664C88.1147 82.344 87.6133 81.8213 87.336 81.096C87.0587 80.392 86.92 79.4533 86.92 78.28C86.92 77.064 87.0587 76.104 87.336 75.4C87.6133 74.6747 88.1147 74.1627 88.84 73.864C89.5653 73.5653 90.6 73.416 91.944 73.416C93.5227 73.416 94.664 73.6293 95.368 74.056C96.0933 74.4613 96.5627 75.1867 96.776 76.232C97.096 75.8693 97.4907 75.688 97.96 75.688H98.728V72.296C98.728 71.208 98.888 70.3547 99.208 69.736C99.528 69.096 100.093 68.648 100.904 68.392C101.715 68.1147 102.856 67.976 104.328 67.976H104.52V67.048H98.376C97.928 67.048 97.544 66.8987 97.224 66.6C96.9253 66.28 96.776 65.9067 96.776 65.48C96.776 65.0533 96.9253 64.68 97.224 64.36C97.544 64.04 97.928 63.88 98.376 63.88H101.416V62.856H99.656C99.2507 62.856 98.9093 62.7173 98.632 62.44C98.3547 62.1627 98.216 61.832 98.216 61.448C98.216 61.0427 98.3547 60.7013 98.632 60.424C98.9093 60.1467 99.2507 60.008 99.656 60.008H101.416V59.08H98.376C97.9707 59.08 97.6293 58.9413 97.352 58.664C97.0747 58.3867 96.936 58.0453 96.936 57.64C96.936 57.2347 97.0747 56.8933 97.352 56.616C97.6293 56.3173 97.9707 56.168 98.376 56.168H101.416V55.656C101.416 55.0373 101.608 54.5573 101.992 54.216C102.376 53.8747 102.835 53.704 103.368 53.704C103.923 53.704 104.392 53.8747 104.776 54.216C105.16 54.5573 105.352 55.0373 105.352 55.656V56.168H107.528V55.656C107.528 55.0373 107.72 54.5573 108.104 54.216C108.509 53.8747 108.979 53.704 109.512 53.704C110.067 53.704 110.525 53.8747 110.888 54.216C111.272 54.5573 111.464 55.0373 111.464 55.656V56.168H114.664C115.069 56.168 115.411 56.3173 115.688 56.616C115.965 56.8933 116.104 57.2347 116.104 57.64C116.104 58.0453 115.965 58.3867 115.688 58.664C115.411 58.9413 115.069 59.08 114.664 59.08H111.464V60.008H113.576C113.981 60.008 114.323 60.1467 114.6 60.424C114.877 60.7013 115.016 61.0427 115.016 61.448C115.016 61.832 114.877 62.1627 114.6 62.44C114.323 62.7173 113.981 62.856 113.576 62.856H111.464V63.88H114.76C115.187 63.88 115.549 64.04 115.848 64.36C116.168 64.68 116.328 65.0533 116.328 65.48C116.328 65.9067 116.168 66.28 115.848 66.6C115.549 66.8987 115.187 67.048 114.76 67.048H108.392V67.976H108.584C110.077 67.976 111.229 68.1147 112.04 68.392C112.851 68.648 113.405 69.096 113.704 69.736C114.024 70.3547 114.184 71.208 114.184 72.296V75.688H115.048C115.475 75.688 115.837 75.8373 116.136 76.136C116.435 76.4347 116.584 76.7973 116.584 77.224C116.584 77.6507 116.435 78.024 116.136 78.344C115.837 78.6427 115.475 78.792 115.048 78.792H114.184V79.688C114.184 81.16 113.811 82.216 113.064 82.856C112.339 83.5173 111.155 83.848 109.512 83.848C108.915 83.848 108.456 83.6773 108.136 83.336C107.837 82.9947 107.667 82.5573 107.624 82.024C107.581 81.4907 107.72 81.0427 108.04 80.68C108.381 80.3173 108.819 80.1253 109.352 80.104C109.693 80.0613 109.907 79.9867 109.992 79.88C110.077 79.7733 110.12 79.5493 110.12 79.208V78.792H102.792V81.864C102.792 82.504 102.589 83.0053 102.184 83.368C101.779 83.7307 101.299 83.912 100.744 83.912ZM87.176 63.176C86.7067 63.176 86.2907 63.0053 85.928 62.664C85.5867 62.3013 85.416 61.8853 85.416 61.416C85.416 60.9253 85.5867 60.5093 85.928 60.168C86.2907 59.8053 86.7067 59.624 87.176 59.624H96.296C96.7867 59.624 97.2027 59.8053 97.544 60.168C97.8853 60.5093 98.056 60.9253 98.056 61.416C98.056 61.8853 97.8853 62.3013 97.544 62.664C97.2027 63.0053 96.7867 63.176 96.296 63.176H87.176ZM88.808 58.6C88.3173 58.6 87.8907 58.4293 87.528 58.088C87.1653 57.7253 86.984 57.288 86.984 56.776C86.984 56.2853 87.1653 55.8587 87.528 55.496C87.8907 55.1333 88.3173 54.952 88.808 54.952H94.856C95.368 54.952 95.7947 55.1333 96.136 55.496C96.4987 55.8587 96.68 56.2853 96.68 56.776C96.68 57.288 96.4987 57.7253 96.136 58.088C95.7947 58.4293 95.368 58.6 94.856 58.6H88.808ZM88.744 72.328C88.2533 72.328 87.8267 72.1573 87.464 71.816C87.1227 71.4533 86.952 71.0267 86.952 70.536C86.952 70.0453 87.1227 69.6293 87.464 69.288C87.8267 68.9467 88.2533 68.776 88.744 68.776H94.92C95.4107 68.776 95.8267 68.9467 96.168 69.288C96.5093 69.6293 96.68 70.0453 96.68 70.536C96.68 71.0267 96.5093 71.4533 96.168 71.816C95.8267 72.1573 95.4107 72.328 94.92 72.328H88.744ZM88.744 67.752C88.2533 67.752 87.8267 67.5813 87.464 67.24C87.1227 66.8773 86.952 66.4507 86.952 65.96C86.952 65.4693 87.1227 65.0533 87.464 64.712C87.8267 64.3707 88.2533 64.2 88.744 64.2H94.92C95.4107 64.2 95.8267 64.3707 96.168 64.712C96.5093 65.0533 96.68 65.4693 96.68 65.96C96.68 66.4507 96.5093 66.8773 96.168 67.24C95.8267 67.5813 95.4107 67.752 94.92 67.752H88.744ZM91.944 79.56C92.328 79.56 92.584 79.4853 92.712 79.336C92.84 79.1867 92.904 78.8347 92.904 78.28C92.904 77.7253 92.84 77.3733 92.712 77.224C92.584 77.0747 92.328 77 91.944 77C91.5387 77 91.272 77.0747 91.144 77.224C91.016 77.3733 90.952 77.7253 90.952 78.28C90.952 78.8347 91.016 79.1867 91.144 79.336C91.272 79.4853 91.5387 79.56 91.944 79.56ZM105.352 63.88H107.528V62.856H105.352V63.88ZM105.352 60.008H107.528V59.08H105.352V60.008ZM102.792 75.688H104.52V74.632H102.792V75.688ZM108.392 75.688H110.12V74.632H108.392V75.688ZM102.792 71.848H104.52V70.824H104.328C103.773 70.824 103.389 70.888 103.176 71.016C102.963 71.144 102.835 71.4213 102.792 71.848ZM108.392 71.848H110.12C110.099 71.4213 109.971 71.144 109.736 71.016C109.523 70.888 109.139 70.824 108.584 70.824H108.392V71.848ZM120.52 82.344C119.944 82.344 119.453 82.1413 119.048 81.736C118.643 81.3307 118.44 80.8293 118.44 80.232C118.44 79.656 118.643 79.1653 119.048 78.76C119.453 78.3547 119.944 78.152 120.52 78.152H130.984V73H124.968C124.371 73 123.859 72.7973 123.432 72.392C123.027 71.9653 122.824 71.4533 122.824 70.856C122.824 70.2587 123.027 69.7573 123.432 69.352C123.859 68.9467 124.371 68.744 124.968 68.744H130.984V64.648H124.872C124.488 65.3093 124.104 65.9387 123.72 66.536C123.336 67.112 122.963 67.6453 122.6 68.136C122.195 68.6907 121.661 69.0533 121 69.224C120.339 69.3947 119.699 69.2773 119.08 68.872C118.547 68.552 118.227 68.0827 118.12 67.464C118.013 66.824 118.141 66.2587 118.504 65.768C118.909 65.192 119.347 64.52 119.816 63.752C120.307 62.984 120.787 62.1733 121.256 61.32C121.725 60.4667 122.152 59.6347 122.536 58.824C122.941 57.992 123.272 57.2453 123.528 56.584C123.805 55.8587 124.232 55.3787 124.808 55.144C125.384 54.9093 126.003 54.9093 126.664 55.144C127.283 55.3573 127.72 55.752 127.976 56.328C128.232 56.8827 128.232 57.5013 127.976 58.184C127.848 58.5253 127.699 58.8987 127.528 59.304C127.357 59.688 127.187 60.0827 127.016 60.488H130.984V56.616C130.984 55.848 131.219 55.24 131.688 54.792C132.179 54.344 132.765 54.12 133.448 54.12C134.152 54.12 134.739 54.344 135.208 54.792C135.699 55.24 135.944 55.848 135.944 56.616V60.488H144.392C144.968 60.488 145.459 60.6907 145.864 61.096C146.269 61.5013 146.472 61.992 146.472 62.568C146.472 63.144 146.269 63.6347 145.864 64.04C145.459 64.4453 144.968 64.648 144.392 64.648H135.944V68.744H141.768C142.365 68.744 142.867 68.9467 143.272 69.352C143.699 69.7573 143.912 70.2587 143.912 70.856C143.912 71.4533 143.699 71.9653 143.272 72.392C142.867 72.7973 142.365 73 141.768 73H135.944V78.152H145.384C145.96 78.152 146.451 78.3547 146.856 78.76C147.283 79.1653 147.496 79.656 147.496 80.232C147.496 80.8293 147.283 81.3307 146.856 81.736C146.451 82.1413 145.96 82.344 145.384 82.344H120.52ZM168.744 81.256C168.104 81.4053 167.496 81.32 166.92 81C166.344 80.6587 165.971 80.168 165.8 79.528C165.651 78.888 165.747 78.2907 166.088 77.736C166.429 77.16 166.909 76.7973 167.528 76.648C169.853 76.072 171.496 75.1227 172.456 73.8C173.437 72.4773 173.928 70.8027 173.928 68.776C173.928 66.9627 173.352 65.4373 172.2 64.2C171.069 62.9627 169.459 62.2053 167.368 61.928C166.941 65.576 166.248 68.7013 165.288 71.304C164.349 73.9067 163.24 75.9013 161.96 77.288C160.701 78.6747 159.379 79.368 157.992 79.368C156.776 79.368 155.667 79.0267 154.664 78.344C153.661 77.6613 152.861 76.68 152.264 75.4C151.667 74.0987 151.368 72.52 151.368 70.664C151.368 68.872 151.709 67.1867 152.392 65.608C153.075 64.008 154.045 62.6 155.304 61.384C156.563 60.1467 158.056 59.1867 159.784 58.504C161.533 57.8 163.464 57.448 165.576 57.448C167.475 57.448 169.213 57.7253 170.792 58.28C172.392 58.8133 173.768 59.5813 174.92 60.584C176.093 61.5867 177 62.7813 177.64 64.168C178.28 65.5547 178.6 67.0907 178.6 68.776C178.6 71.9973 177.789 74.6853 176.168 76.84C174.547 78.9733 172.072 80.4453 168.744 81.256ZM158.024 74.504C158.387 74.504 158.877 74.0027 159.496 73C160.115 71.976 160.733 70.536 161.352 68.68C161.971 66.824 162.44 64.6373 162.76 62.12C161.288 62.4827 160.051 63.1013 159.048 63.976C158.045 64.8293 157.288 65.8427 156.776 67.016C156.285 68.168 156.029 69.3627 156.008 70.6C155.987 71.9653 156.157 72.9573 156.52 73.576C156.904 74.1947 157.405 74.504 158.024 74.504ZM182.568 83.72C182.099 83.2933 181.853 82.7387 181.832 82.056C181.811 81.3733 182.035 80.776 182.504 80.264C183.251 79.4747 183.848 78.6853 184.296 77.896C184.765 77.1067 185.096 76.2213 185.288 75.24C185.501 74.2373 185.608 73.0533 185.608 71.688V71.144C185.608 70.0133 185.779 69.096 186.12 68.392C186.483 67.6667 187.123 67.1333 188.04 66.792C188.957 66.4507 190.269 66.28 191.976 66.28H202.632C204.168 66.28 205.363 66.4293 206.216 66.728C207.091 67.0267 207.699 67.5173 208.04 68.2C208.381 68.8613 208.552 69.7573 208.552 70.888C208.552 72.0187 208.381 72.9253 208.04 73.608C207.699 74.2693 207.091 74.7493 206.216 75.048C205.363 75.3467 204.168 75.496 202.632 75.496H190.408C190.152 77.1173 189.693 78.5893 189.032 79.912C188.392 81.2133 187.539 82.408 186.472 83.496C185.939 84.0293 185.288 84.328 184.52 84.392C183.773 84.456 183.123 84.232 182.568 83.72ZM186.408 65.064C185.896 65.064 185.459 64.8827 185.096 64.52C184.733 64.1573 184.552 63.7093 184.552 63.176C184.552 62.664 184.733 62.2267 185.096 61.864C185.459 61.48 185.896 61.288 186.408 61.288H194.504V60.104H183.816C183.283 60.104 182.824 59.9227 182.44 59.56C182.077 59.1973 181.896 58.7493 181.896 58.216C181.896 57.6827 182.077 57.2347 182.44 56.872C182.824 56.488 183.283 56.296 183.816 56.296H194.504V55.88C194.504 55.112 194.749 54.4933 195.24 54.024C195.752 53.5547 196.36 53.32 197.064 53.32C197.768 53.32 198.365 53.5547 198.856 54.024C199.368 54.4933 199.624 55.112 199.624 55.88V56.296H210.024C210.557 56.296 211.005 56.488 211.368 56.872C211.731 57.2347 211.912 57.6827 211.912 58.216C211.912 58.7493 211.731 59.1973 211.368 59.56C211.005 59.9227 210.557 60.104 210.024 60.104H199.624V61.288H207.624C208.157 61.288 208.605 61.48 208.968 61.864C209.331 62.2267 209.512 62.664 209.512 63.176C209.512 63.7093 209.331 64.1573 208.968 64.52C208.605 64.8827 208.157 65.064 207.624 65.064H186.408ZM199.528 71.656H202.664C203.411 71.656 203.784 71.336 203.784 70.696C203.784 70.0773 203.411 69.768 202.664 69.768H199.528V71.656ZM190.696 71.656H194.664V69.768H192.2C191.624 69.768 191.229 69.8747 191.016 70.088C190.803 70.28 190.696 70.632 190.696 71.144V71.656Z" fill="#89C3EB"/>
<g clip-path="url(#clip0_699_438)">
<path d="M216.108 83.1181L225.212 59.9889" stroke="#89C3EB" stroke-width="2" stroke-linecap="round" stroke-linejoin="round"/>
<path d="M245.333 73.6958C246.904 71.4183 243.693 66.4767 238.16 62.6583C232.627 58.84 226.867 57.5909 225.295 59.8684C223.724 62.1459 226.935 67.0875 232.468 70.9059C238.002 74.7242 243.761 75.9733 245.333 73.6958Z" stroke="#89C3EB" stroke-width="2" stroke-linecap="round" stroke-linejoin="round"/>
<path d="M245.123 73.9854L225.826 89.8242" stroke="#89C3EB" stroke-width="2" stroke-linecap="round" stroke-linejoin="round"/>
<path d="M244.567 60.6372L248.887 57.8368" stroke="#89C3EB" stroke-width="3" stroke-linecap="round" stroke-linejoin="round"/>
<path d="M238.739 56.7144L239.371 51.5956" stroke="#89C3EB" stroke-width="3" stroke-linecap="round" stroke-linejoin="round"/>
<path d="M216.108 83.1182L225.826 89.8243" stroke="#89C3EB" stroke-width="2" stroke-linecap="round" stroke-linejoin="round"/>
<path d="M216.109 83.1177L212.933 85.9185" stroke="#89C3EB" stroke-width="2" stroke-linecap="round" stroke-linejoin="round"/>
<path d="M225.826 89.8239L225.474 93.9516" stroke="#89C3EB" stroke-width="2" stroke-linecap="round" stroke-linejoin="round"/>
<path d="M212.933 85.9185L225.184 94.3726" stroke="#89C3EB" stroke-width="2" stroke-linecap="round" stroke-linejoin="round"/>
</g>
<defs>
<clipPath id="clip0_699_438">
<rect width="45.564" height="25.9612" fill="white" transform="translate(208 83.5015) rotate(-55.3912)"/>
</clipPath>
</defs>
</svg>
