<svg width="124" height="124" viewBox="0 0 124 124" fill="none" xmlns="http://www.w3.org/2000/svg">
<path d="M104.818 48.1156C104.237 48.0109 103.658 47.9077 102.977 47.7845C103.588 49.4199 104.564 50.6483 105.867 51.6544C106.112 51.8437 106.353 52.2249 106.348 52.513C106.338 53.1179 105.752 53.3042 105.174 52.9158C103.735 51.9497 102.637 50.6755 101.975 49.0773C101.535 48.0166 101.224 46.903 100.857 45.8179H89.5669C88.952 48.6975 87.2793 50.4892 84.3166 51.0137V80.2623C84.5631 80.2623 84.8125 80.2623 85.0619 80.2623C86.7332 80.2623 88.4059 80.2681 90.0771 80.2595C90.5688 80.2566 90.9844 80.3369 91.0991 80.9102C91.0289 81.6613 90.5086 81.7172 89.9109 81.7157C85.6367 81.7086 81.361 81.7114 77.0868 81.7129C76.8102 81.7129 76.535 81.7358 76.2584 81.7487V121.709H106.361C105.867 121.461 105.567 121.284 105.249 121.154C104.808 120.975 104.614 120.677 104.694 120.205C105.031 119.633 105.463 119.636 106.02 119.908C108.348 121.045 110.782 121.835 113.393 121.918C115.547 121.987 117.567 121.55 119.195 120.014C121.443 117.896 122.039 115.272 121.403 112.33C120.768 109.398 119.227 106.885 117.614 104.411C117.358 104.017 117.034 103.636 117.335 103.12C117.976 102.695 118.272 102.74 118.688 103.365C119.062 103.928 119.413 104.509 119.852 105.207V81.7716H110.185C110.296 81.9737 110.354 82.0956 110.426 82.2103C112.003 84.7645 112.805 87.5508 112.851 90.5422C112.871 91.8752 112.745 93.2082 112.712 94.5426C112.692 95.331 112.92 96.0304 113.511 96.6081C114.061 97.1485 113.987 97.4308 113.27 97.8608C112.44 97.9339 112.037 97.3161 111.786 96.7371C111.494 96.0591 111.315 95.2851 111.295 94.5484C111.256 93.1208 111.461 91.686 111.394 90.2613C111.226 86.7281 110.171 83.4988 107.515 81.0306C104.673 78.389 101.366 77.4258 97.5864 78.7774C97.1019 78.9508 96.6647 79.2619 96.2132 79.5227C95.9667 79.6661 95.7417 79.9613 95.498 79.9714C95.1425 79.9871 94.6824 79.9112 94.4431 79.6861C94.132 79.3937 94.3671 79.0497 94.7011 78.8046C96.8654 77.2122 99.2834 76.5428 101.955 76.8166C104.529 77.0803 106.718 78.1697 108.609 79.9184C108.822 80.1161 109.185 80.2451 109.48 80.2466C113.015 80.2695 116.551 80.2609 120.085 80.2609C121.195 80.2609 121.33 80.3942 121.33 81.4721C121.33 89.546 121.358 97.62 121.305 105.694C121.295 107.232 121.608 108.621 122.174 110.03C123.05 112.206 123.411 114.482 122.787 116.804C121.762 120.622 118.341 123.284 114.391 123.327C113.061 123.341 111.728 123.179 110.396 123.178C98.9538 123.165 87.5115 123.171 76.0706 123.171C74.891 123.171 74.7448 123.029 74.7448 121.873C74.7448 116.14 74.7448 110.408 74.7448 104.675V103.821C69.2422 103.821 63.7841 103.821 58.3259 103.821C58.2758 103.828 58.2256 103.835 58.1769 103.842C58.1668 106.73 58.1568 109.618 58.1453 112.507C58.141 113.491 57.9203 113.708 56.917 113.709C50.8038 113.709 44.6906 113.716 38.5789 113.689C38.2679 113.689 37.8923 113.443 37.6759 113.197C37.5741 113.083 37.7031 112.624 37.8665 112.455C38.0371 112.279 38.3739 112.264 38.6377 112.178C38.7552 112.191 38.8727 112.217 38.9917 112.217C44.7236 112.219 50.4555 112.22 56.1874 112.217C56.3422 112.217 56.4984 112.186 56.6375 112.17V94.9741H39.1379C39.1379 95.2966 39.1379 95.5775 39.1379 95.8584C39.1379 100.085 39.1322 104.314 39.1451 108.541C39.1465 109.026 39.0677 109.431 38.6248 109.694C37.878 109.805 37.6859 109.385 37.6902 108.743C37.6988 107.126 37.6931 105.509 37.6931 103.854C37.4308 103.841 37.2215 103.821 37.0137 103.821C33.889 103.819 30.7629 103.828 27.6383 103.811C27.1552 103.808 26.9632 103.931 26.8542 104.444C26.6349 105.478 25.9082 106.143 24.9393 106.514C24.3187 106.752 24.0807 106.574 23.9446 105.863C24.1911 105.604 24.3946 105.275 24.6899 105.096C25.4137 104.655 25.7749 104.007 25.5642 103.264C25.3263 102.426 24.7945 101.847 23.9188 101.679C22.9527 101.494 21.8906 102.017 21.3445 102.958C20.9145 103.697 21.0077 104.404 21.6254 105.026C21.6871 105.088 21.7 105.195 21.7358 105.283C21.7716 105.34 21.8075 105.396 21.8447 105.453L21.8318 105.457C21.9264 105.619 22.1242 105.806 22.0941 105.939C22.0167 106.277 21.8949 106.644 21.6684 106.888C21.5839 106.978 21.0607 106.845 20.9145 106.667C19.8424 105.373 19.1386 103.773 19.9513 102.354C20.4759 101.438 21.194 100.769 22.1515 100.444C22.6861 100.262 22.7492 100.012 22.7492 99.5479C22.7391 92.5489 22.742 85.5499 22.742 78.5509V77.3512H21.9651C15.3245 77.3512 8.68386 77.3512 2.04323 77.3512C0.824896 77.3512 0.789062 77.3126 0.789062 76.1128C0.789062 61.7093 0.789062 47.3057 0.789062 32.9021C0.789062 31.8286 0.93383 31.6752 2.01456 31.6738C6.62416 31.6709 11.2352 31.6207 15.8448 31.711C16.9126 31.7325 17.2079 31.0703 17.7038 30.4683C19.7478 27.993 22.259 26.3833 25.5284 25.9892C27.8518 25.7082 29.999 26.1612 32.0415 27.176C33.3071 27.8052 34.3979 28.6953 35.2679 29.8506C35.5675 30.249 35.6778 30.5371 35.2894 30.8453C34.8895 31.1621 34.4695 31.1477 34.1026 30.7306C33.6984 30.272 33.3229 29.776 32.8599 29.3862C30.4705 27.3738 27.6913 26.9165 24.753 27.6733C20.3139 28.8171 17.6365 31.797 16.5371 36.1773C15.7889 39.1586 15.8864 42.1185 17.2824 44.9407C17.8543 46.0974 18.6599 47.0434 19.7764 47.7156C20.2079 47.9751 20.8256 48.203 20.41 48.8938C20.0359 49.5145 19.5242 49.2593 19.044 49.0013C18.9809 48.9669 18.9136 48.9411 18.8491 48.911C17.9934 48.0009 16.9413 47.2068 16.3192 46.1576C14.3928 42.9111 14.2925 39.3794 15.1511 35.786C15.3589 34.9174 15.6914 34.0775 15.9709 33.2103H2.27543V75.8434H63.1161V67.9256C61.8347 69.7087 60.6594 71.3399 59.4912 72.9739C59.4411 73.0441 59.4181 73.1544 59.4267 73.2419C59.4984 74.0101 59.0412 74.1735 58.4048 74.1735C46.4637 74.1707 34.5226 74.175 22.58 74.1535C22.2002 74.1535 21.8204 73.8768 21.4391 73.7292C21.5208 72.8119 21.6283 72.713 22.6087 72.713C27.5752 72.7101 32.5417 72.713 37.5082 72.713C44.0743 72.713 50.6404 72.7116 57.2065 72.7159C57.625 72.7159 57.9203 72.6614 58.217 72.2529C61.2628 68.0503 64.3502 63.8793 67.4176 59.6926C68.3378 58.437 69.2279 57.1585 70.1767 55.8283C69.9546 55.791 69.8227 55.7495 69.6908 55.7509C66.6651 55.7853 63.6293 55.685 60.6135 55.8928C54.3011 56.3257 47.9973 56.5177 41.6907 55.9C41.2076 55.8527 40.9568 55.9759 40.7146 56.4317C38.7781 60.0638 36.8016 63.6758 34.8365 67.2935C34.1814 68.499 33.5221 69.703 32.8671 70.9084C32.6277 71.3499 32.2536 71.4531 31.8465 71.218C31.4653 70.9987 31.385 70.6361 31.6072 70.2304C31.8007 69.8764 31.9798 69.5152 32.1719 69.1612C33.287 67.1029 34.4036 65.0446 35.5116 63.0021C35.3482 62.8058 35.1848 62.6596 35.0844 62.479C33.9148 60.3863 32.4471 58.523 30.8088 56.7815C30.234 56.1709 30.2684 55.9673 30.9149 55.3868C31.8365 55.3137 32.1834 56.1078 32.6205 56.6353C33.9191 58.2019 35.1217 59.8488 36.3458 61.4412C37.4595 59.4073 38.6463 57.2975 39.7686 55.1546C40.1011 54.5197 40.5039 54.3477 41.189 54.395C43.8278 54.5742 46.4737 54.8365 49.1125 54.8092C53.4024 54.7662 57.691 54.524 61.9795 54.3563C62.3722 54.3405 62.7607 54.2631 63.109 54.2187V33.1544C62.7693 33.1544 62.4855 33.1544 62.2002 33.1544C55.2514 33.1544 48.3026 33.1515 41.3538 33.1587C40.7447 33.1587 40.1828 33.1386 40.0997 32.3489C40.1584 31.6795 40.6601 31.6738 41.1431 31.6709C42.694 31.6637 44.2463 31.668 45.7972 31.668C46.0566 31.668 46.3175 31.668 46.6228 31.668C46.6357 31.4416 46.6557 31.2595 46.6557 31.0789C46.6572 26.8305 46.6514 22.5821 46.6658 18.3323C46.6672 17.865 46.5482 17.6257 46.0609 17.511C43.9639 17.0165 43.0781 14.4623 43.9553 12.9C44.3065 12.2736 44.94 11.7676 45.5377 11.3333C45.9104 11.061 46.4078 11.1828 46.6815 11.6673C46.746 12.1804 46.5468 12.4857 46.0537 12.7136C44.92 13.2354 44.7035 14.5039 45.5435 15.4355C46.4063 16.393 47.5186 16.4604 48.6538 15.6233C49.6557 14.8851 49.8177 13.8718 49.1225 12.7509C48.9003 12.3926 48.6925 12.0256 48.4775 11.663C48.6538 11.3878 48.7814 10.9664 49.0236 10.8861C49.2185 10.8216 49.6442 11.1054 49.8048 11.3434C50.2864 12.0557 50.6877 12.8226 51.198 13.7026C51.2266 13.7026 51.4617 13.7026 51.6968 13.7026C56.5687 13.7026 61.442 13.6998 66.3139 13.7069C66.7597 13.7069 67.0306 13.6783 67.2413 13.125C68.2589 10.4619 69.9417 8.33338 72.6163 7.16378C74.041 6.54028 75.536 6.33531 77.1255 6.46574C79.1781 6.63344 80.9511 7.39741 82.6209 8.51398C82.6539 8.53548 82.7141 8.51684 82.6381 8.51684C83.4809 7.13654 84.1689 5.71898 85.1207 4.50781C86.9367 2.19728 89.2601 0.590508 92.2673 0.210675C97.0675 -0.395625 100.691 1.64544 103.532 5.33341C105.42 7.78441 106.143 10.6281 105.829 13.6625C105.405 17.7833 103.043 20.6443 98.7402 21.4054C97.5391 21.6175 96.2992 21.682 95.0766 21.6978C91.7212 21.7436 88.3657 21.7264 85.0103 21.735C84.7996 21.735 84.5903 21.735 84.3323 21.735V39.2862C85.6094 39.5428 86.8134 39.9756 87.7895 40.9589C88.7398 41.9164 89.2816 43.0516 89.5439 44.3774C93.209 44.3774 96.8367 44.3846 100.465 44.3559C100.636 44.3559 100.945 44.0477 100.959 43.8657C101.26 39.9498 103.479 37.3455 106.753 35.5423C108.159 34.7683 109.77 34.377 111.372 34.3727C114.293 34.3656 116.949 35.2012 119.243 37.1419C121.149 38.7559 122.422 40.731 122.974 43.1275C123.452 45.2059 123.315 47.31 122.575 49.321C121.512 52.2149 119.582 54.3362 116.687 55.4929C114.179 56.4948 111.639 56.5249 109.095 55.6062C108.607 55.4299 108.318 55.1016 108.478 54.5698C108.667 53.9463 109.129 54.1083 109.591 54.2287C110.526 54.4709 111.471 54.6773 112.46 54.9095C112.565 54.4466 112.636 54.1298 112.708 53.813C113.343 52.0687 113.67 50.2698 113.773 48.4538H108.656C108.92 49.2966 109.155 50.0362 109.38 50.7787C109.51 51.2072 109.618 51.6559 109.024 51.8264C108.491 51.9812 108.151 51.7132 107.994 51.223C107.74 50.4304 107.539 49.6205 107.263 48.8365C107.188 48.6273 106.942 48.3764 106.737 48.3363C106.11 48.2116 105.464 48.18 104.826 48.1127L104.818 48.1156ZM107.276 39.3435C107.303 39.2862 107.332 39.2289 107.359 39.1715C107.627 38.3287 107.893 37.4874 108.179 36.5901C105.497 37.6149 103.285 39.9756 102.795 42.322C103.687 42.0468 104.551 41.7788 105.417 41.5122C106.401 41.3937 106.993 40.8543 107.193 39.8939C107.23 39.7105 107.25 39.5241 107.279 39.3392L107.276 39.345V39.3435ZM104.56 43.3225C103.846 43.5432 103.133 43.7639 102.369 44.0004C102.424 44.8017 102.474 45.5527 102.526 46.3038C103.191 46.3769 103.798 46.4443 104.406 46.5102C105.21 46.6363 106.016 46.7639 106.768 46.8829V42.7248C105.954 42.9455 105.258 43.1333 104.56 43.3225ZM109.331 37.7769C109.019 38.8404 108.706 39.9054 108.372 41.042H113.108C112.903 40.3684 112.718 39.7348 112.517 39.1085C112.378 38.6742 112.377 38.2757 112.877 38.1094C113.406 37.9331 113.762 38.2055 113.925 38.6971C114.157 39.3966 114.392 40.1003 114.546 40.8184C114.642 41.2642 114.838 41.4362 115.274 41.5408C116.268 41.7773 117.247 42.0783 118.225 42.3808C118.698 42.527 118.942 42.9011 118.803 43.3784C118.664 43.8557 118.265 43.9345 117.818 43.7869C117.547 43.698 117.276 43.6063 117.002 43.5246C116.376 43.3368 115.748 43.1533 115.064 42.9527C115.173 44.2986 115.271 45.5155 115.373 46.7711C116.2 46.6349 116.995 46.493 117.793 46.3783C118.292 46.3067 118.717 46.4371 118.81 47.0133C118.904 47.5967 118.497 47.74 118.039 47.8145C117.13 47.9607 116.221 48.1069 115.441 48.2316C115.06 50.0735 114.702 51.8135 114.342 53.5536C114.235 53.9105 114.126 54.2674 114.012 54.6458C114.12 54.6601 114.19 54.6888 114.253 54.6773C118.156 53.9879 120.861 51.2875 121.592 47.5479C122.321 43.8127 121.193 40.612 118.254 38.1582C115.97 36.2504 113.297 35.5309 110.34 35.9437C110.171 35.968 109.942 36.1071 109.877 36.2533C109.662 36.7478 109.51 37.2695 109.333 37.7798L109.331 37.7769ZM103.29 16.9248C103.568 16.3328 103.949 15.7652 104.107 15.1431C105.379 10.1394 102.852 4.83174 98.1726 2.56851C95.4134 1.23407 92.6414 1.07498 89.8707 2.48108C86.8808 3.99898 85.0404 6.47721 84.0485 9.63198C83.6673 10.846 83.2373 10.9449 82.2411 10.1709C81.5015 9.59614 80.716 9.03858 79.8704 8.64728C75.7008 6.71658 71.3406 8.45808 69.1849 12.4069C68.107 14.382 67.7501 16.5306 67.8977 18.7623C67.9278 19.2066 67.8447 19.5334 67.3731 19.6137C66.8944 19.6954 66.5977 19.4517 66.5017 18.9859C66.4544 18.7551 66.4314 18.5158 66.43 18.2807C66.4228 17.263 66.4271 16.2454 66.4271 15.1689C66.4916 15.1818 66.4028 15.1489 66.3139 15.1474C61.2743 15.1446 56.2333 15.1388 51.1937 15.1632C50.9873 15.1632 50.7708 15.4312 50.5802 15.5975C49.9467 16.1508 49.3719 16.7857 48.6782 17.2458C48.294 17.501 48.0948 17.6744 48.0977 18.1531C48.1163 22.4288 48.1077 26.7044 48.1077 30.98C48.1077 31.1907 48.1077 31.4014 48.1077 31.6695H48.9476C53.7493 31.6695 58.551 31.6695 63.3512 31.6695C64.4391 31.6695 64.5896 31.8214 64.5896 32.9122C64.5896 39.7205 64.5896 46.5274 64.5896 53.3357V54.147C66.8299 54.2302 68.9727 54.2875 71.1113 54.4122C71.4854 54.4337 71.9526 54.6587 72.1648 54.9468C72.2923 55.1188 72.0917 55.6549 71.8967 55.9258C69.5962 59.1178 67.2628 62.284 64.9637 65.4775C64.7473 65.7785 64.6097 66.2085 64.6068 66.5798C64.5796 69.7331 64.591 72.8864 64.591 76.0397C64.591 77.2337 64.4735 77.3527 63.2867 77.3527C50.53 77.3527 37.7748 77.3527 25.0181 77.3527H24.1811V100.219C25.4352 100.512 26.3024 101.261 26.7783 102.337H37.6859C37.6859 99.7213 37.6859 97.1685 37.6859 94.6143C37.6859 93.6325 37.8192 93.4992 38.8011 93.4992C44.844 93.4992 50.8884 93.4992 56.9313 93.4992C57.9676 93.4992 58.1353 93.6626 58.1382 94.7017C58.1425 97.0424 58.1382 99.383 58.1382 101.725V102.35H74.739V101.519C74.739 94.8537 74.739 88.1901 74.739 81.5251C74.739 80.3942 74.8723 80.2652 76.0276 80.2638C77.8436 80.2638 79.6582 80.2638 81.4743 80.2638H82.7901V58.4112C82.7901 56.1652 82.7786 53.9205 82.7987 51.6745C82.803 51.1585 82.7413 50.8776 82.1221 50.76C81.5631 50.654 81.017 50.3243 80.534 49.9918C77.1685 47.6784 76.9464 43.0229 80.1226 40.549C80.8794 39.9584 81.8412 39.6302 82.7542 39.1586V21.768C82.5607 21.758 82.3988 21.7436 82.2382 21.7422C76.9865 21.6935 71.7348 21.6447 66.483 21.5989C64.9064 21.5845 63.3311 21.5831 61.7545 21.5731C61.2671 21.5702 60.9891 21.3208 60.9848 20.8306C60.9805 20.3533 61.2815 20.1612 61.7215 20.1412C61.8878 20.134 62.0555 20.1383 62.2232 20.1397C68.1443 20.1799 74.0654 20.2128 79.9865 20.2616C84.4255 20.2974 88.866 20.3705 93.305 20.392C94.5649 20.3977 95.8262 20.2816 97.0861 20.2214C98.1626 19.9677 99.2763 19.8158 100.304 19.4317C101.56 18.9615 102.639 18.1746 103.287 16.9276L103.29 16.9248ZM83.7375 40.774C81.3682 40.7611 79.3142 42.8079 79.3314 45.1614C79.3486 47.5465 81.3682 49.5259 83.7762 49.5202C86.0423 49.5145 88.0719 47.4605 88.0776 45.1657C88.0834 42.8308 86.0638 40.7869 83.7389 40.774H83.7375ZM113.512 42.58H108.344V47.0592C109.404 47.0592 110.286 47.0778 111.167 47.0534C112.062 47.0291 112.955 46.9617 113.931 46.9087C113.789 45.4381 113.655 44.0721 113.512 42.58Z" fill="#272324"/>
<path d="M40.0911 32.3545C40.1742 33.1443 40.7346 33.1643 41.3452 33.1643C48.294 33.1586 55.2428 33.16 62.1916 33.16C62.4769 33.16 62.7607 33.16 63.1004 33.16V54.2243C62.7521 54.2673 62.3622 54.3461 61.9709 54.3619C57.6824 54.5296 53.3938 54.7718 49.1039 54.8148C46.4637 54.8406 43.8192 54.5798 41.1804 54.4006C40.4953 54.3547 40.0925 54.5267 39.76 55.1603C38.6377 57.3031 37.4509 59.4144 36.3372 61.4469C35.1131 59.853 33.9105 58.2075 32.6119 56.6409C32.1748 56.112 31.8279 55.3179 30.9063 55.3925C30.6153 55.2033 30.3243 55.0141 30.0334 54.8263C29.7668 54.2988 29.4672 53.8459 28.7792 54.2773C27.9608 54.124 27.138 53.9921 26.3296 53.7972C26.1849 53.7628 26.0057 53.4689 26.0086 53.2969C26.0157 52.8483 26.1161 52.4025 26.1791 51.9539C26.2967 51.9582 26.4171 51.951 26.5332 51.9697C31.2789 52.7136 36.492 49.3223 36.4361 43.7051C37.4509 42.6086 38.4657 41.5135 39.479 40.417C40.3104 40.5388 40.6687 40.1647 40.5497 39.3563C40.1885 36.9139 39.3558 34.6392 38.1446 32.4964L40.0925 32.3574L40.0911 32.3545Z" fill="#88C2EA"/>
<path d="M104.694 120.205C104.614 120.676 104.807 120.974 105.249 121.154C105.567 121.283 105.868 121.459 106.361 121.708H76.2583V81.7484C76.5349 81.7355 76.8101 81.7125 77.0868 81.7125C81.361 81.7097 85.6366 81.7068 89.9108 81.7154C90.5071 81.7154 91.0288 81.6609 91.099 80.9099C91.9848 80.8568 92.8706 80.8038 93.9256 80.7407C93.6776 81.1564 93.5257 81.4101 93.3737 81.6624C93.0656 81.7197 92.6757 81.6753 92.4607 81.8487C89.4235 84.2839 88.1048 88.9709 89.4321 92.6474C90.0498 94.3588 91.1205 95.6058 93.0484 95.7119C93.4153 96.4816 93.7306 97.2284 94.1162 97.9364C95.0436 99.6349 96.2805 101.034 97.9919 102.01C99.5514 102.899 101.205 103.106 102.947 102.934C102.759 103.106 102.571 103.278 102.385 103.45C101.984 103.191 101.615 103.227 101.309 103.6C99.4969 105.804 97.6881 108.011 95.8806 110.222C95.571 110.6 95.5811 110.955 96.0025 111.254C95.6828 111.663 95.3632 112.073 95.0421 112.482C93.7622 109.363 92.4736 106.247 91.208 103.122C90.5572 101.517 89.6815 100.972 87.9787 101.361C86.0322 101.805 84.1044 102.337 82.1765 102.86C81.3839 103.075 81.2348 103.417 81.4728 104.196C82.3027 106.905 83.2902 109.549 84.6462 112.043C84.8425 112.404 84.8726 112.694 84.6347 113.084C84.3681 113.518 84.1904 114.033 84.09 114.536C83.9223 115.373 84.1631 115.598 85.0332 115.564C85.1894 115.774 85.3456 115.986 85.5019 116.197C85.0518 116.501 85.036 116.869 85.2109 117.368C85.5764 118.406 86.2859 119.092 87.2505 119.527C89.2715 120.435 91.2323 120.123 93.1473 119.166C94.3971 118.896 95.6484 118.638 96.894 118.354C97.3785 118.244 97.8515 117.957 98.3288 117.963C98.9164 117.969 99.527 118.128 100.083 118.34C101.633 118.929 103.159 119.58 104.696 120.205H104.694Z" fill="#88C1E9"/>
<path d="M21.4319 73.7318C21.8118 73.8794 22.1916 74.1546 22.5729 74.1561C34.514 74.179 46.4551 74.1733 58.3976 74.1761C59.034 74.1761 59.4912 74.0127 59.4196 73.2445C59.411 73.157 59.4339 73.0467 59.4841 72.9764C60.6522 71.341 61.8276 69.7099 63.109 67.9282V75.846H2.26685V33.2129H15.9623C15.6828 34.0801 15.3503 34.9186 15.1425 35.7886C14.2825 39.382 14.3828 42.9137 16.3106 46.1602C16.9327 47.2094 17.9848 48.0035 18.8405 48.9136C18.4907 49.798 18.141 50.6824 17.7913 51.5667C17.4759 51.2184 17.1635 50.8673 16.8438 50.5218C16.1802 49.8052 15.7101 49.9041 15.3761 50.8286C14.4717 51.6298 13.5672 52.4325 12.6628 53.2337C12.4148 53.3455 12.111 53.3985 11.9275 53.5763C9.47508 55.9585 7.51858 58.7219 6.01931 61.7749C5.41301 63.0076 4.95291 64.4108 4.84541 65.7696C4.64618 68.2937 6.03508 70.1055 8.21661 71.1819C9.35611 71.7452 10.6862 71.9244 11.9289 72.277C12.1425 72.373 12.346 72.5034 12.5696 72.5579C15.4822 73.2574 18.4377 73.6386 21.4319 73.7332V73.7318Z" fill="#88C2EA"/>
<path d="M38.6191 109.695C39.062 109.432 39.1409 109.028 39.1394 108.542C39.1265 104.315 39.1323 100.086 39.1323 95.8595C39.1323 95.5785 39.1323 95.2962 39.1323 94.9751H56.6318V112.171C56.4928 112.187 56.338 112.218 56.1818 112.218C50.4499 112.221 44.718 112.221 38.9861 112.218C38.8685 112.218 38.751 112.192 38.632 112.179C38.6277 111.351 38.6234 110.522 38.6191 109.695ZM47.9516 96.8814C47.0787 96.9904 46.1886 97.0276 45.3343 97.2226C43.4738 97.6483 42.0133 98.6287 41.3038 100.493C40.5054 102.596 40.934 105.298 43.5312 106.177C44.7782 106.598 45.082 107.381 45.2211 108.448C45.2555 108.708 45.2182 108.983 45.287 109.23C45.3701 109.528 45.469 109.966 45.6783 110.048C45.9392 110.151 46.4107 110.06 46.6315 109.867C47.5631 109.056 48.4246 108.165 49.3362 107.33C49.5655 107.121 49.8722 106.971 50.1704 106.867C50.8827 106.624 51.6567 106.516 52.3247 106.191C55.4207 104.68 55.8091 100.522 53.0772 98.4294C51.5664 97.2727 49.8006 96.9832 47.9501 96.88L47.9516 96.8814Z" fill="#CED0D1"/>
<path d="M113.267 97.8592C113.984 97.4292 114.058 97.1454 113.508 96.6065C112.917 96.0274 112.691 95.3293 112.71 94.541C112.743 93.2066 112.87 91.8722 112.849 90.5406C112.803 87.5507 112 84.7628 110.423 82.2086C110.353 82.094 110.293 81.9721 110.183 81.77H119.849V105.205C119.41 104.508 119.059 103.928 118.685 103.363C118.269 102.738 117.974 102.694 117.332 103.118C116.415 101.891 115.506 100.658 114.576 99.4416C114.16 98.8983 113.704 98.3852 113.266 97.8592H113.267Z" fill="#88C1E8"/>
<path d="M85.0332 115.564C84.1632 115.598 83.9224 115.373 84.0901 114.536C84.1904 114.033 84.3682 113.518 84.6348 113.084C84.8741 112.694 84.8426 112.405 84.6462 112.044C83.2917 109.548 82.3027 106.904 81.4728 104.196C81.2349 103.418 81.3825 103.077 82.1766 102.86C84.1044 102.337 86.0323 101.805 87.9787 101.361C89.6815 100.972 90.5573 101.517 91.208 103.122C92.4737 106.247 93.7622 109.363 95.0422 112.482C95.144 112.899 95.4794 113.348 94.9146 113.686C94.4775 113.948 93.9701 113.728 93.7321 113.15C92.7718 110.822 91.8201 108.49 90.8712 106.158C90.5401 105.344 90.2448 104.516 89.9051 103.706C89.5468 102.854 89.1111 102.565 88.231 102.76C86.4909 103.143 84.7695 103.604 82.8316 104.084C83.8622 106.62 84.8397 109.021 85.8158 111.421C85.9219 111.459 86.0265 111.497 86.1326 111.535C86.3175 111.27 86.5038 111.006 86.6902 110.741C86.9023 110.646 87.1173 110.557 87.3266 110.457C88.6553 109.813 90.0026 110.292 90.4269 111.694C90.6146 112.313 90.4584 113.034 90.4584 113.712C90.7752 114.009 91.1206 114.331 91.466 114.654C92.1712 116.186 91.5893 117.387 90.414 118.436C90.4627 118.502 90.51 118.568 90.5587 118.635C91.1679 118.39 91.8057 118.193 92.3733 117.873C92.5683 117.763 92.6672 117.35 92.6786 117.07C92.7001 116.54 93.0671 116.123 93.6318 116.151C94.2023 116.182 94.4015 116.54 94.3585 117.073C94.2883 117.963 93.7751 118.598 93.1488 119.167C91.2338 120.125 89.273 120.439 87.252 119.528C86.2874 119.094 85.5765 118.409 85.2124 117.37C85.0375 116.871 85.0533 116.503 85.5034 116.199C86.081 116.065 86.3548 116.348 86.5827 116.858C86.7389 117.208 87.0385 117.634 87.3638 117.731C87.7537 117.849 88.241 117.668 88.6825 117.593C89.6729 117.429 90.3179 116.673 90.242 115.786C90.1904 115.171 89.941 115.046 89.3404 115.191C89.0638 115.258 88.5549 115.22 88.479 115.066C88.3442 114.793 88.3815 114.371 88.4833 114.056C88.6252 113.613 88.9778 113.229 89.0767 112.785C89.1412 112.495 89.0036 112.035 88.7857 111.85C88.6022 111.694 88.0934 111.7 87.8712 111.847C86.7561 112.587 85.7227 113.414 85.4718 114.867C85.4288 115.117 85.1866 115.332 85.0361 115.562L85.0332 115.564ZM90.3394 118.539C90.3265 118.526 90.3136 118.504 90.2993 118.502C90.285 118.501 90.2678 118.519 90.252 118.531C90.2649 118.544 90.2778 118.567 90.2921 118.568C90.3065 118.569 90.3237 118.551 90.3394 118.539Z" fill="#272425"/>
<path d="M103.84 86.2379C102.543 85.6603 101.174 85.5399 99.7809 85.6287C99.5802 85.6416 99.3652 85.8108 99.2047 85.9598C98.9983 86.1533 98.8593 86.4156 98.6615 86.6192C97.5478 87.763 96.3094 87.558 95.564 86.1132C94.6094 84.2642 95.1068 82.2618 96.8168 81.0707C100.588 78.4434 105.838 79.699 108.031 83.7367C109.228 85.9412 110.132 88.2202 109.992 90.7916C109.975 91.0955 109.883 91.395 109.826 91.696C108.89 88.987 107.121 87.1667 104.274 86.4945L103.84 86.2379Z" fill="#89C2EA"/>
<path d="M38.1431 32.4932C39.3557 34.636 40.187 36.9107 40.5482 39.3531C40.6672 40.1615 40.3089 40.5356 39.4775 40.4138C39.3342 40.0254 39.1622 39.6441 39.0518 39.2471C38.748 38.1506 38.4799 37.0455 38.1775 35.949C38.1116 35.7125 37.9654 35.4975 37.7045 35.3068C37.6773 35.6035 37.6515 35.9002 37.6214 36.1969C37.5855 36.5524 37.5769 36.9136 37.4995 37.2605C37.1498 38.8185 35.8383 39.4162 34.3863 38.7354C33.5579 38.3469 32.6764 38.0717 31.8594 37.6647C31.6071 37.5385 31.3606 37.1544 31.3362 36.8692C31.266 36.0737 31.3118 35.2667 31.3118 34.3465C30.6453 34.9012 30.1064 35.4215 29.4987 35.8415C28.1986 36.7402 26.7467 37.2003 25.1542 37.2418C24.8905 37.249 24.5379 37.4669 24.3917 37.6948C23.1318 39.6541 22.408 41.8199 21.9937 44.1032C21.945 44.3741 21.7787 44.7181 21.5609 44.8442C20.9073 45.2241 20.5188 44.8399 20.5647 43.9083C20.9961 41.5074 21.7443 39.2184 23.0343 37.0813C22.7792 36.9982 22.5757 36.9394 22.3764 36.8663C21.9407 36.7086 21.7515 36.4134 21.7873 35.9332C21.9321 34.0226 22.5226 32.2553 23.4629 30.5955C23.718 30.144 24.0577 29.7971 24.6124 30.0866C25.2044 30.3934 24.9937 30.8305 24.7758 31.3035C24.3817 32.1578 24.0491 33.0407 23.6908 33.9122C23.546 34.454 23.4027 34.9944 23.2422 35.5935C25.008 35.8916 26.6191 35.873 28.1026 34.9155C28.2302 34.8596 28.3663 34.8195 28.4824 34.7478C29.5818 34.0742 30.34 33.0938 31.0194 32.0216C31.1828 31.7636 31.6372 31.4741 31.8737 31.5343C32.126 31.5974 32.4069 32.0374 32.4528 32.3456C32.6162 33.4191 32.6821 34.507 32.7867 35.5892C32.6921 36.1138 32.814 36.4607 33.4045 36.6312C33.8359 36.7559 34.2244 37.0412 34.6171 37.2791C35.3682 37.7363 35.93 37.583 36.0246 36.7488C36.178 35.3943 36.1766 34.0211 36.2568 32.6566C36.2855 32.1779 36.0404 31.5271 36.7169 31.3494C37.3748 31.1774 37.6486 31.7436 37.9166 32.2252C37.9725 32.3255 38.0671 32.4029 38.1431 32.4903V32.4932Z" fill="#292627"/>
<path d="M23.6893 33.9127C24.0477 33.0412 24.3802 32.1583 24.7744 31.304C24.9922 30.8324 25.2015 30.3953 24.611 30.0871C24.0563 29.799 23.7166 30.1459 23.4614 30.5959C22.5212 32.2543 21.9306 34.0216 21.7859 35.9337C21.75 36.4138 21.9392 36.7091 22.375 36.8668C22.5742 36.9384 22.7777 36.9986 23.0329 37.0818C21.7429 39.2189 20.9932 41.5079 20.5632 43.9087C19.5556 44.3473 19.322 45.0597 19.7735 46.45C18.3588 45.7076 17.6435 44.4649 17.3296 43.0602C16.3937 38.8691 17.0573 34.9461 19.7133 31.5004C20.7711 30.1272 22.2101 29.1483 23.8312 28.5119C25.0066 28.0489 25.696 28.6667 25.4523 29.9165C25.1671 31.3771 24.6009 32.7244 23.6908 33.9141L23.6893 33.9127Z" fill="#89C2EA"/>
<path d="M102.947 102.933C101.205 103.105 99.5514 102.897 97.9919 102.009C96.2805 101.033 95.0421 99.6337 94.1162 97.9352C93.7306 97.2271 93.4153 96.4804 93.0484 95.7107C91.1205 95.6046 90.0498 94.3576 89.4321 92.6462C88.1048 88.9683 89.4249 84.2827 92.4607 81.8475C92.6757 81.674 93.0656 81.7185 93.3737 81.6611C93.9542 82.2001 93.9729 82.362 93.3207 82.9655C91.2968 84.8388 90.3207 87.1565 90.3766 89.8971C90.401 91.1168 90.5802 92.328 91.4101 93.307C91.691 93.6395 92.068 93.8889 92.4019 94.177C92.4593 94.1426 92.5166 94.1082 92.5725 94.0738C92.4736 93.6037 92.369 93.135 92.2772 92.6648C92.1855 92.1875 92.2959 91.8134 92.8291 91.6773C93.4053 91.5296 93.6088 91.8722 93.6991 92.3466C94.099 94.4393 94.7325 96.4445 95.9724 98.2047C97.3699 100.19 99.1759 101.506 101.711 101.549C103.021 101.57 104.174 101.142 105.204 100.335C105.415 100.17 105.713 100.015 105.961 100.029C106.166 100.042 106.494 100.29 106.52 100.471C106.558 100.724 106.446 101.093 106.261 101.272C105.339 102.171 104.175 102.626 102.947 102.935V102.933Z" fill="#262224"/>
<path d="M32.7869 35.5894C32.6837 34.5073 32.6163 33.4194 32.4529 32.3458C32.4056 32.0362 32.1261 31.5976 31.8739 31.5345C31.6374 31.4758 31.183 31.7639 31.0196 32.0219C30.3402 33.094 29.5805 34.0744 28.4826 34.7481C28.3651 34.8197 28.2289 34.8613 28.1028 34.9158C26.8314 34.8785 25.54 35.0347 24.1482 34.4628C25.1515 32.6267 26.0889 30.8136 27.1281 29.0606C27.4965 28.44 28.2647 28.3798 28.9441 28.483C30.4276 28.7066 31.7879 29.2641 32.9646 30.203C33.3058 30.4753 33.6139 30.8322 33.8289 31.212C34.2905 32.0233 34.4897 32.1079 35.4185 31.5947C35.7138 33.0023 36.0477 34.374 35.8456 35.7915C35.7281 36.6114 35.2021 36.8565 34.4324 36.5025C33.8648 36.2402 33.3344 35.8962 32.7869 35.588V35.5894Z" fill="#89C2E9"/>
<path d="M108.045 112.975C108.577 114.649 108.442 116.011 107.462 117.229C106.558 118.351 104.644 118.814 103.441 118.229C102.987 118.009 102.86 117.669 102.999 117.239C103.145 116.786 103.489 116.756 103.922 116.872C105.151 117.205 105.894 116.95 106.474 116.052C107.042 115.175 107.055 113.79 106.368 113.041C105.933 112.566 105.342 112.215 104.776 111.884C103.942 111.398 103.069 110.98 102.212 110.532C101.898 110.368 101.539 110.102 101.287 110.545C101.062 110.944 101.257 111.278 101.673 111.458C102.176 111.676 102.282 112.056 102.04 112.503C101.797 112.949 101.428 112.912 100.996 112.72C99.937 112.248 99.4224 111.1 99.8495 110.074C100.278 109.046 101.476 108.603 102.54 109.112C103.757 109.695 104.971 110.286 106.16 110.921C106.592 111.152 106.95 111.519 107.307 111.798C107.7 111.765 108.088 111.701 108.477 111.704C109.979 111.715 111.267 111.225 112.314 110.131C112.477 109.961 112.638 109.685 112.825 109.661C113.142 109.621 113.524 109.671 113.786 109.833C113.893 109.9 113.87 110.467 113.718 110.614C112.947 111.374 112.115 112.07 111.362 112.738C111.566 113.574 111.898 114.499 111.997 115.447C112.146 116.889 111.471 118.073 110.479 119.075C110.157 119.401 109.744 119.455 109.393 119.118C109.031 118.773 109.105 118.401 109.443 118.063C110.45 117.056 110.856 115.877 110.409 114.486C110.296 114.133 110.086 113.808 109.893 113.487C109.46 112.767 108.753 113.33 108.047 112.973L108.045 112.975Z" fill="#252223"/>
<path d="M96.0011 111.252C95.5783 110.953 95.5697 110.597 95.8793 110.22C97.6853 108.011 99.4956 105.804 101.307 103.598C101.614 103.226 101.982 103.19 102.384 103.449C102.414 103.762 102.494 104.078 102.464 104.384C102.375 105.288 103.188 106.086 104.312 106.134C106.171 106.211 107.731 105.439 109.172 104.371C110.71 103.23 111.725 101.69 112.384 99.916C112.586 99.3713 112.92 99.0746 113.452 99.2939C113.969 99.5075 113.922 99.9547 113.73 100.443C112.221 104.293 109.595 106.828 105.407 107.478C104.717 107.586 103.969 107.526 103.282 107.379C102.424 107.196 101.713 106.706 101.31 105.742C100.277 107.01 99.2834 108.219 98.3016 109.438C97.9289 109.899 97.5706 110.372 97.228 110.855C96.9098 111.304 96.5257 111.474 96.0025 111.252H96.0011Z" fill="#252223"/>
<path d="M104.274 86.4945C107.12 87.1653 108.89 88.9856 109.826 91.6961C109.91 92.2594 109.988 92.8241 110.084 93.386C110.164 93.8504 110.045 94.2302 109.55 94.2976C109.032 94.3692 108.683 94.1127 108.645 93.5422C108.547 92.1547 108.142 90.8776 107.175 89.8471C105.351 87.8992 102.805 87.3989 100.318 88.4424C99.5745 88.7549 98.822 89.0602 98.0537 89.3053C96.7121 89.7338 95.4293 89.6306 94.2769 88.7348C93.9214 88.0396 93.5674 87.3445 93.2119 86.6493C93.2191 86.5303 93.2305 86.4128 93.232 86.2938C93.2377 85.8366 93.4585 85.5686 93.9229 85.5743C94.3686 85.58 94.5965 85.8409 94.6668 86.2809C94.9104 87.8175 95.5081 88.2948 97.0389 87.9708C98.1211 87.7415 99.1746 87.3531 100.214 86.9618C101.393 86.5174 102.596 86.3669 103.84 86.4615C103.985 86.473 104.13 86.483 104.274 86.4945Z" fill="#252223"/>
<path d="M104.818 48.1152C105.455 48.1826 106.102 48.2141 106.728 48.3388C106.933 48.3804 107.181 48.6298 107.254 48.839C107.531 49.6231 107.732 50.4329 107.985 51.2255C108.143 51.7157 108.483 51.9823 109.016 51.829C109.608 51.6584 109.5 51.2098 109.371 50.7812C109.146 50.0387 108.911 49.3006 108.647 48.4563H113.764C113.661 50.2709 113.334 52.0712 112.699 53.8156C109.221 53.645 106.632 52.0827 105.073 48.9236C104.949 48.6728 104.901 48.3847 104.816 48.1138L104.818 48.1152Z" fill="#89C2E9"/>
<path d="M15.376 50.8285C15.7099 49.904 16.1801 49.8051 16.8437 50.5218C17.1633 50.8672 17.4758 51.2184 17.7911 51.5667C19.858 53.5862 22.1986 55.1557 25.0409 55.8495C25.5842 55.9828 26.179 55.9871 26.7409 55.9398C27.7743 55.8523 28.3849 55.1772 28.7791 54.2728C29.4656 53.8414 29.7652 54.2943 30.0332 54.8218C29.8956 55.1486 29.8068 55.5069 29.6147 55.7964C28.6644 57.224 27.2239 57.5408 25.6587 57.3631C22.2144 56.9703 19.4982 55.1199 17.0343 52.8481C16.3994 52.2633 15.9249 51.505 15.3774 50.8271L15.376 50.8285Z" fill="#2C2829"/>
<path d="M36.436 43.7022C36.4905 49.3195 31.2789 52.7107 26.5331 51.9668C26.417 51.9482 26.2966 51.9554 26.1791 51.9511C25.7735 51.8264 25.3678 51.6988 24.9593 51.5798C24.4534 51.4322 24.2599 51.0982 24.4118 50.6009C24.5666 50.0949 24.9307 50.0662 25.3836 50.2038C27.1982 50.7557 28.9856 50.6926 30.7701 50.0175C33.0806 49.1432 34.8135 46.8212 34.9196 44.3659C34.9267 44.1996 34.9554 44.0333 34.9611 43.8671C34.9769 43.4256 35.0901 43.0443 35.6076 43.0013C36.0935 42.9612 36.3486 43.245 36.4375 43.7008L36.436 43.7022Z" fill="#2B282A"/>
<path d="M48.4689 11.6685C48.6839 12.0311 48.8918 12.398 49.1139 12.7564C49.8105 13.8758 49.6471 14.8906 48.6452 15.6288C47.51 16.4658 46.3978 16.3985 45.5349 15.441C44.695 14.5093 44.9114 13.2408 46.0451 12.7191C46.5382 12.4926 46.7375 12.1873 46.673 11.6728C47.2721 11.6728 47.8698 11.6699 48.4689 11.6685Z" fill="#CDCECF"/>
<path d="M91.4647 114.652C91.1193 114.33 90.7738 114.007 90.4571 113.71C90.4571 113.032 90.6133 112.31 90.4255 111.692C90.0013 110.29 88.6539 109.812 87.3252 110.455C87.116 110.557 86.901 110.644 86.6888 110.739C86.4208 110.041 86.137 109.349 85.8905 108.644C85.6783 108.037 85.4791 107.424 85.3358 106.799C85.2827 106.568 85.4031 106.297 85.4447 106.043C85.7056 106.102 86.0438 106.076 86.213 106.234C86.9655 106.932 87.6979 107.656 88.3845 108.418C89.7218 109.905 91.0275 111.42 92.339 112.929C92.534 113.153 92.6859 113.414 92.8722 113.677C92.3548 114.036 91.9105 114.344 91.4661 114.651L91.4647 114.652Z" fill="#CED0D1"/>
<path d="M21.73 105.284C21.6942 105.198 21.6798 105.089 21.6196 105.027C21.0019 104.407 20.9087 103.699 21.3387 102.959C21.8848 102.019 22.9469 101.497 23.913 101.68C24.7902 101.848 25.3205 102.427 25.5584 103.266C25.7691 104.008 25.4094 104.656 24.6841 105.098C24.3888 105.277 24.1839 105.605 23.9388 105.864C23.235 105.728 22.5298 105.594 21.826 105.457L21.8389 105.453C21.8031 105.396 21.7673 105.34 21.73 105.282V105.284Z" fill="#CED0D1"/>
<path d="M93.2119 86.6489C93.5674 87.3441 93.9214 88.0393 94.2769 88.7344C92.8536 89.5973 92.1169 90.9317 91.7012 92.5958C91.1021 92.1931 91.0017 91.5925 90.9702 91.0493C90.8584 89.163 91.6883 87.7211 93.2119 86.6489Z" fill="#89C2E9"/>
<path d="M102.272 90.3917C102.341 90.0176 102.387 89.5991 102.957 89.5174C103.513 89.4371 103.757 89.7682 103.909 90.2555C104.121 90.9335 104.372 91.6 104.621 92.2665C104.783 92.6979 104.774 93.0649 104.293 93.2713C103.775 93.4934 103.452 93.2254 103.297 92.7768C103.145 92.341 102.871 92.1447 102.44 92.0687C101.99 91.9899 101.545 91.7806 101.648 91.2574C101.711 90.9392 102.055 90.6769 102.272 90.3903V90.3917Z" fill="#252223"/>
<path d="M95.7258 92.1217C95.7402 91.6816 95.8677 91.2201 96.3694 91.2903C96.6833 91.3348 97.0689 91.6644 97.2151 91.9669C97.5433 92.6463 97.7913 93.3758 97.9704 94.1111C98.0364 94.3835 97.8171 94.726 97.7282 95.0356C97.3971 94.9339 96.8582 94.9195 96.7736 94.716C96.5185 94.104 96.0813 93.9019 95.5108 93.7299C95.2829 93.6611 94.9518 93.2397 95.0034 93.0935C95.1066 92.7953 95.4349 92.5746 95.6714 92.3223C95.69 92.2564 95.7086 92.189 95.7273 92.1231L95.7258 92.1217Z" fill="#252223"/>
<path d="M34.6688 41.0476C34.8522 41.0734 35.0959 41.0347 35.2091 41.1379C35.4284 41.3385 35.7323 41.6352 35.7094 41.8631C35.6865 42.0996 35.3052 42.4995 35.1045 42.4852C34.4165 42.4365 34.0281 42.7117 33.6597 43.2563C33.5264 43.4541 33.0047 43.5788 32.7696 43.4785C32.3597 43.3036 32.3095 42.8851 32.5044 42.4422C32.7581 41.8646 32.9172 41.2411 33.2068 40.6864C33.3429 40.4255 33.7686 40.0643 33.9306 40.1231C34.2674 40.2435 34.5168 40.6104 34.8035 40.877L34.6688 41.0461V41.0476Z" fill="#2E2A2B"/>
<path d="M28.292 38.9418C28.5242 38.9633 28.7119 38.9246 28.7965 39.0006C29.0373 39.2156 29.4042 39.475 29.4057 39.7187C29.4057 39.9494 28.9757 40.4024 28.7893 40.3766C28.0698 40.2748 27.7086 40.6675 27.3646 41.1577C27.1267 41.4974 26.8414 41.6494 26.4616 41.3856C26.0646 41.1104 26.0273 40.7406 26.2036 40.3164C26.4444 39.7373 26.6293 39.1296 26.9274 38.5835C27.0708 38.3226 27.4119 38.0216 27.6785 38.0087C28.1974 37.9815 28.421 38.3642 28.2905 38.9418H28.292Z" fill="#2E2A2B"/>
<path d="M100.634 100.025C100.331 99.6681 99.9658 99.4258 99.9428 99.1535C99.9228 98.9113 100.231 98.497 100.483 98.4039C101.517 98.0255 102.586 97.7445 103.639 97.4206C104.087 97.283 104.472 97.3862 104.666 97.8062C104.849 98.2075 104.691 98.5873 104.273 98.7421C103.108 99.175 101.928 99.5706 100.634 100.024V100.025Z" fill="#272324"/>
<path d="M101.686 116.454C100.284 116.47 98.5381 114.55 98.733 113.4C98.776 113.147 99.1143 112.803 99.3536 112.769C99.5858 112.736 100.047 113.005 100.098 113.216C100.321 114.171 100.87 114.744 101.765 115.102C101.984 115.19 102.225 115.625 102.184 115.855C102.137 116.121 101.795 116.336 101.687 116.455L101.686 116.454Z" fill="#272324"/>
<path d="M24.9866 44.9292C25.087 45.0238 25.3708 45.1786 25.4811 45.4151C25.818 46.1346 26.3626 46.5689 27.1008 46.7968C27.5724 46.9416 27.8676 47.2268 27.6799 47.7443C27.4993 48.2431 27.0736 48.3162 26.6221 48.1743C25.4453 47.8045 24.6168 47.0419 24.1582 45.8938C23.936 45.3363 24.2069 44.9378 24.9866 44.9292Z" fill="#2C2829"/>
<path d="M100.522 94.6314C100.614 95.2277 100.76 95.8225 100.77 96.4202C100.774 96.6897 100.549 97.1426 100.35 97.1928C100.093 97.2559 99.6002 97.0824 99.4827 96.8631C99.0527 96.0662 98.9366 95.1761 99.3064 94.3233C99.3996 94.1097 99.8324 93.9033 100.079 93.9348C100.327 93.9664 100.536 94.2989 100.761 94.4996C100.681 94.544 100.601 94.587 100.52 94.6314H100.522Z" fill="#2E2A2B"/>
<path d="M31.4509 46.4812C31.1083 45.9796 30.7643 45.7015 30.7443 45.4019C30.7027 44.7885 31.2259 44.6795 31.7232 44.6451C32.2364 44.6093 32.5632 44.9547 32.4485 45.3575C32.3453 45.7187 31.911 45.9867 31.4509 46.4812Z" fill="#2E2A2B"/>
<path d="M114.339 53.5503C114.699 51.8102 115.059 50.0702 115.439 48.2283C116.218 48.1036 117.127 47.9574 118.036 47.8112C118.493 47.7381 118.902 47.5948 118.807 47.01C118.714 46.4352 118.289 46.3034 117.791 46.375C116.992 46.4883 116.198 46.6316 115.37 46.7678C115.268 45.5122 115.171 44.2953 115.062 42.9494C115.747 43.1515 116.375 43.3335 116.999 43.5213C117.273 43.603 117.544 43.6947 117.815 43.7836C118.262 43.9312 118.661 43.8538 118.8 43.3751C118.939 42.8978 118.695 42.5237 118.222 42.3775C117.245 42.075 116.266 41.774 115.271 41.5375C114.835 41.4343 114.639 41.2609 114.543 40.8151C114.388 40.097 114.153 39.3933 113.922 38.6938C113.759 38.2007 113.403 37.9284 112.874 38.1061C112.376 38.2724 112.376 38.6709 112.515 39.1052C112.715 39.733 112.9 40.3651 113.105 41.0387H108.369C108.703 39.9021 109.016 38.8386 109.328 37.7736C109.538 37.7306 109.751 37.7062 109.953 37.6446C113.24 36.6513 116.137 37.2949 118.55 39.7674C120.715 41.9819 121.398 44.6608 120.583 47.6149C119.704 50.794 117.593 52.8064 114.336 53.5474L114.339 53.5503Z" fill="#89C2E9"/>
<path d="M97.0889 20.2168C97.8228 18.1743 98.1224 16.0673 97.9532 13.9072C97.7411 11.1868 96.9012 8.68848 95.0837 6.60728C94.3756 5.79601 93.5285 5.10801 92.6829 4.30391C93.6074 4.30391 94.5362 4.15914 95.4048 4.32971C98.8906 5.01198 100.936 7.38128 102.263 10.4887C103.139 12.5398 103.301 14.7214 103.29 16.923C102.642 18.17 101.562 18.9569 100.307 19.427C99.2791 19.8111 98.1654 19.9616 97.0889 20.2168Z" fill="#D1D3D4"/>
<path d="M83.7374 40.774C86.0623 40.7869 88.0819 42.8294 88.0761 45.1657C88.0704 47.4605 86.0422 49.5145 83.7747 49.5202C81.3667 49.5259 79.3486 47.5465 79.3299 45.1614C79.3127 42.8079 81.3681 40.7611 83.736 40.774H83.7374Z" fill="#CFD1D2"/>
<path d="M113.512 42.5796C113.657 44.0717 113.789 45.4391 113.931 46.9083C112.955 46.9613 112.062 47.0287 111.167 47.053C110.286 47.0774 109.404 47.0588 108.344 47.0588V42.5796H113.512Z" fill="#88C1E8"/>
<path d="M104.56 43.3223C105.258 43.1331 105.954 42.9453 106.768 42.7246V46.8827C106.016 46.7637 105.21 46.6376 104.406 46.51C104.458 45.4479 104.508 44.3844 104.56 43.3223Z" fill="#88C1E8"/>
<path d="M105.417 41.5103C105.85 40.626 106.354 39.8018 107.279 39.3374C107.25 39.5223 107.23 39.7086 107.193 39.8921C106.994 40.8524 106.402 41.3918 105.417 41.5103Z" fill="#88C1E8"/>
<path d="M12.6628 53.2324C13.3909 53.7183 13.4268 54.048 12.819 54.6872C10.3752 57.2558 8.30546 60.0909 6.86209 63.3388C6.08809 65.0803 5.85016 66.8706 7.16883 68.5103C8.29113 69.9049 9.81906 70.537 11.5591 70.7334C13.4669 70.9498 15.3016 70.527 17.1362 70.1042C17.3684 70.0511 17.5949 69.9752 17.8271 69.9221C18.3101 69.8118 18.6971 69.925 18.8147 70.4568C18.9222 70.9427 18.6699 71.2394 18.2012 71.3297C16.6833 71.6221 15.1654 71.9202 13.6403 72.1739C13.0799 72.2671 12.5008 72.2441 11.9304 72.2742C10.6862 71.9216 9.35753 71.741 8.21803 71.1792C6.03649 70.1027 4.64759 68.291 4.84683 65.7669C4.95433 64.4081 5.41443 63.0063 6.02073 61.7722C7.51999 58.7206 9.47649 55.9572 11.9289 53.5735C12.1124 53.3958 12.4163 53.3428 12.6642 53.231L12.6628 53.2324Z" fill="#292628"/>
<path d="M47.9515 96.8818C49.8019 96.985 51.5678 97.2731 53.0785 98.4313C55.8119 100.524 55.4234 104.683 52.326 106.193C51.6566 106.52 50.8841 106.626 50.1717 106.869C49.8736 106.971 49.5668 107.122 49.3375 107.332C48.4259 108.166 47.5645 109.058 46.6328 109.869C46.4121 110.061 45.9405 110.152 45.6796 110.05C45.4704 109.967 45.3729 109.53 45.2883 109.231C45.2195 108.985 45.2568 108.71 45.2224 108.45C45.0834 107.382 44.7781 106.6 43.5325 106.178C40.9353 105.3 40.5053 102.598 41.3051 100.495C42.0132 98.6305 43.4752 97.6501 45.3356 97.2244C46.1899 97.0295 47.08 96.9922 47.9529 96.8833L47.9515 96.8818ZM46.7532 108.115C47.0542 107.722 47.2563 107.427 47.4899 107.16C48.3256 106.206 49.1956 105.303 50.6132 105.33C50.7493 105.333 50.8884 105.261 51.0231 105.214C53.5888 104.305 54.2725 101.556 52.2945 99.7614C51.6824 99.2067 50.7895 98.867 49.9667 98.6577C48.1134 98.1847 46.2386 98.1561 44.4642 99.0304C43.0136 99.7456 42.2611 101.146 42.426 102.697C42.565 104.008 43.3347 104.749 45.0404 105.215C45.0862 105.228 45.1436 105.228 45.1765 105.257C45.4589 105.508 45.8359 105.713 45.9935 106.027C46.2859 106.607 46.4493 107.253 46.7518 108.113L46.7532 108.115Z" fill="#2B2728"/>
<path d="M47.8539 71.02C45.036 71.02 42.2166 71.0315 39.3987 71.0042C39.0919 71.0014 38.6204 70.8537 38.5172 70.6359C38.2979 70.1743 38.7608 70.0038 39.1134 69.8461C42.6566 68.2608 46.2027 66.677 49.7445 65.0889C52.2657 63.958 54.7826 62.8142 57.3053 61.6847C59.805 60.5653 62.3048 59.4473 64.8203 58.3608C65.0926 58.2433 65.461 58.3436 65.7849 58.3436C65.7061 58.6675 65.7161 59.0545 65.5355 59.3039C63.6091 61.9585 61.6512 64.5901 59.7047 67.2303C58.9006 68.321 58.0836 69.4032 57.3196 70.5227C57.0516 70.9154 56.7549 71.03 56.3106 71.0286C53.4926 71.0157 50.6733 71.0214 47.8553 71.0214L47.8539 71.02Z" fill="#D1D3D4"/>
<path d="M28.2861 64.4884C29.47 66.7015 28.6258 68.4803 27.6196 69.4091C25.7663 71.1205 22.4639 70.7163 21.0363 68.6322C20.741 68.2008 20.774 67.8166 21.1466 67.4927C21.5293 67.1587 21.8346 67.3881 22.1199 67.6962C22.8308 68.4702 23.6449 69.0407 24.7601 69.0393C25.8996 69.0393 26.728 68.5161 27.2082 67.5156C27.674 66.5438 27.3788 65.6795 26.6779 64.907C26.0558 64.2218 26.1848 63.7388 27.0434 63.4306C27.1767 63.3819 27.363 63.3762 27.4347 63.2816C27.5852 63.0838 27.7686 62.8358 27.7586 62.6151C27.7529 62.4746 27.4246 62.2295 27.244 62.2324C25.8738 62.2596 24.7887 62.8702 23.9717 63.9639C23.8728 64.0957 23.794 64.2419 23.7066 64.3824C23.1877 65.218 22.8208 65.2194 22.2403 64.4411C22.084 64.2319 21.8217 64.047 21.5723 63.9681C19.2274 63.2328 16.828 62.929 14.3842 63.2529C13.097 63.4235 11.8285 63.7331 10.5529 63.9796C10.1057 64.0656 9.65847 64.1086 9.52087 63.5353C9.38901 62.9863 9.69144 62.7025 10.1988 62.552C14.2609 61.3494 18.3144 61.3695 22.3492 62.6624C22.7763 62.7985 23.0386 62.8014 23.3855 62.4417C24.4705 61.3151 25.8007 60.6772 27.4017 60.7933C28.5856 60.8793 29.3654 61.4311 29.556 62.241C29.7337 62.9892 29.2636 63.8363 28.2818 64.4884H28.2861Z" fill="#2B2728"/>
</svg>
