<svg width="221" height="74" viewBox="0 0 221 74" fill="none" xmlns="http://www.w3.org/2000/svg">
<path d="M28.26 0H185.98C198.28 0 208.742 10.2898 212.626 24.6508C216.406 23.3677 219.569 21.2654 221 19.6881C221 20.367 220.481 22.8563 220.309 23.422C219.289 26.7577 216.987 31.8698 214.11 33.4539C214.195 34.6216 214.24 35.8029 214.24 37C214.24 57.4349 201.588 74 185.98 74H28.26C12.6522 74 0 57.4349 0 37C0 16.5651 12.6522 0 28.26 0Z" fill="#89C3EB"/>
<rect x="23" y="23" width="80" height="4" rx="2" fill="#D9D9D9"/>
<path d="M79.5025 25C78.6225 25 78.1825 24.56 78.1825 23.68V13.4H75.3825C74.5025 13.4 74.0625 13 74.0625 12.2C74.0625 11.4 74.5025 11 75.3825 11H83.5825C84.4625 11 84.9025 11.4 84.9025 12.2C84.9025 13 84.4625 13.4 83.5825 13.4H80.8025V23.68C80.8025 24.56 80.3692 25 79.5025 25Z" fill="white"/>
<path d="M62.062 25C61.1953 25 60.762 24.56 60.762 23.68V12.32C60.762 11.44 61.1953 11 62.062 11H62.342C63.0086 11 63.5353 11.2867 63.922 11.86L69.622 20.46V12.32C69.622 11.44 70.062 11 70.942 11C71.8086 11 72.242 11.44 72.242 12.32V23.68C72.242 24.56 71.8286 25 71.002 25H70.782C70.0886 25 69.562 24.7133 69.202 24.14L63.362 15.22V23.68C63.362 24.56 62.9286 25 62.062 25Z" fill="white"/>
<path d="M56.7885 25C55.9219 25 55.4885 24.56 55.4885 23.68V12.32C55.4885 11.44 55.9219 11 56.7885 11C57.6552 11 58.0885 11.44 58.0885 12.32V23.68C58.0885 24.56 57.6552 25 56.7885 25Z" fill="white"/>
<path d="M46.8969 25.3401C45.6302 25.3401 44.4969 25.0401 43.4969 24.4401C42.4969 23.8401 41.7102 22.9935 41.1369 21.9001C40.5769 20.7935 40.2969 19.4935 40.2969 18.0001C40.2969 16.4935 40.5769 15.1935 41.1369 14.1001C41.7102 12.9935 42.4969 12.1401 43.4969 11.5401C44.4969 10.9268 45.6302 10.6201 46.8969 10.6201C48.1635 10.6201 49.2902 10.9268 50.2769 11.5401C51.2769 12.1401 52.0569 12.9935 52.6169 14.1001C53.1902 15.1935 53.4769 16.4935 53.4769 18.0001C53.4769 19.4935 53.1902 20.7935 52.6169 21.9001C52.0569 22.9935 51.2769 23.8401 50.2769 24.4401C49.2902 25.0401 48.1635 25.3401 46.8969 25.3401ZM46.8969 22.8201C47.6969 22.8201 48.3835 22.6201 48.9569 22.2201C49.5435 21.8068 49.9902 21.2401 50.2969 20.5201C50.6169 19.8001 50.7769 18.9601 50.7769 18.0001C50.7769 17.0268 50.6169 16.1801 50.2969 15.4601C49.9902 14.7401 49.5435 14.1801 48.9569 13.7801C48.3835 13.3668 47.6969 13.1601 46.8969 13.1601C46.1102 13.1601 45.4235 13.3668 44.8369 13.7801C44.2635 14.1801 43.8169 14.7401 43.4969 15.4601C43.1769 16.1801 43.0169 17.0268 43.0169 18.0001C43.0169 18.9601 43.1769 19.8001 43.4969 20.5201C43.8169 21.2401 44.2635 21.8068 44.8369 22.2201C45.4235 22.6201 46.1102 22.8201 46.8969 22.8201Z" fill="white"/>
<path d="M29.6401 25C28.7734 25 28.3401 24.56 28.3401 23.68V12.32C28.3401 11.44 28.7801 11 29.6601 11H34.8201C35.7001 11 36.4601 11.1333 37.1001 11.4C37.7534 11.6667 38.2534 12.1 38.6001 12.7C38.9601 13.3 39.1401 14.1067 39.1401 15.12C39.1401 16.1333 38.9601 16.9467 38.6001 17.56C38.2534 18.16 37.7534 18.6 37.1001 18.88C36.4601 19.1467 35.7001 19.28 34.8201 19.28H30.9401V23.68C30.9401 24.56 30.5068 25 29.6401 25ZM30.9401 16.86H34.4601C35.0601 16.86 35.5334 16.7267 35.8801 16.46C36.2268 16.1933 36.4001 15.7467 36.4001 15.12C36.4001 14.5067 36.2268 14.0667 35.8801 13.8C35.5334 13.5333 35.0601 13.4 34.4601 13.4H30.9401V16.86Z" fill="white"/>
<path d="M99.99 25.9999C98.87 25.9999 98.31 25.3399 98.31 24.0199V21.5899H92.22C90.9 21.5899 90.24 21.1299 90.24 20.2099C90.24 19.2699 90.46 18.4299 90.9 17.6899L97.53 6.25991C98.03 5.35991 98.81 4.90991 99.87 4.90991C101.07 4.90991 101.67 5.56991 101.67 6.88991V18.4699H102.6C103.92 18.4699 104.58 18.9899 104.58 20.0299C104.58 21.0699 104.1 21.5899 103.14 21.5899H101.67V24.0199C101.67 25.3399 101.11 25.9999 99.99 25.9999ZM93.75 18.4699H98.31V10.5199L93.75 18.4699Z" fill="#D74545"/>
<path d="M142.356 60.8362C142.084 60.9162 141.848 60.9122 141.648 60.8242C141.456 60.7282 141.324 60.5562 141.252 60.3082C141.18 60.0762 141.192 59.8642 141.288 59.6722C141.392 59.4722 141.568 59.3442 141.816 59.2882C141.928 59.2562 142.044 59.2242 142.164 59.1922C142.292 59.1522 142.42 59.1162 142.548 59.0842V55.9642H141.972C141.748 55.9642 141.568 55.8922 141.432 55.7482C141.304 55.6042 141.24 55.4322 141.24 55.2322C141.24 55.0242 141.304 54.8522 141.432 54.7162C141.568 54.5722 141.748 54.5002 141.972 54.5002H142.548V53.0602C142.548 52.8042 142.624 52.6042 142.776 52.4602C142.936 52.3082 143.128 52.2322 143.352 52.2322C143.576 52.2322 143.764 52.3082 143.916 52.4602C144.068 52.6042 144.144 52.8042 144.144 53.0602V54.5002H144.6C144.768 54.5002 144.912 54.5442 145.032 54.6322C145.152 54.7122 145.236 54.8202 145.284 54.9562C145.348 54.9322 145.416 54.9202 145.488 54.9202H146.532C146.492 54.8002 146.46 54.7162 146.436 54.6682C146.372 54.4682 146.388 54.2962 146.484 54.1522H145.812C145.612 54.1522 145.452 54.0882 145.332 53.9602C145.22 53.8322 145.164 53.6802 145.164 53.5042C145.164 53.3202 145.22 53.1682 145.332 53.0482C145.452 52.9202 145.612 52.8562 145.812 52.8562H147.672V52.5442C147.672 52.3042 147.748 52.1122 147.9 51.9682C148.06 51.8242 148.26 51.7522 148.5 51.7522C148.732 51.7522 148.932 51.8242 149.1 51.9682C149.276 52.1122 149.364 52.3042 149.364 52.5442V52.8562H151.5C151.708 52.8562 151.868 52.9202 151.98 53.0482C152.092 53.1682 152.148 53.3202 152.148 53.5042C152.148 53.6802 152.092 53.8322 151.98 53.9602C151.868 54.0882 151.708 54.1522 151.5 54.1522H150.636C150.732 54.3202 150.744 54.4922 150.672 54.6682C150.664 54.6922 150.652 54.7282 150.636 54.7762C150.62 54.8162 150.604 54.8642 150.588 54.9202H151.848C152.056 54.9202 152.22 54.9882 152.34 55.1242C152.46 55.2522 152.52 55.4082 152.52 55.5922C152.52 55.7762 152.46 55.9362 152.34 56.0722C152.22 56.2002 152.056 56.2642 151.848 56.2642H145.488C145.344 56.2642 145.22 56.2322 145.116 56.1682C145.02 56.0962 144.944 56.0082 144.888 55.9042C144.792 55.9442 144.696 55.9642 144.6 55.9642H144.144V58.5682C144.224 58.5442 144.296 58.5202 144.36 58.4962C144.432 58.4642 144.5 58.4402 144.564 58.4242C144.764 58.3442 144.944 58.3482 145.104 58.4362C145.272 58.5242 145.384 58.6602 145.44 58.8442C145.528 59.0682 145.524 59.2642 145.428 59.4322C145.34 59.5922 145.192 59.7202 144.984 59.8162C144.752 59.9282 144.476 60.0482 144.156 60.1762C143.836 60.3042 143.512 60.4282 143.184 60.5482C142.864 60.6602 142.588 60.7562 142.356 60.8362ZM144.492 63.0922C143.884 63.1642 143.544 62.9562 143.472 62.4682C143.44 62.2362 143.488 62.0442 143.616 61.8922C143.752 61.7322 143.952 61.6402 144.216 61.6162C144.824 61.5522 145.324 61.4082 145.716 61.1842C146.108 60.9602 146.4 60.6122 146.592 60.1402C146.224 60.0442 145.96 59.8642 145.8 59.6002C145.648 59.3362 145.572 58.9362 145.572 58.4002C145.572 57.9122 145.636 57.5362 145.764 57.2722C145.892 57.0082 146.104 56.8282 146.4 56.7322C146.696 56.6282 147.096 56.5762 147.6 56.5762H149.604C150.116 56.5762 150.516 56.6282 150.804 56.7322C151.1 56.8282 151.312 57.0082 151.44 57.2722C151.568 57.5362 151.632 57.9122 151.632 58.4002C151.632 59.0242 151.524 59.4682 151.308 59.7322C151.1 59.9882 150.736 60.1442 150.216 60.2002V61.0282C150.216 61.1802 150.252 61.2842 150.324 61.3402C150.404 61.3882 150.556 61.4122 150.78 61.4122C150.972 61.4122 151.108 61.3802 151.188 61.3162C151.268 61.2522 151.336 61.1402 151.392 60.9802C151.464 60.7962 151.596 60.6722 151.788 60.6082C151.98 60.5362 152.168 60.5322 152.352 60.5962C152.568 60.6682 152.724 60.7922 152.82 60.9682C152.916 61.1442 152.94 61.3402 152.892 61.5562C152.78 62.0362 152.564 62.3922 152.244 62.6242C151.924 62.8642 151.4 62.9842 150.672 62.9842C150.16 62.9842 149.752 62.9362 149.448 62.8402C149.144 62.7522 148.928 62.5842 148.8 62.3362C148.672 62.0962 148.608 61.7482 148.608 61.2922V60.2242H148.104C147.952 61.0722 147.552 61.7362 146.904 62.2162C146.264 62.6962 145.46 62.9882 144.492 63.0922ZM147.228 57.9322H149.976C149.952 57.7882 149.892 57.6962 149.796 57.6562C149.708 57.6162 149.552 57.5962 149.328 57.5962H147.888C147.664 57.5962 147.504 57.6162 147.408 57.6562C147.312 57.6962 147.252 57.7882 147.228 57.9322ZM147.888 59.2162H149.328C149.552 59.2162 149.708 59.1962 149.796 59.1562C149.892 59.1082 149.952 59.0162 149.976 58.8802H147.228C147.252 59.0162 147.312 59.1082 147.408 59.1562C147.504 59.1962 147.664 59.2162 147.888 59.2162ZM148.164 54.9202H148.956C148.98 54.8082 149.012 54.6882 149.052 54.5602C149.1 54.4242 149.132 54.3282 149.148 54.2722C149.156 54.2562 149.164 54.2362 149.172 54.2122C149.18 54.1882 149.188 54.1682 149.196 54.1522H147.912C147.936 54.1922 147.956 54.2322 147.972 54.2722C147.988 54.3282 148.016 54.4242 148.056 54.5602C148.096 54.6882 148.132 54.8082 148.164 54.9202Z" fill="#284877"/>
<path d="M130.44 61.2201C130.2 61.3001 129.976 61.2961 129.768 61.2081C129.568 61.1201 129.424 60.9601 129.336 60.7281C129.256 60.5121 129.264 60.3041 129.36 60.1041C129.464 59.9041 129.632 59.7681 129.864 59.6961C129.984 59.6561 130.108 59.6161 130.236 59.5761C130.372 59.5361 130.508 59.4921 130.644 59.4441V57.1881H130.152C129.952 57.1881 129.776 57.1161 129.624 56.9721C129.48 56.8201 129.408 56.6441 129.408 56.4441C129.408 56.2361 129.48 56.0601 129.624 55.9161C129.776 55.7641 129.952 55.6881 130.152 55.6881H130.644V53.9001H130.032C129.832 53.9001 129.66 53.8281 129.516 53.6841C129.38 53.5401 129.312 53.3681 129.312 53.1681C129.312 52.9681 129.38 52.7961 129.516 52.6521C129.66 52.5081 129.832 52.4361 130.032 52.4361H132.696C132.832 52.4361 132.96 52.4761 133.08 52.5561C133.2 52.6281 133.288 52.7241 133.344 52.8441C133.432 52.5241 133.612 52.2961 133.884 52.1601C134.164 52.0241 134.576 51.9561 135.12 51.9561H138.444C139.156 51.9561 139.644 52.0721 139.908 52.3041C140.172 52.5361 140.304 52.9281 140.304 53.4801C140.304 54.0321 140.172 54.4241 139.908 54.6561C139.644 54.8801 139.156 54.9921 138.444 54.9921H135.12C134.448 54.9921 133.976 54.8881 133.704 54.6801C133.432 54.4641 133.288 54.1081 133.272 53.6121C133.128 53.8041 132.936 53.9001 132.696 53.9001H132.288V55.6881H132.588C132.652 55.6881 132.712 55.6961 132.768 55.7121C132.824 55.7281 132.88 55.7481 132.936 55.7721C132.968 55.6361 133.04 55.5201 133.152 55.4241C133.264 55.3281 133.396 55.2801 133.548 55.2801H140.016C140.192 55.2801 140.34 55.3441 140.46 55.4721C140.588 55.5921 140.652 55.7401 140.652 55.9161C140.652 56.0921 140.588 56.2401 140.46 56.3601C140.34 56.4801 140.192 56.5401 140.016 56.5401H133.548C133.476 56.5401 133.404 56.5281 133.332 56.5041C133.324 56.6961 133.248 56.8601 133.104 56.9961C132.96 57.1241 132.788 57.1881 132.588 57.1881H132.288V58.8801C132.352 58.8641 132.408 58.8441 132.456 58.8201C132.512 58.7961 132.568 58.7761 132.624 58.7601C132.856 58.6721 133.056 58.6641 133.224 58.7361C133.392 58.8081 133.516 58.9481 133.596 59.1561C133.668 59.3561 133.668 59.5481 133.596 59.7321C133.532 59.9081 133.392 60.0401 133.176 60.1281C133.024 60.1921 132.832 60.2761 132.6 60.3801C132.368 60.4761 132.12 60.5761 131.856 60.6801C131.592 60.7841 131.336 60.8841 131.088 60.9801C130.84 61.0761 130.624 61.1561 130.44 61.2201ZM136.248 63.1641C136.016 63.1641 135.816 63.0881 135.648 62.9361C135.488 62.7841 135.408 62.5801 135.408 62.3241V60.8721C135.032 61.1521 134.624 61.4241 134.184 61.6881C133.752 61.9521 133.328 62.1761 132.912 62.3601C132.704 62.4481 132.492 62.4761 132.276 62.4441C132.068 62.4121 131.908 62.2881 131.796 62.0721C131.692 61.8641 131.672 61.6601 131.736 61.4601C131.808 61.2521 131.968 61.0921 132.216 60.9801C132.488 60.8521 132.788 60.7081 133.116 60.5481C133.444 60.3801 133.772 60.2041 134.1 60.0201C134.428 59.8361 134.728 59.6601 135 59.4921C134.528 59.4521 134.196 59.3361 134.004 59.1441C133.82 58.9441 133.728 58.6201 133.728 58.1721C133.728 57.6601 133.848 57.3081 134.088 57.1161C134.336 56.9241 134.776 56.8281 135.408 56.8281H138C138.64 56.8281 139.08 56.9241 139.32 57.1161C139.56 57.3081 139.68 57.6601 139.68 58.1721C139.68 58.6841 139.56 59.0361 139.32 59.2281C139.08 59.4121 138.64 59.5041 138 59.5041H137.568C137.68 59.6081 137.8 59.7161 137.928 59.8281C138.064 59.9321 138.2 60.0401 138.336 60.1521C138.456 60.0401 138.572 59.9281 138.684 59.8161C138.796 59.7041 138.872 59.6281 138.912 59.5881C139.056 59.4361 139.236 59.3601 139.452 59.3601C139.668 59.3521 139.852 59.4241 140.004 59.5761C140.188 59.7521 140.264 59.9521 140.232 60.1761C140.208 60.4001 140.12 60.5721 139.968 60.6921C139.936 60.7161 139.88 60.7601 139.8 60.8241C139.728 60.8801 139.648 60.9441 139.56 61.0161C139.688 61.0961 139.812 61.1761 139.932 61.2561C140.052 61.3281 140.168 61.3961 140.28 61.4601C140.488 61.5801 140.616 61.7441 140.664 61.9521C140.72 62.1601 140.692 62.3521 140.58 62.5281C140.46 62.7201 140.288 62.8321 140.064 62.8641C139.84 62.8961 139.624 62.8561 139.416 62.7441C139.032 62.5121 138.636 62.2361 138.228 61.9161C137.82 61.5881 137.44 61.2401 137.088 60.8721V62.3241C137.088 62.5801 137.004 62.7841 136.836 62.9361C136.676 63.0881 136.48 63.1641 136.248 63.1641ZM135.6 58.3881H137.808C137.92 58.3881 137.996 58.3721 138.036 58.3401C138.076 58.3081 138.096 58.2521 138.096 58.1721C138.096 58.0841 138.076 58.0281 138.036 58.0041C137.996 57.9721 137.92 57.9561 137.808 57.9561H135.6C135.496 57.9561 135.42 57.9721 135.372 58.0041C135.332 58.0281 135.312 58.0841 135.312 58.1721C135.312 58.2521 135.332 58.3081 135.372 58.3401C135.42 58.3721 135.496 58.3881 135.6 58.3881ZM136.512 53.7921H137.1V53.1681H136.512V53.7921ZM138.3 53.7921H138.516C138.756 53.7921 138.876 53.6881 138.876 53.4801C138.876 53.3601 138.844 53.2801 138.78 53.2401C138.724 53.1921 138.636 53.1681 138.516 53.1681H138.3V53.7921ZM135.048 53.7921H135.264V53.1681H135.048C134.928 53.1681 134.84 53.1921 134.784 53.2401C134.728 53.2801 134.7 53.3601 134.7 53.4801C134.7 53.6881 134.816 53.7921 135.048 53.7921Z" fill="#284877"/>
<path d="M122.856 62.744C122.36 62.72 121.924 62.616 121.548 62.432C121.18 62.256 120.896 62.008 120.696 61.688C120.496 61.368 120.408 60.996 120.432 60.572C120.456 60.212 120.564 59.896 120.756 59.624C120.948 59.352 121.208 59.144 121.536 59C121.872 58.848 122.252 58.792 122.676 58.832C123.34 58.88 123.82 59.084 124.116 59.444C124.412 59.804 124.524 60.24 124.452 60.752C124.676 60.6 124.836 60.408 124.932 60.176C125.036 59.936 125.088 59.664 125.088 59.36C125.088 59.112 125.008 58.868 124.848 58.628C124.696 58.388 124.476 58.192 124.188 58.04C123.908 57.88 123.572 57.8 123.18 57.8C122.796 57.792 122.372 57.9 121.908 58.124C121.444 58.348 120.952 58.724 120.432 59.252C120.248 59.444 120.012 59.544 119.724 59.552C119.444 59.552 119.216 59.448 119.04 59.24C118.888 59.056 118.816 58.844 118.824 58.604C118.84 58.356 118.944 58.16 119.136 58.016C119.616 57.656 120.104 57.268 120.6 56.852C121.096 56.436 121.568 56.028 122.016 55.628C122.464 55.22 122.856 54.852 123.192 54.524C123.32 54.404 123.364 54.292 123.324 54.188C123.284 54.084 123.16 54.048 122.952 54.08C122.672 54.12 122.384 54.16 122.088 54.2C121.792 54.24 121.492 54.28 121.188 54.32C120.948 54.352 120.728 54.296 120.528 54.152C120.336 54 120.22 53.8 120.18 53.552C120.148 53.312 120.204 53.096 120.348 52.904C120.5 52.704 120.7 52.588 120.948 52.556C121.148 52.524 121.388 52.496 121.668 52.472C121.956 52.448 122.244 52.424 122.532 52.4C122.82 52.376 123.064 52.36 123.264 52.352C123.8 52.312 124.24 52.392 124.584 52.592C124.928 52.784 125.164 53.044 125.292 53.372C125.42 53.7 125.432 54.052 125.328 54.428C125.232 54.804 125.004 55.156 124.644 55.484C124.54 55.588 124.396 55.72 124.212 55.88C124.036 56.04 123.836 56.216 123.612 56.408C124.196 56.392 124.732 56.5 125.22 56.732C125.716 56.956 126.116 57.296 126.42 57.752C126.724 58.2 126.876 58.756 126.876 59.42C126.876 60.18 126.704 60.816 126.36 61.328C126.016 61.832 125.54 62.204 124.932 62.444C124.332 62.684 123.64 62.784 122.856 62.744ZM122.544 61.1C122.648 61.108 122.796 61.108 122.988 61.1C123.084 60.908 123.104 60.736 123.048 60.584C122.992 60.424 122.86 60.328 122.652 60.296C122.492 60.264 122.356 60.28 122.244 60.344C122.132 60.408 122.068 60.5 122.052 60.62C122.036 60.764 122.072 60.872 122.16 60.944C122.256 61.016 122.384 61.068 122.544 61.1Z" fill="#284877"/>
<path d="M112.056 63.1641C111.176 63.2121 110.428 63.1561 109.812 62.9961C109.204 62.8441 108.72 62.6161 108.36 62.3121C108 62.0081 107.756 61.6521 107.628 61.2441C107.508 60.8281 107.488 60.3881 107.568 59.9241C107.656 59.4361 107.872 59.0361 108.216 58.7241C108.56 58.4041 108.996 58.1801 109.524 58.0521C110.052 57.9161 110.636 57.8881 111.276 57.9681C111.212 57.8561 111.148 57.7441 111.084 57.6321C111.02 57.5121 110.956 57.3921 110.892 57.2721C110.444 57.3441 109.992 57.4121 109.536 57.4761C109.088 57.5321 108.656 57.5801 108.24 57.6201C108 57.6441 107.788 57.5801 107.604 57.4281C107.428 57.2681 107.332 57.0681 107.316 56.8281C107.292 56.5881 107.356 56.3761 107.508 56.1921C107.668 56.0081 107.868 55.9081 108.108 55.8921C108.42 55.8681 108.744 55.8361 109.08 55.7961C109.424 55.7561 109.772 55.7081 110.124 55.6521C110.092 55.5641 110.056 55.4721 110.016 55.3761C109.984 55.2801 109.948 55.1881 109.908 55.1001C109.612 55.1481 109.324 55.1921 109.044 55.2321C108.772 55.2641 108.512 55.2961 108.264 55.3281C108.024 55.3521 107.808 55.2921 107.616 55.1481C107.432 54.9961 107.328 54.8001 107.304 54.5601C107.272 54.3281 107.332 54.1161 107.484 53.9241C107.636 53.7321 107.828 53.6241 108.06 53.6001C108.252 53.5841 108.456 53.5601 108.672 53.5281C108.896 53.4961 109.12 53.4641 109.344 53.4321C109.32 53.3361 109.292 53.2401 109.26 53.1441C109.236 53.0481 109.212 52.9521 109.188 52.8561C109.132 52.6241 109.164 52.4001 109.284 52.1841C109.412 51.9681 109.596 51.8321 109.836 51.7761C110.076 51.7121 110.3 51.7441 110.508 51.8721C110.724 51.9921 110.86 52.1721 110.916 52.4121C110.948 52.5321 110.98 52.6521 111.012 52.7721C111.044 52.8921 111.076 53.0121 111.108 53.1321C111.332 53.0841 111.548 53.0401 111.756 53.0001C111.972 52.9521 112.172 52.9081 112.356 52.8681C112.588 52.8121 112.804 52.8481 113.004 52.9761C113.212 53.1041 113.344 53.2841 113.4 53.5161C113.456 53.7481 113.42 53.9641 113.292 54.1641C113.164 54.3641 112.984 54.4961 112.752 54.5601C112.576 54.5921 112.396 54.6281 112.212 54.6681C112.028 54.7081 111.84 54.7481 111.648 54.7881C111.704 54.9641 111.776 55.1481 111.864 55.3401C112.168 55.2761 112.464 55.2121 112.752 55.1481C113.048 55.0761 113.32 55.0081 113.568 54.9441C113.8 54.8801 114.016 54.9161 114.216 55.0521C114.424 55.1801 114.556 55.3601 114.612 55.5921C114.668 55.8241 114.632 56.0401 114.504 56.2401C114.376 56.4401 114.196 56.5721 113.964 56.6361C113.764 56.6921 113.552 56.7481 113.328 56.8041C113.104 56.8521 112.868 56.9001 112.62 56.9481C112.804 57.2681 112.992 57.5641 113.184 57.8361C113.384 58.1081 113.588 58.3441 113.796 58.5441C113.956 58.6881 114.048 58.8681 114.072 59.0841C114.096 59.2921 114.052 59.4881 113.94 59.6721C113.828 59.8481 113.672 59.9721 113.472 60.0441C113.272 60.1161 113.072 60.1121 112.872 60.0321C112.2 59.7361 111.596 59.5681 111.06 59.5281C110.532 59.4881 110.108 59.5361 109.788 59.6721C109.476 59.8001 109.304 59.9881 109.272 60.2361C109.224 60.6521 109.404 60.9601 109.812 61.1601C110.228 61.3601 110.944 61.4361 111.96 61.3881C112.208 61.3721 112.424 61.4481 112.608 61.6161C112.792 61.7761 112.888 61.9841 112.896 62.2401C112.912 62.4881 112.836 62.7001 112.668 62.8761C112.508 63.0521 112.304 63.1481 112.056 63.1641Z" fill="#284877"/>
<path d="M102.024 62.5521C101.048 62.4161 100.24 62.1321 99.6 61.7001C98.96 61.2681 98.484 60.7521 98.172 60.1521C97.86 59.5441 97.704 58.9041 97.704 58.2321C97.704 57.6401 97.8 57.0961 97.992 56.6001C98.192 56.1041 98.476 55.6561 98.844 55.2561C98.324 55.3441 97.816 55.4321 97.32 55.5201C96.824 55.6081 96.368 55.6881 95.952 55.7601C95.536 55.8321 95.188 55.8921 94.908 55.9401C94.668 55.9801 94.448 55.9281 94.248 55.7841C94.056 55.6321 93.94 55.4361 93.9 55.1961C93.868 54.9481 93.92 54.7241 94.056 54.5241C94.2 54.3241 94.396 54.2081 94.644 54.1761C94.988 54.1281 95.424 54.0641 95.952 53.9841C96.488 53.8961 97.06 53.8041 97.668 53.7081C98.284 53.6041 98.896 53.5041 99.504 53.4081C100.112 53.3041 100.672 53.2081 101.184 53.1201C101.696 53.0241 102.108 52.9441 102.42 52.8801C102.652 52.8321 102.868 52.8801 103.068 53.0241C103.268 53.1601 103.392 53.3441 103.44 53.5761C103.488 53.8081 103.448 54.0281 103.32 54.2361C103.2 54.4441 103.02 54.5681 102.78 54.6081C102.244 54.6801 101.772 54.8321 101.364 55.0641C100.956 55.2961 100.612 55.5801 100.332 55.9161C100.052 56.2521 99.84 56.6121 99.696 56.9961C99.552 57.3801 99.48 57.7601 99.48 58.1361C99.48 58.8481 99.724 59.4361 100.212 59.9001C100.7 60.3641 101.388 60.6601 102.276 60.7881C102.524 60.8201 102.72 60.9361 102.864 61.1361C103.016 61.3361 103.072 61.5561 103.032 61.7961C103 62.0441 102.884 62.2401 102.684 62.3841C102.492 62.5281 102.272 62.5841 102.024 62.5521ZM104.664 56.6241C104.544 56.7361 104.396 56.7881 104.22 56.7801C104.052 56.7721 103.912 56.7001 103.8 56.5641C103.72 56.4761 103.604 56.3401 103.452 56.1561C103.3 55.9721 103.168 55.8161 103.056 55.6881C102.984 55.6001 102.952 55.4801 102.96 55.3281C102.968 55.1761 103.032 55.0481 103.152 54.9441C103.248 54.8561 103.368 54.8081 103.512 54.8001C103.656 54.7921 103.784 54.8321 103.896 54.9201C104.024 55.0241 104.168 55.1561 104.328 55.3161C104.496 55.4761 104.632 55.6281 104.736 55.7721C104.84 55.9001 104.884 56.0441 104.868 56.2041C104.86 56.3641 104.792 56.5041 104.664 56.6241ZM103.344 57.6801C103.216 57.7761 103.068 57.8121 102.9 57.7881C102.732 57.7641 102.6 57.6801 102.504 57.5361C102.44 57.4321 102.336 57.2841 102.192 57.0921C102.056 56.8921 101.94 56.7241 101.844 56.5881C101.78 56.4921 101.76 56.3721 101.784 56.2281C101.808 56.0761 101.884 55.9521 102.012 55.8561C102.116 55.7761 102.24 55.7401 102.384 55.7481C102.528 55.7561 102.652 55.8081 102.756 55.9041C102.876 56.0161 103.008 56.1641 103.152 56.3481C103.304 56.5241 103.424 56.6881 103.512 56.8401C103.6 56.9841 103.628 57.1321 103.596 57.2841C103.572 57.4361 103.488 57.5681 103.344 57.6801Z" fill="#284877"/>
<path d="M90.3719 63.0081C90.0839 63.0081 89.8599 62.9321 89.6999 62.7801C89.5399 62.6361 89.4479 62.4361 89.4239 62.1801C89.3919 61.9481 89.4439 61.7441 89.5799 61.5681C89.7159 61.3921 89.8999 61.2841 90.1319 61.2441C90.3559 61.2041 90.4919 61.1481 90.5399 61.0761C90.5879 61.0041 90.6119 60.8801 90.6119 60.7041V56.3001H89.3279C88.8479 56.3001 88.4599 56.2521 88.1639 56.1561C87.8679 56.0601 87.6479 55.8921 87.5039 55.6521C87.3679 55.4041 87.2999 55.0561 87.2999 54.6081V53.9601C87.2999 53.2881 87.4559 52.8121 87.7679 52.5321C88.0879 52.2521 88.6079 52.1121 89.3279 52.1121H90.2519C90.9719 52.1121 91.4879 52.2521 91.7999 52.5321C92.1199 52.8121 92.2799 53.2881 92.2799 53.9601V61.1841C92.2799 61.8161 92.1279 62.2761 91.8239 62.5641C91.5199 62.8601 91.0359 63.0081 90.3719 63.0081ZM82.5959 63.0681C82.3639 63.0681 82.1639 62.9921 81.9959 62.8401C81.8359 62.6881 81.7559 62.4841 81.7559 62.2281V53.9481C81.7559 53.2761 81.9119 52.8041 82.2239 52.5321C82.5359 52.2521 83.0519 52.1121 83.7719 52.1121H84.6719C85.3919 52.1121 85.9079 52.2521 86.2199 52.5321C86.5319 52.8041 86.6879 53.2761 86.6879 53.9481V54.6081C86.6879 55.0561 86.6199 55.4041 86.4839 55.6521C86.3479 55.8921 86.1319 56.0601 85.8359 56.1561C85.5399 56.2521 85.1519 56.3001 84.6719 56.3001H83.4239V62.2281C83.4239 62.4841 83.3439 62.6881 83.1839 62.8401C83.0239 62.9921 82.8279 63.0681 82.5959 63.0681ZM86.9279 61.1241C86.3199 61.1241 85.8439 61.0561 85.4999 60.9201C85.1559 60.7841 84.9119 60.5681 84.7679 60.2721C84.6319 59.9761 84.5639 59.5921 84.5639 59.1201C84.5639 58.6481 84.6319 58.2681 84.7679 57.9801C84.9119 57.6841 85.1559 57.4681 85.4999 57.3321C85.8439 57.1961 86.3199 57.1281 86.9279 57.1281C87.5359 57.1281 88.0119 57.1961 88.3559 57.3321C88.6999 57.4681 88.9399 57.6841 89.0759 57.9801C89.2199 58.2681 89.2919 58.6481 89.2919 59.1201C89.2919 59.5921 89.2199 59.9761 89.0759 60.2721C88.9399 60.5681 88.6999 60.7841 88.3559 60.9201C88.0119 61.0561 87.5359 61.1241 86.9279 61.1241ZM86.9279 59.7681C87.1999 59.7681 87.3839 59.7281 87.4799 59.6481C87.5759 59.5681 87.6239 59.3961 87.6239 59.1321C87.6239 58.8601 87.5759 58.6841 87.4799 58.6041C87.3839 58.5241 87.1999 58.4841 86.9279 58.4841C86.6559 58.4841 86.4719 58.5241 86.3759 58.6041C86.2799 58.6841 86.2319 58.8601 86.2319 59.1321C86.2319 59.3961 86.2799 59.5681 86.3759 59.6481C86.4719 59.7281 86.6559 59.7681 86.9279 59.7681ZM89.5199 55.0641H90.6119V54.6681H88.9199C88.9359 54.8441 88.9839 54.9561 89.0639 55.0041C89.1439 55.0441 89.2959 55.0641 89.5199 55.0641ZM83.4239 55.0641H84.4799C84.7119 55.0641 84.8679 55.0441 84.9479 55.0041C85.0279 54.9561 85.0719 54.8441 85.0799 54.6681H83.4239V55.0641ZM83.4359 53.7201H85.0679C85.0599 53.5601 85.0159 53.4561 84.9359 53.4081C84.8559 53.3601 84.7039 53.3361 84.4799 53.3361H84.0239C83.7999 53.3361 83.6479 53.3601 83.5679 53.4081C83.4959 53.4561 83.4519 53.5601 83.4359 53.7201ZM88.9199 53.7201H90.5999C90.5919 53.5601 90.5439 53.4601 90.4559 53.4201C90.3759 53.3721 90.2279 53.3481 90.0119 53.3481H89.5199C89.2959 53.3481 89.1439 53.3721 89.0639 53.4201C88.9839 53.4601 88.9359 53.5601 88.9199 53.7201Z" fill="#284877"/>
<path d="M71.148 63.0442C70.884 63.1162 70.656 63.1082 70.464 63.0202C70.272 62.9322 70.144 62.7882 70.08 62.5882C70.016 62.3802 70.02 62.1842 70.092 62.0002C70.172 61.8162 70.332 61.6962 70.572 61.6402C70.828 61.5762 71.136 61.4882 71.496 61.3762C71.864 61.2642 72.2 61.1482 72.504 61.0282C72 60.9722 71.644 60.8162 71.436 60.5602C71.236 60.3042 71.136 59.8922 71.136 59.3242V57.8362C71.136 57.3882 71.196 57.0402 71.316 56.7922C71.444 56.5362 71.652 56.3562 71.94 56.2522C72.228 56.1482 72.616 56.0962 73.104 56.0962H74.688C74.536 55.9842 74.452 55.8322 74.436 55.6402C74.428 55.4482 74.488 55.2882 74.616 55.1602C74.84 54.9042 75.004 54.6362 75.108 54.3562C75.22 54.0762 75.288 53.7482 75.312 53.3722C75.336 52.9882 75.452 52.7002 75.66 52.5082C75.868 52.3162 76.172 52.2042 76.572 52.1722C76.796 52.1562 77.044 52.1322 77.316 52.1002C77.588 52.0602 77.86 52.0162 78.132 51.9682C78.412 51.9202 78.66 51.8762 78.876 51.8362C79.076 51.7962 79.256 51.8162 79.416 51.8962C79.584 51.9762 79.684 52.1082 79.716 52.2922C79.756 52.4922 79.732 52.6682 79.644 52.8202C79.564 52.9642 79.42 53.0562 79.212 53.0962C78.94 53.1522 78.624 53.2042 78.264 53.2522C77.912 53.2922 77.612 53.3202 77.364 53.3362C77.22 53.3522 77.112 53.3802 77.04 53.4202C76.968 53.4602 76.912 53.5242 76.872 53.6122H79.956C80.148 53.6122 80.296 53.6722 80.4 53.7922C80.504 53.9042 80.556 54.0442 80.556 54.2122C80.556 54.3802 80.504 54.5242 80.4 54.6442C80.296 54.7562 80.148 54.8122 79.956 54.8122H78.9V55.3402C78.9 55.5882 78.82 55.7802 78.66 55.9162C78.508 56.0522 78.32 56.1202 78.096 56.1202C77.872 56.1202 77.68 56.0522 77.52 55.9162C77.368 55.7802 77.292 55.5882 77.292 55.3402V54.8122H76.608C76.52 55.0602 76.412 55.2882 76.284 55.4962C76.164 55.6962 76.028 55.8762 75.876 56.0362C75.868 56.0442 75.86 56.0562 75.852 56.0722C75.844 56.0802 75.832 56.0882 75.816 56.0962H76.956C77.452 56.0962 77.84 56.1482 78.12 56.2522C78.408 56.3562 78.612 56.5362 78.732 56.7922C78.86 57.0402 78.924 57.3882 78.924 57.8362V59.3242C78.924 59.8922 78.82 60.3042 78.612 60.5602C78.412 60.8162 78.06 60.9722 77.556 61.0282C77.86 61.1482 78.192 61.2642 78.552 61.3762C78.92 61.4882 79.228 61.5762 79.476 61.6402C79.724 61.6962 79.884 61.8162 79.956 62.0002C80.036 62.1842 80.044 62.3802 79.98 62.5882C79.916 62.7882 79.788 62.9322 79.596 63.0202C79.404 63.1082 79.176 63.1162 78.912 63.0442C78.664 62.9722 78.38 62.8762 78.06 62.7562C77.748 62.6442 77.444 62.5242 77.148 62.3962C76.852 62.2682 76.6 62.1562 76.392 62.0602C76.184 61.9562 76.06 61.8202 76.02 61.6522C75.988 61.4762 76.016 61.3002 76.104 61.1242L76.14 61.0522H73.92L73.956 61.1242C74.044 61.3002 74.068 61.4762 74.028 61.6522C73.996 61.8202 73.876 61.9562 73.668 62.0602C73.468 62.1562 73.216 62.2682 72.912 62.3962C72.616 62.5242 72.308 62.6442 71.988 62.7562C71.676 62.8762 71.396 62.9722 71.148 63.0442ZM69.504 56.7802C69.344 56.6682 69.244 56.5122 69.204 56.3122C69.172 56.1122 69.216 55.9362 69.336 55.7842C69.616 55.4082 69.828 55.0362 69.972 54.6682C70.124 54.2922 70.22 53.8762 70.26 53.4202C70.3 53.0042 70.424 52.7002 70.632 52.5082C70.84 52.3162 71.164 52.2002 71.604 52.1602C71.924 52.1362 72.272 52.0962 72.648 52.0402C73.024 51.9762 73.348 51.9162 73.62 51.8602C73.812 51.8202 73.988 51.8482 74.148 51.9442C74.308 52.0322 74.404 52.1682 74.436 52.3522C74.476 52.5362 74.448 52.7002 74.352 52.8442C74.264 52.9882 74.128 53.0802 73.944 53.1202C73.72 53.1602 73.456 53.2042 73.152 53.2522C72.848 53.2922 72.572 53.3202 72.324 53.3362C72.06 53.3602 71.896 53.4522 71.832 53.6122H74.412C74.604 53.6122 74.752 53.6722 74.856 53.7922C74.96 53.9042 75.012 54.0442 75.012 54.2122C75.012 54.3802 74.96 54.5242 74.856 54.6442C74.752 54.7562 74.604 54.8122 74.412 54.8122H73.788V55.2442C73.788 55.4922 73.708 55.6882 73.548 55.8322C73.396 55.9682 73.208 56.0362 72.984 56.0362C72.76 56.0362 72.568 55.9682 72.408 55.8322C72.256 55.6882 72.18 55.4922 72.18 55.2442V54.8122H71.58C71.476 55.1562 71.34 55.4842 71.172 55.7962C71.012 56.1002 70.84 56.3602 70.656 56.5762C70.504 56.7522 70.324 56.8642 70.116 56.9122C69.908 56.9522 69.704 56.9082 69.504 56.7802ZM73.5 59.9602H76.56C76.792 59.9602 76.948 59.9402 77.028 59.9002C77.116 59.8602 77.164 59.7642 77.172 59.6122H72.876C72.892 59.7642 72.944 59.8602 73.032 59.9002C73.12 59.9402 73.276 59.9602 73.5 59.9602ZM72.888 57.5362H77.172C77.156 57.3842 77.104 57.2922 77.016 57.2602C76.936 57.2202 76.784 57.2002 76.56 57.2002H73.5C73.276 57.2002 73.12 57.2202 73.032 57.2602C72.952 57.2922 72.904 57.3842 72.888 57.5362ZM72.876 58.7482H77.184V58.4362H72.876V58.7482Z" fill="#284877"/>
<path d="M167.688 45.396C167.448 45.436 167.224 45.384 167.016 45.24C166.816 45.104 166.696 44.916 166.656 44.676C166.576 44.26 166.516 43.78 166.476 43.236C166.444 42.692 166.424 42.12 166.416 41.52C166.416 40.912 166.432 40.3 166.464 39.684C166.496 39.068 166.544 38.48 166.608 37.92C166.68 37.36 166.764 36.856 166.86 36.408C166.916 36.16 167.048 35.972 167.256 35.844C167.464 35.708 167.688 35.668 167.928 35.724C168.168 35.78 168.356 35.912 168.492 36.12C168.628 36.32 168.668 36.544 168.612 36.792C168.492 37.352 168.396 37.964 168.324 38.628C168.252 39.284 168.204 39.952 168.18 40.632C168.164 41.312 168.172 41.972 168.204 42.612C168.244 43.252 168.312 43.832 168.408 44.352C168.448 44.6 168.4 44.824 168.264 45.024C168.128 45.224 167.936 45.348 167.688 45.396ZM172.584 44.784C171.536 44.784 170.748 44.604 170.22 44.244C169.692 43.876 169.356 43.292 169.212 42.492C169.172 42.244 169.22 42.02 169.356 41.82C169.5 41.612 169.696 41.488 169.944 41.448C170.184 41.408 170.404 41.46 170.604 41.604C170.804 41.74 170.928 41.932 170.976 42.18C171.032 42.452 171.176 42.66 171.408 42.804C171.64 42.948 172.056 43.02 172.656 43.02C172.96 43.02 173.28 42.996 173.616 42.948C173.952 42.9 174.332 42.832 174.756 42.744C174.996 42.688 175.216 42.728 175.416 42.864C175.624 43 175.756 43.192 175.812 43.44C175.86 43.68 175.816 43.9 175.68 44.1C175.544 44.3 175.356 44.432 175.116 44.496C174.668 44.6 174.224 44.676 173.784 44.724C173.352 44.764 172.952 44.784 172.584 44.784ZM170.472 38.784C170.232 38.824 170.008 38.776 169.8 38.64C169.6 38.504 169.476 38.316 169.428 38.076C169.38 37.836 169.424 37.612 169.56 37.404C169.696 37.196 169.884 37.072 170.124 37.032C170.612 36.936 171.132 36.872 171.684 36.84C172.236 36.808 172.78 36.804 173.316 36.828C173.852 36.852 174.336 36.9 174.768 36.972C175.008 37.004 175.196 37.124 175.332 37.332C175.468 37.54 175.516 37.764 175.476 38.004C175.436 38.26 175.312 38.456 175.104 38.592C174.904 38.72 174.684 38.764 174.444 38.724C173.828 38.62 173.172 38.572 172.476 38.58C171.78 38.588 171.112 38.656 170.472 38.784Z" fill="#284877"/>
<path d="M156.144 46.1522C155.944 46.1522 155.768 46.0802 155.616 45.9362C155.472 45.8002 155.4 45.6322 155.4 45.4322V44.1002H153.996C153.796 44.1002 153.628 44.0322 153.492 43.8962C153.356 43.7602 153.288 43.5962 153.288 43.4042C153.288 43.2042 153.356 43.0362 153.492 42.9002C153.628 42.7642 153.796 42.6962 153.996 42.6962H155.4V42.2162C154.744 42.1842 154.288 42.0322 154.032 41.7602C153.776 41.4802 153.648 41.0122 153.648 40.3562V39.5882C153.648 38.9242 153.776 38.4602 154.032 38.1962C154.288 37.9242 154.744 37.7762 155.4 37.7522V37.3322H153.996C153.812 37.3322 153.652 37.2682 153.516 37.1402C153.388 37.0122 153.324 36.8562 153.324 36.6722C153.324 36.4882 153.388 36.3322 153.516 36.2042C153.652 36.0682 153.812 36.0002 153.996 36.0002H155.4V35.4962C155.4 35.2642 155.472 35.0842 155.616 34.9562C155.768 34.8202 155.944 34.7522 156.144 34.7522C156.352 34.7522 156.528 34.8202 156.672 34.9562C156.816 35.0842 156.888 35.2642 156.888 35.4962V36.0002H158.064C158.2 36.0002 158.336 36.0482 158.472 36.1442C158.464 36.1202 158.46 36.0802 158.46 36.0242C158.46 35.8402 158.524 35.6802 158.652 35.5442C158.788 35.4082 158.948 35.3402 159.132 35.3402H162.024C162.616 35.3402 163.068 35.4522 163.38 35.6762C163.692 35.9002 163.856 36.2002 163.872 36.5762C163.888 36.9442 163.74 37.3442 163.428 37.7762C163.332 37.9202 163.228 38.0602 163.116 38.1962C163.004 38.3322 162.884 38.4682 162.756 38.6042C163.124 38.8122 163.536 38.9922 163.992 39.1442C164.232 39.2242 164.396 39.3762 164.484 39.6002C164.58 39.8162 164.58 40.0282 164.484 40.2362C164.38 40.4682 164.216 40.6202 163.992 40.6922C163.768 40.7562 163.524 40.7402 163.26 40.6442C162.916 40.5082 162.592 40.3602 162.288 40.2002C161.992 40.0402 161.716 39.8682 161.46 39.6842C160.908 40.0522 160.296 40.3602 159.624 40.6082C159.432 40.6802 159.248 40.7002 159.072 40.6682C158.904 40.6282 158.764 40.5442 158.652 40.4162C158.644 41.0562 158.512 41.5082 158.256 41.7722C158 42.0362 157.544 42.1842 156.888 42.2162V42.6962H158.172C158.372 42.6962 158.54 42.7642 158.676 42.9002C158.812 43.0362 158.88 43.2042 158.88 43.4042C158.88 43.5962 158.812 43.7602 158.676 43.8962C158.54 44.0322 158.372 44.1002 158.172 44.1002H156.888V45.4082C156.888 45.6322 156.816 45.8122 156.672 45.9482C156.528 46.0842 156.352 46.1522 156.144 46.1522ZM158.724 45.6722C158.524 45.6722 158.352 45.6002 158.208 45.4562C158.064 45.3122 157.992 45.1402 157.992 44.9402C157.992 44.7322 158.064 44.5602 158.208 44.4242C158.352 44.2802 158.524 44.2082 158.724 44.2082H160.632V43.0322H159.48C159.272 43.0322 159.092 42.9602 158.94 42.8162C158.796 42.6642 158.724 42.4842 158.724 42.2762C158.724 42.0682 158.796 41.8922 158.94 41.7482C159.092 41.6042 159.272 41.5322 159.48 41.5322H160.632V40.8722C160.632 40.6242 160.708 40.4322 160.86 40.2962C161.02 40.1522 161.208 40.0802 161.424 40.0802C161.648 40.0802 161.836 40.1522 161.988 40.2962C162.148 40.4322 162.228 40.6242 162.228 40.8722V41.5322H163.536C163.744 41.5322 163.92 41.6042 164.064 41.7482C164.208 41.8922 164.28 42.0682 164.28 42.2762C164.28 42.4842 164.208 42.6642 164.064 42.8162C163.92 42.9602 163.744 43.0322 163.536 43.0322H162.228V44.2082H164.004C164.204 44.2082 164.376 44.2802 164.52 44.4242C164.664 44.5602 164.736 44.7322 164.736 44.9402C164.736 45.1402 164.664 45.3122 164.52 45.4562C164.376 45.6002 164.204 45.6722 164.004 45.6722H158.724ZM158.652 39.3962C158.74 39.2922 158.872 39.2082 159.048 39.1442C159.256 39.0802 159.464 39.0002 159.672 38.9042C159.88 38.8002 160.084 38.6922 160.284 38.5802C160.068 38.3002 159.872 38.0042 159.696 37.6922C159.528 37.3802 159.384 37.0522 159.264 36.7082H159.132C158.98 36.7082 158.84 36.6562 158.712 36.5522C158.72 36.5682 158.724 36.5882 158.724 36.6122C158.724 36.6362 158.724 36.6562 158.724 36.6722C158.724 36.8562 158.66 37.0122 158.532 37.1402C158.404 37.2682 158.248 37.3322 158.064 37.3322H156.888V37.7522C157.52 37.7762 157.964 37.9082 158.22 38.1482C158.484 38.3882 158.628 38.8042 158.652 39.3962ZM161.532 37.6322C161.612 37.5522 161.684 37.4762 161.748 37.4042C161.812 37.3242 161.872 37.2482 161.928 37.1762C162.04 37.0002 162.072 36.8802 162.024 36.8162C161.984 36.7442 161.868 36.7082 161.676 36.7082H160.884C161.06 37.0522 161.276 37.3602 161.532 37.6322ZM156.888 40.9682C157.072 40.9522 157.196 40.9082 157.26 40.8362C157.324 40.7642 157.36 40.6362 157.368 40.4522H156.888V40.9682ZM155.4 40.9682V40.4522H154.932C154.94 40.6362 154.972 40.7642 155.028 40.8362C155.092 40.9082 155.216 40.9522 155.4 40.9682ZM156.888 39.4562H157.356C157.348 39.2802 157.312 39.1562 157.248 39.0842C157.192 39.0122 157.072 38.9682 156.888 38.9522V39.4562ZM154.932 39.4562H155.4V38.9522C155.224 38.9682 155.104 39.0162 155.04 39.0962C154.984 39.1682 154.948 39.2882 154.932 39.4562Z" fill="#284877"/>
<path d="M143.316 45.816C142.66 46.064 142.216 45.948 141.984 45.468C141.864 45.22 141.856 44.988 141.96 44.772C142.064 44.556 142.252 44.396 142.524 44.292C142.852 44.172 143.172 44.028 143.484 43.86C143.804 43.692 144.108 43.508 144.396 43.308C144.22 43.172 144.044 43.044 143.868 42.924C143.7 42.804 143.536 42.696 143.376 42.6C143.176 42.48 143.052 42.308 143.004 42.084C142.964 41.86 142.996 41.672 143.1 41.52C143.236 41.32 143.412 41.192 143.628 41.136C143.844 41.08 144.052 41.112 144.252 41.232C144.476 41.36 144.712 41.508 144.96 41.676C145.216 41.844 145.472 42.02 145.728 42.204C146.072 41.876 146.38 41.524 146.652 41.148C146.732 41.036 146.832 40.944 146.952 40.872H142.86C142.66 40.872 142.488 40.804 142.344 40.668C142.208 40.524 142.14 40.356 142.14 40.164C142.14 39.964 142.208 39.796 142.344 39.66C142.488 39.524 142.66 39.456 142.86 39.456H148.428C149.028 39.456 149.492 39.52 149.82 39.648C150.156 39.776 150.388 39.992 150.516 40.296C150.644 40.592 150.696 41 150.672 41.52C150.656 41.928 150.672 42.34 150.72 42.756C150.768 43.172 150.84 43.52 150.936 43.8C150.968 43.896 151.016 43.952 151.08 43.968C151.152 43.976 151.22 43.916 151.284 43.788C151.308 43.732 151.332 43.68 151.356 43.632C151.38 43.576 151.4 43.528 151.416 43.488C151.512 43.28 151.664 43.144 151.872 43.08C152.088 43.016 152.296 43.032 152.496 43.128C152.728 43.232 152.868 43.384 152.916 43.584C152.964 43.784 152.94 43.988 152.844 44.196C152.764 44.372 152.66 44.576 152.532 44.808C152.404 45.032 152.28 45.224 152.16 45.384C151.912 45.728 151.64 45.948 151.344 46.044C151.048 46.14 150.76 46.12 150.48 45.984C150.2 45.848 149.956 45.604 149.748 45.252C149.588 44.956 149.452 44.604 149.34 44.196C149.236 43.788 149.156 43.352 149.1 42.888C149.052 42.416 149.028 41.952 149.028 41.496C149.028 41.256 148.98 41.092 148.884 41.004C148.788 40.916 148.62 40.872 148.38 40.872H147.84C147.848 40.88 147.856 40.884 147.864 40.884C147.872 40.884 147.88 40.888 147.888 40.896C148.088 41.032 148.2 41.22 148.224 41.46C148.256 41.692 148.192 41.912 148.032 42.12C147.904 42.296 147.752 42.48 147.576 42.672C147.408 42.864 147.232 43.052 147.048 43.236C147.248 43.404 147.436 43.572 147.612 43.74C147.796 43.9 147.956 44.056 148.092 44.208C148.276 44.384 148.36 44.596 148.344 44.844C148.336 45.092 148.232 45.304 148.032 45.48C147.848 45.648 147.632 45.72 147.384 45.696C147.136 45.672 146.924 45.572 146.748 45.396C146.46 45.084 146.116 44.752 145.716 44.4C145.324 44.696 144.924 44.964 144.516 45.204C144.108 45.452 143.708 45.656 143.316 45.816ZM141.696 39.048C141.512 38.904 141.408 38.716 141.384 38.484C141.36 38.252 141.42 38.048 141.564 37.872C141.764 37.64 141.968 37.36 142.176 37.032C142.392 36.704 142.592 36.376 142.776 36.048C142.968 35.712 143.128 35.416 143.256 35.16C143.368 34.92 143.532 34.764 143.748 34.692C143.972 34.612 144.196 34.62 144.42 34.716C144.628 34.804 144.772 34.948 144.852 35.148C144.932 35.34 144.916 35.552 144.804 35.784L144.78 35.844H151.212C151.396 35.844 151.552 35.908 151.68 36.036C151.816 36.164 151.884 36.32 151.884 36.504C151.884 36.688 151.816 36.848 151.68 36.984C151.552 37.112 151.396 37.176 151.212 37.176H144.06C143.884 37.496 143.7 37.8 143.508 38.088C143.324 38.376 143.156 38.612 143.004 38.796C142.836 39.004 142.632 39.144 142.392 39.216C142.16 39.28 141.928 39.224 141.696 39.048ZM144.816 38.964C144.624 38.964 144.46 38.896 144.324 38.76C144.196 38.624 144.132 38.464 144.132 38.28C144.132 38.096 144.196 37.94 144.324 37.812C144.46 37.676 144.624 37.608 144.816 37.608H150.036C150.22 37.608 150.38 37.676 150.516 37.812C150.652 37.94 150.72 38.096 150.72 38.28C150.72 38.464 150.652 38.624 150.516 38.76C150.38 38.896 150.22 38.964 150.036 38.964H144.816Z" fill="#284877"/>
<path d="M135.6 45.8402C134.968 45.8402 134.408 45.7242 133.92 45.4922C133.44 45.2682 133.06 44.9282 132.78 44.4722C132.508 44.0082 132.372 43.4322 132.372 42.7442C132.372 42.5522 132.408 42.2482 132.48 41.8322C132.28 41.7922 132.092 41.7522 131.916 41.7122C131.74 41.6642 131.572 41.6202 131.412 41.5802C131.188 41.5162 131.016 41.3762 130.896 41.1602C130.784 40.9442 130.764 40.7202 130.836 40.4882C130.9 40.2562 131.04 40.0842 131.256 39.9722C131.472 39.8602 131.696 39.8402 131.928 39.9122C132.032 39.9442 132.156 39.9762 132.3 40.0082C132.444 40.0402 132.604 40.0722 132.78 40.1042C132.812 39.9202 132.844 39.7362 132.876 39.5522C132.916 39.3682 132.952 39.1842 132.984 39.0002C132.792 38.9602 132.616 38.9242 132.456 38.8922C132.296 38.8522 132.168 38.8202 132.072 38.7962C131.84 38.7322 131.664 38.5962 131.544 38.3882C131.432 38.1722 131.408 37.9482 131.472 37.7162C131.536 37.4842 131.672 37.3122 131.88 37.2002C132.096 37.0802 132.32 37.0522 132.552 37.1162C132.624 37.1322 132.724 37.1562 132.852 37.1882C132.988 37.2122 133.14 37.2402 133.308 37.2722C133.372 36.9522 133.424 36.6642 133.464 36.4082C133.512 36.1442 133.544 35.9282 133.56 35.7602C133.592 35.5122 133.708 35.3202 133.908 35.1842C134.116 35.0402 134.344 34.9882 134.592 35.0282C134.832 35.0602 135.024 35.1802 135.168 35.3882C135.312 35.5882 135.364 35.8082 135.324 36.0482C135.3 36.2322 135.264 36.4562 135.216 36.7202C135.168 36.9842 135.112 37.2762 135.048 37.5962C135.216 37.6202 135.364 37.6442 135.492 37.6682C135.732 37.7002 135.928 37.8122 136.08 38.0042C136.232 38.1882 136.292 38.4002 136.26 38.6402C136.228 38.8802 136.116 39.0762 135.924 39.2282C135.732 39.3722 135.516 39.4282 135.276 39.3962C135.204 39.3882 135.12 39.3762 135.024 39.3602C134.928 39.3442 134.824 39.3282 134.712 39.3122C134.68 39.4882 134.644 39.6682 134.604 39.8522C134.572 40.0282 134.54 40.2002 134.508 40.3682C134.62 40.3762 134.732 40.3882 134.844 40.4042C134.964 40.4122 135.076 40.4202 135.18 40.4282C135.428 40.4442 135.632 40.5442 135.792 40.7282C135.952 40.9042 136.024 41.1122 136.008 41.3522C136 41.5922 135.904 41.7922 135.72 41.9522C135.544 42.1122 135.336 42.1882 135.096 42.1802C134.952 42.1722 134.804 42.1602 134.652 42.1442C134.5 42.1282 134.348 42.1162 134.196 42.1082C134.172 42.2522 134.152 42.3802 134.136 42.4922C134.12 42.5962 134.112 42.6802 134.112 42.7442C134.112 43.1922 134.232 43.5242 134.472 43.7402C134.72 43.9482 135.096 44.0522 135.6 44.0522C136.056 44.0522 136.432 43.9402 136.728 43.7162C137.024 43.4842 137.172 43.1882 137.172 42.8282C137.172 42.3802 136.964 41.9402 136.548 41.5082C136.38 41.3242 136.312 41.1082 136.344 40.8602C136.376 40.6042 136.492 40.4002 136.692 40.2482C136.892 40.0882 137.108 40.0282 137.34 40.0682C137.58 40.1002 137.784 40.2082 137.952 40.3922C138.288 40.7442 138.536 41.1242 138.696 41.5322C138.864 41.9402 138.948 42.3642 138.948 42.8042C138.948 43.4122 138.804 43.9442 138.516 44.4002C138.236 44.8482 137.844 45.2002 137.34 45.4562C136.836 45.7122 136.256 45.8402 135.6 45.8402Z" fill="#284877"/>
<path d="M126.024 45.5521C125.048 45.4161 124.24 45.1321 123.6 44.7001C122.96 44.2681 122.484 43.7521 122.172 43.1521C121.86 42.5441 121.704 41.9041 121.704 41.2321C121.704 40.6401 121.8 40.0961 121.992 39.6001C122.192 39.1041 122.476 38.6561 122.844 38.2561C122.324 38.3441 121.816 38.4321 121.32 38.5201C120.824 38.6081 120.368 38.6881 119.952 38.7601C119.536 38.8321 119.188 38.8921 118.908 38.9401C118.668 38.9801 118.448 38.9281 118.248 38.7841C118.056 38.6321 117.94 38.4361 117.9 38.1961C117.868 37.9481 117.92 37.7241 118.056 37.5241C118.2 37.3241 118.396 37.2081 118.644 37.1761C118.988 37.1281 119.424 37.0641 119.952 36.9841C120.488 36.8961 121.06 36.8041 121.668 36.7081C122.284 36.6041 122.896 36.5041 123.504 36.4081C124.112 36.3041 124.672 36.2081 125.184 36.1201C125.696 36.0241 126.108 35.9441 126.42 35.8801C126.652 35.8321 126.868 35.8801 127.068 36.0241C127.268 36.1601 127.392 36.3441 127.44 36.5761C127.488 36.8081 127.448 37.0281 127.32 37.2361C127.2 37.4441 127.02 37.5681 126.78 37.6081C126.244 37.6801 125.772 37.8321 125.364 38.0641C124.956 38.2961 124.612 38.5801 124.332 38.9161C124.052 39.2521 123.84 39.6121 123.696 39.9961C123.552 40.3801 123.48 40.7601 123.48 41.1361C123.48 41.8481 123.724 42.4361 124.212 42.9001C124.7 43.3641 125.388 43.6601 126.276 43.7881C126.524 43.8201 126.72 43.9361 126.864 44.1361C127.016 44.3361 127.072 44.5561 127.032 44.7961C127 45.0441 126.884 45.2401 126.684 45.3841C126.492 45.5281 126.272 45.5841 126.024 45.5521ZM128.664 39.6241C128.544 39.7361 128.396 39.7881 128.22 39.7801C128.052 39.7721 127.912 39.7001 127.8 39.5641C127.72 39.4761 127.604 39.3401 127.452 39.1561C127.3 38.9721 127.168 38.8161 127.056 38.6881C126.984 38.6001 126.952 38.4801 126.96 38.3281C126.968 38.1761 127.032 38.0481 127.152 37.9441C127.248 37.8561 127.368 37.8081 127.512 37.8001C127.656 37.7921 127.784 37.8321 127.896 37.9201C128.024 38.0241 128.168 38.1561 128.328 38.3161C128.496 38.4761 128.632 38.6281 128.736 38.7721C128.84 38.9001 128.884 39.0441 128.868 39.2041C128.86 39.3641 128.792 39.5041 128.664 39.6241ZM127.344 40.6801C127.216 40.7761 127.068 40.8121 126.9 40.7881C126.732 40.7641 126.6 40.6801 126.504 40.5361C126.44 40.4321 126.336 40.2841 126.192 40.0921C126.056 39.8921 125.94 39.7241 125.844 39.5881C125.78 39.4921 125.76 39.3721 125.784 39.2281C125.808 39.0761 125.884 38.9521 126.012 38.8561C126.116 38.7761 126.24 38.7401 126.384 38.7481C126.528 38.7561 126.652 38.8081 126.756 38.9041C126.876 39.0161 127.008 39.1641 127.152 39.3481C127.304 39.5241 127.424 39.6881 127.512 39.8401C127.6 39.9841 127.628 40.1321 127.596 40.2841C127.572 40.4361 127.488 40.5681 127.344 40.6801Z" fill="#284877"/>
<path d="M105.636 45.9601C105.412 45.8561 105.276 45.6961 105.228 45.4801C105.18 45.2641 105.208 45.0561 105.312 44.8561C105.528 44.4481 105.708 44.0041 105.852 43.5241C105.996 43.0361 106.104 42.4801 106.176 41.8561C106.248 41.2241 106.284 40.4881 106.284 39.6481V38.3161C106.284 37.4361 106.488 36.8081 106.896 36.4321C107.304 36.0561 107.956 35.8681 108.852 35.8681H110.304V35.5441C110.304 35.2561 110.4 35.0321 110.592 34.8721C110.784 34.7121 111.012 34.6321 111.276 34.6321C111.54 34.6321 111.768 34.7121 111.96 34.8721C112.152 35.0321 112.248 35.2561 112.248 35.5441V35.8681H115.896C116.12 35.8681 116.296 35.9401 116.424 36.0841C116.552 36.2201 116.616 36.3881 116.616 36.5881C116.616 36.7881 116.552 36.9601 116.424 37.1041C116.296 37.2401 116.12 37.3081 115.896 37.3081H114.264V37.7761H115.656C115.848 37.7761 116.008 37.8441 116.136 37.9801C116.272 38.1161 116.34 38.2761 116.34 38.4601C116.34 38.6521 116.272 38.8161 116.136 38.9521C116.008 39.0801 115.848 39.1441 115.656 39.1441H114.264V39.3001C114.264 39.7001 114.188 40.0201 114.036 40.2601C113.892 40.4921 113.64 40.6601 113.28 40.7641C112.92 40.8601 112.42 40.9081 111.78 40.9081C111.14 40.9081 110.64 40.8601 110.28 40.7641C109.92 40.6601 109.664 40.4921 109.512 40.2601C109.368 40.0201 109.296 39.7001 109.296 39.3001V39.1441H107.916V39.6841C107.916 40.8921 107.832 41.9881 107.664 42.9721C107.496 43.9561 107.216 44.8281 106.824 45.5881C106.72 45.8041 106.552 45.9441 106.32 46.0081C106.088 46.0801 105.86 46.0641 105.636 45.9601ZM115.26 46.0801C114.628 46.0161 114.032 45.9001 113.472 45.7321C112.912 45.5721 112.396 45.3681 111.924 45.1201C111.444 45.3441 110.944 45.5321 110.424 45.6841C109.912 45.8441 109.384 45.9721 108.84 46.0681C108.192 46.1801 107.8 45.9881 107.664 45.4921C107.592 45.2361 107.624 45.0121 107.76 44.8201C107.904 44.6201 108.12 44.4961 108.408 44.4481C108.768 44.3921 109.112 44.3281 109.44 44.2561C109.768 44.1761 110.08 44.0881 110.376 43.9921C110.16 43.7681 109.964 43.5361 109.788 43.2961C109.62 43.0481 109.476 42.7881 109.356 42.5161H108.84C108.632 42.5161 108.468 42.4521 108.348 42.3241C108.236 42.1881 108.18 42.0281 108.18 41.8441C108.18 41.6601 108.236 41.5041 108.348 41.3761C108.468 41.2481 108.632 41.1841 108.84 41.1841H113.232C113.632 41.1841 113.96 41.2561 114.216 41.4001C114.48 41.5441 114.664 41.7321 114.768 41.9641C114.872 42.1961 114.888 42.4481 114.816 42.7201C114.752 42.9921 114.592 43.2521 114.336 43.5001C114.224 43.6041 114.108 43.7081 113.988 43.8121C113.876 43.9081 113.756 44.0041 113.628 44.1001C114.212 44.2761 114.856 44.3961 115.56 44.4601C115.856 44.4841 116.08 44.5801 116.232 44.7481C116.384 44.9161 116.44 45.1321 116.4 45.3961C116.352 45.6841 116.224 45.8761 116.016 45.9721C115.808 46.0761 115.556 46.1121 115.26 46.0801ZM111.972 43.2961C112.084 43.2321 112.192 43.1681 112.296 43.1041C112.4 43.0321 112.504 42.9601 112.608 42.8881C112.76 42.7761 112.824 42.6881 112.8 42.6241C112.776 42.5521 112.672 42.5161 112.488 42.5161H111.144C111.256 42.6601 111.38 42.8001 111.516 42.9361C111.66 43.0641 111.812 43.1841 111.972 43.2961ZM111.024 37.7761H112.536V37.3081H111.024V37.7761ZM111.78 39.6241C112.092 39.6241 112.292 39.5961 112.38 39.5401C112.476 39.4761 112.528 39.3441 112.536 39.1441H111.024C111.032 39.3441 111.084 39.4761 111.18 39.5401C111.276 39.5961 111.476 39.6241 111.78 39.6241ZM108 37.7761H109.296V37.3081H108.948C108.452 37.3081 108.136 37.4641 108 37.7761Z" fill="#284877"/>
<path d="M101.412 45.972C100.796 45.972 100.456 45.688 100.392 45.12C100.36 44.848 100.432 44.624 100.608 44.448C100.784 44.264 101.056 44.156 101.424 44.124C101.584 44.108 101.688 44.072 101.736 44.016C101.792 43.952 101.82 43.844 101.82 43.692V37.332H97.932C97.708 37.332 97.516 37.256 97.356 37.104C97.196 36.944 97.116 36.752 97.116 36.528C97.116 36.296 97.196 36.104 97.356 35.952C97.516 35.792 97.708 35.712 97.932 35.712H103.956C104.18 35.712 104.368 35.792 104.52 35.952C104.68 36.104 104.76 36.296 104.76 36.528C104.76 36.752 104.68 36.944 104.52 37.104C104.368 37.256 104.18 37.332 103.956 37.332H103.596V43.92C103.596 44.648 103.416 45.172 103.056 45.492C102.696 45.812 102.148 45.972 101.412 45.972ZM95.652 46.02C95.42 46.02 95.22 45.944 95.052 45.792C94.884 45.64 94.8 45.436 94.8 45.18V40.272C94.768 40.312 94.736 40.356 94.704 40.404C94.672 40.444 94.64 40.484 94.608 40.524C94.456 40.7 94.26 40.8 94.02 40.824C93.788 40.848 93.58 40.784 93.396 40.632C93.22 40.496 93.12 40.316 93.096 40.092C93.072 39.86 93.124 39.656 93.252 39.48C93.46 39.216 93.676 38.912 93.9 38.568C94.132 38.224 94.356 37.864 94.572 37.488C94.788 37.112 94.984 36.748 95.16 36.396C95.344 36.044 95.488 35.732 95.592 35.46C95.68 35.244 95.832 35.092 96.048 35.004C96.264 34.916 96.48 34.916 96.696 35.004C96.928 35.084 97.088 35.228 97.176 35.436C97.264 35.636 97.264 35.848 97.176 36.072C97.088 36.304 96.984 36.548 96.864 36.804C96.752 37.06 96.628 37.32 96.492 37.584V45.18C96.492 45.436 96.408 45.64 96.24 45.792C96.08 45.944 95.884 46.02 95.652 46.02ZM99.192 42.72C98.672 42.72 98.26 42.66 97.956 42.54C97.652 42.42 97.436 42.2 97.308 41.88C97.18 41.56 97.116 41.1 97.116 40.5C97.116 39.892 97.18 39.428 97.308 39.108C97.436 38.788 97.652 38.572 97.956 38.46C98.26 38.34 98.672 38.28 99.192 38.28C99.72 38.28 100.136 38.34 100.44 38.46C100.744 38.572 100.96 38.788 101.088 39.108C101.216 39.428 101.28 39.892 101.28 40.5C101.28 41.1 101.216 41.56 101.088 41.88C100.96 42.2 100.744 42.42 100.44 42.54C100.136 42.66 99.72 42.72 99.192 42.72ZM99.204 41.184C99.412 41.184 99.548 41.148 99.612 41.076C99.676 40.996 99.708 40.804 99.708 40.5C99.708 40.196 99.676 40.008 99.612 39.936C99.548 39.856 99.412 39.816 99.204 39.816C99.004 39.816 98.868 39.856 98.796 39.936C98.732 40.008 98.7 40.196 98.7 40.5C98.7 40.804 98.732 40.996 98.796 41.076C98.868 41.148 99.004 41.184 99.204 41.184Z" fill="#284877"/>
<path d="M87.6 45.8402C86.968 45.8402 86.408 45.7242 85.92 45.4922C85.44 45.2682 85.06 44.9282 84.78 44.4722C84.508 44.0082 84.372 43.4322 84.372 42.7442C84.372 42.5522 84.408 42.2482 84.48 41.8322C84.28 41.7922 84.092 41.7522 83.916 41.7122C83.74 41.6642 83.572 41.6202 83.412 41.5802C83.188 41.5162 83.016 41.3762 82.896 41.1602C82.784 40.9442 82.764 40.7202 82.836 40.4882C82.9 40.2562 83.04 40.0842 83.256 39.9722C83.472 39.8602 83.696 39.8402 83.928 39.9122C84.032 39.9442 84.156 39.9762 84.3 40.0082C84.444 40.0402 84.604 40.0722 84.78 40.1042C84.812 39.9202 84.844 39.7362 84.876 39.5522C84.916 39.3682 84.952 39.1842 84.984 39.0002C84.792 38.9602 84.616 38.9242 84.456 38.8922C84.296 38.8522 84.168 38.8202 84.072 38.7962C83.84 38.7322 83.664 38.5962 83.544 38.3882C83.432 38.1722 83.408 37.9482 83.472 37.7162C83.536 37.4842 83.672 37.3122 83.88 37.2002C84.096 37.0802 84.32 37.0522 84.552 37.1162C84.624 37.1322 84.724 37.1562 84.852 37.1882C84.988 37.2122 85.14 37.2402 85.308 37.2722C85.372 36.9522 85.424 36.6642 85.464 36.4082C85.512 36.1442 85.544 35.9282 85.56 35.7602C85.592 35.5122 85.708 35.3202 85.908 35.1842C86.116 35.0402 86.344 34.9882 86.592 35.0282C86.832 35.0602 87.024 35.1802 87.168 35.3882C87.312 35.5882 87.364 35.8082 87.324 36.0482C87.3 36.2322 87.264 36.4562 87.216 36.7202C87.168 36.9842 87.112 37.2762 87.048 37.5962C87.216 37.6202 87.364 37.6442 87.492 37.6682C87.732 37.7002 87.928 37.8122 88.08 38.0042C88.232 38.1882 88.292 38.4002 88.26 38.6402C88.228 38.8802 88.116 39.0762 87.924 39.2282C87.732 39.3722 87.516 39.4282 87.276 39.3962C87.204 39.3882 87.12 39.3762 87.024 39.3602C86.928 39.3442 86.824 39.3282 86.712 39.3122C86.68 39.4882 86.644 39.6682 86.604 39.8522C86.572 40.0282 86.54 40.2002 86.508 40.3682C86.62 40.3762 86.732 40.3882 86.844 40.4042C86.964 40.4122 87.076 40.4202 87.18 40.4282C87.428 40.4442 87.632 40.5442 87.792 40.7282C87.952 40.9042 88.024 41.1122 88.008 41.3522C88 41.5922 87.904 41.7922 87.72 41.9522C87.544 42.1122 87.336 42.1882 87.096 42.1802C86.952 42.1722 86.804 42.1602 86.652 42.1442C86.5 42.1282 86.348 42.1162 86.196 42.1082C86.172 42.2522 86.152 42.3802 86.136 42.4922C86.12 42.5962 86.112 42.6802 86.112 42.7442C86.112 43.1922 86.232 43.5242 86.472 43.7402C86.72 43.9482 87.096 44.0522 87.6 44.0522C88.056 44.0522 88.432 43.9402 88.728 43.7162C89.024 43.4842 89.172 43.1882 89.172 42.8282C89.172 42.3802 88.964 41.9402 88.548 41.5082C88.38 41.3242 88.312 41.1082 88.344 40.8602C88.376 40.6042 88.492 40.4002 88.692 40.2482C88.892 40.0882 89.108 40.0282 89.34 40.0682C89.58 40.1002 89.784 40.2082 89.952 40.3922C90.288 40.7442 90.536 41.1242 90.696 41.5322C90.864 41.9402 90.948 42.3642 90.948 42.8042C90.948 43.4122 90.804 43.9442 90.516 44.4002C90.236 44.8482 89.844 45.2002 89.34 45.4562C88.836 45.7122 88.256 45.8402 87.6 45.8402Z" fill="#284877"/>
<path d="M78.024 45.5521C77.048 45.4161 76.24 45.1321 75.6 44.7001C74.96 44.2681 74.484 43.7521 74.172 43.1521C73.86 42.5441 73.704 41.9041 73.704 41.2321C73.704 40.6401 73.8 40.0961 73.992 39.6001C74.192 39.1041 74.476 38.6561 74.844 38.2561C74.324 38.3441 73.816 38.4321 73.32 38.5201C72.824 38.6081 72.368 38.6881 71.952 38.7601C71.536 38.8321 71.188 38.8921 70.908 38.9401C70.668 38.9801 70.448 38.9281 70.248 38.7841C70.056 38.6321 69.94 38.4361 69.9 38.1961C69.868 37.9481 69.92 37.7241 70.056 37.5241C70.2 37.3241 70.396 37.2081 70.644 37.1761C70.988 37.1281 71.424 37.0641 71.952 36.9841C72.488 36.8961 73.06 36.8041 73.668 36.7081C74.284 36.6041 74.896 36.5041 75.504 36.4081C76.112 36.3041 76.672 36.2081 77.184 36.1201C77.696 36.0241 78.108 35.9441 78.42 35.8801C78.652 35.8321 78.868 35.8801 79.068 36.0241C79.268 36.1601 79.392 36.3441 79.44 36.5761C79.488 36.8081 79.448 37.0281 79.32 37.2361C79.2 37.4441 79.02 37.5681 78.78 37.6081C78.244 37.6801 77.772 37.8321 77.364 38.0641C76.956 38.2961 76.612 38.5801 76.332 38.9161C76.052 39.2521 75.84 39.6121 75.696 39.9961C75.552 40.3801 75.48 40.7601 75.48 41.1361C75.48 41.8481 75.724 42.4361 76.212 42.9001C76.7 43.3641 77.388 43.6601 78.276 43.7881C78.524 43.8201 78.72 43.9361 78.864 44.1361C79.016 44.3361 79.072 44.5561 79.032 44.7961C79 45.0441 78.884 45.2401 78.684 45.3841C78.492 45.5281 78.272 45.5841 78.024 45.5521ZM80.664 39.6241C80.544 39.7361 80.396 39.7881 80.22 39.7801C80.052 39.7721 79.912 39.7001 79.8 39.5641C79.72 39.4761 79.604 39.3401 79.452 39.1561C79.3 38.9721 79.168 38.8161 79.056 38.6881C78.984 38.6001 78.952 38.4801 78.96 38.3281C78.968 38.1761 79.032 38.0481 79.152 37.9441C79.248 37.8561 79.368 37.8081 79.512 37.8001C79.656 37.7921 79.784 37.8321 79.896 37.9201C80.024 38.0241 80.168 38.1561 80.328 38.3161C80.496 38.4761 80.632 38.6281 80.736 38.7721C80.84 38.9001 80.884 39.0441 80.868 39.2041C80.86 39.3641 80.792 39.5041 80.664 39.6241ZM79.344 40.6801C79.216 40.7761 79.068 40.8121 78.9 40.7881C78.732 40.7641 78.6 40.6801 78.504 40.5361C78.44 40.4321 78.336 40.2841 78.192 40.0921C78.056 39.8921 77.94 39.7241 77.844 39.5881C77.78 39.4921 77.76 39.3721 77.784 39.2281C77.808 39.0761 77.884 38.9521 78.012 38.8561C78.116 38.7761 78.24 38.7401 78.384 38.7481C78.528 38.7561 78.652 38.8081 78.756 38.9041C78.876 39.0161 79.008 39.1641 79.152 39.3481C79.304 39.5241 79.424 39.6881 79.512 39.8401C79.6 39.9841 79.628 40.1321 79.596 40.2841C79.572 40.4361 79.488 40.5681 79.344 40.6801Z" fill="#284877"/>
<path d="M62.364 44.8681C62.116 44.9001 61.896 44.8441 61.704 44.7001C61.512 44.5481 61.396 44.3481 61.356 44.1001C61.324 43.8521 61.384 43.6321 61.536 43.4401C61.688 43.2481 61.888 43.1361 62.136 43.1041C63.552 42.9201 64.576 42.5641 65.208 42.0361C65.848 41.5081 66.116 40.8801 66.012 40.1521C65.932 39.6001 65.708 39.2041 65.34 38.9641C64.98 38.7241 64.436 38.6321 63.708 38.6881C63.364 38.7121 62.976 38.7561 62.544 38.8201C62.12 38.8841 61.684 38.9641 61.236 39.0601C60.788 39.1481 60.356 39.2401 59.94 39.3361C59.532 39.4321 59.172 39.5241 58.86 39.6121C58.628 39.6761 58.404 39.6441 58.188 39.5161C57.972 39.3881 57.832 39.2081 57.768 38.9761C57.704 38.7361 57.732 38.5041 57.852 38.2801C57.972 38.0561 58.152 37.9121 58.392 37.8481C58.728 37.7601 59.116 37.6721 59.556 37.5841C59.996 37.4881 60.452 37.4001 60.924 37.3201C61.404 37.2321 61.872 37.1601 62.328 37.1041C62.792 37.0401 63.208 36.9921 63.576 36.9601C64.792 36.8721 65.756 37.0801 66.468 37.5841C67.188 38.0801 67.624 38.8521 67.776 39.9001C67.888 40.6761 67.76 41.4121 67.392 42.1081C67.032 42.8041 66.432 43.4001 65.592 43.8961C64.76 44.3841 63.684 44.7081 62.364 44.8681Z" fill="#284877"/>
<path d="M46.956 42.9962C46.716 42.5962 46.516 42.1242 46.356 41.5802C46.204 41.0282 46.096 40.4282 46.032 39.7802C45.976 39.1322 45.964 38.4722 45.996 37.8002C46.004 37.5522 46.096 37.3482 46.272 37.1882C46.456 37.0282 46.672 36.9562 46.92 36.9722C47.168 36.9802 47.368 37.0762 47.52 37.2602C47.68 37.4442 47.752 37.6602 47.736 37.9082C47.696 38.4522 47.696 38.9802 47.736 39.4922C47.784 40.0042 47.86 40.4722 47.964 40.8962C48.076 41.3122 48.2 41.6562 48.336 41.9282C48.52 42.2722 48.736 42.4122 48.984 42.3482C49.24 42.2842 49.456 41.9842 49.632 41.4482C49.712 41.2162 49.86 41.0402 50.076 40.9202C50.3 40.8002 50.528 40.7802 50.76 40.8602C50.992 40.9402 51.156 41.0882 51.252 41.3042C51.356 41.5202 51.376 41.7482 51.312 41.9882C51.12 42.6602 50.84 43.1802 50.472 43.5482C50.104 43.9162 49.704 44.1362 49.272 44.2082C48.84 44.2802 48.416 44.2122 48 44.0042C47.592 43.7962 47.244 43.4602 46.956 42.9962ZM55.644 42.0722C55.42 42.1522 55.192 42.1402 54.96 42.0362C54.736 41.9322 54.576 41.7682 54.48 41.5442C54.376 41.2802 54.22 41.0042 54.012 40.7162C53.812 40.4202 53.588 40.1402 53.34 39.8762C53.1 39.6122 52.856 39.3922 52.608 39.2162C52.408 39.0722 52.276 38.8842 52.212 38.6522C52.156 38.4122 52.204 38.1842 52.356 37.9682C52.5 37.7762 52.692 37.6602 52.932 37.6202C53.172 37.5722 53.392 37.6202 53.592 37.7642C53.968 38.0362 54.324 38.3522 54.66 38.7122C55.004 39.0642 55.304 39.4322 55.56 39.8162C55.824 40.1922 56.024 40.5562 56.16 40.9082C56.248 41.1322 56.24 41.3602 56.136 41.5922C56.04 41.8242 55.876 41.9842 55.644 42.0722Z" fill="#284877"/>
</svg>
