<svg width="221" height="74" viewBox="0 0 221 74" fill="none" xmlns="http://www.w3.org/2000/svg">
<path d="M192.74 0H35.0199C22.7203 0 12.2581 10.2898 8.37429 24.6508C4.59419 23.3677 1.43115 21.2654 0 19.6881C0 20.367 0.518532 22.8563 0.691376 23.422C1.71116 26.7577 4.01344 31.8698 6.88956 33.4539C6.80487 34.6216 6.75993 35.8029 6.75993 37C6.75993 57.4349 19.4121 74 35.0199 74H192.74C208.348 74 221 57.4349 221 37C221 16.5651 208.348 0 192.74 0Z" fill="#89C3EB"/>
<rect x="23" y="23" width="80" height="4" rx="2" fill="#D9D9D9"/>
<path d="M79.5025 25C78.6225 25 78.1825 24.56 78.1825 23.68V13.4H75.3825C74.5025 13.4 74.0625 13 74.0625 12.2C74.0625 11.4 74.5025 11 75.3825 11H83.5825C84.4625 11 84.9025 11.4 84.9025 12.2C84.9025 13 84.4625 13.4 83.5825 13.4H80.8025V23.68C80.8025 24.56 80.3692 25 79.5025 25Z" fill="white"/>
<path d="M62.062 25C61.1953 25 60.762 24.56 60.762 23.68V12.32C60.762 11.44 61.1953 11 62.062 11H62.342C63.0086 11 63.5353 11.2867 63.922 11.86L69.622 20.46V12.32C69.622 11.44 70.062 11 70.942 11C71.8086 11 72.242 11.44 72.242 12.32V23.68C72.242 24.56 71.8286 25 71.002 25H70.782C70.0886 25 69.562 24.7133 69.202 24.14L63.362 15.22V23.68C63.362 24.56 62.9286 25 62.062 25Z" fill="white"/>
<path d="M56.7885 25C55.9219 25 55.4885 24.56 55.4885 23.68V12.32C55.4885 11.44 55.9219 11 56.7885 11C57.6552 11 58.0885 11.44 58.0885 12.32V23.68C58.0885 24.56 57.6552 25 56.7885 25Z" fill="white"/>
<path d="M46.8969 25.3401C45.6302 25.3401 44.4969 25.0401 43.4969 24.4401C42.4969 23.8401 41.7102 22.9935 41.1369 21.9001C40.5769 20.7935 40.2969 19.4935 40.2969 18.0001C40.2969 16.4935 40.5769 15.1935 41.1369 14.1001C41.7102 12.9935 42.4969 12.1401 43.4969 11.5401C44.4969 10.9268 45.6302 10.6201 46.8969 10.6201C48.1635 10.6201 49.2902 10.9268 50.2769 11.5401C51.2769 12.1401 52.0569 12.9935 52.6169 14.1001C53.1902 15.1935 53.4769 16.4935 53.4769 18.0001C53.4769 19.4935 53.1902 20.7935 52.6169 21.9001C52.0569 22.9935 51.2769 23.8401 50.2769 24.4401C49.2902 25.0401 48.1635 25.3401 46.8969 25.3401ZM46.8969 22.8201C47.6969 22.8201 48.3835 22.6201 48.9569 22.2201C49.5435 21.8068 49.9902 21.2401 50.2969 20.5201C50.6169 19.8001 50.7769 18.9601 50.7769 18.0001C50.7769 17.0268 50.6169 16.1801 50.2969 15.4601C49.9902 14.7401 49.5435 14.1801 48.9569 13.7801C48.3835 13.3668 47.6969 13.1601 46.8969 13.1601C46.1102 13.1601 45.4235 13.3668 44.8369 13.7801C44.2635 14.1801 43.8169 14.7401 43.4969 15.4601C43.1769 16.1801 43.0169 17.0268 43.0169 18.0001C43.0169 18.9601 43.1769 19.8001 43.4969 20.5201C43.8169 21.2401 44.2635 21.8068 44.8369 22.2201C45.4235 22.6201 46.1102 22.8201 46.8969 22.8201Z" fill="white"/>
<path d="M29.6401 25C28.7734 25 28.3401 24.56 28.3401 23.68V12.32C28.3401 11.44 28.7801 11 29.6601 11H34.8201C35.7001 11 36.4601 11.1333 37.1001 11.4C37.7534 11.6667 38.2534 12.1 38.6001 12.7C38.9601 13.3 39.1401 14.1067 39.1401 15.12C39.1401 16.1333 38.9601 16.9467 38.6001 17.56C38.2534 18.16 37.7534 18.6 37.1001 18.88C36.4601 19.1467 35.7001 19.28 34.8201 19.28H30.9401V23.68C30.9401 24.56 30.5068 25 29.6401 25ZM30.9401 16.86H34.4601C35.0601 16.86 35.5334 16.7267 35.8801 16.46C36.2268 16.1933 36.4001 15.7467 36.4001 15.12C36.4001 14.5067 36.2268 14.0667 35.8801 13.8C35.5334 13.5333 35.0601 13.4 34.4601 13.4H30.9401V16.86Z" fill="white"/>
<path d="M97.1999 26C95.9999 26 95.3999 25.34 95.3999 24.02V9.55997L93.5699 10.79C92.4499 11.53 91.5799 11.39 90.9599 10.37C90.6399 9.86997 90.5399 9.39997 90.6599 8.95997C90.7999 8.49997 91.1399 8.10997 91.6799 7.78997L95.0999 5.65997C95.4999 5.39997 95.8899 5.21997 96.2699 5.11997C96.6499 5.01997 97.0799 4.96997 97.5599 4.96997C98.4999 4.96997 98.9699 5.62997 98.9699 6.94997V24.02C98.9699 25.34 98.3799 26 97.1999 26Z" fill="#D74545"/>
<path d="M157 60.7319C156.8 60.7319 156.628 60.6679 156.484 60.5399C156.34 60.4039 156.26 60.2359 156.244 60.0359C156.212 59.6119 156.176 59.1519 156.136 58.6559C156.104 58.1519 156.072 57.6599 156.04 57.1799C156.008 56.6919 155.98 56.2519 155.956 55.8599C155.94 55.4599 155.932 55.1519 155.932 54.9359V54.0479C155.932 53.7679 156.032 53.5279 156.232 53.3279C156.432 53.1199 156.688 53.0159 157 53.0159C157.312 53.0159 157.568 53.1199 157.768 53.3279C157.968 53.5279 158.068 53.7679 158.068 54.0479V54.9359C158.068 55.1519 158.056 55.4599 158.032 55.8599C158.016 56.2519 157.992 56.6919 157.96 57.1799C157.928 57.6599 157.892 58.1519 157.852 58.6559C157.82 59.1519 157.788 59.6119 157.756 60.0359C157.74 60.2359 157.66 60.4039 157.516 60.5399C157.372 60.6679 157.2 60.7319 157 60.7319ZM157 63.8399C156.68 63.8399 156.404 63.7239 156.172 63.4919C155.94 63.2599 155.824 62.9839 155.824 62.6639C155.824 62.3359 155.94 62.0599 156.172 61.8359C156.404 61.6119 156.68 61.4999 157 61.4999C157.328 61.4999 157.604 61.6119 157.828 61.8359C158.06 62.0599 158.176 62.3359 158.176 62.6639C158.176 62.9839 158.06 63.2599 157.828 63.4919C157.604 63.7239 157.328 63.8399 157 63.8399Z" fill="#284877"/>
<path d="M140.764 64.032C140.484 64.088 140.228 64.072 139.996 63.984C139.772 63.896 139.624 63.716 139.552 63.444C139.48 63.188 139.512 62.96 139.648 62.76C139.784 62.56 139.988 62.436 140.26 62.388C140.9 62.276 141.464 62.112 141.952 61.896C142.44 61.672 142.844 61.384 143.164 61.032H140.176C139.976 61.032 139.808 60.964 139.672 60.828C139.536 60.684 139.468 60.512 139.468 60.312C139.468 60.112 139.536 59.944 139.672 59.808C139.808 59.672 139.976 59.604 140.176 59.604H143.92C143.936 59.54 143.952 59.472 143.968 59.4C143.984 59.328 143.996 59.256 144.004 59.184H141.76C141.568 59.184 141.404 59.116 141.268 58.98C141.14 58.844 141.076 58.68 141.076 58.488C141.076 58.296 141.14 58.132 141.268 57.996C141.404 57.86 141.568 57.792 141.76 57.792H144.076V57.36H141.76C141.632 57.36 141.512 57.324 141.4 57.252C141.296 57.18 141.216 57.092 141.16 56.988C141 57.1 140.812 57.156 140.596 57.156C140.364 57.156 140.164 57.084 139.996 56.94C139.836 56.788 139.756 56.58 139.756 56.316V55.848C139.756 55.176 139.912 54.704 140.224 54.432C140.544 54.152 141.092 54.012 141.868 54.012H144.004V53.676C144.004 53.404 144.096 53.184 144.28 53.016C144.472 52.84 144.7 52.752 144.964 52.752C145.236 52.752 145.464 52.84 145.648 53.016C145.84 53.184 145.936 53.404 145.936 53.676V54.012H148.144C148.912 54.012 149.456 54.152 149.776 54.432C150.096 54.704 150.256 55.176 150.256 55.848V56.316C150.256 56.58 150.172 56.788 150.004 56.94C149.836 57.084 149.636 57.156 149.404 57.156C149.188 57.156 149.012 57.104 148.876 57C148.74 57.24 148.536 57.36 148.264 57.36H145.864V57.792H148.264C148.456 57.792 148.62 57.86 148.756 57.996C148.892 58.132 148.96 58.296 148.96 58.488C148.96 58.68 148.892 58.844 148.756 58.98C148.62 59.116 148.456 59.184 148.264 59.184H145.804C145.796 59.312 145.772 59.452 145.732 59.604H149.86C150.06 59.604 150.228 59.672 150.364 59.808C150.508 59.944 150.58 60.112 150.58 60.312C150.58 60.512 150.508 60.684 150.364 60.828C150.228 60.964 150.06 61.032 149.86 61.032H146.764C147.46 61.64 148.456 62.084 149.752 62.364C150.008 62.42 150.2 62.544 150.328 62.736C150.456 62.92 150.492 63.14 150.436 63.396C150.364 63.708 150.2 63.908 149.944 63.996C149.688 64.084 149.42 64.096 149.14 64.032C148.612 63.904 148.088 63.716 147.568 63.468C147.048 63.22 146.568 62.92 146.128 62.568C145.688 62.216 145.32 61.824 145.024 61.392C144.616 62.024 144.056 62.564 143.344 63.012C142.64 63.46 141.78 63.8 140.764 64.032ZM148.552 56.028V55.884C148.552 55.7 148.504 55.568 148.408 55.488C148.32 55.408 148.156 55.368 147.916 55.368H145.864V55.968H148.264C148.36 55.968 148.456 55.988 148.552 56.028ZM141.448 56.052C141.56 55.996 141.664 55.968 141.76 55.968H144.076V55.368H142.084C141.852 55.368 141.688 55.408 141.592 55.488C141.496 55.568 141.448 55.7 141.448 55.884V56.052Z" fill="#284877"/>
<path d="M137.404 59.0999C137.204 59.2519 136.992 59.3119 136.768 59.2799C136.544 59.2399 136.356 59.1159 136.204 58.9079C136.148 58.8359 136.084 58.7559 136.012 58.6679C135.948 58.5799 135.88 58.4919 135.808 58.4039C135.344 58.4519 134.808 58.5039 134.2 58.5599C133.6 58.6159 132.984 58.6719 132.352 58.7279C131.728 58.7839 131.14 58.8359 130.588 58.8839C130.036 58.9319 129.572 58.9679 129.196 58.9919C128.9 59.0159 128.66 58.9639 128.476 58.8359C128.3 58.6999 128.2 58.4919 128.176 58.2119C128.16 57.9719 128.224 57.7679 128.368 57.5999C128.52 57.4319 128.744 57.3399 129.04 57.3239C129.192 57.3159 129.352 57.3079 129.52 57.2999C129.696 57.2919 129.88 57.2839 130.072 57.2759C130.208 57.0439 130.352 56.7959 130.504 56.5319C130.656 56.2679 130.784 56.0519 130.888 55.8839H128.2C127.976 55.8839 127.788 55.8079 127.636 55.6559C127.484 55.4959 127.408 55.3079 127.408 55.0919C127.408 54.8679 127.484 54.6799 127.636 54.5279C127.788 54.3759 127.976 54.2999 128.2 54.2999H132.016V53.5919C132.016 53.2959 132.108 53.0719 132.292 52.9199C132.484 52.7599 132.716 52.6799 132.988 52.6799C133.26 52.6799 133.488 52.7599 133.672 52.9199C133.864 53.0719 133.96 53.2959 133.96 53.5919V54.2999H137.824C138.048 54.2999 138.236 54.3759 138.388 54.5279C138.54 54.6799 138.616 54.8679 138.616 55.0919C138.616 55.3079 138.54 55.4959 138.388 55.6559C138.236 55.8079 138.048 55.8839 137.824 55.8839H135.76C135.944 56.0599 136.148 56.2679 136.372 56.5079C136.596 56.7479 136.816 56.9919 137.032 57.2399C137.256 57.4799 137.44 57.6919 137.584 57.8759C137.752 58.0839 137.808 58.3079 137.752 58.5479C137.704 58.7799 137.588 58.9639 137.404 59.0999ZM135.916 63.9959C135.26 63.9959 134.748 63.9359 134.38 63.8159C134.012 63.7039 133.752 63.5039 133.6 63.2159C133.448 62.9279 133.372 62.5199 133.372 61.9919V59.5919C133.372 59.3199 133.456 59.1079 133.624 58.9559C133.792 58.7959 133.996 58.7159 134.236 58.7159C134.476 58.7159 134.68 58.7959 134.848 58.9559C135.024 59.1079 135.112 59.3199 135.112 59.5919V61.6439C135.112 61.8839 135.164 62.0479 135.268 62.1359C135.372 62.2159 135.596 62.2559 135.94 62.2559C136.26 62.2559 136.48 62.2159 136.6 62.1359C136.72 62.0559 136.82 61.8839 136.9 61.6199C136.98 61.3959 137.128 61.2359 137.344 61.1399C137.568 61.0439 137.804 61.0439 138.052 61.1399C138.308 61.2439 138.48 61.3879 138.568 61.5719C138.656 61.7559 138.668 61.9679 138.604 62.2079C138.5 62.6399 138.344 62.9879 138.136 63.2519C137.928 63.5159 137.644 63.7039 137.284 63.8159C136.932 63.9359 136.476 63.9959 135.916 63.9959ZM128.92 63.9839C128.6 64.0399 128.332 64.0159 128.116 63.9119C127.908 63.8159 127.776 63.6239 127.72 63.3359C127.672 63.0799 127.716 62.8599 127.852 62.6759C127.996 62.4919 128.216 62.3719 128.512 62.3159C129.296 62.1719 129.876 61.8919 130.252 61.4759C130.636 61.0519 130.888 60.4639 131.008 59.7119C131.048 59.4159 131.156 59.2079 131.332 59.0879C131.516 58.9679 131.74 58.9239 132.004 58.9559C132.26 58.9879 132.444 59.0919 132.556 59.2679C132.676 59.4359 132.72 59.6559 132.688 59.9279C132.544 61.1119 132.164 62.0319 131.548 62.6879C130.94 63.3439 130.064 63.7759 128.92 63.9839ZM132.064 57.1439C132.496 57.1119 132.924 57.0839 133.348 57.0599C133.78 57.0279 134.184 56.9959 134.56 56.9639C134.536 56.9399 134.512 56.9159 134.488 56.8919C134.464 56.8599 134.44 56.8319 134.416 56.8079C134.28 56.6719 134.196 56.5239 134.164 56.3639C134.14 56.1959 134.172 56.0359 134.26 55.8839H132.892C132.796 56.0279 132.668 56.2199 132.508 56.4599C132.356 56.6919 132.208 56.9199 132.064 57.1439Z" fill="#284877"/>
<path d="M119.14 63.4559C118.9 63.4159 118.704 63.2999 118.552 63.1079C118.4 62.9159 118.34 62.6959 118.372 62.4479C118.412 62.1999 118.528 62.0039 118.72 61.8599C118.912 61.7079 119.132 61.6479 119.38 61.6799C119.628 61.7119 119.84 61.7199 120.016 61.7039C120.192 61.6799 120.34 61.5999 120.46 61.4639C120.588 61.3199 120.696 61.0959 120.784 60.7919C120.88 60.4879 120.964 60.0679 121.036 59.5319C121.108 59.0439 121.116 58.6759 121.06 58.4279C121.004 58.1799 120.876 58.0159 120.676 57.9359C120.476 57.8479 120.192 57.8159 119.824 57.8399C119.528 58.8559 119.16 59.8399 118.72 60.7919C118.28 61.7439 117.788 62.5519 117.244 63.2159C117.092 63.3999 116.892 63.5079 116.644 63.5399C116.404 63.5719 116.184 63.5119 115.984 63.3599C115.792 63.2079 115.68 63.0079 115.648 62.7599C115.616 62.5119 115.68 62.2959 115.84 62.1119C116.272 61.5919 116.672 60.9759 117.04 60.2639C117.408 59.5519 117.728 58.7999 118 58.0079C117.792 58.0239 117.584 58.0439 117.376 58.0679C117.168 58.0919 116.972 58.1119 116.788 58.1279C116.54 58.1519 116.32 58.0879 116.128 57.9359C115.936 57.7839 115.828 57.5839 115.804 57.3359C115.78 57.0879 115.844 56.8679 115.996 56.6759C116.148 56.4839 116.348 56.3759 116.596 56.3519C116.9 56.3199 117.212 56.2919 117.532 56.2679C117.86 56.2439 118.18 56.2199 118.492 56.1959C118.564 55.8679 118.62 55.5479 118.66 55.2359C118.708 54.9159 118.74 54.5999 118.756 54.2879C118.772 54.0399 118.872 53.8359 119.056 53.6759C119.24 53.5079 119.456 53.4319 119.704 53.4479C119.952 53.4639 120.16 53.5639 120.328 53.7479C120.504 53.9319 120.576 54.1479 120.544 54.3959C120.488 54.9559 120.392 55.5359 120.256 56.1359C121.312 56.1839 122.036 56.4999 122.428 57.0839C122.82 57.6599 122.936 58.5559 122.776 59.7719C122.64 60.8039 122.424 61.6039 122.128 62.1719C121.84 62.7399 121.452 63.1159 120.964 63.2999C120.476 63.4919 119.868 63.5439 119.14 63.4559ZM125.992 59.9279C125.776 60.0399 125.548 60.0639 125.308 59.9999C125.076 59.9279 124.9 59.7839 124.78 59.5679C124.644 59.3279 124.472 59.0679 124.264 58.7879C124.064 58.4999 123.852 58.2239 123.628 57.9599C123.404 57.6959 123.2 57.4679 123.016 57.2759C122.848 57.0919 122.756 56.8839 122.74 56.6519C122.724 56.4119 122.8 56.2039 122.968 56.0279C123.136 55.8439 123.344 55.7519 123.592 55.7519C123.848 55.7519 124.064 55.8359 124.24 56.0039C124.648 56.3959 125.04 56.8359 125.416 57.3239C125.792 57.8039 126.104 58.2679 126.352 58.7159C126.472 58.9239 126.496 59.1479 126.424 59.3879C126.352 59.6279 126.208 59.8079 125.992 59.9279ZM126.004 54.8879C125.916 54.8079 125.78 54.6919 125.596 54.5399C125.412 54.3799 125.252 54.2479 125.116 54.1439C125.036 54.0719 124.984 53.9639 124.96 53.8199C124.944 53.6679 124.988 53.5279 125.092 53.3999C125.172 53.2879 125.28 53.2199 125.416 53.1959C125.552 53.1639 125.684 53.1799 125.812 53.2439C125.956 53.3239 126.124 53.4319 126.316 53.5679C126.508 53.6959 126.668 53.8199 126.796 53.9399C126.916 54.0519 126.984 54.1879 127 54.3479C127.016 54.5079 126.968 54.6599 126.856 54.8039C126.76 54.9319 126.628 55.0079 126.46 55.0319C126.292 55.0479 126.14 54.9999 126.004 54.8879ZM124.888 56.0639C124.808 55.9759 124.68 55.8479 124.504 55.6799C124.336 55.5039 124.196 55.3559 124.084 55.2359C124.004 55.1479 123.964 55.0319 123.964 54.8879C123.964 54.7439 124.016 54.6119 124.12 54.4919C124.208 54.3959 124.324 54.3399 124.468 54.3239C124.612 54.2999 124.744 54.3279 124.864 54.4079C125 54.4959 125.156 54.6159 125.332 54.7679C125.516 54.9199 125.66 55.0639 125.764 55.1999C125.876 55.3279 125.932 55.4719 125.932 55.6319C125.932 55.7839 125.872 55.9279 125.752 56.0639C125.648 56.1759 125.508 56.2359 125.332 56.2439C125.156 56.2519 125.008 56.1919 124.888 56.0639Z" fill="#284877"/>
<path d="M108.316 63.7799C108.068 63.7799 107.852 63.6879 107.668 63.5039C107.484 63.3279 107.392 63.1119 107.392 62.8559V54.5759C107.392 54.3199 107.484 54.0999 107.668 53.9159C107.852 53.7319 108.068 53.6399 108.316 53.6399C108.572 53.6399 108.788 53.7319 108.964 53.9159C109.148 54.0999 109.24 54.3199 109.24 54.5759V57.3119C109.384 57.1759 109.556 57.0959 109.756 57.0719C109.956 57.0399 110.144 57.0719 110.32 57.1679C110.792 57.4159 111.252 57.6879 111.7 57.9839C112.148 58.2799 112.556 58.5799 112.924 58.8839C113.124 59.0439 113.232 59.2559 113.248 59.5199C113.272 59.7759 113.204 60.0039 113.044 60.2039C112.884 60.4039 112.672 60.5159 112.408 60.5399C112.152 60.5639 111.924 60.4959 111.724 60.3359C111.5 60.1599 111.248 59.9759 110.968 59.7839C110.696 59.5919 110.428 59.4119 110.164 59.2439C109.9 59.0679 109.664 58.9239 109.456 58.8119C109.424 58.7879 109.388 58.7639 109.348 58.7399C109.316 58.7079 109.28 58.6759 109.24 58.6439V62.8559C109.24 63.1119 109.148 63.3279 108.964 63.5039C108.788 63.6879 108.572 63.7799 108.316 63.7799Z" fill="#284877"/>
<path d="M93.268 59.3758C93.012 59.3758 92.792 59.2838 92.608 59.0998C92.432 58.9158 92.344 58.6998 92.344 58.4518C92.344 58.1958 92.432 57.9798 92.608 57.8038C92.792 57.6198 93.012 57.5278 93.268 57.5278H100.744C101 57.5278 101.216 57.6198 101.392 57.8038C101.576 57.9798 101.668 58.1958 101.668 58.4518C101.668 58.6998 101.576 58.9158 101.392 59.0998C101.216 59.2838 101 59.3758 100.744 59.3758H93.268Z" fill="#284877"/>
<path d="M83.3199 63.396C83.0719 63.396 82.8559 63.304 82.6719 63.12C82.4879 62.944 82.3959 62.728 82.3959 62.472C82.3959 62.216 82.4879 62 82.6719 61.824C82.8559 61.64 83.0719 61.548 83.3199 61.548C83.6239 61.548 83.8239 61.504 83.9199 61.416C84.0159 61.328 84.0639 61.148 84.0639 60.876V57.576H81.0039C80.7559 57.576 80.5439 57.488 80.3679 57.312C80.1919 57.136 80.1039 56.924 80.1039 56.676C80.1039 56.428 80.1919 56.216 80.3679 56.04C80.5439 55.864 80.7559 55.776 81.0039 55.776H84.0639V54.588C84.0639 54.332 84.1519 54.116 84.3279 53.94C84.5039 53.764 84.7199 53.676 84.9759 53.676C85.2319 53.676 85.4439 53.764 85.6119 53.94C85.7879 54.116 85.8759 54.332 85.8759 54.588V55.776H88.7199C88.9759 55.776 89.1879 55.864 89.3559 56.04C89.5319 56.216 89.6199 56.428 89.6199 56.676C89.6199 56.924 89.5319 57.136 89.3559 57.312C89.1879 57.488 88.9759 57.576 88.7199 57.576H85.8759V61.056C85.8759 61.888 85.6759 62.488 85.2759 62.856C84.8759 63.216 84.2239 63.396 83.3199 63.396ZM81.0159 61.716C80.7999 61.844 80.5679 61.876 80.3199 61.812C80.0719 61.748 79.8839 61.604 79.7559 61.38C79.6279 61.156 79.5999 60.928 79.6719 60.696C79.7439 60.456 79.8839 60.264 80.0919 60.12C80.3799 59.912 80.6839 59.68 81.0039 59.424C81.3239 59.16 81.6159 58.904 81.8799 58.656C82.0639 58.48 82.2679 58.368 82.4919 58.32C82.7159 58.264 82.9279 58.308 83.1279 58.452C83.3359 58.596 83.4599 58.792 83.4999 59.04C83.5479 59.288 83.4919 59.512 83.3319 59.712C83.0279 60.104 82.6639 60.48 82.2399 60.84C81.8239 61.192 81.4159 61.484 81.0159 61.716ZM89.9079 61.428C89.7159 61.596 89.4959 61.672 89.2479 61.656C88.9999 61.632 88.7839 61.528 88.5999 61.344C88.3759 61.112 88.1119 60.86 87.8079 60.588C87.5039 60.316 87.1919 60.064 86.8719 59.832C86.6719 59.688 86.5479 59.496 86.4999 59.256C86.4599 59.008 86.5079 58.784 86.6439 58.584C86.7879 58.376 86.9799 58.252 87.2199 58.212C87.4679 58.172 87.6919 58.22 87.8919 58.356C88.1959 58.572 88.5439 58.84 88.9359 59.16C89.3279 59.48 89.6759 59.8 89.9799 60.12C90.1639 60.296 90.2439 60.516 90.2199 60.78C90.2039 61.036 90.0999 61.252 89.9079 61.428ZM89.1639 55.536C88.8199 55.536 88.5239 55.416 88.2759 55.176C88.0359 54.928 87.9159 54.632 87.9159 54.288C87.9159 53.944 88.0359 53.652 88.2759 53.412C88.5239 53.164 88.8199 53.04 89.1639 53.04C89.5079 53.04 89.7999 53.164 90.0399 53.412C90.2799 53.652 90.3999 53.944 90.3999 54.288C90.3999 54.632 90.2799 54.928 90.0399 55.176C89.7999 55.416 89.5079 55.536 89.1639 55.536ZM89.1639 54.732C89.2839 54.732 89.3879 54.688 89.4759 54.6C89.5639 54.512 89.6079 54.408 89.6079 54.288C89.6079 54.168 89.5639 54.064 89.4759 53.976C89.3879 53.888 89.2839 53.844 89.1639 53.844C89.0359 53.844 88.9279 53.888 88.8399 53.976C88.7599 54.064 88.7199 54.168 88.7199 54.288C88.7199 54.408 88.7599 54.512 88.8399 54.6C88.9279 54.688 89.0359 54.732 89.1639 54.732Z" fill="#284877"/>
<path d="M71.932 63.6479C71.7 63.7519 71.464 63.7599 71.224 63.6719C70.984 63.5919 70.808 63.4359 70.696 63.2039C70.592 62.9719 70.584 62.7359 70.672 62.4959C70.76 62.2479 70.92 62.0719 71.152 61.9679C71.984 61.5839 72.616 61.0599 73.048 60.3959C73.48 59.7239 73.716 58.8679 73.756 57.8279H72.244C72.252 58.1079 72.252 58.3799 72.244 58.6439C72.244 58.8999 72.236 59.1359 72.22 59.3519C72.212 59.5999 72.112 59.8119 71.92 59.9879C71.736 60.1559 71.516 60.2319 71.26 60.2159C71.004 60.1999 70.796 60.0959 70.636 59.9039C70.476 59.7039 70.4 59.4799 70.408 59.2319C70.424 59.0399 70.432 58.8239 70.432 58.5839C70.44 58.3439 70.44 58.0919 70.432 57.8279H68.152C67.904 57.8279 67.692 57.7399 67.516 57.5639C67.34 57.3879 67.252 57.1759 67.252 56.9279C67.252 56.6799 67.34 56.4679 67.516 56.2919C67.692 56.1159 67.904 56.0279 68.152 56.0279H70.372C70.356 55.7879 70.336 55.5599 70.312 55.3439C70.296 55.1279 70.276 54.9399 70.252 54.7799C70.22 54.5239 70.272 54.2959 70.408 54.0959C70.552 53.8879 70.748 53.7639 70.996 53.7239C71.252 53.6839 71.48 53.7359 71.68 53.8799C71.888 54.0239 72.008 54.2239 72.04 54.4799C72.072 54.6959 72.1 54.9359 72.124 55.1999C72.148 55.4639 72.168 55.7399 72.184 56.0279H73.744C73.736 55.7239 73.72 55.4279 73.696 55.1399C73.68 54.8519 73.664 54.5999 73.648 54.3839C73.632 54.1279 73.704 53.9039 73.864 53.7119C74.024 53.5119 74.228 53.3999 74.476 53.3759C74.732 53.3599 74.956 53.4359 75.148 53.6039C75.348 53.7639 75.456 53.9719 75.472 54.2279C75.496 54.4599 75.512 54.7359 75.52 55.0559C75.536 55.3679 75.548 55.6919 75.556 56.0279H77.644C77.892 56.0279 78.1 56.1159 78.268 56.2919C78.444 56.4679 78.532 56.6799 78.532 56.9279C78.532 57.1759 78.444 57.3879 78.268 57.5639C78.1 57.7399 77.892 57.8279 77.644 57.8279H75.556C75.46 60.6359 74.252 62.5759 71.932 63.6479Z" fill="#284877"/>
<path d="M182.62 46.552C182.404 46.424 182.264 46.24 182.2 46C182.144 45.76 182.18 45.536 182.308 45.328C182.732 44.608 183.096 43.792 183.4 42.88C183.704 41.968 183.932 41.044 184.084 40.108C183.868 40.132 183.656 40.152 183.448 40.168C183.248 40.184 183.056 40.196 182.872 40.204C182.624 40.22 182.408 40.152 182.224 40C182.048 39.84 181.952 39.636 181.936 39.388C181.92 39.14 181.992 38.928 182.152 38.752C182.32 38.568 182.528 38.472 182.776 38.464C183.024 38.448 183.276 38.432 183.532 38.416C183.796 38.392 184.052 38.368 184.3 38.344C184.324 37.896 184.336 37.476 184.336 37.084C184.328 36.836 184.4 36.62 184.552 36.436C184.712 36.252 184.916 36.156 185.164 36.148C185.412 36.14 185.628 36.22 185.812 36.388C185.996 36.548 186.092 36.756 186.1 37.012C186.1 37.34 186.088 37.704 186.064 38.104C186.28 38.064 186.484 38.028 186.676 37.996C186.916 37.94 187.14 37.976 187.348 38.104C187.556 38.232 187.684 38.416 187.732 38.656C187.788 38.904 187.748 39.128 187.612 39.328C187.476 39.528 187.288 39.652 187.048 39.7C186.88 39.732 186.696 39.764 186.496 39.796C186.296 39.828 186.084 39.864 185.86 39.904C185.748 40.648 185.596 41.408 185.404 42.184C185.212 42.952 184.984 43.688 184.72 44.392C184.464 45.088 184.172 45.704 183.844 46.24C183.716 46.448 183.532 46.584 183.292 46.648C183.052 46.712 182.828 46.68 182.62 46.552ZM190.996 46.324C189.748 46.62 188.688 46.624 187.816 46.336C186.952 46.048 186.344 45.552 185.992 44.848C185.888 44.624 185.868 44.396 185.932 44.164C185.996 43.924 186.136 43.748 186.352 43.636C186.568 43.516 186.792 43.492 187.024 43.564C187.264 43.628 187.444 43.768 187.564 43.984C187.748 44.312 188.088 44.54 188.584 44.668C189.08 44.796 189.764 44.764 190.636 44.572C190.876 44.516 191.096 44.556 191.296 44.692C191.504 44.828 191.636 45.02 191.692 45.268C191.74 45.508 191.696 45.728 191.56 45.928C191.424 46.128 191.236 46.26 190.996 46.324ZM190.396 41.812C190.148 41.748 189.852 41.708 189.508 41.692C189.172 41.668 188.828 41.664 188.476 41.68C188.124 41.688 187.8 41.716 187.504 41.764C187.264 41.796 187.044 41.748 186.844 41.62C186.652 41.492 186.532 41.312 186.484 41.08C186.444 40.848 186.488 40.632 186.616 40.432C186.752 40.232 186.936 40.108 187.168 40.06C187.544 39.988 187.952 39.944 188.392 39.928C188.832 39.912 189.264 39.92 189.688 39.952C190.112 39.984 190.488 40.04 190.816 40.12C191.048 40.176 191.224 40.308 191.344 40.516C191.472 40.716 191.508 40.932 191.452 41.164C191.396 41.396 191.264 41.576 191.056 41.704C190.848 41.824 190.628 41.86 190.396 41.812Z" fill="#284877"/>
<path d="M175.432 46.636C174.392 46.636 173.584 46.384 173.008 45.88C172.44 45.376 172.156 44.568 172.156 43.456V37.096C172.156 36.848 172.24 36.64 172.408 36.472C172.584 36.296 172.796 36.208 173.044 36.208C173.292 36.208 173.504 36.296 173.68 36.472C173.856 36.64 173.944 36.848 173.944 37.096V43.456C173.944 43.976 174.056 44.344 174.28 44.56C174.512 44.768 174.896 44.872 175.432 44.872C175.856 44.872 176.276 44.752 176.692 44.512C177.108 44.272 177.452 43.864 177.724 43.288C177.836 43.064 178.004 42.912 178.228 42.832C178.46 42.752 178.688 42.768 178.912 42.88C179.136 42.984 179.284 43.152 179.356 43.384C179.436 43.608 179.428 43.836 179.332 44.068C179.1 44.604 178.784 45.064 178.384 45.448C177.992 45.832 177.54 46.124 177.028 46.324C176.524 46.532 175.992 46.636 175.432 46.636Z" fill="#284877"/>
<path d="M165.508 46.756C164.764 46.756 164.172 46.68 163.732 46.528C163.292 46.384 162.972 46.128 162.772 45.76C162.58 45.392 162.484 44.884 162.484 44.236V36.88C162.484 36.608 162.572 36.392 162.748 36.232C162.924 36.064 163.136 35.98 163.384 35.98C163.632 35.98 163.84 36.064 164.008 36.232C164.184 36.392 164.272 36.608 164.272 36.88V39.724C164.744 39.5 165.212 39.26 165.676 39.004C166.148 38.748 166.54 38.516 166.852 38.308C167.076 38.156 167.32 38.096 167.584 38.128C167.848 38.152 168.044 38.276 168.172 38.5C168.292 38.708 168.332 38.932 168.292 39.172C168.252 39.412 168.128 39.6 167.92 39.736C167.592 39.944 167.216 40.16 166.792 40.384C166.376 40.6 165.948 40.808 165.508 41.008C165.076 41.208 164.664 41.384 164.272 41.536V44.092C164.272 44.316 164.3 44.492 164.356 44.62C164.42 44.748 164.54 44.836 164.716 44.884C164.9 44.932 165.168 44.956 165.52 44.956C165.968 44.956 166.28 44.9 166.456 44.788C166.64 44.668 166.764 44.448 166.828 44.128C166.884 43.864 167.012 43.668 167.212 43.54C167.42 43.404 167.656 43.36 167.92 43.408C168.192 43.456 168.396 43.572 168.532 43.756C168.676 43.94 168.732 44.164 168.7 44.428C168.596 45.228 168.292 45.816 167.788 46.192C167.292 46.568 166.532 46.756 165.508 46.756ZM160.168 47.02C159.928 47.02 159.72 46.94 159.544 46.78C159.376 46.628 159.292 46.416 159.292 46.144V41.14C159.188 41.26 159.088 41.376 158.992 41.488C158.896 41.6 158.804 41.704 158.716 41.8C158.548 41.976 158.344 42.068 158.104 42.076C157.872 42.084 157.664 42.012 157.48 41.86C157.312 41.716 157.216 41.528 157.192 41.296C157.176 41.064 157.244 40.868 157.396 40.708C157.652 40.428 157.916 40.108 158.188 39.748C158.468 39.388 158.736 39.012 158.992 38.62C159.248 38.228 159.48 37.848 159.688 37.48C159.904 37.104 160.076 36.764 160.204 36.46C160.308 36.228 160.468 36.076 160.684 36.004C160.908 35.924 161.128 35.932 161.344 36.028C161.576 36.132 161.724 36.288 161.788 36.496C161.852 36.704 161.84 36.916 161.752 37.132C161.656 37.356 161.548 37.588 161.428 37.828C161.308 38.06 161.18 38.296 161.044 38.536V46.144C161.044 46.416 160.96 46.628 160.792 46.78C160.624 46.94 160.416 47.02 160.168 47.02Z" fill="#284877"/>
<path d="M148.192 47.1159C147.96 47.1159 147.76 47.0399 147.592 46.8879C147.432 46.7359 147.352 46.5319 147.352 46.2759V43.7439C147.232 43.7839 147.12 43.8239 147.016 43.8639C146.912 43.8959 146.816 43.9279 146.728 43.9599C146.424 44.0639 146.16 44.0639 145.936 43.9599C145.72 43.8479 145.572 43.6679 145.492 43.4199C145.412 43.1719 145.424 42.9479 145.528 42.7479C145.64 42.5399 145.84 42.3959 146.128 42.3159C146.296 42.2599 146.484 42.1999 146.692 42.1359C146.908 42.0719 147.128 41.9999 147.352 41.9199V39.5799H146.896C146.872 39.7319 146.848 39.8759 146.824 40.0119C146.808 40.1479 146.788 40.2719 146.764 40.3839C146.708 40.6319 146.592 40.8079 146.416 40.9119C146.24 41.0159 146.036 41.0519 145.804 41.0199C145.596 40.9879 145.428 40.8879 145.3 40.7199C145.172 40.5519 145.136 40.3519 145.192 40.1199C145.248 39.8799 145.3 39.6039 145.348 39.2919C145.396 38.9719 145.44 38.6559 145.48 38.3439C145.52 38.0239 145.548 37.7399 145.564 37.4919C145.588 37.2519 145.684 37.0759 145.852 36.9639C146.02 36.8439 146.212 36.7959 146.428 36.8199C146.652 36.8439 146.828 36.9279 146.956 37.0719C147.092 37.2079 147.148 37.3999 147.124 37.6479C147.124 37.7679 147.112 37.8999 147.088 38.0439H147.352V36.6159C147.352 36.3599 147.432 36.1559 147.592 36.0039C147.76 35.8519 147.96 35.7759 148.192 35.7759C148.424 35.7759 148.624 35.8519 148.792 36.0039C148.96 36.1559 149.044 36.3599 149.044 36.6159V38.0439H149.404C149.62 38.0439 149.804 38.1199 149.956 38.2719C150.108 38.4239 150.184 38.6039 150.184 38.8119C150.184 39.0199 150.108 39.1999 149.956 39.3519C149.804 39.5039 149.62 39.5799 149.404 39.5799H149.044V41.3439L149.404 41.2119C149.588 41.1479 149.772 41.1559 149.956 41.2359C150.148 41.3079 150.276 41.4519 150.34 41.6679C150.356 41.6919 150.364 41.7159 150.364 41.7399C150.372 41.7639 150.38 41.7879 150.388 41.8119C150.532 41.7079 150.688 41.6559 150.856 41.6559H153.52V40.9239H150.376C150.168 40.9239 149.988 40.8519 149.836 40.7079C149.684 40.5559 149.608 40.3759 149.608 40.1679C149.608 39.9599 149.684 39.7799 149.836 39.6279C149.988 39.4759 150.168 39.3999 150.376 39.3999H152.14V38.6319H150.928C150.72 38.6319 150.54 38.5559 150.388 38.4039C150.244 38.2519 150.172 38.0759 150.172 37.8759C150.172 37.6679 150.244 37.4879 150.388 37.3359C150.54 37.1839 150.72 37.1079 150.928 37.1079H152.14V36.6519C152.14 36.3799 152.224 36.1679 152.392 36.0159C152.568 35.8559 152.78 35.7759 153.028 35.7759C153.276 35.7759 153.484 35.8559 153.652 36.0159C153.828 36.1679 153.916 36.3799 153.916 36.6519V37.1079H155.344C155.552 37.1079 155.728 37.1839 155.872 37.3359C156.024 37.4879 156.1 37.6679 156.1 37.8759C156.1 38.0759 156.024 38.2519 155.872 38.4039C155.728 38.5559 155.552 38.6319 155.344 38.6319H153.916V39.3999H155.932C156.14 39.3999 156.316 39.4759 156.46 39.6279C156.612 39.7799 156.688 39.9599 156.688 40.1679C156.688 40.3759 156.612 40.5559 156.46 40.7079C156.316 40.8519 156.14 40.9239 155.932 40.9239H155.224V41.6559H155.848C156.056 41.6559 156.236 41.7319 156.388 41.8839C156.54 42.0359 156.616 42.2159 156.616 42.4239C156.616 42.6399 156.54 42.8239 156.388 42.9759C156.236 43.1279 156.056 43.2039 155.848 43.2039H155.224V45.1239C155.224 45.8519 155.068 46.3519 154.756 46.6239C154.452 46.8959 153.936 47.0319 153.208 47.0319C152.96 47.0319 152.744 46.9599 152.56 46.8159C152.384 46.6719 152.292 46.4599 152.284 46.1799C152.276 45.9399 152.344 45.7439 152.488 45.5919C152.64 45.4319 152.84 45.3359 153.088 45.3039C153.272 45.2799 153.388 45.2439 153.436 45.1959C153.492 45.1479 153.52 45.0599 153.52 44.9319V43.2039H151.384C151.408 43.2199 151.444 43.2519 151.492 43.2999C151.524 43.3319 151.588 43.3959 151.684 43.4919C151.78 43.5879 151.88 43.6879 151.984 43.7919C152.088 43.8959 152.16 43.9759 152.2 44.0319C152.368 44.2319 152.444 44.4559 152.428 44.7039C152.42 44.9439 152.312 45.1479 152.104 45.3159C151.92 45.4759 151.704 45.5519 151.456 45.5439C151.208 45.5359 151.008 45.4359 150.856 45.2439C150.824 45.1959 150.756 45.1159 150.652 45.0039C150.556 44.8919 150.456 44.7799 150.352 44.6679C150.256 44.5479 150.188 44.4679 150.148 44.4279C149.996 44.2599 149.928 44.0639 149.944 43.8399C149.96 43.6079 150.056 43.4159 150.232 43.2639C150.272 43.2239 150.312 43.1919 150.352 43.1679C150.392 43.1439 150.432 43.1199 150.472 43.0959C150.28 42.9999 150.156 42.8319 150.1 42.5919C150.068 42.6159 150.032 42.6399 149.992 42.6639C149.952 42.6879 149.912 42.7079 149.872 42.7239C149.76 42.7719 149.632 42.8279 149.488 42.8919C149.352 42.9479 149.204 43.0079 149.044 43.0719V46.2759C149.044 46.5319 148.96 46.7359 148.792 46.8879C148.624 47.0399 148.424 47.1159 148.192 47.1159Z" fill="#284877"/>
<path d="M135.688 46.396C135.448 46.436 135.224 46.384 135.016 46.24C134.816 46.104 134.696 45.916 134.656 45.676C134.576 45.26 134.516 44.78 134.476 44.236C134.444 43.692 134.424 43.12 134.416 42.52C134.416 41.912 134.432 41.3 134.464 40.684C134.496 40.068 134.544 39.48 134.608 38.92C134.68 38.36 134.764 37.856 134.86 37.408C134.916 37.16 135.048 36.972 135.256 36.844C135.464 36.708 135.688 36.668 135.928 36.724C136.168 36.78 136.356 36.912 136.492 37.12C136.628 37.32 136.668 37.544 136.612 37.792C136.492 38.352 136.396 38.964 136.324 39.628C136.252 40.284 136.204 40.952 136.18 41.632C136.164 42.312 136.172 42.972 136.204 43.612C136.244 44.252 136.312 44.832 136.408 45.352C136.448 45.6 136.4 45.824 136.264 46.024C136.128 46.224 135.936 46.348 135.688 46.396ZM140.584 45.784C139.536 45.784 138.748 45.604 138.22 45.244C137.692 44.876 137.356 44.292 137.212 43.492C137.172 43.244 137.22 43.02 137.356 42.82C137.5 42.612 137.696 42.488 137.944 42.448C138.184 42.408 138.404 42.46 138.604 42.604C138.804 42.74 138.928 42.932 138.976 43.18C139.032 43.452 139.176 43.66 139.408 43.804C139.64 43.948 140.056 44.02 140.656 44.02C140.96 44.02 141.28 43.996 141.616 43.948C141.952 43.9 142.332 43.832 142.756 43.744C142.996 43.688 143.216 43.728 143.416 43.864C143.624 44 143.756 44.192 143.812 44.44C143.86 44.68 143.816 44.9 143.68 45.1C143.544 45.3 143.356 45.432 143.116 45.496C142.668 45.6 142.224 45.676 141.784 45.724C141.352 45.764 140.952 45.784 140.584 45.784ZM138.472 39.784C138.232 39.824 138.008 39.776 137.8 39.64C137.6 39.504 137.476 39.316 137.428 39.076C137.38 38.836 137.424 38.612 137.56 38.404C137.696 38.196 137.884 38.072 138.124 38.032C138.612 37.936 139.132 37.872 139.684 37.84C140.236 37.808 140.78 37.804 141.316 37.828C141.852 37.852 142.336 37.9 142.768 37.972C143.008 38.004 143.196 38.124 143.332 38.332C143.468 38.54 143.516 38.764 143.476 39.004C143.436 39.26 143.312 39.456 143.104 39.592C142.904 39.72 142.684 39.764 142.444 39.724C141.828 39.62 141.172 39.572 140.476 39.58C139.78 39.588 139.112 39.656 138.472 39.784Z" fill="#284877"/>
<path d="M124.3 47.08C124.124 47.08 123.972 47.02 123.844 46.9C123.716 46.788 123.652 46.632 123.652 46.432V44.68C123.452 44.76 123.216 44.848 122.944 44.944C122.672 45.04 122.448 45.12 122.272 45.184C122.032 45.264 121.828 45.26 121.66 45.172C121.492 45.076 121.376 44.928 121.312 44.728C121.24 44.504 121.248 44.308 121.336 44.14C121.432 43.972 121.604 43.856 121.852 43.792V37.732C121.652 37.716 121.492 37.644 121.372 37.516C121.26 37.38 121.204 37.224 121.204 37.048C121.204 36.856 121.264 36.692 121.384 36.556C121.512 36.42 121.68 36.352 121.888 36.352H124.924C125.132 36.352 125.296 36.42 125.416 36.556C125.544 36.692 125.608 36.856 125.608 37.048C125.608 37.088 125.604 37.12 125.596 37.144C125.612 37.136 125.632 37.132 125.656 37.132C125.68 37.132 125.7 37.132 125.716 37.132H126.388V36.568C126.388 36.336 126.452 36.156 126.58 36.028C126.716 35.9 126.896 35.836 127.12 35.836C127.352 35.836 127.532 35.9 127.66 36.028C127.788 36.156 127.852 36.336 127.852 36.568V37.132H128.536C128.744 37.132 128.904 37.196 129.016 37.324C129.128 37.444 129.184 37.596 129.184 37.78C129.184 37.956 129.128 38.108 129.016 38.236C128.904 38.364 128.744 38.428 128.536 38.428H128.524C128.676 38.484 128.78 38.584 128.836 38.728C128.9 38.872 128.9 39.036 128.836 39.22C128.812 39.284 128.764 39.404 128.692 39.58C128.628 39.756 128.564 39.924 128.5 40.084H129.28C129.256 39.548 129.24 38.984 129.232 38.392C129.224 37.792 129.22 37.16 129.22 36.496C129.22 36.28 129.292 36.112 129.436 35.992C129.58 35.872 129.752 35.812 129.952 35.812C130.144 35.812 130.308 35.876 130.444 36.004C130.58 36.132 130.644 36.304 130.636 36.52V37.66C130.66 37.572 130.7 37.488 130.756 37.408C130.812 37.328 130.884 37.268 130.972 37.228C131.148 37.14 131.324 37.12 131.5 37.168C131.684 37.208 131.824 37.316 131.92 37.492C131.96 37.564 132.012 37.664 132.076 37.792C132.14 37.912 132.2 38.032 132.256 38.152C132.32 38.264 132.364 38.352 132.388 38.416C132.484 38.616 132.496 38.796 132.424 38.956C132.36 39.116 132.244 39.24 132.076 39.328C131.9 39.416 131.72 39.436 131.536 39.388C131.36 39.34 131.228 39.22 131.14 39.028C131.124 38.988 131.088 38.912 131.032 38.8C130.976 38.688 130.916 38.572 130.852 38.452C130.796 38.324 130.744 38.22 130.696 38.14C130.688 38.108 130.676 38.08 130.66 38.056C130.652 38.032 130.644 38.004 130.636 37.972C130.636 38.716 130.648 39.42 130.672 40.084H132.004C132.212 40.084 132.372 40.148 132.484 40.276C132.604 40.404 132.664 40.56 132.664 40.744C132.664 40.928 132.604 41.088 132.484 41.224C132.372 41.352 132.212 41.416 132.004 41.416H130.732C130.748 41.6 130.764 41.78 130.78 41.956C130.796 42.132 130.812 42.304 130.828 42.472C130.868 42.408 130.904 42.348 130.936 42.292C130.968 42.228 131 42.164 131.032 42.1C131.128 41.916 131.264 41.796 131.44 41.74C131.624 41.684 131.804 41.7 131.98 41.788C132.156 41.876 132.276 42.008 132.34 42.184C132.404 42.352 132.384 42.532 132.28 42.724C132.128 43.004 131.96 43.28 131.776 43.552C131.6 43.824 131.408 44.088 131.2 44.344C131.232 44.424 131.26 44.508 131.284 44.596C131.316 44.676 131.348 44.752 131.38 44.824C131.42 44.904 131.46 44.944 131.5 44.944C131.54 44.936 131.576 44.892 131.608 44.812C131.616 44.796 131.628 44.764 131.644 44.716C131.66 44.66 131.672 44.628 131.68 44.62C131.728 44.46 131.832 44.348 131.992 44.284C132.152 44.22 132.32 44.22 132.496 44.284C132.656 44.34 132.776 44.432 132.856 44.56C132.936 44.688 132.956 44.852 132.916 45.052C132.884 45.204 132.824 45.404 132.736 45.652C132.648 45.892 132.556 46.112 132.46 46.312C132.26 46.736 131.988 46.956 131.644 46.972C131.308 46.996 131 46.812 130.72 46.42C130.616 46.284 130.52 46.14 130.432 45.988C130.352 45.828 130.272 45.664 130.192 45.496C129.672 46.016 129.148 46.448 128.62 46.792C128.444 46.904 128.256 46.94 128.056 46.9C127.864 46.868 127.712 46.764 127.6 46.588C127.504 46.436 127.464 46.28 127.48 46.12C127.496 45.968 127.568 45.84 127.696 45.736C127.624 45.744 127.552 45.748 127.48 45.748C127.408 45.748 127.328 45.748 127.24 45.748C126.552 45.748 126.08 45.636 125.824 45.412C125.576 45.18 125.452 44.784 125.452 44.224V43.276C125.452 42.884 125.504 42.58 125.608 42.364C125.72 42.14 125.904 41.984 126.16 41.896C126.424 41.8 126.784 41.752 127.24 41.752C127.704 41.752 128.064 41.8 128.32 41.896C128.576 41.984 128.756 42.14 128.86 42.364C128.972 42.58 129.028 42.884 129.028 43.276V44.224C129.028 44.32 129.024 44.412 129.016 44.5C129.008 44.588 128.996 44.672 128.98 44.752C129.116 44.64 129.244 44.524 129.364 44.404C129.484 44.276 129.6 44.148 129.712 44.02C129.624 43.644 129.552 43.24 129.496 42.808C129.44 42.368 129.392 41.904 129.352 41.416H125.56C125.408 41.416 125.28 41.38 125.176 41.308C125.072 41.228 124.996 41.132 124.948 41.02V46.432C124.948 46.632 124.884 46.788 124.756 46.9C124.636 47.02 124.484 47.08 124.3 47.08ZM124.948 40.48C124.996 40.368 125.072 40.276 125.176 40.204C125.28 40.124 125.408 40.084 125.56 40.084H125.944C125.864 40.012 125.8 39.92 125.752 39.808C125.736 39.76 125.7 39.664 125.644 39.52C125.596 39.368 125.564 39.268 125.548 39.22C125.492 39.06 125.5 38.908 125.572 38.764C125.644 38.612 125.76 38.504 125.92 38.44C125.936 38.44 125.952 38.44 125.968 38.44C125.984 38.432 125.996 38.428 126.004 38.428H125.716C125.516 38.428 125.356 38.364 125.236 38.236C125.124 38.108 125.068 37.956 125.068 37.78V37.72C125.044 37.728 125.004 37.732 124.948 37.732V40.48ZM126.736 40.084H127.12C127.16 39.988 127.208 39.856 127.264 39.688C127.328 39.512 127.388 39.34 127.444 39.172C127.508 38.996 127.552 38.876 127.576 38.812C127.608 38.716 127.652 38.636 127.708 38.572C127.764 38.508 127.828 38.46 127.9 38.428H126.34C126.428 38.452 126.508 38.496 126.58 38.56C126.66 38.616 126.716 38.696 126.748 38.8C126.764 38.848 126.796 38.944 126.844 39.088C126.9 39.224 126.936 39.316 126.952 39.364C127.008 39.516 127.012 39.656 126.964 39.784C126.924 39.912 126.848 40.012 126.736 40.084ZM123.148 41.104H123.652V40.072H123.148V41.104ZM123.148 38.692H123.652V37.732H123.148V38.692ZM123.148 43.432C123.236 43.4 123.324 43.372 123.412 43.348C123.5 43.324 123.58 43.3 123.652 43.276V42.484H123.148V43.432ZM127.24 44.644C127.376 44.644 127.472 44.62 127.528 44.572C127.584 44.524 127.612 44.416 127.612 44.248H126.856C126.864 44.416 126.896 44.524 126.952 44.572C127.008 44.62 127.104 44.644 127.24 44.644ZM126.856 43.252H127.612C127.612 43.084 127.584 42.976 127.528 42.928C127.472 42.88 127.376 42.856 127.24 42.856C127.104 42.856 127.008 42.88 126.952 42.928C126.896 42.976 126.864 43.084 126.856 43.252Z" fill="#284877"/>
<path d="M112.324 47.056C112.124 47.056 111.956 46.992 111.82 46.864C111.684 46.744 111.616 46.576 111.616 46.36V45.208H110.152C109.952 45.208 109.78 45.136 109.636 44.992C109.492 44.848 109.42 44.676 109.42 44.476C109.42 44.268 109.492 44.096 109.636 43.96C109.78 43.816 109.952 43.744 110.152 43.744H111.616V43.276C110.976 43.244 110.516 43.096 110.236 42.832C109.956 42.56 109.816 42.088 109.816 41.416V40.612C109.816 39.932 109.956 39.46 110.236 39.196C110.516 38.924 110.976 38.776 111.616 38.752V38.308H110.104C109.92 38.308 109.76 38.244 109.624 38.116C109.488 37.98 109.42 37.816 109.42 37.624C109.42 37.432 109.488 37.268 109.624 37.132C109.76 36.996 109.92 36.928 110.104 36.928H111.616V36.508C111.616 36.292 111.684 36.124 111.82 36.004C111.956 35.876 112.124 35.812 112.324 35.812C112.516 35.812 112.68 35.876 112.816 36.004C112.952 36.124 113.02 36.292 113.02 36.508V36.928H114.364C114.548 36.928 114.708 36.996 114.844 37.132C114.98 37.268 115.048 37.432 115.048 37.624C115.048 37.816 114.98 37.98 114.844 38.116C114.708 38.244 114.548 38.308 114.364 38.308H113.02V38.752C113.668 38.776 114.128 38.924 114.4 39.196C114.68 39.46 114.82 39.932 114.82 40.612V41.416C114.82 42.096 114.68 42.568 114.4 42.832C114.128 43.096 113.668 43.244 113.02 43.276V43.744H114.304C114.512 43.744 114.684 43.816 114.82 43.96C114.964 44.096 115.036 44.268 115.036 44.476C115.036 44.596 115.016 44.696 114.976 44.776C115.056 44.744 115.148 44.72 115.252 44.704C115.388 44.688 115.524 44.676 115.66 44.668C115.716 44.468 115.78 44.228 115.852 43.948C115.924 43.668 115.996 43.376 116.068 43.072C116.148 42.76 116.22 42.46 116.284 42.172C116.356 41.884 116.416 41.632 116.464 41.416H115.684C115.476 41.416 115.296 41.344 115.144 41.2C115 41.048 114.928 40.864 114.928 40.648C114.928 40.44 115 40.26 115.144 40.108C115.296 39.956 115.476 39.88 115.684 39.88H119.8C120.008 39.88 120.188 39.956 120.34 40.108C120.492 40.26 120.568 40.44 120.568 40.648C120.568 40.864 120.492 41.048 120.34 41.2C120.188 41.344 120.008 41.416 119.8 41.416H118.12C118.056 41.688 117.976 42.008 117.88 42.376C117.784 42.744 117.684 43.112 117.58 43.48C117.484 43.848 117.396 44.168 117.316 44.44C117.5 44.416 117.68 44.392 117.856 44.368C118.04 44.336 118.212 44.308 118.372 44.284C118.324 44.172 118.276 44.064 118.228 43.96C118.188 43.856 118.148 43.756 118.108 43.66C118.012 43.452 118.008 43.256 118.096 43.072C118.184 42.888 118.316 42.76 118.492 42.688C118.716 42.6 118.924 42.588 119.116 42.652C119.308 42.708 119.456 42.844 119.56 43.06C119.664 43.26 119.78 43.512 119.908 43.816C120.036 44.112 120.16 44.416 120.28 44.728C120.408 45.032 120.512 45.3 120.592 45.532C120.68 45.756 120.684 45.96 120.604 46.144C120.524 46.336 120.364 46.48 120.124 46.576C119.884 46.664 119.664 46.66 119.464 46.564C119.264 46.468 119.128 46.312 119.056 46.096C119.032 46.032 119.008 45.96 118.984 45.88C118.96 45.8 118.932 45.72 118.9 45.64C118.58 45.704 118.208 45.78 117.784 45.868C117.36 45.948 116.944 46.024 116.536 46.096C116.128 46.176 115.784 46.244 115.504 46.3C115.248 46.348 115.028 46.308 114.844 46.18C114.66 46.052 114.548 45.864 114.508 45.616C114.484 45.448 114.504 45.296 114.568 45.16C114.496 45.192 114.408 45.208 114.304 45.208H113.02V46.36C113.02 46.576 112.952 46.744 112.816 46.864C112.68 46.992 112.516 47.056 112.324 47.056ZM115.936 38.32C115.736 38.32 115.56 38.248 115.408 38.104C115.264 37.952 115.192 37.772 115.192 37.564C115.192 37.356 115.264 37.18 115.408 37.036C115.56 36.892 115.736 36.82 115.936 36.82H119.44C119.648 36.82 119.824 36.892 119.968 37.036C120.12 37.18 120.196 37.356 120.196 37.564C120.196 37.772 120.12 37.952 119.968 38.104C119.824 38.248 119.648 38.32 119.44 38.32H115.936ZM113.02 40.504H113.452C113.444 40.32 113.408 40.192 113.344 40.12C113.288 40.04 113.18 39.996 113.02 39.988V40.504ZM111.184 40.504H111.616V39.988C111.456 39.996 111.344 40.04 111.28 40.12C111.224 40.192 111.192 40.32 111.184 40.504ZM111.616 42.04V41.524H111.184C111.192 41.7 111.224 41.828 111.28 41.908C111.344 41.98 111.456 42.024 111.616 42.04ZM113.02 42.04C113.18 42.024 113.288 41.98 113.344 41.908C113.408 41.828 113.444 41.7 113.452 41.524H113.02V42.04Z" fill="#284877"/>
<path d="M104.404 46.096C104.164 46.152 103.936 46.12 103.72 46C103.504 45.872 103.364 45.688 103.3 45.448C103.244 45.208 103.28 44.984 103.408 44.776C103.536 44.56 103.716 44.424 103.948 44.368C104.82 44.152 105.436 43.796 105.796 43.3C106.164 42.804 106.348 42.176 106.348 41.416C106.348 40.736 106.132 40.164 105.7 39.7C105.276 39.236 104.672 38.952 103.888 38.848C103.728 40.216 103.468 41.388 103.108 42.364C102.756 43.34 102.34 44.088 101.86 44.608C101.388 45.128 100.892 45.388 100.372 45.388C99.9159 45.388 99.4999 45.26 99.1239 45.004C98.7479 44.748 98.4479 44.38 98.2239 43.9C97.9999 43.412 97.8879 42.82 97.8879 42.124C97.8879 41.452 98.0159 40.82 98.2719 40.228C98.5279 39.628 98.8919 39.1 99.3639 38.644C99.8359 38.18 100.396 37.82 101.044 37.564C101.7 37.3 102.424 37.168 103.216 37.168C103.928 37.168 104.58 37.272 105.172 37.48C105.772 37.68 106.288 37.968 106.72 38.344C107.16 38.72 107.5 39.168 107.74 39.688C107.98 40.208 108.1 40.784 108.1 41.416C108.1 42.624 107.796 43.632 107.188 44.44C106.58 45.24 105.652 45.792 104.404 46.096ZM100.384 43.564C100.52 43.564 100.704 43.376 100.936 43C101.168 42.616 101.4 42.076 101.632 41.38C101.864 40.684 102.04 39.864 102.16 38.92C101.608 39.056 101.144 39.288 100.768 39.616C100.392 39.936 100.108 40.316 99.9159 40.756C99.7319 41.188 99.6359 41.636 99.6279 42.1C99.6199 42.612 99.6839 42.984 99.8199 43.216C99.9639 43.448 100.152 43.564 100.384 43.564Z" fill="#284877"/>
<path d="M90.0519 46.636C89.8039 46.636 89.5919 46.548 89.4159 46.372C89.2399 46.204 89.1479 45.996 89.1399 45.748C89.1319 45.5 89.2119 45.288 89.3799 45.112C89.5559 44.936 89.7679 44.848 90.0159 44.848C91.0959 44.832 91.8999 44.672 92.4279 44.368C92.9639 44.064 93.2319 43.644 93.2319 43.108C93.2319 42.756 93.1079 42.472 92.8599 42.256C92.6119 42.032 92.2559 41.92 91.7919 41.92C91.4559 41.92 91.1079 41.98 90.7479 42.1C90.3959 42.22 90.0559 42.392 89.7279 42.616C89.4079 42.832 89.1279 43.092 88.8879 43.396C88.7599 43.548 88.5879 43.64 88.3719 43.672C88.1559 43.704 87.9639 43.676 87.7959 43.588C87.6199 43.5 87.4919 43.368 87.4119 43.192C87.3399 43.016 87.3199 42.832 87.3519 42.64C87.4079 42.28 87.4719 41.888 87.5439 41.464C87.6239 41.04 87.7039 40.628 87.7839 40.228C87.8719 39.828 87.9479 39.492 88.0119 39.22C88.0759 38.98 88.2119 38.796 88.4199 38.668C88.6359 38.54 88.8599 38.508 89.0919 38.572C89.3319 38.628 89.5159 38.764 89.6439 38.98C89.7719 39.196 89.8039 39.424 89.7399 39.664C89.6439 40.072 89.5279 40.512 89.3919 40.984C89.7919 40.744 90.1959 40.56 90.6039 40.432C91.0119 40.296 91.4279 40.228 91.8519 40.228C92.4999 40.228 93.0599 40.348 93.5319 40.588C94.0039 40.82 94.3679 41.152 94.6239 41.584C94.8799 42.008 95.0079 42.516 95.0079 43.108C95.0079 44.196 94.5799 45.052 93.7239 45.676C92.8759 46.292 91.6519 46.612 90.0519 46.636ZM91.8999 39.052C91.6599 38.932 91.3799 38.8 91.0599 38.656C90.7479 38.504 90.4279 38.36 90.0999 38.224C89.7719 38.08 89.4679 37.956 89.1879 37.852C88.9639 37.764 88.8119 37.6 88.7319 37.36C88.6519 37.12 88.6639 36.888 88.7679 36.664C88.8799 36.44 89.0479 36.292 89.2719 36.22C89.5039 36.148 89.7359 36.156 89.9679 36.244C90.3919 36.404 90.8319 36.584 91.2879 36.784C91.7439 36.984 92.1799 37.192 92.5959 37.408C92.8119 37.512 92.9679 37.676 93.0639 37.9C93.1599 38.116 93.1599 38.34 93.0639 38.572C92.9759 38.796 92.8159 38.96 92.5839 39.064C92.3519 39.16 92.1239 39.156 91.8999 39.052Z" fill="#284877"/>
<path d="M77.3319 46.4559C77.0839 46.4159 76.8839 46.2999 76.7319 46.1079C76.5879 45.9159 76.5319 45.6959 76.5639 45.4479C76.5959 45.1999 76.7079 45.0039 76.8999 44.8599C77.0999 44.7079 77.3199 44.6479 77.5599 44.6799C77.8079 44.7119 78.0199 44.7199 78.1959 44.7039C78.3799 44.6799 78.5319 44.5999 78.6519 44.4639C78.7799 44.3199 78.8879 44.0959 78.9759 43.7919C79.0719 43.4879 79.1559 43.0679 79.2279 42.5319C79.2999 42.0439 79.3079 41.6759 79.2519 41.4279C79.1959 41.1799 79.0679 41.0159 78.8679 40.9359C78.6679 40.8479 78.3839 40.8159 78.0159 40.8399C77.7199 41.8559 77.3479 42.8399 76.8999 43.7919C76.4599 44.7439 75.9679 45.5519 75.4239 46.2159C75.2719 46.3999 75.0719 46.5079 74.8239 46.5399C74.5839 46.5719 74.3679 46.5119 74.1759 46.3599C73.9839 46.2079 73.8719 46.0079 73.8399 45.7599C73.8079 45.5119 73.8679 45.2959 74.0199 45.1119C74.4519 44.5919 74.8519 43.9759 75.2199 43.2639C75.5959 42.5519 75.9199 41.7999 76.1919 41.0079C75.9839 41.0239 75.7759 41.0439 75.5679 41.0679C75.3599 41.0919 75.1639 41.1119 74.9799 41.1279C74.7319 41.1519 74.5119 41.0879 74.3199 40.9359C74.1279 40.7839 74.0199 40.5839 73.9959 40.3359C73.9639 40.0879 74.0239 39.8679 74.1759 39.6759C74.3359 39.4839 74.5399 39.3759 74.7879 39.3519C75.0919 39.3199 75.4039 39.2919 75.7239 39.2679C76.0439 39.2439 76.3639 39.2199 76.6839 39.1959C76.7479 38.8679 76.8039 38.5479 76.8519 38.2359C76.8999 37.9159 76.9319 37.5999 76.9479 37.2879C76.9639 37.0399 77.0639 36.8359 77.2479 36.6759C77.4319 36.5079 77.6479 36.4319 77.8959 36.4479C78.1439 36.4639 78.3519 36.5639 78.5199 36.7479C78.6879 36.9319 78.7599 37.1479 78.7359 37.3959C78.6639 37.9479 78.5679 38.5279 78.4479 39.1359C79.4959 39.1839 80.2159 39.4999 80.6079 40.0839C80.9999 40.6599 81.1159 41.5559 80.9559 42.7719C80.8279 43.8039 80.6159 44.6039 80.3199 45.1719C80.0239 45.7399 79.6319 46.1159 79.1439 46.2999C78.6559 46.4919 78.0519 46.5439 77.3319 46.4559ZM84.1839 42.8799C83.9679 42.9999 83.7399 43.0239 83.4999 42.9519C83.2679 42.8799 83.0919 42.7399 82.9719 42.5319C82.8359 42.2919 82.6639 42.0319 82.4559 41.7519C82.2479 41.4639 82.0319 41.1879 81.8079 40.9239C81.5919 40.6599 81.3919 40.4319 81.2079 40.2399C81.0399 40.0559 80.9479 39.8479 80.9319 39.6159C80.9159 39.3759 80.9919 39.1679 81.1599 38.9919C81.3279 38.8079 81.5359 38.7159 81.7839 38.7159C82.0319 38.7079 82.2439 38.7919 82.4199 38.9679C82.8359 39.3599 83.2279 39.7999 83.5959 40.2879C83.9719 40.7679 84.2839 41.2279 84.5319 41.6679C84.6599 41.8839 84.6879 42.1119 84.6159 42.3519C84.5439 42.5919 84.3999 42.7679 84.1839 42.8799Z" fill="#284877"/>
<path d="M63.4599 46.948C63.2119 47.052 62.9759 47.072 62.7519 47.008C62.5279 46.952 62.3639 46.816 62.2599 46.6C62.1559 46.392 62.1399 46.188 62.2119 45.988C62.2839 45.788 62.4159 45.652 62.6079 45.58C62.8719 45.492 63.1959 45.368 63.5799 45.208C63.9639 45.04 64.3079 44.88 64.6119 44.728C63.9559 44.688 63.4999 44.532 63.2439 44.26C62.9879 43.98 62.8599 43.504 62.8599 42.832V41.068C62.8599 40.572 62.9279 40.188 63.0639 39.916C63.1999 39.636 63.4239 39.44 63.7359 39.328C64.0559 39.216 64.4839 39.16 65.0199 39.16H69.0039C69.5479 39.16 69.9759 39.216 70.2879 39.328C70.5999 39.44 70.8239 39.636 70.9599 39.916C71.0959 40.188 71.1639 40.572 71.1639 41.068V42.832C71.1639 43.504 71.0359 43.98 70.7799 44.26C70.5239 44.532 70.0679 44.688 69.4119 44.728C69.7159 44.88 70.0519 45.032 70.4199 45.184C70.7959 45.336 71.1159 45.456 71.3799 45.544C71.5719 45.616 71.7039 45.756 71.7759 45.964C71.8559 46.164 71.8519 46.368 71.7639 46.576C71.6679 46.8 71.5079 46.944 71.2839 47.008C71.0599 47.072 70.8199 47.052 70.5639 46.948C70.3399 46.852 70.0719 46.732 69.7599 46.588C69.4559 46.452 69.1559 46.304 68.8599 46.144C68.5639 45.992 68.3119 45.848 68.1039 45.712C67.9279 45.592 67.8279 45.444 67.8039 45.268C67.7799 45.084 67.8199 44.908 67.9239 44.74H66.0999C66.2119 44.908 66.2519 45.084 66.2199 45.268C66.1959 45.444 66.0959 45.592 65.9199 45.712C65.7199 45.848 65.4679 45.992 65.1639 46.144C64.8679 46.304 64.5679 46.452 64.2639 46.588C63.9599 46.732 63.6919 46.852 63.4599 46.948ZM64.9239 38.824C64.4919 38.824 64.1519 38.784 63.9039 38.704C63.6559 38.624 63.4799 38.484 63.3759 38.284C63.2719 38.084 63.2199 37.8 63.2199 37.432C63.2199 37.064 63.2719 36.784 63.3759 36.592C63.4799 36.392 63.6559 36.252 63.9039 36.172C64.1519 36.092 64.4919 36.052 64.9239 36.052H69.0879C69.5279 36.052 69.8679 36.092 70.1079 36.172C70.3559 36.252 70.5319 36.392 70.6359 36.592C70.7399 36.784 70.7919 37.064 70.7919 37.432C70.7919 37.8 70.7399 38.084 70.6359 38.284C70.5319 38.484 70.3559 38.624 70.1079 38.704C69.8679 38.784 69.5279 38.824 69.0879 38.824H64.9239ZM64.7199 42.148H69.3039V41.74H64.7199V42.148ZM65.4039 43.564H68.6199C68.8759 43.564 69.0479 43.544 69.1359 43.504C69.2319 43.456 69.2879 43.34 69.3039 43.156H64.7199C64.7359 43.34 64.7879 43.456 64.8759 43.504C64.9719 43.544 65.1479 43.564 65.4039 43.564ZM64.7199 40.732H69.3039C69.2879 40.548 69.2319 40.436 69.1359 40.396C69.0479 40.356 68.8759 40.336 68.6199 40.336H65.4039C65.1479 40.336 64.9719 40.356 64.8759 40.396C64.7879 40.436 64.7359 40.548 64.7199 40.732ZM65.4639 37.66H68.5359C68.7359 37.66 68.8639 37.648 68.9199 37.624C68.9759 37.6 69.0039 37.536 69.0039 37.432C69.0039 37.328 68.9759 37.268 68.9199 37.252C68.8639 37.228 68.7359 37.216 68.5359 37.216H65.4639C65.2639 37.216 65.1359 37.228 65.0799 37.252C65.0319 37.268 65.0079 37.328 65.0079 37.432C65.0079 37.536 65.0319 37.6 65.0799 37.624C65.1359 37.648 65.2639 37.66 65.4639 37.66Z" fill="#284877"/>
<path d="M51.016 47.0919C50.776 47.0999 50.572 47.0279 50.404 46.8759C50.244 46.7239 50.16 46.5279 50.152 46.2879C50.144 46.0639 50.216 45.8719 50.368 45.7119C50.52 45.5439 50.712 45.4519 50.944 45.4359C51.088 45.4279 51.184 45.4039 51.232 45.3639C51.28 45.3159 51.304 45.2319 51.304 45.1119V43.5399C51.184 43.6999 51.068 43.8519 50.956 43.9959C50.844 44.1399 50.736 44.2679 50.632 44.3799C50.48 44.5479 50.292 44.6439 50.068 44.6679C49.844 44.6839 49.644 44.6159 49.468 44.4639C49.316 44.3279 49.236 44.1599 49.228 43.9599C49.22 43.7519 49.284 43.5719 49.42 43.4199C49.548 43.2759 49.696 43.0999 49.864 42.8919C50.032 42.6839 50.2 42.4639 50.368 42.2319C50.544 41.9999 50.708 41.7759 50.86 41.5599C51.02 41.3359 51.152 41.1439 51.256 40.9839H50.068C49.876 40.9839 49.712 40.9159 49.576 40.7799C49.44 40.6359 49.372 40.4679 49.372 40.2759C49.372 40.0839 49.44 39.9199 49.576 39.7839C49.712 39.6399 49.876 39.5679 50.068 39.5679H51.736C51.544 39.4559 51.348 39.3439 51.148 39.2319C50.956 39.1199 50.8 39.0279 50.68 38.9559C50.512 38.8679 50.4 38.7239 50.344 38.5239C50.296 38.3159 50.324 38.1319 50.428 37.9719C50.54 37.7879 50.688 37.6719 50.872 37.6239C51.056 37.5759 51.24 37.5999 51.424 37.6959C51.496 37.7279 51.584 37.7759 51.688 37.8399C51.792 37.8959 51.904 37.9559 52.024 38.0199C52.088 37.9799 52.168 37.9199 52.264 37.8399C52.36 37.7519 52.42 37.6999 52.444 37.6839C52.532 37.6199 52.568 37.5639 52.552 37.5159C52.544 37.4599 52.48 37.4319 52.36 37.4319L50.224 37.4199C50.048 37.4199 49.9 37.3599 49.78 37.2399C49.66 37.1199 49.6 36.9719 49.6 36.7959C49.6 36.6199 49.66 36.4719 49.78 36.3519C49.9 36.2319 50.048 36.1719 50.224 36.1719H53.02C53.38 36.1719 53.664 36.2439 53.872 36.3879C54.088 36.5239 54.224 36.7039 54.28 36.9279C54.344 37.1439 54.328 37.3759 54.232 37.6239C54.136 37.8639 53.956 38.0879 53.692 38.2959C53.596 38.3759 53.504 38.4479 53.416 38.5119C53.336 38.5759 53.256 38.6399 53.176 38.7039C53.312 38.8079 53.404 38.9399 53.452 39.0999C53.5 39.2599 53.492 39.4159 53.428 39.5679H53.548C54.06 39.5679 54.428 39.6759 54.652 39.8919C54.876 40.1079 54.968 40.3959 54.928 40.7559C54.952 40.7399 54.976 40.7279 55 40.7199C55.024 40.7119 55.048 40.7039 55.072 40.6959C55.52 40.5279 55.948 40.3159 56.356 40.0599C56.076 39.7159 55.832 39.3399 55.624 38.9319C55.584 38.9879 55.54 39.0439 55.492 39.0999C55.452 39.1479 55.412 39.1959 55.372 39.2439C55.228 39.4119 55.052 39.5079 54.844 39.5319C54.636 39.5559 54.44 39.4999 54.256 39.3639C54.104 39.2439 54.012 39.0839 53.98 38.8839C53.956 38.6839 54.016 38.5039 54.16 38.3439C54.36 38.1119 54.556 37.8599 54.748 37.5879C54.948 37.3079 55.128 37.0399 55.288 36.7839C55.448 36.5199 55.576 36.2999 55.672 36.1239C55.776 35.9239 55.932 35.7959 56.14 35.7399C56.348 35.6759 56.544 35.6959 56.728 35.7999C56.92 35.9039 57.044 36.0439 57.1 36.2199C57.156 36.3959 57.136 36.5759 57.04 36.7599C57.032 36.7679 57.024 36.7839 57.016 36.8079C57.008 36.8239 57 36.8399 56.992 36.8559H59.944C60.128 36.8559 60.288 36.9239 60.424 37.0599C60.56 37.1959 60.628 37.3559 60.628 37.5399C60.628 37.7239 60.56 37.8839 60.424 38.0199C60.288 38.1559 60.128 38.2239 59.944 38.2239H59.644C59.524 38.5439 59.38 38.8519 59.212 39.1479C59.052 39.4439 58.868 39.7239 58.66 39.9879C59.084 40.2279 59.584 40.4319 60.16 40.5999C60.368 40.6639 60.516 40.7919 60.604 40.9839C60.7 41.1679 60.708 41.3679 60.628 41.5839C60.548 41.8319 60.396 41.9959 60.172 42.0759C59.948 42.1479 59.72 42.1479 59.488 42.0759C58.736 41.8439 58.068 41.5199 57.484 41.1039C57.436 41.1359 57.388 41.1679 57.34 41.1999C57.292 41.2319 57.244 41.2639 57.196 41.2959C57.404 41.3359 57.564 41.4399 57.676 41.6079C57.788 41.7679 57.828 41.9519 57.796 42.1599C57.788 42.2159 57.78 42.2719 57.772 42.3279C57.772 42.3759 57.764 42.4279 57.748 42.4839H58.108C58.612 42.4839 59.008 42.5399 59.296 42.6519C59.584 42.7559 59.784 42.9439 59.896 43.2159C60.008 43.4799 60.044 43.8479 60.004 44.3199C59.996 44.4559 59.98 44.5879 59.956 44.7159C59.94 44.8439 59.912 45.0199 59.872 45.2439C59.736 45.9239 59.492 46.3879 59.14 46.6359C58.796 46.8839 58.312 47.0079 57.688 47.0079C57.44 47.0079 57.232 46.9359 57.064 46.7919C56.904 46.6559 56.816 46.4559 56.8 46.1919C56.792 45.9599 56.864 45.7679 57.016 45.6159C57.176 45.4559 57.368 45.3719 57.592 45.3639C57.8 45.3479 57.952 45.3079 58.048 45.2439C58.144 45.1719 58.22 45.0279 58.276 44.8119C58.292 44.7479 58.304 44.6879 58.312 44.6319C58.328 44.5679 58.34 44.4999 58.348 44.4279C58.388 44.2199 58.376 44.0839 58.312 44.0199C58.248 43.9479 58.116 43.9119 57.916 43.9119H57.364C57.14 44.5359 56.812 45.0999 56.38 45.6039C55.956 46.1079 55.4 46.5159 54.712 46.8279C54.488 46.9239 54.256 46.9599 54.016 46.9359C53.776 46.9119 53.592 46.7879 53.464 46.5639C53.344 46.3559 53.324 46.1399 53.404 45.9159C53.492 45.6919 53.644 45.5399 53.86 45.4599C54.324 45.2759 54.7 45.0559 54.988 44.7999C55.276 44.5439 55.508 44.2479 55.684 43.9119H54.736C54.536 43.9119 54.368 43.8439 54.232 43.7079C54.096 43.5639 54.028 43.3919 54.028 43.1919C54.028 42.9919 54.096 42.8239 54.232 42.6879C54.368 42.5519 54.536 42.4839 54.736 42.4839H56.116C56.132 42.3959 56.144 42.3119 56.152 42.2319C56.16 42.1519 56.168 42.0719 56.176 41.9919C56.184 41.9599 56.188 41.9319 56.188 41.9079C56.196 41.8839 56.204 41.8599 56.212 41.8359C56.124 41.8759 56.032 41.9199 55.936 41.9679C55.84 42.0079 55.744 42.0479 55.648 42.0879C55.424 42.1679 55.216 42.1799 55.024 42.1239C54.84 42.0599 54.7 41.9399 54.604 41.7639C54.548 41.8919 54.488 42.0239 54.424 42.1599C54.368 42.2879 54.32 42.3999 54.28 42.4959C54.192 42.6879 54.052 42.8239 53.86 42.9039C53.668 42.9759 53.476 42.9719 53.284 42.8919C53.084 42.8039 52.952 42.6599 52.888 42.4599V45.2799C52.888 45.9519 52.74 46.4199 52.444 46.6839C52.148 46.9479 51.672 47.0839 51.016 47.0919ZM57.496 39.0519C57.712 38.7879 57.892 38.5119 58.036 38.2239H56.92C57.008 38.3759 57.1 38.5239 57.196 38.6679C57.292 38.8039 57.392 38.9319 57.496 39.0519ZM52.888 41.9919C52.888 41.9759 52.892 41.9639 52.9 41.9559C52.908 41.9479 52.932 41.8999 52.972 41.8119C53.012 41.7239 53.052 41.6359 53.092 41.5479C53.132 41.4519 53.152 41.3999 53.152 41.3919C53.224 41.2159 53.24 41.1039 53.2 41.0559C53.168 41.0079 53.072 40.9839 52.912 40.9839H52.888V41.9919Z" fill="#284877"/>
<path d="M47.428 46.576C47.212 46.728 46.964 46.78 46.684 46.732C46.412 46.684 46.208 46.552 46.072 46.336C46.016 46.248 45.952 46.152 45.88 46.048C45.816 45.944 45.748 45.836 45.676 45.724C45.316 45.772 44.9 45.824 44.428 45.88C43.964 45.936 43.472 45.992 42.952 46.048C42.44 46.112 41.932 46.172 41.428 46.228C40.932 46.284 40.468 46.332 40.036 46.372C39.604 46.42 39.24 46.46 38.944 46.492C38.648 46.524 38.404 46.464 38.212 46.312C38.028 46.168 37.924 45.96 37.9 45.688C37.876 45.456 37.94 45.256 38.092 45.088C38.244 44.912 38.456 44.812 38.728 44.788C39.008 44.772 39.328 44.748 39.688 44.716C39.848 44.412 40.024 44.06 40.216 43.66C40.408 43.26 40.604 42.848 40.804 42.424C41.004 42 41.188 41.596 41.356 41.212C41.532 40.82 41.672 40.492 41.776 40.228C41.864 39.988 42.024 39.82 42.256 39.724C42.488 39.62 42.724 39.612 42.964 39.7C43.204 39.788 43.376 39.948 43.48 40.18C43.592 40.412 43.592 40.644 43.48 40.876C43.352 41.172 43.184 41.532 42.976 41.956C42.776 42.38 42.564 42.82 42.34 43.276C42.116 43.732 41.9 44.156 41.692 44.548C42.196 44.508 42.7 44.464 43.204 44.416C43.708 44.368 44.172 44.324 44.596 44.284C44.452 44.1 44.312 43.928 44.176 43.768C44.04 43.6 43.916 43.452 43.804 43.324C43.652 43.156 43.58 42.956 43.588 42.724C43.596 42.484 43.684 42.292 43.852 42.148C44.036 41.988 44.244 41.912 44.476 41.92C44.708 41.92 44.912 42.008 45.088 42.184C45.352 42.448 45.64 42.764 45.952 43.132C46.272 43.5 46.58 43.872 46.876 44.248C47.172 44.616 47.42 44.94 47.62 45.22C47.78 45.444 47.844 45.688 47.812 45.952C47.78 46.208 47.652 46.416 47.428 46.576ZM47.152 42.064C46.552 41.576 45.996 41.02 45.484 40.396C44.972 39.764 44.556 39.148 44.236 38.548C44.148 38.38 44.068 38.256 43.996 38.176C43.932 38.096 43.848 38.044 43.744 38.02C43.64 37.996 43.484 37.984 43.276 37.984H42.568C42.352 37.984 42.164 37.904 42.004 37.744C41.852 37.584 41.776 37.396 41.776 37.18C41.776 36.956 41.852 36.764 42.004 36.604C42.164 36.444 42.352 36.364 42.568 36.364H43.276C43.764 36.364 44.152 36.4 44.44 36.472C44.728 36.544 44.968 36.676 45.16 36.868C45.352 37.06 45.548 37.332 45.748 37.684C46.028 38.172 46.392 38.672 46.84 39.184C47.288 39.696 47.792 40.164 48.352 40.588C48.568 40.74 48.7 40.952 48.748 41.224C48.804 41.488 48.744 41.724 48.568 41.932C48.392 42.148 48.164 42.268 47.884 42.292C47.612 42.316 47.368 42.24 47.152 42.064ZM37.588 42.184C37.412 42.008 37.324 41.8 37.324 41.56C37.332 41.312 37.432 41.092 37.624 40.9C37.832 40.692 38.044 40.452 38.26 40.18C38.484 39.9 38.7 39.612 38.908 39.316C39.124 39.012 39.32 38.72 39.496 38.44C39.672 38.16 39.812 37.908 39.916 37.684C40.028 37.444 40.2 37.292 40.432 37.228C40.664 37.156 40.888 37.176 41.104 37.288C41.328 37.408 41.476 37.576 41.548 37.792C41.628 38.008 41.612 38.228 41.5 38.452C41.292 38.892 41.048 39.336 40.768 39.784C40.488 40.224 40.196 40.64 39.892 41.032C39.588 41.424 39.292 41.772 39.004 42.076C38.82 42.276 38.592 42.396 38.32 42.436C38.048 42.468 37.804 42.384 37.588 42.184Z" fill="#284877"/>
</svg>
