<svg width="271" height="39" viewBox="0 0 271 39" fill="none" xmlns="http://www.w3.org/2000/svg">
<path d="M3.932 15.408C3.66533 15.408 3.44133 15.3227 3.26 15.152C3.07867 14.992 2.988 14.768 2.988 14.48V12.944H1.036C0.769333 12.944 0.54 12.848 0.348 12.656C0.156 12.464 0.06 12.2347 0.06 11.968C0.06 11.6907 0.156 11.4613 0.348 11.28C0.54 11.088 0.769333 10.992 1.036 10.992H2.988V10.368C2.13467 10.3253 1.52133 10.128 1.148 9.776C0.774667 9.41333 0.588 8.784 0.588 7.888V6.816C0.588 5.90933 0.774667 5.28 1.148 4.928C1.52133 4.56533 2.13467 4.368 2.988 4.336V3.744H0.972C0.726667 3.744 0.513333 3.65867 0.332 3.488C0.150667 3.30667 0.06 3.088 0.06 2.832C0.06 2.576 0.150667 2.35733 0.332 2.176C0.513333 1.99467 0.726667 1.904 0.972 1.904H2.988V1.344C2.988 1.056 3.07867 0.831999 3.26 0.671999C3.44133 0.501333 3.66533 0.415999 3.932 0.415999C4.188 0.415999 4.40667 0.501333 4.588 0.671999C4.76933 0.831999 4.86 1.056 4.86 1.344V1.904H6.652C6.89733 1.904 7.11067 1.99467 7.292 2.176C7.47333 2.35733 7.564 2.576 7.564 2.832C7.564 3.088 7.47333 3.30667 7.292 3.488C7.11067 3.65867 6.89733 3.744 6.652 3.744H4.86V4.336C5.724 4.368 6.33733 4.56533 6.7 4.928C7.07333 5.28 7.26 5.90933 7.26 6.816V7.888C7.26 8.79467 7.07333 9.424 6.7 9.776C6.33733 10.128 5.724 10.3253 4.86 10.368V10.992H6.572C6.84933 10.992 7.07867 11.088 7.26 11.28C7.452 11.4613 7.548 11.6907 7.548 11.968C7.548 12.128 7.52133 12.2613 7.468 12.368C7.57467 12.3253 7.69733 12.2933 7.836 12.272C8.01733 12.2507 8.19867 12.2347 8.38 12.224C8.45467 11.9573 8.54 11.6373 8.636 11.264C8.732 10.8907 8.828 10.5013 8.924 10.096C9.03067 9.68 9.12667 9.28 9.212 8.896C9.308 8.512 9.388 8.176 9.452 7.888H8.412C8.13467 7.888 7.89467 7.792 7.692 7.6C7.5 7.39733 7.404 7.152 7.404 6.864C7.404 6.58667 7.5 6.34667 7.692 6.144C7.89467 5.94133 8.13467 5.84 8.412 5.84H13.9C14.1773 5.84 14.4173 5.94133 14.62 6.144C14.8227 6.34667 14.924 6.58667 14.924 6.864C14.924 7.152 14.8227 7.39733 14.62 7.6C14.4173 7.792 14.1773 7.888 13.9 7.888H11.66C11.5747 8.25067 11.468 8.67733 11.34 9.168C11.212 9.65867 11.0787 10.1493 10.94 10.64C10.812 11.1307 10.6947 11.5573 10.588 11.92C10.8333 11.888 11.0733 11.856 11.308 11.824C11.5533 11.7813 11.7827 11.744 11.996 11.712C11.932 11.5627 11.868 11.4187 11.804 11.28C11.7507 11.1413 11.6973 11.008 11.644 10.88C11.516 10.6027 11.5107 10.3413 11.628 10.096C11.7453 9.85067 11.9213 9.68 12.156 9.584C12.4547 9.46667 12.732 9.45067 12.988 9.536C13.244 9.61067 13.4413 9.792 13.58 10.08C13.7187 10.3467 13.8733 10.6827 14.044 11.088C14.2147 11.4827 14.38 11.888 14.54 12.304C14.7107 12.7093 14.8493 13.0667 14.956 13.376C15.0733 13.6747 15.0787 13.9467 14.972 14.192C14.8653 14.448 14.652 14.64 14.332 14.768C14.012 14.8853 13.7187 14.88 13.452 14.752C13.1853 14.624 13.004 14.416 12.908 14.128C12.876 14.0427 12.844 13.9467 12.812 13.84C12.78 13.7333 12.7427 13.6267 12.7 13.52C12.2733 13.6053 11.7773 13.7067 11.212 13.824C10.6467 13.9307 10.092 14.032 9.548 14.128C9.004 14.2347 8.54533 14.3253 8.172 14.4C7.83067 14.464 7.53733 14.4107 7.292 14.24C7.04667 14.0693 6.89733 13.8187 6.844 13.488C6.812 13.264 6.83867 13.0613 6.924 12.88C6.828 12.9227 6.71067 12.944 6.572 12.944H4.86V14.48C4.86 14.768 4.76933 14.992 4.588 15.152C4.40667 15.3227 4.188 15.408 3.932 15.408ZM8.748 3.76C8.48133 3.76 8.24667 3.664 8.044 3.472C7.852 3.26933 7.756 3.02933 7.756 2.752C7.756 2.47467 7.852 2.24 8.044 2.048C8.24667 1.856 8.48133 1.76 8.748 1.76H13.42C13.6973 1.76 13.932 1.856 14.124 2.048C14.3267 2.24 14.428 2.47467 14.428 2.752C14.428 3.02933 14.3267 3.26933 14.124 3.472C13.932 3.664 13.6973 3.76 13.42 3.76H8.748ZM4.86 6.672H5.436C5.42533 6.42667 5.37733 6.256 5.292 6.16C5.21733 6.05333 5.07333 5.99467 4.86 5.984V6.672ZM2.412 6.672H2.988V5.984C2.77467 5.99467 2.62533 6.05333 2.54 6.16C2.46533 6.256 2.42267 6.42667 2.412 6.672ZM2.988 8.72V8.032H2.412C2.42267 8.26667 2.46533 8.43733 2.54 8.544C2.62533 8.64 2.77467 8.69867 2.988 8.72ZM4.86 8.72C5.07333 8.69867 5.21733 8.64 5.292 8.544C5.37733 8.43733 5.42533 8.26667 5.436 8.032H4.86V8.72ZM19.9 15.44C19.6653 15.44 19.4627 15.36 19.292 15.2C19.1213 15.0507 19.036 14.8427 19.036 14.576V12.24C18.7693 12.3467 18.4547 12.464 18.092 12.592C17.7293 12.72 17.4307 12.8267 17.196 12.912C16.876 13.0187 16.604 13.0133 16.38 12.896C16.156 12.768 16.0013 12.5707 15.916 12.304C15.82 12.0053 15.8307 11.744 15.948 11.52C16.076 11.296 16.3053 11.1413 16.636 11.056V2.976C16.3693 2.95467 16.156 2.85867 15.996 2.688C15.8467 2.50667 15.772 2.29867 15.772 2.064C15.772 1.808 15.852 1.58933 16.012 1.408C16.1827 1.22667 16.4067 1.136 16.684 1.136H20.732C21.0093 1.136 21.228 1.22667 21.388 1.408C21.5587 1.58933 21.644 1.808 21.644 2.064C21.644 2.11733 21.6387 2.16 21.628 2.192C21.6493 2.18133 21.676 2.176 21.708 2.176C21.74 2.176 21.7667 2.176 21.788 2.176H22.684V1.424C22.684 1.11467 22.7693 0.874666 22.94 0.704C23.1213 0.533333 23.3613 0.447999 23.66 0.447999C23.9693 0.447999 24.2093 0.533333 24.38 0.704C24.5507 0.874666 24.636 1.11467 24.636 1.424V2.176H25.548C25.8253 2.176 26.0387 2.26133 26.188 2.432C26.3373 2.592 26.412 2.79467 26.412 3.04C26.412 3.27467 26.3373 3.47733 26.188 3.648C26.0387 3.81867 25.8253 3.904 25.548 3.904H25.532C25.7347 3.97867 25.8733 4.112 25.948 4.304C26.0333 4.496 26.0333 4.71467 25.948 4.96C25.916 5.04533 25.852 5.20533 25.756 5.44C25.6707 5.67467 25.5853 5.89867 25.5 6.112H26.54C26.508 5.39733 26.4867 4.64533 26.476 3.856C26.4653 3.056 26.46 2.21333 26.46 1.328C26.46 1.04 26.556 0.815999 26.748 0.655999C26.94 0.495999 27.1693 0.415999 27.436 0.415999C27.692 0.415999 27.9107 0.501333 28.092 0.671999C28.2733 0.842666 28.3587 1.072 28.348 1.36V2.88C28.38 2.76267 28.4333 2.65067 28.508 2.544C28.5827 2.43733 28.6787 2.35733 28.796 2.304C29.0307 2.18667 29.2653 2.16 29.5 2.224C29.7453 2.27733 29.932 2.42133 30.06 2.656C30.1133 2.752 30.1827 2.88533 30.268 3.056C30.3533 3.216 30.4333 3.376 30.508 3.536C30.5933 3.68533 30.652 3.80267 30.684 3.888C30.812 4.15467 30.828 4.39467 30.732 4.608C30.6467 4.82133 30.492 4.98667 30.268 5.104C30.0333 5.22133 29.7933 5.248 29.548 5.184C29.3133 5.12 29.1373 4.96 29.02 4.704C28.9987 4.65067 28.9507 4.54933 28.876 4.4C28.8013 4.25067 28.7213 4.096 28.636 3.936C28.5613 3.76533 28.492 3.62667 28.428 3.52C28.4173 3.47733 28.4013 3.44 28.38 3.408C28.3693 3.376 28.3587 3.33867 28.348 3.296C28.348 4.288 28.364 5.22667 28.396 6.112H30.172C30.4493 6.112 30.6627 6.19733 30.812 6.368C30.972 6.53867 31.052 6.74667 31.052 6.992C31.052 7.23733 30.972 7.45067 30.812 7.632C30.6627 7.80267 30.4493 7.888 30.172 7.888H28.476C28.4973 8.13333 28.5187 8.37333 28.54 8.608C28.5613 8.84267 28.5827 9.072 28.604 9.296C28.6573 9.21067 28.7053 9.13067 28.748 9.056C28.7907 8.97067 28.8333 8.88533 28.876 8.8C29.004 8.55467 29.1853 8.39467 29.42 8.32C29.6653 8.24533 29.9053 8.26667 30.14 8.384C30.3747 8.50133 30.5347 8.67733 30.62 8.912C30.7053 9.136 30.6787 9.376 30.54 9.632C30.3373 10.0053 30.1133 10.3733 29.868 10.736C29.6333 11.0987 29.3773 11.4507 29.1 11.792C29.1427 11.8987 29.18 12.0107 29.212 12.128C29.2547 12.2347 29.2973 12.336 29.34 12.432C29.3933 12.5387 29.4467 12.592 29.5 12.592C29.5533 12.5813 29.6013 12.5227 29.644 12.416C29.6547 12.3947 29.6707 12.352 29.692 12.288C29.7133 12.2133 29.7293 12.1707 29.74 12.16C29.804 11.9467 29.9427 11.7973 30.156 11.712C30.3693 11.6267 30.5933 11.6267 30.828 11.712C31.0413 11.7867 31.2013 11.9093 31.308 12.08C31.4147 12.2507 31.4413 12.4693 31.388 12.736C31.3453 12.9387 31.2653 13.2053 31.148 13.536C31.0307 13.856 30.908 14.1493 30.78 14.416C30.5133 14.9813 30.1507 15.2747 29.692 15.296C29.244 15.328 28.8333 15.0827 28.46 14.56C28.3213 14.3787 28.1933 14.1867 28.076 13.984C27.9693 13.7707 27.8627 13.552 27.756 13.328C27.0627 14.0213 26.364 14.5973 25.66 15.056C25.4253 15.2053 25.1747 15.2533 24.908 15.2C24.652 15.1573 24.4493 15.0187 24.3 14.784C24.172 14.5813 24.1187 14.3733 24.14 14.16C24.1613 13.9573 24.2573 13.7867 24.428 13.648C24.332 13.6587 24.236 13.664 24.14 13.664C24.044 13.664 23.9373 13.664 23.82 13.664C22.9027 13.664 22.2733 13.5147 21.932 13.216C21.6013 12.9067 21.436 12.3787 21.436 11.632V10.368C21.436 9.84533 21.5053 9.44 21.644 9.152C21.7933 8.85333 22.0387 8.64533 22.38 8.528C22.732 8.4 23.212 8.336 23.82 8.336C24.4387 8.336 24.9187 8.4 25.26 8.528C25.6013 8.64533 25.8413 8.85333 25.98 9.152C26.1293 9.44 26.204 9.84533 26.204 10.368V11.632C26.204 11.76 26.1987 11.8827 26.188 12C26.1773 12.1173 26.1613 12.2293 26.14 12.336C26.3213 12.1867 26.492 12.032 26.652 11.872C26.812 11.7013 26.9667 11.5307 27.116 11.36C26.9987 10.8587 26.9027 10.32 26.828 9.744C26.7533 9.15733 26.6893 8.53867 26.636 7.888H21.58C21.3773 7.888 21.2067 7.84 21.068 7.744C20.9293 7.63733 20.828 7.50933 20.764 7.36V14.576C20.764 14.8427 20.6787 15.0507 20.508 15.2C20.348 15.36 20.1453 15.44 19.9 15.44ZM20.764 6.64C20.828 6.49067 20.9293 6.368 21.068 6.272C21.2067 6.16533 21.3773 6.112 21.58 6.112H22.092C21.9853 6.016 21.9 5.89333 21.836 5.744C21.8147 5.68 21.7667 5.552 21.692 5.36C21.628 5.15733 21.5853 5.024 21.564 4.96C21.4893 4.74667 21.5 4.544 21.596 4.352C21.692 4.14933 21.8467 4.00533 22.06 3.92C22.0813 3.92 22.1027 3.92 22.124 3.92C22.1453 3.90933 22.1613 3.904 22.172 3.904H21.788C21.5213 3.904 21.308 3.81867 21.148 3.648C20.9987 3.47733 20.924 3.27467 20.924 3.04V2.96C20.892 2.97067 20.8387 2.976 20.764 2.976V6.64ZM23.148 6.112H23.66C23.7133 5.984 23.7773 5.808 23.852 5.584C23.9373 5.34933 24.0173 5.12 24.092 4.896C24.1773 4.66133 24.236 4.50133 24.268 4.416C24.3107 4.288 24.3693 4.18133 24.444 4.096C24.5187 4.01067 24.604 3.94667 24.7 3.904H22.62C22.7373 3.936 22.844 3.99467 22.94 4.08C23.0467 4.15467 23.1213 4.26133 23.164 4.4C23.1853 4.464 23.228 4.592 23.292 4.784C23.3667 4.96533 23.4147 5.088 23.436 5.152C23.5107 5.35467 23.516 5.54133 23.452 5.712C23.3987 5.88267 23.2973 6.016 23.148 6.112ZM18.364 7.472H19.036V6.096H18.364V7.472ZM18.364 4.256H19.036V2.976H18.364V4.256ZM18.364 10.576C18.4813 10.5333 18.5987 10.496 18.716 10.464C18.8333 10.432 18.94 10.4 19.036 10.368V9.312H18.364V10.576ZM23.82 12.192C24.0013 12.192 24.1293 12.16 24.204 12.096C24.2787 12.032 24.316 11.888 24.316 11.664H23.308C23.3187 11.888 23.3613 12.032 23.436 12.096C23.5107 12.16 23.6387 12.192 23.82 12.192ZM23.308 10.336H24.316C24.316 10.112 24.2787 9.968 24.204 9.904C24.1293 9.84 24.0013 9.808 23.82 9.808C23.6387 9.808 23.5107 9.84 23.436 9.904C23.3613 9.968 23.3187 10.112 23.308 10.336ZM39.116 15.168C38.7853 15.2107 38.492 15.1307 38.236 14.928C37.98 14.7253 37.8253 14.464 37.772 14.144C37.6653 13.248 37.4733 12.2453 37.196 11.136C36.9293 10.0267 36.6093 8.93867 36.236 7.872C35.7347 8.04267 35.2547 8.21333 34.796 8.384C34.348 8.55467 33.9373 8.70933 33.564 8.848C33.2547 8.95467 32.9507 8.93867 32.652 8.8C32.3533 8.65067 32.1507 8.42133 32.044 8.112C31.9373 7.80267 31.9533 7.49867 32.092 7.2C32.2413 6.90133 32.4653 6.69867 32.764 6.592C33.1587 6.45333 33.58 6.30933 34.028 6.16C34.476 6 34.94 5.84 35.42 5.68C35.2493 5.27467 35.0787 4.89067 34.908 4.528C34.748 4.15467 34.5773 3.81867 34.396 3.52C34.236 3.232 34.204 2.93333 34.3 2.624C34.396 2.304 34.588 2.064 34.876 1.904C35.164 1.744 35.468 1.712 35.788 1.808C36.108 1.89333 36.3427 2.08 36.492 2.368C36.6947 2.752 36.892 3.16267 37.084 3.6C37.2867 4.03733 37.4787 4.49067 37.66 4.96C37.98 4.85333 38.3 4.752 38.62 4.656C38.94 4.56 39.2493 4.46933 39.548 4.384C39.3773 4.27733 39.2387 4.14933 39.132 4L38.332 2.784C38.1507 2.50667 38.092 2.208 38.156 1.888C38.2307 1.568 38.4013 1.31733 38.668 1.136C38.9453 0.954666 39.244 0.895999 39.564 0.959999C39.8947 1.024 40.1453 1.19467 40.316 1.472L41.116 2.688C41.244 2.88 41.308 3.088 41.308 3.312C41.3187 3.536 41.2707 3.744 41.164 3.936L41.196 3.92C42.2413 3.64267 43.164 3.56267 43.964 3.68C44.7747 3.78667 45.4253 4.08533 45.916 4.576C46.4067 5.06667 46.7 5.744 46.796 6.608C46.8813 7.33333 46.812 7.984 46.588 8.56C46.364 9.12533 46.0227 9.59467 45.564 9.968C45.1053 10.3413 44.572 10.5973 43.964 10.736C43.356 10.8747 42.7107 10.8747 42.028 10.736C41.3453 10.5973 40.668 10.304 39.996 9.856C39.7187 9.67467 39.5427 9.424 39.468 9.104C39.3933 8.784 39.4413 8.49067 39.612 8.224C39.7827 7.94667 40.028 7.76533 40.348 7.68C40.6787 7.584 40.9773 7.63733 41.244 7.84C41.66 8.13867 42.0653 8.32533 42.46 8.4C42.8547 8.47467 43.2067 8.45867 43.516 8.352C43.836 8.23467 44.0707 8.048 44.22 7.792C44.38 7.52533 44.428 7.21067 44.364 6.848C44.3213 6.61333 44.2093 6.416 44.028 6.256C43.8573 6.08533 43.5907 5.97867 43.228 5.936C42.8653 5.89333 42.3693 5.952 41.74 6.112C41.2813 6.21867 40.764 6.36267 40.188 6.544C39.6227 6.71467 39.0413 6.90133 38.444 7.104C38.7213 7.91467 38.972 8.73067 39.196 9.552C39.4307 10.3627 39.628 11.136 39.788 11.872C39.9587 12.5973 40.076 13.248 40.14 13.824C40.1827 14.1547 40.1027 14.448 39.9 14.704C39.708 14.96 39.4467 15.1147 39.116 15.168ZM50.572 13.872C50.2733 14.0213 49.9587 14.0427 49.628 13.936C49.308 13.8187 49.0733 13.6053 48.924 13.296C48.7747 12.9867 48.7533 12.672 48.86 12.352C48.9773 12.032 49.1907 11.7973 49.5 11.648C50.9827 10.9333 52.2947 10.0853 53.436 9.104C54.5773 8.12267 55.516 7.07733 56.252 5.968C56.4973 5.60533 56.5613 5.33867 56.444 5.168C56.3373 4.99733 56.0813 4.912 55.676 4.912H51.436C51.1053 4.912 50.8173 4.78933 50.572 4.544C50.3267 4.29867 50.204 4.01067 50.204 3.68C50.204 3.33867 50.3267 3.04533 50.572 2.8C50.8173 2.55467 51.1053 2.432 51.436 2.432H55.804C56.86 2.432 57.6707 2.62933 58.236 3.024C58.812 3.408 59.1213 3.94133 59.164 4.624C59.2173 5.30667 58.988 6.09067 58.476 6.976C58.3907 7.136 58.2893 7.30133 58.172 7.472C58.0653 7.632 57.9533 7.79733 57.836 7.968C58.316 8.36267 58.796 8.78933 59.276 9.248C59.756 9.70667 60.2093 10.1493 60.636 10.576C61.0733 11.0027 61.4467 11.376 61.756 11.696C61.9907 11.9307 62.1027 12.224 62.092 12.576C62.092 12.9173 61.9693 13.2107 61.724 13.456C61.4893 13.6907 61.196 13.808 60.844 13.808C60.492 13.7973 60.1933 13.6747 59.948 13.44C59.66 13.1307 59.308 12.768 58.892 12.352C58.4867 11.9253 58.0547 11.488 57.596 11.04C57.148 10.5813 56.7053 10.16 56.268 9.776C55.4573 10.5867 54.5507 11.3547 53.548 12.08C52.556 12.7947 51.564 13.392 50.572 13.872ZM67.788 14.784C67.4787 14.912 67.164 14.912 66.844 14.784C66.5347 14.6667 66.3107 14.4533 66.172 14.144C66.0333 13.8347 66.028 13.52 66.156 13.2C66.284 12.88 66.5027 12.6507 66.812 12.512C70.2787 10.9973 72.764 8.816 74.268 5.968C74.556 5.40267 74.364 5.12 73.692 5.12H71.772C71.2707 5.80267 70.7107 6.45867 70.092 7.088C69.4733 7.70667 68.8173 8.26667 68.124 8.768C67.8467 8.96 67.5373 9.02933 67.196 8.976C66.8653 8.912 66.5987 8.74133 66.396 8.464C66.204 8.18667 66.1347 7.87733 66.188 7.536C66.252 7.19467 66.4227 6.928 66.7 6.736C67.2653 6.36267 67.8253 5.904 68.38 5.36C68.9453 4.80533 69.4573 4.21867 69.916 3.6C70.3747 2.97067 70.7373 2.35733 71.004 1.76C71.1427 1.45067 71.372 1.23733 71.692 1.12C72.012 0.991999 72.3267 1.00267 72.636 1.152C72.9453 1.29067 73.164 1.52 73.292 1.84C73.4307 2.14933 73.4253 2.45333 73.276 2.752H74.076C74.9933 2.752 75.7027 2.92267 76.204 3.264C76.7053 3.59467 76.988 4.05867 77.052 4.656C77.1267 5.25333 76.9773 5.94133 76.604 6.72C76.0493 7.872 75.3133 8.97067 74.396 10.016C73.4893 11.0507 72.4707 11.9787 71.34 12.8C70.2093 13.6213 69.0253 14.2827 67.788 14.784ZM82.524 9.168C82.1827 9.168 81.8893 9.04533 81.644 8.8C81.4093 8.55467 81.292 8.26667 81.292 7.936C81.292 7.59467 81.4093 7.30667 81.644 7.072C81.8893 6.82667 82.1827 6.704 82.524 6.704H92.492C92.8333 6.704 93.1213 6.82667 93.356 7.072C93.6013 7.30667 93.724 7.59467 93.724 7.936C93.724 8.26667 93.6013 8.55467 93.356 8.8C93.1213 9.04533 92.8333 9.168 92.492 9.168H82.524ZM107.852 12.096C106.305 12.6933 105.079 12.7893 104.172 12.384C103.276 11.9787 102.828 11.088 102.828 9.712V4.448C102.828 4.10667 102.945 3.81867 103.18 3.584C103.425 3.33867 103.719 3.216 104.06 3.216C104.401 3.216 104.689 3.33867 104.924 3.584C105.169 3.81867 105.292 4.10667 105.292 4.448V9.088C105.292 9.54667 105.409 9.83467 105.644 9.952C105.889 10.0587 106.241 10.0267 106.7 9.856C106.967 9.76 107.271 9.64267 107.612 9.504C107.953 9.36533 108.305 9.216 108.668 9.056C109.031 8.896 109.367 8.74667 109.676 8.608C109.985 8.46933 110.3 8.45333 110.62 8.56C110.94 8.656 111.18 8.85867 111.34 9.168C111.489 9.46667 111.516 9.78133 111.42 10.112C111.324 10.4427 111.121 10.6827 110.812 10.832C110.343 11.056 109.841 11.2853 109.308 11.52C108.775 11.744 108.289 11.936 107.852 12.096ZM97.26 13.152C96.9613 13.2907 96.6467 13.3067 96.316 13.2C95.996 13.0827 95.7613 12.8693 95.612 12.56C95.4733 12.2507 95.4627 11.936 95.58 11.616C95.6973 11.296 95.9053 11.0667 96.204 10.928C97.388 10.352 98.22 9.59467 98.7 8.656C99.1907 7.71733 99.436 6.56533 99.436 5.2C99.436 4.85867 99.5533 4.57067 99.788 4.336C100.023 4.09067 100.311 3.968 100.652 3.968C100.993 3.968 101.281 4.09067 101.516 4.336C101.751 4.57067 101.868 4.85867 101.868 5.2C101.847 7.17333 101.447 8.82133 100.668 10.144C99.8893 11.456 98.7533 12.4587 97.26 13.152ZM120.924 15.104C119.484 15.104 118.279 15.008 117.308 14.816C116.337 14.624 115.569 14.2827 115.004 13.792C114.887 13.8773 114.727 13.984 114.524 14.112C114.332 14.2507 114.145 14.3787 113.964 14.496C113.793 14.6133 113.66 14.704 113.564 14.768C113.319 14.9387 113.036 14.992 112.716 14.928C112.396 14.864 112.161 14.6933 112.012 14.416C111.873 14.1387 111.841 13.856 111.916 13.568C111.991 13.28 112.161 13.072 112.428 12.944C112.577 12.8693 112.769 12.7787 113.004 12.672C113.249 12.5547 113.473 12.448 113.676 12.352V8.896C113.676 8.672 113.644 8.51733 113.58 8.432C113.516 8.34667 113.367 8.304 113.132 8.304H112.844C112.545 8.304 112.305 8.208 112.124 8.016C111.953 7.824 111.868 7.59467 111.868 7.328C111.868 7.05067 111.953 6.816 112.124 6.624C112.305 6.432 112.545 6.336 112.844 6.336H114.044C115.175 6.336 115.74 6.90133 115.74 8.032V12.032C115.996 12.3307 116.343 12.5653 116.78 12.736C116.695 12.5013 116.695 12.2773 116.78 12.064C116.876 11.8507 117.057 11.68 117.324 11.552C117.473 11.488 117.655 11.4027 117.868 11.296C118.092 11.1893 118.316 11.0827 118.54 10.976H116.78C116.545 10.976 116.359 10.9013 116.22 10.752C116.092 10.592 116.028 10.4107 116.028 10.208C116.028 9.99467 116.092 9.81333 116.22 9.664C116.359 9.504 116.545 9.424 116.78 9.424H118.46V8.8H117.116C116.913 8.8 116.737 8.72 116.588 8.56C116.439 8.4 116.364 8.21867 116.364 8.016C116.364 7.80267 116.428 7.62133 116.556 7.472C116.695 7.312 116.881 7.232 117.116 7.232H118.46V6.576H118.076C117.404 6.576 116.919 6.43733 116.62 6.16C116.321 5.88267 116.172 5.38133 116.172 4.656C116.172 3.97333 116.305 3.504 116.572 3.248C116.839 2.992 117.329 2.864 118.044 2.864H118.396C118.577 2.864 118.695 2.84267 118.748 2.8C118.801 2.75733 118.828 2.68267 118.828 2.576C118.828 2.45867 118.801 2.384 118.748 2.352C118.695 2.32 118.577 2.304 118.396 2.304H116.748C116.503 2.304 116.311 2.22933 116.172 2.08C116.033 1.92 115.964 1.73333 115.964 1.52C115.964 1.30667 116.033 1.12533 116.172 0.976C116.311 0.815999 116.503 0.735999 116.748 0.735999H118.748C119.463 0.735999 119.959 0.863999 120.236 1.12C120.513 1.376 120.652 1.84533 120.652 2.528C120.652 3.21067 120.513 3.68 120.236 3.936C119.959 4.192 119.463 4.32 118.748 4.32H118.476C118.316 4.32 118.209 4.34667 118.156 4.4C118.103 4.45333 118.076 4.53867 118.076 4.656C118.076 4.80533 118.108 4.90133 118.172 4.944C118.247 4.98667 118.359 5.008 118.508 5.008H118.748C118.94 5.008 119.084 4.98667 119.18 4.944C119.276 4.89067 119.367 4.784 119.452 4.624C119.548 4.45333 119.708 4.336 119.932 4.272C120.156 4.208 120.385 4.22933 120.62 4.336C120.865 4.44267 121.02 4.59733 121.084 4.8C121.159 5.00267 121.159 5.21067 121.084 5.424C120.956 5.81867 120.759 6.10133 120.492 6.272V7.232H121.996V6.336C121.537 6.09067 121.308 5.53067 121.308 4.656C121.308 3.97333 121.441 3.504 121.708 3.248C121.975 2.992 122.465 2.864 123.18 2.864H123.756C123.937 2.864 124.055 2.84267 124.108 2.8C124.161 2.75733 124.188 2.68267 124.188 2.576C124.188 2.45867 124.161 2.384 124.108 2.352C124.055 2.32 123.937 2.304 123.756 2.304H121.884C121.639 2.304 121.447 2.22933 121.308 2.08C121.169 1.92 121.1 1.73333 121.1 1.52C121.1 1.30667 121.169 1.12533 121.308 0.976C121.447 0.815999 121.639 0.735999 121.884 0.735999H124.108C124.823 0.735999 125.319 0.863999 125.596 1.12C125.873 1.376 126.012 1.84533 126.012 2.528C126.012 3.21067 125.873 3.68 125.596 3.936C125.319 4.192 124.823 4.32 124.108 4.32H123.612C123.452 4.32 123.345 4.34667 123.292 4.4C123.239 4.45333 123.212 4.53867 123.212 4.656C123.212 4.80533 123.244 4.90133 123.308 4.944C123.383 4.98667 123.495 5.008 123.644 5.008H124.108C124.3 5.008 124.444 4.98667 124.54 4.944C124.636 4.89067 124.727 4.784 124.812 4.624C124.908 4.45333 125.068 4.336 125.292 4.272C125.516 4.208 125.745 4.22933 125.98 4.336C126.225 4.44267 126.38 4.59733 126.444 4.8C126.519 5.00267 126.519 5.21067 126.444 5.424C126.295 5.88267 126.055 6.192 125.724 6.352C125.404 6.50133 124.929 6.576 124.3 6.576H124.028V7.232H125.692C125.937 7.232 126.124 7.312 126.252 7.472C126.38 7.62133 126.444 7.80267 126.444 8.016C126.444 8.21867 126.38 8.4 126.252 8.56C126.124 8.72 125.937 8.8 125.692 8.8H124.028V9.424H126.076C126.321 9.424 126.503 9.504 126.62 9.664C126.748 9.81333 126.812 9.99467 126.812 10.208C126.812 10.4107 126.748 10.592 126.62 10.752C126.503 10.9013 126.321 10.976 126.076 10.976H123.788C124.012 11.0827 124.236 11.1893 124.46 11.296C124.684 11.4027 124.865 11.488 125.004 11.552C125.292 11.6907 125.479 11.8773 125.564 12.112C125.649 12.3467 125.633 12.5867 125.516 12.832C125.495 12.8747 125.463 12.9173 125.42 12.96C125.388 13.0027 125.356 13.0453 125.324 13.088C125.399 13.0773 125.468 13.072 125.532 13.072C125.596 13.072 125.66 13.0667 125.724 13.056C126.097 13.024 126.401 13.0987 126.636 13.28C126.881 13.4613 127.004 13.712 127.004 14.032C127.004 14.3627 126.903 14.624 126.7 14.816C126.508 15.008 126.193 15.104 125.756 15.104H120.924ZM115.436 4C115.223 4.20267 114.967 4.30933 114.668 4.32C114.369 4.32 114.119 4.208 113.916 3.984C113.735 3.77067 113.505 3.536 113.228 3.28C112.961 3.024 112.721 2.80533 112.508 2.624C112.305 2.44267 112.204 2.208 112.204 1.92C112.215 1.62133 112.321 1.37067 112.524 1.168C112.727 0.965333 112.967 0.847999 113.244 0.815999C113.532 0.783999 113.793 0.874666 114.028 1.088C114.284 1.30133 114.551 1.53067 114.828 1.776C115.105 2.02133 115.329 2.23467 115.5 2.416C115.735 2.64 115.841 2.90667 115.82 3.216C115.809 3.51467 115.681 3.776 115.436 4ZM120.924 13.2C121.393 13.2 121.884 13.1947 122.396 13.184C122.919 13.1733 123.42 13.1627 123.9 13.152C123.633 13.0133 123.329 12.8533 122.988 12.672C122.647 12.48 122.353 12.304 122.108 12.144C121.905 12.0053 121.772 11.824 121.708 11.6C121.644 11.3653 121.665 11.1573 121.772 10.976H120.556C120.663 11.1573 120.684 11.3653 120.62 11.6C120.567 11.824 120.439 12.0053 120.236 12.144C120.001 12.2827 119.724 12.4427 119.404 12.624C119.084 12.8053 118.796 12.9653 118.54 13.104C119.201 13.168 119.996 13.2 120.924 13.2ZM120.492 9.424H121.996V8.8H120.492V9.424ZM134.492 14.512C133.66 14.512 132.897 14.3467 132.204 14.016C131.511 13.696 130.956 13.1787 130.54 12.464C130.124 11.7493 129.916 10.8107 129.916 9.648C129.905 8.816 130.044 7.96267 130.332 7.088C130.631 6.21333 131.047 5.40267 131.58 4.656C131.313 4.70933 131.073 4.76267 130.86 4.816C130.657 4.85867 130.412 4.90667 130.124 4.96C129.804 5.03467 129.505 4.98133 129.228 4.8C128.961 4.608 128.801 4.352 128.748 4.032C128.684 3.712 128.743 3.41867 128.924 3.152C129.116 2.87467 129.377 2.71467 129.708 2.672C129.953 2.64 130.247 2.60267 130.588 2.56C130.94 2.51733 131.308 2.47467 131.692 2.432C132.087 2.38933 132.465 2.352 132.828 2.32C133.201 2.27733 133.521 2.24533 133.788 2.224C134.108 2.20267 134.369 2.26133 134.572 2.4C134.775 2.528 134.913 2.71467 134.988 2.96C135.073 3.19467 135.063 3.44533 134.956 3.712C134.86 3.97867 134.689 4.21333 134.444 4.416C133.985 4.77867 133.585 5.24267 133.244 5.808C132.913 6.37333 132.657 6.98133 132.476 7.632C132.305 8.272 132.22 8.896 132.22 9.504C132.22 10.1547 132.316 10.672 132.508 11.056C132.7 11.44 132.961 11.712 133.292 11.872C133.633 12.032 134.023 12.112 134.46 12.112C135.313 12.112 135.991 11.7547 136.492 11.04C137.004 10.3253 137.26 9.14667 137.26 7.504C137.26 6.93867 137.228 6.29333 137.164 5.568C137.1 4.84267 136.988 4.14933 136.828 3.488C136.753 3.17867 136.807 2.896 136.988 2.64C137.169 2.37333 137.409 2.20267 137.708 2.128C138.007 2.04267 138.289 2.07467 138.556 2.224C138.823 2.37333 139.015 2.592 139.132 2.88C139.292 3.28533 139.521 3.68 139.82 4.064C140.129 4.448 140.476 4.8 140.86 5.12C141.255 5.44 141.655 5.712 142.06 5.936C142.348 6.08533 142.54 6.32 142.636 6.64C142.732 6.94933 142.705 7.248 142.556 7.536C142.407 7.824 142.172 8.02133 141.852 8.128C141.532 8.23467 141.233 8.20267 140.956 8.032C140.711 7.89333 140.449 7.712 140.172 7.488C139.905 7.25333 139.665 7.03467 139.452 6.832C139.473 6.93867 139.489 7.06667 139.5 7.216C139.521 7.35467 139.527 7.48267 139.516 7.6C139.516 9.04 139.319 10.2773 138.924 11.312C138.54 12.336 137.975 13.1253 137.228 13.68C136.481 14.2347 135.569 14.512 134.492 14.512ZM141.74 3.92C141.569 4.05867 141.372 4.12267 141.148 4.112C140.924 4.09067 140.737 3.98933 140.588 3.808C140.492 3.68 140.343 3.49333 140.14 3.248C139.948 2.992 139.783 2.77867 139.644 2.608C139.548 2.49067 139.505 2.33067 139.516 2.128C139.537 1.92533 139.628 1.75467 139.788 1.616C139.927 1.49867 140.092 1.44 140.284 1.44C140.476 1.44 140.641 1.49867 140.78 1.616C140.951 1.75467 141.143 1.936 141.356 2.16C141.569 2.384 141.745 2.592 141.884 2.784C142.012 2.96533 142.065 3.16267 142.044 3.376C142.023 3.58933 141.921 3.77067 141.74 3.92ZM143.388 2.416C143.239 2.56533 143.047 2.64533 142.812 2.656C142.588 2.656 142.396 2.57067 142.236 2.4C142.129 2.28267 141.964 2.112 141.74 1.888C141.516 1.664 141.324 1.46667 141.164 1.296C141.057 1.17867 141.004 1.024 141.004 0.832C141.015 0.64 141.089 0.463999 141.228 0.303999C141.345 0.175999 141.495 0.101333 141.676 0.079999C141.868 0.0586659 142.044 0.101333 142.204 0.207999C142.385 0.325333 142.593 0.485333 142.828 0.688C143.073 0.890666 143.271 1.08267 143.42 1.264C143.569 1.43467 143.639 1.62667 143.628 1.84C143.628 2.04267 143.548 2.23467 143.388 2.416ZM147.084 14.528C146.764 14.5813 146.465 14.512 146.188 14.32C145.921 14.1387 145.761 13.888 145.708 13.568C145.601 13.0133 145.521 12.3733 145.468 11.648C145.425 10.9227 145.399 10.16 145.388 9.36C145.388 8.54933 145.409 7.73333 145.452 6.912C145.495 6.09067 145.559 5.30667 145.644 4.56C145.74 3.81333 145.852 3.14133 145.98 2.544C146.055 2.21333 146.231 1.96267 146.508 1.792C146.785 1.61067 147.084 1.55733 147.404 1.632C147.724 1.70667 147.975 1.88267 148.156 2.16C148.337 2.42667 148.391 2.72533 148.316 3.056C148.156 3.80267 148.028 4.61867 147.932 5.504C147.836 6.37867 147.772 7.26933 147.74 8.176C147.719 9.08267 147.729 9.96267 147.772 10.816C147.825 11.6693 147.916 12.4427 148.044 13.136C148.097 13.4667 148.033 13.7653 147.852 14.032C147.671 14.2987 147.415 14.464 147.084 14.528ZM153.612 13.712C152.215 13.712 151.164 13.472 150.46 12.992C149.756 12.5013 149.308 11.7227 149.116 10.656C149.063 10.3253 149.127 10.0267 149.308 9.76C149.5 9.48267 149.761 9.31733 150.092 9.264C150.412 9.21067 150.705 9.28 150.972 9.472C151.239 9.65333 151.404 9.90933 151.468 10.24C151.543 10.6027 151.735 10.88 152.044 11.072C152.353 11.264 152.908 11.36 153.708 11.36C154.113 11.36 154.54 11.328 154.988 11.264C155.436 11.2 155.943 11.1093 156.508 10.992C156.828 10.9173 157.121 10.9707 157.388 11.152C157.665 11.3333 157.841 11.5893 157.916 11.92C157.98 12.24 157.921 12.5333 157.74 12.8C157.559 13.0667 157.308 13.2427 156.988 13.328C156.391 13.4667 155.799 13.568 155.212 13.632C154.636 13.6853 154.103 13.712 153.612 13.712ZM150.796 5.712C150.476 5.76533 150.177 5.70133 149.9 5.52C149.633 5.33867 149.468 5.088 149.404 4.768C149.34 4.448 149.399 4.14933 149.58 3.872C149.761 3.59467 150.012 3.42933 150.332 3.376C150.983 3.248 151.676 3.16267 152.412 3.12C153.148 3.07733 153.873 3.072 154.588 3.104C155.303 3.136 155.948 3.2 156.524 3.296C156.844 3.33867 157.095 3.49867 157.276 3.776C157.457 4.05333 157.521 4.352 157.468 4.672C157.415 5.01333 157.249 5.27467 156.972 5.456C156.705 5.62667 156.412 5.68533 156.092 5.632C155.271 5.49333 154.396 5.42933 153.468 5.44C152.54 5.45067 151.649 5.54133 150.796 5.712ZM169.26 12.96C168.961 12.96 168.705 12.864 168.492 12.672C168.279 12.4693 168.172 12.2027 168.172 11.872V9.184C167.873 9.58933 167.564 9.98933 167.244 10.384C166.924 10.7787 166.615 11.12 166.316 11.408C166.081 11.6427 165.809 11.7653 165.5 11.776C165.191 11.776 164.919 11.6587 164.684 11.424C164.492 11.2107 164.396 10.9653 164.396 10.688C164.396 10.4 164.503 10.1653 164.716 9.984C164.983 9.73867 165.287 9.43467 165.628 9.072C165.98 8.70933 166.321 8.33067 166.652 7.936C166.983 7.54133 167.265 7.184 167.5 6.864H165.292C164.972 6.864 164.721 6.768 164.54 6.576C164.359 6.37333 164.268 6.128 164.268 5.84C164.268 5.56267 164.359 5.32267 164.54 5.12C164.721 4.91733 164.972 4.816 165.292 4.816H168.172V1.6C168.172 1.25867 168.279 0.997333 168.492 0.815999C168.705 0.623999 168.961 0.527999 169.26 0.527999C169.569 0.527999 169.825 0.623999 170.028 0.815999C170.241 0.997333 170.348 1.25867 170.348 1.6V4.816H171.532C171.5 4.80533 171.468 4.79467 171.436 4.784C171.404 4.76267 171.372 4.74667 171.34 4.736C171.105 4.62933 170.935 4.45333 170.828 4.208C170.732 3.952 170.759 3.69067 170.908 3.424C170.983 3.296 171.068 3.13067 171.164 2.928C171.271 2.71467 171.377 2.50667 171.484 2.304C171.591 2.09067 171.671 1.92 171.724 1.792C171.852 1.48267 172.049 1.27467 172.316 1.168C172.583 1.05067 172.86 1.05067 173.148 1.168C173.436 1.28533 173.639 1.472 173.756 1.728C173.884 1.97333 173.873 2.25067 173.724 2.56C173.66 2.69867 173.569 2.88 173.452 3.104C173.335 3.328 173.217 3.552 173.1 3.776C172.993 3.98933 172.897 4.16533 172.812 4.304C172.737 4.44267 172.652 4.55467 172.556 4.64C172.46 4.71467 172.353 4.77333 172.236 4.816H173.564C173.884 4.816 174.135 4.91733 174.316 5.12C174.497 5.32267 174.588 5.56267 174.588 5.84C174.588 6.128 174.497 6.37333 174.316 6.576C174.135 6.768 173.884 6.864 173.564 6.864H171.308C171.543 7.19467 171.825 7.552 172.156 7.936C172.487 8.32 172.823 8.688 173.164 9.04C173.505 9.38133 173.809 9.67467 174.076 9.92C174.289 10.1013 174.407 10.3413 174.428 10.64C174.449 10.928 174.353 11.184 174.14 11.408C173.905 11.6427 173.628 11.76 173.308 11.76C172.999 11.7493 172.727 11.6267 172.492 11.392C172.161 11.0613 171.804 10.6613 171.42 10.192C171.036 9.712 170.679 9.23733 170.348 8.768V11.872C170.348 12.2027 170.241 12.4693 170.028 12.672C169.825 12.864 169.569 12.96 169.26 12.96ZM169.132 15.104C168.065 15.104 167.153 15.056 166.396 14.96C165.639 14.8747 165.004 14.736 164.492 14.544C163.991 14.3627 163.569 14.1227 163.228 13.824C163.025 13.9627 162.796 14.1227 162.54 14.304C162.295 14.4853 162.113 14.6133 161.996 14.688C161.74 14.8587 161.447 14.912 161.116 14.848C160.796 14.7947 160.551 14.6293 160.38 14.352C160.209 14.064 160.167 13.7707 160.252 13.472C160.337 13.1733 160.524 12.9547 160.812 12.816C160.94 12.7413 161.111 12.656 161.324 12.56C161.548 12.4533 161.761 12.352 161.964 12.256V8.96C161.964 8.71467 161.927 8.55467 161.852 8.48C161.788 8.39467 161.639 8.352 161.404 8.352H161.052C160.743 8.352 160.497 8.25067 160.316 8.048C160.135 7.84533 160.044 7.61067 160.044 7.344C160.044 7.06667 160.135 6.82667 160.316 6.624C160.497 6.42133 160.743 6.32 161.052 6.32H162.348C163.511 6.32 164.092 6.90133 164.092 8.064V12.096C164.284 12.288 164.497 12.448 164.732 12.576C164.977 12.704 165.281 12.8053 165.644 12.88C166.017 12.9547 166.481 13.008 167.036 13.04C167.601 13.072 168.3 13.088 169.132 13.088C169.676 13.088 170.231 13.0827 170.796 13.072C171.372 13.0613 171.916 13.0453 172.428 13.024C172.94 13.0027 173.367 12.976 173.708 12.944C174.113 12.9227 174.433 13.0133 174.668 13.216C174.903 13.408 175.02 13.6587 175.02 13.968C175.02 14.2987 174.919 14.5707 174.716 14.784C174.524 14.9973 174.209 15.104 173.772 15.104H169.132ZM163.964 4.128C163.761 4.33067 163.505 4.43733 163.196 4.448C162.897 4.45867 162.636 4.34667 162.412 4.112C162.305 3.984 162.151 3.824 161.948 3.632C161.756 3.42933 161.559 3.232 161.356 3.04C161.164 2.83733 161.004 2.68267 160.876 2.576C160.673 2.384 160.572 2.14933 160.572 1.872C160.583 1.59467 160.679 1.35467 160.86 1.152C161.041 0.949333 161.281 0.826666 161.58 0.783999C161.889 0.741333 162.161 0.821333 162.396 1.024C162.513 1.12 162.679 1.26933 162.892 1.472C163.116 1.67467 163.335 1.87733 163.548 2.08C163.772 2.28267 163.937 2.44267 164.044 2.56C164.268 2.784 164.375 3.04 164.364 3.328C164.353 3.60533 164.22 3.872 163.964 4.128ZM167.116 4.56C166.839 4.69867 166.567 4.736 166.3 4.672C166.033 4.59733 165.825 4.416 165.676 4.128C165.623 4.02133 165.543 3.88267 165.436 3.712C165.34 3.54133 165.239 3.37067 165.132 3.2C165.036 3.01867 164.956 2.88 164.892 2.784C164.743 2.54933 164.7 2.29867 164.764 2.032C164.839 1.75467 164.993 1.54667 165.228 1.408C165.473 1.25867 165.735 1.20533 166.012 1.248C166.289 1.28 166.508 1.41867 166.668 1.664C166.732 1.76 166.823 1.904 166.94 2.096C167.057 2.27733 167.175 2.464 167.292 2.656C167.409 2.83733 167.5 2.98133 167.564 3.088C167.735 3.376 167.767 3.664 167.66 3.952C167.553 4.22933 167.372 4.432 167.116 4.56ZM181.052 15.44C180.732 15.44 180.46 15.3227 180.236 15.088C180.012 14.864 179.9 14.592 179.9 14.272V10.704C179.42 11.152 178.935 11.6213 178.444 12.112C178.209 12.3467 177.927 12.464 177.596 12.464C177.265 12.464 176.983 12.3467 176.748 12.112C176.524 11.8773 176.417 11.6 176.428 11.28C176.439 10.9493 176.561 10.6667 176.796 10.432C177.287 9.96267 177.788 9.49867 178.3 9.04C178.823 8.58133 179.356 8.144 179.9 7.728V6C179.74 6.032 179.532 6.08 179.276 6.144C179.031 6.208 178.791 6.26667 178.556 6.32C178.321 6.37333 178.145 6.41067 178.028 6.432C177.708 6.50667 177.409 6.45867 177.132 6.288C176.855 6.10667 176.684 5.856 176.62 5.536C176.545 5.20533 176.593 4.90133 176.764 4.624C176.945 4.34667 177.196 4.176 177.516 4.112L179.9 3.664V1.584C179.9 1.264 180.012 0.991999 180.236 0.768C180.46 0.543999 180.732 0.431999 181.052 0.431999C181.372 0.431999 181.644 0.543999 181.868 0.768C182.092 0.991999 182.204 1.264 182.204 1.584V3.632C182.609 3.76 182.919 3.98933 183.132 4.32C183.356 4.704 183.415 5.14133 183.308 5.632C183.745 5.44 184.177 5.29067 184.604 5.184C185.041 5.07733 185.468 5.024 185.884 5.024C186.823 5.024 187.617 5.19467 188.268 5.536C188.929 5.86667 189.431 6.336 189.772 6.944C190.124 7.552 190.3 8.26667 190.3 9.088C190.3 10.432 189.82 11.5467 188.86 12.432C187.911 13.3173 186.503 13.888 184.636 14.144C184.316 14.1867 184.023 14.1173 183.756 13.936C183.489 13.744 183.329 13.4827 183.276 13.152C183.233 12.832 183.308 12.5387 183.5 12.272C183.692 12.0053 183.948 11.8453 184.268 11.792C185.249 11.6427 186.001 11.44 186.524 11.184C187.047 10.9173 187.409 10.608 187.612 10.256C187.815 9.904 187.916 9.51467 187.916 9.088C187.916 8.55467 187.756 8.13333 187.436 7.824C187.127 7.504 186.583 7.344 185.804 7.344C185.207 7.344 184.604 7.472 183.996 7.728C183.399 7.984 182.801 8.33067 182.204 8.768V14.272C182.204 14.592 182.092 14.864 181.868 15.088C181.644 15.3227 181.372 15.44 181.052 15.44ZM196.396 15.36C196.087 15.36 195.815 15.248 195.58 15.024C195.356 14.8 195.244 14.528 195.244 14.208V11.536C195.127 11.7173 195.015 11.888 194.908 12.048C194.812 12.208 194.721 12.3573 194.636 12.496C194.465 12.784 194.215 12.9653 193.884 13.04C193.564 13.104 193.265 13.0453 192.988 12.864C192.721 12.6827 192.556 12.432 192.492 12.112C192.439 11.7813 192.508 11.4827 192.7 11.216C193.031 10.7467 193.409 10.2027 193.836 9.584C194.273 8.95467 194.743 8.32 195.244 7.68V6.048C195.105 6.08 194.929 6.13333 194.716 6.208C194.503 6.272 194.3 6.33067 194.108 6.384C193.927 6.43733 193.799 6.47467 193.724 6.496C193.404 6.57067 193.105 6.52267 192.828 6.352C192.551 6.17067 192.375 5.92 192.3 5.6C192.225 5.28 192.279 4.98133 192.46 4.704C192.641 4.42667 192.892 4.25067 193.212 4.176C193.329 4.144 193.495 4.10667 193.708 4.064C193.932 4.02133 194.156 3.97333 194.38 3.92C194.604 3.86667 194.785 3.82933 194.924 3.808C194.977 3.78667 195.031 3.776 195.084 3.776C195.148 3.76533 195.201 3.75467 195.244 3.744V1.696C195.244 1.376 195.356 1.104 195.58 0.879999C195.815 0.656 196.087 0.544 196.396 0.544C196.716 0.544 196.988 0.656 197.212 0.879999C197.447 1.104 197.564 1.376 197.564 1.696V4.032C197.756 4.17067 197.921 4.352 198.06 4.576C198.081 4.59733 198.097 4.61867 198.108 4.64C198.119 4.66133 198.129 4.68267 198.14 4.704C198.599 4.36267 199.063 4.09067 199.532 3.888C200.001 3.67467 200.471 3.568 200.94 3.568C202.177 3.568 203.052 3.968 203.564 4.768C204.087 5.568 204.204 6.79467 203.916 8.448C203.788 9.184 203.692 9.76533 203.628 10.192C203.575 10.608 203.548 10.9227 203.548 11.136C203.548 11.3387 203.564 11.4773 203.596 11.552C203.639 11.6267 203.692 11.68 203.756 11.712C203.969 11.8293 204.188 11.84 204.412 11.744C204.647 11.6373 204.913 11.4507 205.212 11.184C205.457 10.96 205.745 10.8747 206.076 10.928C206.417 10.9813 206.689 11.1307 206.892 11.376C207.105 11.632 207.196 11.9253 207.164 12.256C207.132 12.5867 206.993 12.864 206.748 13.088C206.001 13.7707 205.217 14.1707 204.396 14.288C203.575 14.4053 202.849 14.2773 202.22 13.904C201.633 13.5413 201.281 12.992 201.164 12.256C201.057 11.52 201.132 10.5067 201.388 9.216C201.58 8.27733 201.671 7.57333 201.66 7.104C201.66 6.624 201.575 6.29867 201.404 6.128C201.244 5.95733 201.02 5.872 200.732 5.872C200.455 5.872 200.14 5.984 199.788 6.208C199.447 6.432 199.084 6.73067 198.7 7.104C198.327 7.47733 197.948 7.89333 197.564 8.352V14.208C197.564 14.528 197.447 14.8 197.212 15.024C196.988 15.248 196.716 15.36 196.396 15.36ZM219.628 14.736C218.327 14.5547 217.249 14.176 216.396 13.6C215.543 13.024 214.908 12.336 214.492 11.536C214.087 10.7253 213.884 9.872 213.884 8.976C213.884 8.18667 214.012 7.46133 214.268 6.8C214.524 6.13867 214.897 5.54133 215.388 5.008C214.695 5.12533 214.017 5.24267 213.356 5.36C212.695 5.47733 212.087 5.584 211.532 5.68C210.988 5.776 210.529 5.856 210.156 5.92C209.825 5.97333 209.527 5.904 209.26 5.712C209.004 5.50933 208.849 5.248 208.796 4.928C208.753 4.59733 208.828 4.29867 209.02 4.032C209.212 3.76533 209.468 3.61067 209.788 3.568C210.247 3.504 210.828 3.41867 211.532 3.312C212.247 3.19467 213.009 3.072 213.82 2.944C214.641 2.80533 215.457 2.672 216.268 2.544C217.079 2.40533 217.825 2.27733 218.508 2.16C219.191 2.032 219.74 1.92533 220.156 1.84C220.465 1.776 220.753 1.84 221.02 2.032C221.287 2.21333 221.452 2.45867 221.516 2.768C221.58 3.07733 221.527 3.376 221.356 3.664C221.196 3.94133 220.956 4.10133 220.636 4.144C219.932 4.24 219.303 4.44267 218.748 4.752C218.204 5.06133 217.745 5.44 217.372 5.888C216.999 6.336 216.716 6.816 216.524 7.328C216.332 7.84 216.236 8.34667 216.236 8.848C216.236 9.79733 216.561 10.5813 217.212 11.2C217.863 11.8187 218.785 12.2133 219.98 12.384C220.3 12.4267 220.556 12.5813 220.748 12.848C220.951 13.1147 221.031 13.408 220.988 13.728C220.945 14.0587 220.791 14.32 220.524 14.512C220.257 14.704 219.959 14.7787 219.628 14.736ZM226.108 11.328C225.788 10.7947 225.521 10.1653 225.308 9.44C225.105 8.704 224.961 7.904 224.876 7.04C224.801 6.176 224.785 5.296 224.828 4.4C224.839 4.06933 224.961 3.79733 225.196 3.584C225.441 3.37067 225.729 3.27467 226.06 3.296C226.391 3.30667 226.657 3.43467 226.86 3.68C227.073 3.92533 227.169 4.21333 227.148 4.544C227.095 5.26933 227.095 5.97333 227.148 6.656C227.212 7.33867 227.313 7.96267 227.452 8.528C227.601 9.08267 227.767 9.54133 227.948 9.904C228.193 10.3627 228.481 10.5493 228.812 10.464C229.153 10.3787 229.441 9.97867 229.676 9.264C229.783 8.95467 229.98 8.72 230.268 8.56C230.567 8.4 230.871 8.37333 231.18 8.48C231.489 8.58667 231.708 8.784 231.836 9.072C231.975 9.36 232.001 9.664 231.916 9.984C231.66 10.88 231.287 11.5733 230.796 12.064C230.305 12.5547 229.772 12.848 229.196 12.944C228.62 13.04 228.055 12.9493 227.5 12.672C226.956 12.3947 226.492 11.9467 226.108 11.328ZM237.692 10.096C237.393 10.2027 237.089 10.1867 236.78 10.048C236.481 9.90933 236.268 9.69067 236.14 9.392C236.001 9.04 235.793 8.672 235.516 8.288C235.249 7.89333 234.951 7.52 234.62 7.168C234.3 6.816 233.975 6.52267 233.644 6.288C233.377 6.096 233.201 5.84533 233.116 5.536C233.041 5.216 233.105 4.912 233.308 4.624C233.5 4.368 233.756 4.21333 234.076 4.16C234.396 4.096 234.689 4.16 234.956 4.352C235.457 4.71467 235.932 5.136 236.38 5.616C236.839 6.08533 237.239 6.576 237.58 7.088C237.932 7.58933 238.199 8.07467 238.38 8.544C238.497 8.84267 238.487 9.14667 238.348 9.456C238.22 9.76533 238.001 9.97867 237.692 10.096ZM247.308 14.992C246.647 14.96 246.065 14.8213 245.564 14.576C245.073 14.3413 244.695 14.0107 244.428 13.584C244.161 13.1573 244.044 12.6613 244.076 12.096C244.108 11.616 244.252 11.1947 244.508 10.832C244.764 10.4693 245.111 10.192 245.548 10C245.996 9.79733 246.503 9.72267 247.068 9.776C247.953 9.84 248.593 10.112 248.988 10.592C249.383 11.072 249.532 11.6533 249.436 12.336C249.735 12.1333 249.948 11.8773 250.076 11.568C250.215 11.248 250.284 10.8853 250.284 10.48C250.284 10.1493 250.177 9.824 249.964 9.504C249.761 9.184 249.468 8.92267 249.084 8.72C248.711 8.50667 248.263 8.4 247.74 8.4C247.228 8.38933 246.663 8.53333 246.044 8.832C245.425 9.13067 244.769 9.632 244.076 10.336C243.831 10.592 243.516 10.7253 243.132 10.736C242.759 10.736 242.455 10.5973 242.22 10.32C242.017 10.0747 241.921 9.792 241.932 9.472C241.953 9.14133 242.092 8.88 242.348 8.688C242.988 8.208 243.639 7.69067 244.3 7.136C244.961 6.58133 245.591 6.03733 246.188 5.504C246.785 4.96 247.308 4.46933 247.756 4.032C247.927 3.872 247.985 3.72267 247.932 3.584C247.879 3.44533 247.713 3.39733 247.436 3.44C247.063 3.49333 246.679 3.54667 246.284 3.6C245.889 3.65333 245.489 3.70667 245.084 3.76C244.764 3.80267 244.471 3.728 244.204 3.536C243.948 3.33333 243.793 3.06667 243.74 2.736C243.697 2.416 243.772 2.128 243.964 1.872C244.167 1.60533 244.433 1.45067 244.764 1.408C245.031 1.36533 245.351 1.328 245.724 1.296C246.108 1.264 246.492 1.232 246.876 1.2C247.26 1.168 247.585 1.14667 247.852 1.136C248.567 1.08267 249.153 1.18933 249.612 1.456C250.071 1.712 250.385 2.05867 250.556 2.496C250.727 2.93333 250.743 3.40267 250.604 3.904C250.476 4.40533 250.172 4.87467 249.692 5.312C249.553 5.45067 249.361 5.62667 249.116 5.84C248.881 6.05333 248.615 6.288 248.316 6.544C249.095 6.52267 249.809 6.66667 250.46 6.976C251.121 7.27467 251.655 7.728 252.06 8.336C252.465 8.93333 252.668 9.67467 252.668 10.56C252.668 11.5733 252.439 12.4213 251.98 13.104C251.521 13.776 250.887 14.272 250.076 14.592C249.276 14.912 248.353 15.0453 247.308 14.992ZM246.892 12.8C247.031 12.8107 247.228 12.8107 247.484 12.8C247.612 12.544 247.639 12.3147 247.564 12.112C247.489 11.8987 247.313 11.7707 247.036 11.728C246.823 11.6853 246.641 11.7067 246.492 11.792C246.343 11.8773 246.257 12 246.236 12.16C246.215 12.352 246.263 12.496 246.38 12.592C246.508 12.688 246.679 12.7573 246.892 12.8ZM264.396 15.328C263.959 15.328 263.612 15.216 263.356 14.992C263.1 14.7787 262.967 14.4747 262.956 14.08C262.945 13.696 263.068 13.3973 263.324 13.184C263.58 12.96 263.905 12.848 264.3 12.848C264.695 12.848 264.993 12.8213 265.196 12.768C265.409 12.7147 265.569 12.6027 265.676 12.432C265.783 12.2507 265.879 11.9787 265.964 11.616C266.017 11.3707 266.076 11.072 266.14 10.72C266.204 10.368 266.252 10.0427 266.284 9.744C266.337 9.36 266.289 9.09867 266.14 8.96C266.001 8.82133 265.708 8.752 265.26 8.752H263.372C262.956 10.1813 262.321 11.4347 261.468 12.512C260.615 13.5893 259.479 14.4587 258.06 15.12C257.729 15.2693 257.388 15.3013 257.036 15.216C256.695 15.1413 256.449 14.9387 256.3 14.608C256.14 14.2773 256.124 13.9733 256.252 13.696C256.391 13.408 256.647 13.168 257.02 12.976C258.481 12.2507 259.569 11.2533 260.284 9.984C261.009 8.704 261.42 7.104 261.516 5.184H257.132C256.833 5.184 256.577 5.07733 256.364 4.864C256.151 4.65067 256.044 4.39467 256.044 4.096C256.044 3.78667 256.151 3.52533 256.364 3.312C256.577 3.09867 256.833 2.992 257.132 2.992H261.996V1.664C261.996 1.26933 262.124 0.954666 262.38 0.719999C262.636 0.485332 262.945 0.367999 263.308 0.367999C263.671 0.367999 263.98 0.485332 264.236 0.719999C264.492 0.954666 264.62 1.26933 264.62 1.664V2.992H269.836C270.145 2.992 270.401 3.09867 270.604 3.312C270.817 3.52533 270.924 3.78667 270.924 4.096C270.924 4.39467 270.817 4.65067 270.604 4.864C270.401 5.07733 270.145 5.184 269.836 5.184H263.98C263.948 5.64267 263.9 6.08533 263.836 6.512H265.548C266.433 6.512 267.132 6.608 267.644 6.8C268.156 6.98133 268.508 7.296 268.7 7.744C268.903 8.18133 268.961 8.784 268.876 9.552C268.833 9.968 268.775 10.4053 268.7 10.864C268.625 11.312 268.556 11.7067 268.492 12.048C268.343 12.88 268.113 13.536 267.804 14.016C267.505 14.496 267.084 14.832 266.54 15.024C265.996 15.2267 265.281 15.328 264.396 15.328ZM35.82 36.792C34.188 37.176 32.716 37.3413 31.404 37.288C30.1027 37.2347 29.0147 36.9787 28.14 36.52C27.276 36.0507 26.6733 35.4 26.332 34.568C26.204 34.2587 26.204 33.9547 26.332 33.656C26.4707 33.3467 26.6893 33.1333 26.988 33.016C27.2973 32.888 27.6013 32.888 27.9 33.016C28.1987 33.144 28.412 33.3627 28.54 33.672C28.6893 34.024 29.036 34.3227 29.58 34.568C30.124 34.8027 30.8707 34.9307 31.82 34.952C32.7693 34.9627 33.9213 34.808 35.276 34.488C35.596 34.4027 35.8947 34.4507 36.172 34.632C36.4493 34.8027 36.6253 35.048 36.7 35.368C36.7853 35.688 36.7373 35.9867 36.556 36.264C36.3853 36.5413 36.14 36.7173 35.82 36.792ZM34.236 28.04C33.6387 27.8907 33.0147 27.7787 32.364 27.704C31.7133 27.6293 31.0733 27.5867 30.444 27.576C29.8253 27.5653 29.2547 27.5867 28.732 27.64C28.4013 27.6827 28.108 27.6027 27.852 27.4C27.596 27.1973 27.4467 26.9307 27.404 26.6C27.3613 26.28 27.4413 25.9867 27.644 25.72C27.8467 25.4533 28.1133 25.304 28.444 25.272C29.0947 25.2187 29.7933 25.2027 30.54 25.224C31.2973 25.2347 32.044 25.2827 32.78 25.368C33.5267 25.4533 34.1987 25.576 34.796 25.736C35.116 25.8107 35.3613 25.9867 35.532 26.264C35.7133 26.5413 35.7613 26.84 35.676 27.16C35.6013 27.48 35.42 27.7253 35.132 27.896C34.8547 28.0667 34.556 28.1147 34.236 28.04ZM41.58 37.464C41.2813 37.336 41.068 37.1173 40.94 36.808C40.8227 36.4987 40.8333 36.1947 40.972 35.896C41.164 35.4907 41.3933 34.9947 41.66 34.408C41.9373 33.8107 42.2413 33.1653 42.572 32.472C42.9133 31.768 43.26 31.0533 43.612 30.328C43.964 29.592 44.3053 28.8827 44.636 28.2C44.9773 27.5067 45.292 26.872 45.58 26.296C45.8787 25.7093 46.1347 25.2187 46.348 24.824C46.4973 24.536 46.732 24.3493 47.052 24.264C47.3827 24.1787 47.6867 24.2213 47.964 24.392C48.252 24.552 48.4387 24.792 48.524 25.112C48.62 25.432 48.5827 25.7307 48.412 26.008C48.1773 26.4133 47.8733 26.9733 47.5 27.688C47.1267 28.4027 46.732 29.1813 46.316 30.024C46.572 29.96 46.8333 29.928 47.1 29.928C48.1453 29.928 48.876 30.2747 49.292 30.968C49.708 31.6613 49.7507 32.5947 49.42 33.768C49.292 34.2267 49.2707 34.5467 49.356 34.728C49.452 34.8987 49.6387 34.984 49.916 34.984C50.1187 34.984 50.316 34.9413 50.508 34.856C50.7107 34.76 50.9187 34.552 51.132 34.232C51.3453 33.912 51.58 33.4213 51.836 32.76C51.9533 32.4507 52.1667 32.232 52.476 32.104C52.796 31.9653 53.1053 31.9547 53.404 32.072C53.7133 32.1893 53.9373 32.4027 54.076 32.712C54.2147 33.0213 54.2307 33.3307 54.124 33.64C53.676 34.8987 53.1053 35.8267 52.412 36.424C51.7293 37.0213 50.8493 37.32 49.772 37.32C49.0467 37.32 48.4387 37.176 47.948 36.888C47.468 36.5893 47.1427 36.152 46.972 35.576C46.812 34.9893 46.8547 34.264 47.1 33.4C47.228 32.952 47.2333 32.648 47.116 32.488C47.0093 32.3173 46.7907 32.232 46.46 32.232C46.0867 32.232 45.7187 32.3813 45.356 32.68C45.004 32.9787 44.6733 33.4533 44.364 34.104C44.3213 34.2 44.2413 34.376 44.124 34.632C44.0067 34.888 43.884 35.1653 43.756 35.464C43.628 35.752 43.5107 36.0187 43.404 36.264C43.2973 36.4987 43.228 36.6533 43.196 36.728C43.0573 37.0373 42.8387 37.272 42.54 37.432C42.2413 37.592 41.9213 37.6027 41.58 37.464ZM63.084 38.216C62.188 38.216 61.4573 37.9813 60.892 37.512C60.3373 37.0427 60.06 36.3813 60.06 35.528C60.06 34.728 60.3427 34.0933 60.908 33.624C61.4733 33.144 62.2147 32.904 63.132 32.904C63.3667 32.904 63.6013 32.92 63.836 32.952V30.248C63.836 29.9173 63.948 29.64 64.172 29.416C64.396 29.1813 64.6733 29.064 65.004 29.064C65.3347 29.064 65.6067 29.1813 65.82 29.416C66.044 29.64 66.156 29.9173 66.156 30.248V33.464C66.7213 33.656 67.2547 33.88 67.756 34.136C68.2573 34.3813 68.6947 34.6373 69.068 34.904C69.3453 35.096 69.5053 35.3573 69.548 35.688C69.6013 36.008 69.532 36.3013 69.34 36.568C69.148 36.8347 68.8867 36.9947 68.556 37.048C68.236 37.112 67.9427 37.0427 67.676 36.84C67.452 36.6693 67.2067 36.504 66.94 36.344C66.684 36.1733 66.412 36.0187 66.124 35.88C66.0173 36.616 65.7027 37.1867 65.18 37.592C64.6573 38.008 63.9587 38.216 63.084 38.216ZM57.308 33.8C57.0733 33.5547 56.956 33.2667 56.956 32.936C56.956 32.6053 57.0787 32.328 57.324 32.104C57.868 31.6133 58.3533 31.064 58.78 30.456C59.2173 29.848 59.5853 29.208 59.884 28.536C59.66 28.5573 59.4413 28.5787 59.228 28.6C59.0147 28.6213 58.8173 28.6373 58.636 28.648C58.3053 28.6693 58.0173 28.5787 57.772 28.376C57.5373 28.1627 57.4093 27.88 57.388 27.528C57.3773 27.1973 57.468 26.9253 57.66 26.712C57.8627 26.488 58.1453 26.3547 58.508 26.312C58.828 26.28 59.164 26.2427 59.516 26.2C59.868 26.1573 60.2253 26.1093 60.588 26.056C60.652 25.64 60.684 25.2187 60.684 24.792C60.6947 24.4613 60.8067 24.184 61.02 23.96C61.244 23.7253 61.5213 23.608 61.852 23.608C62.1827 23.608 62.4653 23.7253 62.7 23.96C62.9453 24.184 63.0627 24.4613 63.052 24.792C63.0413 24.9307 63.0307 25.0747 63.02 25.224C63.02 25.3627 63.0093 25.5013 62.988 25.64L63.068 25.624C63.388 25.5493 63.6867 25.6027 63.964 25.784C64.2413 25.9547 64.412 26.2 64.476 26.52C64.5507 26.84 64.4973 27.1333 64.316 27.4C64.1347 27.6667 63.884 27.8373 63.564 27.912C63.4147 27.944 63.2493 27.9813 63.068 28.024C62.8867 28.056 62.6893 28.0933 62.476 28.136C62.1347 29.2347 61.6653 30.28 61.068 31.272C60.4707 32.264 59.7773 33.1067 58.988 33.8C58.7427 34.024 58.46 34.1413 58.14 34.152C57.82 34.152 57.5427 34.0347 57.308 33.8ZM67.964 29.624C67.6013 29.4 67.2227 29.192 66.828 29C66.4333 28.808 66.0653 28.6533 65.724 28.536C65.4253 28.4187 65.1853 28.232 65.004 27.976C64.8333 27.72 64.7853 27.432 64.86 27.112C64.9453 26.792 65.1267 26.5467 65.404 26.376C65.692 26.1947 65.9907 26.152 66.3 26.248C66.6307 26.344 66.9773 26.472 67.34 26.632C67.7133 26.7813 68.0707 26.9413 68.412 27.112C68.764 27.2827 69.0627 27.448 69.308 27.608C69.5853 27.7787 69.7507 28.0347 69.804 28.376C69.8573 28.7067 69.7933 29.0107 69.612 29.288C69.4307 29.5547 69.18 29.72 68.86 29.784C68.54 29.848 68.2413 29.7947 67.964 29.624ZM63.052 36.072C63.5747 36.072 63.836 35.8053 63.836 35.272V35.064C63.6973 35.0427 63.564 35.0267 63.436 35.016C63.308 35.0053 63.18 35 63.052 35C62.5613 35 62.316 35.176 62.316 35.528C62.316 35.8907 62.5613 36.072 63.052 36.072ZM75.964 37.832C75.42 37.832 74.9293 37.7413 74.492 37.56C74.0547 37.3787 73.708 37.0907 73.452 36.696C73.196 36.3013 73.068 35.784 73.068 35.144C73.068 34.2373 73.3987 33.416 74.06 32.68C74.732 31.9333 75.6547 31.352 76.828 30.936V29.016C76.4227 29.048 76.0227 29.0747 75.628 29.096C75.2333 29.1173 74.8653 29.128 74.524 29.128C74.1933 29.128 73.9107 29.0213 73.676 28.808C73.4413 28.584 73.324 28.3067 73.324 27.976C73.324 27.6453 73.436 27.368 73.66 27.144C73.8947 26.92 74.1773 26.8027 74.508 26.792C74.8493 26.7813 75.2173 26.7707 75.612 26.76C76.0173 26.7387 76.4227 26.7173 76.828 26.696V25.016C76.828 24.6853 76.94 24.408 77.164 24.184C77.388 23.9493 77.6653 23.832 77.996 23.832C78.3267 23.832 78.604 23.9493 78.828 24.184C79.052 24.408 79.164 24.6853 79.164 25.016V26.504C79.3347 26.4827 79.5 26.4613 79.66 26.44C79.82 26.4187 79.9693 26.3973 80.108 26.376C80.4387 26.3227 80.732 26.3867 80.988 26.568C81.2547 26.7387 81.4093 26.984 81.452 27.304C81.5053 27.6347 81.4307 27.9173 81.228 28.152C81.036 28.3867 80.78 28.5307 80.46 28.584C80.268 28.616 80.0653 28.648 79.852 28.68C79.6387 28.712 79.4093 28.7387 79.164 28.76V30.408C79.708 30.344 80.2733 30.312 80.86 30.312C81.8733 30.312 82.7533 30.456 83.5 30.744C84.2467 31.032 84.8227 31.448 85.228 31.992C85.644 32.536 85.852 33.1867 85.852 33.944C85.852 34.7653 85.6653 35.4747 85.292 36.072C84.9187 36.6587 84.3853 37.1013 83.692 37.4C83.0093 37.7093 82.1933 37.8533 81.244 37.832C80.9133 37.8213 80.6307 37.6987 80.396 37.464C80.1613 37.24 80.0493 36.9627 80.06 36.632C80.06 36.3013 80.1773 36.024 80.412 35.8C80.6467 35.5653 80.9293 35.448 81.26 35.448C82.7107 35.4587 83.436 34.9573 83.436 33.944C83.436 33.464 83.212 33.0907 82.764 32.824C82.3267 32.5573 81.676 32.424 80.812 32.424C80.5133 32.424 80.2253 32.4347 79.948 32.456C79.6813 32.4667 79.42 32.4933 79.164 32.536V34.408C79.164 35.5813 78.8813 36.4453 78.316 37C77.7613 37.5547 76.9773 37.832 75.964 37.832ZM84.284 29.992C84.0493 29.8213 83.772 29.64 83.452 29.448C83.132 29.256 82.8493 29.096 82.604 28.968C82.3267 28.8187 82.124 28.5947 81.996 28.296C81.868 27.9867 81.8733 27.6933 82.012 27.416C82.172 27.096 82.4067 26.8933 82.716 26.808C83.036 26.7227 83.3347 26.7547 83.612 26.904C83.8147 27 84.044 27.1227 84.3 27.272C84.556 27.4213 84.8067 27.576 85.052 27.736C85.2973 27.8853 85.5053 28.024 85.676 28.152C85.932 28.3333 86.0813 28.584 86.124 28.904C86.1667 29.224 86.092 29.512 85.9 29.768C85.708 30.024 85.452 30.1733 85.132 30.216C84.8227 30.248 84.54 30.1733 84.284 29.992ZM75.964 35.608C76.2093 35.608 76.412 35.5333 76.572 35.384C76.7427 35.224 76.828 34.8987 76.828 34.408V33.288C76.38 33.5333 76.0333 33.8107 75.788 34.12C75.5427 34.4293 75.42 34.7493 75.42 35.08C75.42 35.2507 75.468 35.384 75.564 35.48C75.6707 35.5653 75.804 35.608 75.964 35.608ZM91.084 38.44C90.7853 38.44 90.524 38.3387 90.3 38.136C90.0867 37.9333 89.98 37.6667 89.98 37.336V28.856C89.9267 29.2187 89.8627 29.5973 89.788 29.992C89.7133 30.376 89.6493 30.696 89.596 30.952C89.5427 31.208 89.4093 31.4 89.196 31.528C88.9933 31.6453 88.7373 31.6773 88.428 31.624C88.1507 31.5707 87.948 31.4427 87.82 31.24C87.692 31.0267 87.6547 30.7867 87.708 30.52C87.7507 30.296 87.804 30.024 87.868 29.704C87.932 29.384 87.9907 29.064 88.044 28.744C88.0973 28.424 88.1347 28.152 88.156 27.928C88.1987 27.6293 88.332 27.4053 88.556 27.256C88.78 27.096 89.0307 27.0427 89.308 27.096C89.6387 27.1493 89.8627 27.2987 89.98 27.544V24.504C89.98 24.1627 90.0867 23.896 90.3 23.704C90.524 23.512 90.7853 23.416 91.084 23.416C91.3827 23.416 91.6387 23.512 91.852 23.704C92.0653 23.896 92.172 24.1627 92.172 24.504V26.584C92.2573 26.5093 92.348 26.4507 92.444 26.408C92.7 26.312 92.94 26.3067 93.164 26.392C93.3987 26.4667 93.58 26.6373 93.708 26.904C93.7613 27.0107 93.8307 27.16 93.916 27.352C94.0013 27.5333 94.0867 27.7147 94.172 27.896C94.2573 28.0773 94.3267 28.2267 94.38 28.344C94.4867 28.5787 94.492 28.8133 94.396 29.048C94.3107 29.2827 94.156 29.4587 93.932 29.576C94.092 29.512 94.2573 29.48 94.428 29.48C94.684 29.48 94.908 29.5547 95.1 29.704C95.3027 29.8533 95.4253 30.056 95.468 30.312C95.4893 30.2907 95.5053 30.2693 95.516 30.248C95.5373 30.2267 95.5533 30.2107 95.564 30.2C95.7453 29.9973 95.9693 29.8853 96.236 29.864C96.5133 29.8427 96.7587 29.9227 96.972 30.104C97.1213 30.232 97.2707 30.3707 97.42 30.52C97.58 30.6693 97.7453 30.824 97.916 30.984C98.0333 30.792 98.1453 30.6053 98.252 30.424C98.3693 30.2427 98.4653 30.0667 98.54 29.896C98.6893 29.6187 98.892 29.4373 99.148 29.352C99.4147 29.2667 99.6813 29.2987 99.948 29.448C100.268 29.608 100.455 29.8533 100.508 30.184C100.561 29.9387 100.684 29.752 100.876 29.624C101.068 29.496 101.287 29.432 101.532 29.432C101.82 29.432 102.065 29.528 102.268 29.72C102.481 29.9013 102.588 30.1573 102.588 30.488V35.048C102.588 35.8267 102.487 36.4347 102.284 36.872C102.081 37.3093 101.729 37.6133 101.228 37.784C100.727 37.9547 100.023 38.04 99.116 38.04H96.828C95.932 38.04 95.2333 37.9547 94.732 37.784C94.2307 37.6133 93.8733 37.3093 93.66 36.872C93.4573 36.4347 93.356 35.8267 93.356 35.048V30.552C93.356 30.0933 93.5373 29.7787 93.9 29.608C93.8893 29.608 93.8787 29.6133 93.868 29.624C93.868 29.624 93.8627 29.624 93.852 29.624C93.6067 29.7307 93.356 29.736 93.1 29.64C92.8547 29.5333 92.684 29.352 92.588 29.096C92.5453 28.9787 92.4813 28.824 92.396 28.632C92.3213 28.44 92.2467 28.2587 92.172 28.088V37.336C92.172 37.6667 92.0653 37.9333 91.852 38.136C91.6387 38.3387 91.3827 38.44 91.084 38.44ZM99.612 29.112C99.3667 28.9947 99.1853 28.808 99.068 28.552C98.9613 28.2853 98.9667 28.0293 99.084 27.784C99.2013 27.5387 99.34 27.224 99.5 26.84C99.6707 26.456 99.836 26.072 99.996 25.688C100.156 25.2933 100.279 24.968 100.364 24.712C100.481 24.3707 100.689 24.1413 100.988 24.024C101.297 23.896 101.612 23.896 101.932 24.024C102.241 24.1413 102.455 24.3387 102.572 24.616C102.689 24.8827 102.679 25.1813 102.54 25.512C102.433 25.7787 102.289 26.1093 102.108 26.504C101.937 26.888 101.761 27.272 101.58 27.656C101.409 28.04 101.255 28.36 101.116 28.616C100.977 28.8827 100.759 29.064 100.46 29.16C100.172 29.256 99.8893 29.24 99.612 29.112ZM95.916 28.344C95.6493 28.4507 95.3773 28.4453 95.1 28.328C94.8333 28.2107 94.6467 28.0187 94.54 27.752C94.476 27.5707 94.3907 27.3573 94.284 27.112C94.188 26.8667 94.0867 26.6213 93.98 26.376C93.884 26.1307 93.7933 25.928 93.708 25.768C93.5693 25.48 93.5533 25.2133 93.66 24.968C93.7773 24.712 93.9587 24.5307 94.204 24.424C94.4813 24.3067 94.7533 24.28 95.02 24.344C95.2867 24.3973 95.4893 24.5733 95.628 24.872C95.7133 25.0213 95.8147 25.2347 95.932 25.512C96.0493 25.7787 96.1667 26.0453 96.284 26.312C96.4013 26.5787 96.492 26.7973 96.556 26.968C96.6627 27.256 96.6573 27.528 96.54 27.784C96.4333 28.04 96.2253 28.2267 95.916 28.344ZM98.236 27.752C97.9373 27.8267 97.66 27.7893 97.404 27.64C97.148 27.4907 96.988 27.2773 96.924 27C96.892 26.84 96.8387 26.6373 96.764 26.392C96.6893 26.136 96.6147 25.8853 96.54 25.64C96.476 25.3947 96.4173 25.1973 96.364 25.048C96.2573 24.7493 96.2787 24.488 96.428 24.264C96.5773 24.0293 96.78 23.8747 97.036 23.8C97.3453 23.7147 97.6227 23.7307 97.868 23.848C98.1133 23.9547 98.2893 24.1627 98.396 24.472C98.4493 24.6213 98.5133 24.8293 98.588 25.096C98.6733 25.352 98.7533 25.608 98.828 25.864C98.9133 26.12 98.972 26.328 99.004 26.488C99.0893 26.7867 99.0573 27.0533 98.908 27.288C98.7587 27.512 98.5347 27.6667 98.236 27.752ZM96.828 36.104H99.116C99.6813 36.104 100.044 36.0347 100.204 35.896C100.375 35.7573 100.46 35.4747 100.46 35.048V34.84C100.407 34.936 100.327 35.0267 100.22 35.112C99.996 35.2933 99.7453 35.384 99.468 35.384C99.2013 35.3733 98.9773 35.256 98.796 35.032C98.6893 34.904 98.5773 34.7707 98.46 34.632C98.3427 34.4933 98.22 34.3493 98.092 34.2C97.9427 34.3813 97.788 34.5573 97.628 34.728C97.468 34.8987 97.3133 35.0587 97.164 35.208C96.94 35.4213 96.6733 35.544 96.364 35.576C96.0653 35.5973 95.7933 35.4907 95.548 35.256C95.5267 35.2347 95.5107 35.2133 95.5 35.192C95.5213 35.5547 95.6173 35.8 95.788 35.928C95.9587 36.0453 96.3053 36.104 96.828 36.104ZM100.46 33.784V30.584C100.449 30.616 100.439 30.648 100.428 30.68C100.417 30.712 100.401 30.744 100.38 30.776C100.241 31.0533 100.087 31.336 99.916 31.624C99.7453 31.912 99.564 32.2053 99.372 32.504C99.7773 32.9413 100.103 33.3147 100.348 33.624C100.369 33.6453 100.391 33.672 100.412 33.704C100.433 33.736 100.449 33.7627 100.46 33.784ZM95.5 33.928C95.5213 33.9067 95.5427 33.8853 95.564 33.864C95.5853 33.8427 95.6013 33.8213 95.612 33.8C95.7933 33.64 95.9747 33.464 96.156 33.272C96.3373 33.0693 96.5187 32.856 96.7 32.632C96.4973 32.4187 96.3 32.2213 96.108 32.04C95.916 31.848 95.7453 31.6773 95.596 31.528C95.5747 31.5067 95.5587 31.4907 95.548 31.48C95.5373 31.4587 95.5213 31.4427 95.5 31.432V33.928ZM111.276 37.544C111.041 37.3307 110.908 37.0587 110.876 36.728C110.855 36.3867 110.961 36.0987 111.196 35.864C111.601 35.448 111.98 34.9573 112.332 34.392C112.684 33.8267 112.993 33.2347 113.26 32.616C112.908 32.5307 112.561 32.456 112.22 32.392C111.879 32.3173 111.543 32.2587 111.212 32.216C110.476 33.8053 109.569 34.8827 108.492 35.448C108.065 35.672 107.617 35.8053 107.148 35.848C106.689 35.88 106.257 35.816 105.852 35.656C105.447 35.496 105.116 35.2347 104.86 34.872C104.615 34.5093 104.492 34.04 104.492 33.464C104.492 32.8133 104.673 32.232 105.036 31.72C105.409 31.1973 105.975 30.7813 106.732 30.472C107.489 30.1627 108.455 29.9973 109.628 29.976C109.724 29.6773 109.82 29.3573 109.916 29.016C110.012 28.6747 110.103 28.3067 110.188 27.912C110.305 27.4533 110.273 27.1387 110.092 26.968C109.921 26.7973 109.601 26.7493 109.132 26.824C108.929 26.856 108.673 26.8933 108.364 26.936C108.065 26.9787 107.809 27.0107 107.596 27.032C107.265 27.0533 106.977 26.9573 106.732 26.744C106.487 26.5307 106.353 26.2587 106.332 25.928C106.311 25.5973 106.401 25.3093 106.604 25.064C106.817 24.808 107.089 24.6693 107.42 24.648C107.591 24.6373 107.788 24.6213 108.012 24.6C108.247 24.5787 108.476 24.5573 108.7 24.536C108.924 24.5147 109.1 24.504 109.228 24.504C110.529 24.4187 111.457 24.6533 112.012 25.208C112.567 25.752 112.737 26.648 112.524 27.896C112.449 28.2907 112.369 28.68 112.284 29.064C112.199 29.4373 112.108 29.7947 112.012 30.136C112.332 30.1787 112.652 30.232 112.972 30.296C113.303 30.3493 113.633 30.4187 113.964 30.504C114.039 30.1947 114.097 29.8907 114.14 29.592C114.183 29.2827 114.209 28.9893 114.22 28.712C114.241 28.3813 114.353 28.104 114.556 27.88C114.769 27.6453 115.041 27.5227 115.372 27.512C115.713 27.512 116.001 27.6293 116.236 27.864C116.471 28.088 116.577 28.3653 116.556 28.696C116.524 29.464 116.401 30.2747 116.188 31.128C116.476 31.224 116.759 31.3253 117.036 31.432C117.313 31.528 117.585 31.6293 117.852 31.736C118.161 31.864 118.375 32.0827 118.492 32.392C118.62 32.6907 118.625 32.9947 118.508 33.304C118.38 33.6027 118.161 33.8213 117.852 33.96C117.553 34.088 117.249 34.0827 116.94 33.944C116.705 33.8267 116.465 33.72 116.22 33.624C115.975 33.5173 115.729 33.416 115.484 33.32C115.153 34.1733 114.764 34.968 114.316 35.704C113.879 36.4293 113.425 37.016 112.956 37.464C112.721 37.6987 112.444 37.8267 112.124 37.848C111.804 37.8693 111.521 37.768 111.276 37.544ZM107.516 33.448C107.708 33.3307 107.9 33.1707 108.092 32.968C108.295 32.7653 108.492 32.4987 108.684 32.168C108.065 32.2427 107.607 32.376 107.308 32.568C107.009 32.7493 106.855 32.9573 106.844 33.192C106.833 33.3627 106.887 33.48 107.004 33.544C107.121 33.608 107.292 33.576 107.516 33.448ZM127.98 37.832C126.988 37.832 126.22 37.5867 125.676 37.096C125.143 36.616 124.876 35.944 124.876 35.08C124.876 34.2587 125.159 33.5973 125.724 33.096C126.289 32.584 127.084 32.328 128.108 32.328C128.193 32.328 128.284 32.328 128.38 32.328C128.476 32.328 128.572 32.3333 128.668 32.344C128.657 31.9173 128.641 31.464 128.62 30.984C128.609 30.504 128.599 30.008 128.588 29.496C128.044 29.528 127.521 29.5493 127.02 29.56C126.529 29.56 126.108 29.5547 125.756 29.544C125.436 29.5333 125.169 29.4107 124.956 29.176C124.743 28.9413 124.641 28.664 124.652 28.344C124.673 28.024 124.796 27.7573 125.02 27.544C125.255 27.32 125.532 27.2187 125.852 27.24C126.172 27.2507 126.567 27.2507 127.036 27.24C127.516 27.2293 128.017 27.2133 128.54 27.192C128.529 26.84 128.524 26.4987 128.524 26.168C128.524 25.8267 128.524 25.5013 128.524 25.192C128.524 24.8613 128.636 24.584 128.86 24.36C129.095 24.1253 129.377 24.008 129.708 24.008C130.039 24.008 130.316 24.1253 130.54 24.36C130.775 24.584 130.892 24.8613 130.892 25.192C130.892 25.48 130.892 25.7787 130.892 26.088C130.903 26.3973 130.908 26.712 130.908 27.032C131.804 26.968 132.476 26.8933 132.924 26.808C133.244 26.7547 133.532 26.824 133.788 27.016C134.055 27.208 134.209 27.4587 134.252 27.768C134.305 28.0773 134.236 28.3653 134.044 28.632C133.863 28.888 133.617 29.0427 133.308 29.096C133.041 29.1387 132.7 29.1813 132.284 29.224C131.879 29.2667 131.436 29.3093 130.956 29.352C130.977 29.992 130.993 30.616 131.004 31.224C131.025 31.8213 131.041 32.3653 131.052 32.856C131.639 33.0587 132.183 33.2933 132.684 33.56C133.185 33.8267 133.612 34.0933 133.964 34.36C134.231 34.5627 134.391 34.8293 134.444 35.16C134.497 35.48 134.428 35.7787 134.236 36.056C134.044 36.3227 133.783 36.4933 133.452 36.568C133.132 36.632 132.844 36.5627 132.588 36.36C132.119 35.9867 131.612 35.656 131.068 35.368C130.876 37.0107 129.847 37.832 127.98 37.832ZM122.684 37.848C122.353 37.9013 122.055 37.832 121.788 37.64C121.521 37.4587 121.356 37.208 121.292 36.888C121.228 36.536 121.18 36.056 121.148 35.448C121.116 34.8293 121.095 34.1413 121.084 33.384C121.073 32.616 121.073 31.8213 121.084 31C121.105 30.168 121.137 29.3627 121.18 28.584C121.223 27.8053 121.276 27.096 121.34 26.456C121.415 25.816 121.5 25.2987 121.596 24.904C121.681 24.584 121.863 24.3387 122.14 24.168C122.417 23.9973 122.716 23.9493 123.036 24.024C123.356 24.0987 123.601 24.28 123.772 24.568C123.953 24.8453 124.001 25.144 123.916 25.464C123.82 25.848 123.74 26.3387 123.676 26.936C123.612 27.5227 123.559 28.168 123.516 28.872C123.473 29.576 123.441 30.3013 123.42 31.048C123.409 31.784 123.409 32.504 123.42 33.208C123.431 33.9013 123.452 34.5307 123.484 35.096C123.527 35.6613 123.58 36.12 123.644 36.472C123.697 36.792 123.628 37.0853 123.436 37.352C123.255 37.6293 123.004 37.7947 122.684 37.848ZM127.98 35.576C128.215 35.576 128.401 35.5173 128.54 35.4C128.679 35.2827 128.748 35.096 128.748 34.84C128.748 34.8187 128.748 34.7867 128.748 34.744C128.748 34.7013 128.743 34.648 128.732 34.584C128.615 34.5627 128.492 34.5467 128.364 34.536C128.236 34.5253 128.108 34.52 127.98 34.52C127.724 34.52 127.537 34.5733 127.42 34.68C127.303 34.776 127.244 34.904 127.244 35.064C127.244 35.2347 127.297 35.3627 127.404 35.448C127.521 35.5333 127.713 35.576 127.98 35.576ZM146.124 38.072C145.804 38.1467 145.489 38.1147 145.18 37.976C144.881 37.8373 144.689 37.608 144.604 37.288C144.519 36.9787 144.561 36.6853 144.732 36.408C144.903 36.1307 145.143 35.9493 145.452 35.864C146.273 35.6187 146.876 35.2773 147.26 34.84C147.644 34.4027 147.836 33.8267 147.836 33.112C147.836 32.6107 147.692 32.168 147.404 31.784C147.127 31.4 146.705 31.1067 146.14 30.904C145.969 31.6613 145.719 32.3813 145.388 33.064C145.068 33.7467 144.689 34.3707 144.252 34.936C144.273 34.968 144.295 35 144.316 35.032C144.337 35.064 144.353 35.096 144.364 35.128C144.545 35.3947 144.604 35.6933 144.54 36.024C144.487 36.344 144.321 36.5947 144.044 36.776C143.809 36.9253 143.553 36.984 143.276 36.952C142.999 36.92 142.764 36.808 142.572 36.616C142.081 36.9787 141.575 37.2613 141.052 37.464C140.529 37.6667 140.001 37.768 139.468 37.768C138.647 37.768 137.98 37.544 137.468 37.096C136.956 36.648 136.7 35.912 136.7 34.888C136.7 34.088 136.871 33.3413 137.212 32.648C137.553 31.9547 138.017 31.336 138.604 30.792C139.201 30.248 139.868 29.7947 140.604 29.432C140.604 28.952 140.62 28.456 140.652 27.944C139.767 27.9973 138.951 28.0133 138.204 27.992C137.895 27.992 137.633 27.8747 137.42 27.64C137.207 27.3947 137.105 27.1173 137.116 26.808C137.137 26.488 137.265 26.2267 137.5 26.024C137.735 25.8107 138.007 25.7093 138.316 25.72C138.721 25.7307 139.137 25.7307 139.564 25.72C140.001 25.7093 140.444 25.6987 140.892 25.688C140.924 25.496 140.956 25.3093 140.988 25.128C141.031 24.936 141.073 24.744 141.116 24.552C141.18 24.232 141.345 23.9813 141.612 23.8C141.879 23.6187 142.172 23.5653 142.492 23.64C142.823 23.704 143.073 23.8747 143.244 24.152C143.415 24.4293 143.463 24.728 143.388 25.048C143.377 25.1227 143.361 25.1973 143.34 25.272C143.329 25.3467 143.313 25.4267 143.292 25.512C143.697 25.4693 144.087 25.4267 144.46 25.384C144.844 25.3307 145.201 25.2827 145.532 25.24C145.841 25.1867 146.124 25.2507 146.38 25.432C146.647 25.6027 146.807 25.8427 146.86 26.152C146.913 26.4613 146.849 26.7493 146.668 27.016C146.487 27.2827 146.241 27.4373 145.932 27.48C145.025 27.608 144.028 27.7147 142.94 27.8C142.929 27.9493 142.919 28.0987 142.908 28.248C142.897 28.3867 142.887 28.5307 142.876 28.68C143.377 28.584 143.884 28.536 144.396 28.536C145.655 28.536 146.705 28.7333 147.548 29.128C148.401 29.512 149.041 30.0507 149.468 30.744C149.905 31.4267 150.124 32.216 150.124 33.112C150.124 34.3813 149.804 35.448 149.164 36.312C148.524 37.176 147.511 37.7627 146.124 38.072ZM139.692 35.56C139.969 35.56 140.268 35.48 140.588 35.32C140.908 35.16 141.228 34.9413 141.548 34.664C141.377 34.2267 141.228 33.7627 141.1 33.272C140.983 32.7813 140.881 32.2747 140.796 31.752C140.231 32.1467 139.783 32.616 139.452 33.16C139.121 33.704 138.956 34.2587 138.956 34.824C138.967 35.1227 139.025 35.32 139.132 35.416C139.239 35.512 139.425 35.56 139.692 35.56ZM143.212 32.52C143.543 31.9333 143.793 31.3147 143.964 30.664C143.783 30.6747 143.601 30.696 143.42 30.728C143.249 30.7493 143.079 30.7813 142.908 30.824C142.94 31.1227 142.977 31.4107 143.02 31.688C143.073 31.9653 143.137 32.2427 143.212 32.52ZM158.748 37.96C158.513 37.736 158.385 37.4587 158.364 37.128C158.343 36.7973 158.444 36.5147 158.668 36.28C159.521 35.3627 160.167 34.312 160.604 33.128C161.041 31.9333 161.26 30.6373 161.26 29.24C161.26 28.4507 161.127 27.896 160.86 27.576C160.604 27.256 160.257 27.096 159.82 27.096C159.404 27.096 159.036 27.2347 158.716 27.512C158.396 27.7893 158.161 28.248 158.012 28.888C157.863 29.528 157.831 30.3867 157.916 31.464C157.948 31.784 157.868 32.0667 157.676 32.312C157.484 32.5573 157.228 32.696 156.908 32.728C156.588 32.76 156.311 32.68 156.076 32.488C155.841 32.296 155.703 32.0453 155.66 31.736C155.575 31.1387 155.521 30.4987 155.5 29.816C155.479 29.1333 155.473 28.4613 155.484 27.8C155.505 27.1387 155.537 26.5307 155.58 25.976C155.623 25.4107 155.665 24.952 155.708 24.6C155.751 24.2693 155.895 24.0027 156.14 23.8C156.385 23.5973 156.673 23.5173 157.004 23.56C157.335 23.6027 157.596 23.7413 157.788 23.976C157.98 24.2107 158.049 24.5147 157.996 24.888C157.985 24.9947 157.959 25.176 157.916 25.432C157.884 25.688 157.857 25.9067 157.836 26.088C157.953 25.8427 158.119 25.6187 158.332 25.416C158.556 25.2027 158.807 25.032 159.084 24.904C159.361 24.776 159.639 24.712 159.916 24.712C161.185 24.712 162.113 25.112 162.7 25.912C163.297 26.7013 163.596 27.8107 163.596 29.24C163.596 30.9253 163.335 32.5253 162.812 34.04C162.289 35.5547 161.505 36.84 160.46 37.896C160.225 38.1307 159.943 38.2533 159.612 38.264C159.281 38.2853 158.993 38.184 158.748 37.96ZM173.788 38.12C172.817 38.12 172.044 37.8853 171.468 37.416C170.903 36.9467 170.62 36.2693 170.62 35.384C170.62 34.584 170.913 33.9493 171.5 33.48C172.087 33 172.881 32.76 173.884 32.76C174.001 32.76 174.113 32.7653 174.22 32.776C174.337 32.776 174.449 32.7813 174.556 32.792L174.524 31.528C174.033 31.5387 173.553 31.5387 173.084 31.528C172.625 31.5173 172.209 31.5067 171.836 31.496C171.527 31.4747 171.265 31.3413 171.052 31.096C170.849 30.84 170.764 30.552 170.796 30.232C170.817 29.9227 170.951 29.6667 171.196 29.464C171.441 29.2613 171.724 29.1707 172.044 29.192C172.385 29.2027 172.764 29.2133 173.18 29.224C173.596 29.2347 174.023 29.24 174.46 29.24L174.444 28.12C173.964 28.12 173.5 28.1147 173.052 28.104C172.615 28.0933 172.209 28.0827 171.836 28.072C171.527 28.0507 171.265 27.9173 171.052 27.672C170.849 27.4267 170.764 27.144 170.796 26.824C170.817 26.504 170.951 26.2427 171.196 26.04C171.441 25.8373 171.724 25.7467 172.044 25.768C172.727 25.8213 173.516 25.8373 174.412 25.816V24.824C174.412 24.4933 174.524 24.2107 174.748 23.976C174.983 23.7413 175.265 23.624 175.596 23.624C175.927 23.624 176.204 23.7413 176.428 23.976C176.663 24.2107 176.78 24.4933 176.78 24.824C176.78 24.9627 176.78 25.112 176.78 25.272C176.791 25.4213 176.796 25.5813 176.796 25.752C177.191 25.7307 177.564 25.7093 177.916 25.688C178.268 25.656 178.588 25.6187 178.876 25.576C179.196 25.5333 179.479 25.608 179.724 25.8C179.98 25.992 180.129 26.248 180.172 26.568C180.225 26.8773 180.151 27.16 179.948 27.416C179.756 27.672 179.505 27.8213 179.196 27.864C178.865 27.9067 178.497 27.944 178.092 27.976C177.687 27.9973 177.265 28.0187 176.828 28.04L176.844 29.16C177.228 29.1387 177.591 29.1173 177.932 29.096C178.284 29.064 178.599 29.0267 178.876 28.984C179.196 28.9413 179.479 29.016 179.724 29.208C179.98 29.4 180.129 29.656 180.172 29.976C180.225 30.296 180.151 30.584 179.948 30.84C179.756 31.096 179.505 31.24 179.196 31.272C178.865 31.3147 178.503 31.352 178.108 31.384C177.724 31.4053 177.319 31.4267 176.892 31.448L176.94 33.256C177.548 33.448 178.119 33.6773 178.652 33.944C179.185 34.2107 179.665 34.488 180.092 34.776C180.369 34.9573 180.535 35.2133 180.588 35.544C180.641 35.864 180.577 36.1573 180.396 36.424C180.204 36.6907 179.948 36.856 179.628 36.92C179.308 36.984 179.009 36.92 178.732 36.728C178.465 36.536 178.177 36.3547 177.868 36.184C177.569 36.0027 177.265 35.8373 176.956 35.688C176.86 36.4987 176.54 37.1067 175.996 37.512C175.463 37.9173 174.727 38.12 173.788 38.12ZM173.772 35.848C174.092 35.848 174.311 35.7947 174.428 35.688C174.556 35.5707 174.615 35.3947 174.604 35.16V34.952C174.316 34.92 174.039 34.904 173.772 34.904C173.484 34.904 173.281 34.9467 173.164 35.032C173.057 35.1173 173.004 35.2347 173.004 35.384C173.004 35.5227 173.057 35.6347 173.164 35.72C173.281 35.8053 173.484 35.848 173.772 35.848ZM195.82 37.224C194.977 37.32 194.14 37.3627 193.308 37.352C192.476 37.352 191.703 37.256 190.988 37.064C190.273 36.872 189.66 36.5467 189.148 36.088C188.657 35.64 188.295 35.1067 188.06 34.488C187.836 33.8587 187.724 33.0587 187.724 32.088V30.856C187.265 30.9093 186.828 30.968 186.412 31.032C186.007 31.096 185.633 31.16 185.292 31.224C184.972 31.2773 184.679 31.2133 184.412 31.032C184.156 30.84 184.001 30.5893 183.948 30.28C183.895 29.9707 183.959 29.6827 184.14 29.416C184.332 29.1493 184.583 28.9947 184.892 28.952C185.297 28.888 185.74 28.824 186.22 28.76C186.7 28.696 187.201 28.6373 187.724 28.584V26.088C187.724 25.7573 187.836 25.48 188.06 25.256C188.295 25.0213 188.577 24.904 188.908 24.904C189.239 24.904 189.521 25.0213 189.756 25.256C189.991 25.48 190.108 25.7573 190.108 26.088V28.344C191.057 28.248 192.028 28.168 193.02 28.104C193.063 27.6987 193.095 27.2987 193.116 26.904C193.148 26.5093 193.169 26.1307 193.18 25.768C193.191 25.4373 193.313 25.16 193.548 24.936C193.783 24.7013 194.065 24.5893 194.396 24.6C194.727 24.6107 195.004 24.7387 195.228 24.984C195.463 25.2187 195.575 25.5013 195.564 25.832C195.553 26.1733 195.537 26.5253 195.516 26.888C195.495 27.24 195.468 27.5973 195.436 27.96C196.289 27.9173 197.095 27.8853 197.852 27.864C198.172 27.8533 198.444 27.9653 198.668 28.2C198.892 28.424 199.004 28.696 199.004 29.016C199.004 29.336 198.892 29.6133 198.668 29.848C198.444 30.072 198.172 30.1787 197.852 30.168C197.436 30.168 196.999 30.1733 196.54 30.184C196.092 30.1947 195.633 30.2107 195.164 30.232C195.089 30.7333 195.009 31.2187 194.924 31.688C194.849 32.1467 194.769 32.5627 194.684 32.936C194.609 33.256 194.428 33.5013 194.14 33.672C193.863 33.8427 193.564 33.8907 193.244 33.816C192.903 33.7413 192.652 33.5653 192.492 33.288C192.332 33.0107 192.289 32.7067 192.364 32.376C192.513 31.7467 192.641 31.0747 192.748 30.36C192.3 30.392 191.852 30.4293 191.404 30.472C190.967 30.504 190.535 30.5413 190.108 30.584V32.088C190.108 32.664 190.161 33.1333 190.268 33.496C190.385 33.848 190.556 34.1307 190.78 34.344C191.143 34.664 191.708 34.8613 192.476 34.936C193.255 35.0107 194.289 34.984 195.58 34.856C195.911 34.824 196.199 34.9093 196.444 35.112C196.7 35.3147 196.844 35.5813 196.876 35.912C196.919 36.2427 196.833 36.536 196.62 36.792C196.417 37.0373 196.151 37.1813 195.82 37.224ZM201.58 37.464C201.281 37.336 201.068 37.1173 200.94 36.808C200.823 36.4987 200.833 36.1947 200.972 35.896C201.164 35.4907 201.393 34.9947 201.66 34.408C201.937 33.8107 202.241 33.1653 202.572 32.472C202.913 31.768 203.26 31.0533 203.612 30.328C203.964 29.592 204.305 28.8827 204.636 28.2C204.977 27.5067 205.292 26.872 205.58 26.296C205.879 25.7093 206.135 25.2187 206.348 24.824C206.497 24.536 206.732 24.3493 207.052 24.264C207.383 24.1787 207.687 24.2213 207.964 24.392C208.252 24.552 208.439 24.792 208.524 25.112C208.62 25.432 208.583 25.7307 208.412 26.008C208.177 26.4133 207.873 26.9733 207.5 27.688C207.127 28.4027 206.732 29.1813 206.316 30.024C206.572 29.96 206.833 29.928 207.1 29.928C208.145 29.928 208.876 30.2747 209.292 30.968C209.708 31.6613 209.751 32.5947 209.42 33.768C209.292 34.2267 209.271 34.5467 209.356 34.728C209.452 34.8987 209.639 34.984 209.916 34.984C210.119 34.984 210.316 34.9413 210.508 34.856C210.711 34.76 210.919 34.552 211.132 34.232C211.345 33.912 211.58 33.4213 211.836 32.76C211.953 32.4507 212.167 32.232 212.476 32.104C212.796 31.9653 213.105 31.9547 213.404 32.072C213.713 32.1893 213.937 32.4027 214.076 32.712C214.215 33.0213 214.231 33.3307 214.124 33.64C213.676 34.8987 213.105 35.8267 212.412 36.424C211.729 37.0213 210.849 37.32 209.772 37.32C209.047 37.32 208.439 37.176 207.948 36.888C207.468 36.5893 207.143 36.152 206.972 35.576C206.812 34.9893 206.855 34.264 207.1 33.4C207.228 32.952 207.233 32.648 207.116 32.488C207.009 32.3173 206.791 32.232 206.46 32.232C206.087 32.232 205.719 32.3813 205.356 32.68C205.004 32.9787 204.673 33.4533 204.364 34.104C204.321 34.2 204.241 34.376 204.124 34.632C204.007 34.888 203.884 35.1653 203.756 35.464C203.628 35.752 203.511 36.0187 203.404 36.264C203.297 36.4987 203.228 36.6533 203.196 36.728C203.057 37.0373 202.839 37.272 202.54 37.432C202.241 37.592 201.921 37.6027 201.58 37.464ZM221.276 37.608C220.945 37.5547 220.679 37.4 220.476 37.144C220.284 36.888 220.209 36.5947 220.252 36.264C220.295 35.9333 220.444 35.672 220.7 35.48C220.967 35.2773 221.26 35.1973 221.58 35.24C221.911 35.2827 222.193 35.2933 222.428 35.272C222.673 35.24 222.876 35.1333 223.036 34.952C223.207 34.76 223.351 34.4613 223.468 34.056C223.596 33.6507 223.708 33.0907 223.804 32.376C223.9 31.7253 223.911 31.2347 223.836 30.904C223.761 30.5733 223.591 30.3547 223.324 30.248C223.057 30.1307 222.679 30.088 222.188 30.12C221.793 31.4747 221.297 32.7867 220.7 34.056C220.113 35.3253 219.457 36.4027 218.732 37.288C218.529 37.5333 218.263 37.6773 217.932 37.72C217.612 37.7627 217.324 37.6827 217.068 37.48C216.812 37.2773 216.663 37.0107 216.62 36.68C216.577 36.3493 216.657 36.0613 216.86 35.816C217.436 35.1227 217.969 34.3013 218.46 33.352C218.961 32.4027 219.393 31.4 219.756 30.344C219.479 30.3653 219.201 30.392 218.924 30.424C218.647 30.456 218.385 30.4827 218.14 30.504C217.809 30.536 217.516 30.4507 217.26 30.248C217.004 30.0453 216.86 29.7787 216.828 29.448C216.785 29.1173 216.865 28.824 217.068 28.568C217.281 28.312 217.553 28.168 217.884 28.136C218.289 28.0933 218.705 28.056 219.132 28.024C219.559 27.992 219.985 27.96 220.412 27.928C220.497 27.4907 220.572 27.064 220.636 26.648C220.7 26.2213 220.743 25.8 220.764 25.384C220.785 25.0533 220.919 24.7813 221.164 24.568C221.409 24.344 221.697 24.2427 222.028 24.264C222.359 24.2853 222.636 24.4187 222.86 24.664C223.084 24.9093 223.18 25.1973 223.148 25.528C223.052 26.264 222.924 27.0373 222.764 27.848C224.161 27.912 225.121 28.3333 225.644 29.112C226.167 29.88 226.321 31.0747 226.108 32.696C225.937 34.072 225.655 35.1387 225.26 35.896C224.865 36.6533 224.343 37.1547 223.692 37.4C223.041 37.656 222.236 37.7253 221.276 37.608ZM230.412 32.84C230.124 33 229.82 33.032 229.5 32.936C229.191 32.84 228.956 32.6533 228.796 32.376C228.615 32.056 228.385 31.7093 228.108 31.336C227.831 30.952 227.543 30.584 227.244 30.232C226.956 29.88 226.689 29.576 226.444 29.32C226.22 29.0747 226.097 28.7973 226.076 28.488C226.055 28.168 226.156 27.8907 226.38 27.656C226.604 27.4107 226.881 27.288 227.212 27.288C227.543 27.2773 227.825 27.3893 228.06 27.624C228.615 28.1467 229.137 28.7333 229.628 29.384C230.129 30.024 230.545 30.6373 230.876 31.224C231.047 31.512 231.084 31.816 230.988 32.136C230.892 32.456 230.7 32.6907 230.412 32.84ZM239.5 34.328C239.233 34.328 238.999 34.2427 238.796 34.072C238.604 33.8907 238.497 33.6667 238.476 33.4L238.364 31.896C238.321 31.3307 238.401 30.8613 238.604 30.488C238.807 30.104 239.265 29.7787 239.98 29.512C240.417 29.3307 240.716 29.112 240.876 28.856C241.047 28.5893 241.132 28.2533 241.132 27.848C241.132 27.3253 240.988 26.904 240.7 26.584C240.423 26.264 240.023 26.104 239.5 26.104C239.105 26.104 238.748 26.2213 238.428 26.456C238.119 26.6907 237.905 26.9893 237.788 27.352C237.681 27.7147 237.463 27.9867 237.132 28.168C236.812 28.3387 236.471 28.3707 236.108 28.264C235.745 28.1573 235.479 27.9493 235.308 27.64C235.137 27.3307 235.1 26.9947 235.196 26.632C235.356 26.088 235.633 25.5973 236.028 25.16C236.423 24.7227 236.913 24.376 237.5 24.12C238.097 23.8533 238.764 23.72 239.5 23.72C240.364 23.72 241.127 23.8853 241.788 24.216C242.46 24.5467 242.983 25.0213 243.356 25.64C243.74 26.248 243.932 26.984 243.932 27.848C243.932 28.7013 243.681 29.416 243.18 29.992C242.679 30.568 242.033 31 241.244 31.288C240.977 31.384 240.801 31.496 240.716 31.624C240.631 31.7413 240.583 31.9333 240.572 32.2L240.508 33.4C240.497 33.6667 240.391 33.8907 240.188 34.072C239.996 34.2427 239.767 34.328 239.5 34.328ZM239.5 38.12C239.073 38.12 238.705 37.9653 238.396 37.656C238.087 37.3467 237.932 36.9787 237.932 36.552C237.932 36.1147 238.087 35.7467 238.396 35.448C238.705 35.1493 239.073 35 239.5 35C239.937 35 240.305 35.1493 240.604 35.448C240.913 35.7467 241.068 36.1147 241.068 36.552C241.068 36.9787 240.913 37.3467 240.604 37.656C240.305 37.9653 239.937 38.12 239.5 38.12Z" fill="white"/>
</svg>
