<svg width="221" height="74" viewBox="0 0 221 74" fill="none" xmlns="http://www.w3.org/2000/svg">
<path d="M192.74 0H35.0199C22.7203 0 12.2581 10.2898 8.37429 24.6508C4.59419 23.3677 1.43115 21.2654 0 19.6881C0 20.367 0.518532 22.8563 0.691376 23.422C1.71116 26.7577 4.01344 31.8698 6.88956 33.4539C6.80487 34.6216 6.75993 35.8029 6.75993 37C6.75993 57.4349 19.4121 74 35.0199 74H192.74C208.348 74 221 57.4349 221 37C221 16.5651 208.348 0 192.74 0Z" fill="#89C3EB"/>
<rect x="23" y="23" width="80" height="4" rx="2" fill="#D9D9D9"/>
<path d="M79.5025 25C78.6225 25 78.1825 24.56 78.1825 23.68V13.4H75.3825C74.5025 13.4 74.0625 13 74.0625 12.2C74.0625 11.4 74.5025 11 75.3825 11H83.5825C84.4625 11 84.9025 11.4 84.9025 12.2C84.9025 13 84.4625 13.4 83.5825 13.4H80.8025V23.68C80.8025 24.56 80.3692 25 79.5025 25Z" fill="white"/>
<path d="M62.062 25C61.1953 25 60.762 24.56 60.762 23.68V12.32C60.762 11.44 61.1953 11 62.062 11H62.342C63.0086 11 63.5353 11.2867 63.922 11.86L69.622 20.46V12.32C69.622 11.44 70.062 11 70.942 11C71.8086 11 72.242 11.44 72.242 12.32V23.68C72.242 24.56 71.8286 25 71.002 25H70.782C70.0886 25 69.562 24.7133 69.202 24.14L63.362 15.22V23.68C63.362 24.56 62.9286 25 62.062 25Z" fill="white"/>
<path d="M56.7885 25C55.9219 25 55.4885 24.56 55.4885 23.68V12.32C55.4885 11.44 55.9219 11 56.7885 11C57.6552 11 58.0885 11.44 58.0885 12.32V23.68C58.0885 24.56 57.6552 25 56.7885 25Z" fill="white"/>
<path d="M46.8969 25.3401C45.6302 25.3401 44.4969 25.0401 43.4969 24.4401C42.4969 23.8401 41.7102 22.9935 41.1369 21.9001C40.5769 20.7935 40.2969 19.4935 40.2969 18.0001C40.2969 16.4935 40.5769 15.1935 41.1369 14.1001C41.7102 12.9935 42.4969 12.1401 43.4969 11.5401C44.4969 10.9268 45.6302 10.6201 46.8969 10.6201C48.1635 10.6201 49.2902 10.9268 50.2769 11.5401C51.2769 12.1401 52.0569 12.9935 52.6169 14.1001C53.1902 15.1935 53.4769 16.4935 53.4769 18.0001C53.4769 19.4935 53.1902 20.7935 52.6169 21.9001C52.0569 22.9935 51.2769 23.8401 50.2769 24.4401C49.2902 25.0401 48.1635 25.3401 46.8969 25.3401ZM46.8969 22.8201C47.6969 22.8201 48.3835 22.6201 48.9569 22.2201C49.5435 21.8068 49.9902 21.2401 50.2969 20.5201C50.6169 19.8001 50.7769 18.9601 50.7769 18.0001C50.7769 17.0268 50.6169 16.1801 50.2969 15.4601C49.9902 14.7401 49.5435 14.1801 48.9569 13.7801C48.3835 13.3668 47.6969 13.1601 46.8969 13.1601C46.1102 13.1601 45.4235 13.3668 44.8369 13.7801C44.2635 14.1801 43.8169 14.7401 43.4969 15.4601C43.1769 16.1801 43.0169 17.0268 43.0169 18.0001C43.0169 18.9601 43.1769 19.8001 43.4969 20.5201C43.8169 21.2401 44.2635 21.8068 44.8369 22.2201C45.4235 22.6201 46.1102 22.8201 46.8969 22.8201Z" fill="white"/>
<path d="M29.6401 25C28.7734 25 28.3401 24.56 28.3401 23.68V12.32C28.3401 11.44 28.7801 11 29.6601 11H34.8201C35.7001 11 36.4601 11.1333 37.1001 11.4C37.7534 11.6667 38.2534 12.1 38.6001 12.7C38.9601 13.3 39.1401 14.1067 39.1401 15.12C39.1401 16.1333 38.9601 16.9467 38.6001 17.56C38.2534 18.16 37.7534 18.6 37.1001 18.88C36.4601 19.1467 35.7001 19.28 34.8201 19.28H30.9401V23.68C30.9401 24.56 30.5068 25 29.6401 25ZM30.9401 16.86H34.4601C35.0601 16.86 35.5334 16.7267 35.8801 16.46C36.2268 16.1933 36.4001 15.7467 36.4001 15.12C36.4001 14.5067 36.2268 14.0667 35.8801 13.8C35.5334 13.5333 35.0601 13.4 34.4601 13.4H30.9401V16.86Z" fill="white"/>
<path d="M96.51 26.2999C94.29 26.2999 92.59 25.4599 91.41 23.7799C91.03 23.1999 90.93 22.6899 91.11 22.2499C91.29 21.8099 91.64 21.4999 92.16 21.3199C92.72 21.1399 93.18 21.1499 93.54 21.3499C93.9 21.5299 94.29 21.8299 94.71 22.2499C94.93 22.4299 95.17 22.5799 95.43 22.6999C95.71 22.8199 96.04 22.8799 96.42 22.8799C97.34 22.8799 98.07 22.6599 98.61 22.2199C99.17 21.7799 99.45 20.9999 99.45 19.8799C99.45 18.8999 99.18 18.1199 98.64 17.5399C98.12 16.9399 97.34 16.6399 96.3 16.6399C95.2 16.6399 94.65 16.0899 94.65 14.9899C94.65 13.9099 95.2 13.3699 96.3 13.3699C97.24 13.3699 97.91 13.0999 98.31 12.5599C98.73 12.0199 98.94 11.3499 98.94 10.5499C98.94 9.60992 98.68 8.96992 98.16 8.62992C97.64 8.26992 97.06 8.08992 96.42 8.08992C96.12 8.08992 95.85 8.14992 95.61 8.26992C95.37 8.38992 95.15 8.53992 94.95 8.71992C94.53 9.15992 94.13 9.46992 93.75 9.64992C93.39 9.82992 92.94 9.80992 92.4 9.58992C91.9 9.36992 91.57 9.03992 91.41 8.59992C91.27 8.13992 91.4 7.63992 91.8 7.09992C93.02 5.47992 94.59 4.66992 96.51 4.66992C97.75 4.66992 98.83 4.90992 99.75 5.38992C100.67 5.86992 101.39 6.53992 101.91 7.39992C102.43 8.25992 102.69 9.25992 102.69 10.3999C102.69 11.4199 102.42 12.3399 101.88 13.1599C101.34 13.9599 100.66 14.5499 99.84 14.9299C100.82 15.3099 101.62 15.9599 102.24 16.8799C102.86 17.7999 103.17 18.8499 103.17 20.0299C103.17 21.9699 102.57 23.4999 101.37 24.6199C100.19 25.7399 98.57 26.2999 96.51 26.2999Z" fill="#D74545"/>
<path d="M149.536 62.8319C149.312 62.9519 149.076 62.9719 148.828 62.8919C148.588 62.8039 148.4 62.6519 148.264 62.4359C148.192 62.3079 148.096 62.1559 147.976 61.9799C147.856 61.8039 147.724 61.6159 147.58 61.4159C147.124 61.4879 146.596 61.5679 145.996 61.6559C145.396 61.7359 144.772 61.8159 144.124 61.8959C143.476 61.9679 142.856 62.0359 142.264 62.0999C141.672 62.1639 141.156 62.2079 140.716 62.2319C140.46 62.2479 140.236 62.1759 140.044 62.0159C139.852 61.8479 139.748 61.6399 139.732 61.3919C139.716 61.1359 139.796 60.9119 139.972 60.7199C140.148 60.5199 140.364 60.4159 140.62 60.4079C140.732 60.3999 140.844 60.3919 140.956 60.3839C141.076 60.3759 141.2 60.3679 141.328 60.3599C141.552 60.0079 141.792 59.5959 142.048 59.1239C142.312 58.6439 142.568 58.1479 142.816 57.6359C143.064 57.1159 143.292 56.6239 143.5 56.1599C143.708 55.6959 143.876 55.3039 144.004 54.9839C144.1 54.7439 144.26 54.5679 144.484 54.4559C144.716 54.3439 144.952 54.3319 145.192 54.4199C145.432 54.4999 145.612 54.6599 145.732 54.8999C145.852 55.1319 145.86 55.3639 145.756 55.5959C145.596 55.9719 145.384 56.4239 145.12 56.9519C144.864 57.4799 144.584 58.0279 144.28 58.5959C143.976 59.1639 143.672 59.7039 143.368 60.2159C143.888 60.1759 144.412 60.1319 144.94 60.0839C145.468 60.0279 145.956 59.9759 146.404 59.9279C146.276 59.7679 146.152 59.6199 146.032 59.4839C145.92 59.3479 145.812 59.2279 145.708 59.1239C145.532 58.9399 145.448 58.7279 145.456 58.4879C145.464 58.2399 145.56 58.0279 145.744 57.8519C145.928 57.6679 146.144 57.5839 146.392 57.5999C146.648 57.6159 146.864 57.7159 147.04 57.8999C147.264 58.1239 147.512 58.3959 147.784 58.7159C148.064 59.0359 148.344 59.3719 148.624 59.7239C148.904 60.0679 149.156 60.4039 149.38 60.7319C149.612 61.0519 149.792 61.3319 149.92 61.5719C150.04 61.7959 150.064 62.0319 149.992 62.2799C149.92 62.5279 149.768 62.7119 149.536 62.8319Z" fill="#284877"/>
<path d="M131.272 63.5519C131.032 63.6319 130.796 63.6119 130.564 63.4919C130.34 63.3799 130.188 63.1999 130.108 62.9519C130.028 62.7119 130.044 62.4799 130.156 62.2559C130.276 62.0239 130.456 61.8679 130.696 61.7879C131.664 61.4759 132.512 61.0399 133.24 60.4799C133.968 59.9119 134.504 59.2719 134.848 58.5599C134.936 58.3679 134.94 58.2119 134.86 58.0919C134.78 57.9719 134.6 57.9119 134.32 57.9119H129.928C129.672 57.9119 129.452 57.8239 129.268 57.6479C129.084 57.4719 128.992 57.2599 128.992 57.0119C128.992 56.7559 129.084 56.5399 129.268 56.3639C129.452 56.1879 129.672 56.0999 129.928 56.0999H134.452C135.18 56.0999 135.74 56.2399 136.132 56.5199C136.532 56.7919 136.76 57.1679 136.816 57.6479C136.88 58.1199 136.772 58.6559 136.492 59.2559C136.028 60.2319 135.34 61.0919 134.428 61.8359C133.524 62.5799 132.472 63.1519 131.272 63.5519ZM130.684 55.4399C130.436 55.4399 130.224 55.3519 130.048 55.1759C129.872 54.9999 129.784 54.7879 129.784 54.5399C129.784 54.2919 129.872 54.0799 130.048 53.9039C130.224 53.7279 130.436 53.6399 130.684 53.6399H135.388C135.636 53.6399 135.844 53.7279 136.012 53.9039C136.188 54.0799 136.276 54.2919 136.276 54.5399C136.276 54.7879 136.188 54.9999 136.012 55.1759C135.844 55.3519 135.636 55.4399 135.388 55.4399H130.684Z" fill="#284877"/>
<path d="M117.484 62.4719C117.26 62.4719 117.068 62.3919 116.908 62.2319C116.756 62.0719 116.68 61.8799 116.68 61.6559C116.68 61.4239 116.756 61.2319 116.908 61.0799C117.068 60.9199 117.26 60.8399 117.484 60.8399H121.612C121.796 60.3039 121.904 59.9119 121.936 59.6639C121.976 59.4079 121.932 59.2439 121.804 59.1719C121.676 59.0919 121.464 59.0519 121.168 59.0519H118.84C118.616 59.0519 118.424 58.9719 118.264 58.8119C118.104 58.6519 118.024 58.4599 118.024 58.2359C118.024 58.0119 118.104 57.8239 118.264 57.6719C118.424 57.5119 118.616 57.4319 118.84 57.4319H121.168C121.928 57.4319 122.512 57.5359 122.92 57.7439C123.336 57.9439 123.576 58.2919 123.64 58.7879C123.704 59.2839 123.592 59.9679 123.304 60.8399H124.504C124.728 60.8399 124.916 60.9199 125.068 61.0799C125.228 61.2319 125.308 61.4239 125.308 61.6559C125.308 61.8799 125.228 62.0719 125.068 62.2319C124.916 62.3919 124.728 62.4719 124.504 62.4719H117.484Z" fill="#284877"/>
<path d="M109.744 63.6961C109.488 63.7281 109.256 63.6641 109.048 63.5041C108.848 63.3521 108.732 63.1521 108.7 62.9041C108.66 62.5441 108.608 62.1441 108.544 61.7041C108.488 61.2561 108.428 60.7921 108.364 60.3121C107.748 60.3841 107.156 60.4561 106.588 60.5281C106.02 60.6001 105.528 60.6641 105.112 60.7201C104.864 60.7521 104.64 60.6881 104.44 60.5281C104.24 60.3601 104.124 60.1521 104.092 59.9041C104.068 59.6481 104.136 59.4201 104.296 59.2201C104.456 59.0201 104.664 58.9081 104.92 58.8841C105.28 58.8441 105.744 58.7961 106.312 58.7401C106.88 58.6761 107.48 58.6041 108.112 58.5241C108.088 58.3241 108.06 58.1281 108.028 57.9361C108.004 57.7441 107.976 57.5521 107.944 57.3601C107.528 57.4161 107.128 57.4681 106.744 57.5161C106.368 57.5561 106.04 57.5961 105.76 57.6361C105.504 57.6681 105.276 57.6001 105.076 57.4321C104.876 57.2641 104.764 57.0561 104.74 56.8081C104.716 56.5521 104.784 56.3281 104.944 56.1361C105.112 55.9361 105.32 55.8201 105.568 55.7881C105.8 55.7641 106.1 55.7321 106.468 55.6921C106.844 55.6521 107.248 55.6081 107.68 55.5601C107.648 55.3441 107.616 55.1401 107.584 54.9481C107.56 54.7561 107.532 54.5841 107.5 54.4321C107.468 54.1761 107.532 53.9481 107.692 53.7481C107.852 53.5481 108.056 53.4321 108.304 53.4001C108.56 53.3681 108.788 53.4321 108.988 53.5921C109.196 53.7441 109.312 53.9481 109.336 54.2041C109.352 54.3561 109.372 54.5321 109.396 54.7321C109.428 54.9241 109.456 55.1321 109.48 55.3561C109.88 55.3081 110.256 55.2641 110.608 55.2241C110.968 55.1841 111.276 55.1481 111.532 55.1161C111.788 55.0761 112.012 55.1401 112.204 55.3081C112.404 55.4761 112.516 55.6881 112.54 55.9441C112.564 56.2001 112.496 56.4281 112.336 56.6281C112.176 56.8281 111.968 56.9361 111.712 56.9521C111.464 56.9681 111.168 56.9961 110.824 57.0361C110.48 57.0761 110.112 57.1161 109.72 57.1561C109.744 57.3401 109.768 57.5281 109.792 57.7201C109.824 57.9121 109.852 58.1081 109.876 58.3081C110.476 58.2281 111.036 58.1561 111.556 58.0921C112.084 58.0281 112.512 57.9801 112.84 57.9481C113.096 57.9161 113.32 57.9801 113.512 58.1401C113.712 58.3001 113.828 58.5081 113.86 58.7641C113.892 59.0121 113.828 59.2401 113.668 59.4481C113.508 59.6481 113.3 59.7601 113.044 59.7841C112.708 59.8161 112.284 59.8601 111.772 59.9161C111.268 59.9721 110.724 60.0321 110.14 60.0961C110.212 60.5841 110.28 61.0481 110.344 61.4881C110.416 61.9281 110.48 62.3161 110.536 62.6521C110.576 62.9001 110.516 63.1241 110.356 63.3241C110.204 63.5321 110 63.6561 109.744 63.6961Z" fill="#284877"/>
<path d="M96.2921 63.6719C96.0681 63.7999 95.828 63.8239 95.572 63.7439C95.324 63.6719 95.14 63.5239 95.02 63.2999C94.892 63.0679 94.8601 62.8319 94.9241 62.5919C94.9881 62.3439 95.1321 62.1599 95.3561 62.0399C95.8361 61.7759 96.2401 61.4839 96.5681 61.1639C96.8961 60.8439 97.1561 60.4679 97.3481 60.0359C97.5481 59.6039 97.692 59.0919 97.78 58.4999C97.8681 57.9079 97.9121 57.2119 97.9121 56.4119C97.9121 56.0839 97.9001 55.7239 97.8761 55.3319C97.8521 54.9399 97.8201 54.6199 97.78 54.3719C97.7481 54.1159 97.8161 53.8879 97.9841 53.6879C98.1521 53.4879 98.3601 53.3759 98.6081 53.3519C98.8641 53.3279 99.088 53.3959 99.28 53.5559C99.48 53.7159 99.596 53.9239 99.628 54.1799C99.668 54.4839 99.696 54.8399 99.712 55.2479C99.736 55.6479 99.7481 56.0359 99.7481 56.4119C99.7481 57.5479 99.6521 58.5679 99.4601 59.4719C99.2681 60.3759 98.9241 61.1759 98.4281 61.8719C97.9321 62.5599 97.2201 63.1599 96.2921 63.6719ZM94.9121 59.7239C94.6561 59.7079 94.4481 59.6039 94.2881 59.4119C94.1361 59.2199 94.0721 58.9839 94.0961 58.7039C94.1121 58.4879 94.1201 58.2159 94.1201 57.8879C94.1201 57.5599 94.1121 57.2079 94.0961 56.8319C94.0801 56.4559 94.0601 56.0879 94.0361 55.7279C94.0121 55.3679 93.9801 55.0519 93.9401 54.7799C93.9081 54.4999 93.976 54.2639 94.144 54.0719C94.312 53.8719 94.52 53.7599 94.768 53.7359C95.024 53.7199 95.2481 53.7879 95.4401 53.9399C95.6321 54.0919 95.7441 54.2959 95.7761 54.5519C95.8001 54.7839 95.8241 55.0879 95.8481 55.4639C95.8721 55.8399 95.892 56.2439 95.908 56.6759C95.924 57.0999 95.9361 57.5119 95.9441 57.9119C95.9521 58.3039 95.9481 58.6359 95.9321 58.9079C95.9241 59.1639 95.8161 59.3679 95.6081 59.5199C95.4001 59.6719 95.1681 59.7399 94.9121 59.7239Z" fill="#284877"/>
<path d="M80.9079 63.4921C80.7239 63.3161 80.6239 63.1001 80.6079 62.8441C80.5999 62.5881 80.6839 62.3681 80.8599 62.1841C82.0599 60.8881 82.9039 59.3361 83.3919 57.5281C83.0479 57.5521 82.7199 57.5721 82.4079 57.5881C82.0959 57.6041 81.8359 57.6201 81.6279 57.6361C81.3719 57.6441 81.1479 57.5641 80.9559 57.3961C80.7719 57.2201 80.6719 57.0041 80.6559 56.7481C80.6479 56.4921 80.7279 56.2681 80.8959 56.0761C81.0719 55.8841 81.2839 55.7841 81.5319 55.7761C81.7879 55.7601 82.1159 55.7481 82.5159 55.7401C82.9239 55.7241 83.3439 55.7081 83.7759 55.6921C83.8479 55.1561 83.8959 54.5961 83.9199 54.0121C83.9359 53.7561 84.0359 53.5441 84.2199 53.3761C84.4119 53.2001 84.6319 53.1161 84.8799 53.1241C85.1359 53.1321 85.3519 53.2321 85.5279 53.4241C85.7039 53.6081 85.7839 53.8281 85.7679 54.0841C85.7439 54.5961 85.6959 55.1121 85.6239 55.6321L85.7919 55.6201C86.6879 55.5881 87.3879 55.7001 87.8919 55.9561C88.3959 56.2041 88.7239 56.6321 88.8759 57.2401C89.0359 57.8401 89.0399 58.6601 88.8879 59.7001C88.7599 60.5881 88.5679 61.3001 88.3119 61.8361C88.0639 62.3721 87.7599 62.7721 87.3999 63.0361C87.0479 63.3001 86.6519 63.4561 86.2119 63.5041C85.7719 63.5601 85.2999 63.5441 84.7959 63.4561C84.5479 63.4161 84.3479 63.2881 84.1959 63.0721C84.0519 62.8641 83.9999 62.6361 84.0399 62.3881C84.0799 62.1321 84.2039 61.9321 84.4119 61.7881C84.6279 61.6441 84.8599 61.5921 85.1079 61.6321C85.3559 61.6721 85.5799 61.6881 85.7799 61.6801C85.9799 61.6641 86.1599 61.5841 86.3199 61.4401C86.4799 61.2961 86.6199 61.0641 86.7399 60.7441C86.8599 60.4161 86.9679 59.9601 87.0639 59.3761C87.1599 58.7841 87.1879 58.3481 87.1479 58.0681C87.1079 57.7801 86.9839 57.5921 86.7759 57.5041C86.5759 57.4161 86.2679 57.3801 85.8519 57.3961C85.7079 57.4041 85.5159 57.4161 85.2759 57.4321C84.9799 58.6161 84.5679 59.7241 84.0399 60.7561C83.5119 61.7881 82.9039 62.6841 82.2159 63.4441C82.0399 63.6361 81.8239 63.7361 81.5679 63.7441C81.3119 63.7521 81.0919 63.6681 80.9079 63.4921Z" fill="#284877"/>
<path d="M200.404 46.096C200.164 46.152 199.936 46.12 199.72 46C199.504 45.872 199.364 45.688 199.3 45.448C199.244 45.208 199.28 44.984 199.408 44.776C199.536 44.56 199.716 44.424 199.948 44.368C200.82 44.152 201.436 43.796 201.796 43.3C202.164 42.804 202.348 42.176 202.348 41.416C202.348 40.736 202.132 40.164 201.7 39.7C201.276 39.236 200.672 38.952 199.888 38.848C199.728 40.216 199.468 41.388 199.108 42.364C198.756 43.34 198.34 44.088 197.86 44.608C197.388 45.128 196.892 45.388 196.372 45.388C195.916 45.388 195.5 45.26 195.124 45.004C194.748 44.748 194.448 44.38 194.224 43.9C194 43.412 193.888 42.82 193.888 42.124C193.888 41.452 194.016 40.82 194.272 40.228C194.528 39.628 194.892 39.1 195.364 38.644C195.836 38.18 196.396 37.82 197.044 37.564C197.7 37.3 198.424 37.168 199.216 37.168C199.928 37.168 200.58 37.272 201.172 37.48C201.772 37.68 202.288 37.968 202.72 38.344C203.16 38.72 203.5 39.168 203.74 39.688C203.98 40.208 204.1 40.784 204.1 41.416C204.1 42.624 203.796 43.632 203.188 44.44C202.58 45.24 201.652 45.792 200.404 46.096ZM196.384 43.564C196.52 43.564 196.704 43.376 196.936 43C197.168 42.616 197.4 42.076 197.632 41.38C197.864 40.684 198.04 39.864 198.16 38.92C197.608 39.056 197.144 39.288 196.768 39.616C196.392 39.936 196.108 40.316 195.916 40.756C195.732 41.188 195.636 41.636 195.628 42.1C195.62 42.612 195.684 42.984 195.82 43.216C195.964 43.448 196.152 43.564 196.384 43.564Z" fill="#284877"/>
<path d="M190.264 44.5719C189.104 45.0199 188.184 45.0919 187.504 44.7879C186.832 44.4839 186.496 43.8159 186.496 42.7839V38.8359C186.496 38.5799 186.584 38.3639 186.76 38.1879C186.944 38.0039 187.164 37.9119 187.42 37.9119C187.676 37.9119 187.892 38.0039 188.068 38.1879C188.252 38.3639 188.344 38.5799 188.344 38.8359V42.3159C188.344 42.6599 188.432 42.8759 188.608 42.9639C188.792 43.0439 189.056 43.0199 189.4 42.8919C189.6 42.8199 189.828 42.7319 190.084 42.6279C190.34 42.5239 190.604 42.4119 190.876 42.2919C191.148 42.1719 191.4 42.0599 191.632 41.9559C191.864 41.8519 192.1 41.8399 192.34 41.9199C192.58 41.9919 192.76 42.1439 192.88 42.3759C192.992 42.5999 193.012 42.8359 192.94 43.0839C192.868 43.3319 192.716 43.5119 192.484 43.6239C192.132 43.7919 191.756 43.9639 191.356 44.1399C190.956 44.3079 190.592 44.4519 190.264 44.5719ZM182.32 45.3639C182.096 45.4679 181.86 45.4799 181.612 45.3999C181.372 45.3119 181.196 45.1519 181.084 44.9199C180.98 44.6879 180.972 44.4519 181.06 44.2119C181.148 43.9719 181.304 43.7999 181.528 43.6959C182.416 43.2639 183.04 42.6959 183.4 41.9919C183.768 41.2879 183.952 40.4239 183.952 39.3999C183.952 39.1439 184.04 38.9279 184.216 38.7519C184.392 38.5679 184.608 38.4759 184.864 38.4759C185.12 38.4759 185.336 38.5679 185.512 38.7519C185.688 38.9279 185.776 39.1439 185.776 39.3999C185.76 40.8799 185.46 42.1159 184.876 43.1079C184.292 44.0919 183.44 44.8439 182.32 45.3639Z" fill="#284877"/>
<path d="M172.264 46.528C172.04 46.632 171.808 46.64 171.568 46.552C171.328 46.472 171.152 46.316 171.04 46.084C170.936 45.852 170.924 45.616 171.004 45.376C171.092 45.136 171.252 44.964 171.484 44.86C172.26 44.508 172.868 44.064 173.308 43.528C173.748 42.984 174.048 42.296 174.208 41.464H170.812C170.564 41.464 170.352 41.376 170.176 41.2C170.008 41.024 169.924 40.812 169.924 40.564C169.924 40.316 170.008 40.104 170.176 39.928C170.352 39.752 170.564 39.664 170.812 39.664H174.34C174.34 39.312 174.328 38.956 174.304 38.596C174.288 38.236 174.272 37.92 174.256 37.648C174.232 37.392 174.296 37.164 174.448 36.964C174.6 36.764 174.8 36.648 175.048 36.616C175.304 36.576 175.532 36.636 175.732 36.796C175.94 36.948 176.06 37.152 176.092 37.408C176.124 37.728 176.14 38.088 176.14 38.488C176.148 38.888 176.152 39.28 176.152 39.664H179.104C179.36 39.664 179.572 39.752 179.74 39.928C179.916 40.104 180.004 40.316 180.004 40.564C180.004 40.812 179.916 41.024 179.74 41.2C179.572 41.376 179.36 41.464 179.104 41.464H176.044C175.876 42.688 175.484 43.712 174.868 44.536C174.26 45.36 173.392 46.024 172.264 46.528Z" fill="#284877"/>
<path d="M160.06 46.1079C159.82 46.1879 159.584 46.1679 159.352 46.0479C159.128 45.9279 158.976 45.7479 158.896 45.5079C158.824 45.2599 158.844 45.0239 158.956 44.7999C159.076 44.5759 159.26 44.4239 159.508 44.3439C160.108 44.1519 160.724 43.8879 161.356 43.5519C161.996 43.2079 162.616 42.8159 163.216 42.3759C163.816 41.9359 164.364 41.4719 164.86 40.9839C165.356 40.4959 165.768 40.0119 166.096 39.5319C166.24 39.3239 166.436 39.1959 166.684 39.1479C166.94 39.0999 167.172 39.1439 167.38 39.2799C167.588 39.4239 167.716 39.6239 167.764 39.8799C167.82 40.1279 167.776 40.3599 167.632 40.5759C167.256 41.1279 166.78 41.6839 166.204 42.2439C165.628 42.8039 164.996 43.3399 164.308 43.8519C163.62 44.3559 162.912 44.8039 162.184 45.1959C161.456 45.5879 160.748 45.8919 160.06 46.1079ZM160.336 42.1959C160.224 42.1079 160.068 42.0039 159.868 41.8839C159.668 41.7559 159.456 41.6319 159.232 41.5119C159.016 41.3839 158.82 41.2759 158.644 41.1879C158.412 41.0759 158.256 40.8999 158.176 40.6599C158.096 40.4119 158.116 40.1759 158.236 39.9519C158.348 39.7199 158.524 39.5639 158.764 39.4839C159.012 39.4039 159.248 39.4199 159.472 39.5319C159.656 39.6199 159.88 39.7399 160.144 39.8919C160.416 40.0439 160.68 40.1999 160.936 40.3599C161.192 40.5119 161.388 40.6479 161.524 40.7679C161.724 40.9359 161.836 41.1479 161.86 41.4039C161.884 41.6519 161.812 41.8759 161.644 42.0759C161.484 42.2759 161.276 42.3839 161.02 42.3999C160.772 42.4159 160.544 42.3479 160.336 42.1959ZM161.596 39.8679C161.492 39.7719 161.34 39.6559 161.14 39.5199C160.948 39.3839 160.744 39.2479 160.528 39.1119C160.32 38.9759 160.132 38.8599 159.964 38.7639C159.74 38.6359 159.596 38.4479 159.532 38.1999C159.468 37.9519 159.5 37.7199 159.628 37.5039C159.756 37.2799 159.94 37.1359 160.18 37.0719C160.428 37.0079 160.664 37.0399 160.888 37.1679C161.072 37.2639 161.292 37.3959 161.548 37.5639C161.804 37.7239 162.052 37.8919 162.292 38.0679C162.54 38.2359 162.732 38.3839 162.868 38.5119C163.052 38.6879 163.148 38.9039 163.156 39.1599C163.172 39.4159 163.088 39.6359 162.904 39.8199C162.728 40.0039 162.516 40.0999 162.268 40.1079C162.02 40.1079 161.796 40.0279 161.596 39.8679ZM166.516 37.7319C166.428 37.6439 166.288 37.5239 166.096 37.3719C165.912 37.2199 165.756 37.0919 165.628 36.9879C165.548 36.9079 165.496 36.7959 165.472 36.6519C165.456 36.5079 165.496 36.3719 165.592 36.2439C165.68 36.1319 165.792 36.0639 165.928 36.0399C166.064 36.0079 166.196 36.0239 166.324 36.0879C166.468 36.1679 166.636 36.2759 166.828 36.4119C167.02 36.5399 167.18 36.6639 167.308 36.7839C167.428 36.8959 167.496 37.0319 167.512 37.1919C167.528 37.3519 167.48 37.4999 167.368 37.6359C167.272 37.7639 167.14 37.8399 166.972 37.8639C166.804 37.8879 166.652 37.8439 166.516 37.7319ZM165.4 38.8959C165.32 38.8079 165.192 38.6799 165.016 38.5119C164.848 38.3439 164.708 38.1999 164.596 38.0799C164.516 37.9919 164.476 37.8759 164.476 37.7319C164.476 37.5799 164.528 37.4479 164.632 37.3359C164.72 37.2319 164.832 37.1719 164.968 37.1559C165.112 37.1399 165.244 37.1719 165.364 37.2519C165.5 37.3399 165.656 37.4599 165.832 37.6119C166.016 37.7639 166.164 37.9079 166.276 38.0439C166.388 38.1719 166.44 38.3159 166.432 38.4759C166.432 38.6279 166.376 38.7679 166.264 38.8959C166.152 39.0159 166.008 39.0799 165.832 39.0879C165.664 39.0879 165.52 39.0239 165.4 38.8959Z" fill="#284877"/>
<path d="M150.292 46.6719C150.068 46.7999 149.828 46.8239 149.572 46.7439C149.324 46.6719 149.14 46.5239 149.02 46.2999C148.892 46.0679 148.86 45.8319 148.924 45.5919C148.988 45.3439 149.132 45.1599 149.356 45.0399C149.836 44.7759 150.24 44.4839 150.568 44.1639C150.896 43.8439 151.156 43.4679 151.348 43.0359C151.548 42.6039 151.692 42.0919 151.78 41.4999C151.868 40.9079 151.912 40.2119 151.912 39.4119C151.912 39.0839 151.9 38.7239 151.876 38.3319C151.852 37.9399 151.82 37.6199 151.78 37.3719C151.748 37.1159 151.816 36.8879 151.984 36.6879C152.152 36.4879 152.36 36.3759 152.608 36.3519C152.864 36.3279 153.088 36.3959 153.28 36.5559C153.48 36.7159 153.596 36.9239 153.628 37.1799C153.668 37.4839 153.696 37.8399 153.712 38.2479C153.736 38.6479 153.748 39.0359 153.748 39.4119C153.748 40.5479 153.652 41.5679 153.46 42.4719C153.268 43.3759 152.924 44.1759 152.428 44.8719C151.932 45.5599 151.22 46.1599 150.292 46.6719ZM148.912 42.7239C148.656 42.7079 148.448 42.6039 148.288 42.4119C148.136 42.2199 148.072 41.9839 148.096 41.7039C148.112 41.4879 148.12 41.2159 148.12 40.8879C148.12 40.5599 148.112 40.2079 148.096 39.8319C148.08 39.4559 148.06 39.0879 148.036 38.7279C148.012 38.3679 147.98 38.0519 147.94 37.7799C147.908 37.4999 147.976 37.2639 148.144 37.0719C148.312 36.8719 148.52 36.7599 148.768 36.7359C149.024 36.7199 149.248 36.7879 149.44 36.9399C149.632 37.0919 149.744 37.2959 149.776 37.5519C149.8 37.7839 149.824 38.0879 149.848 38.4639C149.872 38.8399 149.892 39.2439 149.908 39.6759C149.924 40.0999 149.936 40.5119 149.944 40.9119C149.952 41.3039 149.948 41.6359 149.932 41.9079C149.924 42.1639 149.816 42.3679 149.608 42.5199C149.4 42.6719 149.168 42.7399 148.912 42.7239Z" fill="#284877"/>
<path d="M138.712 46.528C138.464 46.528 138.248 46.436 138.064 46.252C137.88 46.076 137.788 45.86 137.788 45.604C137.788 45.348 137.88 45.132 138.064 44.956C138.248 44.772 138.464 44.68 138.712 44.68C139.088 44.68 139.34 44.632 139.468 44.536C139.604 44.432 139.664 44.232 139.648 43.936L139.564 42.04C139.124 42.496 138.656 42.948 138.16 43.396C137.664 43.836 137.164 44.252 136.66 44.644C136.164 45.028 135.68 45.368 135.208 45.664C134.992 45.8 134.76 45.836 134.512 45.772C134.264 45.708 134.072 45.564 133.936 45.34C133.808 45.116 133.776 44.884 133.84 44.644C133.912 44.396 134.056 44.204 134.272 44.068C134.664 43.82 135.096 43.512 135.568 43.144C136.048 42.776 136.54 42.376 137.044 41.944C137.548 41.512 138.028 41.076 138.484 40.636H135.04C134.792 40.636 134.58 40.548 134.404 40.372C134.236 40.196 134.152 39.984 134.152 39.736C134.152 39.48 134.236 39.268 134.404 39.1C134.58 38.924 134.792 38.836 135.04 38.836H139.42C139.412 38.524 139.404 38.252 139.396 38.02C139.388 37.78 139.38 37.604 139.372 37.492C139.364 37.236 139.444 37.016 139.612 36.832C139.788 36.648 140.004 36.552 140.26 36.544C140.516 36.536 140.732 36.624 140.908 36.808C141.084 36.984 141.176 37.2 141.184 37.456C141.192 37.568 141.2 37.744 141.208 37.984C141.216 38.224 141.228 38.508 141.244 38.836H142.96C143.208 38.836 143.42 38.924 143.596 39.1C143.772 39.268 143.86 39.48 143.86 39.736C143.86 39.984 143.772 40.196 143.596 40.372C143.42 40.548 143.208 40.636 142.96 40.636H141.316C141.34 41.252 141.364 41.856 141.388 42.448C141.42 43.032 141.444 43.5 141.46 43.852C141.508 44.796 141.32 45.48 140.896 45.904C140.48 46.32 139.752 46.528 138.712 46.528Z" fill="#284877"/>
<path d="M122.62 46.552C122.404 46.424 122.264 46.24 122.2 46C122.144 45.76 122.18 45.536 122.308 45.328C122.732 44.608 123.096 43.792 123.4 42.88C123.704 41.968 123.932 41.044 124.084 40.108C123.868 40.132 123.656 40.152 123.448 40.168C123.248 40.184 123.056 40.196 122.872 40.204C122.624 40.22 122.408 40.152 122.224 40C122.048 39.84 121.952 39.636 121.936 39.388C121.92 39.14 121.992 38.928 122.152 38.752C122.32 38.568 122.528 38.472 122.776 38.464C123.024 38.448 123.276 38.432 123.532 38.416C123.796 38.392 124.052 38.368 124.3 38.344C124.324 37.896 124.336 37.476 124.336 37.084C124.328 36.836 124.4 36.62 124.552 36.436C124.712 36.252 124.916 36.156 125.164 36.148C125.412 36.14 125.628 36.22 125.812 36.388C125.996 36.548 126.092 36.756 126.1 37.012C126.1 37.34 126.088 37.704 126.064 38.104C126.28 38.064 126.484 38.028 126.676 37.996C126.916 37.94 127.14 37.976 127.348 38.104C127.556 38.232 127.684 38.416 127.732 38.656C127.788 38.904 127.748 39.128 127.612 39.328C127.476 39.528 127.288 39.652 127.048 39.7C126.88 39.732 126.696 39.764 126.496 39.796C126.296 39.828 126.084 39.864 125.86 39.904C125.748 40.648 125.596 41.408 125.404 42.184C125.212 42.952 124.984 43.688 124.72 44.392C124.464 45.088 124.172 45.704 123.844 46.24C123.716 46.448 123.532 46.584 123.292 46.648C123.052 46.712 122.828 46.68 122.62 46.552ZM130.996 46.324C129.748 46.62 128.688 46.624 127.816 46.336C126.952 46.048 126.344 45.552 125.992 44.848C125.888 44.624 125.868 44.396 125.932 44.164C125.996 43.924 126.136 43.748 126.352 43.636C126.568 43.516 126.792 43.492 127.024 43.564C127.264 43.628 127.444 43.768 127.564 43.984C127.748 44.312 128.088 44.54 128.584 44.668C129.08 44.796 129.764 44.764 130.636 44.572C130.876 44.516 131.096 44.556 131.296 44.692C131.504 44.828 131.636 45.02 131.692 45.268C131.74 45.508 131.696 45.728 131.56 45.928C131.424 46.128 131.236 46.26 130.996 46.324ZM130.396 41.812C130.148 41.748 129.852 41.708 129.508 41.692C129.172 41.668 128.828 41.664 128.476 41.68C128.124 41.688 127.8 41.716 127.504 41.764C127.264 41.796 127.044 41.748 126.844 41.62C126.652 41.492 126.532 41.312 126.484 41.08C126.444 40.848 126.488 40.632 126.616 40.432C126.752 40.232 126.936 40.108 127.168 40.06C127.544 39.988 127.952 39.944 128.392 39.928C128.832 39.912 129.264 39.92 129.688 39.952C130.112 39.984 130.488 40.04 130.816 40.12C131.048 40.176 131.224 40.308 131.344 40.516C131.472 40.716 131.508 40.932 131.452 41.164C131.396 41.396 131.264 41.576 131.056 41.704C130.848 41.824 130.628 41.86 130.396 41.812Z" fill="#284877"/>
<path d="M118.24 46.168C117.608 46.24 116.98 46.272 116.356 46.264C115.732 46.264 115.152 46.192 114.616 46.048C114.08 45.904 113.62 45.66 113.236 45.316C112.868 44.98 112.596 44.58 112.42 44.116C112.252 43.644 112.168 43.044 112.168 42.316V41.392C111.824 41.432 111.496 41.476 111.184 41.524C110.88 41.572 110.6 41.62 110.344 41.668C110.104 41.708 109.884 41.66 109.684 41.524C109.492 41.38 109.376 41.192 109.336 40.96C109.296 40.728 109.344 40.512 109.48 40.312C109.624 40.112 109.812 39.996 110.044 39.964C110.348 39.916 110.68 39.868 111.04 39.82C111.4 39.772 111.776 39.728 112.168 39.688V37.816C112.168 37.568 112.252 37.36 112.42 37.192C112.596 37.016 112.808 36.928 113.056 36.928C113.304 36.928 113.516 37.016 113.692 37.192C113.868 37.36 113.956 37.568 113.956 37.816V39.508C114.668 39.436 115.396 39.376 116.14 39.328C116.172 39.024 116.196 38.724 116.212 38.428C116.236 38.132 116.252 37.848 116.26 37.576C116.268 37.328 116.36 37.12 116.536 36.952C116.712 36.776 116.924 36.692 117.172 36.7C117.42 36.708 117.628 36.804 117.796 36.988C117.972 37.164 118.056 37.376 118.048 37.624C118.04 37.88 118.028 38.144 118.012 38.416C117.996 38.68 117.976 38.948 117.952 39.22C118.592 39.188 119.196 39.164 119.764 39.148C120.004 39.14 120.208 39.224 120.376 39.4C120.544 39.568 120.628 39.772 120.628 40.012C120.628 40.252 120.544 40.46 120.376 40.636C120.208 40.804 120.004 40.884 119.764 40.876C119.452 40.876 119.124 40.88 118.78 40.888C118.444 40.896 118.1 40.908 117.748 40.924C117.692 41.3 117.632 41.664 117.568 42.016C117.512 42.36 117.452 42.672 117.388 42.952C117.332 43.192 117.196 43.376 116.98 43.504C116.772 43.632 116.548 43.668 116.308 43.612C116.052 43.556 115.864 43.424 115.744 43.216C115.624 43.008 115.592 42.78 115.648 42.532C115.76 42.06 115.856 41.556 115.936 41.02C115.6 41.044 115.264 41.072 114.928 41.104C114.6 41.128 114.276 41.156 113.956 41.188V42.316C113.956 42.748 113.996 43.1 114.076 43.372C114.164 43.636 114.292 43.848 114.46 44.008C114.732 44.248 115.156 44.396 115.732 44.452C116.316 44.508 117.092 44.488 118.06 44.392C118.308 44.368 118.524 44.432 118.708 44.584C118.9 44.736 119.008 44.936 119.032 45.184C119.064 45.432 119 45.652 118.84 45.844C118.688 46.028 118.488 46.136 118.24 46.168Z" fill="#284877"/>
<path d="M101.164 47.08C100.924 47.08 100.72 46.992 100.552 46.816C100.384 46.648 100.3 46.444 100.3 46.204V43.528C99.9399 43.864 99.5759 44.216 99.2079 44.584C99.0319 44.76 98.8199 44.848 98.5719 44.848C98.3239 44.848 98.1119 44.76 97.9359 44.584C97.7679 44.408 97.6879 44.2 97.6959 43.96C97.7039 43.712 97.7959 43.5 97.9719 43.324C98.3399 42.972 98.7159 42.624 99.0999 42.28C99.4919 41.936 99.8919 41.608 100.3 41.296V40C100.18 40.024 100.024 40.06 99.8319 40.108C99.6479 40.156 99.4679 40.2 99.2919 40.24C99.1159 40.28 98.9839 40.308 98.8959 40.324C98.6559 40.38 98.4319 40.344 98.2239 40.216C98.0159 40.08 97.8879 39.892 97.8399 39.652C97.7839 39.404 97.8199 39.176 97.9479 38.968C98.0839 38.76 98.2719 38.632 98.5119 38.584L100.3 38.248V36.688C100.3 36.448 100.384 36.244 100.552 36.076C100.72 35.908 100.924 35.824 101.164 35.824C101.404 35.824 101.608 35.908 101.776 36.076C101.944 36.244 102.028 36.448 102.028 36.688V38.224C102.332 38.32 102.564 38.492 102.724 38.74C102.892 39.028 102.936 39.356 102.856 39.724C103.184 39.58 103.508 39.468 103.828 39.388C104.156 39.308 104.476 39.268 104.788 39.268C105.492 39.268 106.088 39.396 106.576 39.652C107.072 39.9 107.448 40.252 107.704 40.708C107.968 41.164 108.1 41.7 108.1 42.316C108.1 43.324 107.74 44.16 107.02 44.824C106.308 45.488 105.252 45.916 103.852 46.108C103.612 46.14 103.392 46.088 103.192 45.952C102.992 45.808 102.872 45.612 102.832 45.364C102.8 45.124 102.856 44.904 103 44.704C103.144 44.504 103.336 44.384 103.576 44.344C104.312 44.232 104.876 44.08 105.268 43.888C105.66 43.688 105.932 43.456 106.084 43.192C106.236 42.928 106.312 42.636 106.312 42.316C106.312 41.916 106.192 41.6 105.952 41.368C105.72 41.128 105.312 41.008 104.728 41.008C104.28 41.008 103.828 41.104 103.372 41.296C102.924 41.488 102.476 41.748 102.028 42.076V46.204C102.028 46.444 101.944 46.648 101.776 46.816C101.608 46.992 101.404 47.08 101.164 47.08Z" fill="#284877"/>
<path d="M86.6201 41.2961C86.3721 41.4561 86.1201 41.5201 85.8641 41.4881C85.6161 41.4561 85.4161 41.3281 85.2641 41.1041C85.1121 40.8801 85.0721 40.6521 85.1441 40.4201C85.2241 40.1881 85.3761 40.0081 85.6001 39.8801C86.0481 39.6161 86.5121 39.3001 86.9921 38.9321C87.4801 38.5641 87.9401 38.1921 88.3721 37.8161C88.8121 37.4321 89.1801 37.0841 89.4761 36.7721C89.9961 36.2281 90.4921 35.9561 90.9641 35.9561C91.4361 35.9561 91.9601 36.2241 92.5361 36.7601C92.8561 37.0481 93.2241 37.3641 93.6401 37.7081C94.0641 38.0441 94.5121 38.3761 94.9841 38.7041C95.4561 39.0241 95.9241 39.3161 96.3881 39.5801C96.6041 39.7001 96.7521 39.8921 96.8321 40.1561C96.9121 40.4121 96.8761 40.6521 96.7241 40.8761C96.5561 41.1241 96.3401 41.2681 96.0761 41.3081C95.8121 41.3481 95.5521 41.2841 95.2961 41.1161C94.9601 40.8921 94.5921 40.6321 94.1921 40.3361C94.2001 40.3681 94.2041 40.4001 94.2041 40.4321C94.2041 40.4561 94.2041 40.4801 94.2041 40.5041C94.2041 40.7281 94.1321 40.9161 93.9881 41.0681C93.8521 41.2201 93.6601 41.2961 93.4121 41.2961H88.5641C88.3161 41.2961 88.1201 41.2201 87.9761 41.0681C87.8321 40.9161 87.7601 40.7281 87.7601 40.5041C87.7601 40.4961 87.7601 40.4921 87.7601 40.4921C87.7681 40.4841 87.7721 40.4761 87.7721 40.4681C87.5721 40.6201 87.3761 40.7681 87.1841 40.9121C86.9921 41.0561 86.8041 41.1841 86.6201 41.2961ZM90.1361 46.8521C89.4401 46.8521 88.8841 46.7761 88.4681 46.6241C88.0601 46.4801 87.7681 46.2361 87.5921 45.8921C87.4161 45.5401 87.3281 45.0641 87.3281 44.4641C87.3281 43.8641 87.4161 43.3921 87.5921 43.0481C87.7681 42.6961 88.0601 42.4481 88.4681 42.3041C88.8841 42.1601 89.4401 42.0881 90.1361 42.0881H91.8521C92.5561 42.0881 93.1121 42.1601 93.5201 42.3041C93.9281 42.4481 94.2201 42.6961 94.3961 43.0481C94.5801 43.3921 94.6721 43.8641 94.6721 44.4641C94.6721 45.0641 94.5801 45.5401 94.3961 45.8921C94.2201 46.2361 93.9281 46.4801 93.5201 46.6241C93.1121 46.7761 92.5561 46.8521 91.8521 46.8521H90.1361ZM90.1361 45.3161H91.8521C92.2441 45.3161 92.5041 45.2601 92.6321 45.1481C92.7681 45.0361 92.8361 44.8081 92.8361 44.4641C92.8361 44.1281 92.7681 43.9041 92.6321 43.7921C92.5041 43.6801 92.2441 43.6241 91.8521 43.6241H90.1361C89.7441 43.6241 89.4841 43.6801 89.3561 43.7921C89.2281 43.9041 89.1641 44.1281 89.1641 44.4641C89.1641 44.8081 89.2281 45.0361 89.3561 45.1481C89.4841 45.2601 89.7441 45.3161 90.1361 45.3161ZM88.6961 39.7121H93.3881C92.5801 39.0641 91.8961 38.4481 91.3361 37.8641C91.2161 37.7361 91.1041 37.6721 91.0001 37.6721C90.8961 37.6641 90.7841 37.7281 90.6641 37.8641C90.3921 38.1521 90.0881 38.4561 89.7521 38.7761C89.4161 39.0881 89.0641 39.4001 88.6961 39.7121Z" fill="#284877"/>
<path d="M75.688 46.396C75.448 46.436 75.224 46.384 75.016 46.24C74.816 46.104 74.696 45.916 74.656 45.676C74.576 45.26 74.516 44.78 74.476 44.236C74.444 43.692 74.424 43.12 74.416 42.52C74.416 41.912 74.432 41.3 74.464 40.684C74.496 40.068 74.544 39.48 74.608 38.92C74.68 38.36 74.764 37.856 74.86 37.408C74.916 37.16 75.048 36.972 75.256 36.844C75.464 36.708 75.688 36.668 75.928 36.724C76.168 36.78 76.356 36.912 76.492 37.12C76.628 37.32 76.668 37.544 76.612 37.792C76.492 38.352 76.396 38.964 76.324 39.628C76.252 40.284 76.204 40.952 76.18 41.632C76.164 42.312 76.172 42.972 76.204 43.612C76.244 44.252 76.312 44.832 76.408 45.352C76.448 45.6 76.4 45.824 76.264 46.024C76.128 46.224 75.936 46.348 75.688 46.396ZM80.584 45.784C79.536 45.784 78.748 45.604 78.22 45.244C77.692 44.876 77.356 44.292 77.212 43.492C77.172 43.244 77.22 43.02 77.356 42.82C77.5 42.612 77.696 42.488 77.944 42.448C78.184 42.408 78.404 42.46 78.604 42.604C78.804 42.74 78.928 42.932 78.976 43.18C79.032 43.452 79.176 43.66 79.408 43.804C79.64 43.948 80.056 44.02 80.656 44.02C80.96 44.02 81.28 43.996 81.616 43.948C81.952 43.9 82.332 43.832 82.756 43.744C82.996 43.688 83.216 43.728 83.416 43.864C83.624 44 83.756 44.192 83.812 44.44C83.86 44.68 83.816 44.9 83.68 45.1C83.544 45.3 83.356 45.432 83.116 45.496C82.668 45.6 82.224 45.676 81.784 45.724C81.352 45.764 80.952 45.784 80.584 45.784ZM78.472 39.784C78.232 39.824 78.008 39.776 77.8 39.64C77.6 39.504 77.476 39.316 77.428 39.076C77.38 38.836 77.424 38.612 77.56 38.404C77.696 38.196 77.884 38.072 78.124 38.032C78.612 37.936 79.132 37.872 79.684 37.84C80.236 37.808 80.78 37.804 81.316 37.828C81.852 37.852 82.336 37.9 82.768 37.972C83.008 38.004 83.196 38.124 83.332 38.332C83.468 38.54 83.516 38.764 83.476 39.004C83.436 39.26 83.312 39.456 83.104 39.592C82.904 39.72 82.684 39.764 82.444 39.724C81.828 39.62 81.172 39.572 80.476 39.58C79.78 39.588 79.112 39.656 78.472 39.784Z" fill="#284877"/>
<path d="M63.22 46.6239C62.988 46.7599 62.736 46.8159 62.464 46.7919C62.2 46.7759 61.988 46.6479 61.828 46.4079C61.676 46.1999 61.628 45.9759 61.684 45.7359C61.74 45.4879 61.88 45.2959 62.104 45.1599C62.848 44.7039 63.516 44.1759 64.108 43.5759C64.708 42.9679 65.18 42.2879 65.524 41.5359C65.876 40.7839 66.052 39.9679 66.052 39.0879V36.9399C66.052 36.6599 66.14 36.4359 66.316 36.2679C66.5 36.0999 66.716 36.0159 66.964 36.0159C67.22 36.0159 67.436 36.0999 67.612 36.2679C67.788 36.4359 67.876 36.6599 67.876 36.9399V38.5839C67.876 39.5919 68.064 40.4999 68.44 41.3079C68.816 42.1159 69.32 42.8279 69.952 43.4439C70.584 44.0599 71.276 44.5879 72.028 45.0279C72.26 45.1559 72.396 45.3479 72.436 45.6039C72.484 45.8599 72.44 46.0999 72.304 46.3239C72.16 46.5559 71.944 46.6959 71.656 46.7439C71.376 46.7919 71.116 46.7399 70.876 46.5879C70.052 46.0839 69.304 45.4439 68.632 44.6679C67.968 43.8919 67.444 43.0559 67.06 42.1599C66.82 42.7279 66.504 43.2919 66.112 43.8519C65.72 44.4119 65.276 44.9319 64.78 45.4119C64.292 45.8839 63.772 46.2879 63.22 46.6239Z" fill="#284877"/>
<path d="M56.02 46.06C55.508 46.06 55.252 45.796 55.252 45.268V39.292L54.364 39.772C53.892 40.02 53.54 39.916 53.308 39.46C53.076 39.004 53.2 38.66 53.68 38.428L55.084 37.756C55.26 37.668 55.42 37.612 55.564 37.588C55.716 37.556 55.884 37.54 56.068 37.54C56.548 37.54 56.788 37.804 56.788 38.332V45.268C56.788 45.796 56.532 46.06 56.02 46.06Z" fill="#284877"/>
<path d="M39.22 46.6239C38.988 46.7599 38.736 46.8159 38.464 46.7919C38.2 46.7759 37.988 46.6479 37.828 46.4079C37.676 46.1999 37.628 45.9759 37.684 45.7359C37.74 45.4879 37.88 45.2959 38.104 45.1599C38.848 44.7039 39.516 44.1759 40.108 43.5759C40.708 42.9679 41.18 42.2879 41.524 41.5359C41.876 40.7839 42.052 39.9679 42.052 39.0879V36.9399C42.052 36.6599 42.14 36.4359 42.316 36.2679C42.5 36.0999 42.716 36.0159 42.964 36.0159C43.22 36.0159 43.436 36.0999 43.612 36.2679C43.788 36.4359 43.876 36.6599 43.876 36.9399V38.5839C43.876 39.5919 44.064 40.4999 44.44 41.3079C44.816 42.1159 45.32 42.8279 45.952 43.4439C46.584 44.0599 47.276 44.5879 48.028 45.0279C48.26 45.1559 48.396 45.3479 48.436 45.6039C48.484 45.8599 48.44 46.0999 48.304 46.3239C48.16 46.5559 47.944 46.6959 47.656 46.7439C47.376 46.7919 47.116 46.7399 46.876 46.5879C46.052 46.0839 45.304 45.4439 44.632 44.6679C43.968 43.8919 43.444 43.0559 43.06 42.1599C42.82 42.7279 42.504 43.2919 42.112 43.8519C41.72 44.4119 41.276 44.9319 40.78 45.4119C40.292 45.8839 39.772 46.2879 39.22 46.6239Z" fill="#284877"/>
<path d="M32.02 46.06C31.508 46.06 31.252 45.796 31.252 45.268V39.292L30.364 39.772C29.892 40.02 29.54 39.916 29.308 39.46C29.076 39.004 29.2 38.66 29.68 38.428L31.084 37.756C31.26 37.668 31.42 37.612 31.564 37.588C31.716 37.556 31.884 37.54 32.068 37.54C32.548 37.54 32.788 37.804 32.788 38.332V45.268C32.788 45.796 32.532 46.06 32.02 46.06Z" fill="#284877"/>
</svg>
