<svg width="221" height="74" viewBox="0 0 221 74" fill="none" xmlns="http://www.w3.org/2000/svg">
<path d="M28.26 0H185.98C198.28 0 208.742 10.2898 212.626 24.6508C216.406 23.3677 219.569 21.2654 221 19.6881C221 20.367 220.481 22.8563 220.309 23.422C219.289 26.7577 216.987 31.8698 214.11 33.4539C214.195 34.6216 214.24 35.8029 214.24 37C214.24 57.4349 201.588 74 185.98 74H28.26C12.6522 74 0 57.4349 0 37C0 16.5651 12.6522 0 28.26 0Z" fill="#89C3EB"/>
<rect x="23" y="23" width="80" height="4" rx="2" fill="#D9D9D9"/>
<path d="M79.5025 25C78.6225 25 78.1825 24.56 78.1825 23.68V13.4H75.3825C74.5025 13.4 74.0625 13 74.0625 12.2C74.0625 11.4 74.5025 11 75.3825 11H83.5825C84.4625 11 84.9025 11.4 84.9025 12.2C84.9025 13 84.4625 13.4 83.5825 13.4H80.8025V23.68C80.8025 24.56 80.3692 25 79.5025 25Z" fill="white"/>
<path d="M62.062 25C61.1953 25 60.762 24.56 60.762 23.68V12.32C60.762 11.44 61.1953 11 62.062 11H62.342C63.0086 11 63.5353 11.2867 63.922 11.86L69.622 20.46V12.32C69.622 11.44 70.062 11 70.942 11C71.8086 11 72.242 11.44 72.242 12.32V23.68C72.242 24.56 71.8286 25 71.002 25H70.782C70.0886 25 69.562 24.7133 69.202 24.14L63.362 15.22V23.68C63.362 24.56 62.9286 25 62.062 25Z" fill="white"/>
<path d="M56.7885 25C55.9219 25 55.4885 24.56 55.4885 23.68V12.32C55.4885 11.44 55.9219 11 56.7885 11C57.6552 11 58.0885 11.44 58.0885 12.32V23.68C58.0885 24.56 57.6552 25 56.7885 25Z" fill="white"/>
<path d="M46.8969 25.3401C45.6302 25.3401 44.4969 25.0401 43.4969 24.4401C42.4969 23.8401 41.7102 22.9935 41.1369 21.9001C40.5769 20.7935 40.2969 19.4935 40.2969 18.0001C40.2969 16.4935 40.5769 15.1935 41.1369 14.1001C41.7102 12.9935 42.4969 12.1401 43.4969 11.5401C44.4969 10.9268 45.6302 10.6201 46.8969 10.6201C48.1635 10.6201 49.2902 10.9268 50.2769 11.5401C51.2769 12.1401 52.0569 12.9935 52.6169 14.1001C53.1902 15.1935 53.4769 16.4935 53.4769 18.0001C53.4769 19.4935 53.1902 20.7935 52.6169 21.9001C52.0569 22.9935 51.2769 23.8401 50.2769 24.4401C49.2902 25.0401 48.1635 25.3401 46.8969 25.3401ZM46.8969 22.8201C47.6969 22.8201 48.3835 22.6201 48.9569 22.2201C49.5435 21.8068 49.9902 21.2401 50.2969 20.5201C50.6169 19.8001 50.7769 18.9601 50.7769 18.0001C50.7769 17.0268 50.6169 16.1801 50.2969 15.4601C49.9902 14.7401 49.5435 14.1801 48.9569 13.7801C48.3835 13.3668 47.6969 13.1601 46.8969 13.1601C46.1102 13.1601 45.4235 13.3668 44.8369 13.7801C44.2635 14.1801 43.8169 14.7401 43.4969 15.4601C43.1769 16.1801 43.0169 17.0268 43.0169 18.0001C43.0169 18.9601 43.1769 19.8001 43.4969 20.5201C43.8169 21.2401 44.2635 21.8068 44.8369 22.2201C45.4235 22.6201 46.1102 22.8201 46.8969 22.8201Z" fill="white"/>
<path d="M29.6401 25C28.7734 25 28.3401 24.56 28.3401 23.68V12.32C28.3401 11.44 28.7801 11 29.6601 11H34.8201C35.7001 11 36.4601 11.1333 37.1001 11.4C37.7534 11.6667 38.2534 12.1 38.6001 12.7C38.9601 13.3 39.1401 14.1067 39.1401 15.12C39.1401 16.1333 38.9601 16.9467 38.6001 17.56C38.2534 18.16 37.7534 18.6 37.1001 18.88C36.4601 19.1467 35.7001 19.28 34.8201 19.28H30.9401V23.68C30.9401 24.56 30.5068 25 29.6401 25ZM30.9401 16.86H34.4601C35.0601 16.86 35.5334 16.7267 35.8801 16.46C36.2268 16.1933 36.4001 15.7467 36.4001 15.12C36.4001 14.5067 36.2268 14.0667 35.8801 13.8C35.5334 13.5333 35.0601 13.4 34.4601 13.4H30.9401V16.86Z" fill="white"/>
<path d="M92.73 26.0001C91.41 26.0001 90.75 25.6401 90.75 24.9201C90.75 23.9801 90.9 23.0601 91.2 22.1601C91.5 21.2401 92 20.2901 92.7 19.3101C93.42 18.3301 94.39 17.2601 95.61 16.1001C96.21 15.5201 96.78 14.9401 97.32 14.3601C97.86 13.7801 98.3 13.2101 98.64 12.6501C98.98 12.0701 99.16 11.5301 99.18 11.0301C99.2 10.0901 98.99 9.39007 98.55 8.93007C98.13 8.47007 97.51 8.24007 96.69 8.24007C95.67 8.24007 94.99 8.73007 94.65 9.71007C94.45 10.3101 94.21 10.7701 93.93 11.0901C93.65 11.4101 93.22 11.5701 92.64 11.5701C92.08 11.5701 91.64 11.3901 91.32 11.0301C91 10.6501 90.91 10.1301 91.05 9.47007C91.39 7.99007 92.06 6.85007 93.06 6.05007C94.06 5.23007 95.27 4.82007 96.69 4.82007C97.85 4.82007 98.89 5.07007 99.81 5.57007C100.75 6.05007 101.48 6.76007 102 7.70007C102.54 8.62007 102.79 9.76007 102.75 11.1201C102.73 12.0801 102.51 12.9501 102.09 13.7301C101.69 14.5101 101.14 15.2801 100.44 16.0401C99.76 16.7801 98.97 17.5801 98.07 18.4401C97.21 19.3001 96.44 20.1101 95.76 20.8701C95.1 21.6301 94.71 22.2501 94.59 22.7301H100.35C101.67 22.7301 102.33 23.2701 102.33 24.3501C102.33 25.4501 101.67 26.0001 100.35 26.0001H92.73Z" fill="#D74545"/>
<path d="M165 59.7319C164.8 59.7319 164.628 59.6679 164.484 59.5399C164.34 59.4039 164.26 59.2359 164.244 59.0359C164.212 58.6119 164.176 58.1519 164.136 57.6559C164.104 57.1519 164.072 56.6599 164.04 56.1799C164.008 55.6919 163.98 55.2519 163.956 54.8599C163.94 54.4599 163.932 54.1519 163.932 53.9359V53.0479C163.932 52.7679 164.032 52.5279 164.232 52.3279C164.432 52.1199 164.688 52.0159 165 52.0159C165.312 52.0159 165.568 52.1199 165.768 52.3279C165.968 52.5279 166.068 52.7679 166.068 53.0479V53.9359C166.068 54.1519 166.056 54.4599 166.032 54.8599C166.016 55.2519 165.992 55.6919 165.96 56.1799C165.928 56.6599 165.892 57.1519 165.852 57.6559C165.82 58.1519 165.788 58.6119 165.756 59.0359C165.74 59.2359 165.66 59.4039 165.516 59.5399C165.372 59.6679 165.2 59.7319 165 59.7319ZM165 62.8399C164.68 62.8399 164.404 62.7239 164.172 62.4919C163.94 62.2599 163.824 61.9839 163.824 61.6639C163.824 61.3359 163.94 61.0599 164.172 60.8359C164.404 60.6119 164.68 60.4999 165 60.4999C165.328 60.4999 165.604 60.6119 165.828 60.8359C166.06 61.0599 166.176 61.3359 166.176 61.6639C166.176 61.9839 166.06 62.2599 165.828 62.4919C165.604 62.7239 165.328 62.8399 165 62.8399Z" fill="#284877"/>
<path d="M150.576 62.288C150.344 62.392 150.104 62.396 149.856 62.3C149.616 62.204 149.444 62.04 149.34 61.808C149.236 61.576 149.228 61.336 149.316 61.088C149.412 60.84 149.576 60.664 149.808 60.56C151.032 60.016 152.056 59.372 152.88 58.628C153.712 57.876 154.328 57.064 154.728 56.192C154.896 55.824 154.92 55.556 154.8 55.388C154.688 55.212 154.416 55.124 153.984 55.124H149.628C149.38 55.124 149.164 55.032 148.98 54.848C148.796 54.664 148.704 54.448 148.704 54.2C148.704 53.944 148.796 53.724 148.98 53.54C149.164 53.356 149.38 53.264 149.628 53.264H154.116C155.332 53.264 156.14 53.58 156.54 54.212C156.94 54.844 156.916 55.688 156.468 56.744C155.972 57.896 155.228 58.948 154.236 59.9C153.252 60.852 152.032 61.648 150.576 62.288ZM158.028 54.848C157.684 54.848 157.388 54.728 157.14 54.488C156.9 54.24 156.78 53.944 156.78 53.6C156.78 53.256 156.9 52.964 157.14 52.724C157.388 52.484 157.684 52.364 158.028 52.364C158.372 52.364 158.664 52.484 158.904 52.724C159.144 52.964 159.264 53.256 159.264 53.6C159.264 53.944 159.144 54.24 158.904 54.488C158.664 54.728 158.372 54.848 158.028 54.848ZM158.028 54.044C158.148 54.044 158.252 54.004 158.34 53.924C158.428 53.836 158.472 53.728 158.472 53.6C158.472 53.48 158.428 53.376 158.34 53.288C158.252 53.2 158.148 53.156 158.028 53.156C157.9 53.156 157.792 53.2 157.704 53.288C157.624 53.376 157.584 53.48 157.584 53.6C157.584 53.728 157.624 53.836 157.704 53.924C157.792 54.004 157.9 54.044 158.028 54.044Z" fill="#284877"/>
<path d="M139.836 62.6959C139.636 62.7839 139.428 62.7839 139.212 62.6959C139.004 62.6159 138.856 62.4719 138.768 62.2639C138.688 62.0559 138.688 61.8479 138.768 61.6399C138.848 61.4319 138.992 61.2839 139.2 61.1959C140 60.8599 140.656 60.4639 141.168 60.0079C141.688 59.5519 142.088 59.0239 142.368 58.4239C142.656 57.8159 142.844 57.1239 142.932 56.3479C142.964 56.1239 143.068 55.9439 143.244 55.8079C143.42 55.6719 143.62 55.6199 143.844 55.6519C144.076 55.6839 144.26 55.788 144.396 55.964C144.532 56.14 144.58 56.3399 144.54 56.5639C144.348 57.9799 143.864 59.2079 143.088 60.2479C142.32 61.2799 141.236 62.0959 139.836 62.6959ZM141.384 58.7599C141.168 58.8319 140.964 58.8239 140.772 58.7359C140.588 58.6399 140.456 58.488 140.376 58.28C140.288 58.048 140.176 57.7879 140.04 57.4999C139.912 57.2039 139.804 56.9679 139.716 56.7919C139.62 56.5839 139.596 56.3759 139.644 56.1679C139.692 55.9519 139.812 55.788 140.004 55.676C140.196 55.564 140.404 55.5319 140.628 55.5799C140.852 55.6279 141.016 55.7519 141.12 55.9519C141.24 56.1839 141.372 56.4519 141.516 56.7559C141.66 57.0599 141.788 57.3839 141.9 57.728C141.972 57.9439 141.956 58.1519 141.852 58.3519C141.756 58.5519 141.6 58.6879 141.384 58.7599ZM139.32 59.2039C139.12 59.2919 138.916 59.2959 138.708 59.2159C138.5 59.1279 138.348 58.9839 138.252 58.7839C138.124 58.5119 137.988 58.2519 137.844 58.0039C137.7 57.7559 137.58 57.5559 137.484 57.4039C137.372 57.2119 137.328 57.0079 137.352 56.7919C137.384 56.5679 137.488 56.3919 137.664 56.2639C137.848 56.1279 138.052 56.0799 138.276 56.1199C138.5 56.1519 138.676 56.2599 138.804 56.4439C138.964 56.6679 139.132 56.9439 139.308 57.2719C139.484 57.5919 139.628 57.8799 139.74 58.1359C139.828 58.3439 139.832 58.5519 139.752 58.7599C139.672 58.9679 139.528 59.1159 139.32 59.2039Z" fill="#284877"/>
<path d="M126.96 62.576C126.76 62.736 126.532 62.804 126.276 62.78C126.028 62.756 125.824 62.644 125.664 62.444C125.504 62.244 125.436 62.016 125.46 61.76C125.484 61.504 125.596 61.3 125.796 61.148C126.3 60.74 126.728 60.264 127.08 59.72C127.432 59.176 127.684 58.58 127.836 57.932C127.988 57.284 128.004 56.608 127.884 55.904C127.852 55.648 127.904 55.42 128.04 55.22C128.176 55.02 128.368 54.896 128.616 54.848C128.872 54.8 129.104 54.848 129.312 54.992C129.52 55.128 129.64 55.324 129.672 55.58C129.68 55.62 129.684 55.66 129.684 55.7C129.692 55.74 129.7 55.78 129.708 55.82C130.204 55.788 130.596 55.752 130.884 55.712C131.172 55.664 131.388 55.612 131.532 55.556C131.684 55.492 131.78 55.428 131.82 55.364C131.868 55.292 131.892 55.22 131.892 55.148C131.892 55.02 131.848 54.92 131.76 54.848C131.672 54.776 131.492 54.74 131.22 54.74H124.944C124.688 54.74 124.468 54.652 124.284 54.476C124.1 54.3 124.008 54.084 124.008 53.828C124.008 53.572 124.1 53.356 124.284 53.18C124.468 53.004 124.688 52.916 124.944 52.916H131.22C132.116 52.916 132.776 53.1 133.2 53.468C133.624 53.836 133.836 54.376 133.836 55.088C133.836 55.576 133.704 55.992 133.44 56.336C133.184 56.68 132.756 56.952 132.156 57.152C131.556 57.352 130.744 57.488 129.72 57.56C129.624 58.584 129.336 59.516 128.856 60.356C128.384 61.196 127.752 61.936 126.96 62.576Z" fill="#284877"/>
<path d="M120.264 60.5719C119.104 61.0199 118.184 61.0919 117.504 60.7879C116.832 60.4839 116.496 59.8159 116.496 58.7839V54.8359C116.496 54.5799 116.584 54.3639 116.76 54.1879C116.944 54.0039 117.164 53.9119 117.42 53.9119C117.676 53.9119 117.892 54.0039 118.068 54.1879C118.252 54.3639 118.344 54.5799 118.344 54.8359V58.3159C118.344 58.6599 118.432 58.8759 118.608 58.9639C118.792 59.0439 119.056 59.0199 119.4 58.8919C119.6 58.8199 119.828 58.7319 120.084 58.6279C120.34 58.5239 120.604 58.4119 120.876 58.2919C121.148 58.1719 121.4 58.0599 121.632 57.9559C121.864 57.8519 122.1 57.8399 122.34 57.9199C122.58 57.9919 122.76 58.1439 122.88 58.3759C122.992 58.5999 123.012 58.8359 122.94 59.0839C122.868 59.3319 122.716 59.5119 122.484 59.6239C122.132 59.7919 121.756 59.9639 121.356 60.1399C120.956 60.3079 120.592 60.4519 120.264 60.5719ZM112.32 61.3639C112.096 61.4679 111.86 61.4799 111.612 61.3999C111.372 61.3119 111.196 61.1519 111.084 60.9199C110.98 60.6879 110.972 60.4519 111.06 60.2119C111.148 59.9719 111.304 59.7999 111.528 59.6959C112.416 59.2639 113.04 58.6959 113.4 57.9919C113.768 57.2879 113.952 56.4239 113.952 55.3999C113.952 55.1439 114.04 54.9279 114.216 54.7519C114.392 54.5679 114.608 54.4759 114.864 54.4759C115.12 54.4759 115.336 54.5679 115.512 54.7519C115.688 54.9279 115.776 55.1439 115.776 55.3999C115.76 56.8799 115.46 58.1159 114.876 59.1079C114.292 60.0919 113.44 60.8439 112.32 61.3639Z" fill="#284877"/>
<path d="M105.744 62.6961C105.488 62.7281 105.256 62.6641 105.048 62.5041C104.848 62.3521 104.732 62.1521 104.7 61.9041C104.66 61.5441 104.608 61.1441 104.544 60.7041C104.488 60.2561 104.428 59.7921 104.364 59.3121C103.748 59.3841 103.156 59.4561 102.588 59.5281C102.02 59.6001 101.528 59.6641 101.112 59.7201C100.864 59.7521 100.64 59.6881 100.44 59.5281C100.24 59.3601 100.124 59.1521 100.092 58.9041C100.068 58.6481 100.136 58.4201 100.296 58.2201C100.456 58.0201 100.664 57.9081 100.92 57.8841C101.28 57.8441 101.744 57.7961 102.312 57.7401C102.88 57.6761 103.48 57.6041 104.112 57.5241C104.088 57.3241 104.06 57.1281 104.028 56.9361C104.004 56.7441 103.976 56.5521 103.944 56.3601C103.528 56.4161 103.128 56.4681 102.744 56.5161C102.368 56.5561 102.04 56.5961 101.76 56.6361C101.504 56.6681 101.276 56.6001 101.076 56.4321C100.876 56.2641 100.764 56.0561 100.74 55.8081C100.716 55.5521 100.784 55.3281 100.944 55.1361C101.112 54.9361 101.32 54.8201 101.568 54.7881C101.8 54.7641 102.1 54.7321 102.468 54.6921C102.844 54.6521 103.248 54.6081 103.68 54.5601C103.648 54.3441 103.616 54.1401 103.584 53.9481C103.56 53.7561 103.532 53.5841 103.5 53.4321C103.468 53.1761 103.532 52.9481 103.692 52.7481C103.852 52.5481 104.056 52.4321 104.304 52.4001C104.56 52.3681 104.788 52.4321 104.988 52.5921C105.196 52.7441 105.312 52.9481 105.336 53.2041C105.352 53.3561 105.372 53.5321 105.396 53.7321C105.428 53.9241 105.456 54.1321 105.48 54.3561C105.88 54.3081 106.256 54.2641 106.608 54.2241C106.968 54.1841 107.276 54.1481 107.532 54.1161C107.788 54.0761 108.012 54.1401 108.204 54.3081C108.404 54.4761 108.516 54.6881 108.54 54.9441C108.564 55.2001 108.496 55.4281 108.336 55.6281C108.176 55.8281 107.968 55.9361 107.712 55.9521C107.464 55.9681 107.168 55.9961 106.824 56.0361C106.48 56.0761 106.112 56.1161 105.72 56.1561C105.744 56.3401 105.768 56.5281 105.792 56.7201C105.824 56.9121 105.852 57.1081 105.876 57.3081C106.476 57.2281 107.036 57.1561 107.556 57.0921C108.084 57.0281 108.512 56.9801 108.84 56.9481C109.096 56.9161 109.32 56.9801 109.512 57.1401C109.712 57.3001 109.828 57.5081 109.86 57.7641C109.892 58.0121 109.828 58.2401 109.668 58.4481C109.508 58.6481 109.3 58.7601 109.044 58.7841C108.708 58.8161 108.284 58.8601 107.772 58.9161C107.268 58.9721 106.724 59.0321 106.14 59.0961C106.212 59.5841 106.28 60.0481 106.344 60.4881C106.416 60.9281 106.48 61.3161 106.536 61.6521C106.576 61.9001 106.516 62.1241 106.356 62.3241C106.204 62.5321 106 62.6561 105.744 62.6961Z" fill="#284877"/>
<path d="M89.304 61.904C89.08 62.016 88.844 62.032 88.596 61.952C88.356 61.864 88.18 61.704 88.068 61.472C87.956 61.24 87.94 61.004 88.02 60.764C88.108 60.524 88.268 60.348 88.5 60.236C89.612 59.7 90.596 59.064 91.452 58.328C92.308 57.592 93.012 56.808 93.564 55.976C93.748 55.704 93.796 55.504 93.708 55.376C93.628 55.248 93.436 55.184 93.132 55.184H89.952C89.704 55.184 89.488 55.092 89.304 54.908C89.12 54.724 89.028 54.508 89.028 54.26C89.028 54.004 89.12 53.784 89.304 53.6C89.488 53.416 89.704 53.324 89.952 53.324H93.228C94.02 53.324 94.628 53.472 95.052 53.768C95.484 54.056 95.716 54.456 95.748 54.968C95.788 55.48 95.616 56.068 95.232 56.732C95.168 56.852 95.092 56.976 95.004 57.104C94.924 57.224 94.84 57.348 94.752 57.476C95.112 57.772 95.472 58.092 95.832 58.436C96.192 58.78 96.532 59.112 96.852 59.432C97.18 59.752 97.46 60.032 97.692 60.272C97.868 60.448 97.952 60.668 97.944 60.932C97.944 61.188 97.852 61.408 97.668 61.592C97.492 61.768 97.272 61.856 97.008 61.856C96.744 61.848 96.52 61.756 96.336 61.58C96.12 61.348 95.856 61.076 95.544 60.764C95.24 60.444 94.916 60.116 94.572 59.78C94.236 59.436 93.904 59.12 93.576 58.832C92.968 59.44 92.288 60.016 91.536 60.56C90.792 61.096 90.048 61.544 89.304 61.904Z" fill="#284877"/>
<path d="M80.688 62.9121C80.016 62.9121 79.468 62.7361 79.044 62.3841C78.628 62.0321 78.42 61.5361 78.42 60.8961C78.42 60.2961 78.632 59.8201 79.056 59.4681C79.48 59.1081 80.036 58.9281 80.724 58.9281C80.9 58.9281 81.076 58.9401 81.252 58.9641V56.9361C81.252 56.6881 81.336 56.4801 81.504 56.3121C81.672 56.1361 81.88 56.0481 82.128 56.0481C82.376 56.0481 82.58 56.1361 82.74 56.3121C82.908 56.4801 82.992 56.6881 82.992 56.9361V59.3481C83.416 59.4921 83.816 59.6601 84.192 59.8521C84.568 60.0361 84.896 60.2281 85.176 60.4281C85.384 60.5721 85.504 60.7681 85.536 61.0161C85.576 61.2561 85.524 61.4761 85.38 61.6761C85.236 61.8761 85.04 61.9961 84.792 62.0361C84.552 62.0841 84.332 62.0321 84.132 61.8801C83.964 61.7521 83.78 61.6281 83.58 61.5081C83.388 61.3801 83.184 61.2641 82.968 61.1601C82.888 61.7121 82.652 62.1401 82.26 62.4441C81.868 62.7561 81.344 62.9121 80.688 62.9121ZM76.356 59.6001C76.18 59.4161 76.092 59.2001 76.092 58.9521C76.092 58.7041 76.184 58.4961 76.368 58.3281C76.776 57.9601 77.14 57.5481 77.46 57.0921C77.788 56.6361 78.064 56.1561 78.288 55.6521C78.12 55.6681 77.956 55.6841 77.796 55.7001C77.636 55.7161 77.488 55.7281 77.352 55.7361C77.104 55.7521 76.888 55.6841 76.704 55.5321C76.528 55.3721 76.432 55.1601 76.416 54.8961C76.408 54.6481 76.476 54.4441 76.62 54.2841C76.772 54.1161 76.984 54.0161 77.256 53.9841C77.496 53.9601 77.748 53.9321 78.012 53.9001C78.276 53.8681 78.544 53.8321 78.816 53.7921C78.864 53.4801 78.888 53.1641 78.888 52.8441C78.896 52.5961 78.98 52.3881 79.14 52.2201C79.308 52.0441 79.516 51.9561 79.764 51.9561C80.012 51.9561 80.224 52.0441 80.4 52.2201C80.584 52.3881 80.672 52.5961 80.664 52.8441C80.656 52.9481 80.648 53.0561 80.64 53.1681C80.64 53.2721 80.632 53.3761 80.616 53.4801L80.676 53.4681C80.916 53.4121 81.14 53.4521 81.348 53.5881C81.556 53.7161 81.684 53.9001 81.732 54.1401C81.788 54.3801 81.748 54.6001 81.612 54.8001C81.476 55.0001 81.288 55.1281 81.048 55.1841C80.936 55.2081 80.812 55.2361 80.676 55.2681C80.54 55.2921 80.392 55.3201 80.232 55.3521C79.976 56.1761 79.624 56.9601 79.176 57.7041C78.728 58.4481 78.208 59.0801 77.616 59.6001C77.432 59.7681 77.22 59.8561 76.98 59.8641C76.74 59.8641 76.532 59.7761 76.356 59.6001ZM84.348 56.4681C84.076 56.3001 83.792 56.1441 83.496 56.0001C83.2 55.8561 82.924 55.7401 82.668 55.6521C82.444 55.5641 82.264 55.4241 82.128 55.2321C82 55.0401 81.964 54.8241 82.02 54.5841C82.084 54.3441 82.22 54.1601 82.428 54.0321C82.644 53.8961 82.868 53.8641 83.1 53.9361C83.348 54.0081 83.608 54.1041 83.88 54.2241C84.16 54.3361 84.428 54.4561 84.684 54.5841C84.948 54.7121 85.172 54.8361 85.356 54.9561C85.564 55.0841 85.688 55.2761 85.728 55.5321C85.768 55.7801 85.72 56.0081 85.584 56.2161C85.448 56.4161 85.26 56.5401 85.02 56.5881C84.78 56.6361 84.556 56.5961 84.348 56.4681ZM80.664 61.3041C81.056 61.3041 81.252 61.1041 81.252 60.7041V60.5481C81.148 60.5321 81.048 60.5201 80.952 60.5121C80.856 60.5041 80.76 60.5001 80.664 60.5001C80.296 60.5001 80.112 60.6321 80.112 60.8961C80.112 61.1681 80.296 61.3041 80.664 61.3041Z" fill="#284877"/>
<path d="M67.3319 62.4559C67.0839 62.4159 66.8839 62.2999 66.7319 62.1079C66.5879 61.9159 66.5319 61.6959 66.5639 61.4479C66.5959 61.1999 66.7079 61.0039 66.8999 60.8599C67.0999 60.7079 67.3199 60.6479 67.5599 60.6799C67.8079 60.7119 68.0199 60.7199 68.1959 60.7039C68.3799 60.6799 68.5319 60.5999 68.6519 60.4639C68.7799 60.3199 68.8879 60.0959 68.9759 59.7919C69.0719 59.4879 69.1559 59.0679 69.2279 58.5319C69.2999 58.0439 69.3079 57.6759 69.2519 57.4279C69.1959 57.1799 69.0679 57.0159 68.8679 56.9359C68.6679 56.8479 68.3839 56.8159 68.0159 56.8399C67.7199 57.8559 67.3479 58.8399 66.8999 59.7919C66.4599 60.7439 65.9679 61.5519 65.4239 62.2159C65.2719 62.3999 65.0719 62.5079 64.8239 62.5399C64.5839 62.5719 64.3679 62.5119 64.1759 62.3599C63.9839 62.2079 63.8719 62.0079 63.8399 61.7599C63.8079 61.5119 63.8679 61.2959 64.0199 61.1119C64.4519 60.5919 64.8519 59.9759 65.2199 59.2639C65.5959 58.5519 65.9199 57.7999 66.1919 57.0079C65.9839 57.0239 65.7759 57.0439 65.5679 57.0679C65.3599 57.0919 65.1639 57.1119 64.9799 57.1279C64.7319 57.1519 64.5119 57.0879 64.3199 56.9359C64.1279 56.7839 64.0199 56.5839 63.9959 56.3359C63.9639 56.0879 64.0239 55.8679 64.1759 55.6759C64.3359 55.4839 64.5399 55.3759 64.7879 55.3519C65.0919 55.3199 65.4039 55.2919 65.7239 55.2679C66.0439 55.2439 66.3639 55.2199 66.6839 55.1959C66.7479 54.8679 66.8039 54.5479 66.8519 54.2359C66.8999 53.9159 66.9319 53.5999 66.9479 53.2879C66.9639 53.0399 67.0639 52.8359 67.2479 52.6759C67.4319 52.5079 67.6479 52.4319 67.8959 52.4479C68.1439 52.4639 68.3519 52.5639 68.5199 52.7479C68.6879 52.9319 68.7599 53.1479 68.7359 53.3959C68.6639 53.9479 68.5679 54.5279 68.4479 55.1359C69.4959 55.1839 70.2159 55.4999 70.6079 56.0839C70.9999 56.6599 71.1159 57.5559 70.9559 58.7719C70.8279 59.8039 70.6159 60.6039 70.3199 61.1719C70.0239 61.7399 69.6319 62.1159 69.1439 62.2999C68.6559 62.4919 68.0519 62.5439 67.3319 62.4559ZM74.1839 58.8799C73.9679 58.9999 73.7399 59.0239 73.4999 58.9519C73.2679 58.8799 73.0919 58.7399 72.9719 58.5319C72.8359 58.2919 72.6639 58.0319 72.4559 57.7519C72.2479 57.4639 72.0319 57.1879 71.8079 56.9239C71.5919 56.6599 71.3919 56.4319 71.2079 56.2399C71.0399 56.0559 70.9479 55.8479 70.9319 55.6159C70.9159 55.3759 70.9919 55.1679 71.1599 54.9919C71.3279 54.8079 71.5359 54.7159 71.7839 54.7159C72.0319 54.7079 72.2439 54.7919 72.4199 54.9679C72.8359 55.3599 73.2279 55.7999 73.5959 56.2879C73.9719 56.7679 74.2839 57.2279 74.5319 57.6679C74.6599 57.8839 74.6879 58.1119 74.6159 58.3519C74.5439 58.5919 74.3999 58.7679 74.1839 58.8799Z" fill="#284877"/>
<path d="M59.268 62.9241C58.66 62.9241 58.188 62.8681 57.852 62.7561C57.524 62.6441 57.292 62.4401 57.156 62.1441C57.028 61.8481 56.964 61.4321 56.964 60.8961V58.5081L56.88 58.5921C56.776 58.6961 56.648 58.7601 56.496 58.7841C56.352 58.8081 56.212 58.8001 56.076 58.7601V60.4641C56.076 61.0961 55.948 61.5321 55.692 61.7721C55.436 62.0121 54.98 62.1321 54.324 62.1321C53.668 62.1321 53.212 62.0121 52.956 61.7721C52.7 61.5321 52.572 61.0961 52.572 60.4641V59.2521C52.444 59.4281 52.272 59.5361 52.056 59.5761C51.84 59.6081 51.632 59.5641 51.432 59.4441C51.256 59.3321 51.148 59.1681 51.108 58.9521C51.076 58.7281 51.12 58.5281 51.24 58.3521C51.504 57.9761 51.752 57.5481 51.984 57.0681C52.216 56.5881 52.42 56.0961 52.596 55.5921C52.772 55.0801 52.896 54.6041 52.968 54.1641H52.104C51.896 54.1641 51.72 54.0921 51.576 53.9481C51.432 53.7961 51.36 53.6201 51.36 53.4201C51.36 53.2121 51.432 53.0361 51.576 52.8921C51.72 52.7401 51.896 52.6641 52.104 52.6641H55.692C55.884 52.6641 56.048 52.7281 56.184 52.8561C56.328 52.9841 56.412 53.1401 56.436 53.3241C56.708 53.1001 57.16 52.9881 57.792 52.9881H58.356C58.372 52.9001 58.388 52.8081 58.404 52.7121C58.428 52.6161 58.448 52.5201 58.464 52.4241C58.504 52.1681 58.62 51.9841 58.812 51.8721C59.004 51.7521 59.212 51.7121 59.436 51.7521C59.66 51.7921 59.828 51.8961 59.94 52.0641C60.06 52.2321 60.096 52.4361 60.048 52.6761C60.04 52.7321 60.028 52.7881 60.012 52.8441C59.996 52.8921 59.98 52.9401 59.964 52.9881H60.876C61.54 52.9881 62 53.1041 62.256 53.3361C62.52 53.5681 62.652 53.9801 62.652 54.5721V54.8721C62.652 55.0801 62.576 55.2601 62.424 55.4121C62.28 55.5561 62.104 55.6281 61.896 55.6281C61.744 55.6281 61.604 55.5841 61.476 55.4961C61.356 55.4001 61.268 55.2841 61.212 55.1481C61.228 55.2681 61.212 55.3841 61.164 55.4961C61.156 55.5121 61.132 55.5681 61.092 55.6641C61.052 55.7601 61.008 55.8641 60.96 55.9761H61.8C61.984 55.9761 62.14 56.0441 62.268 56.1801C62.404 56.3081 62.472 56.4641 62.472 56.6481C62.472 56.8321 62.404 56.9921 62.268 57.1281C62.14 57.2561 61.984 57.3201 61.8 57.3201H60.84V57.8601H61.524C61.708 57.8601 61.86 57.9241 61.98 58.0521C62.108 58.1721 62.172 58.3241 62.172 58.5081C62.172 58.6841 62.108 58.8401 61.98 58.9761C61.86 59.1041 61.708 59.1681 61.524 59.1681H60.84V59.6961H61.524C61.708 59.6961 61.86 59.7601 61.98 59.8881C62.108 60.0081 62.172 60.1601 62.172 60.3441C62.172 60.5201 62.108 60.6721 61.98 60.8001C61.86 60.9281 61.708 60.9921 61.524 60.9921H60.84V61.5561H61.896C62.088 61.5561 62.248 61.6241 62.376 61.7601C62.512 61.8881 62.58 62.0481 62.58 62.2401C62.58 62.4241 62.512 62.5841 62.376 62.7201C62.248 62.8561 62.088 62.9241 61.896 62.9241H59.268ZM56.004 57.3561C56.476 56.9081 56.872 56.4321 57.192 55.9281C57.52 55.4241 57.784 54.8881 57.984 54.3201H57.972C57.796 54.3201 57.676 54.3441 57.612 54.3921C57.548 54.4401 57.516 54.5361 57.516 54.6801V54.9081C57.516 55.1081 57.444 55.2801 57.3 55.4241C57.164 55.5601 56.996 55.6281 56.796 55.6281C56.58 55.6281 56.396 55.5521 56.244 55.4001C56.092 55.2481 56.016 55.0641 56.016 54.8481V54.5721C56.016 54.3881 56.028 54.2241 56.052 54.0801C55.948 54.1361 55.828 54.1641 55.692 54.1641H54.552C54.448 54.9161 54.26 55.6761 53.988 56.4441C54.044 56.4361 54.1 56.4321 54.156 56.4321C54.212 56.4321 54.268 56.4321 54.324 56.4321C54.828 56.4321 55.212 56.5001 55.476 56.6361C55.74 56.7721 55.916 57.0121 56.004 57.3561ZM54.3 60.6321C54.508 60.6321 54.612 60.5361 54.612 60.3441V58.2081C54.612 58.0161 54.508 57.9201 54.3 57.9201C54.1 57.9201 54 58.0161 54 58.2081V60.3441C54 60.5361 54.1 60.6321 54.3 60.6321ZM58.872 55.9761H59.376C59.416 55.8641 59.46 55.7401 59.508 55.6041C59.556 55.4681 59.6 55.3441 59.64 55.2321C59.688 55.1121 59.716 55.0361 59.724 55.0041C59.796 54.7961 59.932 54.6521 60.132 54.5721C60.34 54.4841 60.544 54.4801 60.744 54.5601C60.952 54.6401 61.096 54.7841 61.176 54.9921V54.6801C61.176 54.5361 61.144 54.4401 61.08 54.3921C61.016 54.3441 60.896 54.3201 60.72 54.3201H59.592C59.392 54.9041 59.152 55.4561 58.872 55.9761ZM58.512 57.8601H59.328V57.3201H58.512V57.8601ZM58.512 59.6961H59.328V59.1681H58.512V59.6961ZM59.268 61.5561H59.328V60.9921H58.512C58.528 61.2161 58.584 61.3681 58.68 61.4481C58.776 61.5201 58.972 61.5561 59.268 61.5561Z" fill="#284877"/>
<path d="M168.024 45.5521C167.048 45.4161 166.24 45.1321 165.6 44.7001C164.96 44.2681 164.484 43.7521 164.172 43.1521C163.86 42.5441 163.704 41.9041 163.704 41.2321C163.704 40.6401 163.8 40.0961 163.992 39.6001C164.192 39.1041 164.476 38.6561 164.844 38.2561C164.324 38.3441 163.816 38.4321 163.32 38.5201C162.824 38.6081 162.368 38.6881 161.952 38.7601C161.536 38.8321 161.188 38.8921 160.908 38.9401C160.668 38.9801 160.448 38.9281 160.248 38.7841C160.056 38.6321 159.94 38.4361 159.9 38.1961C159.868 37.9481 159.92 37.7241 160.056 37.5241C160.2 37.3241 160.396 37.2081 160.644 37.1761C160.988 37.1281 161.424 37.0641 161.952 36.9841C162.488 36.8961 163.06 36.8041 163.668 36.7081C164.284 36.6041 164.896 36.5041 165.504 36.4081C166.112 36.3041 166.672 36.2081 167.184 36.1201C167.696 36.0241 168.108 35.9441 168.42 35.8801C168.652 35.8321 168.868 35.8801 169.068 36.0241C169.268 36.1601 169.392 36.3441 169.44 36.5761C169.488 36.8081 169.448 37.0281 169.32 37.2361C169.2 37.4441 169.02 37.5681 168.78 37.6081C168.244 37.6801 167.772 37.8321 167.364 38.0641C166.956 38.2961 166.612 38.5801 166.332 38.9161C166.052 39.2521 165.84 39.6121 165.696 39.9961C165.552 40.3801 165.48 40.7601 165.48 41.1361C165.48 41.8481 165.724 42.4361 166.212 42.9001C166.7 43.3641 167.388 43.6601 168.276 43.7881C168.524 43.8201 168.72 43.9361 168.864 44.1361C169.016 44.3361 169.072 44.5561 169.032 44.7961C169 45.0441 168.884 45.2401 168.684 45.3841C168.492 45.5281 168.272 45.5841 168.024 45.5521ZM170.664 39.6241C170.544 39.7361 170.396 39.7881 170.22 39.7801C170.052 39.7721 169.912 39.7001 169.8 39.5641C169.72 39.4761 169.604 39.3401 169.452 39.1561C169.3 38.9721 169.168 38.8161 169.056 38.6881C168.984 38.6001 168.952 38.4801 168.96 38.3281C168.968 38.1761 169.032 38.0481 169.152 37.9441C169.248 37.8561 169.368 37.8081 169.512 37.8001C169.656 37.7921 169.784 37.8321 169.896 37.9201C170.024 38.0241 170.168 38.1561 170.328 38.3161C170.496 38.4761 170.632 38.6281 170.736 38.7721C170.84 38.9001 170.884 39.0441 170.868 39.2041C170.86 39.3641 170.792 39.5041 170.664 39.6241ZM169.344 40.6801C169.216 40.7761 169.068 40.8121 168.9 40.7881C168.732 40.7641 168.6 40.6801 168.504 40.5361C168.44 40.4321 168.336 40.2841 168.192 40.0921C168.056 39.8921 167.94 39.7241 167.844 39.5881C167.78 39.4921 167.76 39.3721 167.784 39.2281C167.808 39.0761 167.884 38.9521 168.012 38.8561C168.116 38.7761 168.24 38.7401 168.384 38.7481C168.528 38.7561 168.652 38.8081 168.756 38.9041C168.876 39.0161 169.008 39.1641 169.152 39.3481C169.304 39.5241 169.424 39.6881 169.512 39.8401C169.6 39.9841 169.628 40.1321 169.596 40.2841C169.572 40.4361 169.488 40.5681 169.344 40.6801Z" fill="#284877"/>
<path d="M154.248 46.248C153.984 46.248 153.768 46.176 153.6 46.032C153.44 45.896 153.356 45.704 153.348 45.456C153.34 45.248 153.4 45.072 153.528 44.928C153.664 44.776 153.856 44.688 154.104 44.664C154.336 44.648 154.48 44.612 154.536 44.556C154.6 44.5 154.636 44.384 154.644 44.208H151.56C151.664 44.272 151.768 44.34 151.872 44.412C151.984 44.484 152.056 44.528 152.088 44.544C152.288 44.672 152.404 44.848 152.436 45.072C152.468 45.296 152.408 45.504 152.256 45.696C152.112 45.872 151.92 45.976 151.68 46.008C151.448 46.04 151.24 45.988 151.056 45.852C150.992 45.804 150.908 45.744 150.804 45.672C150.7 45.6 150.6 45.528 150.504 45.456C150.416 45.392 150.348 45.348 150.3 45.324C150.132 45.204 150.036 45.04 150.012 44.832C149.988 44.616 150.036 44.424 150.156 44.256C150.164 44.24 150.176 44.224 150.192 44.208H148.044C147.844 44.208 147.684 44.144 147.564 44.016C147.452 43.888 147.396 43.736 147.396 43.56C147.396 43.376 147.452 43.224 147.564 43.104C147.684 42.976 147.844 42.912 148.044 42.912H154.644V42.552H153.108C152.348 42.552 151.712 42.496 151.2 42.384C150.688 42.272 150.252 42.076 149.892 41.796C149.668 41.908 149.432 42.028 149.184 42.156C148.944 42.276 148.732 42.384 148.548 42.48C148.34 42.584 148.14 42.6 147.948 42.528C147.756 42.448 147.616 42.32 147.528 42.144C147.424 41.944 147.408 41.752 147.48 41.568C147.552 41.384 147.692 41.244 147.9 41.148C148.036 41.084 148.196 41.016 148.38 40.944C148.572 40.864 148.756 40.788 148.932 40.716V39.636C148.932 39.444 148.904 39.324 148.848 39.276C148.792 39.228 148.668 39.204 148.476 39.204H148.056C147.848 39.204 147.684 39.136 147.564 39C147.444 38.856 147.384 38.692 147.384 38.508C147.384 38.324 147.444 38.164 147.564 38.028C147.684 37.892 147.848 37.824 148.056 37.824H148.896C149.48 37.824 149.892 37.94 150.132 38.172C150.372 38.396 150.492 38.816 150.492 39.432V40.656C150.668 40.824 150.864 40.96 151.08 41.064C151.304 41.16 151.576 41.232 151.896 41.28C152.224 41.32 152.628 41.34 153.108 41.34H157.932C158.116 41.34 158.26 41.404 158.364 41.532C158.468 41.652 158.52 41.792 158.52 41.952C158.52 42.112 158.468 42.252 158.364 42.372C158.26 42.492 158.116 42.552 157.932 42.552H156.372V42.912H157.932C158.14 42.912 158.3 42.976 158.412 43.104C158.524 43.224 158.58 43.376 158.58 43.56C158.58 43.736 158.524 43.888 158.412 44.016C158.3 44.144 158.14 44.208 157.932 44.208H156.372V44.508C156.372 45.116 156.208 45.556 155.88 45.828C155.552 46.108 155.008 46.248 154.248 46.248ZM153.204 41.064C152.7 41.064 152.304 41.02 152.016 40.932C151.728 40.844 151.524 40.696 151.404 40.488C151.292 40.28 151.236 40 151.236 39.648V38.58C151.236 38.22 151.292 37.936 151.404 37.728C151.524 37.52 151.728 37.372 152.016 37.284C152.304 37.196 152.7 37.152 153.204 37.152L153.3 36.9H150.936C150.76 36.9 150.624 36.844 150.528 36.732C150.44 36.62 150.396 36.488 150.396 36.336C150.396 36.184 150.44 36.052 150.528 35.94C150.624 35.828 150.76 35.772 150.936 35.772H152.208C152.152 35.676 152.104 35.592 152.064 35.52C151.96 35.352 151.94 35.188 152.004 35.028C152.076 34.86 152.192 34.736 152.352 34.656C152.536 34.568 152.716 34.548 152.892 34.596C153.076 34.644 153.22 34.744 153.324 34.896C153.404 35.016 153.488 35.16 153.576 35.328C153.672 35.496 153.752 35.644 153.816 35.772H154.764C154.804 35.636 154.84 35.524 154.872 35.436C154.904 35.348 154.944 35.24 154.992 35.112C155.08 34.904 155.216 34.756 155.4 34.668C155.584 34.572 155.788 34.564 156.012 34.644C156.236 34.716 156.384 34.844 156.456 35.028C156.536 35.204 156.528 35.384 156.432 35.568L156.324 35.772H157.956C158.132 35.772 158.268 35.828 158.364 35.94C158.46 36.052 158.508 36.184 158.508 36.336C158.508 36.488 158.46 36.62 158.364 36.732C158.268 36.844 158.132 36.9 157.956 36.9H155.1C155.084 36.94 155.064 36.984 155.04 37.032C155.024 37.072 155.004 37.112 154.98 37.152H155.616C156.128 37.152 156.524 37.196 156.804 37.284C157.092 37.372 157.292 37.52 157.404 37.728C157.524 37.936 157.584 38.22 157.584 38.58V39.648C157.584 40 157.524 40.28 157.404 40.488C157.292 40.696 157.092 40.844 156.804 40.932C156.524 41.02 156.128 41.064 155.616 41.064H153.204ZM149.052 36.972C148.996 36.924 148.908 36.856 148.788 36.768C148.668 36.68 148.544 36.592 148.416 36.504C148.296 36.416 148.208 36.352 148.152 36.312C147.992 36.2 147.896 36.044 147.864 35.844C147.832 35.644 147.876 35.468 147.996 35.316C148.124 35.132 148.292 35.024 148.5 34.992C148.708 34.96 148.9 35 149.076 35.112C149.132 35.144 149.216 35.2 149.328 35.28C149.448 35.352 149.568 35.432 149.688 35.52C149.808 35.6 149.908 35.668 149.988 35.724C150.172 35.852 150.276 36.028 150.3 36.252C150.324 36.468 150.268 36.668 150.132 36.852C150.004 37.02 149.832 37.116 149.616 37.14C149.408 37.164 149.22 37.108 149.052 36.972ZM152.832 39.252H155.988V38.976H152.832V39.252ZM153.432 40.224H155.388C155.596 40.224 155.74 40.208 155.82 40.176C155.9 40.136 155.952 40.056 155.976 39.936H152.844C152.868 40.056 152.92 40.136 153 40.176C153.088 40.208 153.232 40.224 153.432 40.224ZM152.844 38.28H155.976C155.952 38.16 155.9 38.084 155.82 38.052C155.74 38.02 155.596 38.004 155.388 38.004H153.432C153.232 38.004 153.088 38.02 153 38.052C152.92 38.084 152.868 38.16 152.844 38.28Z" fill="#284877"/>
<path d="M136.908 46.044C136.612 46.06 136.36 46 136.152 45.864C135.952 45.728 135.836 45.516 135.804 45.228C135.78 44.948 135.844 44.72 135.996 44.544C136.156 44.36 136.396 44.252 136.716 44.22C136.868 44.204 136.968 44.168 137.016 44.112C137.064 44.048 137.088 43.948 137.088 43.812V42.228C137.024 42.26 136.964 42.288 136.908 42.312C136.852 42.328 136.796 42.344 136.74 42.36C136.444 42.472 136.176 42.488 135.936 42.408C135.696 42.328 135.532 42.148 135.444 41.868C135.364 41.612 135.38 41.384 135.492 41.184C135.604 40.976 135.8 40.824 136.08 40.728C136.216 40.688 136.368 40.636 136.536 40.572C136.712 40.508 136.896 40.444 137.088 40.38V38.688H136.188C135.964 38.688 135.772 38.612 135.612 38.46C135.46 38.3 135.384 38.108 135.384 37.884C135.384 37.66 135.46 37.472 135.612 37.32C135.772 37.16 135.964 37.08 136.188 37.08H137.088V35.664C137.088 35.408 137.172 35.204 137.34 35.052C137.508 34.9 137.704 34.824 137.928 34.824C138.16 34.824 138.36 34.9 138.528 35.052C138.696 35.204 138.78 35.408 138.78 35.664V37.08H139.284C139.508 37.08 139.696 37.16 139.848 37.32C140.008 37.472 140.088 37.66 140.088 37.884C140.088 38.108 140.008 38.3 139.848 38.46C139.696 38.612 139.508 38.688 139.284 38.688H138.78V39.792C138.844 39.768 138.904 39.748 138.96 39.732C139.016 39.708 139.068 39.688 139.116 39.672C139.356 39.584 139.576 39.58 139.776 39.66C139.984 39.74 140.12 39.884 140.184 40.092C140.256 40.308 140.26 40.508 140.196 40.692C140.14 40.876 139.98 41.028 139.716 41.148C139.612 41.204 139.476 41.268 139.308 41.34C139.14 41.404 138.964 41.476 138.78 41.556V44.1C138.78 44.7641 138.632 45.244 138.336 45.54C138.048 45.836 137.572 46.004 136.908 46.044ZM142.728 45.996C142.104 45.996 141.612 45.932 141.252 45.804C140.892 45.676 140.636 45.46 140.484 45.156C140.34 44.86 140.268 44.452 140.268 43.932V42.312C140.268 41.792 140.34 41.384 140.484 41.088C140.636 40.792 140.892 40.58 141.252 40.452C141.612 40.324 142.104 40.26 142.728 40.26H143.376C144 40.26 144.488 40.324 144.84 40.452C145.2 40.58 145.456 40.792 145.608 41.088C145.76 41.384 145.836 41.792 145.836 42.312V43.932C145.836 44.452 145.76 44.86 145.608 45.156C145.456 45.46 145.2 45.676 144.84 45.804C144.488 45.932 144 45.996 143.376 45.996H142.728ZM143.028 39.888C142.324 39.888 141.764 39.828 141.348 39.708C140.94 39.588 140.648 39.38 140.472 39.084C140.296 38.78 140.208 38.368 140.208 37.848V35.616C140.208 35.36 140.288 35.16 140.448 35.016C140.608 34.872 140.8 34.8 141.024 34.8C141.248 34.8 141.436 34.872 141.588 35.016C141.748 35.16 141.828 35.36 141.828 35.616V36.252C142.108 36.172 142.424 36.076 142.776 35.964C143.136 35.852 143.484 35.736 143.82 35.616C144.164 35.496 144.452 35.388 144.684 35.292C144.932 35.18 145.16 35.164 145.368 35.244C145.584 35.316 145.728 35.456 145.8 35.664C145.888 35.872 145.892 36.072 145.812 36.264C145.732 36.456 145.6 36.592 145.416 36.672C144.888 36.872 144.304 37.056 143.664 37.224C143.032 37.392 142.42 37.532 141.828 37.644C141.836 37.932 141.916 38.128 142.068 38.232C142.22 38.328 142.54 38.376 143.028 38.376H143.568C143.904 38.376 144.16 38.36 144.336 38.328C144.52 38.296 144.652 38.24 144.732 38.16C144.82 38.072 144.888 37.96 144.936 37.824C145.024 37.576 145.18 37.408 145.404 37.32C145.628 37.232 145.856 37.236 146.088 37.332C146.312 37.42 146.46 37.556 146.532 37.74C146.612 37.924 146.62 38.132 146.556 38.364C146.444 38.732 146.28 39.028 146.064 39.252C145.856 39.476 145.552 39.64 145.152 39.744C144.76 39.84 144.232 39.888 143.568 39.888H143.028ZM142.728 44.556H143.376C143.68 44.556 143.88 44.516 143.976 44.436C144.08 44.356 144.132 44.188 144.132 43.932V43.74H141.972V43.932C141.972 44.188 142.02 44.356 142.116 44.436C142.212 44.516 142.416 44.556 142.728 44.556ZM141.972 42.456H144.132V42.312C144.132 42.056 144.08 41.888 143.976 41.808C143.88 41.728 143.68 41.688 143.376 41.688H142.728C142.416 41.688 142.212 41.728 142.116 41.808C142.02 41.888 141.972 42.056 141.972 42.312V42.456Z" fill="#284877"/>
<path d="M126.9 45.96C126.644 45.96 126.42 45.896 126.228 45.768C126.036 45.648 125.924 45.44 125.892 45.144C125.868 44.92 125.924 44.72 126.06 44.544C126.196 44.368 126.372 44.264 126.588 44.232C126.788 44.208 126.932 44.18 127.02 44.148C127.116 44.108 127.18 44.048 127.212 43.968C127.252 43.888 127.284 43.772 127.308 43.62C127.34 43.444 127.368 43.236 127.392 42.996C127.424 42.756 127.444 42.52 127.452 42.288C127.468 42.048 127.444 41.896 127.38 41.832C127.316 41.768 127.164 41.736 126.924 41.736H126.624C126.472 42.512 126.248 43.216 125.952 43.848C125.656 44.472 125.268 45.056 124.788 45.6C124.62 45.784 124.408 45.888 124.152 45.912C123.904 45.936 123.684 45.864 123.492 45.696C123.332 45.544 123.248 45.352 123.24 45.12C123.24 44.888 123.316 44.688 123.468 44.52C123.876 44.08 124.2 43.612 124.44 43.116C124.688 42.612 124.872 42.052 124.992 41.436C125.12 40.82 125.2 40.116 125.232 39.324C124.72 39.244 124.364 39.052 124.164 38.748C123.972 38.436 123.876 37.96 123.876 37.32C123.876 36.792 123.94 36.38 124.068 36.084C124.196 35.788 124.416 35.58 124.728 35.46C125.048 35.332 125.484 35.268 126.036 35.268H127.08C127.64 35.268 128.076 35.332 128.388 35.46C128.7 35.58 128.92 35.788 129.048 36.084C129.176 36.38 129.24 36.792 129.24 37.32C129.24 37.84 129.176 38.252 129.048 38.556C128.92 38.86 128.7 39.076 128.388 39.204C128.076 39.324 127.64 39.384 127.08 39.384H126.876C126.868 39.52 126.86 39.656 126.852 39.792C126.852 39.92 126.844 40.052 126.828 40.188H127.2C127.912 40.188 128.42 40.328 128.724 40.608C129.036 40.88 129.176 41.384 129.144 42.12C129.128 42.56 129.108 42.924 129.084 43.212C129.06 43.5 129.028 43.8 128.988 44.112C128.9 44.816 128.676 45.3 128.316 45.564C127.964 45.828 127.492 45.96 126.9 45.96ZM131.94 46.032C131.684 46.032 131.468 45.944 131.292 45.768C131.116 45.6 131.02 45.392 131.004 45.144C130.996 44.888 131.06 44.672 131.196 44.496C131.332 44.312 131.536 44.204 131.808 44.172C132.04 44.14 132.188 44.092 132.252 44.028C132.324 43.956 132.36 43.796 132.36 43.548V35.76C132.36 35.496 132.444 35.288 132.612 35.136C132.78 34.984 132.98 34.908 133.212 34.908C133.452 34.908 133.656 34.984 133.824 35.136C133.992 35.288 134.076 35.496 134.076 35.76V43.92C134.076 44.416 134.008 44.82 133.872 45.132C133.744 45.444 133.524 45.672 133.212 45.816C132.908 45.96 132.484 46.032 131.94 46.032ZM130.668 43.104C130.444 43.104 130.252 43.032 130.092 42.888C129.932 42.736 129.852 42.536 129.852 42.288V36.756C129.852 36.5 129.932 36.3 130.092 36.156C130.252 36.012 130.444 35.94 130.668 35.94C130.9 35.94 131.096 36.012 131.256 36.156C131.416 36.3 131.496 36.5 131.496 36.756V42.288C131.496 42.536 131.416 42.736 131.256 42.888C131.096 43.032 130.9 43.104 130.668 43.104ZM126.312 37.788H126.852C127.084 37.788 127.24 37.752 127.32 37.68C127.4 37.608 127.44 37.484 127.44 37.308C127.44 37.124 127.4 36.996 127.32 36.924C127.24 36.852 127.084 36.816 126.852 36.816H126.312C126.08 36.816 125.928 36.852 125.856 36.924C125.784 36.996 125.748 37.124 125.748 37.308C125.748 37.484 125.784 37.608 125.856 37.68C125.928 37.752 126.08 37.788 126.312 37.788Z" fill="#284877"/>
<path d="M117.924 45.7439C117.156 45.7439 116.552 45.6559 116.112 45.4799C115.68 45.3119 115.376 45.0319 115.2 44.6399C115.024 44.2399 114.936 43.7079 114.936 43.0439V37.9199C114.936 37.2559 115.024 36.7279 115.2 36.3359C115.376 35.9359 115.68 35.6519 116.112 35.4839C116.552 35.3079 117.156 35.2199 117.924 35.2199H119.088C119.856 35.2199 120.464 35.3079 120.912 35.4839C121.368 35.6519 121.692 35.9359 121.884 36.3359C122.084 36.7279 122.184 37.2559 122.184 37.9199V43.0439C122.184 43.7079 122.084 44.2399 121.884 44.6399C121.692 45.0319 121.368 45.3119 120.912 45.4799C120.464 45.6559 119.856 45.7439 119.088 45.7439H117.924ZM113.448 46.0319C113.224 46.0319 113.032 45.9559 112.872 45.8039C112.712 45.6599 112.632 45.4639 112.632 45.2159V40.0799L112.584 40.1519C112.456 40.3519 112.268 40.4679 112.02 40.4999C111.78 40.5239 111.564 40.4719 111.372 40.3439C111.188 40.2239 111.076 40.0479 111.036 39.8159C111.004 39.5839 111.06 39.3679 111.204 39.1679C111.348 38.9519 111.508 38.6839 111.684 38.3639C111.868 38.0439 112.048 37.7039 112.224 37.3439C112.408 36.9759 112.572 36.6199 112.716 36.2759C112.868 35.9239 112.984 35.6199 113.064 35.3639C113.144 35.1159 113.288 34.9479 113.496 34.8599C113.712 34.7639 113.936 34.7519 114.168 34.8239C114.4 34.8879 114.56 35.0239 114.648 35.2319C114.736 35.4319 114.744 35.6439 114.672 35.8679C114.616 36.0199 114.556 36.1879 114.492 36.3719C114.428 36.5559 114.352 36.7439 114.264 36.9359V45.2159C114.264 45.4639 114.184 45.6599 114.024 45.8039C113.864 45.9559 113.672 46.0319 113.448 46.0319ZM117.876 44.2919H119.244C119.716 44.2919 120.056 44.2039 120.264 44.0279C120.472 43.8519 120.576 43.5399 120.576 43.0919V39.3239C120.496 39.3719 120.388 39.3959 120.252 39.3959H119.292V40.1759C119.66 40.2399 119.908 40.3959 120.036 40.6439C120.172 40.8919 120.24 41.2959 120.24 41.8559C120.24 42.3279 120.192 42.6919 120.096 42.9479C120.008 43.1959 119.84 43.3679 119.592 43.4639C119.352 43.5599 119.008 43.6079 118.56 43.6079C118.12 43.6079 117.776 43.5599 117.528 43.4639C117.288 43.3679 117.12 43.1959 117.024 42.9479C116.928 42.6919 116.88 42.3279 116.88 41.8559C116.88 41.2959 116.948 40.8919 117.084 40.6439C117.22 40.3959 117.472 40.2399 117.84 40.1759V39.3959H116.832C116.736 39.3959 116.64 39.3759 116.544 39.3359V43.0919C116.544 43.5399 116.648 43.8519 116.856 44.0279C117.064 44.2039 117.404 44.2919 117.876 44.2919ZM120.576 38.1719V37.8719C120.576 37.4479 120.476 37.1439 120.276 36.9599C120.084 36.7679 119.74 36.6719 119.244 36.6719H117.876C117.38 36.6719 117.032 36.7679 116.832 36.9599C116.64 37.1439 116.544 37.4479 116.544 37.8719V38.1599C116.632 38.1119 116.724 38.0879 116.82 38.0879H117.84V37.6199C117.84 37.3879 117.908 37.2079 118.044 37.0799C118.188 36.9519 118.36 36.8879 118.56 36.8879C118.768 36.8879 118.94 36.9519 119.076 37.0799C119.22 37.2079 119.292 37.3879 119.292 37.6199V38.0879H120.252C120.372 38.0879 120.48 38.1159 120.576 38.1719ZM118.56 42.3359C118.712 42.3359 118.812 42.3079 118.86 42.2519C118.916 42.1879 118.944 42.0559 118.944 41.8559C118.944 41.6559 118.916 41.5319 118.86 41.4839C118.812 41.4279 118.712 41.3999 118.56 41.3999C118.416 41.3999 118.316 41.4279 118.26 41.4839C118.204 41.5319 118.176 41.6559 118.176 41.8559C118.176 42.0559 118.204 42.1879 118.26 42.2519C118.316 42.3079 118.416 42.3359 118.56 42.3359Z" fill="#284877"/>
<path d="M106.404 45.096C106.164 45.152 105.936 45.12 105.72 45C105.504 44.872 105.364 44.688 105.3 44.448C105.244 44.208 105.28 43.984 105.408 43.776C105.536 43.56 105.716 43.424 105.948 43.368C106.82 43.152 107.436 42.796 107.796 42.3C108.164 41.804 108.348 41.176 108.348 40.416C108.348 39.736 108.132 39.164 107.7 38.7C107.276 38.236 106.672 37.952 105.888 37.848C105.728 39.216 105.468 40.388 105.108 41.364C104.756 42.34 104.34 43.088 103.86 43.608C103.388 44.128 102.892 44.388 102.372 44.388C101.916 44.388 101.5 44.26 101.124 44.004C100.748 43.748 100.448 43.38 100.224 42.9C99.9999 42.412 99.8879 41.82 99.8879 41.124C99.8879 40.452 100.016 39.82 100.272 39.228C100.528 38.628 100.892 38.1 101.364 37.644C101.836 37.18 102.396 36.82 103.044 36.564C103.7 36.3 104.424 36.168 105.216 36.168C105.928 36.168 106.58 36.272 107.172 36.48C107.772 36.68 108.288 36.968 108.72 37.344C109.16 37.72 109.5 38.168 109.74 38.688C109.98 39.208 110.1 39.784 110.1 40.416C110.1 41.624 109.796 42.632 109.188 43.44C108.58 44.24 107.652 44.792 106.404 45.096ZM102.384 42.564C102.52 42.564 102.704 42.376 102.936 42C103.168 41.616 103.4 41.076 103.632 40.38C103.864 39.684 104.04 38.864 104.16 37.92C103.608 38.056 103.144 38.288 102.768 38.616C102.392 38.936 102.108 39.316 101.916 39.756C101.732 40.188 101.636 40.636 101.628 41.1C101.62 41.612 101.684 41.984 101.82 42.216C101.964 42.448 102.152 42.564 102.384 42.564Z" fill="#284877"/>
<path d="M87.6361 45.9601C87.4121 45.8561 87.2761 45.6961 87.2281 45.4801C87.1801 45.2641 87.2081 45.0561 87.3121 44.8561C87.5281 44.4481 87.7081 44.0041 87.8521 43.5241C87.9961 43.0361 88.1041 42.4801 88.1761 41.8561C88.2481 41.2241 88.2841 40.4881 88.2841 39.6481V38.3161C88.2841 37.4361 88.4881 36.8081 88.8961 36.4321C89.3041 36.0561 89.9561 35.8681 90.8521 35.8681H92.3041V35.5441C92.3041 35.2561 92.4001 35.0321 92.5921 34.8721C92.7841 34.7121 93.0121 34.6321 93.2761 34.6321C93.5401 34.6321 93.7681 34.7121 93.9601 34.8721C94.1521 35.0321 94.2481 35.2561 94.2481 35.5441V35.8681H97.8961C98.1201 35.8681 98.2961 35.9401 98.4241 36.0841C98.5521 36.2201 98.6161 36.3881 98.6161 36.5881C98.6161 36.7881 98.5521 36.9601 98.4241 37.1041C98.2961 37.2401 98.1201 37.3081 97.8961 37.3081H96.2641V37.7761H97.6561C97.8481 37.7761 98.0081 37.8441 98.1361 37.9801C98.2721 38.1161 98.3401 38.2761 98.3401 38.4601C98.3401 38.6521 98.2721 38.8161 98.1361 38.9521C98.0081 39.0801 97.8481 39.1441 97.6561 39.1441H96.2641V39.3001C96.2641 39.7001 96.1881 40.0201 96.0361 40.2601C95.8921 40.4921 95.6401 40.6601 95.2801 40.7641C94.9201 40.8601 94.4201 40.9081 93.7801 40.9081C93.1401 40.9081 92.6401 40.8601 92.2801 40.7641C91.9201 40.6601 91.6641 40.4921 91.5121 40.2601C91.3681 40.0201 91.2961 39.7001 91.2961 39.3001V39.1441H89.9161V39.6841C89.9161 40.8921 89.8321 41.9881 89.6641 42.9721C89.4961 43.9561 89.2161 44.8281 88.8241 45.5881C88.7201 45.8041 88.5521 45.9441 88.3201 46.0081C88.0881 46.0801 87.8601 46.0641 87.6361 45.9601ZM97.2601 46.0801C96.6281 46.0161 96.0321 45.9001 95.4721 45.7321C94.9121 45.5721 94.3961 45.3681 93.9241 45.1201C93.4441 45.3441 92.9441 45.5321 92.4241 45.6841C91.9121 45.8441 91.3841 45.9721 90.8401 46.0681C90.1921 46.1801 89.8001 45.9881 89.6641 45.4921C89.5921 45.2361 89.6241 45.0121 89.7601 44.8201C89.9041 44.6201 90.1201 44.4961 90.4081 44.4481C90.7681 44.3921 91.1121 44.3281 91.4401 44.2561C91.7681 44.1761 92.0801 44.0881 92.3761 43.9921C92.1601 43.7681 91.9641 43.5361 91.7881 43.2961C91.6201 43.0481 91.4761 42.7881 91.3561 42.5161H90.8401C90.6321 42.5161 90.4681 42.4521 90.3481 42.3241C90.2361 42.1881 90.1801 42.0281 90.1801 41.8441C90.1801 41.6601 90.2361 41.5041 90.3481 41.3761C90.4681 41.2481 90.6321 41.1841 90.8401 41.1841H95.2321C95.6321 41.1841 95.9601 41.2561 96.2161 41.4001C96.4801 41.5441 96.6641 41.7321 96.7681 41.9641C96.8721 42.1961 96.8881 42.4481 96.8161 42.7201C96.7521 42.9921 96.5921 43.2521 96.3361 43.5001C96.2241 43.6041 96.1081 43.7081 95.9881 43.8121C95.8761 43.9081 95.7561 44.0041 95.6281 44.1001C96.2121 44.2761 96.8561 44.3961 97.5601 44.4601C97.8561 44.4841 98.0801 44.5801 98.2321 44.7481C98.3841 44.9161 98.4401 45.1321 98.4001 45.3961C98.3521 45.6841 98.2241 45.8761 98.0161 45.9721C97.8081 46.0761 97.5561 46.1121 97.2601 46.0801ZM93.9721 43.2961C94.0841 43.2321 94.1921 43.1681 94.2961 43.1041C94.4001 43.0321 94.5041 42.9601 94.6081 42.8881C94.7601 42.7761 94.8241 42.6881 94.8001 42.6241C94.7761 42.5521 94.6721 42.5161 94.4881 42.5161H93.1441C93.2561 42.6601 93.3801 42.8001 93.5161 42.9361C93.6601 43.0641 93.8121 43.1841 93.9721 43.2961ZM93.0241 37.7761H94.5361V37.3081H93.0241V37.7761ZM93.7801 39.6241C94.0921 39.6241 94.2921 39.5961 94.3801 39.5401C94.4761 39.4761 94.5281 39.3441 94.5361 39.1441H93.0241C93.0321 39.3441 93.0841 39.4761 93.1801 39.5401C93.2761 39.5961 93.4761 39.6241 93.7801 39.6241ZM90.0001 37.7761H91.2961V37.3081H90.9481C90.4521 37.3081 90.1361 37.4641 90.0001 37.7761Z" fill="#284877"/>
<path d="M82.02 45.06C81.508 45.06 81.252 44.796 81.252 44.268V38.292L80.364 38.772C79.892 39.02 79.54 38.916 79.308 38.46C79.076 38.004 79.2 37.66 79.68 37.428L81.084 36.756C81.26 36.668 81.42 36.612 81.564 36.588C81.716 36.556 81.884 36.54 82.068 36.54C82.548 36.54 82.788 36.804 82.788 37.332V44.268C82.788 44.796 82.532 45.06 82.02 45.06Z" fill="#284877"/>
<path d="M65.688 45.396C65.448 45.436 65.224 45.384 65.016 45.24C64.816 45.104 64.696 44.916 64.656 44.676C64.576 44.26 64.516 43.78 64.476 43.236C64.444 42.692 64.424 42.12 64.416 41.52C64.416 40.912 64.432 40.3 64.464 39.684C64.496 39.068 64.544 38.48 64.608 37.92C64.68 37.36 64.764 36.856 64.86 36.408C64.916 36.16 65.048 35.972 65.256 35.844C65.464 35.708 65.688 35.668 65.928 35.724C66.168 35.78 66.356 35.912 66.492 36.12C66.628 36.32 66.668 36.544 66.612 36.792C66.492 37.352 66.396 37.964 66.324 38.628C66.252 39.284 66.204 39.952 66.18 40.632C66.164 41.312 66.172 41.972 66.204 42.612C66.244 43.252 66.312 43.832 66.408 44.352C66.448 44.6 66.4 44.824 66.264 45.024C66.128 45.224 65.936 45.348 65.688 45.396ZM70.584 44.784C69.536 44.784 68.748 44.604 68.22 44.244C67.692 43.876 67.356 43.292 67.212 42.492C67.172 42.244 67.22 42.02 67.356 41.82C67.5 41.612 67.696 41.488 67.944 41.448C68.184 41.408 68.404 41.46 68.604 41.604C68.804 41.74 68.928 41.932 68.976 42.18C69.032 42.452 69.176 42.66 69.408 42.804C69.64 42.948 70.056 43.02 70.656 43.02C70.96 43.02 71.28 42.996 71.616 42.948C71.952 42.9 72.332 42.832 72.756 42.744C72.996 42.688 73.216 42.728 73.416 42.864C73.624 43 73.756 43.192 73.812 43.44C73.86 43.68 73.816 43.9 73.68 44.1C73.544 44.3 73.356 44.432 73.116 44.496C72.668 44.6 72.224 44.676 71.784 44.724C71.352 44.764 70.952 44.784 70.584 44.784ZM68.472 38.784C68.232 38.824 68.008 38.776 67.8 38.64C67.6 38.504 67.476 38.316 67.428 38.076C67.38 37.836 67.424 37.612 67.56 37.404C67.696 37.196 67.884 37.072 68.124 37.032C68.612 36.936 69.132 36.872 69.684 36.84C70.236 36.808 70.78 36.804 71.316 36.828C71.852 36.852 72.336 36.9 72.768 36.972C73.008 37.004 73.196 37.124 73.332 37.332C73.468 37.54 73.516 37.764 73.476 38.004C73.436 38.26 73.312 38.456 73.104 38.592C72.904 38.72 72.684 38.764 72.444 38.724C71.828 38.62 71.172 38.572 70.476 38.58C69.78 38.588 69.112 38.656 68.472 38.784Z" fill="#284877"/>
<path d="M58.116 45.8161C57.036 45.8161 56.132 45.7441 55.404 45.6001C54.676 45.4561 54.1 45.2081 53.676 44.8561C53.58 44.9281 53.46 45.0081 53.316 45.0961C53.18 45.1921 53.052 45.2801 52.932 45.3601C52.812 45.4481 52.72 45.5121 52.656 45.5521C52.456 45.6801 52.232 45.7201 51.984 45.6721C51.744 45.6241 51.564 45.4921 51.444 45.2761C51.332 45.0681 51.304 44.8521 51.36 44.6281C51.424 44.4041 51.564 44.2401 51.78 44.1361C51.884 44.0881 52.024 44.0241 52.2 43.9441C52.376 43.8561 52.54 43.7761 52.692 43.7041V41.2081C52.692 41.0321 52.668 40.912 52.62 40.848C52.572 40.784 52.46 40.752 52.284 40.752H52.056C51.824 40.752 51.64 40.6801 51.504 40.5361C51.368 40.3841 51.3 40.204 51.3 39.996C51.3 39.788 51.368 39.608 51.504 39.456C51.64 39.304 51.824 39.228 52.056 39.228H52.98C53.86 39.228 54.3 39.668 54.3 40.548V42.456C54.492 42.008 54.64 41.516 54.744 40.98C54.848 40.436 54.9 39.756 54.9 38.9401V37.044C54.9 36.3561 55.052 35.88 55.356 35.616C55.66 35.344 56.164 35.208 56.868 35.208H60.048C60.76 35.208 61.268 35.344 61.572 35.616C61.876 35.88 62.028 36.3561 62.028 37.044V42.4081C62.028 42.9841 61.888 43.4041 61.608 43.6681C61.328 43.9241 60.876 44.0521 60.252 44.0521C60.028 44.0521 59.84 43.9841 59.688 43.8481C59.544 43.7041 59.46 43.5201 59.436 43.2961C59.436 43.2481 59.436 43.2041 59.436 43.1641C59.444 43.1161 59.452 43.072 59.46 43.032C59.228 43.144 58.864 43.2001 58.368 43.2001C57.928 43.2001 57.584 43.156 57.336 43.068C57.088 42.972 56.912 42.8161 56.808 42.6001C56.712 42.3841 56.664 42.092 56.664 41.7241C56.664 41.348 56.712 41.056 56.808 40.848C56.912 40.632 57.088 40.4801 57.336 40.3921C57.584 40.2961 57.928 40.248 58.368 40.248C58.808 40.248 59.152 40.2961 59.4 40.3921C59.648 40.4801 59.82 40.632 59.916 40.848C60.02 41.056 60.072 41.348 60.072 41.7241C60.072 42.044 60.036 42.308 59.964 42.516C59.988 42.508 60.016 42.504 60.048 42.504C60.08 42.496 60.112 42.488 60.144 42.48C60.304 42.464 60.408 42.424 60.456 42.36C60.504 42.288 60.528 42.192 60.528 42.072V37.3921C60.528 37.048 60.476 36.824 60.372 36.72C60.268 36.616 60.044 36.5641 59.7 36.5641H59.16V37.104H59.664C59.856 37.104 60.004 37.164 60.108 37.284C60.212 37.396 60.264 37.536 60.264 37.704C60.264 37.864 60.212 38.004 60.108 38.124C60.004 38.244 59.856 38.304 59.664 38.304H59.16V38.7H59.844C60.036 38.7 60.184 38.76 60.288 38.88C60.392 38.992 60.444 39.132 60.444 39.3C60.444 39.46 60.392 39.6 60.288 39.72C60.184 39.84 60.036 39.9 59.844 39.9H57.108C56.916 39.9 56.768 39.84 56.664 39.72C56.56 39.6 56.508 39.46 56.508 39.3C56.508 39.132 56.56 38.992 56.664 38.88C56.768 38.76 56.916 38.7 57.108 38.7H57.72V38.304H57.3C57.108 38.304 56.96 38.244 56.856 38.124C56.752 38.004 56.7 37.864 56.7 37.704C56.7 37.536 56.752 37.396 56.856 37.284C56.96 37.164 57.108 37.104 57.3 37.104H57.72V36.5641H57.264C56.92 36.5641 56.692 36.616 56.58 36.72C56.476 36.824 56.424 37.048 56.424 37.3921V38.9401C56.424 39.556 56.396 40.108 56.34 40.596C56.292 41.084 56.212 41.532 56.1 41.94C55.996 42.348 55.856 42.7481 55.68 43.1401C55.592 43.3401 55.444 43.48 55.236 43.5601C55.036 43.632 54.832 43.6281 54.624 43.5481C54.552 43.5241 54.488 43.4921 54.432 43.4521C54.384 43.4041 54.34 43.3561 54.3 43.3081V43.5121C54.476 43.6961 54.72 43.8481 55.032 43.9681C55.344 44.0801 55.748 44.1641 56.244 44.2201C56.748 44.2761 57.372 44.3041 58.116 44.3041C58.54 44.3041 58.968 44.3001 59.4 44.2921C59.832 44.2761 60.24 44.2601 60.624 44.2441C61.016 44.2281 61.356 44.2081 61.644 44.1841C61.932 44.1681 62.168 44.2321 62.352 44.3761C62.544 44.5201 62.64 44.7161 62.64 44.9641C62.64 45.2201 62.56 45.4241 62.4 45.5761C62.248 45.7361 62.004 45.8161 61.668 45.8161H58.116ZM54.288 37.608C54.12 37.76 53.924 37.84 53.7 37.848C53.476 37.856 53.288 37.772 53.136 37.596C53 37.436 52.816 37.244 52.584 37.02C52.36 36.796 52.168 36.612 52.008 36.468C51.856 36.332 51.78 36.156 51.78 35.94C51.788 35.724 51.868 35.54 52.02 35.388C52.172 35.228 52.352 35.14 52.56 35.124C52.776 35.1 52.972 35.164 53.148 35.316C53.34 35.476 53.552 35.668 53.784 35.892C54.024 36.108 54.208 36.284 54.336 36.42C54.504 36.596 54.584 36.796 54.576 37.02C54.568 37.244 54.472 37.44 54.288 37.608ZM58.368 42.0001C58.528 42.0001 58.632 41.988 58.68 41.964C58.728 41.932 58.752 41.8521 58.752 41.7241C58.752 41.588 58.728 41.5081 58.68 41.4841C58.632 41.4521 58.528 41.436 58.368 41.436C58.216 41.436 58.112 41.4521 58.056 41.4841C58.008 41.5081 57.984 41.588 57.984 41.7241C57.984 41.8521 58.008 41.932 58.056 41.964C58.112 41.988 58.216 42.0001 58.368 42.0001Z" fill="#284877"/>
</svg>
