<svg width="61" height="61" viewBox="0 0 61 61" fill="none" xmlns="http://www.w3.org/2000/svg">
<circle cx="30.5" cy="30.5" r="29" fill="white" stroke="#89C3EB" stroke-width="3"/>
<path d="M23.5544 38.5496C23.9632 38.2752 24.3728 38.0008 24.7816 37.7256C24.944 38.1032 25.2072 38.1368 25.5496 37.968C26.0568 37.7184 26.5704 37.4816 27.0808 37.24C27.0368 37.3592 27.004 37.4848 26.9472 37.5968C26.6112 38.2568 26.2592 38.9112 26.2848 39.6856C25.8216 39.8784 25.7552 40.1232 26.076 40.4968C27.2864 41.9064 28.7728 42.932 30.5296 43.5152C33.2584 44.4216 35.9392 44.3352 38.5064 42.9248C39.38 42.4448 40.2584 41.9624 40.9392 41.2136C41.2568 40.8648 41.5712 40.4888 41.4952 39.9544C41.656 39.7296 41.8392 39.5168 41.972 39.276C42.232 38.8064 42.4632 38.3208 42.7064 37.8424C43.2264 38.2984 43.316 38.308 43.6296 37.9416C43.7416 38.0008 43.8528 38.06 43.9648 38.1192C44.2176 38.764 44.4696 39.408 44.7264 40.0632C44.3288 40.2472 43.8352 40.468 43.348 40.7032C43.1312 40.808 43.0264 40.9768 43.152 41.2232C43.2664 41.4472 43.4328 41.5296 43.6736 41.424C43.7704 41.3816 43.8704 41.3456 43.9656 41.2984C45.2208 40.68 46.5376 40.3264 47.9472 40.3376C48.1304 40.3392 48.3152 40.228 48.4992 40.1696C48.5888 40.5144 48.6792 40.8584 48.7688 41.2032C48.712 41.396 48.624 41.5872 48.608 41.7832C48.5928 41.964 48.6432 42.1528 48.684 42.3344C48.7472 42.612 48.6688 42.7208 48.3664 42.7808C46.7288 43.1056 45.096 43.4528 43.4664 43.8168C43.3152 43.8504 43.0808 44.0792 43.1 44.176C43.132 44.3392 43.3376 44.4672 43.4648 44.6136C43.552 44.7136 43.6952 44.816 43.704 44.9256C43.7792 45.8792 43.8824 46.8344 43.876 47.7888C43.8608 50.192 43.496 52.5912 43.7968 54.9992C34.1984 54.9992 24.6008 54.9992 15.0024 54.9992C15.5768 53.5592 16.0776 52.0848 16.7432 50.688C17.7496 48.576 18.7984 46.476 19.9656 44.4504C21.0128 42.6336 22.2504 40.9256 23.3888 39.1608C23.4976 38.9912 23.5016 38.7544 23.5544 38.548V38.5496Z" fill="#D0D2D3"/>
<path d="M24.2199 21.5752C23.8295 20.104 23.7575 18.6104 23.9583 17.1088C24.1999 15.3024 24.8087 13.6312 25.8855 12.1456C27.0423 10.5488 28.5719 9.53761 30.5175 9.14001C32.6103 8.71281 34.6951 8.64881 36.7375 9.32641C39.6239 10.2832 41.7271 12.132 42.7655 15.0328C43.4079 16.8288 43.3503 18.684 42.9183 20.5304C42.8535 20.5328 42.7879 20.5432 42.7247 20.5352C40.9631 20.3128 39.3383 19.6808 37.8063 18.816C35.6903 17.6224 33.8503 16.1448 32.9535 13.772C32.8527 13.5064 32.7239 13.3184 32.4055 13.3928C32.0815 13.4688 32.1119 13.7216 32.1303 13.9656C32.0607 13.8784 31.9911 13.7904 31.8671 13.6352C31.9255 14.5504 32.1799 15.3208 32.5831 16.0384C33.4103 17.5112 34.6583 18.5608 36.0647 19.448C36.2759 19.5816 36.4623 19.7544 36.6599 19.9088C35.1063 19.6512 33.7951 18.9104 32.6615 17.8488C31.5119 16.772 30.7511 15.4552 30.3831 13.9192C30.3199 13.656 30.2127 13.4672 29.8959 13.5448C29.5719 13.624 29.5295 13.8504 29.6031 14.1288C29.6879 14.4464 29.7767 14.7632 29.8639 15.08C29.6423 15.1544 29.4023 15.1976 29.2007 15.3088C28.0791 15.9288 27.3567 16.9392 26.7295 18.0024C26.1455 18.9936 25.6567 20.0416 25.1439 21.0736C25.0335 21.2952 24.9975 21.5544 24.9271 21.796C24.6911 21.7224 24.4559 21.6496 24.2199 21.576V21.5752Z" fill="#88C2EA"/>
<path d="M52.2007 55.0024C52.3639 55.7096 52.4415 56.4136 52.1303 57.1056C52.0599 57.2632 52.0047 57.4272 51.9423 57.588C51.6127 57.4088 51.4287 57.544 51.2271 57.8336C50.9655 58.2096 50.6615 58.5712 50.3151 58.8704C49.3343 59.7184 47.9967 59.816 46.9135 59.176C45.9535 58.6088 45.4487 57.7048 45.0815 56.7048C44.5119 55.1536 44.4503 53.5328 44.4911 51.9072C44.5535 49.428 44.9111 46.9504 44.4519 44.4328C45.9255 44.1224 47.3711 43.8176 48.8495 43.5056C48.8791 43.6472 48.9055 43.7608 48.9255 43.8752C49.5463 47.4824 50.4311 51.024 51.5631 54.5048C51.6695 54.8312 51.8063 55.0688 52.2007 55.0032V55.0024Z" fill="#D0D2D3"/>
<path d="M52.2008 55.0025C51.8064 55.0689 51.6688 54.8305 51.5632 54.5041C50.4312 51.0233 49.5464 47.4817 48.9256 43.8745C48.9056 43.7601 48.8792 43.6465 48.8496 43.5049C47.3712 43.8169 45.9256 44.1217 44.452 44.4321C44.9112 46.9497 44.5536 49.4281 44.4912 51.9065C44.4504 53.5321 44.5128 55.1529 45.0816 56.7041C45.4488 57.7041 45.9536 58.6081 46.9136 59.1753C47.9968 59.8153 49.3344 59.7177 50.3152 58.8697C50.6608 58.5705 50.9656 58.2089 51.2272 57.8329C51.4288 57.5433 51.6128 57.4081 51.9424 57.5873C52.1032 57.8441 52.0512 58.0665 51.8888 58.3177C50.924 59.8057 49.5872 60.5833 47.8008 60.3473C46.4056 60.1625 45.4936 59.2409 44.8168 58.0681C44.268 57.1169 44.0048 56.0673 43.796 55.0009C43.4952 52.5937 43.86 50.1937 43.8752 47.7905C43.8816 46.8361 43.7784 45.8809 43.7032 44.9273C43.6944 44.8177 43.5512 44.7153 43.464 44.6153C43.336 44.4681 43.1304 44.3409 43.0992 44.1777C43.0808 44.0809 43.3152 43.8521 43.4656 43.8185C45.0944 43.4545 46.728 43.1065 48.3656 42.7825C48.6672 42.7225 48.7464 42.6137 48.6832 42.3361C48.6416 42.1553 48.592 41.9657 48.6072 41.7849C48.624 41.5881 48.7112 41.3977 48.768 41.2049C49.2168 41.1105 49.3088 41.1689 49.388 41.6073C49.4144 41.7513 49.4336 41.8961 49.4576 42.0401C49.4808 42.1833 49.5064 42.3265 49.536 42.5017C49.8304 42.4929 50.1864 42.4969 50.1688 42.8857C50.1608 43.0665 49.9152 43.2369 49.7776 43.4121C49.7312 43.3945 49.6848 43.3777 49.6376 43.3601C49.9152 44.7361 50.136 46.1265 50.484 47.4841C51.0768 49.7969 51.7456 52.0905 52.392 54.3889C52.4664 54.6545 52.448 54.8537 52.2008 55.0009V55.0025Z" fill="#282425"/>
<path d="M24.2201 21.5753C24.4561 21.6489 24.6913 21.7217 24.9273 21.7953C25.0345 21.8721 25.1913 21.9265 25.2361 22.0297C25.3105 22.2025 25.3905 22.4393 25.3273 22.5897C25.2369 22.8049 25.0025 22.8265 24.7825 22.6857C24.1377 22.2729 23.4777 22.2545 22.8513 22.6993C22.3321 23.0681 22.1801 23.6513 22.1457 24.2441C22.0945 25.1225 22.42 26.3353 23.5984 26.5473C23.8624 26.5945 24.156 26.5617 24.4193 26.4977C24.6801 26.4345 24.8705 26.2777 24.8649 25.9345C24.8593 25.6065 24.9513 25.2769 24.9969 24.9473C25.0329 24.6857 25.1585 24.5041 25.4417 24.5657C25.7057 24.6225 25.8208 24.8057 25.7936 25.0969C25.7296 25.7977 25.6072 26.5057 25.6536 27.2009C25.8456 30.0673 26.9913 32.4641 29.4961 33.9849C32.0233 35.5193 34.6624 35.4713 37.284 34.1289C37.3664 34.0865 37.4441 34.0337 37.5265 33.9921C37.7433 33.8817 37.9521 33.8273 38.1073 34.0905C38.2625 34.3529 38.1881 34.5609 37.9297 34.6841C37.3097 34.9793 36.7049 35.3377 36.0521 35.5289C33.8217 36.1833 31.64 36.0217 29.5489 34.9609C29.5145 34.9433 29.4737 34.9393 29.4161 34.9241C29.3009 35.4849 29.1809 36.0377 29.0769 36.5945C29.0257 36.8697 28.9041 37.0593 28.6041 37.0001C28.3193 36.9441 28.2273 36.7297 28.2825 36.4537C28.4025 35.8569 28.5337 35.2609 28.6393 34.6617C28.6569 34.5617 28.6056 34.3977 28.5289 34.3393C26.2136 32.5937 25.0993 30.2153 24.8409 27.3817C24.8377 27.3425 24.8305 27.3033 24.8209 27.2321C24.0713 27.4969 23.3448 27.4657 22.6592 27.0561C22.0192 26.6737 21.6593 26.0801 21.4585 25.3833C21.1089 24.1729 21.3969 22.2281 23.1521 21.6377C22.9793 21.0193 22.7625 20.4089 22.6417 19.7801C22.2849 17.9265 22.4825 16.1361 23.3569 14.4425C23.4777 14.2081 23.6449 14.0313 23.9249 14.1553C24.2217 14.2865 24.1961 14.5417 24.1001 14.7985C24.0905 14.8233 24.0752 14.8457 24.0632 14.8697C22.9904 16.9937 23.0705 19.1417 23.9425 21.3001C23.9873 21.4113 24.124 21.4849 24.2184 21.5769L24.2201 21.5753Z" fill="#262223"/>
<path d="M32.1287 13.9664C32.1103 13.7224 32.0799 13.4696 32.4039 13.3936C32.7223 13.3192 32.8511 13.5072 32.9519 13.7728C33.8487 16.1456 35.6887 17.6232 37.8047 18.8168C39.3375 19.6816 40.9615 20.3136 42.7231 20.536C42.7863 20.544 42.8519 20.5328 42.9167 20.5312C43.1791 20.5568 43.4423 20.5784 43.7039 20.6096C43.9703 20.6408 44.1623 20.7608 44.1479 21.0624C44.1335 21.36 43.9447 21.476 43.6663 21.4744C40.9599 21.46 38.2647 21.3376 35.6567 20.5168C32.9031 19.6504 31.0039 17.8544 29.9287 15.1808C29.9143 15.1448 29.8847 15.1144 29.8623 15.0808C29.7751 14.764 29.6855 14.4472 29.6015 14.1296C29.5271 13.8512 29.5695 13.6256 29.8943 13.5456C30.2111 13.468 30.3183 13.6568 30.3815 13.92C30.7495 15.456 31.5103 16.7728 32.6599 17.8496C33.7927 18.9112 35.1047 19.652 36.6583 19.9096H36.6647C36.7287 19.9272 36.7927 19.9456 36.8559 19.9632C37.5495 20.1128 38.2431 20.2632 38.9359 20.4128C38.3183 19.996 37.6759 19.6856 37.0623 19.3256C35.4583 18.3848 34.0119 17.2544 33.0079 15.6552C32.6719 15.12 32.4191 14.5312 32.1287 13.9672V13.9664Z" fill="#272425"/>
<path d="M31.2607 7.56793C31.0359 6.96153 30.7455 6.36952 30.6007 5.74472C30.3807 4.79272 30.7959 4.04552 31.6047 3.54952C32.5143 2.99112 33.5151 2.74793 34.5799 2.93353C35.7031 3.12953 36.6247 4.25032 36.6839 5.43912C36.7207 6.18232 36.6543 6.89993 36.1647 7.51113C35.6247 7.45113 35.0823 7.32793 34.5447 7.34553C33.4487 7.37993 32.3543 7.49032 31.2599 7.56872L31.2607 7.56793Z" fill="#88C2EA"/>
<path d="M31.2607 7.56802C32.3559 7.48882 33.4495 7.37922 34.5455 7.34482C35.0831 7.32802 35.6255 7.45122 36.1655 7.51042C37.0879 7.83442 38.0511 8.07522 38.9255 8.49842C40.9535 9.47842 42.4783 11.0208 43.5575 12.996C44.4159 14.5672 44.8415 16.244 44.7455 18.0408C44.7311 18.3056 44.7039 18.5712 44.6639 18.8344C44.6303 19.0576 44.5415 19.2712 44.2639 19.232C44.0159 19.1968 43.8551 19.0328 43.8695 18.764C43.8903 18.3792 43.9599 17.9944 43.9535 17.6104C43.9127 14.8656 42.7983 12.5936 40.7943 10.7688C38.6583 8.82322 36.1015 7.96482 33.2263 8.14242C30.8767 8.28722 28.6887 8.93762 26.8559 10.5024C26.2159 11.0488 25.6855 11.6888 25.3591 12.4784C25.3239 12.564 25.2847 12.6504 25.2335 12.7264C25.0807 12.9544 24.8719 13.0384 24.6199 12.9088C24.3671 12.7776 24.4199 12.5712 24.5151 12.3608C25.1943 10.8536 26.3207 9.77282 27.7295 8.94882C28.8351 8.30162 30.0287 7.89282 31.2583 7.56802H31.2607Z" fill="#252122"/>
<path d="M43.6289 37.9441C43.3153 38.3105 43.2257 38.3009 42.7057 37.8449C42.5537 37.6625 42.3849 37.4913 42.2521 37.2953C41.7433 36.5489 41.8273 35.8585 42.5881 35.3769C43.3305 34.9065 44.1409 34.5449 44.9769 34.1057C44.9297 33.5737 44.8489 32.9305 44.8217 32.2857C44.7857 31.4425 44.8689 30.6073 45.3465 29.8785C45.4921 29.6569 45.7097 29.4537 45.9401 29.3225C46.3785 29.0729 46.7921 29.2281 46.9657 29.7009C47.0697 29.9833 47.1185 30.2945 47.1409 30.5961C47.2017 31.4049 47.2409 32.2161 47.2769 33.0265C47.2881 33.2865 47.3297 33.6113 46.9425 33.6305C46.5841 33.6481 46.4817 33.3777 46.4633 33.0705C46.4137 32.2601 46.3681 31.4505 46.3177 30.6401C46.3081 30.4865 46.2841 30.3329 46.2665 30.1737C45.6265 30.3977 45.4689 32.2377 45.8273 34.0649C46.2001 34.1537 46.5897 34.1953 46.9369 34.3401C48.0457 34.8009 48.5577 35.7073 48.5409 36.8577C48.5313 37.5345 48.3281 38.2105 48.1953 38.8833C48.1393 39.1673 47.9513 39.3441 47.6481 39.2585C47.3177 39.1649 47.3721 38.9017 47.4177 38.6369C47.5249 38.0129 47.6961 37.3841 47.6881 36.7593C47.6721 35.5017 46.8425 34.8089 45.5977 34.9441C44.6369 35.0489 43.8137 35.5185 43.0281 36.0417C42.7001 36.2601 42.6881 36.6329 42.9505 36.9449C43.0865 37.1065 43.2777 37.2257 43.3969 37.3969C43.5073 37.5561 43.5545 37.7593 43.6289 37.9433V37.9441Z" fill="#252122"/>
<path d="M23.5543 38.5497C23.5015 38.7553 23.4983 38.9929 23.3887 39.1625C22.2503 40.9281 21.0127 42.6353 19.9655 44.4521C18.7975 46.4777 17.7495 48.5777 16.7431 50.6897C16.0775 52.0857 15.5767 53.5609 15.0023 55.0009C14.8783 55.2721 14.6951 55.4481 14.3815 55.3089C14.0511 55.1625 14.1583 54.9049 14.2583 54.6649C15.1247 52.5873 15.9095 50.4697 16.8783 48.4409C18.4151 45.2233 20.2383 42.1625 22.3303 39.2681C22.4543 39.0969 22.5695 38.9193 22.6967 38.7497C23.0007 38.3449 23.1039 38.3225 23.5543 38.5497Z" fill="#282425"/>
<path d="M41.4953 39.9561C41.5705 40.4905 41.2569 40.8665 40.9393 41.2153C40.2585 41.9633 39.3801 42.4465 38.5065 42.9265C35.9393 44.3361 33.2585 44.4233 30.5297 43.5169C28.7737 42.9337 27.2865 41.9081 26.0761 40.4985C25.7553 40.1249 25.8217 39.8801 26.2849 39.6873C26.4513 39.8129 26.6417 39.9161 26.7809 40.0665C29.0057 42.4649 31.7425 43.5337 35.0017 43.2225C36.3025 43.0985 37.4937 42.6329 38.6001 41.9473C39.0505 41.6681 39.5273 41.4121 39.9225 41.0673C40.2409 40.7897 40.4897 40.4137 40.7073 40.0449C40.9417 39.6489 41.1465 39.6017 41.4953 39.9577V39.9561Z" fill="#282425"/>
<path d="M42.3793 27.8665C42.1513 29.4705 41.6121 30.9369 40.6913 32.2545C40.6537 32.3089 40.6241 32.3689 40.5849 32.4217C40.4137 32.6553 40.1865 32.6881 39.9585 32.5401C39.7297 32.3905 39.7945 32.1841 39.9065 31.9793C40.2641 31.3289 40.6625 30.6961 40.9585 30.0193C41.5329 28.7073 41.7209 27.3209 41.5913 25.8921C41.5657 25.6081 41.4217 25.2449 41.8897 25.1641C42.1881 25.1121 42.3561 25.3377 42.4009 25.8169C42.4177 26.0025 42.4337 26.1881 42.4401 26.3745C42.4649 27.0521 42.7937 27.3425 43.4881 27.2921C44.2521 27.2361 44.7313 26.7993 44.9977 26.1169C45.3289 25.2681 45.3553 24.4233 44.7769 23.6617C44.3409 23.0881 43.5657 22.9313 42.9097 23.2289C42.8249 23.2673 42.7417 23.3097 42.6561 23.3441C42.4193 23.4377 42.2273 23.3745 42.1257 23.1433C42.0297 22.9233 42.0889 22.7377 42.3081 22.6025C43.1825 22.0633 44.4921 22.2073 45.2281 22.9305C46.5777 24.2561 46.1561 26.9985 44.4697 27.8465C43.7857 28.1905 43.0905 28.1785 42.3793 27.8665Z" fill="#262223"/>
<path d="M16.6144 12.9321C16.592 13.7961 16.1736 14.7521 15.336 15.5201C15.2776 15.5737 15.2152 15.6249 15.1464 15.6625C14.916 15.7905 14.6704 15.7729 14.5664 15.5361C14.5088 15.4041 14.5664 15.1289 14.6744 15.0321C15.2176 14.5449 15.5856 13.9745 15.744 13.2569C15.9992 12.1065 15.468 10.8553 14.4392 10.2401C13.3248 9.57372 11.9848 9.68812 11.0552 10.4537C9.79521 11.4913 9.68721 13.2553 10.6184 14.5321C10.6648 14.5961 10.7184 14.6561 10.7592 14.7233C10.8944 14.9481 10.8256 15.1393 10.6304 15.2809C10.4304 15.4257 10.2656 15.3481 10.1136 15.1713C8.81841 13.6673 8.84641 11.2177 10.4832 9.89612C12.1296 8.56732 14.1888 8.69532 15.6472 10.2065C16.2752 10.8577 16.6104 11.7081 16.6144 12.9321Z" fill="#252122"/>
<path d="M33.5225 2.53209C32.0217 2.70889 30.7905 3.18489 30.0905 4.54969C29.7881 5.13929 29.8001 5.75049 30.0041 6.36649C30.0417 6.48009 30.0817 6.59289 30.1297 6.70249C30.2481 6.96889 30.1817 7.18089 29.9209 7.29609C29.6521 7.41529 29.5129 7.25049 29.4009 7.01929C28.7489 5.66809 29.0305 4.14329 30.2105 3.07129C31.7561 1.66729 33.5449 1.41449 35.4713 2.14089C36.6049 2.56809 37.4881 3.30489 37.9633 4.45609C38.2641 5.18649 38.2761 5.93769 38.0073 6.67289C37.9545 6.81689 37.7025 6.96889 37.5393 6.97209C37.2937 6.97689 37.1737 6.75449 37.2433 6.51209C37.4745 5.70169 37.4073 4.92969 36.9377 4.22409C36.3953 3.40969 35.5825 2.96809 34.6673 2.71369C34.2745 2.60409 33.8569 2.58409 33.5209 2.53369L33.5225 2.53209Z" fill="#252223"/>
<path d="M35.5351 30.7687C34.7367 30.8159 33.9719 30.8991 33.2079 30.8967C32.4927 30.8951 31.7775 30.8055 31.0631 30.7495C30.8127 30.7295 30.6071 30.6263 30.6455 30.3343C30.6815 30.0599 30.8623 29.9255 31.1495 29.9527C31.6255 29.9967 32.1047 30.0887 32.5783 30.0687C33.6631 30.0231 34.7471 29.9399 35.8279 29.8359C36.3719 29.7831 36.5863 29.9719 36.4479 30.5047C36.1879 31.4999 35.8591 32.4639 35.0927 33.2055C34.5695 33.7119 33.9327 33.8951 33.2239 33.7935C33.0807 33.7727 32.8431 33.5863 32.8535 33.5007C32.8727 33.3407 33.0383 33.1959 33.1503 33.0503C33.1695 33.0247 33.2239 33.0127 33.2599 33.0167C33.7887 33.0735 34.2559 32.9647 34.6391 32.5639C35.1239 32.0575 35.3415 31.4295 35.5351 30.7695V30.7687Z" fill="#262223"/>
<path d="M11.1473 18.5081C10.9993 18.4649 10.8217 18.4585 10.7105 18.3697C10.4409 18.1545 10.5889 17.7945 10.9873 17.6609C11.6481 17.6761 12.3097 17.6809 12.9705 17.7113C13.5065 17.7361 14.0417 17.7913 14.5769 17.8329C15.0145 18.6913 14.7905 20.5617 14.1665 21.2713C13.3097 22.2441 11.9065 22.0249 11.4177 20.8289C11.2793 20.4897 11.1697 20.1297 11.1145 19.7689C11.0873 19.5929 11.2153 19.3937 11.2729 19.2049C11.6353 19.1465 11.8505 19.2553 11.9033 19.6617C11.9417 19.9593 12.0281 20.2633 12.1545 20.5353C12.4409 21.1529 12.9769 21.2353 13.4745 20.7673C13.9369 20.3321 14.1969 19.2033 13.9497 18.6505C13.9217 18.5881 13.8105 18.5265 13.7377 18.5249C12.8745 18.5121 12.0105 18.5113 11.1465 18.5081H11.1473Z" fill="#252122"/>
<path d="M48.4984 40.172C48.3144 40.2304 48.1304 40.3416 47.9464 40.34C46.5368 40.3288 45.22 40.6824 43.9648 41.3008C43.8696 41.3472 43.7696 41.3832 43.6728 41.4264C43.432 41.5328 43.2656 41.4504 43.1512 41.2256C43.0256 40.9792 43.1304 40.8104 43.3472 40.7056C43.8344 40.4704 44.328 40.2488 44.7256 40.0656C44.4688 39.4104 44.216 38.7664 43.964 38.1216C43.9656 37.7896 43.9664 37.4576 43.968 37.1248C43.9696 36.8792 44.0712 36.6944 44.3336 36.7016C44.5872 36.7088 44.7496 36.8632 44.7584 37.1328C44.7656 37.3584 44.7512 37.5848 44.7616 37.8104C44.796 38.5472 45.1496 39.1448 45.6184 39.6808C45.6728 39.7432 45.8264 39.744 45.9304 39.7344C46.6024 39.668 47.272 39.5664 47.9456 39.5256C48.472 39.4936 48.5736 39.644 48.4976 40.172H48.4984Z" fill="#272324"/>
<path d="M14.7913 13.2416C14.9177 14.2304 14.1841 15.0616 13.2417 15.0936C12.2537 15.1272 11.4161 14.8584 10.8761 13.9952C10.3609 13.172 10.4409 12.2824 10.6953 11.2864C10.9385 12.2768 11.1801 13.1648 12.1865 13.4704C13.0705 13.7384 13.9609 13.7992 14.7905 13.2416H14.7913Z" fill="#89C3EA"/>
<path d="M11.1472 18.5081C12.0112 18.5121 12.8744 18.5129 13.7384 18.5249C13.812 18.5257 13.9224 18.5873 13.9504 18.6505C14.1976 19.2033 13.9368 20.3321 13.4752 20.7673C12.9776 21.2353 12.4416 21.1529 12.1552 20.5353C12.0288 20.2625 11.9424 19.9593 11.904 19.6617C11.8512 19.2553 11.6368 19.1465 11.2736 19.2049C11.2312 18.9729 11.1896 18.7409 11.1472 18.5081Z" fill="#CCCECF"/>
<path d="M10.9176 16.8175C10.7728 16.8023 10.6288 16.7831 10.484 16.7735C10.192 16.7543 9.99365 16.6239 10.0048 16.3119C10.016 15.9919 10.2456 15.9543 10.512 15.9575C11.5576 15.9687 12.6024 15.9791 13.648 15.9679C14.0568 15.9639 14.4656 15.9087 14.8728 15.8639C15.1144 15.8375 15.3496 15.8311 15.4008 16.1271C15.452 16.4215 15.2864 16.5983 15.0008 16.6655C14.9496 16.6775 14.8968 16.6847 14.8448 16.6943C13.536 16.7359 12.2272 16.7767 10.9176 16.8183V16.8175Z" fill="#252122"/>
<path d="M10.9175 16.8176C12.2263 16.776 13.5351 16.7352 14.8447 16.6936C14.7559 17.0736 14.6663 17.4528 14.5775 17.8328C14.0423 17.7912 13.5071 17.736 12.9711 17.7112C12.3103 17.6808 11.6487 17.6768 10.9879 17.6608C10.9647 17.3792 10.9415 17.0984 10.9175 16.8168V16.8176Z" fill="#CACCCD"/>
<path d="M27.08 37.2408C26.5696 37.4832 26.056 37.7192 25.5488 37.9688C25.2064 38.1376 24.9432 38.104 24.7808 37.7264C24.8984 37.5672 24.9816 37.344 25.1392 37.26C25.864 36.8736 26.6112 36.5296 27.348 36.164C27.6208 36.0288 27.8416 36.0672 27.9856 36.3416C28.1456 36.6472 27.9104 36.7688 27.7 36.8912C27.4952 37.0104 27.2872 37.124 27.08 37.2408Z" fill="#272324"/>
<path d="M30.4672 23.9479C30.4584 24.1447 30.4928 24.4247 30.4168 24.6703C30.372 24.8127 30.156 24.9727 30.004 24.9879C29.896 24.9983 29.652 24.7671 29.6632 24.6655C29.7216 24.1359 29.3656 23.7759 29.1808 23.3511C29.0856 23.1327 28.9688 22.9391 29.1704 22.7367C29.3488 22.5583 29.5432 22.5703 29.74 22.7271C29.7864 22.7639 29.8592 22.7823 29.9208 22.7831C30.4488 22.7919 30.5368 22.8831 30.5048 23.4023C30.4952 23.5615 30.4824 23.7199 30.4664 23.9479H30.4672Z" fill="#252223"/>
<path d="M37.2945 24.1184C37.2801 24.3704 37.2689 24.6224 37.2513 24.8744C37.2337 25.1384 37.0553 25.28 36.8273 25.236C36.6897 25.2096 36.4753 25.0168 36.4801 24.9072C36.5025 24.3736 36.1729 23.9912 35.9897 23.5456C35.9217 23.3792 35.9041 23.1168 35.9913 22.9792C36.1185 22.7792 36.3529 22.816 36.5489 22.9736C36.6001 23.0144 36.6993 23.0176 36.7721 23.0064C37.1417 22.948 37.3097 23.076 37.3169 23.44C37.3209 23.6656 37.3169 23.892 37.3169 24.1176C37.3089 24.1176 37.3009 24.1176 37.2937 24.1176L37.2945 24.1184Z" fill="#272425"/>
<path d="M11.9031 6.57045C11.7807 6.68645 11.6775 6.86565 11.5559 6.87845C11.4063 6.89445 11.1503 6.81285 11.0999 6.70085C10.8791 6.20805 10.6967 5.69605 10.5479 5.17685C10.5175 5.07125 10.6671 4.83685 10.7855 4.78885C10.9047 4.74085 11.1839 4.80645 11.2279 4.89925C11.4727 5.42325 11.6679 5.97125 11.9031 6.56965V6.57045Z" fill="#2F2B2C"/>
<path d="M7.73512 10.1865C7.69192 10.6009 7.41832 10.7649 7.15352 10.5977C6.71992 10.3241 6.29832 10.0297 5.88952 9.7209C5.68552 9.5673 5.64391 9.33529 5.80871 9.12249C5.96391 8.92169 6.15271 8.9249 6.36151 9.0761C6.74471 9.3545 7.14712 9.60729 7.52552 9.89209C7.63752 9.97609 7.69672 10.1305 7.73592 10.1865H7.73512Z" fill="#252122"/>
<path d="M19.4688 9.67603C19.5744 9.78163 19.7816 9.89443 19.7896 10.0208C19.7992 10.1704 19.672 10.4224 19.544 10.4704C19.1264 10.6272 18.6864 10.7432 18.2448 10.8048C18.112 10.8232 17.892 10.6416 17.8168 10.4976C17.7696 10.4072 17.8848 10.12 17.984 10.0848C18.4424 9.92402 18.9208 9.82003 19.468 9.67603H19.4688Z" fill="#282425"/>
<path d="M15.9127 7.20084C15.5847 7.19924 15.3599 6.91924 15.4751 6.67764C15.6623 6.28724 15.8815 5.90804 16.1311 5.55524C16.1967 5.46244 16.4703 5.41204 16.5655 5.47284C16.6871 5.55044 16.8255 5.80324 16.7815 5.90484C16.6103 6.30164 16.3783 6.67284 16.1487 7.04164C16.0943 7.12964 15.9623 7.16884 15.9127 7.20084Z" fill="#252122"/>
<path d="M32.6776 27.4679C32.688 27.2583 32.7192 26.9991 33.048 26.9567C33.3272 26.9207 33.4448 27.0895 33.4992 27.3447C33.5144 27.4159 33.6416 27.4559 33.6856 27.5295C33.7736 27.6767 33.9208 27.8559 33.8904 27.9863C33.8616 28.1095 33.6456 28.2535 33.496 28.2727C33.0216 28.3343 32.6816 27.9991 32.6768 27.4679H32.6776Z" fill="#2D292A"/>
</svg>
