<svg width="61" height="62" viewBox="0 0 61 62" fill="none" xmlns="http://www.w3.org/2000/svg">
<circle cx="30.5" cy="30.5" r="29" fill="white" stroke="#89C3EB" stroke-width="3"/>
<path d="M42.1913 53.7224C31.5513 53.7232 20.9121 53.7248 10.2721 53.724C10.1529 53.724 10.0345 53.7024 9.91532 53.6912C9.91532 53.6776 9.91372 53.664 9.91612 53.6512C10.9969 48.9296 12.5201 44.356 14.4881 39.9288C14.6089 39.6576 14.5961 39.3272 14.6449 39.0248C14.7457 38.88 14.8457 38.7352 14.9465 38.5904C15.0953 38.5384 15.2553 38.5056 15.3921 38.4312C18.4713 36.752 21.6961 35.4304 25.0737 34.4856C25.7665 34.292 26.4673 34.1232 27.1985 33.9336C27.1761 34.1856 27.1737 34.3696 27.1401 34.548C27.1065 34.7288 27.0425 34.9032 26.9921 35.0808C26.6545 35.1448 26.3049 35.1744 25.9809 35.2808C25.5673 35.4168 25.1985 35.6384 25.1425 36.1424C24.9297 35.9664 24.7201 35.7176 24.4417 36.0384C24.2057 36.3104 24.3737 36.5304 24.5657 36.732C24.8313 37.0104 25.0857 37.3016 25.3737 37.5544C28.2585 40.0832 31.5705 40.8136 35.2641 39.8576C35.5961 39.772 35.8937 39.5544 36.2065 39.3976C37.5257 39.1456 38.7921 38.7232 40.0113 38.1672C41.0113 37.7112 41.9905 37.2088 42.9801 36.7312C43.0977 36.6744 43.2257 36.6392 43.3489 36.5936C43.4857 36.7624 43.6225 36.9312 43.7745 37.12C43.6569 37.1736 43.5889 37.2128 43.5153 37.236C42.9241 37.4264 42.3289 37.6048 41.7401 37.8048C41.3737 37.9296 41.2417 38.336 41.5185 38.532C41.6465 38.6224 41.9177 38.5888 42.0913 38.5232C43.8545 37.86 45.6697 37.5496 47.5537 37.652C47.7753 37.664 47.9993 37.6328 48.2225 37.6216C48.2961 37.7184 48.4089 37.8056 48.4361 37.9136C48.6601 38.7984 48.8681 39.688 49.0809 40.576C46.9409 40.8424 44.8001 41.108 42.6361 41.3776C42.5769 40.8576 42.5313 40.3952 42.4689 39.9352C42.4281 39.6352 42.2297 39.4816 41.9369 39.5232C41.6353 39.5664 41.6377 39.8024 41.6673 40.0472C41.7249 40.5152 41.7689 40.9848 41.8193 41.4648C41.4361 41.5208 40.9873 41.5176 41.0297 41.9944C41.0801 42.5664 41.5945 42.2256 41.9433 42.3248C42.0289 43.6632 42.1673 45.0008 42.1873 46.34C42.2241 48.8 42.1913 51.26 42.1873 53.7208L42.1913 53.7224Z" fill="#D0D2D3"/>
<path d="M41.4872 18.4457C40.8704 17.3281 40.2496 16.2113 39.6384 15.0905C39.4768 14.7945 39.28 14.6385 38.9144 14.5745C35.6776 14.0065 33.568 12.0881 32.3848 9.02489C32.1536 9.28649 31.9336 9.54809 31.7 9.79609C30.1456 11.4497 28.2496 12.6233 26.2568 13.6593C25.384 14.1129 24.5056 14.5553 23.6368 15.0153C23.268 15.2105 23.3632 15.5961 23.3592 15.9073C23.3552 16.2753 23.4352 16.6441 23.4752 17.0129C23.5232 17.4561 23.116 17.4969 22.8656 17.6401C22.7736 17.6929 22.4936 17.5825 22.416 17.4673C21.548 16.1777 20.9104 14.8033 20.9992 13.1945C21.0376 12.5033 21.2688 11.8745 21.6064 11.2745C21.8784 10.7921 22.1456 10.3041 22.376 9.80089C23.4344 7.48889 25.2824 6.01529 27.5056 4.93769C28.7096 4.35449 29.96 3.89209 31.3168 3.89209C33.7064 3.89209 35.8576 4.65609 37.7816 6.05529C39.3184 7.17289 40.6096 8.51849 41.4256 10.2617C41.9416 11.3649 42.2336 12.5313 42.3704 13.7433C42.5376 15.2225 42.432 16.6905 42.272 18.1593C42.0104 18.2545 41.7488 18.3489 41.4864 18.4441L41.4872 18.4457Z" fill="#89C2EA"/>
<path d="M43.7745 59.0969C43.6505 58.9849 43.4945 58.8937 43.4065 58.7585C42.9081 57.9857 42.5337 57.1617 42.4353 56.2329C42.7561 56.2057 42.9041 56.0225 42.9089 55.7089C42.9585 52.8361 43.0521 49.9633 43.0417 47.0905C43.0361 45.4729 42.8601 43.8553 42.7569 42.1761C44.7617 41.9329 46.7785 41.6881 48.7137 41.4529C48.9673 42.6665 49.1265 43.8161 49.4553 44.9145C50.0345 46.8513 50.7281 48.7529 51.3537 50.6761C51.9425 52.4873 52.2545 54.3345 51.9737 56.2441C51.7761 57.5889 51.2993 58.7937 50.1553 59.6193C48.4721 60.8329 46.0905 60.6689 44.4497 59.2361C44.2329 59.0465 44.0345 58.9753 43.7745 59.0961V59.0969Z" fill="#D0D2D3"/>
<path d="M43.7744 59.0967C44.0344 58.9759 44.2328 59.0471 44.4496 59.2367C46.0912 60.6695 48.4728 60.8335 50.1552 59.6199C51.3 58.7943 51.776 57.5895 51.9736 56.2447C52.2544 54.3351 51.9424 52.4871 51.3536 50.6767C50.728 48.7535 50.0344 46.8519 49.4552 44.9151C49.1264 43.8167 48.9672 42.6671 48.7136 41.4535C46.7784 41.6887 44.7616 41.9335 42.7568 42.1767C42.86 43.8559 43.036 45.4735 43.0416 47.0911C43.052 49.9639 42.9584 52.8367 42.9088 55.7095C42.9032 56.0223 42.756 56.2063 42.4352 56.2335C42.1672 56.1727 42.0872 55.9975 42.1016 55.7359C42.1392 55.0655 42.1616 54.3935 42.1904 53.7223C42.1944 51.2623 42.2272 48.8015 42.1904 46.3415C42.1704 45.0023 42.0312 43.6647 41.9464 42.3263C41.5976 42.2271 41.0832 42.5679 41.0328 41.9959C40.9904 41.5191 41.4392 41.5231 41.8224 41.4663C41.772 40.9863 41.728 40.5167 41.6704 40.0487C41.64 39.8039 41.6384 39.5679 41.94 39.5247C42.2328 39.4823 42.4312 39.6367 42.472 39.9367C42.5344 40.3967 42.58 40.8591 42.6392 41.3791C44.8032 41.1103 46.944 40.8439 49.084 40.5775C49.268 40.5599 49.4528 40.5503 49.6352 40.5239C49.8848 40.4879 50.148 40.5279 50.1544 40.7999C50.1584 40.9663 49.9448 41.1415 49.8184 41.3047C49.7936 41.3367 49.7224 41.3335 49.5672 41.3751C49.7344 42.3095 49.8136 43.2703 50.0848 44.1727C50.7224 46.2927 51.4696 48.3799 52.14 50.4911C52.684 52.2055 53.056 53.9551 52.9056 55.7711C52.7704 57.4015 52.2232 58.8727 50.9624 59.9631C49.3464 61.3607 47.4792 61.5671 45.5216 60.8223C44.944 60.6023 44.444 60.1759 43.9128 59.8367C43.6112 59.6439 43.5512 59.3943 43.7736 59.0975L43.7744 59.0967Z" fill="#282425"/>
<path d="M26.9937 35.0816C27.0441 34.904 27.1081 34.7296 27.1417 34.5488C27.1753 34.3704 27.1777 34.1856 27.2001 33.9344C26.4681 34.124 25.7681 34.292 25.0753 34.4864C21.6977 35.4312 18.4729 36.7528 15.3937 38.432C15.2569 38.5064 15.0969 38.5392 14.9481 38.5912C14.4617 38.2056 14.4897 37.9992 15.0425 37.6992C17.8201 36.1888 20.7169 34.9608 23.7393 34.0376C24.8777 33.6896 26.0329 33.4 27.2425 33.0672C27.2113 32.7176 27.1897 32.3112 27.1281 31.9104C27.1153 31.828 26.9593 31.7624 26.8633 31.6976C23.4433 29.3832 22.0257 26.1496 22.4473 22.0744C22.4705 21.8504 22.4673 21.552 22.8105 21.552C23.1105 21.552 23.2801 21.7136 23.2529 22.0328C23.2201 22.4168 23.1545 22.8016 23.1561 23.1856C23.1721 26.804 24.6465 29.6232 27.8913 31.3176C30.2233 32.5352 32.6929 32.544 35.1489 31.5984C35.6169 31.4184 36.0545 31.1568 36.5017 30.9248C36.7305 30.8056 36.9641 30.7136 37.1289 30.9864C37.2865 31.2472 37.1929 31.4664 36.9337 31.6232C35.8457 32.2832 34.6737 32.7184 33.4169 32.9192C31.5769 33.2136 29.7889 33.0136 28.0401 32.3088C28.0401 32.7256 28.0673 33.1056 28.0337 33.48C27.9801 34.0864 27.8913 34.6896 27.8081 35.292C27.7721 35.5528 27.6497 35.7616 27.3433 35.7248C27.0401 35.6888 26.9657 35.4728 26.9969 35.2C27.0017 35.1608 26.9945 35.1208 26.9929 35.0808L26.9937 35.0816Z" fill="#262223"/>
<path d="M31.7208 2.65993C34.5672 2.65593 37.0352 3.38473 39.1592 5.05193C42.0032 7.28473 43.684 10.1567 43.7176 13.8599C43.72 14.1647 43.6856 14.4711 43.6512 14.7751C43.62 15.0527 43.4512 15.2111 43.1672 15.1983C42.8544 15.1831 42.8136 14.9511 42.8456 14.7103C43.0256 13.3631 42.8432 12.0487 42.4 10.7831C41.5776 8.43753 40.1056 6.58393 38.004 5.24313C35.5304 3.66473 32.8368 3.17273 29.9528 3.61433C27.7824 3.94633 25.824 4.76713 24.1232 6.16393C23.3152 6.82793 22.6408 7.60553 22.2616 8.60313C22.2288 8.68953 22.1704 8.76553 22.1352 8.85113C22.024 9.12313 21.8136 9.21673 21.5576 9.11033C21.2984 9.00233 21.3032 8.79593 21.4008 8.54553C22.0704 6.82073 23.308 5.59033 24.8448 4.64553C26.996 3.32313 29.344 2.65593 31.7224 2.65993H31.7208Z" fill="#262223"/>
<path d="M44.5617 30.3073C44.4881 29.2329 44.3601 28.2001 44.3681 27.1689C44.3729 26.5769 44.5233 25.9577 44.7409 25.4025C44.9897 24.7673 45.9345 24.4865 46.5529 24.7777C46.8961 24.9393 47.0569 25.2465 47.0809 25.6121C47.1601 26.8329 47.2337 28.0545 47.2985 29.2769C47.3121 29.5289 47.1993 29.7225 46.9097 29.7313C46.6305 29.7401 46.4945 29.5833 46.4825 29.3161C46.4353 28.2409 46.3993 27.1649 46.3401 26.0897C46.3289 25.8857 46.2937 25.6057 46.1601 25.5041C45.9561 25.3489 45.5537 25.5921 45.3945 25.8977C45.0369 26.5825 45.1161 27.3209 45.1689 28.0441C45.2233 28.7849 45.3385 29.5217 45.4177 30.1825C46.0345 30.4017 46.6401 30.5377 47.1665 30.8209C48.3185 31.4417 48.8865 32.8809 48.5553 34.2705C48.4065 34.8961 48.1609 35.5001 47.9433 36.1081C47.8553 36.3529 47.6865 36.5369 47.3961 36.3929C47.1137 36.2521 47.1289 36.0273 47.2201 35.7489C47.4377 35.0857 47.7161 34.4209 47.7929 33.7377C47.9633 32.2273 46.9425 31.1713 45.4209 31.1169C44.3953 31.0801 43.4513 31.3689 42.5217 31.7409C42.1673 31.8825 41.8089 32.0313 41.4881 32.2337C41.0057 32.5377 40.9553 32.9297 41.3201 33.3737C41.4865 33.5761 41.7041 33.7377 41.9065 33.9089C42.1465 34.1121 42.2161 34.3465 42.0225 34.6065C41.8089 34.8929 41.5945 34.7241 41.4161 34.5569C41.1273 34.2857 40.8137 34.0265 40.5865 33.7081C40.0217 32.9193 40.2145 32.0569 41.0361 31.5641C42.0017 30.9849 43.0537 30.6281 44.1497 30.3937C44.2929 30.3633 44.4361 30.3337 44.5609 30.3081L44.5617 30.3073Z" fill="#252122"/>
<path d="M14.6456 39.0256C14.596 39.328 14.6088 39.6584 14.4888 39.9296C12.5208 44.356 10.9984 48.9304 9.91681 53.652C9.91361 53.6648 9.91682 53.6784 9.91602 53.692C9.85682 53.908 9.82961 54.1408 9.72641 54.3336C9.65281 54.472 9.47441 54.6472 9.35041 54.6408C9.21361 54.6344 9.01842 54.4624 8.97122 54.3208C8.90882 54.1336 8.92561 53.896 8.97841 53.6984C9.26241 52.6296 9.57201 51.568 9.86641 50.5016C10.6744 47.5704 11.6232 44.6872 12.7992 41.8816C13.1672 41.0048 13.5304 40.1248 13.9152 39.2552C14.112 38.8104 14.2128 38.7936 14.6456 39.0248V39.0256Z" fill="#272324"/>
<path d="M16.1368 8.75759C16.1128 10.0264 15.6384 10.9984 14.772 11.7864C14.5528 11.9856 14.3104 11.9952 14.104 11.7768C13.876 11.536 14.0328 11.3552 14.2264 11.1784C15.2528 10.244 15.5728 9.03438 15.1232 7.82238C14.4264 5.94559 11.8984 5.39599 10.432 6.75039C9.33125 7.76719 9.21765 9.59679 10.1472 10.716C10.304 10.9048 10.4568 11.1312 10.2168 11.3848C10.0224 11.5912 9.81685 11.6096 9.63845 11.392C8.32565 9.79598 8.38965 7.51039 9.90245 6.16319C12.1888 4.12639 15.468 5.44959 16.0576 8.13039C16.1088 8.36239 16.1184 8.60399 16.1368 8.75599V8.75759Z" fill="#252122"/>
<path d="M36.2088 39.3976C35.8952 39.5544 35.5976 39.772 35.2664 39.8576C31.5728 40.8136 28.2608 40.084 25.376 37.5544C25.088 37.3016 24.8336 37.0104 24.568 36.732C24.376 36.5304 24.208 36.3104 24.444 36.0384C24.7224 35.7176 24.932 35.9664 25.1448 36.1424C26.0912 37.2864 27.272 38.1288 28.6288 38.696C30.9112 39.6504 33.2392 39.688 35.584 38.9072C36.0888 38.7392 36.2256 38.8504 36.2096 39.3976H36.2088Z" fill="#282425"/>
<path d="M48.2255 37.6231C48.0023 37.6343 47.7783 37.6655 47.5567 37.6535C45.6727 37.5511 43.8575 37.8615 42.0943 38.5247C41.9207 38.5903 41.6487 38.6239 41.5215 38.5335C41.2447 38.3375 41.3767 37.9303 41.7431 37.8063C42.3311 37.6063 42.9263 37.4279 43.5183 37.2375C43.5911 37.2143 43.6591 37.1751 43.7775 37.1215C43.6247 36.9327 43.4879 36.7639 43.3519 36.5951C43.1639 35.9639 42.9311 35.3407 42.8063 34.6975C42.7359 34.3335 42.8271 33.9327 42.8751 33.5527C42.9063 33.3079 43.0767 33.1807 43.3311 33.2303C43.5671 33.2767 43.7119 33.4047 43.6591 33.6775C43.4319 34.8663 43.7391 35.9023 44.5503 36.7959C44.5975 36.8479 44.6135 36.9287 44.6039 36.9071C45.6927 36.8887 46.7255 36.8551 47.7583 36.8591C48.2759 36.8615 48.4319 37.1503 48.2263 37.6223L48.2255 37.6231Z" fill="#262223"/>
<path d="M34.1705 27.552C33.7049 27.5944 33.3113 27.664 32.9185 27.66C31.6449 27.6464 30.3721 27.6064 29.0993 27.5744C28.8489 27.568 28.6289 27.504 28.6745 27.188C28.7185 26.8856 28.9241 26.7744 29.2177 26.796C29.8273 26.84 30.4393 26.9328 31.0457 26.9088C32.2241 26.8616 33.4001 26.7488 34.5769 26.66C34.9577 26.6312 35.1665 26.7784 35.0817 27.1176C34.7361 28.5072 34.2521 29.8368 32.8169 30.4744C32.4377 30.6432 31.9681 30.6376 31.5377 30.6536C31.2641 30.6632 31.1169 30.4496 31.1201 30.1704C31.1233 29.9032 31.3153 29.8224 31.5281 29.8456C32.5361 29.9568 33.1985 29.4592 33.6681 28.6392C33.8569 28.3096 33.9897 27.9488 34.1697 27.5536L34.1705 27.552Z" fill="#252122"/>
<path d="M10.5968 14.6913C10.36 14.6529 10.1272 14.6185 10.0984 14.3033C10.0752 14.0449 10.2 13.9169 10.436 13.8657C11.6128 13.8913 12.7888 13.9169 13.9656 13.9425C14.0536 14.1361 14.1928 14.3225 14.22 14.5241C14.336 15.3729 14.3808 16.2209 13.9704 17.0209C13.6816 17.5841 13.2128 17.9089 12.6088 18.0265C12.008 18.1433 11.4936 17.9705 11.1672 17.4257C10.7976 16.8089 10.4704 16.1721 10.688 15.4113C11.2312 15.3425 11.2936 15.4089 11.4272 15.9201C11.5224 16.2857 11.6672 16.6441 11.8392 16.9809C11.9888 17.2745 12.3008 17.3089 12.5744 17.2041C12.94 17.0641 13.2304 16.8169 13.3712 16.4233C13.5704 15.8673 13.5392 15.3089 13.4384 14.6905H10.5976L10.5968 14.6913Z" fill="#252122"/>
<path d="M19.4065 13.2496C19.4641 12.2024 19.5681 11.0272 20.3865 10.064C20.5049 9.92482 20.6545 9.81362 20.7881 9.68722C20.9881 9.49762 21.2081 9.42242 21.4105 9.65762C21.6225 9.90322 21.4865 10.1024 21.2993 10.3128C21.0465 10.5952 20.7521 10.8784 20.6145 11.2176C20.0169 12.692 20.1041 14.1792 20.7033 15.632C20.9177 16.152 21.2177 16.6376 21.4889 17.1336C21.6145 17.3624 21.6425 17.5608 21.3857 17.708C21.1481 17.844 20.9689 17.7768 20.8169 17.5496C19.9729 16.2896 19.4409 14.9264 19.4081 13.2496H19.4065Z" fill="#252122"/>
<path d="M41.4873 18.4455C41.7489 18.3503 42.0113 18.2559 42.2729 18.1607C43.9697 17.8815 45.5441 19.6023 45.1233 21.5815C44.9977 22.1735 44.7537 22.7103 44.3025 23.1423C43.7553 23.6663 43.0305 23.8135 42.3601 23.4687C42.2233 23.3983 42.0609 23.1583 42.0881 23.0351C42.1393 22.7983 42.3241 22.6575 42.6345 22.7359C43.5249 22.9599 43.8929 22.7391 44.2137 21.8439C44.6129 20.7279 44.2681 19.6631 43.3545 19.1335C42.9409 18.8943 42.5321 18.9103 42.0905 19.0351C41.9273 19.0815 41.6673 19.0727 41.5665 18.9727C41.4657 18.8727 41.5081 18.6279 41.4873 18.4463V18.4455Z" fill="#262223"/>
<path d="M21.3832 18.0872C21.8144 18.2024 22.1208 18.276 22.4232 18.3672C22.6488 18.4352 22.78 18.62 22.6672 18.8216C22.588 18.9632 22.3768 19.0352 22.2168 19.1248C22.184 19.1432 22.1144 19.1072 22.068 19.0848C21.0112 18.5832 19.76 19.5432 19.7576 20.8344C19.7568 21.3512 19.952 21.8968 20.1704 22.3776C20.3952 22.8712 20.8272 22.9712 21.3552 22.8024C21.4424 22.7744 21.5584 22.7128 21.6168 22.7456C21.772 22.8328 21.9728 22.9408 22.0208 23.0848C22.0544 23.1856 21.9008 23.4344 21.7744 23.4904C20.8808 23.8904 20.0568 23.6144 19.4728 22.7528C18.5384 21.3736 18.816 19.4808 20.1272 18.6112C20.52 18.3504 21.0112 18.2368 21.3824 18.0864L21.3832 18.0872Z" fill="#252122"/>
<path d="M31.9623 11.6351C31.5383 12.0071 31.1135 12.3791 30.6895 12.7519C29.1991 14.0607 27.5167 15.0735 25.7535 15.9615C25.4967 16.0911 25.2583 16.0943 25.1047 15.8095C24.9327 15.4903 25.1695 15.3607 25.3927 15.2255C26.6567 14.4607 27.9559 13.7471 29.1695 12.9087C29.9927 12.3399 30.6975 11.5991 31.4487 10.9287C31.6287 10.7679 31.7951 10.6887 32.0063 10.8647C32.2047 11.0303 32.2175 11.2167 32.0871 11.4279C32.0615 11.4687 32.0519 11.5191 32.0343 11.5647L32.0439 11.5543C32.0143 11.5839 31.9847 11.6127 31.9543 11.6423L31.9607 11.6343L31.9623 11.6351Z" fill="#242021"/>
<path d="M32.0352 11.5656C32.4424 11.4392 32.6512 11.7352 32.856 11.9824C33.7328 13.0432 34.7936 13.8848 36.0072 14.504C36.8256 14.9224 37.7096 15.2152 38.5744 15.5376C38.8544 15.6416 39.0984 15.7448 38.9872 16.0832C38.8816 16.4056 38.6216 16.3896 38.3304 16.3112C36.0992 15.708 34.1808 14.5808 32.5872 12.9056C32.3952 12.704 32.1784 12.5088 32.0496 12.2688C31.9552 12.0928 31.9872 11.8488 31.9632 11.6352L31.9568 11.6432C31.9864 11.6136 32.016 11.5848 32.0464 11.5552L32.0368 11.5656H32.0352Z" fill="#262223"/>
<path d="M41.5696 23.2057C41.548 25.4937 40.952 27.3705 39.804 29.0769C39.6296 29.3361 39.412 29.4609 39.1384 29.2809C38.852 29.0929 38.9704 28.8569 39.1256 28.6281C40.2448 26.9793 40.8088 25.1625 40.7552 23.1649C40.7456 22.8081 40.6784 22.4537 40.6488 22.0969C40.6264 21.8233 40.6872 21.5697 41.0056 21.5265C41.3128 21.4849 41.4184 21.6961 41.4448 21.9673C41.4912 22.4553 41.5432 22.9433 41.5696 23.2057Z" fill="#262223"/>
<path d="M14.3233 9.46791C14.2929 10.6471 13.5801 11.4543 12.6545 11.4239C11.4561 11.3839 10.0337 10.6895 9.98809 8.85591C9.97849 8.45511 10.0985 8.05111 10.1977 7.64551C10.4233 8.55671 10.6897 9.44151 11.6937 9.74631C12.5841 10.0167 13.4921 10.1015 14.3241 9.46791H14.3233Z" fill="#8AC3EA"/>
<path d="M10.5967 14.6912H13.4375C13.5383 15.3096 13.5695 15.868 13.3703 16.424C13.2287 16.8176 12.9391 17.0656 12.5735 17.2048C12.2999 17.3096 11.9887 17.2752 11.8383 16.9816C11.6663 16.6448 11.5223 16.2856 11.4263 15.9208C11.2927 15.4096 11.2303 15.3424 10.6871 15.412C10.6567 15.172 10.6271 14.9312 10.5967 14.6912Z" fill="#CCCECF"/>
<path d="M10.4384 13.004C10.2544 12.9848 10.0688 12.9728 9.88636 12.9456C9.62156 12.9064 9.49036 12.7416 9.51676 12.4784C9.54556 12.1904 9.73356 12.148 9.99756 12.1448C11.4392 12.1264 12.8816 12.0848 14.3232 12.0528C14.5624 12.0472 14.8536 11.94 14.9176 12.32C14.9656 12.6056 14.7616 12.8048 14.384 12.8552C14.32 12.864 14.2584 12.8904 14.1952 12.9088C12.9432 12.94 11.6904 12.972 10.4384 13.0032V13.004Z" fill="#272324"/>
<path d="M10.4385 13.0041C11.6905 12.9729 12.9433 12.9409 14.1953 12.9097C14.1185 13.2537 14.0417 13.5985 13.9649 13.9425C12.7881 13.9169 11.6121 13.8913 10.4353 13.8657C10.4361 13.5785 10.4369 13.2913 10.4385 13.0049V13.0041Z" fill="#CCCECF"/>
<path d="M31.7279 25.6056C31.2103 25.5456 30.7583 25.264 30.5887 24.8552C30.3815 24.3552 30.4744 23.86 30.8168 23.4904C30.9968 23.296 31.1751 23.2688 31.3727 23.4264C31.5687 23.5824 31.5519 23.7656 31.4591 23.992C31.3847 24.1736 31.3192 24.4424 31.4016 24.5848C31.5512 24.8432 31.8184 24.7384 32.0272 24.5928C32.2584 24.4312 32.4544 24.468 32.6112 24.6856C32.7816 24.9224 32.6807 25.1312 32.4687 25.2608C32.2375 25.4016 31.9767 25.4928 31.7287 25.6056H31.7279Z" fill="#262223"/>
<path d="M7.24163 6.37923C7.22883 6.76803 6.91203 6.95844 6.64403 6.78564C6.21363 6.50724 5.80163 6.19844 5.39123 5.88964C5.17203 5.72484 5.14403 5.47764 5.33843 5.31044C5.44803 5.21604 5.72083 5.18803 5.84643 5.25923C6.25523 5.49363 6.63763 5.77684 7.01443 6.06324C7.13043 6.15124 7.19283 6.30803 7.24243 6.37923H7.24163Z" fill="#252122"/>
<path d="M11.3977 2.7544C11.3025 2.8608 11.2153 3.0472 11.1065 3.0608C10.9505 3.0808 10.6777 3.02 10.6305 2.9144C10.4025 2.4088 10.2145 1.8816 10.0593 1.348C10.0321 1.2536 10.2033 1.0264 10.3257 0.984801C10.4497 0.943201 10.7209 1.012 10.7633 1.1072C10.9953 1.6248 11.1777 2.1656 11.3977 2.7552V2.7544Z" fill="#242021"/>
<path d="M19.0144 5.85767C19.104 5.96727 19.2792 6.08887 19.296 6.22967C19.312 6.36487 19.1952 6.60806 19.0816 6.64886C18.66 6.80086 18.2176 6.89927 17.7784 6.99767C17.528 7.05367 17.3688 6.91687 17.3144 6.67687C17.2576 6.42647 17.3648 6.26806 17.6176 6.20646C18.056 6.09926 18.4928 5.98807 19.0136 5.85767H19.0144Z" fill="#2F2B2C"/>
<path d="M28.8263 20.1088C28.8263 20.3088 28.8815 20.5312 28.8103 20.7016C28.7439 20.8624 28.5623 21.0416 28.3999 21.08C28.1583 21.1376 28.0071 20.9448 28.0015 20.6976C27.9919 20.2984 27.9655 19.8936 28.0231 19.5024C28.0455 19.3496 28.2783 19.228 28.4151 19.092C28.5519 19.2312 28.7431 19.3488 28.8095 19.5152C28.8783 19.688 28.8247 19.9088 28.8247 20.1088H28.8263Z" fill="#332F30"/>
<path d="M34.5304 20.0815C34.5304 19.8951 34.516 19.7071 34.5344 19.5223C34.5576 19.2919 34.6648 19.1151 34.9272 19.1007C35.1928 19.0863 35.3336 19.2479 35.344 19.4823C35.3624 19.9063 35.3488 20.3327 35.3368 20.7575C35.3296 21.0103 35.1472 21.1335 34.9352 21.0815C34.7904 21.0463 34.6168 20.8927 34.5696 20.7543C34.5 20.5479 34.5312 20.3079 34.52 20.0823C34.524 20.0823 34.5272 20.0823 34.5312 20.0823L34.5304 20.0815Z" fill="#322E2F"/>
<path d="M16.52 1.84714C16.1144 2.46074 15.8408 2.90234 15.5296 3.31514C15.4856 3.37354 15.2152 3.33914 15.1224 3.26154C15.028 3.18154 14.9472 2.95914 14.9928 2.86074C15.1768 2.47114 15.3944 2.09274 15.6408 1.73914C15.7032 1.64954 15.9216 1.62474 16.0584 1.64314C16.2096 1.66314 16.3488 1.76714 16.52 1.84714Z" fill="#242021"/>
</svg>
