<svg width="549" height="261" viewBox="0 0 549 261" fill="none" xmlns="http://www.w3.org/2000/svg">
<g filter="url(#filter0_d_512_115)">
<path d="M545 126.5C545 196.364 423.893 253 274.5 253C125.107 253 4 196.364 4 126.5C4 56.636 125.107 0 274.5 0C423.893 0 545 56.636 545 126.5Z" fill="#284877"/>
<path d="M502.346 228.697C509.846 228.697 403 225.344 403 225.344L450.251 198.066C450.251 198.066 494.846 228.697 502.346 228.697Z" fill="#284877"/>
</g>
<path d="M92.04 115.72C91.24 115.72 90.56 115.453 90 114.92C89.44 114.387 89.16 113.68 89.16 112.8V102.72C88.12 103.973 86.9733 105.227 85.72 106.48C84.4933 107.707 83.2133 108.853 81.88 109.92C80.5733 110.987 79.28 111.88 78 112.6C77.2533 113.027 76.4933 113.173 75.72 113.04C74.9733 112.933 74.36 112.52 73.88 111.8C73.4533 111.16 73.3067 110.453 73.44 109.68C73.5733 108.907 74.0133 108.307 74.76 107.88C76.0667 107.107 77.48 106.133 79 104.96C80.52 103.787 81.9867 102.547 83.4 101.24C84.84 99.9067 86.0667 98.6533 87.08 97.48H76.64C75.8133 97.48 75.16 97.2267 74.68 96.72C74.2267 96.1867 74 95.5467 74 94.8C74 94.0533 74.2267 93.4267 74.68 92.92C75.16 92.4133 75.8133 92.16 76.64 92.16H89.16V88.44H78.96C78.16 88.44 77.52 88.1867 77.04 87.68C76.56 87.1467 76.32 86.5067 76.32 85.76C76.32 85.04 76.56 84.4267 77.04 83.92C77.52 83.3867 78.16 83.12 78.96 83.12H89.16V80.8C89.16 79.92 89.44 79.2133 90 78.68C90.56 78.1467 91.24 77.88 92.04 77.88C92.8667 77.88 93.56 78.1467 94.12 78.68C94.68 79.2133 94.96 79.92 94.96 80.8V83.12H105.04C105.84 83.12 106.48 83.3867 106.96 83.92C107.44 84.4267 107.68 85.04 107.68 85.76C107.68 86.5067 107.44 87.1467 106.96 87.68C106.48 88.1867 105.84 88.44 105.04 88.44H94.96V92.16H107.52C108.32 92.16 108.96 92.4133 109.44 92.92C109.92 93.4267 110.16 94.0533 110.16 94.8C110.16 95.5467 109.92 96.1867 109.44 96.72C108.96 97.2267 108.32 97.48 107.52 97.48H97C98.12 98.7333 99.3867 100 100.8 101.28C102.213 102.56 103.653 103.76 105.12 104.88C106.587 105.973 107.947 106.907 109.2 107.68C109.947 108.133 110.4 108.76 110.56 109.56C110.72 110.333 110.6 111.067 110.2 111.76C109.693 112.587 109 113.067 108.12 113.2C107.267 113.36 106.44 113.187 105.64 112.68C103.88 111.507 102.04 110.04 100.12 108.28C98.2 106.493 96.48 104.613 94.96 102.64V112.8C94.96 113.68 94.68 114.387 94.12 114.92C93.56 115.453 92.8667 115.72 92.04 115.72ZM122.24 115.84C121.547 115.84 120.947 115.613 120.44 115.16C119.933 114.707 119.68 114.08 119.68 113.28V99.2C118.987 99.3067 118.307 99.4 117.64 99.48C117 99.56 116.44 99.6267 115.96 99.68C115.187 99.7867 114.507 99.64 113.92 99.24C113.36 98.84 113.053 98.2267 113 97.4C112.947 96.6267 113.147 96.0267 113.6 95.6C114.08 95.1467 114.693 94.9067 115.44 94.88C115.573 94.8533 115.707 94.84 115.84 94.84C115.973 94.84 116.107 94.8267 116.24 94.8C116.613 94.3467 117.013 93.8267 117.44 93.24C117.867 92.6533 118.32 92.0267 118.8 91.36C118.267 90.9867 117.68 90.5867 117.04 90.16C116.427 89.7333 115.853 89.3467 115.32 89C114.787 88.6533 114.4 88.4 114.16 88.24C113.6 87.8667 113.24 87.36 113.08 86.72C112.947 86.08 113.053 85.48 113.4 84.92C113.773 84.3333 114.28 83.96 114.92 83.8C115.587 83.64 116.213 83.7467 116.8 84.12C117.093 83.5867 117.4 83.0133 117.72 82.4C118.067 81.7867 118.373 81.2267 118.64 80.72C118.907 80.2133 119.093 79.8667 119.2 79.68C119.547 78.9867 120.067 78.56 120.76 78.4C121.453 78.2133 122.12 78.3067 122.76 78.68C123.373 79.0267 123.76 79.5067 123.92 80.12C124.08 80.7067 123.973 81.2933 123.6 81.88C123.44 82.1467 123.187 82.56 122.84 83.12C122.493 83.6533 122.12 84.24 121.72 84.88C121.32 85.4933 120.947 86.08 120.6 86.64L121.6 87.28C122.133 86.5067 122.627 85.76 123.08 85.04C123.533 84.32 123.907 83.7067 124.2 83.2C124.573 82.5867 125.093 82.2267 125.76 82.12C126.427 82.0133 127.053 82.1467 127.64 82.52C128.227 82.8933 128.573 83.4 128.68 84.04C128.813 84.6533 128.693 85.24 128.32 85.8C127.867 86.52 127.307 87.36 126.64 88.32C125.973 89.2533 125.267 90.24 124.52 91.28C123.773 92.32 123.04 93.32 122.32 94.28C122.773 94.2267 123.213 94.1867 123.64 94.16C124.067 94.1067 124.467 94.0667 124.84 94.04C124.813 93.9333 124.787 93.8533 124.76 93.8C124.76 93.72 124.747 93.6533 124.72 93.6C124.533 92.9867 124.56 92.4133 124.8 91.88C125.067 91.32 125.533 90.9467 126.2 90.76C126.813 90.5733 127.4 90.6 127.96 90.84C128.52 91.08 128.907 91.5067 129.12 92.12C129.227 92.3867 129.347 92.7867 129.48 93.32C129.64 93.8533 129.813 94.3867 130 94.92C130.16 94.2 130.667 93.68 131.52 93.36C132.32 93.0133 133.107 92.64 133.88 92.24C134.653 91.8133 135.4 91.3733 136.12 90.92C135.347 89.9867 134.64 88.96 134 87.84C133.387 86.72 132.827 85.52 132.32 84.24H131.28C130.64 84.24 130.093 84.0133 129.64 83.56C129.213 83.1067 129 82.5733 129 81.96C129 81.3467 129.213 80.8133 129.64 80.36C130.093 79.9067 130.64 79.68 131.28 79.68H142.08C143.973 79.68 145.427 80.0533 146.44 80.8C147.453 81.52 148 82.4667 148.08 83.64C148.16 84.8133 147.747 86.0667 146.84 87.4C146.04 88.6 145.08 89.7733 143.96 90.92C145.347 91.72 146.853 92.3733 148.48 92.88C149.2 93.0933 149.72 93.52 150.04 94.16C150.36 94.7733 150.4 95.4267 150.16 96.12C149.893 96.8933 149.387 97.4133 148.64 97.68C147.92 97.9467 147.173 97.96 146.4 97.72C145.2 97.3467 144.053 96.8933 142.96 96.36C141.893 95.8267 140.867 95.2 139.88 94.48C138.973 95.1467 138.013 95.7733 137 96.36C136.013 96.9467 135 97.48 133.96 97.96C133.4 98.2 132.827 98.3067 132.24 98.28C131.653 98.2267 131.147 98 130.72 97.6C130.853 98.2133 130.76 98.76 130.44 99.24C130.12 99.72 129.653 100.053 129.04 100.24C128.427 100.427 127.827 100.387 127.24 100.12C126.653 99.8533 126.28 99.3867 126.12 98.72L126 98.24L124.8 98.44V113.28C124.8 114.08 124.547 114.707 124.04 115.16C123.533 115.613 122.933 115.84 122.24 115.84ZM130.6 114.36C129.907 114.36 129.307 114.107 128.8 113.6C128.32 113.12 128.08 112.533 128.08 111.84C128.08 111.147 128.32 110.56 128.8 110.08C129.307 109.6 129.907 109.36 130.6 109.36H136.96V105.52H133.16C132.493 105.52 131.907 105.28 131.4 104.8C130.92 104.32 130.68 103.747 130.68 103.08C130.68 102.387 130.92 101.8 131.4 101.32C131.907 100.84 132.493 100.6 133.16 100.6H136.96V98.88C136.96 98.0267 137.24 97.3467 137.8 96.84C138.36 96.3067 139.027 96.04 139.8 96.04C140.573 96.04 141.227 96.3067 141.76 96.84C142.32 97.3467 142.6 98.0267 142.6 98.88V100.6H147.08C147.773 100.6 148.347 100.84 148.8 101.32C149.28 101.8 149.52 102.387 149.52 103.08C149.52 103.747 149.28 104.32 148.8 104.8C148.347 105.28 147.773 105.52 147.08 105.52H142.6V109.36H148.72C149.413 109.36 150 109.6 150.48 110.08C150.987 110.56 151.24 111.147 151.24 111.84C151.24 112.533 150.987 113.12 150.48 113.6C150 114.107 149.413 114.36 148.72 114.36H130.6ZM114.72 111.04C114.16 110.88 113.72 110.547 113.4 110.04C113.107 109.507 113.067 108.907 113.28 108.24C113.573 107.467 113.867 106.52 114.16 105.4C114.48 104.28 114.72 103.307 114.88 102.48C115.013 101.787 115.333 101.293 115.84 101C116.373 100.707 116.947 100.627 117.56 100.76C118.173 100.893 118.64 101.187 118.96 101.64C119.307 102.067 119.413 102.627 119.28 103.32C119.173 103.853 119.027 104.493 118.84 105.24C118.68 105.987 118.507 106.72 118.32 107.44C118.133 108.16 117.96 108.787 117.8 109.32C117.56 110.067 117.16 110.587 116.6 110.88C116.04 111.173 115.413 111.227 114.72 111.04ZM129.44 109.32C128.773 109.56 128.147 109.533 127.56 109.24C127 108.947 126.64 108.48 126.48 107.84C126.32 107.253 126.12 106.493 125.88 105.56C125.667 104.6 125.493 103.813 125.36 103.2C125.2 102.507 125.28 101.907 125.6 101.4C125.947 100.893 126.413 100.56 127 100.4C127.613 100.24 128.187 100.307 128.72 100.6C129.28 100.867 129.653 101.347 129.84 102.04C129.947 102.387 130.08 102.853 130.24 103.44C130.4 104.027 130.56 104.613 130.72 105.2C130.907 105.76 131.04 106.2 131.12 106.52C131.307 107.187 131.24 107.773 130.92 108.28C130.6 108.76 130.107 109.107 129.44 109.32ZM140.04 87.68C140.707 87.0133 141.28 86.36 141.76 85.72C142.453 84.7333 142.2 84.24 141 84.24H137.6C137.973 84.88 138.36 85.4933 138.76 86.08C139.16 86.64 139.587 87.1733 140.04 87.68ZM163.04 115.08C162.24 115.107 161.6 114.907 161.12 114.48C160.64 114.08 160.36 113.56 160.28 112.92C160.2 112.227 160.333 111.627 160.68 111.12C161.027 110.613 161.533 110.333 162.2 110.28C163.053 110.2 163.64 110.08 163.96 109.92C164.28 109.733 164.493 109.307 164.6 108.64C164.653 108.507 164.68 108.347 164.68 108.16C164.707 107.973 164.733 107.787 164.76 107.6C164.44 107.68 164.133 107.653 163.84 107.52C163.573 107.36 163.413 107.12 163.36 106.8C163.28 106.293 163.147 105.64 162.96 104.84C162.773 104.013 162.613 103.347 162.48 102.84C162.4 102.547 162.44 102.28 162.6 102.04C162.76 101.773 162.973 101.6 163.24 101.52C163.56 101.44 163.853 101.48 164.12 101.64C164.387 101.8 164.56 102.027 164.64 102.32C164.773 102.667 164.893 103.107 165 103.64V102.4C164.973 101.867 164.88 101.507 164.72 101.32C164.56 101.107 164.173 101 163.56 101H159.16C157.453 101 156.253 100.68 155.56 100.04C154.867 99.4 154.52 98.3067 154.52 96.76V84C154.52 82.2933 154.88 81.0933 155.6 80.4C156.32 79.68 157.573 79.32 159.36 79.32H168.08C168.693 79.32 169.173 79.5467 169.52 80C169.893 80.4267 170.08 80.9067 170.08 81.44C170.08 81.9467 169.893 82.4267 169.52 82.88C169.173 83.3067 168.693 83.52 168.08 83.52H165.2V85.16H166.76C167.293 85.16 167.733 85.3067 168.08 85.6C168.427 85.8933 168.653 86.2667 168.76 86.72C168.84 86.6933 168.893 86.64 168.92 86.56C169.72 86.0267 170.547 85.4 171.4 84.68C172.253 83.96 173.067 83.2267 173.84 82.48C174.64 81.7333 175.333 81.0533 175.92 80.44C177.093 79.1867 178.213 78.5733 179.28 78.6C180.347 78.6267 181.56 79.1867 182.92 80.28C183.56 80.76 184.293 81.2933 185.12 81.88C185.947 82.44 186.813 83 187.72 83.56C188.627 84.12 189.467 84.64 190.24 85.12C190.853 85.4667 191.24 85.9867 191.4 86.68C191.587 87.3467 191.507 88 191.16 88.64C190.84 89.28 190.32 89.7333 189.6 90C188.907 90.2667 188.213 90.1867 187.52 89.76L187.12 89.52C187.147 89.6267 187.16 89.7333 187.16 89.84C187.187 89.92 187.2 90.0267 187.2 90.16C187.2 90.7733 187 91.3067 186.6 91.76C186.2 92.1867 185.64 92.4 184.92 92.4H182.48V94.16H184.24C185.6 94.16 186.667 94.32 187.44 94.64C188.213 94.9333 188.747 95.4667 189.04 96.24C189.36 97.0133 189.52 98.08 189.52 99.44C189.52 100.8 189.36 101.867 189.04 102.64C188.747 103.387 188.213 103.92 187.44 104.24C186.667 104.56 185.6 104.72 184.24 104.72H183.4C184.093 105.92 185.04 106.973 186.24 107.88C187.467 108.76 188.773 109.533 190.16 110.2C190.773 110.467 191.16 110.933 191.32 111.6C191.507 112.267 191.44 112.907 191.12 113.52C190.773 114.213 190.227 114.667 189.48 114.88C188.76 115.12 188.027 115.053 187.28 114.68C186.08 114.067 184.84 113.24 183.56 112.2C182.307 111.16 181.213 109.973 180.28 108.64C179.373 109.973 178.28 111.147 177 112.16C175.747 113.2 174.427 114.08 173.04 114.8C172.373 115.147 171.667 115.2 170.92 114.96C170.173 114.747 169.653 114.347 169.36 113.76C169.067 113.067 169.027 112.4 169.24 111.76C169.453 111.093 169.853 110.627 170.44 110.36C171.907 109.667 173.173 108.853 174.24 107.92C175.307 106.96 176.107 105.893 176.64 104.72H175.88C174.52 104.72 173.453 104.56 172.68 104.24C171.933 103.92 171.4 103.387 171.08 102.64C170.76 101.867 170.6 100.8 170.6 99.44C170.6 98.08 170.76 97.0133 171.08 96.24C171.4 95.4667 171.933 94.9333 172.68 94.64C173.453 94.32 174.52 94.16 175.88 94.16H177.36V92.4H174.88C174.187 92.4 173.627 92.1867 173.2 91.76C172.8 91.3067 172.6 90.7733 172.6 90.16C172.6 90.1333 172.6 90.12 172.6 90.12C172.627 90.0933 172.64 90.0667 172.64 90.04L172.12 90.4C171.533 90.8267 170.88 91 170.16 90.92C169.44 90.8133 168.893 90.48 168.52 89.92C168.307 89.6 168.173 89.2533 168.12 88.88C167.933 89.0133 167.733 89.1333 167.52 89.24C167.307 89.32 167.053 89.36 166.76 89.36H165.2V90.96H166.76C167.427 90.96 167.933 91.16 168.28 91.56C168.653 91.96 168.84 92.4533 168.84 93.04C168.84 93.6267 168.653 94.12 168.28 94.52C167.933 94.92 167.427 95.12 166.76 95.12H165.2V96.92H165.28C166.827 96.92 167.947 97.2533 168.64 97.92C169.36 98.5867 169.707 99.6933 169.68 101.24C169.68 102.147 169.653 103.147 169.6 104.24C169.547 105.307 169.48 106.373 169.4 107.44C169.32 108.507 169.213 109.467 169.08 110.32C168.6 113.467 166.587 115.053 163.04 115.08ZM154.44 110.32C154.013 110.347 153.64 110.213 153.32 109.92C153.027 109.627 152.893 109.267 152.92 108.84C152.92 108.467 152.907 107.987 152.88 107.4C152.88 106.787 152.867 106.173 152.84 105.56C152.84 104.947 152.827 104.453 152.8 104.08C152.773 103.653 152.893 103.307 153.16 103.04C153.427 102.773 153.773 102.613 154.2 102.56C154.627 102.507 154.987 102.613 155.28 102.88C155.6 103.147 155.773 103.48 155.8 103.88C155.827 104.253 155.853 104.747 155.88 105.36C155.907 105.973 155.933 106.6 155.96 107.24C155.987 107.853 156 108.36 156 108.76C156.027 109.187 155.893 109.547 155.6 109.84C155.307 110.107 154.92 110.267 154.44 110.32ZM175.36 87.88H184.72C183.973 87.3467 183.24 86.8133 182.52 86.28C181.8 85.72 181.24 85.2533 180.84 84.88C180.387 84.4533 179.987 84.2533 179.64 84.28C179.32 84.28 178.933 84.52 178.48 85C178.133 85.4 177.68 85.8533 177.12 86.36C176.56 86.8667 175.973 87.3733 175.36 87.88ZM158.28 109.32C157.88 109.373 157.533 109.293 157.24 109.08C156.947 108.84 156.787 108.547 156.76 108.2C156.733 107.853 156.693 107.413 156.64 106.88C156.587 106.32 156.533 105.773 156.48 105.24C156.427 104.68 156.373 104.24 156.32 103.92C156.293 103.547 156.387 103.227 156.6 102.96C156.813 102.667 157.093 102.507 157.44 102.48C157.787 102.427 158.107 102.507 158.4 102.72C158.693 102.907 158.853 103.187 158.88 103.56C158.933 103.88 158.987 104.307 159.04 104.84C159.12 105.373 159.187 105.907 159.24 106.44C159.32 106.973 159.373 107.413 159.4 107.76C159.453 108.16 159.373 108.507 159.16 108.8C158.973 109.093 158.68 109.267 158.28 109.32ZM161.6 108.56C161.28 108.613 160.973 108.573 160.68 108.44C160.413 108.28 160.253 107.987 160.2 107.56C160.147 107.027 160.04 106.347 159.88 105.52C159.747 104.693 159.627 104.04 159.52 103.56C159.467 103.16 159.533 102.827 159.72 102.56C159.907 102.267 160.147 102.093 160.44 102.04C161.213 101.907 161.707 102.253 161.92 103.08C162.027 103.56 162.147 104.213 162.28 105.04C162.44 105.867 162.56 106.52 162.64 107C162.693 107.347 162.627 107.68 162.44 108C162.253 108.293 161.973 108.48 161.6 108.56ZM182.48 100.48H183.16C183.853 100.48 184.293 100.413 184.48 100.28C184.667 100.147 184.76 99.8667 184.76 99.44C184.76 98.9867 184.667 98.7067 184.48 98.6C184.293 98.4667 183.853 98.4 183.16 98.4H182.48V100.48ZM177 100.48H177.36V98.4H177C176.307 98.4 175.853 98.4667 175.64 98.6C175.453 98.7067 175.36 98.9867 175.36 99.44C175.36 99.8667 175.453 100.147 175.64 100.28C175.853 100.413 176.307 100.48 177 100.48ZM160.6 96.92H160.92V95.12H159V95.64C159 96.1467 159.093 96.4933 159.28 96.68C159.493 96.84 159.933 96.92 160.6 96.92ZM159 90.96H160.92V89.36H159V90.96ZM159 85.16H160.92V83.52H160.56C159.973 83.52 159.56 83.6267 159.32 83.84C159.107 84.0533 159 84.4533 159 85.04V85.16ZM212 101.68C211.12 101.68 210.307 101.467 209.56 101.04C208.813 100.587 208.213 99.9867 207.76 99.24C207.333 98.4933 207.12 97.68 207.12 96.8C207.12 95.8933 207.333 95.08 207.76 94.36C208.213 93.6133 208.813 93.0267 209.56 92.6C210.307 92.1467 211.12 91.92 212 91.92C212.907 91.92 213.72 92.1467 214.44 92.6C215.187 93.0267 215.773 93.6133 216.2 94.36C216.653 95.08 216.88 95.8933 216.88 96.8C216.88 97.68 216.653 98.4933 216.2 99.24C215.773 99.9867 215.187 100.587 214.44 101.04C213.72 101.467 212.907 101.68 212 101.68ZM239.68 111.68C238.933 112.053 238.147 112.107 237.32 111.84C236.52 111.547 235.933 111.013 235.56 110.24C235.187 109.467 235.133 108.68 235.4 107.88C235.693 107.08 236.227 106.493 237 106.12C240.707 104.333 243.987 102.213 246.84 99.76C249.693 97.3067 252.04 94.6933 253.88 91.92C254.493 91.0133 254.653 90.3467 254.36 89.92C254.093 89.4933 253.453 89.28 252.44 89.28H241.84C241.013 89.28 240.293 88.9733 239.68 88.36C239.067 87.7467 238.76 87.0267 238.76 86.2C238.76 85.3467 239.067 84.6133 239.68 84C240.293 83.3867 241.013 83.08 241.84 83.08H252.76C255.4 83.08 257.427 83.5733 258.84 84.56C260.28 85.52 261.053 86.8533 261.16 88.56C261.293 90.2667 260.72 92.2267 259.44 94.44C259.227 94.84 258.973 95.2533 258.68 95.68C258.413 96.08 258.133 96.4933 257.84 96.92C259.04 97.9067 260.24 98.9733 261.44 100.12C262.64 101.267 263.773 102.373 264.84 103.44C265.933 104.507 266.867 105.44 267.64 106.24C268.227 106.827 268.507 107.56 268.48 108.44C268.48 109.293 268.173 110.027 267.56 110.64C266.973 111.227 266.24 111.52 265.36 111.52C264.48 111.493 263.733 111.187 263.12 110.6C262.4 109.827 261.52 108.92 260.48 107.88C259.467 106.813 258.387 105.72 257.24 104.6C256.12 103.453 255.013 102.4 253.92 101.44C251.893 103.467 249.627 105.387 247.12 107.2C244.64 108.987 242.16 110.48 239.68 111.68ZM294.48 114.32C293.627 114.427 292.853 114.213 292.16 113.68C291.493 113.173 291.107 112.507 291 111.68C290.867 110.48 290.693 109.147 290.48 107.68C290.293 106.187 290.093 104.64 289.88 103.04C287.827 103.28 285.853 103.52 283.96 103.76C282.067 104 280.427 104.213 279.04 104.4C278.213 104.507 277.467 104.293 276.8 103.76C276.133 103.2 275.747 102.507 275.64 101.68C275.56 100.827 275.787 100.067 276.32 99.4C276.853 98.7333 277.547 98.36 278.4 98.28C279.6 98.1467 281.147 97.9867 283.04 97.8C284.933 97.5867 286.933 97.3467 289.04 97.08C288.96 96.4133 288.867 95.76 288.76 95.12C288.68 94.48 288.587 93.84 288.48 93.2C287.093 93.3867 285.76 93.56 284.48 93.72C283.227 93.8533 282.133 93.9867 281.2 94.12C280.347 94.2267 279.587 94 278.92 93.44C278.253 92.88 277.88 92.1867 277.8 91.36C277.72 90.5067 277.947 89.76 278.48 89.12C279.04 88.4533 279.733 88.0667 280.56 87.96C281.333 87.88 282.333 87.7733 283.56 87.64C284.813 87.5067 286.16 87.36 287.6 87.2C287.493 86.48 287.387 85.8 287.28 85.16C287.2 84.52 287.107 83.9467 287 83.44C286.893 82.5867 287.107 81.8267 287.64 81.16C288.173 80.4933 288.853 80.1067 289.68 80C290.533 79.8933 291.293 80.1067 291.96 80.64C292.653 81.1467 293.04 81.8267 293.12 82.68C293.173 83.1867 293.24 83.7733 293.32 84.44C293.427 85.08 293.52 85.7733 293.6 86.52C294.933 86.36 296.187 86.2133 297.36 86.08C298.56 85.9467 299.587 85.8267 300.44 85.72C301.293 85.5867 302.04 85.8 302.68 86.36C303.347 86.92 303.72 87.6267 303.8 88.48C303.88 89.3333 303.653 90.0933 303.12 90.76C302.587 91.4267 301.893 91.7867 301.04 91.84C300.213 91.8933 299.227 91.9867 298.08 92.12C296.933 92.2533 295.707 92.3867 294.4 92.52C294.48 93.1333 294.56 93.76 294.64 94.4C294.747 95.04 294.84 95.6933 294.92 96.36C296.92 96.0933 298.787 95.8533 300.52 95.64C302.28 95.4267 303.707 95.2667 304.8 95.16C305.653 95.0533 306.4 95.2667 307.04 95.8C307.707 96.3333 308.093 97.0267 308.2 97.88C308.307 98.7067 308.093 99.4667 307.56 100.16C307.027 100.827 306.333 101.2 305.48 101.28C304.36 101.387 302.947 101.533 301.24 101.72C299.56 101.907 297.747 102.107 295.8 102.32C296.04 103.947 296.267 105.493 296.48 106.96C296.72 108.427 296.933 109.72 297.12 110.84C297.253 111.667 297.053 112.413 296.52 113.08C296.013 113.773 295.333 114.187 294.48 114.32ZM342.88 107.24C339.013 108.733 335.947 108.973 333.68 107.96C331.44 106.947 330.32 104.72 330.32 101.28V88.12C330.32 87.2667 330.613 86.5467 331.2 85.96C331.813 85.3467 332.547 85.04 333.4 85.04C334.253 85.04 334.973 85.3467 335.56 85.96C336.173 86.5467 336.48 87.2667 336.48 88.12V99.72C336.48 100.867 336.773 101.587 337.36 101.88C337.973 102.147 338.853 102.067 340 101.64C340.667 101.4 341.427 101.107 342.28 100.76C343.133 100.413 344.013 100.04 344.92 99.64C345.827 99.24 346.667 98.8667 347.44 98.52C348.213 98.1733 349 98.1333 349.8 98.4C350.6 98.64 351.2 99.1467 351.6 99.92C351.973 100.667 352.04 101.453 351.8 102.28C351.56 103.107 351.053 103.707 350.28 104.08C349.107 104.64 347.853 105.213 346.52 105.8C345.187 106.36 343.973 106.84 342.88 107.24ZM316.4 109.88C315.653 110.227 314.867 110.267 314.04 110C313.24 109.707 312.653 109.173 312.28 108.4C311.933 107.627 311.907 106.84 312.2 106.04C312.493 105.24 313.013 104.667 313.76 104.32C316.72 102.88 318.8 100.987 320 98.64C321.227 96.2933 321.84 93.4133 321.84 90C321.84 89.1467 322.133 88.4267 322.72 87.84C323.307 87.2267 324.027 86.92 324.88 86.92C325.733 86.92 326.453 87.2267 327.04 87.84C327.627 88.4267 327.92 89.1467 327.92 90C327.867 94.9333 326.867 99.0533 324.92 102.36C322.973 105.64 320.133 108.147 316.4 109.88ZM386.16 112.16C381.493 112.693 377.72 112.773 374.84 112.4C371.987 112.027 369.84 111.187 368.4 109.88C367.227 108.813 366.427 107.573 366 106.16C365.573 104.747 365.36 102.867 365.36 100.52V96.04C363.6 96.3067 361.933 96.5467 360.36 96.76C358.813 96.9733 357.547 97.1467 356.56 97.28C355.733 97.3867 354.987 97.1867 354.32 96.68C353.653 96.1467 353.253 95.4667 353.12 94.64C353.013 93.7867 353.213 93.0267 353.72 92.36C354.227 91.6667 354.893 91.2667 355.72 91.16C356.787 91 358.187 90.8133 359.92 90.6C361.653 90.36 363.453 90.12 365.32 89.88C365.32 88.2267 365.32 86.84 365.32 85.72C365.32 84.5733 365.333 83.9333 365.36 83.8C365.36 82.9467 365.667 82.2267 366.28 81.64C366.893 81.0267 367.613 80.72 368.44 80.72C369.293 80.7467 370.013 81.0667 370.6 81.68C371.213 82.2667 371.52 82.9867 371.52 83.84V89.12C372.907 88.9333 374.12 88.7733 375.16 88.64C376.227 88.5067 376.973 88.4133 377.4 88.36C380.493 87.88 382.853 88.0933 384.48 89C386.107 89.9067 387.053 91.4533 387.32 93.64C387.613 95.96 387.013 97.88 385.52 99.4C384.053 100.92 381.507 102.053 377.88 102.8C377.053 102.987 376.267 102.893 375.52 102.52C374.8 102.12 374.333 101.507 374.12 100.68C373.907 99.8533 374 99.08 374.4 98.36C374.827 97.6133 375.453 97.1467 376.28 96.96C377.613 96.6933 378.587 96.4667 379.2 96.28C379.84 96.0667 380.253 95.8533 380.44 95.64C380.653 95.4267 380.76 95.1733 380.76 94.88C380.76 94.48 380.613 94.2267 380.32 94.12C380.053 93.9867 379.547 93.9867 378.8 94.12C378.293 94.2 377.373 94.3333 376.04 94.52C374.733 94.7067 373.227 94.92 371.52 95.16V100.52C371.52 101.987 371.6 103.027 371.76 103.64C371.947 104.253 372.253 104.747 372.68 105.12C373.16 105.573 373.88 105.92 374.84 106.16C375.827 106.373 377.187 106.467 378.92 106.44C380.653 106.413 382.867 106.28 385.56 106.04C386.413 105.96 387.16 106.187 387.8 106.72C388.467 107.253 388.853 107.947 388.96 108.8C389.04 109.627 388.8 110.373 388.24 111.04C387.707 111.68 387.013 112.053 386.16 112.16ZM387.44 87.84C387.067 88.2133 386.587 88.3867 386 88.36C385.413 88.3333 384.933 88.1067 384.56 87.68C384.293 87.3867 383.893 86.9467 383.36 86.36C382.853 85.7467 382.413 85.2267 382.04 84.8C381.773 84.5067 381.653 84.12 381.68 83.64C381.707 83.1333 381.907 82.6933 382.28 82.32C382.6 82.0267 383 81.8667 383.48 81.84C383.96 81.7867 384.387 81.9067 384.76 82.2C385.213 82.52 385.72 82.9467 386.28 83.48C386.84 84.0133 387.293 84.5067 387.64 84.96C387.987 85.3867 388.147 85.8667 388.12 86.4C388.093 86.9333 387.867 87.4133 387.44 87.84ZM388.48 83.96C388.213 83.6667 387.773 83.2533 387.16 82.72C386.573 82.1867 386.08 81.7333 385.68 81.36C385.413 81.0667 385.253 80.68 385.2 80.2C385.173 79.72 385.333 79.2667 385.68 78.84C385.973 78.52 386.347 78.32 386.8 78.24C387.28 78.16 387.72 78.24 388.12 78.48C388.6 78.7467 389.147 79.12 389.76 79.6C390.373 80.08 390.88 80.5333 391.28 80.96C391.653 81.36 391.853 81.8267 391.88 82.36C391.907 82.8933 391.733 83.3867 391.36 83.84C391.013 84.24 390.547 84.4667 389.96 84.52C389.4 84.5467 388.907 84.36 388.48 83.96ZM412 110.28C409.2 110.28 406.88 110.08 405.04 109.68C403.2 109.253 401.747 108.56 400.68 107.6C399.64 106.64 398.893 105.347 398.44 103.72C398.013 102.067 397.8 100.013 397.8 97.56C397.8 95.1067 398.013 93.0667 398.44 91.44C398.893 89.7867 399.64 88.48 400.68 87.52C401.747 86.56 403.2 85.88 405.04 85.48C406.88 85.0533 409.2 84.84 412 84.84C414.8 84.84 417.12 85.0533 418.96 85.48C420.8 85.88 422.24 86.56 423.28 87.52C424.347 88.48 425.093 89.7867 425.52 91.44C425.973 93.0667 426.2 95.1067 426.2 97.56C426.2 100.013 425.973 102.067 425.52 103.72C425.093 105.347 424.347 106.64 423.28 107.6C422.24 108.56 420.8 109.253 418.96 109.68C417.12 110.08 414.8 110.28 412 110.28ZM412 104.24C413.787 104.24 415.213 104.147 416.28 103.96C417.347 103.773 418.147 103.453 418.68 103C419.213 102.52 419.56 101.84 419.72 100.96C419.907 100.08 420 98.9467 420 97.56C420 96.1467 419.907 95.0133 419.72 94.16C419.56 93.28 419.213 92.6 418.68 92.12C418.147 91.64 417.347 91.32 416.28 91.16C415.213 90.9733 413.787 90.88 412 90.88C410.213 90.88 408.787 90.9733 407.72 91.16C406.653 91.32 405.853 91.64 405.32 92.12C404.787 92.6 404.427 93.28 404.24 94.16C404.08 95.0133 404 96.1467 404 97.56C404 98.9467 404.08 100.08 404.24 100.96C404.427 101.84 404.787 102.52 405.32 103C405.853 103.453 406.653 103.773 407.72 103.96C408.787 104.147 410.213 104.24 412 104.24ZM456.68 112.32C455.88 112.507 455.12 112.4 454.4 112C453.68 111.573 453.213 110.96 453 110.16C452.813 109.36 452.933 108.613 453.36 107.92C453.787 107.2 454.387 106.747 455.16 106.56C458.067 105.84 460.12 104.653 461.32 103C462.547 101.347 463.16 99.2533 463.16 96.72C463.16 94.4533 462.44 92.5467 461 91C459.587 89.4533 457.573 88.5067 454.96 88.16C454.427 92.72 453.56 96.6267 452.36 99.88C451.187 103.133 449.8 105.627 448.2 107.36C446.627 109.093 444.973 109.96 443.24 109.96C441.72 109.96 440.333 109.533 439.08 108.68C437.827 107.827 436.827 106.6 436.08 105C435.333 103.373 434.96 101.4 434.96 99.08C434.96 96.84 435.387 94.7333 436.24 92.76C437.093 90.76 438.307 89 439.88 87.48C441.453 85.9333 443.32 84.7333 445.48 83.88C447.667 83 450.08 82.56 452.72 82.56C455.093 82.56 457.267 82.9067 459.24 83.6C461.24 84.2667 462.96 85.2267 464.4 86.48C465.867 87.7333 467 89.2267 467.8 90.96C468.6 92.6933 469 94.6133 469 96.72C469 100.747 467.987 104.107 465.96 106.8C463.933 109.467 460.84 111.307 456.68 112.32ZM443.28 103.88C443.733 103.88 444.347 103.253 445.12 102C445.893 100.72 446.667 98.92 447.44 96.6C448.213 94.28 448.8 91.5467 449.2 88.4C447.36 88.8533 445.813 89.6267 444.56 90.72C443.307 91.7867 442.36 93.0533 441.72 94.52C441.107 95.96 440.787 97.4533 440.76 99C440.733 100.707 440.947 101.947 441.4 102.72C441.88 103.493 442.507 103.88 443.28 103.88ZM86.76 171.92C86.04 172.427 85.2133 172.6 84.28 172.44C83.3733 172.28 82.6933 171.84 82.24 171.12C82.0533 170.827 81.84 170.507 81.6 170.16C81.3867 169.813 81.16 169.453 80.92 169.08C79.72 169.24 78.3333 169.413 76.76 169.6C75.2133 169.787 73.5733 169.973 71.84 170.16C70.1333 170.373 68.44 170.573 66.76 170.76C65.1067 170.947 63.56 171.107 62.12 171.24C60.68 171.4 59.4667 171.533 58.48 171.64C57.4933 171.747 56.68 171.547 56.04 171.04C55.4267 170.56 55.08 169.867 55 168.96C54.92 168.187 55.1333 167.52 55.64 166.96C56.1467 166.373 56.8533 166.04 57.76 165.96C58.6933 165.907 59.76 165.827 60.96 165.72C61.4933 164.707 62.08 163.533 62.72 162.2C63.36 160.867 64.0133 159.493 64.68 158.08C65.3467 156.667 65.96 155.32 66.52 154.04C67.1067 152.733 67.5733 151.64 67.92 150.76C68.2133 149.96 68.7467 149.4 69.52 149.08C70.2933 148.733 71.08 148.707 71.88 149C72.68 149.293 73.2533 149.827 73.6 150.6C73.9733 151.373 73.9733 152.147 73.6 152.92C73.1733 153.907 72.6133 155.107 71.92 156.52C71.2533 157.933 70.5467 159.4 69.8 160.92C69.0533 162.44 68.3333 163.853 67.64 165.16C69.32 165.027 71 164.88 72.68 164.72C74.36 164.56 75.9067 164.413 77.32 164.28C76.84 163.667 76.3733 163.093 75.92 162.56C75.4667 162 75.0533 161.507 74.68 161.08C74.1733 160.52 73.9333 159.853 73.96 159.08C73.9867 158.28 74.28 157.64 74.84 157.16C75.4533 156.627 76.1467 156.373 76.92 156.4C77.6933 156.4 78.3733 156.693 78.96 157.28C79.84 158.16 80.8 159.213 81.84 160.44C82.9067 161.667 83.9333 162.907 84.92 164.16C85.9067 165.387 86.7333 166.467 87.4 167.4C87.9333 168.147 88.1467 168.96 88.04 169.84C87.9333 170.693 87.5067 171.387 86.76 171.92ZM85.84 156.88C83.84 155.253 81.9867 153.4 80.28 151.32C78.5733 149.213 77.1867 147.16 76.12 145.16C75.8267 144.6 75.56 144.187 75.32 143.92C75.1067 143.653 74.8267 143.48 74.48 143.4C74.1333 143.32 73.6133 143.28 72.92 143.28H70.56C69.84 143.28 69.2133 143.013 68.68 142.48C68.1733 141.947 67.92 141.32 67.92 140.6C67.92 139.853 68.1733 139.213 68.68 138.68C69.2133 138.147 69.84 137.88 70.56 137.88H72.92C74.5467 137.88 75.84 138 76.8 138.24C77.76 138.48 78.56 138.92 79.2 139.56C79.84 140.2 80.4933 141.107 81.16 142.28C82.0933 143.907 83.3067 145.573 84.8 147.28C86.2933 148.987 87.9733 150.547 89.84 151.96C90.56 152.467 91 153.173 91.16 154.08C91.3467 154.96 91.1467 155.747 90.56 156.44C89.9733 157.16 89.2133 157.56 88.28 157.64C87.3733 157.72 86.56 157.467 85.84 156.88ZM53.96 157.28C53.3733 156.693 53.08 156 53.08 155.2C53.1067 154.373 53.44 153.64 54.08 153C54.7733 152.307 55.48 151.507 56.2 150.6C56.9467 149.667 57.6667 148.707 58.36 147.72C59.08 146.707 59.7333 145.733 60.32 144.8C60.9067 143.867 61.3733 143.027 61.72 142.28C62.0933 141.48 62.6667 140.973 63.44 140.76C64.2133 140.52 64.96 140.587 65.68 140.96C66.4267 141.36 66.92 141.92 67.16 142.64C67.4267 143.36 67.3733 144.093 67 144.84C66.3067 146.307 65.4933 147.787 64.56 149.28C63.6267 150.747 62.6533 152.133 61.64 153.44C60.6267 154.747 59.64 155.907 58.68 156.92C58.0667 157.587 57.3067 157.987 56.4 158.12C55.4933 158.227 54.68 157.947 53.96 157.28ZM98.72 173.64C97.92 173.667 97.24 173.427 96.68 172.92C96.1467 172.413 95.8667 171.76 95.84 170.96C95.8133 170.213 96.0533 169.573 96.56 169.04C97.0667 168.48 97.7067 168.173 98.48 168.12C98.96 168.093 99.28 168.013 99.44 167.88C99.6 167.72 99.68 167.44 99.68 167.04V161.8C99.28 162.333 98.8933 162.84 98.52 163.32C98.1467 163.8 97.7867 164.227 97.44 164.6C96.9333 165.16 96.3067 165.48 95.56 165.56C94.8133 165.613 94.1467 165.387 93.56 164.88C93.0533 164.427 92.7867 163.867 92.76 163.2C92.7333 162.507 92.9467 161.907 93.4 161.4C93.8267 160.92 94.32 160.333 94.88 159.64C95.44 158.947 96 158.213 96.56 157.44C97.1467 156.667 97.6933 155.92 98.2 155.2C98.7333 154.453 99.1733 153.813 99.52 153.28H95.56C94.92 153.28 94.3733 153.053 93.92 152.6C93.4667 152.12 93.24 151.56 93.24 150.92C93.24 150.28 93.4667 149.733 93.92 149.28C94.3733 148.8 94.92 148.56 95.56 148.56H101.12C100.48 148.187 99.8267 147.813 99.16 147.44C98.52 147.067 98 146.76 97.6 146.52C97.04 146.227 96.6667 145.747 96.48 145.08C96.32 144.387 96.4133 143.773 96.76 143.24C97.1333 142.627 97.6267 142.24 98.24 142.08C98.8533 141.92 99.4667 142 100.08 142.32C100.32 142.427 100.613 142.587 100.96 142.8C101.307 142.987 101.68 143.187 102.08 143.4C102.293 143.267 102.56 143.067 102.88 142.8C103.2 142.507 103.4 142.333 103.48 142.28C103.773 142.067 103.893 141.88 103.84 141.72C103.813 141.533 103.6 141.44 103.2 141.44L96.08 141.4C95.4933 141.4 95 141.2 94.6 140.8C94.2 140.4 94 139.907 94 139.32C94 138.733 94.2 138.24 94.6 137.84C95 137.44 95.4933 137.24 96.08 137.24H105.4C106.6 137.24 107.547 137.48 108.24 137.96C108.96 138.413 109.413 139.013 109.6 139.76C109.813 140.48 109.76 141.253 109.44 142.08C109.12 142.88 108.52 143.627 107.64 144.32C107.32 144.587 107.013 144.827 106.72 145.04C106.453 145.253 106.187 145.467 105.92 145.68C106.373 146.027 106.68 146.467 106.84 147C107 147.533 106.973 148.053 106.76 148.56H107.16C108.867 148.56 110.093 148.92 110.84 149.64C111.587 150.36 111.893 151.32 111.76 152.52C111.84 152.467 111.92 152.427 112 152.4C112.08 152.373 112.16 152.347 112.24 152.32C113.733 151.76 115.16 151.053 116.52 150.2C115.587 149.053 114.773 147.8 114.08 146.44C113.947 146.627 113.8 146.813 113.64 147C113.507 147.16 113.373 147.32 113.24 147.48C112.76 148.04 112.173 148.36 111.48 148.44C110.787 148.52 110.133 148.333 109.52 147.88C109.013 147.48 108.707 146.947 108.6 146.28C108.52 145.613 108.72 145.013 109.2 144.48C109.867 143.707 110.52 142.867 111.16 141.96C111.827 141.027 112.427 140.133 112.96 139.28C113.493 138.4 113.92 137.667 114.24 137.08C114.587 136.413 115.107 135.987 115.8 135.8C116.493 135.587 117.147 135.653 117.76 136C118.4 136.347 118.813 136.813 119 137.4C119.187 137.987 119.12 138.587 118.8 139.2C118.773 139.227 118.747 139.28 118.72 139.36C118.693 139.413 118.667 139.467 118.64 139.52H128.48C129.093 139.52 129.627 139.747 130.08 140.2C130.533 140.653 130.76 141.187 130.76 141.8C130.76 142.413 130.533 142.947 130.08 143.4C129.627 143.853 129.093 144.08 128.48 144.08H127.48C127.08 145.147 126.6 146.173 126.04 147.16C125.507 148.147 124.893 149.08 124.2 149.96C125.613 150.76 127.28 151.44 129.2 152C129.893 152.213 130.387 152.64 130.68 153.28C131 153.893 131.027 154.56 130.76 155.28C130.493 156.107 129.987 156.653 129.24 156.92C128.493 157.16 127.733 157.16 126.96 156.92C124.453 156.147 122.227 155.067 120.28 153.68C120.12 153.787 119.96 153.893 119.8 154C119.64 154.107 119.48 154.213 119.32 154.32C120.013 154.453 120.547 154.8 120.92 155.36C121.293 155.893 121.427 156.507 121.32 157.2C121.293 157.387 121.267 157.573 121.24 157.76C121.24 157.92 121.213 158.093 121.16 158.28H122.36C124.04 158.28 125.36 158.467 126.32 158.84C127.28 159.187 127.947 159.813 128.32 160.72C128.693 161.6 128.813 162.827 128.68 164.4C128.653 164.853 128.6 165.293 128.52 165.72C128.467 166.147 128.373 166.733 128.24 167.48C127.787 169.747 126.973 171.293 125.8 172.12C124.653 172.947 123.04 173.36 120.96 173.36C120.133 173.36 119.44 173.12 118.88 172.64C118.347 172.187 118.053 171.52 118 170.64C117.973 169.867 118.213 169.227 118.72 168.72C119.253 168.187 119.893 167.907 120.64 167.88C121.333 167.827 121.84 167.693 122.16 167.48C122.48 167.24 122.733 166.76 122.92 166.04C122.973 165.827 123.013 165.627 123.04 165.44C123.093 165.227 123.133 165 123.16 164.76C123.293 164.067 123.253 163.613 123.04 163.4C122.827 163.16 122.387 163.04 121.72 163.04H119.88C119.133 165.12 118.04 167 116.6 168.68C115.187 170.36 113.333 171.72 111.04 172.76C110.293 173.08 109.52 173.2 108.72 173.12C107.92 173.04 107.307 172.627 106.88 171.88C106.48 171.187 106.413 170.467 106.68 169.72C106.973 168.973 107.48 168.467 108.2 168.2C109.747 167.587 111 166.853 111.96 166C112.92 165.147 113.693 164.16 114.28 163.04H111.12C110.453 163.04 109.893 162.813 109.44 162.36C108.987 161.88 108.76 161.307 108.76 160.64C108.76 159.973 108.987 159.413 109.44 158.96C109.893 158.507 110.453 158.28 111.12 158.28H115.72C115.773 157.987 115.813 157.707 115.84 157.44C115.867 157.173 115.893 156.907 115.92 156.64C115.947 156.533 115.96 156.44 115.96 156.36C115.987 156.28 116.013 156.2 116.04 156.12C115.747 156.253 115.44 156.4 115.12 156.56C114.8 156.693 114.48 156.827 114.16 156.96C113.413 157.227 112.72 157.267 112.08 157.08C111.467 156.867 111 156.467 110.68 155.88C110.493 156.307 110.293 156.747 110.08 157.2C109.893 157.627 109.733 158 109.6 158.32C109.307 158.96 108.84 159.413 108.2 159.68C107.56 159.92 106.92 159.907 106.28 159.64C105.613 159.347 105.173 158.867 104.96 158.2V167.6C104.96 169.84 104.467 171.4 103.48 172.28C102.493 173.16 100.907 173.613 98.72 173.64ZM120.32 146.84C121.04 145.96 121.64 145.04 122.12 144.08H118.4C118.693 144.587 119 145.08 119.32 145.56C119.64 146.013 119.973 146.44 120.32 146.84ZM104.96 156.64C104.96 156.587 104.973 156.547 105 156.52C105.027 156.493 105.107 156.333 105.24 156.04C105.373 155.747 105.507 155.453 105.64 155.16C105.773 154.84 105.84 154.667 105.84 154.64C106.08 154.053 106.133 153.68 106 153.52C105.893 153.36 105.573 153.28 105.04 153.28H104.96V156.64ZM140.2 173.16C139.373 173.507 138.587 173.573 137.84 173.36C137.093 173.173 136.547 172.72 136.2 172C135.853 171.307 135.8 170.627 136.04 169.96C136.28 169.293 136.72 168.84 137.36 168.6C138.24 168.307 139.32 167.893 140.6 167.36C141.88 166.8 143.027 166.267 144.04 165.76C141.853 165.627 140.333 165.107 139.48 164.2C138.627 163.267 138.2 161.68 138.2 159.44V153.56C138.2 151.907 138.427 150.627 138.88 149.72C139.333 148.787 140.08 148.133 141.12 147.76C142.187 147.387 143.613 147.2 145.4 147.2H158.68C160.493 147.2 161.92 147.387 162.96 147.76C164 148.133 164.747 148.787 165.2 149.72C165.653 150.627 165.88 151.907 165.88 153.56V159.44C165.88 161.68 165.453 163.267 164.6 164.2C163.747 165.107 162.227 165.627 160.04 165.76C161.053 166.267 162.173 166.773 163.4 167.28C164.653 167.787 165.72 168.187 166.6 168.48C167.24 168.72 167.68 169.187 167.92 169.88C168.187 170.547 168.173 171.227 167.88 171.92C167.56 172.667 167.027 173.147 166.28 173.36C165.533 173.573 164.733 173.507 163.88 173.16C163.133 172.84 162.24 172.44 161.2 171.96C160.187 171.507 159.187 171.013 158.2 170.48C157.213 169.973 156.373 169.493 155.68 169.04C155.093 168.64 154.76 168.147 154.68 167.56C154.6 166.947 154.733 166.36 155.08 165.8H149C149.373 166.36 149.507 166.947 149.4 167.56C149.32 168.147 148.987 168.64 148.4 169.04C147.733 169.493 146.893 169.973 145.88 170.48C144.893 171.013 143.893 171.507 142.88 171.96C141.867 172.44 140.973 172.84 140.2 173.16ZM145.08 146.08C143.64 146.08 142.507 145.947 141.68 145.68C140.853 145.413 140.267 144.947 139.92 144.28C139.573 143.613 139.4 142.667 139.4 141.44C139.4 140.213 139.573 139.28 139.92 138.64C140.267 137.973 140.853 137.507 141.68 137.24C142.507 136.973 143.64 136.84 145.08 136.84H158.96C160.427 136.84 161.56 136.973 162.36 137.24C163.187 137.507 163.773 137.973 164.12 138.64C164.467 139.28 164.64 140.213 164.64 141.44C164.64 142.667 164.467 143.613 164.12 144.28C163.773 144.947 163.187 145.413 162.36 145.68C161.56 145.947 160.427 146.08 158.96 146.08H145.08ZM144.4 157.16H159.68V155.8H144.4V157.16ZM146.68 161.88H157.4C158.253 161.88 158.827 161.813 159.12 161.68C159.44 161.52 159.627 161.133 159.68 160.52H144.4C144.453 161.133 144.627 161.52 144.92 161.68C145.24 161.813 145.827 161.88 146.68 161.88ZM144.4 152.44H159.68C159.627 151.827 159.44 151.453 159.12 151.32C158.827 151.187 158.253 151.12 157.4 151.12H146.68C145.827 151.12 145.24 151.187 144.92 151.32C144.627 151.453 144.453 151.827 144.4 152.44ZM146.88 142.2H157.12C157.787 142.2 158.213 142.16 158.4 142.08C158.587 142 158.68 141.787 158.68 141.44C158.68 141.093 158.587 140.893 158.4 140.84C158.213 140.76 157.787 140.72 157.12 140.72H146.88C146.213 140.72 145.787 140.76 145.6 140.84C145.44 140.893 145.36 141.093 145.36 141.44C145.36 141.787 145.44 142 145.6 142.08C145.787 142.16 146.213 142.2 146.88 142.2ZM192 159.68C191.12 159.68 190.307 159.467 189.56 159.04C188.813 158.587 188.213 157.987 187.76 157.24C187.333 156.493 187.12 155.68 187.12 154.8C187.12 153.893 187.333 153.08 187.76 152.36C188.213 151.613 188.813 151.027 189.56 150.6C190.307 150.147 191.12 149.92 192 149.92C192.907 149.92 193.72 150.147 194.44 150.6C195.187 151.027 195.773 151.613 196.2 152.36C196.653 153.08 196.88 153.893 196.88 154.8C196.88 155.68 196.653 156.493 196.2 157.24C195.773 157.987 195.187 158.587 194.44 159.04C193.72 159.467 192.907 159.68 192 159.68ZM220.84 172.04C219.933 172.12 219.2 171.933 218.64 171.48C218.107 171.053 217.787 170.427 217.68 169.6C217.573 168.853 217.813 168.213 218.4 167.68C218.987 167.147 219.72 166.867 220.6 166.84C220.893 166.813 221.187 166.8 221.48 166.8C221.8 166.8 222.12 166.787 222.44 166.76C222.813 166.067 223.28 165.173 223.84 164.08C224.4 162.96 224.92 161.907 225.4 160.92H218.88C218.213 160.92 217.64 160.68 217.16 160.2C216.707 159.693 216.48 159.107 216.48 158.44C216.48 157.773 216.707 157.187 217.16 156.68C217.64 156.173 218.213 155.92 218.88 155.92H245.36C246 155.92 246.547 156.173 247 156.68C247.48 157.187 247.72 157.773 247.72 158.44C247.72 159.107 247.48 159.693 247 160.2C246.547 160.68 246 160.92 245.36 160.92H231.44C231.12 161.613 230.72 162.453 230.24 163.44C229.76 164.4 229.28 165.347 228.8 166.28C230.16 166.147 231.52 166.013 232.88 165.88C234.267 165.747 235.573 165.627 236.8 165.52L236.6 165.32C236.173 164.893 235.947 164.333 235.92 163.64C235.92 162.92 236.173 162.333 236.68 161.88C237.267 161.347 237.933 161.093 238.68 161.12C239.427 161.147 240.08 161.427 240.64 161.96C241.573 162.84 242.547 163.827 243.56 164.92C244.6 166.013 245.547 167.067 246.4 168.08C246.88 168.667 247.12 169.347 247.12 170.12C247.12 170.92 246.813 171.56 246.2 172.04C245.587 172.547 244.867 172.76 244.04 172.68C243.24 172.627 242.613 172.307 242.16 171.72C241.92 171.4 241.667 171.08 241.4 170.76C241.16 170.44 240.893 170.107 240.6 169.76C239.267 169.947 237.733 170.147 236 170.36C234.267 170.573 232.467 170.787 230.6 171C228.733 171.213 226.947 171.413 225.24 171.6C223.56 171.787 222.093 171.933 220.84 172.04ZM217.6 152.64C216.827 153.093 216.027 153.267 215.2 153.16C214.373 153.027 213.747 152.587 213.32 151.84C212.973 151.2 212.893 150.547 213.08 149.88C213.293 149.187 213.787 148.587 214.56 148.08C215.92 147.227 217.36 146.293 218.88 145.28C220.4 144.24 221.88 143.187 223.32 142.12C224.787 141.053 226.067 140.053 227.16 139.12C228.36 138.107 229.427 137.427 230.36 137.08C231.32 136.707 232.28 136.68 233.24 137C234.2 137.32 235.32 137.973 236.6 138.96C237.32 139.52 238.2 140.173 239.24 140.92C240.28 141.667 241.387 142.44 242.56 143.24C243.733 144.04 244.907 144.827 246.08 145.6C247.253 146.347 248.333 147.027 249.32 147.64C250.253 148.2 250.813 148.867 251 149.64C251.213 150.387 251.093 151.12 250.64 151.84C250.213 152.533 249.547 152.96 248.64 153.12C247.76 153.253 246.893 153.04 246.04 152.48C245.16 151.893 244.16 151.213 243.04 150.44C241.92 149.64 240.773 148.8 239.6 147.92C238.427 147.04 237.307 146.187 236.24 145.36C235.173 144.533 234.253 143.8 233.48 143.16C232.867 142.653 232.347 142.4 231.92 142.4C231.52 142.373 231.013 142.627 230.4 143.16C229.573 143.853 228.627 144.627 227.56 145.48C226.52 146.333 225.413 147.2 224.24 148.08C223.067 148.96 221.907 149.8 220.76 150.6C219.64 151.4 218.587 152.08 217.6 152.64ZM225.24 153.8C224.573 153.8 224.013 153.547 223.56 153.04C223.107 152.533 222.88 151.947 222.88 151.28C222.88 150.64 223.107 150.067 223.56 149.56C224.013 149.053 224.573 148.8 225.24 148.8H238.72C239.387 148.8 239.947 149.053 240.4 149.56C240.853 150.067 241.08 150.64 241.08 151.28C241.08 151.947 240.853 152.533 240.4 153.04C239.947 153.547 239.387 153.8 238.72 153.8H225.24ZM270.32 171.88C269.573 171.88 268.92 171.6 268.36 171.04C267.8 170.48 267.52 169.813 267.52 169.04C267.52 168.267 267.8 167.613 268.36 167.08C268.92 166.52 269.573 166.24 270.32 166.24H276.72V153.64H272.84C272.067 153.64 271.4 153.36 270.84 152.8C270.28 152.24 270 151.573 270 150.8C270 150.027 270.28 149.36 270.84 148.8C271.4 148.24 272.067 147.96 272.84 147.96H276.72V139.16C276.72 138.253 277 137.533 277.56 137C278.147 136.44 278.853 136.16 279.68 136.16C280.507 136.16 281.213 136.44 281.8 137C282.387 137.533 282.68 138.253 282.68 139.16V147.96H287.12C287.893 147.96 288.56 148.24 289.12 148.8C289.68 149.36 289.96 150.027 289.96 150.8C289.96 151.573 289.68 152.24 289.12 152.8C288.56 153.36 287.893 153.64 287.12 153.64H282.68V166.24H288.12C288.893 166.24 289.547 166.52 290.08 167.08C290.64 167.613 290.92 168.267 290.92 169.04C290.92 169.813 290.64 170.48 290.08 171.04C289.547 171.6 288.893 171.88 288.12 171.88H270.32ZM262.6 173.48C261.8 173.48 261.12 173.213 260.56 172.68C260 172.173 259.72 171.48 259.72 170.6V161.08C259.4 161.373 259.067 161.653 258.72 161.92C258.4 162.187 258.067 162.467 257.72 162.76C257.053 163.267 256.293 163.493 255.44 163.44C254.587 163.36 253.907 162.973 253.4 162.28C252.893 161.587 252.72 160.867 252.88 160.12C253.04 159.373 253.44 158.787 254.08 158.36C255.093 157.667 256.16 156.84 257.28 155.88C258.427 154.92 259.507 153.933 260.52 152.92C261.533 151.88 262.36 150.92 263 150.04C263.72 149.08 263.467 148.6 262.24 148.6H256.08C255.36 148.6 254.733 148.347 254.2 147.84C253.693 147.307 253.44 146.68 253.44 145.96C253.44 145.213 253.693 144.587 254.2 144.08C254.733 143.547 255.36 143.28 256.08 143.28H259.72V138.92C259.72 138.067 260 137.387 260.56 136.88C261.12 136.347 261.8 136.08 262.6 136.08C263.373 136.08 264.04 136.347 264.6 136.88C265.16 137.387 265.44 138.067 265.44 138.92V143.4C267.627 143.693 268.987 144.56 269.52 146C270.08 147.413 269.693 149.147 268.36 151.2C268.2 151.467 268.027 151.733 267.84 152C267.68 152.24 267.507 152.493 267.32 152.76C267.773 153.053 268.293 153.4 268.88 153.8C269.493 154.173 270.067 154.533 270.6 154.88C271.133 155.2 271.52 155.44 271.76 155.6C272.4 156 272.787 156.573 272.92 157.32C273.08 158.067 272.933 158.773 272.48 159.44C272.053 160.107 271.453 160.507 270.68 160.64C269.907 160.773 269.2 160.613 268.56 160.16C268.293 159.973 267.853 159.667 267.24 159.24C266.653 158.813 266.053 158.387 265.44 157.96V170.6C265.44 171.48 265.16 172.173 264.6 172.68C264.04 173.213 263.373 173.48 262.6 173.48ZM300.2 173.16C299.373 173.507 298.587 173.573 297.84 173.36C297.093 173.173 296.547 172.72 296.2 172C295.853 171.307 295.8 170.627 296.04 169.96C296.28 169.293 296.72 168.84 297.36 168.6C298.24 168.307 299.32 167.893 300.6 167.36C301.88 166.8 303.027 166.267 304.04 165.76C301.853 165.627 300.333 165.107 299.48 164.2C298.627 163.267 298.2 161.68 298.2 159.44V153.56C298.2 151.907 298.427 150.627 298.88 149.72C299.333 148.787 300.08 148.133 301.12 147.76C302.187 147.387 303.613 147.2 305.4 147.2H318.68C320.493 147.2 321.92 147.387 322.96 147.76C324 148.133 324.747 148.787 325.2 149.72C325.653 150.627 325.88 151.907 325.88 153.56V159.44C325.88 161.68 325.453 163.267 324.6 164.2C323.747 165.107 322.227 165.627 320.04 165.76C321.053 166.267 322.173 166.773 323.4 167.28C324.653 167.787 325.72 168.187 326.6 168.48C327.24 168.72 327.68 169.187 327.92 169.88C328.187 170.547 328.173 171.227 327.88 171.92C327.56 172.667 327.027 173.147 326.28 173.36C325.533 173.573 324.733 173.507 323.88 173.16C323.133 172.84 322.24 172.44 321.2 171.96C320.187 171.507 319.187 171.013 318.2 170.48C317.213 169.973 316.373 169.493 315.68 169.04C315.093 168.64 314.76 168.147 314.68 167.56C314.6 166.947 314.733 166.36 315.08 165.8H309C309.373 166.36 309.507 166.947 309.4 167.56C309.32 168.147 308.987 168.64 308.4 169.04C307.733 169.493 306.893 169.973 305.88 170.48C304.893 171.013 303.893 171.507 302.88 171.96C301.867 172.44 300.973 172.84 300.2 173.16ZM305.08 146.08C303.64 146.08 302.507 145.947 301.68 145.68C300.853 145.413 300.267 144.947 299.92 144.28C299.573 143.613 299.4 142.667 299.4 141.44C299.4 140.213 299.573 139.28 299.92 138.64C300.267 137.973 300.853 137.507 301.68 137.24C302.507 136.973 303.64 136.84 305.08 136.84H318.96C320.427 136.84 321.56 136.973 322.36 137.24C323.187 137.507 323.773 137.973 324.12 138.64C324.467 139.28 324.64 140.213 324.64 141.44C324.64 142.667 324.467 143.613 324.12 144.28C323.773 144.947 323.187 145.413 322.36 145.68C321.56 145.947 320.427 146.08 318.96 146.08H305.08ZM304.4 157.16H319.68V155.8H304.4V157.16ZM306.68 161.88H317.4C318.253 161.88 318.827 161.813 319.12 161.68C319.44 161.52 319.627 161.133 319.68 160.52H304.4C304.453 161.133 304.627 161.52 304.92 161.68C305.24 161.813 305.827 161.88 306.68 161.88ZM304.4 152.44H319.68C319.627 151.827 319.44 151.453 319.12 151.32C318.827 151.187 318.253 151.12 317.4 151.12H306.68C305.827 151.12 305.24 151.187 304.92 151.32C304.627 151.453 304.453 151.827 304.4 152.44ZM306.88 142.2H317.12C317.787 142.2 318.213 142.16 318.4 142.08C318.587 142 318.68 141.787 318.68 141.44C318.68 141.093 318.587 140.893 318.4 140.84C318.213 140.76 317.787 140.72 317.12 140.72H306.88C306.213 140.72 305.787 140.76 305.6 140.84C305.44 140.893 305.36 141.093 305.36 141.44C305.36 141.787 305.44 142 305.6 142.08C305.787 142.16 306.213 142.2 306.88 142.2ZM346.44 171.52C345.613 171.387 344.947 171 344.44 170.36C343.96 169.72 343.773 168.987 343.88 168.16C343.987 167.333 344.36 166.68 345 166.2C345.667 165.693 346.4 165.493 347.2 165.6C348.027 165.707 348.733 165.733 349.32 165.68C349.933 165.6 350.44 165.333 350.84 164.88C351.267 164.4 351.627 163.653 351.92 162.64C352.24 161.627 352.52 160.227 352.76 158.44C353 156.813 353.027 155.587 352.84 154.76C352.653 153.933 352.227 153.387 351.56 153.12C350.893 152.827 349.947 152.72 348.72 152.8C347.733 156.187 346.493 159.467 345 162.64C343.533 165.813 341.893 168.507 340.08 170.72C339.573 171.333 338.907 171.693 338.08 171.8C337.28 171.907 336.56 171.707 335.92 171.2C335.28 170.693 334.907 170.027 334.8 169.2C334.693 168.373 334.893 167.653 335.4 167.04C336.84 165.307 338.173 163.253 339.4 160.88C340.653 158.507 341.733 156 342.64 153.36C341.947 153.413 341.253 153.48 340.56 153.56C339.867 153.64 339.213 153.707 338.6 153.76C337.773 153.84 337.04 153.627 336.4 153.12C335.76 152.613 335.4 151.947 335.32 151.12C335.213 150.293 335.413 149.56 335.92 148.92C336.453 148.28 337.133 147.92 337.96 147.84C338.973 147.733 340.013 147.64 341.08 147.56C342.147 147.48 343.213 147.4 344.28 147.32C344.493 146.227 344.68 145.16 344.84 144.12C345 143.053 345.107 142 345.16 140.96C345.213 140.133 345.547 139.453 346.16 138.92C346.773 138.36 347.493 138.107 348.32 138.16C349.147 138.213 349.84 138.547 350.4 139.16C350.96 139.773 351.2 140.493 351.12 141.32C350.88 143.16 350.56 145.093 350.16 147.12C353.653 147.28 356.053 148.333 357.36 150.28C358.667 152.2 359.053 155.187 358.52 159.24C358.093 162.68 357.387 165.347 356.4 167.24C355.413 169.133 354.107 170.387 352.48 171C350.853 171.64 348.84 171.813 346.44 171.52ZM369.28 159.6C368.56 160 367.8 160.08 367 159.84C366.227 159.6 365.64 159.133 365.24 158.44C364.787 157.64 364.213 156.773 363.52 155.84C362.827 154.88 362.107 153.96 361.36 153.08C360.64 152.2 359.973 151.44 359.36 150.8C358.8 150.187 358.493 149.493 358.44 148.72C358.387 147.92 358.64 147.227 359.2 146.64C359.76 146.027 360.453 145.72 361.28 145.72C362.107 145.693 362.813 145.973 363.4 146.56C364.787 147.867 366.093 149.333 367.32 150.96C368.573 152.56 369.613 154.093 370.44 155.56C370.867 156.28 370.96 157.04 370.72 157.84C370.48 158.64 370 159.227 369.28 159.6ZM388.84 172.12C388.013 172.12 387.307 171.827 386.72 171.24C386.133 170.68 385.827 169.987 385.8 169.16C385.773 168.333 386.04 167.627 386.6 167.04C387.187 166.453 387.893 166.16 388.72 166.16C392.32 166.107 395 165.573 396.76 164.56C398.547 163.547 399.44 162.147 399.44 160.36C399.44 159.187 399.027 158.24 398.2 157.52C397.373 156.773 396.187 156.4 394.64 156.4C393.52 156.4 392.36 156.6 391.16 157C389.987 157.4 388.853 157.973 387.76 158.72C386.693 159.44 385.76 160.307 384.96 161.32C384.533 161.827 383.96 162.133 383.24 162.24C382.52 162.347 381.88 162.253 381.32 161.96C380.733 161.667 380.307 161.227 380.04 160.64C379.8 160.053 379.733 159.44 379.84 158.8C380.027 157.6 380.24 156.293 380.48 154.88C380.747 153.467 381.013 152.093 381.28 150.76C381.573 149.427 381.827 148.307 382.04 147.4C382.253 146.6 382.707 145.987 383.4 145.56C384.12 145.133 384.867 145.027 385.64 145.24C386.44 145.427 387.053 145.88 387.48 146.6C387.907 147.32 388.013 148.08 387.8 148.88C387.48 150.24 387.093 151.707 386.64 153.28C387.973 152.48 389.32 151.867 390.68 151.44C392.04 150.987 393.427 150.76 394.84 150.76C397 150.76 398.867 151.16 400.44 151.96C402.013 152.733 403.227 153.84 404.08 155.28C404.933 156.693 405.36 158.387 405.36 160.36C405.36 163.987 403.933 166.84 401.08 168.92C398.253 170.973 394.173 172.04 388.84 172.12ZM395 146.84C394.2 146.44 393.267 146 392.2 145.52C391.16 145.013 390.093 144.533 389 144.08C387.907 143.6 386.893 143.187 385.96 142.84C385.213 142.547 384.707 142 384.44 141.2C384.173 140.4 384.213 139.627 384.56 138.88C384.933 138.133 385.493 137.64 386.24 137.4C387.013 137.16 387.787 137.187 388.56 137.48C389.973 138.013 391.44 138.613 392.96 139.28C394.48 139.947 395.933 140.64 397.32 141.36C398.04 141.707 398.56 142.253 398.88 143C399.2 143.72 399.2 144.467 398.88 145.24C398.587 145.987 398.053 146.533 397.28 146.88C396.507 147.2 395.747 147.187 395 146.84ZM442.08 171.84C438.827 171.387 436.133 170.44 434 169C431.867 167.56 430.28 165.84 429.24 163.84C428.2 161.813 427.68 159.68 427.68 157.44C427.68 155.467 428 153.653 428.64 152C429.307 150.347 430.253 148.853 431.48 147.52C429.747 147.813 428.053 148.107 426.4 148.4C424.747 148.693 423.227 148.96 421.84 149.2C420.453 149.44 419.293 149.64 418.36 149.8C417.56 149.933 416.827 149.76 416.16 149.28C415.52 148.773 415.133 148.12 415 147.32C414.893 146.493 415.067 145.747 415.52 145.08C416 144.413 416.653 144.027 417.48 143.92C418.627 143.76 420.08 143.547 421.84 143.28C423.627 142.987 425.533 142.68 427.56 142.36C429.613 142.013 431.653 141.68 433.68 141.36C435.707 141.013 437.573 140.693 439.28 140.4C440.987 140.08 442.36 139.813 443.4 139.6C444.173 139.44 444.893 139.6 445.56 140.08C446.227 140.533 446.64 141.147 446.8 141.92C446.96 142.693 446.827 143.427 446.4 144.12C446 144.813 445.4 145.227 444.6 145.36C442.813 145.6 441.24 146.107 439.88 146.88C438.52 147.653 437.373 148.6 436.44 149.72C435.507 150.84 434.8 152.04 434.32 153.32C433.84 154.6 433.6 155.867 433.6 157.12C433.6 159.493 434.413 161.453 436.04 163C437.667 164.547 439.96 165.533 442.92 165.96C443.747 166.067 444.4 166.453 444.88 167.12C445.387 167.787 445.573 168.52 445.44 169.32C445.333 170.147 444.947 170.8 444.28 171.28C443.64 171.76 442.907 171.947 442.08 171.84ZM450.88 152.08C450.48 152.453 449.987 152.627 449.4 152.6C448.84 152.573 448.373 152.333 448 151.88C447.733 151.587 447.347 151.133 446.84 150.52C446.333 149.907 445.893 149.387 445.52 148.96C445.28 148.667 445.173 148.267 445.2 147.76C445.227 147.253 445.44 146.827 445.84 146.48C446.16 146.187 446.56 146.027 447.04 146C447.52 145.973 447.947 146.107 448.32 146.4C448.747 146.747 449.227 147.187 449.76 147.72C450.32 148.253 450.773 148.76 451.12 149.24C451.467 149.667 451.613 150.147 451.56 150.68C451.533 151.213 451.307 151.68 450.88 152.08ZM446.48 155.6C446.053 155.92 445.56 156.04 445 155.96C444.44 155.88 444 155.6 443.68 155.12C443.467 154.773 443.12 154.28 442.64 153.64C442.187 152.973 441.8 152.413 441.48 151.96C441.267 151.64 441.2 151.24 441.28 150.76C441.36 150.253 441.613 149.84 442.04 149.52C442.387 149.253 442.8 149.133 443.28 149.16C443.76 149.187 444.173 149.36 444.52 149.68C444.92 150.053 445.36 150.547 445.84 151.16C446.347 151.747 446.747 152.293 447.04 152.8C447.333 153.28 447.427 153.773 447.32 154.28C447.24 154.787 446.96 155.227 446.48 155.6ZM474 172.8C471.893 172.8 470.027 172.413 468.4 171.64C466.8 170.893 465.533 169.76 464.6 168.24C463.693 166.693 463.24 164.773 463.24 162.48C463.24 161.84 463.36 160.827 463.6 159.44C462.933 159.307 462.307 159.173 461.72 159.04C461.133 158.88 460.573 158.733 460.04 158.6C459.293 158.387 458.72 157.92 458.32 157.2C457.947 156.48 457.88 155.733 458.12 154.96C458.333 154.187 458.8 153.613 459.52 153.24C460.24 152.867 460.987 152.8 461.76 153.04C462.107 153.147 462.52 153.253 463 153.36C463.48 153.467 464.013 153.573 464.6 153.68C464.707 153.067 464.813 152.453 464.92 151.84C465.053 151.227 465.173 150.613 465.28 150C464.64 149.867 464.053 149.747 463.52 149.64C462.987 149.507 462.56 149.4 462.24 149.32C461.467 149.107 460.88 148.653 460.48 147.96C460.107 147.24 460.027 146.493 460.24 145.72C460.453 144.947 460.907 144.373 461.6 144C462.32 143.6 463.067 143.507 463.84 143.72C464.08 143.773 464.413 143.853 464.84 143.96C465.293 144.04 465.8 144.133 466.36 144.24C466.573 143.173 466.747 142.213 466.88 141.36C467.04 140.48 467.147 139.76 467.2 139.2C467.307 138.373 467.693 137.733 468.36 137.28C469.053 136.8 469.813 136.627 470.64 136.76C471.44 136.867 472.08 137.267 472.56 137.96C473.04 138.627 473.213 139.36 473.08 140.16C473 140.773 472.88 141.52 472.72 142.4C472.56 143.28 472.373 144.253 472.16 145.32C472.72 145.4 473.213 145.48 473.64 145.56C474.44 145.667 475.093 146.04 475.6 146.68C476.107 147.293 476.307 148 476.2 148.8C476.093 149.6 475.72 150.253 475.08 150.76C474.44 151.24 473.72 151.427 472.92 151.32C472.68 151.293 472.4 151.253 472.08 151.2C471.76 151.147 471.413 151.093 471.04 151.04C470.933 151.627 470.813 152.227 470.68 152.84C470.573 153.427 470.467 154 470.36 154.56C470.733 154.587 471.107 154.627 471.48 154.68C471.88 154.707 472.253 154.733 472.6 154.76C473.427 154.813 474.107 155.147 474.64 155.76C475.173 156.347 475.413 157.04 475.36 157.84C475.333 158.64 475.013 159.307 474.4 159.84C473.813 160.373 473.12 160.627 472.32 160.6C471.84 160.573 471.347 160.533 470.84 160.48C470.333 160.427 469.827 160.387 469.32 160.36C469.24 160.84 469.173 161.267 469.12 161.64C469.067 161.987 469.04 162.267 469.04 162.48C469.04 163.973 469.44 165.08 470.24 165.8C471.067 166.493 472.32 166.84 474 166.84C475.52 166.84 476.773 166.467 477.76 165.72C478.747 164.947 479.24 163.96 479.24 162.76C479.24 161.267 478.547 159.8 477.16 158.36C476.6 157.747 476.373 157.027 476.48 156.2C476.587 155.347 476.973 154.667 477.64 154.16C478.307 153.627 479.027 153.427 479.8 153.56C480.6 153.667 481.28 154.027 481.84 154.64C482.96 155.813 483.787 157.08 484.32 158.44C484.88 159.8 485.16 161.213 485.16 162.68C485.16 164.707 484.68 166.48 483.72 168C482.787 169.493 481.48 170.667 479.8 171.52C478.12 172.373 476.187 172.8 474 172.8Z" fill="white"/>
<defs>
<filter id="filter0_d_512_115" x="0" y="0" width="549" height="261" filterUnits="userSpaceOnUse" color-interpolation-filters="sRGB">
<feFlood flood-opacity="0" result="BackgroundImageFix"/>
<feColorMatrix in="SourceAlpha" type="matrix" values="0 0 0 0 0 0 0 0 0 0 0 0 0 0 0 0 0 0 127 0" result="hardAlpha"/>
<feOffset dy="4"/>
<feGaussianBlur stdDeviation="2"/>
<feComposite in2="hardAlpha" operator="out"/>
<feColorMatrix type="matrix" values="0 0 0 0 0 0 0 0 0 0 0 0 0 0 0 0 0 0 0.25 0"/>
<feBlend mode="normal" in2="BackgroundImageFix" result="effect1_dropShadow_512_115"/>
<feBlend mode="normal" in="SourceGraphic" in2="effect1_dropShadow_512_115" result="shape"/>
</filter>
</defs>
</svg>
