<svg width="282" height="191" viewBox="0 0 282 191" fill="none" xmlns="http://www.w3.org/2000/svg">
<g clip-path="url(#clip0_840_494)">
<g filter="url(#filter0_d_840_494)">
<path d="M54.7465 95.9425C49.0172 103.335 42.1339 110.53 33.5293 114.525C29.745 116.285 25.5942 117.341 21.4058 117.17C19.6766 117.096 18.0279 116.63 16.6477 115.566C15.3298 114.551 14.4034 113.125 13.7255 111.629C11.4334 106.569 11.3662 100.563 11.2439 95.1024C11.0722 87.3697 11.3378 79.6289 11.8678 71.9143C12.4894 62.9332 13.4912 53.9589 15.1474 45.1082C15.3479 44.0401 15.559 42.9704 15.7816 41.9041C15.9918 40.894 14.3951 40.7385 14.1884 41.7371C12.3005 50.8216 11.1705 60.0664 10.4578 69.3119C9.82352 77.4719 9.50368 85.6659 9.63699 93.8492C9.72952 99.5857 9.78007 105.654 11.7914 111.108C13.0112 114.419 15.2733 117.453 18.8271 118.397C20.7999 118.923 22.9225 118.855 24.9397 118.642C27.0684 118.417 29.1557 117.91 31.1779 117.209C40.2291 114.071 47.6184 107.084 53.6481 99.8687C54.4696 98.8864 55.2718 97.8857 56.0608 96.871C56.6936 96.0556 55.3898 95.1254 54.757 95.9407L54.7465 95.9425Z" fill="white"/>
</g>
<g filter="url(#filter1_d_840_494)">
<path d="M92.2389 98.6053C93.0832 97.4676 93.5391 96.0481 93.0852 94.6616C92.6208 93.2444 91.311 92.5697 89.8743 92.6258C88.2645 92.6837 86.6137 93.2413 85.0753 93.6935C83.4385 94.173 81.8299 94.7236 80.245 95.3515C77.9234 96.2704 75.6793 97.3606 73.5142 98.6C73.4103 98.0433 73.302 97.4927 73.198 96.9359C73.0069 95.9226 71.4263 96.1868 71.6174 97.2002C71.76 97.9563 71.9018 98.7071 72.0445 99.4632C71.6757 99.6873 71.3035 99.9229 70.9418 100.157C68.2131 101.913 65.2476 104.001 64.5801 107.395C64.3813 108.408 65.978 108.564 66.1733 107.562C66.6559 105.103 68.899 103.455 70.8444 102.134C71.3457 101.795 71.8549 101.472 72.3641 101.148C72.7252 103.049 73.0871 104.954 73.4482 106.855C73.7467 108.413 73.975 110.005 74.3411 111.547C74.5735 112.548 75.4533 113.826 76.6271 113.202C77.4875 112.744 76.9292 111.412 76.0924 111.688C76.0915 111.683 76.0853 111.678 76.0792 111.674C76.0317 111.584 75.9886 111.488 75.9517 111.397C75.8558 111.115 75.8293 110.795 75.7747 110.501C75.6567 109.892 75.544 109.283 75.426 108.674C75.1812 107.372 74.9302 106.065 74.6854 104.763C74.4018 103.261 74.1139 101.766 73.8303 100.264C75.4001 99.3517 77.0139 98.5078 78.6654 97.7604C81.3899 96.5304 84.2121 95.5277 87.1107 94.7885C88.175 94.5131 89.7555 93.8914 90.8447 94.3484C92.0499 94.851 91.724 96.4653 91.1756 97.3315C90.3928 98.5781 89.1498 99.5984 88.0191 100.513C86.7348 101.546 85.3503 102.433 83.8893 103.186C82.9771 103.658 83.6426 105.112 84.5654 104.638C86.0817 103.859 87.5259 102.941 88.8656 101.883C90.0814 100.927 91.3209 99.8529 92.2486 98.5983L92.2389 98.6053Z" fill="white"/>
</g>
<g filter="url(#filter2_d_840_494)">
<path d="M81.3202 94.4622C81.7945 94.5129 82.1 94.1693 82.2025 93.746C82.7186 91.5528 83.7258 89.4454 85.0729 87.6224C85.6872 86.7939 84.3835 85.8636 83.7691 86.6921C82.2447 88.7506 81.1956 91.0925 80.6102 93.5843C80.5129 94.0068 80.9347 94.4237 81.3264 94.4666L81.3202 94.4622Z" fill="white"/>
</g>
<g filter="url(#filter3_d_840_494)">
<path d="M135.527 74.87C136.511 74.375 137.544 74.1049 138.55 74.684C140.21 75.636 141.167 77.637 141.807 79.3554C143.301 83.4006 143.53 88.1394 146.703 91.3731C147.421 92.1035 148.659 91.0841 147.934 90.3494C144.919 87.2789 144.7 82.6358 143.291 78.7767C142.599 76.8722 141.55 74.9029 139.891 73.6637C138.999 72.9949 137.932 72.6372 136.811 72.7703C135.579 72.9168 134.481 73.6041 133.431 74.2238C125.187 79.1119 117.778 85.3335 111.529 92.5962C109.779 94.6328 108.095 96.745 106.558 98.9519C105.287 100.778 103.987 103.595 105.792 105.514C106.496 106.263 107.734 105.244 107.023 104.491C105.58 102.955 107.377 100.548 108.327 99.2355C109.639 97.4239 111.018 95.6659 112.466 93.9614C115.34 90.5778 118.484 87.4198 121.845 84.5182C125.205 81.6166 128.786 78.9651 132.554 76.6236C133.525 76.0171 134.504 75.393 135.522 74.8761L135.527 74.87Z" fill="white"/>
</g>
<g filter="url(#filter4_d_840_494)">
<path d="M152.296 76.3666C150.685 73.4025 149.957 70.02 149.421 66.719C149.251 65.7021 147.676 65.9655 147.841 66.9833C148.398 70.416 149.169 73.9592 150.844 77.0427C151.335 77.9409 152.789 77.2753 152.296 76.3666Z" fill="white"/>
</g>
<g filter="url(#filter5_d_840_494)">
<path d="M158.195 75.0392C158.567 74.8686 158.795 74.3539 158.585 73.972C157.285 71.6383 156.347 69.1411 155.823 66.5207C155.621 65.5091 154.04 65.7734 154.242 66.785C154.794 69.5362 155.764 72.1959 157.133 74.6481C157.342 75.0247 157.782 75.2274 158.2 75.0383L158.195 75.0392Z" fill="white"/>
</g>
<g filter="url(#filter6_d_840_494)">
<path d="M188.16 75.8678C186.909 74.1813 184.754 73.2796 182.707 73.1182C181.022 72.9829 179.365 73.314 177.758 73.8102C178.691 72.7172 179.6 71.6066 180.47 70.4645C181.213 69.4954 181.926 68.5097 182.624 67.5046C183.304 66.5189 184.042 65.5235 184.577 64.4482C185.019 63.5566 185.294 62.449 184.834 61.5131C184.384 60.6026 183.427 60.2263 182.46 60.269C181.384 60.3134 180.299 60.7549 179.324 61.1778C178.178 61.6781 177.099 62.3189 176.09 63.051C175.254 63.6565 176.283 64.8872 177.113 64.2826C177.949 63.6771 178.831 63.1558 179.774 62.7329C180.589 62.3636 181.52 61.9372 182.429 61.8665C184.771 61.6861 182.432 64.9315 181.937 65.6642C179.691 69.0079 177.186 72.1673 174.464 75.1301C173.872 75.7706 174.792 76.5755 175.454 76.324C178.769 75.0602 182.969 73.551 186.115 76.0418C188.132 77.6436 187.978 79.9604 187.097 82.0791C186.896 81.7824 186.526 81.5788 186.1 81.7152C182.222 82.9485 178.761 85.2494 176.043 88.2658C174.731 89.7199 173.343 91.4903 172.639 93.3358C172.303 94.2098 172.44 95.2267 173.308 95.7207C174.021 96.127 174.914 95.9614 175.642 95.6826C176.583 95.3194 177.477 94.6717 178.309 94.1101C179.229 93.4905 180.117 92.8112 180.961 92.0906C182.683 90.6275 184.248 88.9791 185.691 87.243C188.197 84.2188 190.947 79.6102 188.167 75.8721L188.16 75.8678ZM176.986 93.064C176.351 93.4788 175.673 93.9604 174.959 94.2207C174.785 94.2823 174.327 94.4617 174.145 94.3459C173.914 94.1897 174.188 93.7592 174.306 93.5229C175.078 91.9856 176.127 90.5535 177.268 89.2743C179.759 86.4907 182.984 84.4296 186.519 83.2536C186.105 84.0161 185.622 84.7251 185.156 85.334C182.875 88.3097 180.124 91.0064 176.981 93.0648L176.986 93.064Z" fill="white"/>
</g>
<g filter="url(#filter7_d_840_494)">
<path d="M208.968 96.7562C206.531 92.6087 204.187 88.4076 201.928 84.1599C201.446 83.2547 199.987 83.9212 200.476 84.836C202.73 89.0846 205.079 93.2848 207.516 97.4323C208.032 98.3156 209.491 97.6491 208.968 96.7562Z" fill="white"/>
</g>
<g filter="url(#filter8_d_840_494)">
<path d="M125.608 125.621C123.332 125.969 121.068 126.358 118.806 126.791C118.848 124.839 118.885 122.894 118.912 120.945C118.928 119.745 118.943 118.541 118.964 117.34C118.977 116.314 117.383 116.142 117.371 117.173C117.329 120.484 117.282 123.801 117.208 127.112C111.092 128.34 105.045 129.877 99.0824 131.729C96.6115 132.5 94.1599 133.322 91.7285 134.199C90.7574 134.546 91.4396 136.002 92.4046 135.652C100.477 132.747 108.753 130.448 117.162 128.75C117.041 133.276 116.844 137.799 116.488 142.311C111.005 143.824 105.634 145.745 100.44 148.076C99.4976 148.499 100.174 149.951 101.116 149.528C106.053 147.311 111.151 145.473 116.355 144.007C115.893 149.311 115.374 154.857 113.835 160.032C111.438 160.406 109.08 161.011 106.87 161.722C104.443 162.496 102.004 163.457 99.8661 164.859C98.1138 166.008 96.7668 168.124 96.9401 170.294C97.0125 171.213 97.4601 172.173 97.8715 172.981C98.2442 173.721 98.6767 174.461 99.3883 174.927C100.538 175.682 102.023 175.813 103.363 175.665C104.729 175.512 105.858 174.684 106.941 173.875C108.29 172.87 109.497 171.666 110.544 170.348C112.648 167.705 114.062 164.663 115.071 161.467C117.907 161.128 120.77 161.148 123.504 161.725C124.188 161.865 124.856 162.068 125.512 162.299C126.485 162.646 127.052 161.148 126.079 160.802C122.749 159.609 119.127 159.424 115.552 159.81C116.472 156.401 116.989 152.854 117.403 149.432C117.639 147.475 117.831 145.515 117.996 143.554C119.682 143.109 121.378 142.696 123.088 142.329C124.092 142.112 123.833 140.531 122.824 140.748C121.25 141.087 119.689 141.467 118.136 141.868C118.472 137.397 118.659 132.908 118.776 128.426C121.137 127.972 123.5 127.56 125.877 127.201C126.897 127.046 126.633 125.466 125.613 125.62L125.608 125.621ZM105.686 172.812C104.623 173.58 103.89 174.087 102.639 174.123C101.361 174.158 100.185 173.862 99.525 172.699C99.1093 171.962 98.6143 171.043 98.5252 170.186C98.4564 169.515 98.7256 168.825 98.9984 168.222C99.173 167.84 99.3678 167.45 99.6091 167.112C99.6267 167.087 99.6495 167.062 99.667 167.037C99.5731 167.156 99.6995 167.005 99.7416 166.965C99.868 166.847 99.9962 166.739 100.124 166.631C101.757 165.318 103.841 164.498 105.784 163.778C108.156 162.899 110.693 162.172 113.284 161.728C112.812 163.085 112.26 164.417 111.608 165.702C110.194 168.484 108.218 170.981 105.681 172.813L105.686 172.812Z" fill="white"/>
</g>
<g filter="url(#filter9_d_840_494)">
<path d="M161.357 130.85C162.302 130.443 161.631 128.99 160.681 129.398C157.972 130.56 155.328 131.847 152.733 133.24L153.436 130.934C153.738 129.952 152.239 129.379 151.939 130.366C151.533 131.696 151.127 133.026 150.721 134.356C148.04 135.877 145.427 137.516 142.893 139.272C142.049 139.857 143.078 141.088 143.917 140.504C145.906 139.12 147.947 137.815 150.038 136.588C149.095 139.665 148.158 142.741 147.216 145.818C146.434 148.369 145.654 150.926 144.873 153.478C144.39 155.059 143.352 157.762 145.482 158.641C146.436 159.034 147.003 157.536 146.049 157.143C145.455 156.896 145.888 155.626 146.016 155.199C146.351 154.092 146.691 152.984 147.032 151.877C147.745 149.537 148.464 147.196 149.178 144.856C150.136 141.711 151.101 138.571 152.059 135.427C155.071 133.748 158.173 132.216 161.347 130.857L161.357 130.85Z" fill="white"/>
</g>
<g filter="url(#filter10_d_840_494)">
<path d="M177.865 127.12C177.626 126.759 177.041 126.76 176.737 127.016C176.376 127.315 176.394 127.783 176.633 128.144L180.454 133.858C180.693 134.219 181.278 134.219 181.582 133.962C181.943 133.664 181.925 133.196 181.686 132.835L177.865 127.12Z" fill="white"/>
</g>
<g filter="url(#filter11_d_840_494)">
<path d="M179.036 149.445C177.16 149.174 175.265 149.182 173.404 149.45C174.204 147.047 174.689 144.539 174.836 142.012C174.897 140.984 173.303 140.817 173.242 141.845C173.083 144.52 172.559 147.154 171.631 149.67C171.617 149.711 171.597 149.757 171.582 149.798C171.005 149.938 170.428 150.088 169.864 150.275C168.426 150.748 167.044 151.39 165.759 152.19C164.557 152.938 163.242 153.786 162.435 154.983C161.684 156.094 161.45 157.677 162.653 158.586C163.775 159.438 165.386 159.191 166.606 158.716C169.303 157.675 171.014 154.984 172.189 152.486C172.392 152.051 172.584 151.607 172.77 151.164C174.775 150.786 176.843 150.743 178.863 151.039C179.885 151.188 180.047 149.596 179.03 149.446L179.036 149.445ZM167.799 156.096C166.954 156.843 165.916 157.439 164.768 157.534C164.335 157.568 163.66 157.551 163.448 157.089C163.232 156.61 163.645 156.032 163.925 155.671C164.674 154.706 165.867 153.97 166.914 153.362C168 152.731 169.147 152.209 170.335 151.799C170.5 151.744 170.67 151.694 170.84 151.644C170.099 153.301 169.148 154.901 167.804 156.095L167.799 156.096Z" fill="white"/>
</g>
<g filter="url(#filter12_d_840_494)">
<path d="M220.495 121.672C218.6 122.162 216.84 123.074 215.297 124.274C214.482 124.909 215.506 126.14 216.321 125.506C217.509 124.581 218.845 123.854 220.284 123.391C220.68 123.266 221.607 122.883 221.962 123.257C222.304 123.617 221.893 124.433 221.72 124.787C221.029 126.165 220.081 127.455 219.27 128.761C218.378 130.199 217.486 131.632 216.594 133.07C216.184 133.729 216.825 134.613 217.585 134.264C218.464 133.857 219.455 134.471 219.876 135.272C220.473 136.413 220.048 137.854 219.572 138.958C218.618 141.159 217.027 143.044 215.117 144.48C214.294 145.099 215.318 146.331 216.141 145.711C218.629 143.844 220.87 141.053 221.584 137.971C221.931 136.483 221.777 134.814 220.67 133.672C220.147 133.131 219.477 132.756 218.77 132.608C219.602 131.267 220.435 129.931 221.261 128.59C221.82 127.69 222.408 126.801 222.938 125.883C223.324 125.212 223.663 124.457 223.672 123.67C223.699 121.856 222.021 121.276 220.495 121.672Z" fill="white"/>
</g>
<g filter="url(#filter13_d_840_494)">
<path d="M204.503 138.661C201.903 141.771 199.748 145.24 198.116 148.952C197.308 150.793 196.628 152.689 196.091 154.626C195.72 155.971 194.993 158.427 196.889 159.01C197.871 159.311 198.443 157.813 197.456 157.512C196.97 157.36 197.296 156.293 197.384 155.948C197.608 155.082 197.859 154.222 198.135 153.374C198.68 151.712 199.328 150.082 200.077 148.5C201.593 145.294 203.535 142.3 205.806 139.586C206.469 138.792 205.161 137.868 204.502 138.655L204.503 138.661Z" fill="white"/>
</g>
<g filter="url(#filter14_d_840_494)">
<path d="M236.239 128.697C235.653 127.847 234.427 128.875 235.007 129.72C239.886 136.807 244.131 144.314 247.714 152.137C248.141 153.073 249.599 152.401 249.166 151.461C245.53 143.511 241.196 135.895 236.238 128.691L236.239 128.697Z" fill="white"/>
</g>
<g filter="url(#filter15_d_840_494)">
<path d="M240.705 114.008C239.089 111.89 238.074 109.384 237.72 106.746C237.581 105.724 236.001 105.988 236.139 107.01C236.53 109.93 237.691 112.698 239.474 115.038C240.099 115.859 241.33 114.83 240.706 114.014L240.705 114.008Z" fill="white"/>
</g>
<g filter="url(#filter16_d_840_494)">
<path d="M243.612 104.607C244.213 107.453 244.814 110.305 245.409 113.152C245.621 114.156 247.202 113.897 246.99 112.887C246.39 110.041 245.788 107.19 245.193 104.343C244.982 103.338 243.4 103.597 243.612 104.607Z" fill="white"/>
</g>
<g filter="url(#filter17_d_840_494)">
<path d="M273.829 134.441C271.971 134.665 270.296 135.66 268.815 136.747C267.537 137.692 266.31 138.742 265.329 140C264.411 141.183 263.703 142.617 263.742 144.149C263.782 145.68 264.576 147.059 265.835 147.915C268.109 149.469 270.593 149.167 272.924 148.236C273.244 148.529 273.8 148.615 274.161 148.186C274.414 147.884 274.667 147.581 274.926 147.284C275.511 146.964 276.083 146.624 276.622 146.285C277.117 145.975 277.107 145.364 276.846 145.002C277.242 144.519 277.638 144.035 278.015 143.539C278.981 142.284 279.905 140.78 279.934 139.145C279.999 135.933 276.739 134.09 273.824 134.442L273.829 134.441ZM278.347 138.983C278.38 140.472 277.341 141.837 276.458 142.938C275.607 144.007 274.72 145.049 273.839 146.095C271.938 147.133 269.838 147.885 267.736 147.11C266.68 146.718 265.74 145.954 265.438 144.829C265.117 143.621 265.607 142.407 266.281 141.417C266.994 140.372 267.92 139.496 268.904 138.704C270.098 137.746 271.367 136.819 272.832 136.314C274.911 135.598 278.291 136.246 278.347 138.983Z" fill="white"/>
</g>
</g>
<defs>
<filter id="filter0_d_840_494" x="5.60718" y="41.0625" width="54.6226" height="85.7383" filterUnits="userSpaceOnUse" color-interpolation-filters="sRGB">
<feFlood flood-opacity="0" result="BackgroundImageFix"/>
<feColorMatrix in="SourceAlpha" type="matrix" values="0 0 0 0 0 0 0 0 0 0 0 0 0 0 0 0 0 0 127 0" result="hardAlpha"/>
<feOffset dy="4"/>
<feGaussianBlur stdDeviation="2"/>
<feComposite in2="hardAlpha" operator="out"/>
<feColorMatrix type="matrix" values="0 0 0 0 0 0 0 0 0 0 0 0 0 0 0 0 0 0 0.1 0"/>
<feBlend mode="normal" in2="BackgroundImageFix" result="effect1_dropShadow_840_494"/>
<feBlend mode="normal" in="SourceGraphic" in2="effect1_dropShadow_840_494" result="shape"/>
</filter>
<filter id="filter1_d_840_494" x="60.563" y="92.6226" width="36.7012" height="28.744" filterUnits="userSpaceOnUse" color-interpolation-filters="sRGB">
<feFlood flood-opacity="0" result="BackgroundImageFix"/>
<feColorMatrix in="SourceAlpha" type="matrix" values="0 0 0 0 0 0 0 0 0 0 0 0 0 0 0 0 0 0 127 0" result="hardAlpha"/>
<feOffset dy="4"/>
<feGaussianBlur stdDeviation="2"/>
<feComposite in2="hardAlpha" operator="out"/>
<feColorMatrix type="matrix" values="0 0 0 0 0 0 0 0 0 0 0 0 0 0 0 0 0 0 0.1 0"/>
<feBlend mode="normal" in2="BackgroundImageFix" result="effect1_dropShadow_840_494"/>
<feBlend mode="normal" in="SourceGraphic" in2="effect1_dropShadow_840_494" result="shape"/>
</filter>
<filter id="filter2_d_840_494" x="76.5959" y="86.3689" width="12.6375" height="16.0982" filterUnits="userSpaceOnUse" color-interpolation-filters="sRGB">
<feFlood flood-opacity="0" result="BackgroundImageFix"/>
<feColorMatrix in="SourceAlpha" type="matrix" values="0 0 0 0 0 0 0 0 0 0 0 0 0 0 0 0 0 0 127 0" result="hardAlpha"/>
<feOffset dy="4"/>
<feGaussianBlur stdDeviation="2"/>
<feComposite in2="hardAlpha" operator="out"/>
<feColorMatrix type="matrix" values="0 0 0 0 0 0 0 0 0 0 0 0 0 0 0 0 0 0 0.1 0"/>
<feBlend mode="normal" in2="BackgroundImageFix" result="effect1_dropShadow_840_494"/>
<feBlend mode="normal" in="SourceGraphic" in2="effect1_dropShadow_840_494" result="shape"/>
</filter>
<filter id="filter3_d_840_494" x="100.903" y="72.7428" width="51.251" height="41.0335" filterUnits="userSpaceOnUse" color-interpolation-filters="sRGB">
<feFlood flood-opacity="0" result="BackgroundImageFix"/>
<feColorMatrix in="SourceAlpha" type="matrix" values="0 0 0 0 0 0 0 0 0 0 0 0 0 0 0 0 0 0 127 0" result="hardAlpha"/>
<feOffset dy="4"/>
<feGaussianBlur stdDeviation="2"/>
<feComposite in2="hardAlpha" operator="out"/>
<feColorMatrix type="matrix" values="0 0 0 0 0 0 0 0 0 0 0 0 0 0 0 0 0 0 0.1 0"/>
<feBlend mode="normal" in2="BackgroundImageFix" result="effect1_dropShadow_840_494"/>
<feBlend mode="normal" in="SourceGraphic" in2="effect1_dropShadow_840_494" result="shape"/>
</filter>
<filter id="filter4_d_840_494" x="143.829" y="66.0754" width="12.5684" height="19.3931" filterUnits="userSpaceOnUse" color-interpolation-filters="sRGB">
<feFlood flood-opacity="0" result="BackgroundImageFix"/>
<feColorMatrix in="SourceAlpha" type="matrix" values="0 0 0 0 0 0 0 0 0 0 0 0 0 0 0 0 0 0 127 0" result="hardAlpha"/>
<feOffset dy="4"/>
<feGaussianBlur stdDeviation="2"/>
<feComposite in2="hardAlpha" operator="out"/>
<feColorMatrix type="matrix" values="0 0 0 0 0 0 0 0 0 0 0 0 0 0 0 0 0 0 0.1 0"/>
<feBlend mode="normal" in2="BackgroundImageFix" result="effect1_dropShadow_840_494"/>
<feBlend mode="normal" in="SourceGraphic" in2="effect1_dropShadow_840_494" result="shape"/>
</filter>
<filter id="filter5_d_840_494" x="150.224" y="65.8814" width="12.4409" height="17.2288" filterUnits="userSpaceOnUse" color-interpolation-filters="sRGB">
<feFlood flood-opacity="0" result="BackgroundImageFix"/>
<feColorMatrix in="SourceAlpha" type="matrix" values="0 0 0 0 0 0 0 0 0 0 0 0 0 0 0 0 0 0 127 0" result="hardAlpha"/>
<feOffset dy="4"/>
<feGaussianBlur stdDeviation="2"/>
<feComposite in2="hardAlpha" operator="out"/>
<feColorMatrix type="matrix" values="0 0 0 0 0 0 0 0 0 0 0 0 0 0 0 0 0 0 0.1 0"/>
<feBlend mode="normal" in2="BackgroundImageFix" result="effect1_dropShadow_840_494"/>
<feBlend mode="normal" in="SourceGraphic" in2="effect1_dropShadow_840_494" result="shape"/>
</filter>
<filter id="filter6_d_840_494" x="168.47" y="60.2657" width="24.8616" height="43.6983" filterUnits="userSpaceOnUse" color-interpolation-filters="sRGB">
<feFlood flood-opacity="0" result="BackgroundImageFix"/>
<feColorMatrix in="SourceAlpha" type="matrix" values="0 0 0 0 0 0 0 0 0 0 0 0 0 0 0 0 0 0 127 0" result="hardAlpha"/>
<feOffset dy="4"/>
<feGaussianBlur stdDeviation="2"/>
<feComposite in2="hardAlpha" operator="out"/>
<feColorMatrix type="matrix" values="0 0 0 0 0 0 0 0 0 0 0 0 0 0 0 0 0 0 0.1 0"/>
<feBlend mode="normal" in2="BackgroundImageFix" result="effect1_dropShadow_840_494"/>
<feBlend mode="normal" in="SourceGraphic" in2="effect1_dropShadow_840_494" result="shape"/>
</filter>
<filter id="filter7_d_840_494" x="196.377" y="83.7296" width="16.7026" height="22.1185" filterUnits="userSpaceOnUse" color-interpolation-filters="sRGB">
<feFlood flood-opacity="0" result="BackgroundImageFix"/>
<feColorMatrix in="SourceAlpha" type="matrix" values="0 0 0 0 0 0 0 0 0 0 0 0 0 0 0 0 0 0 127 0" result="hardAlpha"/>
<feOffset dy="4"/>
<feGaussianBlur stdDeviation="2"/>
<feComposite in2="hardAlpha" operator="out"/>
<feColorMatrix type="matrix" values="0 0 0 0 0 0 0 0 0 0 0 0 0 0 0 0 0 0 0.1 0"/>
<feBlend mode="normal" in2="BackgroundImageFix" result="effect1_dropShadow_840_494"/>
<feBlend mode="normal" in="SourceGraphic" in2="effect1_dropShadow_840_494" result="shape"/>
</filter>
<filter id="filter8_d_840_494" x="87.2576" y="116.48" width="43.3267" height="67.2388" filterUnits="userSpaceOnUse" color-interpolation-filters="sRGB">
<feFlood flood-opacity="0" result="BackgroundImageFix"/>
<feColorMatrix in="SourceAlpha" type="matrix" values="0 0 0 0 0 0 0 0 0 0 0 0 0 0 0 0 0 0 127 0" result="hardAlpha"/>
<feOffset dy="4"/>
<feGaussianBlur stdDeviation="2"/>
<feComposite in2="hardAlpha" operator="out"/>
<feColorMatrix type="matrix" values="0 0 0 0 0 0 0 0 0 0 0 0 0 0 0 0 0 0 0.1 0"/>
<feBlend mode="normal" in2="BackgroundImageFix" result="effect1_dropShadow_840_494"/>
<feBlend mode="normal" in="SourceGraphic" in2="effect1_dropShadow_840_494" result="shape"/>
</filter>
<filter id="filter9_d_840_494" x="138.578" y="129.326" width="27.2349" height="37.3798" filterUnits="userSpaceOnUse" color-interpolation-filters="sRGB">
<feFlood flood-opacity="0" result="BackgroundImageFix"/>
<feColorMatrix in="SourceAlpha" type="matrix" values="0 0 0 0 0 0 0 0 0 0 0 0 0 0 0 0 0 0 127 0" result="hardAlpha"/>
<feOffset dy="4"/>
<feGaussianBlur stdDeviation="2"/>
<feComposite in2="hardAlpha" operator="out"/>
<feColorMatrix type="matrix" values="0 0 0 0 0 0 0 0 0 0 0 0 0 0 0 0 0 0 0.1 0"/>
<feBlend mode="normal" in2="BackgroundImageFix" result="effect1_dropShadow_840_494"/>
<feBlend mode="normal" in="SourceGraphic" in2="effect1_dropShadow_840_494" result="shape"/>
</filter>
<filter id="filter10_d_840_494" x="172.459" y="126.835" width="13.4011" height="15.3085" filterUnits="userSpaceOnUse" color-interpolation-filters="sRGB">
<feFlood flood-opacity="0" result="BackgroundImageFix"/>
<feColorMatrix in="SourceAlpha" type="matrix" values="0 0 0 0 0 0 0 0 0 0 0 0 0 0 0 0 0 0 127 0" result="hardAlpha"/>
<feOffset dy="4"/>
<feGaussianBlur stdDeviation="2"/>
<feComposite in2="hardAlpha" operator="out"/>
<feColorMatrix type="matrix" values="0 0 0 0 0 0 0 0 0 0 0 0 0 0 0 0 0 0 0.1 0"/>
<feBlend mode="normal" in2="BackgroundImageFix" result="effect1_dropShadow_840_494"/>
<feBlend mode="normal" in="SourceGraphic" in2="effect1_dropShadow_840_494" result="shape"/>
</filter>
<filter id="filter11_d_840_494" x="157.811" y="141.152" width="25.905" height="25.9973" filterUnits="userSpaceOnUse" color-interpolation-filters="sRGB">
<feFlood flood-opacity="0" result="BackgroundImageFix"/>
<feColorMatrix in="SourceAlpha" type="matrix" values="0 0 0 0 0 0 0 0 0 0 0 0 0 0 0 0 0 0 127 0" result="hardAlpha"/>
<feOffset dy="4"/>
<feGaussianBlur stdDeviation="2"/>
<feComposite in2="hardAlpha" operator="out"/>
<feColorMatrix type="matrix" values="0 0 0 0 0 0 0 0 0 0 0 0 0 0 0 0 0 0 0.1 0"/>
<feBlend mode="normal" in2="BackgroundImageFix" result="effect1_dropShadow_840_494"/>
<feBlend mode="normal" in="SourceGraphic" in2="effect1_dropShadow_840_494" result="shape"/>
</filter>
<filter id="filter12_d_840_494" x="210.814" y="121.553" width="16.8589" height="32.3273" filterUnits="userSpaceOnUse" color-interpolation-filters="sRGB">
<feFlood flood-opacity="0" result="BackgroundImageFix"/>
<feColorMatrix in="SourceAlpha" type="matrix" values="0 0 0 0 0 0 0 0 0 0 0 0 0 0 0 0 0 0 127 0" result="hardAlpha"/>
<feOffset dy="4"/>
<feGaussianBlur stdDeviation="2"/>
<feComposite in2="hardAlpha" operator="out"/>
<feColorMatrix type="matrix" values="0 0 0 0 0 0 0 0 0 0 0 0 0 0 0 0 0 0 0.1 0"/>
<feBlend mode="normal" in2="BackgroundImageFix" result="effect1_dropShadow_840_494"/>
<feBlend mode="normal" in="SourceGraphic" in2="effect1_dropShadow_840_494" result="shape"/>
</filter>
<filter id="filter13_d_840_494" x="191.64" y="138.356" width="18.3489" height="28.6938" filterUnits="userSpaceOnUse" color-interpolation-filters="sRGB">
<feFlood flood-opacity="0" result="BackgroundImageFix"/>
<feColorMatrix in="SourceAlpha" type="matrix" values="0 0 0 0 0 0 0 0 0 0 0 0 0 0 0 0 0 0 127 0" result="hardAlpha"/>
<feOffset dy="4"/>
<feGaussianBlur stdDeviation="2"/>
<feComposite in2="hardAlpha" operator="out"/>
<feColorMatrix type="matrix" values="0 0 0 0 0 0 0 0 0 0 0 0 0 0 0 0 0 0 0.1 0"/>
<feBlend mode="normal" in2="BackgroundImageFix" result="effect1_dropShadow_840_494"/>
<feBlend mode="normal" in="SourceGraphic" in2="effect1_dropShadow_840_494" result="shape"/>
</filter>
<filter id="filter14_d_840_494" x="230.855" y="128.378" width="22.3904" height="32.2083" filterUnits="userSpaceOnUse" color-interpolation-filters="sRGB">
<feFlood flood-opacity="0" result="BackgroundImageFix"/>
<feColorMatrix in="SourceAlpha" type="matrix" values="0 0 0 0 0 0 0 0 0 0 0 0 0 0 0 0 0 0 127 0" result="hardAlpha"/>
<feOffset dy="4"/>
<feGaussianBlur stdDeviation="2"/>
<feComposite in2="hardAlpha" operator="out"/>
<feColorMatrix type="matrix" values="0 0 0 0 0 0 0 0 0 0 0 0 0 0 0 0 0 0 0.1 0"/>
<feBlend mode="normal" in2="BackgroundImageFix" result="effect1_dropShadow_840_494"/>
<feBlend mode="normal" in="SourceGraphic" in2="effect1_dropShadow_840_494" result="shape"/>
</filter>
<filter id="filter15_d_840_494" x="232.131" y="106.099" width="12.7471" height="17.2404" filterUnits="userSpaceOnUse" color-interpolation-filters="sRGB">
<feFlood flood-opacity="0" result="BackgroundImageFix"/>
<feColorMatrix in="SourceAlpha" type="matrix" values="0 0 0 0 0 0 0 0 0 0 0 0 0 0 0 0 0 0 127 0" result="hardAlpha"/>
<feOffset dy="4"/>
<feGaussianBlur stdDeviation="2"/>
<feComposite in2="hardAlpha" operator="out"/>
<feColorMatrix type="matrix" values="0 0 0 0 0 0 0 0 0 0 0 0 0 0 0 0 0 0 0.1 0"/>
<feBlend mode="normal" in2="BackgroundImageFix" result="effect1_dropShadow_840_494"/>
<feBlend mode="normal" in="SourceGraphic" in2="effect1_dropShadow_840_494" result="shape"/>
</filter>
<filter id="filter16_d_840_494" x="239.593" y="103.707" width="11.4167" height="18.0803" filterUnits="userSpaceOnUse" color-interpolation-filters="sRGB">
<feFlood flood-opacity="0" result="BackgroundImageFix"/>
<feColorMatrix in="SourceAlpha" type="matrix" values="0 0 0 0 0 0 0 0 0 0 0 0 0 0 0 0 0 0 127 0" result="hardAlpha"/>
<feOffset dy="4"/>
<feGaussianBlur stdDeviation="2"/>
<feComposite in2="hardAlpha" operator="out"/>
<feColorMatrix type="matrix" values="0 0 0 0 0 0 0 0 0 0 0 0 0 0 0 0 0 0 0.1 0"/>
<feBlend mode="normal" in2="BackgroundImageFix" result="effect1_dropShadow_840_494"/>
<feBlend mode="normal" in="SourceGraphic" in2="effect1_dropShadow_840_494" result="shape"/>
</filter>
<filter id="filter17_d_840_494" x="259.741" y="134.399" width="24.1943" height="22.6082" filterUnits="userSpaceOnUse" color-interpolation-filters="sRGB">
<feFlood flood-opacity="0" result="BackgroundImageFix"/>
<feColorMatrix in="SourceAlpha" type="matrix" values="0 0 0 0 0 0 0 0 0 0 0 0 0 0 0 0 0 0 127 0" result="hardAlpha"/>
<feOffset dy="4"/>
<feGaussianBlur stdDeviation="2"/>
<feComposite in2="hardAlpha" operator="out"/>
<feColorMatrix type="matrix" values="0 0 0 0 0 0 0 0 0 0 0 0 0 0 0 0 0 0 0.1 0"/>
<feBlend mode="normal" in2="BackgroundImageFix" result="effect1_dropShadow_840_494"/>
<feBlend mode="normal" in="SourceGraphic" in2="effect1_dropShadow_840_494" result="shape"/>
</filter>
<clipPath id="clip0_840_494">
<rect width="260.425" height="148.611" fill="white" transform="translate(0 43.5624) rotate(-9.49183)"/>
</clipPath>
</defs>
</svg>
