<svg width="308" height="209" viewBox="0 0 308 209" fill="none" xmlns="http://www.w3.org/2000/svg">
<g filter="url(#filter0_d_517_226)">
<path d="M8 85C8 76.1634 15.1634 69 24 69H272C280.837 69 288 76.1634 288 85V153C288 161.837 280.837 169 272 169H24C15.1634 169 8 161.837 8 153V85Z" fill="#47C344"/>
</g>
<path d="M55.074 150.26C53.982 150.26 53.112 149.996 52.464 149.468C51.828 148.94 51.51 148.178 51.51 147.182C51.51 146.282 51.84 145.568 52.5 145.04C53.16 144.5 54.054 144.23 55.182 144.23C55.314 144.23 55.44 144.236 55.56 144.248C55.692 144.248 55.818 144.254 55.938 144.266L55.902 142.844C55.35 142.856 54.81 142.856 54.282 142.844C53.766 142.832 53.298 142.82 52.878 142.808C52.53 142.784 52.236 142.634 51.996 142.358C51.768 142.07 51.672 141.746 51.708 141.386C51.732 141.038 51.882 140.75 52.158 140.522C52.434 140.294 52.752 140.192 53.112 140.216C53.496 140.228 53.922 140.24 54.39 140.252C54.858 140.264 55.338 140.27 55.83 140.27L55.812 139.01C55.272 139.01 54.75 139.004 54.246 138.992C53.754 138.98 53.298 138.968 52.878 138.956C52.53 138.932 52.236 138.782 51.996 138.506C51.768 138.23 51.672 137.912 51.708 137.552C51.732 137.192 51.882 136.898 52.158 136.67C52.434 136.442 52.752 136.34 53.112 136.364C53.88 136.424 54.768 136.442 55.776 136.418V135.302C55.776 134.93 55.902 134.612 56.154 134.348C56.418 134.084 56.736 133.952 57.108 133.952C57.48 133.952 57.792 134.084 58.044 134.348C58.308 134.612 58.44 134.93 58.44 135.302C58.44 135.458 58.44 135.626 58.44 135.806C58.452 135.974 58.458 136.154 58.458 136.346C58.902 136.322 59.322 136.298 59.718 136.274C60.114 136.238 60.474 136.196 60.798 136.148C61.158 136.1 61.476 136.184 61.752 136.4C62.04 136.616 62.208 136.904 62.256 137.264C62.316 137.612 62.232 137.93 62.004 138.218C61.788 138.506 61.506 138.674 61.158 138.722C60.786 138.77 60.372 138.812 59.916 138.848C59.46 138.872 58.986 138.896 58.494 138.92L58.512 140.18C58.944 140.156 59.352 140.132 59.736 140.108C60.132 140.072 60.486 140.03 60.798 139.982C61.158 139.934 61.476 140.018 61.752 140.234C62.04 140.45 62.208 140.738 62.256 141.098C62.316 141.458 62.232 141.782 62.004 142.07C61.788 142.358 61.506 142.52 61.158 142.556C60.786 142.604 60.378 142.646 59.934 142.682C59.502 142.706 59.046 142.73 58.566 142.754L58.62 144.788C59.304 145.004 59.946 145.262 60.546 145.562C61.146 145.862 61.686 146.174 62.166 146.498C62.478 146.702 62.664 146.99 62.724 147.362C62.784 147.722 62.712 148.052 62.508 148.352C62.292 148.652 62.004 148.838 61.644 148.91C61.284 148.982 60.948 148.91 60.636 148.694C60.336 148.478 60.012 148.274 59.664 148.082C59.328 147.878 58.986 147.692 58.638 147.524C58.53 148.436 58.17 149.12 57.558 149.576C56.958 150.032 56.13 150.26 55.074 150.26ZM55.056 147.704C55.416 147.704 55.662 147.644 55.794 147.524C55.938 147.392 56.004 147.194 55.992 146.93V146.696C55.668 146.66 55.356 146.642 55.056 146.642C54.732 146.642 54.504 146.69 54.372 146.786C54.252 146.882 54.192 147.014 54.192 147.182C54.192 147.338 54.252 147.464 54.372 147.56C54.504 147.656 54.732 147.704 55.056 147.704ZM73.56 150.458C73.212 150.566 72.864 150.578 72.516 150.494C72.18 150.41 71.928 150.2 71.76 149.864C71.592 149.54 71.562 149.192 71.67 148.82C71.778 148.448 72 148.196 72.336 148.064C73.044 147.788 73.62 147.506 74.064 147.218C74.52 146.918 74.874 146.582 75.126 146.21C74.874 146.282 74.616 146.318 74.352 146.318C73.26 146.318 72.378 146.048 71.706 145.508C71.034 144.968 70.698 144.17 70.698 143.114C70.698 142.418 70.86 141.824 71.184 141.332C71.52 140.84 71.97 140.462 72.534 140.198C73.098 139.934 73.728 139.808 74.424 139.82H74.586C74.574 139.688 74.556 139.556 74.532 139.424C74.52 139.28 74.508 139.13 74.496 138.974C73.332 139.022 72.192 139.094 71.076 139.19C69.96 139.274 68.934 139.364 67.998 139.46C67.65 139.496 67.332 139.406 67.044 139.19C66.768 138.974 66.612 138.692 66.576 138.344C66.54 137.984 66.63 137.666 66.846 137.39C67.074 137.114 67.368 136.964 67.728 136.94C68.748 136.856 69.834 136.784 70.986 136.724C72.138 136.652 73.302 136.592 74.478 136.544V135.23C74.478 134.858 74.604 134.546 74.856 134.294C75.12 134.03 75.438 133.898 75.81 133.898C76.182 133.898 76.494 134.03 76.746 134.294C76.998 134.546 77.124 134.858 77.124 135.23V136.454C77.652 136.43 78.162 136.418 78.654 136.418C79.158 136.406 79.65 136.394 80.13 136.382C80.046 136.214 79.956 136.028 79.86 135.824C79.764 135.62 79.686 135.44 79.626 135.284C79.566 135.128 79.566 134.954 79.626 134.762C79.698 134.558 79.836 134.402 80.04 134.294C80.208 134.21 80.388 134.192 80.58 134.24C80.784 134.288 80.946 134.396 81.066 134.564C81.21 134.744 81.36 134.978 81.516 135.266C81.684 135.554 81.81 135.818 81.894 136.058C81.918 136.106 81.936 136.154 81.948 136.202C81.96 136.25 81.966 136.304 81.966 136.364H82.164C82.524 136.364 82.824 136.496 83.064 136.76C83.316 137.012 83.436 137.318 83.424 137.678C83.412 138.038 83.274 138.338 83.01 138.578C82.746 138.806 82.44 138.914 82.092 138.902C81.384 138.866 80.604 138.848 79.752 138.848C78.912 138.848 78.042 138.86 77.142 138.884C77.154 139.232 77.172 139.586 77.196 139.946C77.22 140.294 77.25 140.624 77.286 140.936C77.934 141.668 78.258 142.7 78.258 144.032C78.258 145.556 77.868 146.888 77.088 148.028C76.308 149.156 75.132 149.966 73.56 150.458ZM83.55 136.058C83.358 136.178 83.142 136.214 82.902 136.166C82.662 136.106 82.482 135.968 82.362 135.752C82.278 135.596 82.152 135.374 81.984 135.086C81.816 134.786 81.672 134.534 81.552 134.33C81.468 134.186 81.45 134.012 81.498 133.808C81.558 133.604 81.684 133.442 81.876 133.322C82.032 133.214 82.212 133.172 82.416 133.196C82.62 133.22 82.788 133.31 82.92 133.466C83.076 133.634 83.25 133.856 83.442 134.132C83.634 134.408 83.784 134.66 83.892 134.888C83.988 135.092 84.006 135.308 83.946 135.536C83.898 135.752 83.766 135.926 83.55 136.058ZM74.334 144.05C75.018 144.05 75.36 143.738 75.36 143.114C75.36 143.03 75.348 142.946 75.324 142.862C75.312 142.766 75.294 142.664 75.27 142.556C75.054 142.268 74.748 142.124 74.352 142.124C74.052 142.124 73.794 142.208 73.578 142.376C73.374 142.544 73.272 142.784 73.272 143.096C73.272 143.432 73.368 143.678 73.56 143.834C73.752 143.978 74.01 144.05 74.334 144.05ZM93.54 149.936C92.424 149.936 91.56 149.66 90.948 149.108C90.348 148.568 90.048 147.812 90.048 146.84C90.048 145.916 90.366 145.172 91.002 144.608C91.638 144.032 92.532 143.744 93.684 143.744C93.78 143.744 93.882 143.744 93.99 143.744C94.098 143.744 94.206 143.75 94.314 143.762C94.302 143.282 94.284 142.772 94.26 142.232C94.248 141.692 94.236 141.134 94.224 140.558C93.612 140.594 93.024 140.618 92.46 140.63C91.908 140.63 91.434 140.624 91.038 140.612C90.678 140.6 90.378 140.462 90.138 140.198C89.898 139.934 89.784 139.622 89.796 139.262C89.82 138.902 89.958 138.602 90.21 138.362C90.474 138.11 90.786 137.996 91.146 138.02C91.506 138.032 91.95 138.032 92.478 138.02C93.018 138.008 93.582 137.99 94.17 137.966C94.158 137.57 94.152 137.186 94.152 136.814C94.152 136.43 94.152 136.064 94.152 135.716C94.152 135.344 94.278 135.032 94.53 134.78C94.794 134.516 95.112 134.384 95.484 134.384C95.856 134.384 96.168 134.516 96.42 134.78C96.684 135.032 96.816 135.344 96.816 135.716C96.816 136.04 96.816 136.376 96.816 136.724C96.828 137.072 96.834 137.426 96.834 137.786C97.842 137.714 98.598 137.63 99.102 137.534C99.462 137.474 99.786 137.552 100.074 137.768C100.374 137.984 100.548 138.266 100.596 138.614C100.656 138.962 100.578 139.286 100.362 139.586C100.158 139.874 99.882 140.048 99.534 140.108C99.234 140.156 98.85 140.204 98.382 140.252C97.926 140.3 97.428 140.348 96.888 140.396C96.912 141.116 96.93 141.818 96.942 142.502C96.966 143.174 96.984 143.786 96.996 144.338C97.656 144.566 98.268 144.83 98.832 145.13C99.396 145.43 99.876 145.73 100.272 146.03C100.572 146.258 100.752 146.558 100.812 146.93C100.872 147.29 100.794 147.626 100.578 147.938C100.362 148.238 100.068 148.43 99.696 148.514C99.336 148.586 99.012 148.508 98.724 148.28C98.196 147.86 97.626 147.488 97.014 147.164C96.798 149.012 95.64 149.936 93.54 149.936ZM87.582 149.954C87.21 150.014 86.874 149.936 86.574 149.72C86.274 149.516 86.088 149.234 86.016 148.874C85.944 148.478 85.89 147.938 85.854 147.254C85.818 146.558 85.794 145.784 85.782 144.932C85.77 144.068 85.77 143.174 85.782 142.25C85.806 141.314 85.842 140.408 85.89 139.532C85.938 138.656 85.998 137.858 86.07 137.138C86.154 136.418 86.25 135.836 86.358 135.392C86.454 135.032 86.658 134.756 86.97 134.564C87.282 134.372 87.618 134.318 87.978 134.402C88.338 134.486 88.614 134.69 88.806 135.014C89.01 135.326 89.064 135.662 88.968 136.022C88.86 136.454 88.77 137.006 88.698 137.678C88.626 138.338 88.566 139.064 88.518 139.856C88.47 140.648 88.434 141.464 88.41 142.304C88.398 143.132 88.398 143.942 88.41 144.734C88.422 145.514 88.446 146.222 88.482 146.858C88.53 147.494 88.59 148.01 88.662 148.406C88.722 148.766 88.644 149.096 88.428 149.396C88.224 149.708 87.942 149.894 87.582 149.954ZM93.54 147.398C93.804 147.398 94.014 147.332 94.17 147.2C94.326 147.068 94.404 146.858 94.404 146.57C94.404 146.546 94.404 146.51 94.404 146.462C94.404 146.414 94.398 146.354 94.386 146.282C94.254 146.258 94.116 146.24 93.972 146.228C93.828 146.216 93.684 146.21 93.54 146.21C93.252 146.21 93.042 146.27 92.91 146.39C92.778 146.498 92.712 146.642 92.712 146.822C92.712 147.014 92.772 147.158 92.892 147.254C93.024 147.35 93.24 147.398 93.54 147.398ZM118.362 150.224C118.062 150.416 117.738 150.47 117.39 150.386C117.042 150.302 116.778 150.11 116.598 149.81C116.49 149.642 116.34 149.414 116.148 149.126C115.956 148.85 115.764 148.574 115.572 148.298C115.38 148.022 115.218 147.8 115.086 147.632C114.906 147.38 114.84 147.104 114.888 146.804C114.936 146.492 115.086 146.252 115.338 146.084L115.5 145.976H104.34C104.04 145.976 103.782 145.874 103.566 145.67C103.35 145.454 103.242 145.196 103.242 144.896C103.242 144.596 103.35 144.344 103.566 144.14C103.782 143.924 104.04 143.816 104.34 143.816H105.384V141.692H103.584C103.284 141.692 103.026 141.59 102.81 141.386C102.606 141.17 102.504 140.912 102.504 140.612C102.504 140.312 102.606 140.06 102.81 139.856C103.026 139.64 103.284 139.532 103.584 139.532H105.384V138.344C105.336 138.392 105.288 138.44 105.24 138.488C105.192 138.536 105.15 138.59 105.114 138.65C104.862 138.914 104.556 139.076 104.196 139.136C103.836 139.184 103.5 139.076 103.188 138.812C102.936 138.608 102.804 138.332 102.792 137.984C102.78 137.636 102.888 137.348 103.116 137.12C103.344 136.88 103.608 136.58 103.908 136.22C104.208 135.848 104.496 135.476 104.772 135.104C105.048 134.732 105.264 134.42 105.42 134.168C105.624 133.82 105.9 133.616 106.248 133.556C106.596 133.496 106.914 133.556 107.202 133.736C107.514 133.928 107.7 134.186 107.76 134.51C107.832 134.822 107.778 135.116 107.598 135.392H117.588C117.9 135.392 118.158 135.5 118.362 135.716C118.566 135.92 118.668 136.172 118.668 136.472C118.668 136.772 118.566 137.03 118.362 137.246C118.158 137.45 117.9 137.552 117.588 137.552H116.724V139.532H118.38C118.692 139.532 118.95 139.64 119.154 139.856C119.358 140.06 119.46 140.312 119.46 140.612C119.46 140.912 119.358 141.17 119.154 141.386C118.95 141.59 118.692 141.692 118.38 141.692H116.724V143.816H117.822C118.134 143.816 118.392 143.924 118.596 144.14C118.8 144.344 118.902 144.596 118.902 144.896C118.902 145.196 118.8 145.454 118.596 145.67C118.392 145.874 118.134 145.976 117.822 145.976H116.724C116.784 146.012 116.838 146.048 116.886 146.084C116.934 146.12 116.982 146.162 117.03 146.21C117.186 146.39 117.372 146.624 117.588 146.912C117.804 147.188 118.014 147.47 118.218 147.758C118.434 148.034 118.602 148.262 118.722 148.442C118.926 148.73 118.992 149.048 118.92 149.396C118.86 149.756 118.674 150.032 118.362 150.224ZM103.494 150.278C103.218 150.074 103.062 149.798 103.026 149.45C103.002 149.102 103.098 148.796 103.314 148.532C103.446 148.388 103.596 148.202 103.764 147.974C103.944 147.734 104.118 147.494 104.286 147.254C104.466 147.002 104.616 146.792 104.736 146.624C104.928 146.336 105.18 146.15 105.492 146.066C105.816 145.982 106.128 146.024 106.428 146.192C106.728 146.348 106.92 146.594 107.004 146.93C107.1 147.266 107.058 147.578 106.878 147.866C106.77 148.046 106.626 148.274 106.446 148.55C106.266 148.826 106.08 149.096 105.888 149.36C105.708 149.636 105.552 149.852 105.42 150.008C105.192 150.308 104.892 150.482 104.52 150.53C104.16 150.59 103.818 150.506 103.494 150.278ZM109.83 150.656C109.482 150.728 109.158 150.674 108.858 150.494C108.57 150.314 108.396 150.05 108.336 149.702C108.324 149.57 108.288 149.366 108.228 149.09C108.18 148.826 108.132 148.562 108.084 148.298C108.036 148.034 108 147.836 107.976 147.704C107.904 147.344 107.964 147.032 108.156 146.768C108.348 146.504 108.606 146.342 108.93 146.282C109.278 146.21 109.596 146.252 109.884 146.408C110.172 146.564 110.358 146.834 110.442 147.218C110.466 147.338 110.502 147.536 110.55 147.812C110.61 148.076 110.67 148.346 110.73 148.622C110.79 148.886 110.832 149.084 110.856 149.216C110.916 149.576 110.85 149.888 110.658 150.152C110.466 150.416 110.19 150.584 109.83 150.656ZM113.484 150.44C113.112 150.524 112.776 150.482 112.476 150.314C112.188 150.146 112.008 149.894 111.936 149.558C111.912 149.426 111.864 149.234 111.792 148.982C111.732 148.718 111.672 148.46 111.612 148.208C111.552 147.956 111.504 147.764 111.468 147.632C111.372 147.272 111.408 146.96 111.576 146.696C111.744 146.42 111.99 146.24 112.314 146.156C112.662 146.06 112.98 146.084 113.268 146.228C113.568 146.36 113.772 146.612 113.88 146.984C113.928 147.104 113.988 147.296 114.06 147.56C114.132 147.824 114.204 148.088 114.276 148.352C114.348 148.616 114.396 148.814 114.42 148.946C114.516 149.294 114.468 149.606 114.276 149.882C114.096 150.17 113.832 150.356 113.484 150.44ZM107.58 143.816H108.426V141.692H107.58V143.816ZM113.682 143.816H114.528V141.692H113.682V143.816ZM110.64 143.816H111.468V141.692H110.64V143.816ZM107.58 139.532H108.426V137.552H107.58V139.532ZM113.682 139.532H114.528V137.552H113.682V139.532ZM110.64 139.532H111.468V137.552H110.64V139.532ZM125.094 150.584C124.758 150.584 124.47 150.476 124.23 150.26C124.002 150.044 123.888 149.75 123.888 149.378V145.148C123.66 145.46 123.426 145.76 123.186 146.048C122.958 146.324 122.742 146.564 122.538 146.768C122.31 147.02 122.028 147.158 121.692 147.182C121.356 147.194 121.068 147.086 120.828 146.858C120.6 146.642 120.48 146.378 120.468 146.066C120.456 145.754 120.564 145.49 120.792 145.274C121.044 145.01 121.344 144.668 121.692 144.248C122.052 143.816 122.406 143.372 122.754 142.916C123.102 142.46 123.384 142.064 123.6 141.728H121.854C121.554 141.728 121.29 141.62 121.062 141.404C120.846 141.176 120.738 140.906 120.738 140.594C120.738 140.282 120.846 140.018 121.062 139.802C121.29 139.586 121.554 139.478 121.854 139.478H123.888V134.978C123.888 134.606 124.002 134.318 124.23 134.114C124.47 133.898 124.758 133.79 125.094 133.79C125.43 133.79 125.712 133.898 125.94 134.114C126.18 134.318 126.3 134.606 126.3 134.978V139.478H127.884C128.196 139.478 128.46 139.586 128.676 139.802C128.904 140.018 129.018 140.282 129.018 140.594C129.018 140.906 128.904 141.176 128.676 141.404C128.46 141.62 128.196 141.728 127.884 141.728H126.444C126.66 141.944 126.906 142.19 127.182 142.466C127.458 142.73 127.722 142.982 127.974 143.222C128.226 143.45 128.418 143.624 128.55 143.744C128.814 143.972 128.934 144.254 128.91 144.59C128.97 144.566 129.024 144.548 129.072 144.536C129.132 144.524 129.192 144.512 129.252 144.5C129.816 144.416 130.452 144.314 131.16 144.194C131.88 144.074 132.594 143.954 133.302 143.834V138.65C133.278 138.698 133.248 138.746 133.212 138.794C133.188 138.83 133.158 138.866 133.122 138.902C132.894 139.13 132.618 139.256 132.294 139.28C131.97 139.292 131.694 139.184 131.466 138.956C131.382 138.872 131.244 138.746 131.052 138.578C130.86 138.398 130.668 138.218 130.476 138.038C130.296 137.858 130.164 137.732 130.08 137.66C129.852 137.456 129.732 137.198 129.72 136.886C129.708 136.574 129.81 136.304 130.026 136.076C130.242 135.836 130.5 135.704 130.8 135.68C131.112 135.656 131.4 135.746 131.664 135.95C131.76 136.034 131.904 136.16 132.096 136.328C132.288 136.496 132.48 136.664 132.672 136.832C132.864 137 133.008 137.132 133.104 137.228C133.14 137.276 133.176 137.324 133.212 137.372C133.248 137.408 133.278 137.45 133.302 137.498V135.014C133.302 134.63 133.422 134.33 133.662 134.114C133.914 133.886 134.208 133.772 134.544 133.772C134.892 133.772 135.186 133.886 135.426 134.114C135.666 134.33 135.786 134.63 135.786 135.014V143.348C135.906 143.324 136.02 143.3 136.128 143.276C136.236 143.252 136.338 143.234 136.434 143.222C136.77 143.15 137.076 143.204 137.352 143.384C137.628 143.564 137.79 143.81 137.838 144.122C137.898 144.458 137.856 144.758 137.712 145.022C137.568 145.286 137.328 145.454 136.992 145.526C136.812 145.574 136.62 145.622 136.416 145.67C136.212 145.706 136.002 145.748 135.786 145.796V149.342C135.786 149.726 135.666 150.026 135.426 150.242C135.186 150.47 134.892 150.584 134.544 150.584C134.208 150.584 133.914 150.47 133.662 150.242C133.422 150.026 133.302 149.726 133.302 149.342V146.3C132.654 146.42 132.012 146.54 131.376 146.66C130.74 146.768 130.158 146.864 129.63 146.948C129.246 147.008 128.922 146.942 128.658 146.75C128.394 146.558 128.232 146.276 128.172 145.904C128.16 145.856 128.154 145.814 128.154 145.778C128.154 145.73 128.154 145.682 128.154 145.634C127.962 145.694 127.764 145.706 127.56 145.67C127.368 145.634 127.188 145.538 127.02 145.382C126.936 145.298 126.828 145.196 126.696 145.076C126.564 144.944 126.432 144.8 126.3 144.644V149.378C126.3 149.75 126.18 150.044 125.94 150.26C125.712 150.476 125.43 150.584 125.094 150.584ZM131.034 142.916C130.95 142.832 130.812 142.706 130.62 142.538C130.428 142.37 130.236 142.202 130.044 142.034C129.864 141.854 129.726 141.728 129.63 141.656C129.39 141.464 129.264 141.212 129.252 140.9C129.24 140.588 129.33 140.318 129.522 140.09C129.738 139.85 129.996 139.712 130.296 139.676C130.608 139.64 130.896 139.724 131.16 139.928C131.268 140 131.418 140.12 131.61 140.288C131.802 140.444 131.994 140.606 132.186 140.774C132.39 140.93 132.54 141.056 132.636 141.152C132.876 141.38 133.002 141.656 133.014 141.98C133.026 142.304 132.918 142.586 132.69 142.826C132.474 143.066 132.204 143.198 131.88 143.222C131.556 143.246 131.274 143.144 131.034 142.916ZM127.29 139.082C127.002 138.974 126.804 138.794 126.696 138.542C126.6 138.29 126.606 138.032 126.714 137.768C126.762 137.636 126.828 137.45 126.912 137.21C126.996 136.958 127.08 136.712 127.164 136.472C127.26 136.232 127.326 136.046 127.362 135.914C127.458 135.602 127.644 135.386 127.92 135.266C128.208 135.146 128.49 135.134 128.766 135.23C129.042 135.326 129.246 135.494 129.378 135.734C129.51 135.962 129.522 136.238 129.414 136.562C129.366 136.706 129.294 136.91 129.198 137.174C129.114 137.426 129.024 137.684 128.928 137.948C128.832 138.2 128.754 138.398 128.694 138.542C128.598 138.782 128.412 138.962 128.136 139.082C127.86 139.19 127.578 139.19 127.29 139.082ZM122.97 139.064C122.67 139.184 122.382 139.196 122.106 139.1C121.842 138.992 121.662 138.788 121.566 138.488C121.53 138.356 121.47 138.164 121.386 137.912C121.302 137.66 121.212 137.408 121.116 137.156C121.032 136.904 120.966 136.712 120.918 136.58C120.822 136.304 120.834 136.046 120.954 135.806C121.074 135.566 121.272 135.392 121.548 135.284C121.86 135.176 122.142 135.182 122.394 135.302C122.658 135.41 122.844 135.608 122.952 135.896C123 136.016 123.066 136.202 123.15 136.454C123.246 136.706 123.336 136.958 123.42 137.21C123.516 137.462 123.582 137.654 123.618 137.786C123.714 138.086 123.702 138.35 123.582 138.578C123.462 138.806 123.258 138.968 122.97 139.064ZM151.536 149.828C150.072 149.624 148.86 149.198 147.9 148.55C146.94 147.902 146.226 147.128 145.758 146.228C145.29 145.316 145.056 144.356 145.056 143.348C145.056 142.46 145.2 141.644 145.488 140.9C145.788 140.156 146.214 139.484 146.766 138.884C145.986 139.016 145.224 139.148 144.48 139.28C143.736 139.412 143.052 139.532 142.428 139.64C141.804 139.748 141.282 139.838 140.862 139.91C140.502 139.97 140.172 139.892 139.872 139.676C139.584 139.448 139.41 139.154 139.35 138.794C139.302 138.422 139.38 138.086 139.584 137.786C139.8 137.486 140.094 137.312 140.466 137.264C140.982 137.192 141.636 137.096 142.428 136.976C143.232 136.844 144.09 136.706 145.002 136.562C145.926 136.406 146.844 136.256 147.756 136.112C148.668 135.956 149.508 135.812 150.276 135.68C151.044 135.536 151.662 135.416 152.13 135.32C152.478 135.248 152.802 135.32 153.102 135.536C153.402 135.74 153.588 136.016 153.66 136.364C153.732 136.712 153.672 137.042 153.48 137.354C153.3 137.666 153.03 137.852 152.67 137.912C151.866 138.02 151.158 138.248 150.546 138.596C149.934 138.944 149.418 139.37 148.998 139.874C148.578 140.378 148.26 140.918 148.044 141.494C147.828 142.07 147.72 142.64 147.72 143.204C147.72 144.272 148.086 145.154 148.818 145.85C149.55 146.546 150.582 146.99 151.914 147.182C152.286 147.23 152.58 147.404 152.796 147.704C153.024 148.004 153.108 148.334 153.048 148.694C153 149.066 152.826 149.36 152.526 149.576C152.238 149.792 151.908 149.876 151.536 149.828ZM155.496 140.936C155.316 141.104 155.094 141.182 154.83 141.17C154.578 141.158 154.368 141.05 154.2 140.846C154.08 140.714 153.906 140.51 153.678 140.234C153.45 139.958 153.252 139.724 153.084 139.532C152.976 139.4 152.928 139.22 152.94 138.992C152.952 138.764 153.048 138.572 153.228 138.416C153.372 138.284 153.552 138.212 153.768 138.2C153.984 138.188 154.176 138.248 154.344 138.38C154.536 138.536 154.752 138.734 154.992 138.974C155.244 139.214 155.448 139.442 155.604 139.658C155.76 139.85 155.826 140.066 155.802 140.306C155.79 140.546 155.688 140.756 155.496 140.936ZM153.516 142.52C153.324 142.664 153.102 142.718 152.85 142.682C152.598 142.646 152.4 142.52 152.256 142.304C152.16 142.148 152.004 141.926 151.788 141.638C151.584 141.338 151.41 141.086 151.266 140.882C151.17 140.738 151.14 140.558 151.176 140.342C151.212 140.114 151.326 139.928 151.518 139.784C151.674 139.664 151.86 139.61 152.076 139.622C152.292 139.634 152.478 139.712 152.634 139.856C152.814 140.024 153.012 140.246 153.228 140.522C153.456 140.786 153.636 141.032 153.768 141.26C153.9 141.476 153.942 141.698 153.894 141.926C153.858 142.154 153.732 142.352 153.516 142.52ZM160.86 150.548C160.512 150.548 160.212 150.44 159.96 150.224C159.72 150.008 159.6 149.702 159.6 149.306V144.734C159.444 145.01 159.288 145.268 159.132 145.508C158.988 145.748 158.85 145.964 158.718 146.156C158.502 146.456 158.214 146.636 157.854 146.696C157.494 146.756 157.17 146.672 156.882 146.444C156.606 146.228 156.444 145.952 156.396 145.616C156.36 145.268 156.444 144.956 156.648 144.68C156.864 144.404 157.11 144.056 157.386 143.636C157.662 143.204 157.938 142.742 158.214 142.25C158.502 141.758 158.766 141.284 159.006 140.828C159.258 140.372 159.456 139.976 159.6 139.64V139.568H157.782C157.434 139.568 157.152 139.46 156.936 139.244C156.732 139.016 156.63 138.746 156.63 138.434C156.63 138.11 156.732 137.84 156.936 137.624C157.152 137.396 157.434 137.282 157.782 137.282H159.6V135.014C159.6 134.63 159.72 134.33 159.96 134.114C160.212 133.886 160.512 133.772 160.86 133.772C161.208 133.772 161.502 133.886 161.742 134.114C161.982 134.33 162.102 134.63 162.102 135.014V137.282H163.164C163.524 137.282 163.806 137.396 164.01 137.624C164.214 137.84 164.316 138.11 164.316 138.434C164.316 138.746 164.214 139.016 164.01 139.244C163.806 139.46 163.524 139.568 163.164 139.568H162.102V140.666C162.282 140.858 162.51 141.104 162.786 141.404C163.074 141.692 163.356 141.974 163.632 142.25C163.908 142.514 164.118 142.718 164.262 142.862C164.322 142.91 164.376 142.97 164.424 143.042C164.472 143.114 164.514 143.186 164.55 143.258V138.128C164.55 137.204 164.67 136.484 164.91 135.968C165.162 135.44 165.582 135.068 166.17 134.852C166.758 134.624 167.556 134.51 168.564 134.51C169.584 134.51 170.388 134.624 170.976 134.852C171.564 135.068 171.978 135.44 172.218 135.968C172.47 136.484 172.596 137.204 172.596 138.128V146.246C172.596 147.158 172.47 147.878 172.218 148.406C171.978 148.934 171.564 149.306 170.976 149.522C170.388 149.75 169.584 149.864 168.564 149.864C167.556 149.864 166.758 149.75 166.17 149.522C165.582 149.306 165.162 148.934 164.91 148.406C164.67 147.878 164.55 147.158 164.55 146.246V144.23C164.526 144.278 164.496 144.332 164.46 144.392C164.436 144.44 164.4 144.494 164.352 144.554C164.136 144.794 163.86 144.914 163.524 144.914C163.2 144.914 162.93 144.788 162.714 144.536C162.546 144.356 162.342 144.134 162.102 143.87V149.306C162.102 149.702 161.982 150.008 161.742 150.224C161.502 150.44 161.208 150.548 160.86 150.548ZM167.088 143.168H170.058V141.008H167.088V143.168ZM168.564 147.56C169.164 147.56 169.56 147.464 169.752 147.272C169.956 147.08 170.058 146.726 170.058 146.21V145.364H167.088V146.21C167.088 146.726 167.184 147.08 167.376 147.272C167.568 147.464 167.964 147.56 168.564 147.56ZM167.088 138.83H170.058V138.182C170.058 137.654 169.956 137.3 169.752 137.12C169.56 136.928 169.164 136.832 168.564 136.832C167.964 136.832 167.568 136.928 167.376 137.12C167.184 137.3 167.088 137.654 167.088 138.182V138.83ZM182.496 150.44C182.124 150.596 181.77 150.626 181.434 150.53C181.11 150.446 180.864 150.23 180.696 149.882C180.54 149.57 180.528 149.258 180.66 148.946C180.792 148.622 181.026 148.4 181.362 148.28C182.274 147.932 182.976 147.53 183.468 147.074C183.972 146.606 184.32 146.012 184.512 145.292C184.716 144.56 184.812 143.642 184.8 142.538C184.8 142.178 184.92 141.896 185.16 141.692C185.412 141.476 185.7 141.374 186.024 141.386C186.36 141.398 186.636 141.512 186.852 141.728C187.08 141.932 187.188 142.226 187.176 142.61C187.164 142.838 187.152 143.06 187.14 143.276C187.128 143.492 187.11 143.702 187.086 143.906C187.338 144.806 187.752 145.616 188.328 146.336C188.916 147.044 189.702 147.632 190.686 148.1C191.022 148.256 191.244 148.49 191.352 148.802C191.46 149.114 191.43 149.432 191.262 149.756C191.082 150.092 190.806 150.302 190.434 150.386C190.074 150.482 189.726 150.44 189.39 150.26C188.034 149.504 186.984 148.478 186.24 147.182C185.88 147.914 185.394 148.538 184.782 149.054C184.17 149.57 183.408 150.032 182.496 150.44ZM183.018 142.466C182.718 142.622 182.394 142.67 182.046 142.61C181.71 142.538 181.458 142.334 181.29 141.998C181.146 141.698 181.122 141.404 181.218 141.116C181.326 140.816 181.548 140.588 181.884 140.432C182.664 140.084 183.258 139.652 183.666 139.136C184.074 138.608 184.356 137.99 184.512 137.282C184.68 136.574 184.764 135.776 184.764 134.888C184.776 134.528 184.902 134.246 185.142 134.042C185.382 133.826 185.664 133.73 185.988 133.754C186.324 133.766 186.606 133.874 186.834 134.078C187.062 134.282 187.164 134.576 187.14 134.96C187.128 135.452 187.092 135.926 187.032 136.382C187.488 138.026 188.694 139.334 190.65 140.306C190.938 140.438 191.124 140.66 191.208 140.972C191.304 141.272 191.262 141.572 191.082 141.872C190.89 142.184 190.62 142.382 190.272 142.466C189.924 142.538 189.594 142.49 189.282 142.322C187.962 141.602 186.924 140.63 186.168 139.406C185.832 140.054 185.406 140.63 184.89 141.134C184.386 141.638 183.762 142.082 183.018 142.466ZM177.96 150.188C177.264 150.188 176.718 150.11 176.322 149.954C175.926 149.81 175.644 149.54 175.476 149.144C175.32 148.748 175.242 148.184 175.242 147.452C175.242 146.684 175.32 146.108 175.476 145.724C175.644 145.328 175.926 145.058 176.322 144.914C176.718 144.77 177.264 144.698 177.96 144.698C178.668 144.698 179.214 144.77 179.598 144.914C179.994 145.058 180.27 145.328 180.426 145.724C180.582 146.108 180.66 146.684 180.66 147.452C180.66 148.184 180.582 148.748 180.426 149.144C180.27 149.54 179.994 149.81 179.598 149.954C179.214 150.11 178.668 150.188 177.96 150.188ZM175.512 138.992C175.248 138.992 175.014 138.896 174.81 138.704C174.618 138.5 174.522 138.266 174.522 138.002C174.522 137.726 174.618 137.492 174.81 137.3C175.014 137.108 175.248 137.012 175.512 137.012H180.084C180.36 137.012 180.594 137.108 180.786 137.3C180.978 137.492 181.074 137.726 181.074 138.002C181.074 138.266 180.978 138.5 180.786 138.704C180.594 138.896 180.36 138.992 180.084 138.992H175.512ZM176.322 136.436C176.034 136.436 175.788 136.334 175.584 136.13C175.392 135.926 175.296 135.686 175.296 135.41C175.296 135.122 175.392 134.882 175.584 134.69C175.788 134.486 176.034 134.384 176.322 134.384H179.49C179.778 134.384 180.018 134.486 180.21 134.69C180.414 134.882 180.516 135.122 180.516 135.41C180.516 135.686 180.414 135.926 180.21 136.13C180.018 136.334 179.778 136.436 179.49 136.436H176.322ZM176.268 144.158C176.004 144.158 175.77 144.062 175.566 143.87C175.374 143.666 175.278 143.426 175.278 143.15C175.278 142.874 175.374 142.64 175.566 142.448C175.77 142.244 176.004 142.142 176.268 142.142H179.526C179.802 142.142 180.036 142.244 180.228 142.448C180.42 142.64 180.516 142.874 180.516 143.15C180.516 143.426 180.42 143.666 180.228 143.87C180.036 144.062 179.802 144.158 179.526 144.158H176.268ZM176.268 141.566C176.004 141.566 175.77 141.47 175.566 141.278C175.374 141.074 175.278 140.84 175.278 140.576C175.278 140.3 175.374 140.066 175.566 139.874C175.77 139.67 176.004 139.568 176.268 139.568H179.526C179.802 139.568 180.036 139.67 180.228 139.874C180.42 140.066 180.516 140.3 180.516 140.576C180.516 140.84 180.42 141.074 180.228 141.278C180.036 141.47 179.802 141.566 179.526 141.566H176.268ZM182.19 138.776C181.878 138.704 181.65 138.542 181.506 138.29C181.374 138.026 181.35 137.744 181.434 137.444C181.47 137.324 181.518 137.144 181.578 136.904C181.638 136.664 181.692 136.424 181.74 136.184C181.8 135.932 181.842 135.746 181.866 135.626C181.938 135.29 182.1 135.05 182.352 134.906C182.604 134.762 182.88 134.72 183.18 134.78C183.48 134.84 183.714 134.984 183.882 135.212C184.05 135.428 184.104 135.71 184.044 136.058C184.02 136.202 183.984 136.394 183.936 136.634C183.888 136.874 183.834 137.12 183.774 137.372C183.726 137.612 183.684 137.804 183.648 137.948C183.564 138.284 183.384 138.53 183.108 138.686C182.832 138.83 182.526 138.86 182.19 138.776ZM182.1 146.696C181.8 146.6 181.584 146.42 181.452 146.156C181.332 145.892 181.32 145.616 181.416 145.328C181.452 145.208 181.5 145.028 181.56 144.788C181.632 144.548 181.704 144.308 181.776 144.068C181.848 143.828 181.896 143.648 181.92 143.528C182.016 143.204 182.19 142.976 182.442 142.844C182.706 142.712 182.988 142.682 183.288 142.754C183.6 142.826 183.828 142.976 183.972 143.204C184.116 143.432 184.152 143.72 184.08 144.068C184.056 144.212 184.008 144.404 183.936 144.644C183.876 144.884 183.816 145.124 183.756 145.364C183.696 145.592 183.642 145.778 183.594 145.922C183.498 146.234 183.306 146.462 183.018 146.606C182.73 146.75 182.424 146.78 182.1 146.696ZM188.364 138.344C188.088 138.2 187.908 137.99 187.824 137.714C187.74 137.426 187.77 137.15 187.914 136.886C187.974 136.79 188.052 136.64 188.148 136.436C188.256 136.232 188.358 136.028 188.454 135.824C188.562 135.62 188.64 135.47 188.688 135.374C188.82 135.074 189.024 134.876 189.3 134.78C189.588 134.672 189.882 134.684 190.182 134.816C190.47 134.936 190.668 135.134 190.776 135.41C190.884 135.674 190.872 135.956 190.74 136.256C190.692 136.364 190.614 136.532 190.506 136.76C190.41 136.976 190.302 137.192 190.182 137.408C190.074 137.624 189.984 137.792 189.912 137.912C189.756 138.176 189.528 138.356 189.228 138.452C188.928 138.536 188.64 138.5 188.364 138.344ZM188.382 146.138C188.094 145.982 187.914 145.76 187.842 145.472C187.77 145.172 187.806 144.89 187.95 144.626C187.998 144.542 188.07 144.41 188.166 144.23C188.262 144.038 188.358 143.852 188.454 143.672C188.55 143.48 188.616 143.342 188.652 143.258C188.796 142.946 189.006 142.742 189.282 142.646C189.57 142.538 189.864 142.55 190.164 142.682C190.44 142.802 190.632 142.994 190.74 143.258C190.86 143.522 190.854 143.81 190.722 144.122C190.674 144.242 190.596 144.404 190.488 144.608C190.38 144.812 190.272 145.016 190.164 145.22C190.068 145.412 189.99 145.562 189.93 145.67C189.786 145.958 189.558 146.144 189.246 146.228C188.946 146.312 188.658 146.282 188.382 146.138ZM177.96 148.172C178.164 148.172 178.29 148.13 178.338 148.046C178.398 147.95 178.428 147.752 178.428 147.452C178.428 147.14 178.398 146.942 178.338 146.858C178.29 146.762 178.164 146.714 177.96 146.714C177.768 146.714 177.642 146.762 177.582 146.858C177.522 146.942 177.492 147.14 177.492 147.452C177.492 147.752 177.522 147.95 177.582 148.046C177.642 148.13 177.768 148.172 177.96 148.172ZM201.648 149.954C200.088 149.954 198.876 149.576 198.012 148.82C197.16 148.064 196.734 146.852 196.734 145.184V135.644C196.734 135.272 196.86 134.96 197.112 134.708C197.376 134.444 197.694 134.312 198.066 134.312C198.438 134.312 198.756 134.444 199.02 134.708C199.284 134.96 199.416 135.272 199.416 135.644V145.184C199.416 145.964 199.584 146.516 199.92 146.84C200.268 147.152 200.844 147.308 201.648 147.308C202.284 147.308 202.914 147.128 203.538 146.768C204.162 146.408 204.678 145.796 205.086 144.932C205.254 144.596 205.506 144.368 205.842 144.248C206.19 144.128 206.532 144.152 206.868 144.32C207.204 144.476 207.426 144.728 207.534 145.076C207.654 145.412 207.642 145.754 207.498 146.102C207.15 146.906 206.676 147.596 206.076 148.172C205.488 148.748 204.81 149.186 204.042 149.486C203.286 149.798 202.488 149.954 201.648 149.954ZM223.644 149.828C222.18 149.624 220.968 149.198 220.008 148.55C219.048 147.902 218.334 147.128 217.866 146.228C217.41 145.316 217.182 144.356 217.182 143.348C217.182 142.46 217.326 141.644 217.614 140.9C217.902 140.156 218.322 139.484 218.874 138.884C218.094 139.016 217.332 139.148 216.588 139.28C215.844 139.412 215.16 139.532 214.536 139.64C213.924 139.748 213.408 139.838 212.988 139.91C212.616 139.97 212.28 139.892 211.98 139.676C211.692 139.448 211.518 139.154 211.458 138.794C211.41 138.422 211.494 138.086 211.71 137.786C211.926 137.486 212.214 137.312 212.574 137.264C213.09 137.192 213.744 137.096 214.536 136.976C215.34 136.844 216.198 136.706 217.11 136.562C218.034 136.406 218.952 136.256 219.864 136.112C220.776 135.956 221.616 135.812 222.384 135.68C223.152 135.536 223.77 135.416 224.238 135.32C224.586 135.248 224.91 135.32 225.21 135.536C225.51 135.74 225.696 136.016 225.768 136.364C225.84 136.712 225.78 137.048 225.588 137.372C225.408 137.684 225.138 137.864 224.778 137.912C223.986 138.02 223.278 138.248 222.654 138.596C222.042 138.944 221.526 139.37 221.106 139.874C220.686 140.378 220.368 140.918 220.152 141.494C219.936 142.07 219.828 142.64 219.828 143.204C219.828 144.272 220.194 145.154 220.926 145.85C221.658 146.546 222.696 146.99 224.04 147.182C224.4 147.23 224.688 147.404 224.904 147.704C225.132 148.004 225.222 148.334 225.174 148.694C225.126 149.066 224.952 149.36 224.652 149.576C224.352 149.792 224.016 149.876 223.644 149.828ZM236.748 149.612C236.484 149.372 236.334 149.066 236.298 148.694C236.274 148.31 236.394 147.986 236.658 147.722C237.114 147.254 237.54 146.702 237.936 146.066C238.332 145.43 238.68 144.764 238.98 144.068C238.584 143.972 238.194 143.888 237.81 143.816C237.426 143.732 237.048 143.666 236.676 143.618C235.848 145.406 234.828 146.618 233.616 147.254C233.136 147.506 232.632 147.656 232.104 147.704C231.588 147.74 231.102 147.668 230.646 147.488C230.19 147.308 229.818 147.014 229.53 146.606C229.254 146.198 229.116 145.67 229.116 145.022C229.116 144.29 229.32 143.636 229.728 143.06C230.148 142.472 230.784 142.004 231.636 141.656C232.488 141.308 233.574 141.122 234.894 141.098C235.002 140.762 235.11 140.402 235.218 140.018C235.326 139.634 235.428 139.22 235.524 138.776C235.656 138.26 235.62 137.906 235.416 137.714C235.224 137.522 234.864 137.468 234.336 137.552C234.108 137.588 233.82 137.63 233.472 137.678C233.136 137.726 232.848 137.762 232.608 137.786C232.236 137.81 231.912 137.702 231.636 137.462C231.36 137.222 231.21 136.916 231.186 136.544C231.162 136.172 231.264 135.848 231.492 135.572C231.732 135.284 232.038 135.128 232.41 135.104C232.602 135.092 232.824 135.074 233.076 135.05C233.34 135.026 233.598 135.002 233.85 134.978C234.102 134.954 234.3 134.942 234.444 134.942C235.908 134.846 236.952 135.11 237.576 135.734C238.2 136.346 238.392 137.354 238.152 138.758C238.068 139.202 237.978 139.64 237.882 140.072C237.786 140.492 237.684 140.894 237.576 141.278C237.936 141.326 238.296 141.386 238.656 141.458C239.028 141.518 239.4 141.596 239.772 141.692C239.856 141.344 239.922 141.002 239.97 140.666C240.018 140.318 240.048 139.988 240.06 139.676C240.084 139.304 240.21 138.992 240.438 138.74C240.678 138.476 240.984 138.338 241.356 138.326C241.74 138.326 242.064 138.458 242.328 138.722C242.592 138.974 242.712 139.286 242.688 139.658C242.652 140.522 242.514 141.434 242.274 142.394C242.598 142.502 242.916 142.616 243.228 142.736C243.54 142.844 243.846 142.958 244.146 143.078C244.494 143.222 244.734 143.468 244.866 143.816C245.01 144.152 245.016 144.494 244.884 144.842C244.74 145.178 244.494 145.424 244.146 145.58C243.81 145.724 243.468 145.718 243.12 145.562C242.856 145.43 242.586 145.31 242.31 145.202C242.034 145.082 241.758 144.968 241.482 144.86C241.11 145.82 240.672 146.714 240.168 147.542C239.676 148.358 239.166 149.018 238.638 149.522C238.374 149.786 238.062 149.93 237.702 149.954C237.342 149.978 237.024 149.864 236.748 149.612ZM232.518 145.004C232.734 144.872 232.95 144.692 233.166 144.464C233.394 144.236 233.616 143.936 233.832 143.564C233.136 143.648 232.62 143.798 232.284 144.014C231.948 144.218 231.774 144.452 231.762 144.716C231.75 144.908 231.81 145.04 231.942 145.112C232.074 145.184 232.266 145.148 232.518 145.004ZM254.784 150.116C254.04 150.08 253.386 149.924 252.822 149.648C252.27 149.384 251.844 149.012 251.544 148.532C251.244 148.052 251.112 147.494 251.148 146.858C251.184 146.318 251.346 145.844 251.634 145.436C251.922 145.028 252.312 144.716 252.804 144.5C253.308 144.272 253.878 144.188 254.514 144.248C255.51 144.32 256.23 144.626 256.674 145.166C257.118 145.706 257.286 146.36 257.178 147.128C257.514 146.9 257.754 146.612 257.898 146.264C258.054 145.904 258.132 145.496 258.132 145.04C258.132 144.668 258.012 144.302 257.772 143.942C257.544 143.582 257.214 143.288 256.782 143.06C256.362 142.82 255.858 142.7 255.27 142.7C254.694 142.688 254.058 142.85 253.362 143.186C252.666 143.522 251.928 144.086 251.148 144.878C250.872 145.166 250.518 145.316 250.086 145.328C249.666 145.328 249.324 145.172 249.06 144.86C248.832 144.584 248.724 144.266 248.736 143.906C248.76 143.534 248.916 143.24 249.204 143.024C249.924 142.484 250.656 141.902 251.4 141.278C252.144 140.654 252.852 140.042 253.524 139.442C254.196 138.83 254.784 138.278 255.288 137.786C255.48 137.606 255.546 137.438 255.486 137.282C255.426 137.126 255.24 137.072 254.928 137.12C254.508 137.18 254.076 137.24 253.632 137.3C253.188 137.36 252.738 137.42 252.282 137.48C251.922 137.528 251.592 137.444 251.292 137.228C251.004 137 250.83 136.7 250.77 136.328C250.722 135.968 250.806 135.644 251.022 135.356C251.25 135.056 251.55 134.882 251.922 134.834C252.222 134.786 252.582 134.744 253.002 134.708C253.434 134.672 253.866 134.636 254.298 134.6C254.73 134.564 255.096 134.54 255.396 134.528C256.2 134.468 256.86 134.588 257.376 134.888C257.892 135.176 258.246 135.566 258.438 136.058C258.63 136.55 258.648 137.078 258.492 137.642C258.348 138.206 258.006 138.734 257.466 139.226C257.31 139.382 257.094 139.58 256.818 139.82C256.554 140.06 256.254 140.324 255.918 140.612C256.794 140.588 257.598 140.75 258.33 141.098C259.074 141.434 259.674 141.944 260.13 142.628C260.586 143.3 260.814 144.134 260.814 145.13C260.814 146.27 260.556 147.224 260.04 147.992C259.524 148.748 258.81 149.306 257.898 149.666C256.998 150.026 255.96 150.176 254.784 150.116ZM254.316 147.65C254.472 147.662 254.694 147.662 254.982 147.65C255.126 147.362 255.156 147.104 255.072 146.876C254.988 146.636 254.79 146.492 254.478 146.444C254.238 146.396 254.034 146.42 253.866 146.516C253.698 146.612 253.602 146.75 253.578 146.93C253.554 147.146 253.608 147.308 253.74 147.416C253.884 147.524 254.076 147.602 254.316 147.65Z" fill="white"/>
<path d="M45 141L27 151.392L27 130.608L45 141Z" fill="white"/>
<path d="M101 154C102.85 154 102.85 156 104.699 156C106.549 156 106.549 154 108.398 154C110.248 154 110.248 156 112.098 156C113.947 156 113.947 154 115.797 154C117.646 154 117.646 156 119.496 156C121.346 156 121.346 154 123.195 154C125.045 154 125.045 156 126.894 156C128.744 156 128.744 154 130.594 154C132.443 154 132.443 156 134.297 156C136.15 156 136.146 154 138 154" stroke="white" stroke-width="2" stroke-miterlimit="10"/>
<circle cx="62" cy="69" r="40" fill="#D74545"/>
<path d="M51.02 58.06C50.508 58.06 50.252 57.796 50.252 57.268V51.292L49.364 51.772C48.892 52.02 48.54 51.916 48.308 51.46C48.076 51.004 48.2 50.66 48.68 50.428L50.084 49.756C50.26 49.668 50.42 49.612 50.564 49.588C50.716 49.556 50.884 49.54 51.068 49.54C51.548 49.54 51.788 49.804 51.788 50.332V57.268C51.788 57.796 51.532 58.06 51.02 58.06ZM62.552 58.924C61.848 58.932 61.464 58.636 61.4 58.036C61.376 57.748 61.464 57.516 61.664 57.34C61.864 57.164 62.12 57.072 62.432 57.064C62.72 57.056 62.94 57.032 63.092 56.992C63.252 56.952 63.368 56.876 63.44 56.764C63.512 56.652 63.568 56.484 63.608 56.26C63.648 56.044 63.68 55.812 63.704 55.564C63.736 55.316 63.764 55.032 63.788 54.712C63.804 54.44 63.764 54.26 63.668 54.172C63.572 54.084 63.372 54.04 63.068 54.04H62.144C62.064 54.736 61.876 55.4 61.58 56.032C61.284 56.664 60.88 57.224 60.368 57.712C59.856 58.2 59.228 58.576 58.484 58.84C58.236 58.928 57.992 58.936 57.752 58.864C57.512 58.792 57.336 58.62 57.224 58.348C57.136 58.124 57.144 57.908 57.248 57.7C57.352 57.484 57.528 57.328 57.776 57.232C58.28 57.04 58.712 56.78 59.072 56.452C59.44 56.116 59.736 55.74 59.96 55.324C60.184 54.908 60.328 54.48 60.392 54.04H59.588C59.34 54.04 59.132 53.956 58.964 53.788C58.796 53.612 58.712 53.404 58.712 53.164C58.712 53.06 58.732 52.956 58.772 52.852C58.612 53.004 58.456 53.152 58.304 53.296C58.16 53.432 58.02 53.556 57.884 53.668C57.668 53.836 57.42 53.92 57.14 53.92C56.868 53.912 56.64 53.796 56.456 53.572C56.288 53.364 56.224 53.14 56.264 52.9C56.304 52.652 56.424 52.444 56.624 52.276C56.944 52.02 57.268 51.724 57.596 51.388C57.924 51.044 58.232 50.692 58.52 50.332C58.816 49.972 59.06 49.636 59.252 49.324C59.388 49.116 59.576 48.98 59.816 48.916C60.056 48.852 60.288 48.888 60.512 49.024C60.736 49.16 60.88 49.348 60.944 49.588C61.008 49.828 60.972 50.06 60.836 50.284C60.636 50.612 60.392 50.96 60.104 51.328C59.824 51.696 59.532 52.044 59.228 52.372C59.284 52.348 59.34 52.328 59.396 52.312C59.46 52.296 59.524 52.288 59.588 52.288H63.188C63.804 52.288 64.292 52.36 64.652 52.504C65.012 52.64 65.264 52.872 65.408 53.2C65.56 53.52 65.62 53.964 65.588 54.532C65.564 54.948 65.536 55.324 65.504 55.66C65.48 55.996 65.444 56.324 65.396 56.644C65.308 57.212 65.152 57.664 64.928 58C64.712 58.328 64.408 58.564 64.016 58.708C63.632 58.852 63.144 58.924 62.552 58.924ZM66.152 53.548C65.792 53.292 65.42 52.976 65.036 52.6C64.652 52.216 64.296 51.816 63.968 51.4C63.648 50.984 63.388 50.596 63.188 50.236C63.06 50.004 62.936 49.856 62.816 49.792C62.704 49.72 62.508 49.684 62.228 49.684H61.688C61.456 49.684 61.256 49.604 61.088 49.444C60.928 49.276 60.848 49.076 60.848 48.844C60.848 48.612 60.928 48.416 61.088 48.256C61.256 48.096 61.456 48.016 61.688 48.016H62.228C62.732 48.016 63.136 48.056 63.44 48.136C63.744 48.208 64 48.348 64.208 48.556C64.424 48.764 64.648 49.068 64.88 49.468C65.136 49.908 65.484 50.348 65.924 50.788C66.364 51.22 66.828 51.596 67.316 51.916C67.548 52.068 67.696 52.276 67.76 52.54C67.824 52.804 67.776 53.052 67.616 53.284C67.448 53.524 67.22 53.668 66.932 53.716C66.644 53.764 66.384 53.708 66.152 53.548ZM77.024 58.552C76.048 58.416 75.24 58.132 74.6 57.7C73.96 57.268 73.484 56.752 73.172 56.152C72.86 55.544 72.704 54.904 72.704 54.232C72.704 53.64 72.8 53.096 72.992 52.6C73.192 52.104 73.476 51.656 73.844 51.256C73.324 51.344 72.816 51.432 72.32 51.52C71.824 51.608 71.368 51.688 70.952 51.76C70.536 51.832 70.188 51.892 69.908 51.94C69.668 51.98 69.448 51.928 69.248 51.784C69.056 51.632 68.94 51.436 68.9 51.196C68.868 50.948 68.92 50.724 69.056 50.524C69.2 50.324 69.396 50.208 69.644 50.176C69.988 50.128 70.424 50.064 70.952 49.984C71.488 49.896 72.06 49.804 72.668 49.708C73.284 49.604 73.896 49.504 74.504 49.408C75.112 49.304 75.672 49.208 76.184 49.12C76.696 49.024 77.108 48.944 77.42 48.88C77.652 48.832 77.868 48.88 78.068 49.024C78.268 49.16 78.392 49.344 78.44 49.576C78.488 49.808 78.448 50.028 78.32 50.236C78.2 50.444 78.02 50.568 77.78 50.608C77.244 50.68 76.772 50.832 76.364 51.064C75.956 51.296 75.612 51.58 75.332 51.916C75.052 52.252 74.84 52.612 74.696 52.996C74.552 53.38 74.48 53.76 74.48 54.136C74.48 54.848 74.724 55.436 75.212 55.9C75.7 56.364 76.388 56.66 77.276 56.788C77.524 56.82 77.72 56.936 77.864 57.136C78.016 57.336 78.072 57.556 78.032 57.796C78 58.044 77.884 58.24 77.684 58.384C77.492 58.528 77.272 58.584 77.024 58.552ZM79.664 52.624C79.544 52.736 79.396 52.788 79.22 52.78C79.052 52.772 78.912 52.7 78.8 52.564C78.72 52.476 78.604 52.34 78.452 52.156C78.3 51.972 78.168 51.816 78.056 51.688C77.984 51.6 77.952 51.48 77.96 51.328C77.968 51.176 78.032 51.048 78.152 50.944C78.248 50.856 78.368 50.808 78.512 50.8C78.656 50.792 78.784 50.832 78.896 50.92C79.024 51.024 79.168 51.156 79.328 51.316C79.496 51.476 79.632 51.628 79.736 51.772C79.84 51.9 79.884 52.044 79.868 52.204C79.86 52.364 79.792 52.504 79.664 52.624ZM78.344 53.68C78.216 53.776 78.068 53.812 77.9 53.788C77.732 53.764 77.6 53.68 77.504 53.536C77.44 53.432 77.336 53.284 77.192 53.092C77.056 52.892 76.94 52.724 76.844 52.588C76.78 52.492 76.76 52.372 76.784 52.228C76.808 52.076 76.884 51.952 77.012 51.856C77.116 51.776 77.24 51.74 77.384 51.748C77.528 51.756 77.652 51.808 77.756 51.904C77.876 52.016 78.008 52.164 78.152 52.348C78.304 52.524 78.424 52.688 78.512 52.84C78.6 52.984 78.628 53.132 78.596 53.284C78.572 53.436 78.488 53.568 78.344 53.68ZM39.908 75.492C39.724 75.316 39.624 75.1 39.608 74.844C39.6 74.588 39.684 74.368 39.86 74.184C41.06 72.888 41.904 71.336 42.392 69.528C42.048 69.552 41.72 69.572 41.408 69.588C41.096 69.604 40.836 69.62 40.628 69.636C40.372 69.644 40.148 69.564 39.956 69.396C39.772 69.22 39.672 69.004 39.656 68.748C39.648 68.492 39.728 68.268 39.896 68.076C40.072 67.884 40.284 67.784 40.532 67.776C40.788 67.76 41.116 67.748 41.516 67.74C41.924 67.724 42.344 67.708 42.776 67.692C42.848 67.156 42.896 66.596 42.92 66.012C42.936 65.756 43.036 65.544 43.22 65.376C43.412 65.2 43.632 65.116 43.88 65.124C44.136 65.132 44.352 65.232 44.528 65.424C44.704 65.608 44.784 65.828 44.768 66.084C44.744 66.596 44.696 67.112 44.624 67.632L44.792 67.62C45.688 67.588 46.388 67.7 46.892 67.956C47.396 68.204 47.724 68.632 47.876 69.24C48.036 69.84 48.04 70.66 47.888 71.7C47.76 72.588 47.568 73.3 47.312 73.836C47.064 74.372 46.76 74.772 46.4 75.036C46.048 75.3 45.652 75.456 45.212 75.504C44.772 75.56 44.3 75.544 43.796 75.456C43.548 75.416 43.348 75.288 43.196 75.072C43.052 74.864 43 74.636 43.04 74.388C43.08 74.132 43.204 73.932 43.412 73.788C43.628 73.644 43.86 73.592 44.108 73.632C44.356 73.672 44.58 73.688 44.78 73.68C44.98 73.664 45.16 73.584 45.32 73.44C45.48 73.296 45.62 73.064 45.74 72.744C45.86 72.416 45.968 71.96 46.064 71.376C46.16 70.784 46.188 70.348 46.148 70.068C46.108 69.78 45.984 69.592 45.776 69.504C45.576 69.416 45.268 69.38 44.852 69.396C44.708 69.404 44.516 69.416 44.276 69.432C43.98 70.616 43.568 71.724 43.04 72.756C42.512 73.788 41.904 74.684 41.216 75.444C41.04 75.636 40.824 75.736 40.568 75.744C40.312 75.752 40.092 75.668 39.908 75.492ZM53.192 74.688C52.952 74.776 52.712 74.768 52.472 74.664C52.24 74.552 52.08 74.376 51.992 74.136C51.904 73.896 51.912 73.656 52.016 73.416C52.128 73.176 52.304 73.016 52.544 72.936C53.168 72.72 53.8 72.448 54.44 72.12C55.088 71.792 55.708 71.436 56.3 71.052C56.9 70.668 57.44 70.272 57.92 69.864C58.408 69.456 58.808 69.064 59.12 68.688C59.28 68.488 59.484 68.38 59.732 68.364C59.988 68.34 60.216 68.408 60.416 68.568C60.624 68.72 60.736 68.924 60.752 69.18C60.776 69.436 60.708 69.664 60.548 69.864C60.212 70.272 59.768 70.704 59.216 71.16C58.672 71.616 58.064 72.068 57.392 72.516C56.72 72.956 56.02 73.368 55.292 73.752C54.572 74.128 53.872 74.44 53.192 74.688ZM54.044 69.804C53.724 69.54 53.384 69.276 53.024 69.012C52.664 68.74 52.332 68.516 52.028 68.34C51.804 68.204 51.664 68.016 51.608 67.776C51.552 67.528 51.588 67.296 51.716 67.08C51.844 66.856 52.032 66.712 52.28 66.648C52.536 66.584 52.768 66.62 52.976 66.756C53.216 66.908 53.472 67.08 53.744 67.272C54.024 67.456 54.288 67.644 54.536 67.836C54.792 68.028 55.008 68.2 55.184 68.352C55.376 68.512 55.492 68.716 55.532 68.964C55.572 69.212 55.512 69.44 55.352 69.648C55.2 69.848 54.992 69.968 54.728 70.008C54.472 70.04 54.244 69.972 54.044 69.804ZM65.06 75.696C64.828 75.792 64.592 75.792 64.352 75.696C64.112 75.608 63.94 75.448 63.836 75.216C63.732 74.976 63.728 74.74 63.824 74.508C63.92 74.268 64.084 74.096 64.316 73.992C65.076 73.664 65.784 73.288 66.44 72.864C67.104 72.432 67.692 71.96 68.204 71.448C68.076 71.32 67.952 71.204 67.832 71.1C67.72 70.996 67.624 70.908 67.544 70.836C67.344 70.676 67.228 70.472 67.196 70.224C67.172 69.976 67.24 69.752 67.4 69.552C67.56 69.352 67.768 69.244 68.024 69.228C68.28 69.204 68.504 69.272 68.696 69.432C68.872 69.576 69.1 69.78 69.38 70.044C69.492 69.884 69.596 69.724 69.692 69.564C69.788 69.396 69.876 69.228 69.956 69.06C70.172 68.612 70.008 68.388 69.464 68.388H68.12C67.72 68.916 67.28 69.424 66.8 69.912C66.32 70.392 65.848 70.8 65.384 71.136C65.176 71.288 64.944 71.34 64.688 71.292C64.432 71.244 64.232 71.116 64.088 70.908C63.944 70.7 63.896 70.472 63.944 70.224C63.992 69.968 64.116 69.764 64.316 69.612C64.748 69.292 65.172 68.924 65.588 68.508C66.012 68.084 66.396 67.64 66.74 67.176C67.092 66.712 67.372 66.268 67.58 65.844C67.692 65.612 67.864 65.452 68.096 65.364C68.336 65.268 68.572 65.272 68.804 65.376C69.036 65.48 69.196 65.652 69.284 65.892C69.38 66.132 69.372 66.368 69.26 66.6V66.612H69.92C70.568 66.612 71.072 66.744 71.432 67.008C71.792 67.264 71.996 67.616 72.044 68.064C72.1 68.512 71.984 69.02 71.696 69.588C71.552 69.884 71.392 70.172 71.216 70.452C71.048 70.732 70.864 71.008 70.664 71.28C70.832 71.448 70.984 71.608 71.12 71.76C71.264 71.904 71.38 72.028 71.468 72.132C71.636 72.332 71.704 72.56 71.672 72.816C71.64 73.072 71.524 73.28 71.324 73.44C71.124 73.592 70.896 73.656 70.64 73.632C70.392 73.6 70.184 73.488 70.016 73.296C69.96 73.224 69.884 73.136 69.788 73.032C69.692 72.928 69.584 72.816 69.464 72.696C68.856 73.312 68.184 73.876 67.448 74.388C66.712 74.892 65.916 75.328 65.06 75.696ZM77.192 74.688C76.952 74.776 76.712 74.768 76.472 74.664C76.24 74.552 76.08 74.376 75.992 74.136C75.904 73.896 75.912 73.656 76.016 73.416C76.128 73.176 76.304 73.016 76.544 72.936C77.168 72.72 77.8 72.448 78.44 72.12C79.088 71.792 79.708 71.436 80.3 71.052C80.9 70.668 81.44 70.272 81.92 69.864C82.408 69.456 82.808 69.064 83.12 68.688C83.28 68.488 83.484 68.38 83.732 68.364C83.988 68.34 84.216 68.408 84.416 68.568C84.624 68.72 84.736 68.924 84.752 69.18C84.776 69.436 84.708 69.664 84.548 69.864C84.212 70.272 83.768 70.704 83.216 71.16C82.672 71.616 82.064 72.068 81.392 72.516C80.72 72.956 80.02 73.368 79.292 73.752C78.572 74.128 77.872 74.44 77.192 74.688ZM78.044 69.804C77.724 69.54 77.384 69.276 77.024 69.012C76.664 68.74 76.332 68.516 76.028 68.34C75.804 68.204 75.664 68.016 75.608 67.776C75.552 67.528 75.588 67.296 75.716 67.08C75.844 66.856 76.032 66.712 76.28 66.648C76.536 66.584 76.768 66.62 76.976 66.756C77.216 66.908 77.472 67.08 77.744 67.272C78.024 67.456 78.288 67.644 78.536 67.836C78.792 68.028 79.008 68.2 79.184 68.352C79.376 68.512 79.492 68.716 79.532 68.964C79.572 69.212 79.512 69.44 79.352 69.648C79.2 69.848 78.992 69.968 78.728 70.008C78.472 70.04 78.244 69.972 78.044 69.804ZM54.764 93.128C54.46 93.128 54.212 93.052 54.02 92.9C53.828 92.748 53.716 92.536 53.684 92.264C53.652 92.008 53.72 91.788 53.888 91.604C54.064 91.42 54.3 91.3 54.596 91.244C54.78 91.212 54.916 91.168 55.004 91.112C55.1 91.056 55.148 90.94 55.148 90.764V87.296H51.284C51.06 87.296 50.868 87.22 50.708 87.068C50.556 86.908 50.48 86.716 50.48 86.492C50.48 86.268 50.556 86.08 50.708 85.928C50.868 85.768 51.06 85.688 51.284 85.688H55.292C55.068 85.56 54.852 85.44 54.644 85.328C54.436 85.216 54.256 85.124 54.104 85.052C53.912 84.956 53.792 84.8 53.744 84.584C53.696 84.368 53.724 84.168 53.828 83.984C53.948 83.792 54.104 83.664 54.296 83.6H51.968C51.768 83.6 51.592 83.528 51.44 83.384C51.296 83.232 51.224 83.056 51.224 82.856C51.224 82.648 51.296 82.476 51.44 82.34C51.592 82.196 51.768 82.124 51.968 82.124H58.256C58.736 82.124 59.112 82.224 59.384 82.424C59.664 82.624 59.836 82.872 59.9 83.168C59.972 83.464 59.924 83.76 59.756 84.056C59.596 84.352 59.312 84.6 58.904 84.8C58.768 84.864 58.604 84.944 58.412 85.04C58.22 85.128 58.032 85.216 57.848 85.304C57.936 85.408 57.988 85.536 58.004 85.688H59.492C59.98 85.688 60.372 85.776 60.668 85.952C60.972 86.128 61.172 86.36 61.268 86.648C61.372 86.928 61.368 87.236 61.256 87.572C61.144 87.9 60.92 88.216 60.584 88.52C60.464 88.632 60.312 88.768 60.128 88.928C59.952 89.088 59.768 89.248 59.576 89.408C59.392 89.568 59.22 89.708 59.06 89.828C58.868 89.972 58.644 90.028 58.388 89.996C58.14 89.964 57.936 89.86 57.776 89.684C57.624 89.508 57.56 89.3 57.584 89.06C57.608 88.812 57.72 88.608 57.92 88.448C57.976 88.4 58.068 88.328 58.196 88.232C58.324 88.128 58.452 88.024 58.58 87.92C58.716 87.816 58.808 87.744 58.856 87.704C58.984 87.592 59.036 87.496 59.012 87.416C58.996 87.336 58.908 87.296 58.748 87.296H56.924V91.22C56.924 91.852 56.732 92.328 56.348 92.648C55.964 92.968 55.436 93.128 54.764 93.128ZM56.36 84.368C56.48 84.312 56.616 84.252 56.768 84.188C56.92 84.116 57.056 84.052 57.176 83.996C57.304 83.94 57.376 83.908 57.392 83.9C57.52 83.836 57.576 83.772 57.56 83.708C57.552 83.636 57.48 83.6 57.344 83.6H54.86C54.892 83.608 54.932 83.62 54.98 83.636C55.148 83.716 55.356 83.824 55.604 83.96C55.852 84.088 56.104 84.224 56.36 84.368ZM65.348 93.08C65.132 93.08 64.944 93.008 64.784 92.864C64.632 92.72 64.556 92.524 64.556 92.276V88.22C64.332 88.252 64.12 88.284 63.92 88.316C63.728 88.34 63.556 88.36 63.404 88.376C63.132 88.408 62.916 88.356 62.756 88.22C62.596 88.076 62.504 87.892 62.48 87.668C62.464 87.452 62.52 87.264 62.648 87.104C62.784 86.936 62.984 86.848 63.248 86.84C63.288 86.832 63.332 86.828 63.38 86.828C63.436 86.828 63.488 86.824 63.536 86.816C63.632 86.704 63.74 86.576 63.86 86.432C63.988 86.28 64.116 86.116 64.244 85.94C64.116 85.844 63.944 85.724 63.728 85.58C63.52 85.428 63.324 85.284 63.14 85.148C62.956 85.012 62.828 84.924 62.756 84.884C62.58 84.764 62.472 84.604 62.432 84.404C62.4 84.196 62.444 84.004 62.564 83.828C62.684 83.652 62.848 83.544 63.056 83.504C63.272 83.464 63.468 83.504 63.644 83.624L63.704 83.672C63.784 83.544 63.872 83.4 63.968 83.24C64.072 83.072 64.168 82.908 64.256 82.748C64.352 82.588 64.428 82.46 64.484 82.364C64.596 82.156 64.748 82.028 64.94 81.98C65.14 81.924 65.328 81.944 65.504 82.04C65.68 82.12 65.8 82.252 65.864 82.436C65.936 82.62 65.912 82.804 65.792 82.988C65.72 83.108 65.624 83.264 65.504 83.456C65.384 83.64 65.264 83.824 65.144 84.008C65.024 84.192 64.924 84.344 64.844 84.464L65.18 84.704C65.356 84.472 65.516 84.248 65.66 84.032C65.804 83.816 65.928 83.632 66.032 83.48C66.168 83.272 66.332 83.148 66.524 83.108C66.716 83.06 66.912 83.096 67.112 83.216C67.296 83.32 67.412 83.476 67.46 83.684C67.508 83.884 67.472 84.072 67.352 84.248C67.216 84.44 67.048 84.672 66.848 84.944C66.648 85.208 66.436 85.488 66.212 85.784C65.988 86.072 65.764 86.356 65.54 86.636L66.14 86.564C66.076 86.38 66.084 86.208 66.164 86.048C66.244 85.888 66.36 85.772 66.512 85.7C66.744 85.604 66.96 85.604 67.16 85.7C67.176 85.66 67.188 85.62 67.196 85.58C67.212 85.54 67.232 85.504 67.256 85.472C67.416 85.208 67.576 84.904 67.736 84.56C67.896 84.216 68.044 83.868 68.18 83.516C68.324 83.164 68.436 82.852 68.516 82.58C68.588 82.332 68.724 82.156 68.924 82.052C69.124 81.948 69.34 81.932 69.572 82.004C69.788 82.068 69.948 82.188 70.052 82.364C70.156 82.532 70.172 82.74 70.1 82.988C70.004 83.284 69.896 83.596 69.776 83.924H70.94C71.5 83.924 71.948 83.984 72.284 84.104C72.628 84.224 72.876 84.452 73.028 84.788C73.18 85.116 73.256 85.604 73.256 86.252C73.256 87.244 73.236 88.06 73.196 88.7C73.164 89.34 73.116 89.908 73.052 90.404C72.98 91.02 72.852 91.504 72.668 91.856C72.484 92.2 72.228 92.444 71.9 92.588C71.572 92.732 71.152 92.816 70.64 92.84C70.384 92.848 70.16 92.796 69.968 92.684C69.776 92.58 69.66 92.38 69.62 92.084C69.588 91.844 69.644 91.636 69.788 91.46C69.932 91.276 70.124 91.172 70.364 91.148C70.636 91.116 70.844 91.076 70.988 91.028C71.132 90.972 71.236 90.884 71.3 90.764C71.364 90.644 71.412 90.472 71.444 90.248C71.508 89.792 71.556 89.224 71.588 88.544C71.62 87.856 71.636 87.112 71.636 86.312C71.636 85.936 71.58 85.696 71.468 85.592C71.356 85.488 71.124 85.436 70.772 85.436H69.152C69.08 85.58 69.008 85.72 68.936 85.856C68.864 85.992 68.792 86.124 68.72 86.252C68.616 86.42 68.48 86.54 68.312 86.612C68.144 86.676 67.968 86.688 67.784 86.648C67.848 86.776 67.908 86.904 67.964 87.032C68.02 87.16 68.064 87.256 68.096 87.32C68.184 87.52 68.192 87.716 68.12 87.908C68.056 88.1 67.924 88.24 67.724 88.328C67.524 88.424 67.328 88.432 67.136 88.352C66.944 88.272 66.808 88.136 66.728 87.944L66.704 87.872C66.624 87.888 66.536 87.904 66.44 87.92C66.352 87.936 66.256 87.952 66.152 87.968V92.276C66.152 92.524 66.072 92.72 65.912 92.864C65.76 93.008 65.572 93.08 65.348 93.08ZM70.556 89.324C70.372 89.428 70.176 89.456 69.968 89.408C69.76 89.36 69.612 89.24 69.524 89.048C69.468 88.928 69.392 88.776 69.296 88.592C69.2 88.408 69.1 88.228 68.996 88.052C68.9 87.868 68.82 87.72 68.756 87.608C68.652 87.44 68.624 87.264 68.672 87.08C68.728 86.896 68.844 86.756 69.02 86.66C69.204 86.548 69.396 86.512 69.596 86.552C69.796 86.584 69.956 86.692 70.076 86.876C70.148 86.98 70.236 87.124 70.34 87.308C70.452 87.484 70.56 87.664 70.664 87.848C70.768 88.032 70.848 88.18 70.904 88.292C71 88.476 71.016 88.668 70.952 88.868C70.896 89.068 70.764 89.22 70.556 89.324ZM63.008 91.7C62.832 91.644 62.692 91.536 62.588 91.376C62.484 91.216 62.468 91.032 62.54 90.824C62.588 90.688 62.64 90.52 62.696 90.32C62.76 90.112 62.82 89.904 62.876 89.696C62.932 89.48 62.972 89.3 62.996 89.156C63.044 88.94 63.148 88.784 63.308 88.688C63.476 88.592 63.66 88.564 63.86 88.604C64.052 88.644 64.204 88.74 64.316 88.892C64.428 89.044 64.464 89.232 64.424 89.456C64.4 89.6 64.36 89.78 64.304 89.996C64.248 90.212 64.192 90.428 64.136 90.644C64.08 90.852 64.028 91.028 63.98 91.172C63.916 91.396 63.792 91.556 63.608 91.652C63.424 91.74 63.224 91.756 63.008 91.7ZM67.628 91.232C67.428 91.304 67.232 91.292 67.04 91.196C66.856 91.1 66.736 90.94 66.68 90.716C66.656 90.604 66.62 90.46 66.572 90.284C66.524 90.1 66.476 89.92 66.428 89.744C66.38 89.56 66.344 89.416 66.32 89.312C66.272 89.088 66.3 88.9 66.404 88.748C66.508 88.588 66.664 88.484 66.872 88.436C67.072 88.396 67.252 88.42 67.412 88.508C67.58 88.596 67.692 88.748 67.748 88.964C67.772 89.06 67.808 89.196 67.856 89.372C67.912 89.54 67.964 89.712 68.012 89.888C68.068 90.056 68.108 90.188 68.132 90.284C68.204 90.508 68.188 90.708 68.084 90.884C67.988 91.052 67.836 91.168 67.628 91.232Z" fill="white"/>
<g clip-path="url(#clip0_517_226)">
<path d="M130.637 1.0312C117.924 1.9859 107.571 10.9098 104.285 23.2183C99.468 41.2597 107.718 55.6546 125.624 60.3962C131.345 61.9112 136.632 62.121 141.35 61.1501C143.99 63.1431 145.864 64.4791 149.367 66.801C149.44 62.8576 149.469 61.149 149.432 57.9958C155.7 54.1952 160.304 47.6046 162.686 38.6839C166.875 22.9955 158.403 6.604 141.199 2.04781C137.761 1.12069 134.19 0.777019 130.637 1.0312Z" fill="white"/>
<path d="M117.064 28.3191C116.803 20.4926 118.87 14.8169 122.129 11.7095C125.271 8.93893 129.298 7.3706 133.493 7.28465C135.969 7.2457 138.427 7.71457 140.713 8.66208L143.784 10.3778C144.223 10.7493 144.593 11.1665 145.23 11.7805C147.717 14.1698 149.445 18.4689 149.721 22.3188C149.885 24.3147 149.913 26.3194 149.806 28.3191C149.895 34.9282 151.118 38.6275 151.75 40.4482C152.246 41.7731 152.506 43.1745 152.517 44.5887C152.539 47.0624 149.452 50.2672 145.904 48.9982L120.577 49.6035C117.327 49.6824 115.212 47.299 115.232 45.1029C115.295 43.2538 115.558 41.4169 116.017 39.624C116.629 37.4488 117.065 33.6237 117.065 28.3191" fill="#B5886A"/>
<path d="M219.07 113.806H200.801C201.248 117.588 202.157 124.686 202.35 126.493L202.482 126.611C204.791 125.378 215.166 119.392 221.95 115.327C222.104 115.234 222.224 115.094 222.29 114.927C222.356 114.761 222.366 114.577 222.318 114.405C222.269 114.232 222.165 114.08 222.022 113.972C221.879 113.864 221.704 113.806 221.524 113.806L219.07 113.806Z" fill="#BDBDBD"/>
<path d="M118.422 57.7273C116.495 56.7818 114.671 55.6386 112.982 54.3162C114.239 52.8412 115.81 51.6638 117.582 50.8697C119.408 50.1252 121.919 48.8105 122.452 48.9236C125.889 50.6405 129.668 51.5702 133.512 51.6446C137.328 51.6596 142.354 50.3208 144.934 48.8215C145.229 48.633 148.122 50.1879 149.791 50.8685C151.507 51.6371 153.036 52.7673 154.271 54.181C152.82 55.644 151.195 56.9255 149.433 57.997C149.47 61.1517 149.441 62.8588 149.368 66.8022C145.863 64.4803 143.991 63.1443 141.351 61.1513C136.633 62.1222 131.346 61.9124 125.625 60.3973C123.14 59.7503 120.727 58.8557 118.422 57.7273Z" fill="white"/>
<path d="M231.199 48.4023C230.53 47.0656 229.982 45.672 229.561 44.2381C227.584 44.9424 214.445 49.2655 212.072 50.251C212.032 50.2675 211.993 50.2285 211.953 50.2175C211.781 50.365 211.589 50.4881 211.383 50.583C209.277 51.5121 208.521 51.8449 206.968 52.5121C206.993 52.5417 207.017 52.5689 207.042 52.5961C208.083 53.7608 209.38 54.671 210.832 55.2563C211.793 55.6543 212.799 55.9358 213.827 56.0947C216.681 56.5167 219.588 56.4027 222.399 55.7587C226.609 54.7768 230.08 53.8876 233.795 51.7779C233.826 51.7625 234.149 51.585 234.42 51.4348C233.148 50.4884 231.561 49.124 231.199 48.4023Z" fill="#FCE0CD"/>
<path d="M219.262 56.2544C220.318 56.1629 221.366 55.9972 222.399 55.7588C226.609 54.7769 230.08 53.8876 233.795 51.7779C233.854 51.7483 234.965 51.1336 234.784 51.2314C238.491 52.5835 242.883 54.1266 246.109 56.6373C247.451 57.6317 248.654 58.8009 249.684 60.1138C251.769 62.9484 253.347 66.1206 254.347 69.4904C257.163 79.6557 258.307 86.5783 259.978 97.7077C260.19 99.8999 260.051 102.112 259.566 104.26C258.928 106.548 256.898 108.243 254.675 109.103C252.451 109.963 250.018 110.014 247.646 110.255C244.639 110.56 231.499 110.706 229.505 110.735C229.211 107.672 228.562 104.653 227.57 101.739H207.049C206.756 99.894 206.297 97.1691 206.04 95.4221C205.863 94.2025 205.208 90.5016 204.456 86.1729L204.297 86.4241C203.307 89.0516 201.225 93.9524 199.285 97.065L188.182 84.6961C189.227 80.5043 189.912 76.7857 190.692 72.5229C191.322 69.0882 191.944 65.338 193.116 62.0493C193.737 60.1247 194.88 58.4081 196.418 57.0885C197.444 56.1824 198.608 55.4449 199.867 54.9038L206.801 52.3091C206.88 52.4092 206.959 52.5062 207.041 52.5966C208.738 54.5426 211.256 55.6929 213.827 56.0951C215.626 56.3641 217.45 56.4175 219.262 56.2544Z" fill="white"/>
<path d="M234.79 51.2287C234.807 51.2191 234.809 51.2179 234.79 51.2287V51.2287Z" fill="white"/>
<path d="M259.98 97.7077C258.308 86.5783 257.164 79.6557 254.348 69.4904C254.194 68.932 254 68.3393 253.775 67.7289C252.782 65.0101 251.404 62.446 249.685 60.1138C248.655 58.8009 247.452 57.6316 246.11 56.6373C242.883 54.1265 238.491 52.5835 234.79 51.2289C234.675 51.2936 233.846 51.7526 233.795 51.7779C230.082 53.8876 226.609 54.7748 222.399 55.7587C219.588 56.4027 216.68 56.5167 213.827 56.0947C211.256 55.6925 208.737 54.5422 207.041 52.5961C206.958 52.5046 206.879 52.4088 206.8 52.3086L199.867 54.9034C198.608 55.4445 197.444 56.182 196.418 57.088C194.88 58.4077 193.737 60.1242 193.116 62.0488C191.944 65.3376 191.322 69.0878 190.692 72.5225C189.876 76.986 189.158 80.8596 188.027 85.299C190.5 85.3779 192.554 85.4406 193.972 85.4832C194.519 85.4998 195.044 85.7047 195.458 86.0631C195.871 86.4215 196.147 86.9113 196.238 87.4494C196.883 91.207 197.54 95.0207 198.223 98.9684C200.587 94.9591 202.619 90.7639 204.297 86.4249C204.297 86.4249 204.353 86.3066 204.444 86.1141C205.203 90.4688 205.862 94.1981 206.039 95.4229C206.297 97.1694 206.756 99.8935 207.049 101.739C208.661 100.613 210.351 99.6011 212.105 98.7117C213.717 97.8954 215.523 97.1698 217.285 97.5484C219.534 98.0334 220.624 99.0228 222.857 99.567C224.429 99.9527 225.31 99.597 226.634 99.5607C228.611 103.356 229.468 109.662 229.506 110.736C231.5 110.707 244.64 110.561 247.647 110.256C250.019 110.015 252.453 109.962 254.676 109.104C256.899 108.246 258.929 106.55 259.567 104.262C260.052 102.112 260.191 99.9003 259.98 97.7077Z" fill="white"/>
<path d="M204.34 109.283C204.34 109.237 204.338 109.192 204.34 109.148C204.351 108.696 204.524 108.262 204.826 107.925L205.177 107.482L204.721 107.578C204.389 107.658 204.04 107.637 203.72 107.518C203.4 107.399 203.123 107.188 202.923 106.912C202.591 106.423 202.801 105.598 202.947 105.303C203.187 104.904 203.484 104.542 203.83 104.23C204.23 103.836 205.964 102.515 206.416 102.187C208.216 100.879 210.119 99.7161 212.106 98.7093C213.717 97.8931 215.523 97.1675 217.285 97.546C219.534 98.0311 220.624 99.0205 222.857 99.5647C224.43 99.9503 225.312 99.5946 226.634 99.5599C227.932 102.05 228.747 105.623 229.165 108.088L228.89 108.17C228.325 108.406 226.897 109.288 225.252 109.967C224.519 110.268 223.732 110.421 222.939 110.418C222.145 110.414 221.36 110.254 220.629 109.947C219.339 111.375 217.928 112.691 216.413 113.879C216.131 114.104 215.196 114.789 214.433 114.145C213.932 113.722 214.049 112.754 214.296 112.377C215.486 110.56 215.992 109.213 217.308 107.539C215.126 108.889 213.027 110.47 210.854 111.841C210.147 112.286 209.558 112.674 208.734 112.53C208.364 112.471 208.029 112.278 207.793 111.988C207.558 111.697 207.439 111.33 207.459 110.958C207.503 110.56 207.648 110.18 207.882 109.854L207.227 110.156C206.828 110.361 206.399 110.502 205.956 110.576C205.729 110.61 205.498 110.594 205.278 110.529C205.057 110.464 204.854 110.353 204.682 110.202C204.47 109.941 204.35 109.618 204.34 109.283Z" fill="#FCE0CD"/>
<path d="M189.098 84.9473C190.386 79.7645 191.246 74.5024 192.256 69.2629C192.743 66.7422 193.275 64.1759 194.227 61.7815C195.094 59.6718 196.602 57.8852 198.54 56.6724C199.753 55.864 201.134 55.4362 202.491 54.9282L207.053 53.2215L206.129 52.9778C208.91 56.42 213.541 57.3885 217.766 57.2848C220.025 57.1804 222.266 56.8312 224.449 56.2434C226.464 55.777 228.445 55.1752 230.378 54.442C232.068 53.7579 233.706 52.955 235.281 52.0393C235.461 51.9324 235.6 51.7703 235.679 51.5775C235.757 51.3847 235.771 51.1717 235.717 50.9707C235.676 50.8324 235.604 50.7052 235.507 50.5983C235.41 50.4915 235.289 50.4078 235.155 50.3535C235.021 50.2992 234.877 50.2756 234.732 50.2846C234.588 50.2935 234.447 50.3347 234.321 50.4052L234.303 50.4146C233.53 50.8295 233.807 51.8808 234.53 52.1446C237.886 53.3671 241.307 54.5666 244.317 56.5241C245.864 57.5211 247.262 58.7318 248.467 60.1201C249.56 61.4393 250.497 62.8787 251.262 64.4101C252.076 65.9424 252.748 67.5451 253.271 69.1986C253.816 70.9644 254.255 72.7705 254.703 74.5616C255.541 77.9172 256.275 81.2953 256.904 84.6961C257.569 88.2696 258.136 91.8608 258.684 95.4537C258.99 97.0429 259.136 98.6587 259.119 100.277C259.071 101.661 259 103.182 258.492 104.488C257.221 107.753 253.37 108.762 250.238 109.072C248.049 109.288 245.869 109.439 243.672 109.511C239.188 109.66 234.701 109.718 230.215 109.777L229.506 109.787L230.456 110.733C230.361 109.36 230.163 107.995 229.862 106.651C229.487 104.579 228.91 102.547 228.138 100.586C227.741 99.5363 227.204 98.5441 226.541 97.6367C226.408 97.4261 226.2 97.2737 225.958 97.2106C225.716 97.1476 225.46 97.1785 225.24 97.2972C225.024 97.425 224.867 97.6326 224.803 97.875C224.739 98.1174 224.774 98.3751 224.899 98.5922C226.416 100.549 227.103 103.097 227.665 105.468C227.933 106.602 228.158 107.744 228.338 108.897C228.374 109.126 228.408 109.356 228.44 109.587C228.406 109.343 228.45 109.669 228.456 109.713C228.467 109.804 228.478 109.894 228.488 109.984C228.517 110.233 228.544 110.483 228.555 110.733C228.558 110.983 228.66 111.221 228.837 111.398C229.015 111.575 229.254 111.676 229.505 111.68C233.803 111.617 238.102 111.566 242.399 111.443C244.451 111.384 246.493 111.296 248.536 111.116C250.567 110.937 252.65 110.81 254.59 110.136C256.262 109.589 257.761 108.613 258.935 107.308C259.959 106.086 260.598 104.591 260.773 103.01C261.02 101.432 261.092 99.8316 260.987 98.2381C260.825 96.2905 260.424 94.3381 260.122 92.4078C259.83 90.5374 259.528 88.6687 259.204 86.8034C258.603 83.3467 257.921 79.9025 257.121 76.4879C256.27 72.8537 255.458 69.1375 253.971 65.7C252.493 62.2803 250.495 59.0246 247.601 56.6164C244.638 54.1522 241.153 52.5997 237.569 51.2534C236.726 50.9379 235.88 50.63 235.035 50.3216L235.262 52.0515L235.279 52.0421L233.883 51.4762L234.319 50.4075C233.101 51.1182 231.845 51.7623 230.557 52.337C228.759 53.0838 226.906 53.6903 225.014 54.151C221.021 55.183 216.831 55.978 212.747 54.9073C210.681 54.4109 208.831 53.266 207.469 51.6418C207.352 51.5206 207.204 51.4338 207.041 51.3909C206.877 51.348 206.706 51.3506 206.544 51.3985L202.347 52.9688C201.016 53.3988 199.714 53.9149 198.45 54.5138C196.206 55.6806 194.353 57.4764 193.121 59.6796C191.889 61.9822 191.278 64.6227 190.742 67.1579C190.175 69.8417 189.728 72.5505 189.223 75.2466C188.646 78.3287 188.018 81.4006 187.262 84.4449C186.968 85.6279 188.8 86.1319 189.094 84.9481L189.098 84.9473Z" fill="#D9D9D9"/>
<path d="M200.662 68.4095C201.022 72.2937 201.778 76.1622 202.431 80.0031C203.178 84.4011 203.963 88.7925 204.715 93.1894C205.099 95.4296 205.432 97.6777 205.798 99.9207C205.867 100.162 206.028 100.366 206.247 100.49C206.465 100.614 206.724 100.647 206.967 100.582C207.207 100.51 207.41 100.349 207.533 100.132C207.657 99.9153 207.692 99.6594 207.631 99.4176C206.993 95.5053 206.364 91.5954 205.68 87.6903C204.863 83.0131 204.04 78.3358 203.296 73.6463C203.128 72.5863 202.964 71.5256 202.814 70.4628C202.798 70.3481 202.782 70.2333 202.766 70.1186C202.732 69.8737 202.769 70.1446 202.75 70.0062C202.724 69.8047 202.697 69.6036 202.671 69.4017C202.632 69.0708 202.592 68.7396 202.561 68.4075C202.555 68.1586 202.453 67.9216 202.276 67.7455C202.099 67.5694 201.861 67.4676 201.611 67.4611C201.36 67.4629 201.119 67.5631 200.941 67.7403C200.763 67.9174 200.663 68.1571 200.661 68.4075L200.662 68.4095Z" fill="#D9D9D9"/>
<path d="M200.105 97.5421C202.206 94.1508 203.809 90.3975 205.213 86.6753C205.278 86.4337 205.245 86.1763 205.121 85.9586C204.997 85.7409 204.793 85.5802 204.551 85.5112C204.309 85.4499 204.051 85.4845 203.833 85.6076C203.616 85.7308 203.454 85.933 203.382 86.1721C202.082 89.7925 200.436 93.28 198.466 96.5866C197.821 97.6261 199.465 98.578 200.106 97.5421H200.105Z" fill="#D9D9D9"/>
<path d="M237.39 76.1031C239.087 82.4796 240.631 88.8941 242.023 95.3468C242.279 96.537 244.112 96.0334 243.856 94.8437C242.465 88.3939 240.921 81.9793 239.223 75.5999C238.91 74.4236 237.077 74.9224 237.391 76.1031H237.39Z" fill="#D9D9D9"/>
<path d="M229.417 96.4336C234.543 96.8903 239.752 96.3354 244.874 96.0539C246.09 95.9869 246.098 94.0936 244.874 94.1611C239.754 94.4426 234.543 94.9975 229.417 94.5408C229.166 94.5426 228.925 94.6428 228.747 94.8199C228.569 94.9971 228.469 95.2368 228.467 95.4872C228.472 95.7366 228.574 95.9744 228.751 96.1508C228.928 96.3271 229.167 96.4285 229.417 96.4336Z" fill="#D9D9D9"/>
<path d="M211.227 101.822C210.19 102.443 209.196 103.135 208.218 103.842C207.163 104.604 206.119 105.389 205.136 106.241C204.959 106.419 204.86 106.66 204.86 106.91C204.86 107.161 204.959 107.402 205.136 107.58C205.317 107.752 205.558 107.848 205.808 107.848C206.058 107.848 206.299 107.752 206.48 107.58C206.909 107.207 207.351 106.851 207.801 106.502C207.811 106.494 208.032 106.324 207.88 106.439C207.938 106.395 207.996 106.35 208.054 106.306C208.185 106.207 208.315 106.109 208.446 106.012C208.712 105.814 208.979 105.618 209.248 105.424C210.203 104.736 211.174 104.061 212.185 103.457C212.292 103.394 212.387 103.311 212.462 103.212C212.538 103.113 212.593 103 212.624 102.88C212.656 102.759 212.664 102.634 212.647 102.511C212.63 102.388 212.588 102.269 212.525 102.162C212.462 102.054 212.379 101.961 212.279 101.885C212.18 101.81 212.067 101.755 211.946 101.724C211.825 101.692 211.699 101.685 211.576 101.702C211.452 101.719 211.333 101.76 211.225 101.822H211.227Z" fill="#F9CBAC"/>
<path d="M214.334 103.779C213.233 104.467 212.163 105.202 211.102 105.95C210.578 106.319 210.055 106.691 209.531 107.061C208.94 107.441 208.384 107.873 207.871 108.353C207.695 108.53 207.597 108.77 207.598 109.02C207.599 109.27 207.699 109.509 207.876 109.685C208.053 109.862 208.294 109.962 208.544 109.963C208.795 109.964 209.036 109.866 209.215 109.691C209.315 109.589 209.418 109.489 209.525 109.394C209.592 109.33 209.663 109.273 209.74 109.221C210.023 109.024 210.306 108.826 210.588 108.626C211.11 108.257 211.632 107.886 212.154 107.518C213.184 106.793 214.224 106.082 215.293 105.413C215.402 105.35 215.497 105.267 215.573 105.168C215.649 105.069 215.705 104.956 215.738 104.836C215.77 104.715 215.778 104.589 215.761 104.465C215.744 104.342 215.703 104.222 215.64 104.115C215.576 104.007 215.492 103.913 215.392 103.837C215.292 103.762 215.178 103.707 215.057 103.676C214.936 103.645 214.809 103.638 214.685 103.655C214.561 103.673 214.442 103.715 214.334 103.779Z" fill="#F9CBAC"/>
<path d="M143.911 85.8338C145.819 96.9585 147.833 108.554 150.402 123.238C150.463 123.592 150.64 123.916 150.905 124.159C151.169 124.403 151.508 124.553 151.867 124.585C160.728 125.371 190.695 126.664 201.115 126.999C201.358 127.007 201.599 126.961 201.822 126.864C202.045 126.767 202.243 126.621 202.403 126.438C202.562 126.256 202.678 126.04 202.743 125.806C202.808 125.573 202.82 125.328 202.778 125.089C200.213 110.467 198.175 98.7275 196.241 87.4482C196.149 86.9102 195.873 86.4204 195.46 86.062C195.047 85.7035 194.522 85.4986 193.974 85.482C185.428 85.2245 153.844 84.2016 145.571 83.9362C145.33 83.9281 145.089 83.9738 144.867 84.07C144.645 84.1661 144.447 84.3103 144.288 84.492C144.129 84.6737 144.013 84.8884 143.948 85.1205C143.883 85.3526 143.87 85.5963 143.911 85.8338Z" fill="#D9D9D9"/>
<path d="M262.168 108.928C264.991 108.928 267.814 108.909 270.637 108.901C271.119 108.899 271.6 108.898 272.082 108.897C273.305 108.897 273.307 107.004 272.082 107.004C269.206 107.004 266.329 107.022 263.45 107.031C263.022 107.031 262.594 107.035 262.166 107.035C260.943 107.035 260.941 108.928 262.166 108.928H262.168Z" fill="#645D5C"/>
<path d="M123.908 108.928C126.111 108.928 128.314 108.925 130.517 108.918L140.964 108.901C141.849 108.901 142.733 108.899 143.617 108.897C144.84 108.897 144.842 107.004 143.617 107.004C141.34 107.004 139.063 107.007 136.786 107.014L126.401 107.031C125.569 107.031 124.738 107.033 123.906 107.035C122.683 107.035 122.681 108.928 123.906 108.928H123.908Z" fill="#645D5C"/>
<path d="M123.117 25.9696C125.486 24.0393 128.039 21.6275 130.374 19.3447C130.218 20.6562 129.39 23.432 130.269 23.1698C133.881 22.1307 137.05 19.9372 139.286 16.9274C139.746 18.6861 140.395 20.8767 140.966 21.9422C141.773 23.4509 144.282 26.7681 146.386 27.4629C146.592 27.2623 146.842 27.1119 147.116 27.0235C147.39 26.9351 147.681 26.9111 147.966 26.9534C148.229 26.9905 148.482 27.0861 148.703 27.233C148.925 27.3799 149.111 27.5745 149.247 27.8024C149.405 28.1168 149.495 28.4608 149.511 28.812C149.627 30.1865 149.36 31.5661 148.741 32.7999C148.449 33.4235 148.026 33.977 147.5 34.4226C147.072 34.7677 146.562 34.9965 146.02 35.0867C146.02 35.0867 145.927 35.1009 145.766 35.1261C145.645 35.5784 145.508 35.9593 145.441 36.1616C145.002 37.3474 142.511 41.5034 139.4 42.9048C139.436 43.6474 139.52 44.3868 139.651 45.1187C139.802 45.9795 139.755 46.7492 140.958 47.1818C141.037 47.2102 144.446 48.8258 144.568 48.8775L144.721 48.9402C142.088 50.3914 137.226 51.6611 133.511 51.645C129.786 51.5713 126.121 50.6969 122.767 49.0818L122.827 49.0613C123.059 48.9824 126.861 47.2114 126.941 47.183C128.143 46.7493 128.095 45.9807 128.247 45.1198C128.376 44.4293 128.459 43.7312 128.495 43.0298C126.928 42.3261 125.553 41.2601 124.483 39.9205C123.33 38.5114 122.491 36.8741 122.022 35.1174C121.31 35.1197 120.621 34.8742 120.072 34.4234C119.545 33.9776 119.12 33.4237 118.828 32.7995C118.209 31.5656 117.943 30.186 118.058 28.8116C118.074 28.4604 118.164 28.1164 118.322 27.8021C118.458 27.5741 118.644 27.3795 118.866 27.2326C119.088 27.0857 119.34 26.9901 119.604 26.953C119.873 26.9139 120.147 26.933 120.407 27.009C120.668 27.085 120.909 27.2162 121.115 27.3935L123.117 25.9696Z" fill="#FCE0CD"/>
<path d="M132.954 31.3744C132.853 31.7596 132.761 32.1488 132.695 32.5416C132.635 32.7922 132.633 33.0528 132.689 33.3043C132.73 33.4624 132.804 33.6099 132.908 33.7367C133.011 33.8635 133.141 33.9667 133.288 34.0393C133.52 34.1632 133.78 34.2276 134.043 34.2266C134.206 34.2195 134.36 34.1797 134.522 34.158C134.756 34.0833 134.957 33.93 135.09 33.7242C135.217 33.5075 135.253 33.2494 135.189 33.0066C135.125 32.7638 134.967 32.5563 134.749 32.4296L134.522 32.3342C134.357 32.2888 134.182 32.2888 134.017 32.3342C133.959 32.3417 133.902 32.3559 133.844 32.3638L134.097 32.3302C134.046 32.3364 133.995 32.3364 133.944 32.3302L134.196 32.3642C134.14 32.3549 134.085 32.339 134.033 32.3168L134.26 32.4123C134.226 32.3974 134.194 32.3803 134.163 32.361L134.355 32.5089C134.341 32.4972 134.327 32.4839 134.316 32.4694L134.464 32.6607C134.454 32.6455 134.445 32.6292 134.437 32.6122L134.533 32.8382C134.525 32.8136 134.518 32.7882 134.515 32.7624L134.549 33.014C134.544 32.9581 134.545 32.9017 134.553 32.846L134.519 33.0976C134.586 32.6866 134.675 32.2795 134.787 31.8783C134.85 31.6321 134.816 31.3708 134.691 31.1492C134.564 30.9325 134.355 30.775 134.112 30.7113C133.868 30.6476 133.609 30.683 133.391 30.8097C133.179 30.9367 133.024 31.1387 132.955 31.3752L132.954 31.3744Z" fill="#EFC0A0"/>
<path d="M127.037 28.3396C126.833 29.0013 126.966 30.523 128.225 30.6528C129.888 30.6429 129.977 28.8025 129.417 27.9373C128.958 27.2291 127.61 26.9334 127.037 28.3396Z" fill="#645D5C"/>
<path d="M140.358 28.3396C140.562 29.0013 140.429 30.523 139.17 30.6528C137.507 30.6425 137.418 28.8025 137.978 27.9373C138.437 27.2291 139.785 26.9334 140.358 28.3396Z" fill="#645D5C"/>
<path d="M134.852 40.0282C135.167 39.8161 135.463 39.5763 135.735 39.3117C135.996 39.0308 136.239 38.7342 136.463 38.4236C136.919 37.7958 137.493 36.8242 137.008 36.0741C136.872 35.8755 136.686 35.7157 136.469 35.6107C136.251 35.5057 136.01 35.4591 135.769 35.4755L135.052 35.4736L133.389 35.4676C132.829 35.4653 132.27 35.4633 131.71 35.4617C131.458 35.4617 131.217 35.5614 131.038 35.7389C130.86 35.9164 130.76 36.1571 130.76 36.4081C130.76 36.6591 130.86 36.8999 131.038 37.0774C131.217 37.2548 131.458 37.3546 131.71 37.3546C132.845 37.3577 133.98 37.3617 135.113 37.3664L135.842 37.3688H135.933C135.794 37.3689 135.66 37.3238 135.549 37.2402C135.439 37.1567 135.359 37.0393 135.322 36.9062L135.318 36.5805C135.302 36.6282 135.285 36.6759 135.267 36.7232C135.228 36.8226 135.23 36.8171 135.275 36.7067C135.259 36.7414 135.243 36.7757 135.226 36.81C135.186 36.8888 135.144 36.9677 135.099 37.0466C135.008 37.2043 134.904 37.3518 134.8 37.5009C134.674 37.6795 134.885 37.4054 134.755 37.558C134.687 37.6369 134.621 37.7197 134.551 37.7986C134.432 37.9311 134.311 38.0553 134.183 38.1779C134.044 38.3116 134.328 38.0786 134.151 38.2051C134.064 38.2671 133.978 38.3309 133.892 38.3948C133.684 38.526 133.53 38.7264 133.457 38.9603C133.391 39.2064 133.426 39.4684 133.553 39.6894C133.682 39.9043 133.89 40.0601 134.133 40.1236C134.376 40.1871 134.635 40.1531 134.853 40.029L134.852 40.0282Z" fill="#EFC0A0"/>
<path d="M130.637 0.0847771C123.752 0.604559 117.25 3.44341 112.201 8.13402C107.104 12.8949 103.96 19.2213 102.673 26.0145C101.495 32.2273 101.77 38.7122 104.275 44.5784C106.625 50.0783 110.883 54.5398 116.046 57.5281C118.973 59.1947 122.109 60.4662 125.373 61.3091C129.677 62.5115 134.166 62.9218 138.618 62.5197C139.621 62.4145 140.617 62.2623 141.604 62.063L140.872 61.9676C143.485 63.9393 146.161 65.8096 148.889 67.6185C149.034 67.7 149.197 67.7426 149.364 67.7421C149.53 67.7416 149.693 67.6979 149.838 67.6154C149.982 67.5329 150.102 67.4145 150.186 67.2717C150.271 67.1289 150.316 66.9667 150.319 66.801C150.373 63.8659 150.418 60.9317 150.384 57.9958L149.91 58.8129C154.583 55.9638 158.194 51.7014 160.63 46.8447C163.142 41.8366 164.709 36.222 164.693 30.6019C164.682 25.5815 163.434 20.6405 161.059 16.2121C158.635 11.7545 155.12 7.97826 150.841 5.23327C145.582 1.88922 139.488 0.0771643 133.249 0.00196592C132.378 -0.00789256 131.507 0.0220772 130.636 0.0847771C130.386 0.0905906 130.148 0.192168 129.971 0.36841C129.794 0.544653 129.692 0.782014 129.686 1.03119C129.688 1.28156 129.789 1.52109 129.967 1.69813C130.144 1.87517 130.385 1.97554 130.636 1.9776C137.344 1.50738 144.027 3.18267 149.712 6.75936C154.202 9.61436 157.793 13.6704 160.076 18.4633C162.301 23.2245 163.188 28.4977 162.642 33.7211C162.306 36.6846 161.592 39.5933 160.516 42.3764C159.458 45.2598 158.008 47.9849 156.206 50.4754C154.593 52.694 152.63 54.6382 150.394 56.2327C150.123 56.4236 149.848 56.6092 149.57 56.7895C149.181 57.0415 148.649 57.2584 148.515 57.7423C148.457 58.1207 148.449 58.5052 148.491 58.8858C148.494 59.2726 148.496 59.6595 148.497 60.0468C148.501 61.4199 148.486 62.7929 148.464 64.166C148.449 65.0438 148.434 65.9215 148.416 66.799L149.846 65.982C148.117 64.836 146.399 63.6747 144.715 62.4637C143.95 61.9116 143.19 61.3527 142.435 60.7869C142.255 60.6517 142.079 60.4991 141.891 60.3776C141.749 60.2938 141.591 60.2407 141.428 60.2218C141.264 60.2028 141.098 60.2184 140.941 60.2676C140.409 60.3642 139.879 60.4648 139.343 60.5385C134.798 61.1576 130.148 60.628 125.739 59.4446C119.42 57.749 113.456 54.5197 109.324 49.3716C105.485 44.591 103.77 38.4768 103.888 32.3807C104.022 25.4002 106.161 18.2579 110.536 12.7371C114.895 7.21784 121.148 3.49643 128.093 2.28716C128.936 2.14283 129.783 2.04385 130.635 1.978C130.886 1.9719 131.124 1.87023 131.301 1.69405C131.477 1.51786 131.58 1.28067 131.586 1.03158C131.584 0.781388 131.483 0.541935 131.306 0.36483C131.128 0.187725 130.888 0.0871492 130.637 0.0847771Z" fill="#D9D9D9"/>
<path d="M150.274 52.1647C150.579 52.3333 150.877 52.5129 151.167 52.7038C151.306 52.7956 151.442 52.8898 151.577 52.9865C151.644 53.0347 151.71 53.0834 151.775 53.1328C151.793 53.1462 151.941 53.2594 151.809 53.1585C151.678 53.0575 151.825 53.1715 151.842 53.1853C152.368 53.6041 152.863 54.0604 153.323 54.5505C153.502 54.726 153.744 54.8243 153.995 54.8243C154.246 54.8243 154.488 54.726 154.667 54.5505C154.84 54.3705 154.937 54.1307 154.937 53.8813C154.937 53.6319 154.84 53.3921 154.667 53.2121C153.668 52.147 152.509 51.2424 151.232 50.5306C151.014 50.4039 150.755 50.3686 150.511 50.4323C150.267 50.496 150.059 50.6536 149.932 50.8703C149.805 51.0871 149.769 51.3453 149.833 51.5881C149.897 51.8309 150.055 52.0385 150.273 52.1651L150.274 52.1647Z" fill="#D9D9D9"/>
<path d="M114.049 54.5505C114.299 54.2855 114.558 54.0284 114.827 53.7823C114.958 53.6629 115.091 53.5462 115.226 53.4321C115.294 53.3751 115.362 53.3187 115.432 53.263C115.485 53.22 115.748 53.0264 115.519 53.1916C116.124 52.7468 116.761 52.3459 117.424 51.992C117.64 51.8639 117.797 51.6563 117.861 51.414C117.924 51.1718 117.89 50.9142 117.765 50.697C117.634 50.4846 117.425 50.3307 117.183 50.2674C116.941 50.2042 116.684 50.2364 116.465 50.3575C115.058 51.0914 113.787 52.0565 112.703 53.2121C112.527 53.3901 112.429 53.63 112.43 53.8797C112.431 54.1293 112.531 54.3685 112.709 54.545C112.886 54.7216 113.126 54.8212 113.377 54.8222C113.627 54.8233 113.868 54.7256 114.047 54.5505H114.049Z" fill="#D9D9D9"/>
<path d="M118.78 34.5196C118.776 36.7969 118.542 39.1807 119.09 41.417C119.558 43.3319 121.238 44.4396 122.943 45.2027C123.162 45.3218 123.419 45.353 123.66 45.2899C123.902 45.2268 124.11 45.0741 124.243 44.8631C124.368 44.6459 124.403 44.3884 124.339 44.1461C124.275 43.9038 124.118 43.6962 123.902 43.5681C123.237 43.2961 122.607 42.9463 122.026 42.5259C121.404 42.067 120.985 41.3858 120.858 40.6256C120.453 38.6424 120.677 36.5288 120.681 34.52C120.681 33.3019 118.78 33.2999 118.78 34.5196Z" fill="#645D5C"/>
<path d="M119.489 24.7645C117.609 25.0965 116.829 27.6293 116.982 29.7872C117.126 31.8302 117.671 34.0137 119.459 35.0453C120.165 35.3639 121.233 35.5232 121.854 34.8544C122.476 34.1856 122.614 33.1856 122.668 32.2518C122.764 30.6121 122.695 28.9671 122.463 27.3411C122.332 26.429 122.146 25.7598 121.46 25.1836C121.18 24.9789 120.859 24.8357 120.52 24.7634C120.18 24.6911 119.829 24.6915 119.489 24.7645Z" fill="#645D5C"/>
<path d="M125.149 43.0922C125.326 43.2122 125.477 43.3674 125.591 43.5482C125.705 43.7289 125.78 43.9312 125.812 44.1424C125.843 44.3535 125.831 44.5689 125.775 44.775C125.719 44.9811 125.621 45.1734 125.487 45.3399C125.245 45.5958 124.949 45.7951 124.62 45.9234C124.291 46.0518 123.938 46.1061 123.586 46.0824C122.821 46.058 121.8 45.3154 121.68 44.4656C121.563 43.6403 122.556 42.9328 123.471 42.7365C123.759 42.6638 124.06 42.6581 124.351 42.7198C124.642 42.7815 124.915 42.9089 125.149 43.0922Z" fill="#645D5C"/>
<path d="M232.443 29.0797C233.532 28.0205 235.404 28.0178 236.646 28.8944C237.249 29.361 237.728 29.9671 238.042 30.6601C238.357 31.353 238.496 32.112 238.449 32.8709C238.336 34.3936 237.771 35.8484 236.826 37.0509C235.614 38.6399 233.995 39.8749 232.139 40.6263C231.001 42.6309 229.549 44.4415 227.838 45.9894C225.923 47.8468 223.607 49.2433 221.067 50.0719C218.146 50.9777 215.027 51.0398 212.072 50.251C210.481 49.8377 208.963 49.1819 207.573 48.3069C205.972 47.2413 204.586 45.8869 203.485 44.3134C202.105 42.4431 201.047 40.3563 200.357 38.1392C199.701 36.1304 199.268 34.056 199.065 31.9533C198.931 30.7967 198.875 29.8144 198.85 29.0896C198.85 29.0896 196.959 16.8651 213.265 16.0413C231.951 15.0992 232.443 29.0797 232.443 29.0797Z" fill="#FCE0CD"/>
<path d="M232.246 29.2469C232.151 29.3644 232.028 29.4571 231.889 29.5172C231.75 29.5774 231.598 29.6032 231.447 29.5924C231.296 29.5816 231.149 29.5346 231.02 29.4554C230.891 29.3762 230.783 29.2671 230.705 29.1373C228.966 25.5926 227.635 23.2305 225.211 21.3042C223.012 19.6361 221.371 18.6897 219.593 18.6562C219.141 18.6552 218.695 18.7646 218.295 18.9748C215.637 20.3191 212.248 22.4509 211.1 22.8997C210.387 23.1777 210.756 21.844 210.483 20.9248C210.348 20.4705 209.954 20.2884 209.655 20.4414C207.104 21.7474 199.038 28.633 199.038 28.633C198.913 28.7064 198.773 28.749 198.628 28.7573C198.483 28.7657 198.339 28.7395 198.206 28.6809C198.074 28.6224 197.957 28.5332 197.866 28.4207C197.775 28.3083 197.712 28.1758 197.683 28.0344C196.096 20.2422 197.935 14.0428 201.405 10.9958L200.955 10.7387C200.852 10.6799 200.763 10.6 200.693 10.5043C200.623 10.4087 200.575 10.2993 200.551 10.1836C200.527 10.0679 200.528 9.94835 200.553 9.83296C200.579 9.71757 200.629 9.60893 200.7 9.51423C200.7 9.51423 201.361 8.6108 201.595 8.32017C202.562 7.11665 204.319 5.77432 205.643 4.90362C211.239 1.22444 216.66 1.19289 220.319 1.43344C224.846 1.72998 229.091 4.34721 231.119 6.6048L233.368 8.69479C237.61 12.0924 239.016 17.6281 239.078 22.3251C239.101 24.1146 238.567 28.0631 237.728 30.0593C237.451 29.6018 237.083 29.2052 236.647 28.8936C235.405 28.017 233.533 28.0198 232.444 29.079L232.246 29.2469Z" fill="#7A7473"/>
<path d="M212.669 35.6774C212.536 36.0043 212.421 36.3383 212.325 36.6778C212.159 37.2409 211.957 37.9504 212.431 38.4271C212.535 38.5269 212.653 38.6118 212.78 38.6795C212.91 38.7499 213.048 38.8029 213.192 38.8372C213.386 38.8704 213.583 38.8836 213.78 38.8767C214.032 38.8743 214.273 38.7754 214.453 38.6006C214.631 38.4231 214.731 38.1824 214.731 37.9314C214.731 37.6804 214.631 37.4397 214.453 37.2622C214.272 37.0891 214.031 36.9905 213.78 36.9862C213.676 36.992 213.572 36.9914 213.469 36.9842L213.721 37.0177C213.669 37.0087 213.618 36.9944 213.568 36.9752L213.795 37.0706C213.722 37.0379 213.653 36.9967 213.59 36.9479L213.782 37.0958C213.779 37.0939 213.777 37.0915 213.775 37.0887L213.923 37.2804C213.92 37.2757 213.917 37.2707 213.915 37.2654L214.011 37.4913C214.007 37.4797 214.004 37.4677 214.002 37.4555L214.036 37.707C214.032 37.657 214.034 37.6068 214.042 37.5572L214.008 37.8088C214.06 37.5043 214.137 37.2047 214.241 36.9136C214.32 36.6676 214.399 36.4191 214.501 36.1806C214.535 36.0588 214.544 35.9316 214.528 35.8063C214.511 35.6811 214.47 35.5604 214.406 35.4514C214.343 35.3441 214.259 35.2501 214.16 35.175C214.06 35.0998 213.947 35.0449 213.826 35.0134C213.705 34.9818 213.58 34.9743 213.456 34.9912C213.332 35.0081 213.213 35.0491 213.105 35.1119L212.913 35.2598C212.797 35.3757 212.712 35.5195 212.669 35.6774Z" fill="#EFC0A0"/>
<path d="M205.49 31.4872C205.219 32.3342 205.34 34.2973 206.89 34.494C208.944 34.5208 209.105 32.1536 208.439 31.0262C207.893 30.1035 206.237 29.6937 205.49 31.4872Z" fill="#645D5C"/>
<path d="M223.114 31.5589C223.371 32.4545 223.149 34.4979 221.451 34.6371C219.215 34.5776 219.147 32.1003 219.924 30.952C220.562 30.0123 222.383 29.6543 223.114 31.5589Z" fill="#645D5C"/>
<path d="M216.479 46.0194C217.123 45.4343 217.664 44.7457 218.079 43.9822C218.546 43.1115 219.161 41.6974 218.044 41.0373C217.492 40.7112 216.729 40.8748 216.12 40.9281C215.468 40.9852 214.816 41.0535 214.165 41.1276C213.436 41.2104 212.707 41.3003 211.982 41.4092C211.739 41.4766 211.533 41.6368 211.409 41.8549C211.284 42.073 211.252 42.3313 211.318 42.5733C211.391 42.8111 211.553 43.012 211.771 43.135C211.988 43.2579 212.244 43.2935 212.487 43.2346C212.62 43.2144 212.753 43.1951 212.886 43.177C213.163 43.1375 212.774 43.1908 212.955 43.1675L213.161 43.1411C213.508 43.0969 213.856 43.0553 214.204 43.0161C214.912 42.9372 215.62 42.8623 216.329 42.8032C216.611 42.7795 216.893 42.7578 217.175 42.7432C217.224 42.747 217.273 42.7447 217.321 42.7365C217.191 42.7313 217.067 42.6785 216.973 42.5882C216.909 42.5231 216.86 42.4446 216.83 42.3584C216.799 42.2721 216.789 42.1802 216.799 42.0894C216.763 42.1823 216.736 42.2784 216.719 42.3765C216.699 42.44 216.678 42.5027 216.655 42.5654C216.612 42.6718 216.606 42.6896 216.638 42.6186C216.447 43.052 216.209 43.4633 215.928 43.8454C215.87 43.9286 215.812 44.0126 215.749 44.0926C215.84 43.9743 215.662 44.1861 215.64 44.2109C215.482 44.3766 215.304 44.5264 215.135 44.6841C214.959 44.8626 214.86 45.103 214.86 45.3533C214.86 45.6037 214.959 45.844 215.135 46.0225C215.316 46.1952 215.557 46.2917 215.807 46.2917C216.058 46.2917 216.298 46.1952 216.479 46.0225L216.479 46.0194Z" fill="#EFC0A0"/>
<path d="M231.643 40.1666C230.202 40.9207 228.706 41.5643 227.167 42.0917C225.545 42.628 223.87 42.9675 222.206 43.3406C221.013 43.608 221.518 45.4334 222.711 45.166C224.436 44.8246 226.141 44.3914 227.819 43.8682C229.461 43.2946 231.06 42.6034 232.602 41.7999C233.691 41.2443 232.73 39.6105 231.643 40.1658V40.1666Z" fill="#645D5C"/>
<path d="M220.135 43.1592C219.953 43.3134 219.805 43.5033 219.701 43.7171C219.596 43.9308 219.537 44.1638 219.528 44.4014C219.518 44.6389 219.557 44.8759 219.644 45.0975C219.731 45.3191 219.862 45.5204 220.031 45.6889C220.33 45.9436 220.682 46.1292 221.062 46.2323C221.442 46.3354 221.84 46.3534 222.227 46.2851C223.071 46.1668 224.114 45.2204 224.145 44.2641C224.174 43.3355 222.989 42.6702 221.952 42.5614C221.623 42.5158 221.289 42.546 220.974 42.6497C220.659 42.7533 220.372 42.9276 220.135 43.1592Z" fill="#645D5C"/>
<path d="M232.229 37.6105C231.933 39.0108 231.547 40.3908 231.074 41.7416C231.054 41.9252 231.09 42.1105 231.178 42.2731C231.266 42.4357 231.401 42.5681 231.566 42.6529C232.076 42.9267 232.643 43.0779 233.222 43.0945C233.404 43.1268 233.59 43.1088 233.762 43.0426C233.934 42.9765 234.085 42.8646 234.198 42.7191C234.846 41.224 235.274 39.6435 235.47 38.0265L232.229 37.6105Z" fill="#645D5C"/>
<path d="M230.539 42.6482C231.661 41.7655 232.553 40.6264 233.139 39.3274C233.26 39.1045 233.295 38.8448 233.235 38.5983C233.202 38.4784 233.145 38.3662 233.069 38.2681C232.992 38.17 232.897 38.0879 232.788 38.0265C232.68 37.9651 232.56 37.9255 232.436 37.9102C232.312 37.8948 232.187 37.904 232.066 37.937C231.947 37.9681 231.836 38.0225 231.738 38.097C231.641 38.1714 231.559 38.2645 231.498 38.3708C231.365 38.6686 231.215 38.9583 231.048 39.2383C230.96 39.3854 230.867 39.5297 230.771 39.6721C230.727 39.7356 230.682 39.7987 230.637 39.861C230.611 39.8957 230.585 39.9296 230.56 39.9643C230.465 40.0944 230.671 39.8259 230.6 39.9154C230.187 40.4324 229.716 40.9003 229.196 41.3098C229.108 41.3979 229.038 41.5025 228.991 41.6175C228.943 41.7325 228.919 41.8558 228.919 41.9802C228.92 42.231 229.02 42.4715 229.196 42.6505C229.375 42.8274 229.617 42.9266 229.869 42.9266C230.119 42.9126 230.356 42.8154 230.543 42.6505L230.539 42.6482Z" fill="#645D5C"/>
<path d="M236.584 32.9596C237.09 33.8249 237.311 34.826 237.217 35.8229C237.204 36.7457 236.903 37.6416 236.356 38.3861C236.043 38.7627 235.623 39.0362 235.151 39.171C234.679 39.3057 234.177 39.2954 233.711 39.1413C233.246 38.9417 232.844 38.6216 232.546 38.2146C232.111 37.6525 231.813 36.9974 231.675 36.3011C231.538 35.6047 231.565 34.886 231.754 34.2018C231.853 33.7438 232.05 33.3125 232.332 32.9377C232.615 32.5628 232.975 32.2532 233.389 32.0301C234.295 31.5849 235.979 31.7659 236.584 32.9608" fill="#645D5C"/>
</g>
<defs>
<filter id="filter0_d_517_226" x="4" y="69" width="288" height="108" filterUnits="userSpaceOnUse" color-interpolation-filters="sRGB">
<feFlood flood-opacity="0" result="BackgroundImageFix"/>
<feColorMatrix in="SourceAlpha" type="matrix" values="0 0 0 0 0 0 0 0 0 0 0 0 0 0 0 0 0 0 127 0" result="hardAlpha"/>
<feOffset dy="4"/>
<feGaussianBlur stdDeviation="2"/>
<feComposite in2="hardAlpha" operator="out"/>
<feColorMatrix type="matrix" values="0 0 0 0 0 0 0 0 0 0 0 0 0 0 0 0 0 0 0.25 0"/>
<feBlend mode="normal" in2="BackgroundImageFix" result="effect1_dropShadow_517_226"/>
<feBlend mode="normal" in="SourceGraphic" in2="effect1_dropShadow_517_226" result="shape"/>
</filter>
<clipPath id="clip0_517_226">
<rect width="171" height="127" fill="white" transform="translate(102)"/>
</clipPath>
</defs>
</svg>
