<svg width="48" height="53" viewBox="0 0 48 53" fill="none" xmlns="http://www.w3.org/2000/svg">
<g clip-path="url(#clip0_560_536)">
<path d="M8.10845 37.1181L17.2123 13.9889" stroke="#89C3EB" stroke-width="2" stroke-linecap="round" stroke-linejoin="round"/>
<path d="M37.3327 27.6958C38.9044 25.4183 35.6929 20.4767 30.1598 16.6583C24.6267 12.84 18.8671 11.5909 17.2954 13.8684C15.7238 16.1459 18.9352 21.0875 24.4684 24.9059C30.0015 28.7242 35.7611 29.9733 37.3327 27.6958Z" stroke="#89C3EB" stroke-width="2" stroke-linecap="round" stroke-linejoin="round"/>
<path d="M37.1231 27.9854L17.8264 43.8242" stroke="#89C3EB" stroke-width="2" stroke-linecap="round" stroke-linejoin="round"/>
<path d="M36.5669 14.6372L40.8871 11.8368" stroke="#89C3EB" stroke-width="3" stroke-linecap="round" stroke-linejoin="round"/>
<path d="M30.7394 10.7144L31.3711 5.59556" stroke="#89C3EB" stroke-width="3" stroke-linecap="round" stroke-linejoin="round"/>
<path d="M8.1084 37.1182L17.8263 43.8243" stroke="#89C3EB" stroke-width="2" stroke-linecap="round" stroke-linejoin="round"/>
<path d="M8.10851 37.1177L4.93262 39.9185" stroke="#89C3EB" stroke-width="2" stroke-linecap="round" stroke-linejoin="round"/>
<path d="M17.8264 43.8239L17.4741 47.9516" stroke="#89C3EB" stroke-width="2" stroke-linecap="round" stroke-linejoin="round"/>
<path d="M4.93262 39.9185L17.1836 48.3726" stroke="#89C3EB" stroke-width="2" stroke-linecap="round" stroke-linejoin="round"/>
</g>
<defs>
<clipPath id="clip0_560_536">
<rect width="45.564" height="25.9612" fill="white" transform="translate(0 37.5015) rotate(-55.3912)"/>
</clipPath>
</defs>
</svg>
