<svg width="70" height="67" viewBox="0 0 70 67" fill="none" xmlns="http://www.w3.org/2000/svg">
<path d="M57.0159 64.9038C56.2989 64.3438 55.5739 63.7938 54.8669 63.2208C54.0159 62.5318 53.1779 61.8288 52.3429 61.1198C52.2309 61.0248 52.1739 60.8658 52.0919 60.7358C52.2059 60.6678 52.3139 60.5888 52.4329 60.5338C54.2399 59.7158 55.9649 58.7598 57.5279 57.5318C59.7999 55.7478 61.4799 53.5668 62.0399 50.6588C62.3789 48.8988 62.2319 47.1878 61.4209 45.5678C61.3399 45.4068 61.1239 45.2518 60.9489 45.2218C60.8229 45.2008 60.5729 45.3668 60.5359 45.4958C60.4779 45.6948 60.4989 45.9558 60.5829 46.1488C61.6349 48.5708 61.2519 50.8808 60.0629 53.1308C59.0809 54.9888 57.6019 56.3968 55.8549 57.4918C51.7059 60.0918 47.2769 62.0448 42.4169 62.8628C39.4599 63.3608 36.5169 63.2498 33.6689 62.2088C32.8529 61.9098 32.0869 61.4728 31.2979 61.0998C31.2559 61.0698 31.2149 61.0398 31.1729 61.0108L31.1529 61.0308C31.0509 60.8568 30.9619 60.6738 30.8459 60.5098C30.1949 59.5928 29.5279 58.6868 28.8889 57.7618C28.6349 57.3938 28.6629 57.0778 29.0679 56.7478C29.9949 55.9938 30.8429 55.1428 31.7759 54.3988C32.2369 54.0318 32.8169 53.8148 33.3389 53.5228C33.4349 53.4688 33.5109 53.3788 33.5969 53.3048C34.7719 53.2288 35.9659 53.2598 37.1189 53.0558C40.4549 52.4658 43.3739 50.9288 46.0669 48.9148C48.0869 47.4028 49.8679 45.6348 51.5859 43.8028C52.6319 42.6878 53.6169 41.5168 54.6299 40.3718C54.8819 40.0878 54.8939 39.7888 54.6219 39.5338C54.3479 39.2768 54.1089 39.4338 53.9009 39.6728C53.5959 40.0238 53.2969 40.3818 52.9689 40.7108C52.8769 40.8038 52.6709 40.8728 52.5539 40.8368C51.7489 40.5828 51.3129 39.5618 51.7779 38.8568C52.0359 38.4658 52.4679 38.1318 52.8949 37.9208C54.4549 37.1478 56.0469 36.4378 57.6269 35.7038C58.1629 35.4548 58.7009 35.2078 59.2669 34.9458C59.4059 36.0128 59.5709 37.0118 59.6519 38.0178C59.6939 38.5368 59.9449 38.7328 60.3939 38.8578C61.7379 39.2328 62.8709 39.9618 63.8049 40.9948C65.5219 42.8918 66.2529 45.1918 66.4009 47.6838C66.5999 51.0348 65.7519 54.1678 64.2159 57.1258C62.9639 59.5378 61.2899 61.6238 59.2049 63.3638C58.5219 63.9338 57.7469 64.3928 57.0139 64.9028L57.0159 64.9038Z" fill="#D0D2D3"/>
<path d="M1.59406 24.6251C1.13406 25.0671 1.01007 25.6331 1.11707 26.2231C1.15307 26.4221 1.40406 26.6451 1.60906 26.7351C1.94306 26.8801 2.18007 27.0501 2.07307 27.4291C1.97007 27.7921 1.69007 27.8111 1.35107 27.7311C0.642065 27.5661 0.211065 27.0721 0.102065 26.2481C-0.105935 24.6781 1.12606 22.9711 2.70506 23.0901C2.82506 23.0991 2.98506 23.0091 3.07406 22.9151C3.66706 22.2891 4.37506 22.0131 5.18806 22.3561C6.03806 22.7151 6.42506 23.4621 6.43706 24.3471C6.44606 25.0031 6.31306 25.6601 6.24106 26.3321C7.15006 25.7481 8.11206 25.5001 9.00206 26.3491C9.75406 27.0671 9.68307 27.9691 8.85707 29.3801C9.95607 29.3981 10.9401 29.0211 11.9251 28.6361C13.3561 28.0781 14.7711 27.4671 16.2301 26.9941C17.8231 26.4791 19.3791 26.7441 20.8451 27.5411C20.8851 27.5631 20.9321 27.5701 20.9311 27.5701C20.6451 26.4541 20.3051 25.3351 20.0801 24.1931C19.7921 22.7341 19.7671 21.2551 19.9631 19.7741C19.9841 19.6141 19.9341 19.4011 19.8351 19.2771C17.6741 16.5441 18.0421 12.5381 20.2681 10.1181C20.2891 10.0951 20.2971 10.0591 20.2921 10.0701C20.1211 9.61108 19.9141 9.19308 19.8111 8.75008C19.6031 7.85608 19.9461 7.10508 20.4871 6.40108C21.1551 5.53308 21.0991 5.34408 20.3561 4.53508C20.0941 4.24908 19.9081 3.85408 19.8091 3.47708C19.7671 3.31608 19.9891 2.97008 20.1731 2.88408C21.6881 2.17308 23.2881 1.77608 24.9651 1.71308C25.2161 1.70408 25.3961 1.65308 25.5941 1.43808C26.4151 0.548081 27.7691 0.57208 28.8351 1.42808C29.5891 2.03308 29.9911 2.86208 30.3951 3.70908C30.7151 4.37908 31.0781 5.03708 31.5011 5.64608C31.8951 6.21408 32.6041 6.51508 33.3461 6.15008C33.5221 6.06308 33.8801 6.14808 34.0361 6.28708C34.1381 6.37708 34.0961 6.74508 33.9991 6.92508C33.4531 7.93908 32.5261 8.40308 31.4011 8.70608C31.7151 8.82308 32.0441 8.91008 32.3371 9.06608C32.5641 9.18708 32.8241 9.36008 32.9141 9.57508C32.9611 9.68708 32.7121 9.99408 32.5321 10.1211C31.3721 10.9341 30.1041 11.1361 28.7441 10.7181C28.6341 10.6841 28.4751 10.6631 28.4321 10.5851C28.3261 10.3891 28.1901 10.1511 28.2201 9.95408C28.2621 9.67808 28.5071 9.57908 28.8001 9.68108C29.5351 9.93808 30.2781 10.0121 30.9661 9.79208C30.6461 9.43208 30.2991 9.06908 29.9871 8.67808C29.8481 8.50308 29.7371 8.28108 29.6871 8.06308C29.5771 7.58108 29.8551 7.31508 30.3301 7.44908C31.0021 7.63808 31.6401 7.61608 32.3031 7.23908C30.6781 6.81808 30.0961 5.49008 29.5091 4.17908C29.1671 3.41508 28.8001 2.67908 28.1331 2.13808C27.2821 1.44708 26.1661 1.83608 25.9771 2.89008L25.9931 2.88908C25.9651 2.92908 25.9361 2.96808 25.9081 3.00808C25.7641 3.85608 26.0751 4.56808 26.6891 5.09908C27.2961 5.62308 27.9811 6.06108 28.6551 6.49908C29.1801 6.84008 29.2591 7.01908 28.8751 7.51908C28.3031 8.26408 27.6981 8.98408 27.1081 9.71508L27.1091 9.71408C27.0741 9.74408 27.0401 9.77408 27.0051 9.80408C26.1021 10.5531 25.1381 11.1821 23.9391 11.3401C23.7091 11.3701 23.4801 11.3981 23.1791 11.4361C24.0291 11.9611 24.9191 12.2251 25.8341 12.4161C27.9311 12.8541 30.0321 12.7211 32.1391 12.4681C32.8891 12.3781 33.6681 12.3111 34.4091 12.4131C35.3961 12.5501 35.8541 13.3051 35.7311 14.2981C35.4831 16.2961 33.5861 18.0141 31.4821 18.1121C31.1111 18.1291 30.9171 18.1931 30.7651 18.5891C30.3151 19.7621 29.3471 20.2111 28.0521 19.9931C27.6581 20.4641 27.3541 20.9791 26.9151 21.3221C25.8751 22.1361 24.6531 22.0691 23.4871 21.6971C22.5921 21.4121 21.7601 20.9301 20.8951 20.5331C20.7381 22.3661 20.9951 24.2341 21.5591 26.0781C22.0361 27.6351 22.9021 28.9861 23.7001 30.3801C24.7391 32.1941 24.9701 34.1641 24.6661 36.2121C24.6541 36.2901 24.6451 36.3691 24.6241 36.5241C25.6391 36.2631 26.6061 36.0101 27.5741 35.7661C28.9711 35.4151 30.3691 35.0721 31.7661 34.7211C32.1921 34.6141 32.4531 34.7611 32.6331 35.1651C33.4781 37.0581 34.3311 38.9481 35.1991 40.8301C35.9151 42.3821 36.6631 43.9191 37.3831 45.4691C37.8431 46.4611 38.2741 47.4671 38.7261 48.4631C38.8691 48.7791 38.8711 49.0591 38.5321 49.2271C38.1911 49.3961 37.9431 49.2171 37.8061 48.9141C37.2731 47.7381 36.7631 46.5521 36.2301 45.3771C35.0531 42.7801 33.8721 40.1841 32.6831 37.5921C32.4071 36.9901 32.0941 36.4041 31.7831 35.7781C30.4651 36.0981 29.1641 36.4051 27.8681 36.7321C26.8091 36.9991 25.7531 37.2791 24.7041 37.5851C24.5211 37.6381 24.3001 37.8191 24.2371 37.9921C23.3011 40.5521 21.6181 42.5681 19.6541 44.3921C18.1441 45.7931 16.6041 47.1681 15.1831 48.6561C13.9601 49.9371 13.1401 51.4771 13.0711 53.3141C13.0561 53.7111 13.0911 54.1101 13.1191 54.5071C13.1471 54.8961 13.0261 55.1791 12.6021 55.2071C12.1671 55.2361 12.1561 54.8691 12.1191 54.5861C11.8591 52.6121 12.3991 50.8351 13.4961 49.2091C14.5541 47.6401 15.9201 46.3531 17.3351 45.1181C19.0891 43.5871 20.8361 42.0481 22.0611 40.0311C22.4281 39.4261 22.7081 38.7681 23.0281 38.1351C23.0421 38.1011 23.0561 38.0671 23.0711 38.0331C23.0311 38.0381 22.9901 38.0421 22.9501 38.0471C19.9721 38.8141 16.9931 39.5771 14.0191 40.3601C13.8501 40.4041 13.6761 40.5951 13.5911 40.7621C12.9221 42.0711 12.3181 43.4151 11.6051 44.7001C11.1481 45.5231 10.3801 46.0851 9.57607 46.5711C9.27806 46.7511 9.01906 46.6851 8.85406 46.3991C8.68807 46.1101 8.78106 45.8831 9.07206 45.6891C9.47106 45.4231 9.84907 45.1211 10.2171 44.8121C11.1601 44.0201 11.3401 42.0971 10.7731 41.1281C8.10207 41.7521 5.41406 42.3791 2.77506 42.9951C4.21306 45.1411 4.92306 47.6201 5.97806 49.9351C6.96606 52.1041 7.86606 54.3141 8.80006 56.5081C9.40406 57.9261 10.0141 59.3411 10.5921 60.7691C10.7251 61.0991 10.8661 61.1891 11.2041 61.0921C13.6051 60.4041 16.0081 59.7251 18.4131 59.0511C19.4481 58.7611 20.4911 58.4951 21.5261 58.2061C21.8901 58.1041 22.1661 58.1761 22.2741 58.5541C22.3841 58.9391 22.1081 59.1081 21.8071 59.1921C19.8811 59.7351 17.9521 60.2661 16.0231 60.8001C14.3641 61.2601 12.7061 61.7201 11.0471 62.1771C10.2621 62.3931 10.1841 62.3371 9.86006 61.5741C8.64207 58.7081 7.41206 55.8471 6.19006 52.9831C5.02706 50.2581 3.85506 47.5361 2.71506 44.8011C2.40706 44.0611 1.90306 43.6571 1.12406 43.5631C0.959063 43.5431 0.795065 43.5161 0.629065 43.5041C0.334065 43.4821 0.0990642 43.3841 0.0860642 43.0461C0.0740642 42.7161 0.248065 42.5381 0.574065 42.4641C1.81706 42.1831 3.05806 41.8871 4.29906 41.5981C6.20206 41.1551 8.10507 40.7121 10.0071 40.2671C10.0691 40.2521 10.1261 40.2161 10.2191 40.1741C9.44806 39.2991 8.50506 38.8661 7.36306 38.8591C6.65106 38.8551 6.50606 38.7061 6.58207 37.9991C6.72107 36.7041 7.37006 35.7491 8.58807 35.2701C9.81006 34.7901 10.8961 35.0941 11.8151 36.0201C11.8731 36.0791 11.9381 36.1301 12.0021 36.1831C12.0131 36.1921 12.0341 36.1871 12.0731 36.1911C12.4341 35.2081 12.9161 34.3041 13.8141 33.6761C15.4031 32.5661 17.4911 32.8231 18.6911 34.2981C18.7641 34.3881 18.8331 34.4831 18.8891 34.5841C19.3281 35.3791 19.1761 35.6291 18.2631 35.7101C16.8631 35.8331 15.8761 36.6281 15.1121 37.7391C14.8051 38.1851 14.5511 38.6691 14.2121 39.2381C14.6251 39.1451 14.9341 39.0841 15.2381 39.0051C17.8611 38.3171 20.4811 37.6201 23.1071 36.9441C23.3891 36.8711 23.5361 36.7571 23.5911 36.4731C24.1171 33.7961 23.6551 31.3691 21.6691 29.3981C20.2051 27.9451 18.3941 27.4141 16.4061 27.9991C14.9511 28.4271 13.5611 29.0741 12.1451 29.6331C10.7051 30.2021 9.25106 30.5921 7.69106 30.1511C7.56006 30.1141 7.37806 30.2041 7.23606 30.2701C6.09406 30.8011 4.97006 31.3781 3.80806 31.8611C3.30006 32.0721 2.71707 32.1761 2.16407 32.1901C1.09507 32.2171 0.358064 31.6191 0.161064 30.6911C-0.0159358 29.8571 0.466063 29.0431 1.42706 28.6221C1.75706 28.4771 2.11506 28.3701 2.47106 28.3191C2.82706 28.2681 3.19506 28.3081 3.68706 28.3081C3.34506 27.9121 3.38207 27.3511 2.72906 27.3611C2.60406 27.3631 2.38706 27.0761 2.37406 26.9101C2.36206 26.7601 2.55106 26.5711 2.68806 26.4371C2.84306 26.2861 3.03907 26.1771 3.21707 26.0501L3.20706 26.0321C3.27406 25.9931 3.34106 25.9541 3.40806 25.9151L3.40406 25.9181C3.43807 25.8821 3.47206 25.8451 3.50606 25.8091L3.50006 25.8141C3.53106 25.7441 3.56206 25.6741 3.59406 25.6051C3.79806 25.0811 3.66106 24.5271 3.25206 24.2911C2.82706 24.0461 2.06307 23.9611 1.59207 24.6321L1.59406 24.6251ZM6.74507 27.5071C6.59807 28.0091 6.79106 28.4011 7.12706 28.7601C7.37006 29.0191 7.58606 29.0461 7.81006 28.7511C7.91106 28.6941 8.03006 28.6561 8.10906 28.5771C8.44506 28.2421 8.61606 27.8351 8.47506 27.3671C8.37006 27.0161 8.08706 26.8521 7.71906 26.8451C7.23706 26.8361 6.88606 27.0171 6.74406 27.5071H6.74507ZM1.89906 31.1661C3.30806 31.4251 4.28606 30.4381 5.53106 29.9601C5.23306 29.8091 5.01707 29.7001 4.80106 29.5901C3.83507 29.1841 2.85406 29.1501 1.86606 29.4961C1.44106 29.6451 1.16206 29.9401 1.17106 30.4141C1.17906 30.8751 1.52306 31.0451 1.90006 31.1661H1.89906ZM20.8421 11.0511C19.0791 13.0281 18.9741 16.3841 20.2261 17.9181C20.5091 17.1291 20.8091 16.3301 21.0801 15.5201C21.1931 15.1811 21.3261 14.9181 21.7361 15.0741C22.1381 15.2281 22.1411 15.5241 22.0111 15.8911C21.7291 16.6831 21.4861 17.4891 21.2111 18.2841C21.0091 18.8671 21.0921 19.2921 21.6541 19.6721C22.7961 20.4461 23.9871 21.0061 25.4041 20.8801C26.6661 20.7681 27.2661 19.7721 26.6321 18.8391C26.4771 18.8601 26.3151 18.8841 26.1521 18.9021C25.0581 19.0251 24.1161 18.7331 23.3791 17.8851C23.1451 17.6161 23.1391 17.3351 23.4111 17.0961C23.6651 16.8741 23.8711 17.0091 24.1101 17.1891C24.4481 17.4431 24.8131 17.6951 25.2071 17.8331C25.9581 18.0971 26.7601 17.8741 27.1031 17.3491C27.2971 17.0521 27.5151 16.7361 27.0701 16.4041C26.9431 16.3091 26.8961 15.9511 26.9721 15.7881C27.0321 15.6601 27.3541 15.5631 27.5321 15.5971C28.8831 15.8611 29.3651 15.6761 30.0771 14.5521C30.2431 14.2911 30.4311 14.0951 30.7661 14.2851C31.1051 14.4771 31.1711 14.7821 30.9821 15.0861C30.4471 15.9451 29.7551 16.5971 28.6811 16.7201C28.5471 16.7351 28.3841 16.8801 28.3151 17.0091C28.0781 17.4541 27.8761 17.9181 27.6341 18.4321C27.9111 18.9531 28.2871 19.1351 28.9691 19.0081C29.4391 18.9211 29.8421 18.4431 29.8981 17.9081C29.9781 17.1441 30.0571 17.0771 30.8161 17.1321C32.4801 17.2521 34.2291 16.1161 34.6651 14.6311C34.9361 13.7081 34.5651 13.2471 33.6091 13.3181C33.5431 13.3231 33.4781 13.3411 33.4121 13.3471C32.1711 13.4621 30.9331 13.6331 29.6891 13.6811C26.4581 13.8041 23.3921 13.3081 20.8411 11.0501L20.8421 11.0511ZM27.8511 7.21908C26.1811 6.17208 24.6291 5.05008 24.9021 2.73908C23.4751 2.81008 22.1381 3.08408 20.8051 3.72008C21.0451 3.93308 21.2211 4.10608 21.4141 4.25708C22.0731 4.77308 22.2271 5.50408 21.7981 6.24208C21.6251 6.54008 21.4121 6.81608 21.2051 7.09408C20.5111 8.02608 20.6901 9.21508 21.6311 9.89408C22.6051 10.5971 24.0601 10.5541 25.2861 9.79708C26.3381 9.14808 27.1191 8.23308 27.8501 7.22008L27.8511 7.21908ZM17.7961 34.7101C16.9551 34.0041 16.0921 33.8271 15.1621 34.1261C13.9821 34.5061 13.3621 35.4331 13.0141 36.5541C12.8631 37.0411 12.8561 37.5711 12.7201 38.0641C12.6711 38.2401 12.4431 38.4711 12.2831 38.4821C12.1211 38.4931 11.9211 38.2831 11.7811 38.1301C11.7041 38.0461 11.7161 37.8801 11.6881 37.7511C11.4811 36.8061 10.5201 36.0191 9.61006 36.0481C8.64207 36.0791 7.80606 36.8261 7.67506 37.8071C10.0331 38.0991 11.4881 39.4201 12.0721 41.8101C12.4211 40.9461 12.7241 40.1431 13.0681 39.3591C14.0071 37.2171 15.2581 35.3771 17.7971 34.7101H17.7961ZM4.99406 28.3291C4.85906 27.3341 5.10206 26.4301 5.34306 25.5231C5.50406 24.9191 5.55306 24.3161 5.26306 23.7281C4.95606 23.1071 4.39106 23.0201 3.92706 23.5301C5.09106 24.6701 4.92106 25.9181 3.98706 26.9091C4.31806 27.3761 4.65606 27.8531 4.99406 28.3301V28.3291Z" fill="#262223"/>
<path d="M57.0161 64.9039C57.7491 64.3939 58.5241 63.9349 59.2071 63.3649C61.2911 61.6249 62.9651 59.5389 64.2181 57.1269C65.7541 54.1689 66.6011 51.0349 66.4031 47.6849C66.2551 45.1929 65.5241 42.8929 63.8071 40.9959C62.8731 39.9639 61.7401 39.2339 60.3961 38.8589C59.9471 38.7339 59.6961 38.5369 59.6541 38.0189C59.5731 37.0129 59.4081 36.0129 59.2691 34.9469C58.7021 35.2089 58.1651 35.4559 57.6291 35.7049C56.0491 36.4379 54.4581 37.1489 52.8971 37.9219C52.4701 38.1329 52.0381 38.4669 51.7801 38.8579C51.3141 39.5629 51.7511 40.5839 52.5561 40.8379C52.6731 40.8749 52.8791 40.8049 52.9711 40.7119C53.2991 40.3829 53.5981 40.0249 53.9031 39.6739C54.1101 39.4359 54.3491 39.2779 54.6241 39.5349C54.8961 39.7899 54.8841 40.0889 54.6321 40.3729C53.6181 41.5179 52.6331 42.6899 51.5881 43.8039C49.8701 45.6359 48.0891 47.4049 46.0691 48.9159C43.3771 50.9299 40.4571 52.4669 37.1211 53.0569C35.9681 53.2609 34.7741 53.2299 33.5991 53.3059C32.4541 53.1749 31.3491 53.1699 30.4331 54.0559C29.6811 54.7839 28.8931 55.4749 28.1201 56.1809C27.6781 56.5839 27.2361 56.9869 26.7871 57.3829C26.5511 57.5909 26.2801 57.7629 25.9971 57.4869C25.7141 57.2109 25.8231 56.9309 26.0441 56.6489C26.9921 55.4369 27.9361 54.2209 28.5291 52.7809C29.0351 51.5539 29.2561 50.2949 28.9041 48.9859C28.0951 45.9779 24.5401 44.9819 22.2771 47.1309C22.0751 47.3229 21.8641 47.5369 21.7541 47.7839C21.6641 47.9869 21.6391 48.2979 21.7371 48.4789C21.8131 48.6189 22.1361 48.7109 22.3281 48.6819C22.7831 48.6129 23.2201 48.4269 23.6741 48.3509C24.0111 48.2949 24.3751 48.2849 24.7051 48.3559C24.9231 48.4029 25.2321 48.6089 25.2631 48.7839C25.2951 48.9699 25.0691 49.2229 24.9161 49.4159C24.5591 49.8639 24.0841 50.2449 23.8251 50.7409C23.1171 52.0999 23.5581 53.7369 24.7881 54.6409C24.8421 54.6799 24.9031 54.7109 24.9521 54.7549C25.2031 54.9789 25.2381 55.2509 25.0461 55.5109C24.8541 55.7699 24.6211 55.7399 24.3511 55.5639C22.6911 54.4819 22.0311 52.2309 22.8421 50.3609C22.8751 50.2849 22.9011 50.2059 22.9301 50.1289C22.9441 50.0919 22.9581 50.0549 22.9721 50.0179C22.9321 50.0249 22.8911 50.0329 22.8511 50.0399C21.4461 51.5009 20.0691 52.9909 18.6201 54.4059C18.1121 54.9019 17.4321 55.2269 16.8181 55.6099C15.9511 56.1499 15.0711 56.6689 14.2001 57.2019C13.9371 57.3629 13.6681 57.5379 13.3901 57.2789C13.1271 57.0329 13.2191 56.7559 13.3641 56.4619C14.0511 55.0639 14.7211 53.6579 15.3981 52.2549C15.7441 51.5379 15.9691 51.4879 16.6061 51.9709C16.7631 52.0899 16.9341 52.1909 17.0991 52.2999C17.5021 52.6139 17.9041 52.9269 18.3231 53.2539C19.4681 52.0629 20.5761 50.9099 21.7161 49.7249C20.3501 49.1639 20.5271 48.1699 20.8671 47.1009C20.3961 47.5709 19.9641 48.0439 19.5621 48.5419C18.9191 49.3379 18.2971 50.1499 17.6661 50.9559C17.3621 51.2319 17.0451 51.6549 16.6131 51.2729C16.1531 50.8659 16.6531 50.5499 16.8711 50.2719C19.3561 47.1009 22.0231 44.0939 25.0101 41.3819C25.6991 40.7559 26.4001 40.1429 27.0841 39.5109C27.4301 39.1909 27.7451 39.1889 28.0861 39.5089C28.6081 39.9969 29.1331 40.4839 29.6701 40.9559C29.9731 41.2219 29.9601 41.4829 29.7341 41.7769C28.8271 42.9589 27.9221 44.1419 26.9981 45.3479C28.5691 46.0689 29.5661 47.2799 29.9521 48.9289C30.3281 50.5339 29.9751 52.0819 29.2761 53.5659C29.3161 53.5909 29.3571 53.6149 29.3971 53.6399C29.5081 53.5419 29.6271 53.4499 29.7291 53.3429C30.5971 52.4329 31.6771 52.0909 32.8991 52.2229C36.7431 52.6389 40.1671 51.4509 43.3971 49.5129C46.3391 47.7479 48.7661 45.3839 51.0621 42.8709C51.3861 42.5169 51.7101 42.1629 52.0651 41.7749C51.3551 41.4109 50.9171 40.8749 50.7071 40.1629C50.5311 39.5669 50.5761 38.9789 50.8491 38.4199C51.2041 37.6939 51.8501 37.2659 52.5401 36.9379C54.4861 36.0139 56.4511 35.1299 58.4091 34.2289C58.7261 34.0829 59.0351 33.9189 59.3551 33.7819C59.8391 33.5759 60.1351 33.7419 60.2021 34.2529C60.3431 35.3389 60.4641 36.4269 60.6251 37.5099C60.6491 37.6749 60.8121 37.8989 60.9621 37.9519C63.2451 38.7639 64.9081 40.2849 66.0451 42.3929C67.7531 45.5609 67.7781 48.9139 67.0411 52.3279C66.3711 55.4339 65.0341 58.2449 63.1051 60.7579C61.4181 62.9559 59.3781 64.7759 56.9731 66.1719C56.6771 66.3439 56.3851 66.4779 56.1541 66.1139C55.9141 65.7349 56.1431 65.5029 56.4591 65.3089C56.6541 65.1889 56.8321 65.0399 57.0181 64.9039H57.0161ZM27.5191 40.3709C25.5831 42.2429 23.6891 44.0739 21.7961 45.9049C21.8271 45.9429 21.8591 45.9809 21.8901 46.0179C21.9861 45.9679 22.0861 45.9239 22.1771 45.8659C23.0331 45.3209 23.9601 44.9009 24.9771 45.0089C25.7921 45.0959 26.2321 44.7589 26.6581 44.1559C27.3121 43.2319 28.0291 42.3519 28.7181 41.4549C28.3201 41.0949 27.9651 40.7749 27.5181 40.3699L27.5191 40.3709ZM16.1841 52.9089C15.7981 53.7359 15.4451 54.4939 15.0911 55.2509C15.1371 55.2909 15.1831 55.3319 15.2301 55.3719C15.9971 54.9149 16.7631 54.4579 17.5921 53.9639C17.1041 53.5979 16.6731 53.2749 16.1841 52.9079V52.9089Z" fill="#262223"/>
<path d="M65.5799 34.2769C65.7179 32.4499 66.3179 30.7439 66.9499 29.0469C67.6219 27.2429 68.3599 25.4519 68.4619 23.4979C68.5639 21.5529 68.0719 19.8389 66.3679 18.6699C65.8429 18.3099 65.2609 18.0949 64.6309 18.0959C64.3369 18.9619 64.0599 19.8089 63.759 20.6479C63.642 20.9739 63.4599 21.2759 63.3259 21.5959C63.1959 21.9059 62.9759 21.9879 62.6849 21.8689C62.3599 21.7359 62.309 21.4779 62.428 21.1729C62.723 20.4179 63.102 19.6849 63.303 18.9069C64.494 14.2859 63.538 10.1809 60.0329 6.8739C57.523 4.5059 54.4419 3.7359 51.0409 4.3419C49.8769 4.5499 48.7809 4.9699 47.7609 5.5759C47.6269 5.6559 47.5029 5.7529 47.3049 5.8909C48.0929 5.8149 48.7789 5.7379 49.4669 5.6849C50.7449 5.5869 51.983 5.8019 53.196 6.1929C53.637 6.3349 53.8309 6.6319 53.6859 6.9629C53.5259 7.3299 53.2259 7.2679 52.9219 7.1759C49.1629 6.0449 45.8079 6.8169 42.9719 9.4909C40.9269 11.4189 39.9969 13.9099 39.8879 16.7059C39.8469 17.7499 39.8939 18.7889 40.2159 19.9289C40.3789 19.5259 40.4979 19.2329 40.6169 18.9399C40.6449 18.9229 40.6849 18.9129 40.6999 18.8879C41.6599 17.2609 43.07 16.1249 44.708 15.2499C46.201 14.4519 47.733 13.7229 49.203 12.8859C50.442 12.1809 51.5149 11.2619 52.1369 9.9229C52.2779 9.6279 52.3829 9.3069 52.5729 9.0479C52.6859 8.8949 52.9529 8.7389 53.1129 8.7709C53.2689 8.8029 53.4429 9.0549 53.4939 9.2409C53.7159 10.0569 53.8969 10.8849 54.0919 11.7079C54.1109 11.8049 54.117 11.9059 54.1509 11.9969C54.787 13.7019 55.7499 15.1909 57.1039 16.4159C58.1319 17.3459 59.26 18.1069 60.609 18.4969C60.809 18.5739 61.0109 18.6489 61.2099 18.7289C61.5199 18.8539 61.5849 19.1009 61.4789 19.3829C61.3809 19.6459 61.18 19.7659 60.8829 19.6789C59.367 19.2389 57.9989 18.5199 56.795 17.4979C54.7559 15.7659 53.4689 13.5659 52.7719 10.9189C51.7989 12.3389 50.5329 13.3379 49.1009 14.1279C48.1429 14.6559 47.1209 15.0739 46.1789 15.6259C45.0799 16.2699 43.9789 16.9359 42.9809 17.7219C41.6429 18.7759 40.9039 20.1989 40.92 21.9469C40.923 22.2709 40.83 22.5049 40.502 22.5899C40.168 22.6769 40.0059 22.4629 39.8999 22.1999C38.3439 18.3299 38.4659 14.5449 40.5849 10.9119C41.7959 8.8349 43.0639 7.7749 45.3749 6.4789C45.5109 6.2249 45.5869 5.8959 45.7929 5.7279C49.1459 2.9889 53.857 2.2349 57.8519 4.1969C60.815 5.6519 62.8509 7.9389 64.0259 10.9879C64.7019 12.7429 64.9079 14.5899 64.7749 16.4689C64.7619 16.6489 64.7469 16.8289 64.7299 17.0429C65.7629 17.1869 66.6819 17.5489 67.4689 18.2369C68.6279 19.2489 69.2229 20.5349 69.4149 22.0359C69.6739 24.0639 69.1239 25.9559 68.4689 27.8369C67.8799 29.5279 67.2679 31.2159 66.7879 32.9389C66.4029 34.3219 66.5219 35.7339 66.9969 37.1079C67.0709 37.3209 67.0649 37.6569 66.9429 37.8209C66.7579 38.0679 66.4569 37.9729 66.1829 37.8249C64.9589 37.1639 63.883 36.3209 62.953 35.2879C62.833 35.1549 62.71 35.0239 62.478 34.9239C62.543 35.2619 62.6449 35.5989 62.6599 35.9389C62.6699 36.1599 62.617 36.4489 62.4769 36.5989C62.1889 36.9059 61.7909 36.7549 61.7119 36.3369C61.4689 35.0499 61.2179 33.7639 61.0189 32.4709C60.9839 32.2449 61.1229 31.9019 61.2989 31.7679C61.4089 31.6839 61.74 31.8899 61.971 31.9649C62.7439 33.7959 64.0609 35.1569 65.5789 36.2629V34.2799L65.5799 34.2769ZM47.2849 5.9449C47.2739 5.9349 47.2629 5.9159 47.2509 5.9159C47.2389 5.9159 47.227 5.9329 47.215 5.9419C47.226 5.9519 47.2369 5.9709 47.2489 5.9709C47.2609 5.9709 47.2729 5.9539 47.2849 5.9449Z" fill="#252122"/>
<path d="M60.609 18.494C59.26 18.104 58.132 17.343 57.104 16.413C55.749 15.188 54.787 13.699 54.151 11.994C54.117 11.903 54.111 11.802 54.092 11.705C54.282 11.195 54.412 10.652 54.674 10.182C55.419 8.84603 55.168 7.62603 54.353 6.44103C54.289 6.34803 54.212 6.26403 54.083 6.10303C56.402 6.38203 58.397 7.11603 59.984 8.79403C61.732 10.643 62.429 12.897 62.618 15.362C62.649 15.759 62.648 16.159 62.697 16.554C62.769 17.135 62.48 17.522 62.027 17.789C61.574 18.056 61.084 18.261 60.61 18.494H60.609Z" fill="#89C2EA"/>
<path d="M8.04705 16.669C7.16505 17.298 6.61005 17.201 5.84305 16.226C5.78205 16.149 5.65505 16.119 5.55405 16.078C4.80405 15.774 4.52205 15.289 4.56905 14.486C4.57905 14.32 4.45905 14.087 4.32405 13.981C3.62705 13.431 2.98405 12.839 2.62005 12.011C2.30505 11.293 2.64405 10.757 3.42905 10.793C4.17205 10.828 4.91005 10.959 5.65105 11.049C5.79605 11.066 5.94005 11.085 6.10305 11.105C5.76405 10.328 5.85205 10.161 6.65005 9.99802C6.78005 9.97102 6.91005 9.94002 7.04105 9.91902C7.63805 9.82002 8.11305 9.66202 8.55105 9.10102C9.58605 7.77402 11.349 7.87602 12.199 9.21602C12.405 9.54102 12.484 9.94602 12.632 10.344C13.597 9.78002 14.56 9.21402 15.525 8.65302C16.026 8.36202 16.34 8.49902 16.461 9.05602C16.631 9.84102 16.545 10.6 16.261 11.349C16.197 11.516 16.223 11.718 16.209 11.904C16.208 11.92 16.22 11.936 16.22 11.952C16.206 12.26 16.314 12.678 16.155 12.855C15.517 13.561 15.901 14.708 15.035 15.294C14.278 15.806 13.5111 15.728 12.7231 15.381L12.611 15.47C12.875 15.88 13.1051 16.319 13.4141 16.691C13.6861 17.019 14.071 17.253 14.359 17.57C14.517 17.744 14.673 18.012 14.66 18.228C14.642 18.541 14.336 18.604 14.047 18.583C12.627 18.477 11.1861 18.441 9.87605 17.798C9.26005 17.496 8.70105 17.077 8.04705 16.668V16.669ZM3.79705 11.903C3.78205 11.88 3.76705 11.858 3.75205 11.835C3.74605 11.849 3.74105 11.863 3.73505 11.877C3.75905 11.882 3.78205 11.887 3.80605 11.892C4.12405 12.679 4.81205 13.079 5.48405 13.492C5.94605 13.776 5.98105 13.942 5.72105 14.419C5.64205 14.564 5.57505 14.795 5.63805 14.914C5.69805 15.026 5.94005 15.094 6.09805 15.088C6.46705 15.075 6.73205 15.185 6.79005 15.567C6.83305 15.852 6.94605 16.113 7.23305 16.001C7.35505 15.953 7.43605 15.536 7.37705 15.332C7.16705 14.594 7.08205 13.87 7.33405 13.132C7.41705 12.889 7.51605 12.651 7.65405 12.292C6.32105 12.157 5.06005 12.03 3.79805 11.902L3.79705 11.903ZM12.552 17.454C12.594 17.451 12.636 17.449 12.677 17.446C12.658 17.424 12.64 17.401 12.621 17.379C11.929 16.466 11.437 15.464 11.319 14.311C11.302 14.143 11.375 13.876 11.494 13.808C11.648 13.72 11.8981 13.752 12.0921 13.794C12.225 13.823 12.325 13.98 12.457 14.044C12.884 14.251 13.303 14.527 13.756 14.618C14.403 14.748 14.743 14.297 14.543 13.687C14.434 13.354 14.498 13.102 14.84 12.952C15.265 12.765 15.358 12.386 15.169 12.043C14.979 11.699 15.092 11.46 15.205 11.162C15.354 10.769 15.458 10.359 15.581 9.95602C15.275 9.98502 15.111 10.062 14.956 10.153C14.034 10.701 13.121 11.267 12.1851 11.791C12.019 11.884 11.698 11.891 11.5601 11.789C11.43 11.692 11.411 11.398 11.409 11.19C11.407 10.997 11.515 10.806 11.535 10.609C11.6 9.95702 11.274 9.44302 10.691 9.24502C10.161 9.06502 9.43505 9.30002 9.21805 9.86802C8.97405 10.505 8.54005 10.71 7.94005 10.768C7.80105 10.781 7.66605 10.839 7.47905 10.891C7.80505 11.212 8.09305 11.486 8.37105 11.77C8.79305 12.2 8.81705 12.443 8.49505 12.953C8.16805 13.471 8.07505 14.02 8.22705 14.619C8.46805 15.566 9.04005 16.296 9.90205 16.671C10.74 17.035 11.6641 17.201 12.5511 17.453L12.552 17.454Z" fill="#272324"/>
<path d="M52.136 9.92C51.513 11.259 50.441 12.178 49.202 12.883C47.732 13.72 46.2 14.45 44.707 15.247C43.069 16.122 41.66 17.258 40.699 18.885C40.684 18.91 40.644 18.92 40.616 18.937C40.51 16.573 40.709 14.26 41.789 12.101C42.618 10.444 43.981 9.505 45.767 9.089C47.299 8.732 48.823 8.635 50.334 9.105C50.959 9.3 51.537 9.643 52.137 9.919L52.136 9.92Z" fill="#88C1E9"/>
<path d="M31.2999 61.101C32.0889 61.475 32.8539 61.912 33.6709 62.21C36.5189 63.252 39.4619 63.363 42.4189 62.864C47.2789 62.045 51.7079 60.093 55.8569 57.493C57.6039 56.398 59.0839 54.99 60.0649 53.132C61.2539 50.882 61.6369 48.572 60.5849 46.15C60.5009 45.957 60.4799 45.695 60.5379 45.497C60.5749 45.369 60.8249 45.202 60.9509 45.223C61.1259 45.253 61.3429 45.408 61.4229 45.569C62.2339 47.188 62.3809 48.9 62.0419 50.66C61.4819 53.567 59.8019 55.748 57.5299 57.533C55.9669 58.761 54.2409 59.718 52.4349 60.535C52.3149 60.589 52.2069 60.669 52.0939 60.737C50.5909 61.345 49.1049 62 47.5809 62.552C44.1689 63.789 40.6569 64.4 37.0199 63.991C33.6879 63.616 30.6899 62.448 28.2179 60.112C27.8809 59.793 27.5939 59.422 27.2779 59.08C27.0159 58.797 27.0829 58.518 27.3229 58.29C27.5709 58.054 27.8069 58.177 28.0079 58.403C28.8699 59.375 29.8329 60.231 30.9339 60.926C31.0029 60.97 31.0819 60.997 31.1569 61.031L31.1769 61.011C31.2189 61.041 31.2599 61.071 31.3019 61.1L31.2999 61.101Z" fill="#282425"/>
<path d="M65.5799 34.2769V36.2599C64.0619 35.1539 62.7459 33.7929 61.9719 31.9619C62.0119 31.3109 62.0509 30.6599 62.0909 30.0089C63.1179 29.9289 63.9209 29.4419 64.3309 28.5119C64.6399 27.8129 64.8619 27.0449 64.9509 26.2869C65.1089 24.9499 64.8479 23.7049 63.6779 22.8269C64.1509 21.6959 64.6239 20.5639 65.1199 19.3779C65.2299 19.4309 65.3949 19.4729 65.5099 19.5729C66.5189 20.4539 67.3099 21.4819 67.6309 22.8149C67.8339 23.6559 67.5239 24.4339 67.2729 25.1949C66.7849 26.6749 66.2379 28.1369 65.6819 29.5939C65.0889 31.1489 65.1079 32.7049 65.5789 34.2769H65.5799Z" fill="#88C2E9"/>
<path d="M1.63208 46.0362C1.76808 45.9012 1.90408 45.6562 2.07708 45.6272C2.23308 45.6012 2.52008 45.7672 2.59308 45.9222C3.18308 47.1822 3.73708 48.4592 4.29908 49.7322C5.12308 51.5972 5.94608 53.4612 6.76608 55.3272C7.78008 57.6322 8.79108 59.9382 9.80108 62.2452C10.0801 62.8822 10.3651 63.5182 10.6251 64.1632C10.7331 64.4302 10.8911 64.4512 11.1311 64.3832C13.6291 63.6812 16.1291 62.9832 18.6281 62.2842C19.5831 62.0172 20.5401 61.7552 21.4921 61.4792C21.8311 61.3812 22.1411 61.3642 22.2661 61.7602C22.4001 62.1862 22.1101 62.3682 21.7611 62.4652C19.4361 63.1152 17.1091 63.7592 14.7831 64.4062C13.4771 64.7692 12.1661 65.1192 10.8671 65.5062C10.4151 65.6412 10.1401 65.5442 9.95308 65.1122C9.06708 63.0762 8.17508 61.0422 7.28208 59.0102C6.47508 57.1742 5.66208 55.3412 4.85308 53.5062C3.83708 51.2032 2.82108 48.9002 1.80908 46.5952C1.74308 46.4452 1.70908 46.2822 1.63208 46.0352V46.0362Z" fill="#272324"/>
<path d="M52.2979 35.3479C47.9039 35.1389 45.0289 33.2199 43.2959 29.6029C42.1589 27.2289 41.9159 24.7429 42.5119 22.1769C42.5379 22.0639 42.5679 21.9509 42.6049 21.8409C42.7089 21.5399 42.9539 21.3699 43.2169 21.5209C43.3909 21.6209 43.5589 21.9279 43.5439 22.1269C43.4689 23.1009 43.2089 24.0739 43.2399 25.0399C43.3419 28.2929 44.5909 31.0319 47.3269 32.8949C49.6049 34.4459 52.1389 34.6669 54.7629 33.8649C55.8379 33.5359 56.7959 32.9839 57.6809 32.2949C57.8189 32.1869 58.0129 32.0489 58.1559 32.0739C58.3369 32.1059 58.5769 32.2589 58.6309 32.4159C58.6799 32.5579 58.5649 32.8349 58.4329 32.9479C57.3889 33.8469 56.2119 34.5329 54.8749 34.8729C53.9159 35.1169 52.9259 35.2359 52.2989 35.3479H52.2979Z" fill="#262223"/>
<path d="M63.6799 22.8258C64.8499 23.7038 65.1099 24.9488 64.9529 26.2858C64.8639 27.0438 64.6409 27.8118 64.3329 28.5108C63.9229 29.4398 63.1199 29.9278 62.0929 30.0078C61.4549 29.9048 60.8639 29.6888 60.5009 29.1218C60.4069 28.9758 60.4069 28.6078 60.5049 28.5378C60.6649 28.4218 61.0389 28.3588 61.1509 28.4608C61.5589 28.8358 61.9609 29.0838 62.5289 28.8858C63.1329 28.6758 63.4619 28.1888 63.6639 27.6428C64.0369 26.6368 64.0549 25.5968 63.7399 24.5698C63.4639 23.6698 63.0369 23.4238 62.1089 23.5958C61.7869 23.6558 61.5209 23.5438 61.5289 23.2428C61.5349 23.0248 61.7289 22.7058 61.9229 22.6188C62.5239 22.3508 63.1189 22.5328 63.6789 22.8278L63.6799 22.8258Z" fill="#262325"/>
<path d="M27.1091 9.71188C27.7001 8.98089 28.3041 8.26089 28.8761 7.51589C29.2601 7.01589 29.1801 6.83688 28.6561 6.49589C27.9811 6.05789 27.2961 5.61889 26.6901 5.09589C26.0761 4.56589 25.7651 3.85288 25.9091 3.00488C25.9371 2.96488 25.9661 2.92588 25.9941 2.88588L25.9781 2.88689C26.1711 2.79789 26.3561 2.67888 26.5581 2.62388C27.4461 2.38488 27.9501 2.60688 28.4571 3.45788C28.5751 3.65488 28.6941 3.87589 28.7241 4.09689C28.8941 5.34789 29.6511 6.18989 30.6171 6.89689C30.6561 6.92589 30.6841 6.96989 30.7141 7.00889C30.7211 7.01889 30.7141 7.03889 30.7121 7.08989C30.5241 7.08989 30.3331 7.08889 30.1421 7.08989C29.4301 7.09389 28.9411 7.70189 29.0781 8.40689C29.1621 8.83589 29.1491 9.16889 28.5781 9.26488C28.0781 9.34889 27.5991 9.55689 27.1111 9.70989L27.1091 9.71188Z" fill="#87C0E7"/>
<path d="M17.6639 50.9561C18.2949 50.1511 18.9179 49.3381 19.5599 48.5421C19.9619 48.0451 20.3929 47.5711 20.8649 47.1011C20.5249 48.1701 20.3479 49.1641 21.7139 49.7251C20.5749 50.9101 19.4659 52.0631 18.3209 53.2541C17.9019 52.9281 17.4999 52.6141 17.0969 52.3001C17.2979 52.0261 17.4679 51.7221 17.7079 51.4881C17.9469 51.2541 17.8739 51.1171 17.6639 50.9561Z" fill="#86BFE6"/>
<path d="M52.109 30.4201C50.533 30.4741 49.304 30.0361 48.224 29.1441C47.976 28.9391 47.816 28.7311 48.017 28.4371C48.243 28.1061 48.536 28.1741 48.846 28.3481C49.418 28.6691 49.973 29.0571 50.587 29.2571C51.841 29.6641 53.044 29.4181 54.132 28.6801C54.766 28.2501 55.085 28.1721 55.288 28.5211C55.622 29.0961 55.049 29.2151 54.752 29.4421C53.923 30.0751 52.969 30.3681 52.108 30.4201H52.109Z" fill="#262223"/>
<path d="M56.471 20.6998C56.482 20.4798 56.614 20.1748 57.041 20.2098C57.452 20.2438 57.501 20.5668 57.486 20.9088C57.459 21.5208 57.436 22.1328 57.419 22.7448C57.409 23.1038 57.235 23.3058 56.876 23.3138C56.46 23.3228 56.367 23.0178 56.41 22.7048C56.466 22.2988 56.309 22.0468 55.989 21.8388C55.715 21.6608 55.424 21.4138 55.668 21.0828C55.809 20.8918 56.146 20.8448 56.471 20.6988V20.6998Z" fill="#262223"/>
<path d="M46.1821 20.7892C46.2291 20.6672 46.2421 20.4912 46.3311 20.4342C46.4981 20.3262 46.7241 20.2112 46.8981 20.2432C47.0311 20.2682 47.2111 20.5142 47.2161 20.6662C47.2361 21.3132 47.2111 21.9622 47.1771 22.6092C47.1591 22.9462 46.9621 23.2022 46.6101 23.1682C46.2641 23.1352 46.1621 22.8742 46.1441 22.5212C46.1331 22.2992 45.9361 22.0872 45.8251 21.8682C45.7071 21.6362 45.4661 21.3732 45.5121 21.1792C45.5601 20.9812 45.8911 20.8522 46.0981 20.6922C46.1251 20.7242 46.1531 20.7562 46.1801 20.7882L46.1821 20.7892Z" fill="#262324"/>
<path d="M1.59412 24.6249C2.06512 23.9539 2.82912 24.0389 3.25412 24.2839C3.66312 24.5199 3.80012 25.0739 3.59612 25.5979C3.56512 25.6679 3.53412 25.7379 3.50212 25.8069L3.50812 25.8019C3.47412 25.8379 3.44012 25.8749 3.40612 25.9109L3.41012 25.9079C3.34312 25.9469 3.27612 25.9859 3.20912 26.0249L3.21912 26.0429C2.88212 26.0229 2.54612 25.9959 2.20812 25.9839C1.80812 25.9689 1.68312 25.6719 1.61512 25.3679C1.56212 25.1309 1.59712 24.8729 1.59312 24.6249H1.59412Z" fill="#89C1E7"/>
<path d="M49.6211 25.5569C49.7061 24.7819 50.2651 24.0829 50.9701 24.0429C51.1601 24.0319 51.4311 24.2549 51.5351 24.4419C51.5881 24.5369 51.3981 24.8759 51.2411 24.9609C50.6271 25.2909 50.6111 25.2709 50.8871 25.9559C51.0031 26.2439 50.9691 26.5309 50.6911 26.6279C50.5201 26.6879 50.1931 26.5889 50.0751 26.4459C49.8681 26.1959 49.7671 25.8579 49.6211 25.5569Z" fill="#272324"/>
<path d="M17.7961 34.7101C15.2571 35.3771 14.0051 37.2171 13.0671 39.3591C12.7231 40.1441 12.4201 40.9471 12.0711 41.8101C11.4881 39.4191 10.0321 38.0991 7.67407 37.8071C7.80507 36.8271 8.64107 36.0791 9.60907 36.0481C10.5201 36.0191 11.4801 36.8061 11.6871 37.7511C11.7151 37.8801 11.7031 38.0461 11.7801 38.1301C11.9201 38.2831 12.1201 38.4931 12.2821 38.4821C12.4421 38.4711 12.6701 38.2401 12.7191 38.0641C12.8551 37.5711 12.8631 37.0411 13.0131 36.5541C13.3601 35.4331 13.9811 34.5061 15.1611 34.1261C16.0911 33.8271 16.9541 34.0041 17.7951 34.7101H17.7961Z" fill="#CBCDCE"/>
<path d="M4.994 28.3291C4.656 27.8521 4.318 27.3761 3.987 26.9081C4.921 25.9171 5.091 24.6691 3.927 23.5291C4.391 23.0191 4.956 23.1061 5.263 23.7271C5.554 24.3161 5.504 24.9191 5.343 25.5221C5.101 26.4291 4.859 27.3341 4.994 28.3281V28.3291Z" fill="#F1F1F1"/>
<path d="M4.80094 29.5898C5.01694 29.6998 5.23394 29.8088 5.53094 29.9598C4.28594 30.4378 3.30794 31.4248 1.89894 31.1658C1.87694 30.3598 2.03094 30.0918 2.81694 29.8988C3.46394 29.7398 4.13794 29.6888 4.80094 29.5898Z" fill="#89C2E9"/>
<path d="M4.80109 29.5898C4.13909 29.6888 3.46509 29.7388 2.81709 29.8988C2.03109 30.0928 1.87709 30.3598 1.89909 31.1658C1.52209 31.0448 1.17809 30.8748 1.17009 30.4138C1.16209 29.9398 1.44009 29.6448 1.86509 29.4958C2.85309 29.1498 3.83409 29.1838 4.80009 29.5898H4.80109Z" fill="#F4F5F6"/>
<path d="M6.74512 27.507C6.88712 27.017 7.23812 26.836 7.72012 26.845C8.08812 26.852 8.37012 27.016 8.47612 27.367C8.61712 27.836 8.44512 28.242 8.11012 28.577C8.03112 28.656 7.91211 28.694 7.81111 28.751C7.80311 27.709 7.59612 27.468 6.74612 27.507H6.74512Z" fill="#F1F3F4"/>
<path d="M6.74499 27.5068C7.59499 27.4678 7.80199 27.7088 7.80999 28.7508C7.58599 29.0458 7.36998 29.0188 7.12698 28.7598C6.78998 28.4008 6.59699 28.0088 6.74499 27.5068Z" fill="#86BDE3"/>
<path d="M27.5189 40.3711C27.9659 40.7751 28.3209 41.0961 28.7189 41.4561C28.0299 42.3531 27.3129 43.2321 26.6589 44.1571C26.2319 44.7601 25.7919 45.0981 24.9779 45.0101C23.9609 44.9011 23.0329 45.3211 22.1779 45.8671C22.0869 45.9251 21.9869 45.9681 21.8909 46.0191C21.8599 45.9811 21.8279 45.9431 21.7969 45.9061C23.6909 44.0751 25.5839 42.2441 27.5199 40.3721L27.5189 40.3711Z" fill="#86BEE5"/>
<path d="M16.1841 52.9092C16.6731 53.2752 17.1041 53.5992 17.5921 53.9652C16.7631 54.4592 15.9961 54.9162 15.2301 55.3732C15.1841 55.3332 15.1381 55.2922 15.0911 55.2522C15.4441 54.4942 15.7981 53.7372 16.1841 52.9102V52.9092Z" fill="#F1F1F1"/>
<path d="M12.552 17.4539C11.666 17.2009 10.741 17.0359 9.90396 16.6719C9.04196 16.2969 8.46996 15.5679 8.22896 14.6199C8.07696 14.0219 8.17096 13.4719 8.49696 12.9539C8.81896 12.4439 8.79496 12.2019 8.37296 11.7709C8.09496 11.4869 7.80696 11.2129 7.48096 10.8919C7.66796 10.8409 7.80296 10.7819 7.94196 10.7689C8.54196 10.7119 8.97596 10.5059 9.21996 9.86891C9.43796 9.30191 10.163 9.06691 10.693 9.24591C11.276 9.44391 11.602 9.95791 11.537 10.6099C11.517 10.8059 11.409 10.9979 11.411 11.1909C11.413 11.3989 11.432 11.6929 11.562 11.7899C11.7 11.8929 12.021 11.8849 12.187 11.7919C13.123 11.2679 14.035 10.7019 14.958 10.1539C15.113 10.0619 15.276 9.98591 15.583 9.95691C15.46 10.3599 15.356 10.7699 15.207 11.1629C15.094 11.4609 14.98 11.6999 15.171 12.0439C15.36 12.3859 15.267 12.7659 14.842 12.9529C14.5 13.1029 14.436 13.3559 14.545 13.6879C14.745 14.2979 14.406 14.7489 13.758 14.6189C13.304 14.5279 12.886 14.2519 12.459 14.0449C12.327 13.9809 12.227 13.8239 12.094 13.7949C11.899 13.7519 11.65 13.7199 11.496 13.8089C11.377 13.8769 11.304 14.1439 11.321 14.3119C11.438 15.4649 11.931 16.4659 12.623 17.3799C12.6 17.4049 12.577 17.4299 12.553 17.4549L12.552 17.4539Z" fill="#CFD1D2"/>
<path d="M3.79688 11.9031C5.05887 12.0301 6.32087 12.1581 7.65287 12.2931C7.51587 12.6531 7.41587 12.8901 7.33287 13.1331C7.08187 13.8711 7.16588 14.5961 7.37588 15.3331C7.43388 15.5371 7.35388 15.9541 7.23188 16.0021C6.94388 16.1141 6.83188 15.8531 6.78888 15.5681C6.73088 15.1861 6.46688 15.0761 6.09687 15.0891C5.93887 15.0951 5.69687 15.0261 5.63687 14.9151C5.57287 14.7961 5.64088 14.5651 5.71988 14.4201C5.97988 13.9421 5.94487 13.7761 5.48287 13.4931C4.80987 13.0801 4.12187 12.6791 3.80487 11.8931L3.79688 11.9041V11.9031Z" fill="#CACCCD"/>
<path d="M3.80611 11.8929C3.78211 11.8879 3.75911 11.8829 3.73511 11.8779C3.74111 11.8639 3.74611 11.8499 3.75211 11.8359C3.76711 11.8589 3.78211 11.8809 3.79711 11.9039L3.80611 11.8929Z" fill="#CACCCD"/>
<path d="M12.622 17.3789C12.641 17.4009 12.659 17.4239 12.678 17.4459C12.636 17.4489 12.594 17.4509 12.553 17.4539C12.576 17.4289 12.599 17.4039 12.622 17.3789Z" fill="#CFD1D2"/>
<path d="M24.4339 7.09905C24.2719 7.44805 24.0239 7.68805 23.6499 7.50105C23.0929 7.22305 23.5459 6.79005 23.5779 6.36605C23.1949 6.54105 22.8049 6.81405 22.5479 6.35705C22.3069 5.92805 22.6589 5.71005 22.9699 5.48805C23.0569 5.42605 23.0739 5.23105 23.0769 5.09505C23.0839 4.81205 23.1689 4.54805 23.4769 4.59105C23.6899 4.62105 24.0309 4.81505 24.0509 4.97105C24.1739 5.90705 24.7019 6.27905 25.5999 6.29005C26.0099 6.29505 26.1739 6.69105 25.9599 7.04105C25.8549 7.21205 25.8099 7.42405 25.6869 7.57705C25.5539 7.74205 25.3629 7.96605 25.1949 7.96805C25.0349 7.97005 24.8459 7.73805 24.7199 7.57005C24.6269 7.44605 24.6169 7.26105 24.5689 7.10305L24.4339 7.09805V7.09905Z" fill="#2B2728"/>
</svg>
