<svg width="84" height="70" viewBox="0 0 84 70" fill="none" xmlns="http://www.w3.org/2000/svg">
<path d="M18.597 66.2842C18.429 65.3462 18.568 64.3962 18.498 63.4572C18.393 62.0312 18.392 60.5922 18.012 59.1942C17.789 58.3752 17.117 57.8612 16.27 57.9212C15.442 56.5432 14.463 55.2942 13.196 54.2882C13.596 52.6422 14.003 50.9972 14.388 49.3472C14.435 49.1472 14.527 49.0262 14.674 48.9112C15.784 48.0422 16.206 46.9232 16.025 45.5152C15.769 43.5252 14.892 41.7662 14.095 39.9712C14.141 39.9042 14.179 39.8292 14.235 39.7722C16.234 37.7312 18.45 35.9642 20.93 34.5412C21.989 33.9332 23.04 33.3002 24.192 32.8892C24.332 33.0692 24.448 33.2292 24.575 33.3792C25.758 34.7712 27.283 35.6352 28.981 36.2312C31.518 37.1232 34.125 37.2422 36.757 36.8662C38.971 36.5502 41.053 35.9312 42.346 33.8442C43.694 34.5732 44.969 35.3642 46.172 36.2712C46.711 36.6772 47.301 37.0232 47.704 37.5872C47.513 37.7372 47.528 37.9582 47.4841 38.1682C46.794 41.4402 46.095 44.7102 45.4 47.9822C44.565 51.9132 43.733 55.8452 42.9 59.7772C42.692 60.7602 42.481 61.7422 42.258 62.7872H30.295C30.295 63.9962 30.295 65.1402 30.295 66.2842C26.395 66.2842 22.495 66.2842 18.595 66.2832L18.597 66.2842Z" fill="#88C2EA"/>
<path d="M78.5029 64.916V65.083C78.0939 65.144 77.9689 65.404 77.9729 65.79C77.9839 66.719 77.9769 67.648 77.9769 68.598H34.2939V64.94H42.7109C42.7109 65.775 42.7049 66.574 42.7139 67.373C42.7169 67.68 42.8259 67.939 43.1829 67.968C43.5319 67.996 43.6979 67.789 43.7439 67.469C43.7619 67.338 43.7589 67.203 43.7589 67.07C43.7609 66.187 43.7619 65.304 43.7629 64.421C44.1289 64.413 44.4949 64.405 44.8599 64.397C44.9369 64.932 45.3349 64.903 45.7299 64.903C56.4709 64.901 67.2129 64.901 77.9539 64.903C78.1369 64.903 78.3199 64.912 78.5019 64.917L78.5029 64.916ZM40.0889 67.015C40.0889 67.015 40.0889 67.007 40.0889 67.003C40.3709 67.003 40.6539 67.018 40.9349 66.998C41.1819 66.98 41.3249 66.823 41.3339 66.572C41.3429 66.321 41.2719 66.096 40.9889 66.048C40.4129 65.951 39.8299 65.97 39.2549 66.037C39.0259 66.064 38.8479 66.246 38.8739 66.535C38.8999 66.828 39.0469 66.998 39.3429 67.012C39.5919 67.024 39.8409 67.014 40.0899 67.014L40.0889 67.015ZM37.4769 66.568C37.4599 66.879 37.5009 67.209 37.9469 67.252C38.3209 67.288 38.4799 67.041 38.4889 66.487C38.4949 66.122 38.4299 65.793 37.9889 65.789C37.5049 65.785 37.4719 66.155 37.4759 66.568H37.4769Z" fill="#DBDCDC"/>
<path d="M47.7051 37.588C47.3021 37.024 46.7121 36.678 46.1731 36.272C44.9701 35.365 43.6951 34.574 42.3471 33.845C41.0541 35.932 38.9721 36.552 36.7581 36.867C34.1251 37.242 31.5181 37.123 28.9821 36.232C27.2841 35.635 25.7591 34.772 24.5761 33.38C24.4491 33.23 24.3331 33.07 24.1931 32.89C23.0411 33.301 21.9901 33.934 20.9311 34.542C18.4511 35.965 16.2351 37.732 14.2361 39.773C14.1801 39.83 14.1421 39.905 14.0961 39.972C13.9411 40.121 13.7791 40.263 13.6331 40.419C13.4041 40.664 13.1291 40.683 12.8781 40.515C12.6041 40.331 12.6881 40.051 12.8021 39.799C12.8351 39.727 12.8901 39.66 12.9471 39.603C13.6991 38.848 14.4161 38.052 15.2171 37.353C16.0881 36.593 16.9901 35.863 17.9441 35.203C19.7771 33.935 21.7041 32.835 23.7281 31.901C24.1421 31.71 24.5121 31.579 24.8491 32.011C24.9701 32.166 25.0871 32.097 25.2391 32.03C25.7541 31.805 26.2721 31.575 26.8091 31.415C27.1031 31.327 27.1561 31.188 27.1531 30.926C27.1441 29.86 27.1471 28.793 27.1511 27.727C27.1511 27.511 27.1721 27.296 27.1841 27.049C25.9561 26.222 25.1191 25.049 24.5001 23.702C24.4471 23.586 24.4351 23.446 24.3041 23.376C24.3881 23.225 24.4481 23.081 24.2031 22.998V23.405C23.9101 23.908 23.4141 23.745 23.0421 23.654C22.0511 23.411 21.3951 22.725 21.0041 21.796C20.4421 20.46 20.6821 19.227 21.5531 18.106C21.7291 17.879 21.9631 17.639 22.2211 17.547C22.7771 17.348 22.6231 16.98 22.5521 16.597C22.3441 15.482 22.0451 14.377 22.1011 13.228C22.1481 12.265 22.3971 11.337 22.6421 10.412C22.7091 10.158 23.0231 10.135 23.1901 9.95596C22.8751 9.25696 22.8911 8.52296 22.9071 7.78396C22.9131 7.49596 23.0221 7.33896 23.2881 7.31196C23.5841 7.28096 23.8051 7.41596 23.8881 7.71196C23.9191 7.82096 23.9061 7.94396 23.8991 8.05996C23.7791 10.132 25.4041 11.858 27.6021 12.008C28.0841 12.041 28.5631 12.033 29.1481 11.995C28.9621 11.832 28.8261 11.713 28.6901 11.594C28.2491 11.01 27.8231 10.418 27.5151 9.74796C27.3941 9.48396 27.3271 9.24296 27.5781 9.02796C27.8191 8.81996 28.0761 8.87496 28.3161 9.02996C30.2611 10.29 32.4071 10.894 34.7061 11.002C34.7521 10.977 34.8771 11.053 34.8261 10.907C34.2651 10.319 33.6981 9.73796 33.1481 9.14096C32.9821 8.96096 32.8171 8.74096 33.0191 8.48096C33.2171 8.22696 33.4681 8.16596 33.7701 8.30596C34.9091 8.83696 36.0421 9.37896 37.1211 10.023C38.0411 10.572 38.9391 11.157 39.8471 11.726C39.8931 11.774 39.9301 11.84 39.9861 11.866C40.2511 11.99 40.4191 12.177 40.3971 12.483C40.3741 12.81 40.1291 12.912 39.8591 12.98L39.8551 12.995C39.7611 12.892 39.6441 12.832 39.5061 12.813L39.5041 12.827C39.5261 12.894 39.5491 12.961 39.5711 13.028C39.6841 13.966 39.8351 14.898 40.0781 15.813C40.0721 15.846 40.0601 15.878 40.0601 15.911C40.0621 16.295 39.9111 16.565 39.4951 16.58C39.0931 16.595 39.0811 16.247 39.0301 15.987C38.8731 15.189 38.6721 14.39 38.6211 13.583C38.5491 12.435 38.1591 11.563 37.0261 11.137C36.7801 11.044 36.5971 10.824 36.3291 10.769C36.2281 10.662 36.1301 10.695 35.9681 10.749C36.0861 10.808 36.1421 10.836 36.1971 10.864C36.3611 11.1 36.6401 11.297 36.4551 11.651C36.2751 11.994 35.9541 11.97 35.6381 11.988C33.5461 12.107 31.5511 11.698 29.6261 10.902L29.5951 10.913C29.8031 11.324 30.2091 11.49 30.5731 11.712C30.8301 11.868 31.2101 11.959 31.1461 12.363C31.0791 12.792 30.7211 12.852 30.3521 12.893C29.0271 13.038 27.7021 13.156 26.3921 12.797C26.0281 12.698 25.6791 12.545 25.2721 12.398C25.1151 13.279 24.9591 14.156 24.8031 15.032C24.7511 15.326 24.7091 15.622 24.6441 15.913C24.4751 16.675 24.2451 16.762 23.5661 16.271C23.5991 16.568 23.6261 16.82 23.6551 17.084C23.9571 17.153 24.2521 17.193 24.5261 17.291C24.8211 17.397 24.9071 17.642 24.8171 17.941C24.7371 18.207 24.5491 18.333 24.2851 18.259C23.3071 17.986 22.5751 18.345 22.0821 19.169C21.5681 20.03 21.6561 20.918 22.1691 21.761C22.5081 22.317 23.0081 22.639 23.6711 22.689C23.8011 22.699 23.9281 22.737 24.0891 22.769C24.1561 22.331 23.9441 21.917 23.8611 21.494C23.7201 20.772 23.6931 20.046 23.6481 19.319C23.6271 18.99 23.7921 18.756 24.1201 18.727C24.4591 18.697 24.6431 18.91 24.6571 19.245C24.6951 20.158 24.7821 21.061 24.9961 21.955C25.5181 24.134 26.8181 25.705 28.7161 26.83C29.3851 27.226 30.0591 27.611 30.7981 27.862C31.6761 28.16 32.5561 28.167 33.4251 27.821C34.7171 27.307 35.8911 26.593 36.9231 25.666C38.3771 24.361 39.0571 22.664 39.2961 20.765C39.3521 20.321 39.3801 19.871 39.3931 19.424C39.4041 19.028 39.5111 18.708 39.9681 18.734C40.3841 18.757 40.4291 19.082 40.4191 19.428C40.3851 20.562 40.2581 21.679 39.8831 22.757C39.8231 22.943 39.7641 23.129 39.7041 23.315C39.1931 24.352 38.7381 25.463 37.8101 26.179C37.0881 26.735 36.9371 27.363 37.0091 28.179C37.0571 28.725 37.0581 29.282 37.0031 29.826C36.9691 30.16 37.1231 30.338 37.3401 30.477C38.3561 31.123 39.2201 31.964 40.1911 32.668C40.4471 32.854 40.5061 33.127 40.3211 33.362C40.1411 33.591 39.8691 33.702 39.5831 33.474C38.7391 32.804 37.8841 32.147 37.0571 31.456C36.7341 31.186 36.2731 31.081 36.1001 30.618C35.9441 30.197 35.8721 29.806 35.9581 29.339C36.0551 28.814 35.9801 28.257 35.9801 27.586C33.4111 29.46 30.8321 29.643 28.1531 27.603C28.1531 28.08 28.1531 28.368 28.1531 28.656C28.1531 29.523 28.1321 30.39 28.1611 31.255C28.1791 31.797 28.0061 32.115 27.4571 32.278C26.8581 32.455 26.2871 32.725 25.6331 32.982C26.2701 33.677 26.9791 34.169 27.7371 34.591C29.3761 35.503 31.1571 35.925 33.0141 36.042C34.9871 36.166 36.9301 35.998 38.8021 35.308C39.6941 34.979 40.5311 34.562 41.1591 33.806C41.3351 33.594 41.3981 33.347 41.4881 33.112C41.7051 32.543 41.8421 32.455 42.3751 32.737C43.8541 33.52 45.2871 34.378 46.6331 35.378C47.3711 35.927 48.0781 36.513 48.7911 37.092C49.0571 37.308 49.0891 37.523 48.9541 37.757C48.8091 38.009 48.5751 38.056 48.2701 37.942C48.0471 37.858 47.9781 37.564 47.7061 37.589L47.7051 37.588ZM23.1691 13.004C23.1591 13.011 23.1421 13.018 23.1421 13.026C23.1421 13.047 23.1481 13.068 23.1521 13.089C23.1671 13.125 23.1831 13.16 23.1981 13.196C23.0741 14.219 23.3061 15.2 23.5981 16.185C23.6381 15.862 23.6771 15.54 23.7171 15.217C23.8861 14.311 24.0761 13.408 24.2151 12.497C24.3091 11.883 24.2211 11.299 23.6351 10.895C23.3291 11.569 23.2831 12.295 23.1691 13.005V13.004Z" fill="#281D1A"/>
<path d="M78.5031 64.916C78.3201 64.911 78.1371 64.9021 77.9551 64.9021C67.2141 64.9021 56.4721 64.9021 45.7311 64.9021C45.3361 64.9021 44.9391 64.9301 44.8611 64.3961C45.1161 62.5691 45.4971 60.764 45.7881 58.944C46.0511 57.303 46.3631 55.67 46.6171 54.026C46.9521 51.861 47.4131 49.7161 47.7951 47.5581C48.0851 45.9201 48.3001 44.2671 48.6141 42.6341C48.8641 41.3341 49.0731 40.0281 49.3121 38.7271C49.3601 38.4641 49.4861 38.2711 49.7931 38.2701C49.9761 38.2701 50.1581 38.25 50.3411 38.25C61.1351 38.248 71.9291 38.248 82.7241 38.248C83.6541 38.248 83.7541 38.356 83.6001 39.275C83.2031 41.638 82.8031 44 82.3941 46.36C82.0021 48.623 81.6041 50.8851 81.1991 53.1461C80.8061 55.3401 80.3821 57.5291 80.0101 59.726C79.7521 61.2511 79.4901 62.775 79.2191 64.297C79.1351 64.767 78.9101 64.9041 78.5031 64.9151V64.916ZM47.5971 63.882C47.7131 63.8881 47.8291 63.899 47.9451 63.899C57.9201 63.899 67.8961 63.899 77.8711 63.899C78.0021 63.899 78.1331 63.899 78.2771 63.899C78.3171 63.726 78.3561 63.5841 78.3811 63.4401C79.4101 57.5641 80.4401 51.688 81.4641 45.811C81.7551 44.143 82.0281 42.4721 82.3101 40.8031C82.4551 40.3161 82.5181 39.816 82.5851 39.3H50.2721C48.8381 47.49 47.4061 55.6721 45.9691 63.882H47.5981H47.5971Z" fill="#261B18"/>
<path d="M39.8479 11.7259C38.9399 11.1569 38.0409 10.5729 37.1219 10.0229C36.0429 9.37791 34.9099 8.83591 33.7709 8.30591C33.4689 8.16491 33.2179 8.22591 33.0199 8.48091C32.8169 8.74091 32.9829 8.96091 33.1489 9.14091C33.6989 9.73791 34.2669 10.3199 34.8269 10.9069C34.7869 10.9389 34.7469 10.9709 34.7069 11.0019C32.4069 10.8949 30.2609 10.2899 28.3169 9.0299C28.0769 8.87491 27.8209 8.82091 27.5789 9.02791C27.3289 9.24291 27.3949 9.48491 27.5159 9.74791C27.8239 10.4179 28.2499 11.0109 28.6909 11.5939C27.9019 11.5579 27.1389 11.3839 26.4309 11.0429C25.2189 10.4579 24.9349 9.2919 24.8289 8.1269C24.6119 5.73791 25.6439 3.92191 27.7899 2.90691C28.9119 2.37691 30.1209 2.2139 31.3859 2.37691C33.8629 2.69491 36.0109 3.74991 38.0229 5.15691C38.9499 5.80491 39.4859 6.73391 39.8949 7.74891C40.1679 8.42591 40.3659 9.12891 40.4709 9.85691C40.5769 10.5879 40.3409 11.1969 39.8479 11.7249V11.7259Z" fill="#89C2EA"/>
<path d="M18.5971 66.2839C22.4971 66.2839 26.3971 66.2839 30.2971 66.2849C30.6131 66.2899 30.9301 66.2849 31.2461 66.3019C31.5711 66.3199 31.7941 66.5079 31.7871 66.8279C31.7811 67.1199 31.5701 67.2909 31.2601 67.2989C31.1771 67.3009 31.0931 67.2989 31.0101 67.2989C21.0611 67.2989 11.1121 67.2989 1.16308 67.2959C0.836078 67.2959 0.410078 67.4019 0.416078 66.8379C0.419078 66.4979 0.537079 66.2889 0.935079 66.2929C2.20108 66.3069 3.46708 66.2979 4.73108 66.2979C4.87108 65.1079 4.81808 63.9179 4.99508 62.7429C5.07408 62.2219 5.03708 61.6909 5.06808 61.1669C5.11408 60.3779 5.19808 59.5899 5.21708 58.7959C5.24608 57.5859 5.42608 56.3799 5.48508 55.1689C5.52008 54.4439 5.57208 53.7199 5.60608 52.9949C5.62208 52.6509 5.59508 52.3129 5.71108 51.9759C5.88708 51.4619 5.63908 50.9659 5.57708 50.4679C5.44008 49.3659 5.20508 48.2769 5.01508 47.1819C4.88808 46.4499 4.70608 45.7289 4.57808 44.9959C4.46608 44.3479 4.44908 43.6969 4.55408 43.0779C4.60708 42.7689 4.41908 42.6439 4.39308 42.4219C4.27708 41.4059 4.16408 40.3889 4.00708 39.3789C3.85308 38.3889 3.66108 37.4049 3.45808 36.4239C3.35208 35.9149 3.62608 35.0859 4.04408 34.8169C4.57308 34.4759 5.30808 34.5219 5.78708 34.9349C6.74708 35.7609 7.23908 36.8219 7.40708 38.0669C7.50808 38.8219 7.67808 39.5679 8.09208 40.2659C8.53508 40.1759 8.95808 39.9949 9.39608 39.8799C9.86508 39.7559 10.3271 39.7349 10.7981 39.6859C11.3541 39.6279 11.6521 39.9719 11.9551 40.3149C12.1211 40.5029 12.1211 40.7599 11.9061 40.9139C11.7211 41.0469 11.4901 41.2369 11.2501 40.9789C10.8941 40.5969 10.4361 40.6279 10.0081 40.7359C8.96408 40.9999 7.97708 41.4349 6.98308 41.8429C6.67808 41.9679 6.37108 42.1039 6.12208 41.7299C5.94408 41.4629 5.96408 41.2549 6.25708 41.0979C6.53508 40.9479 6.81408 40.7989 7.12808 40.6299C6.62708 39.6829 6.52908 38.6159 6.30108 37.5829C6.16208 36.9499 5.79508 36.4329 5.45708 35.9069C5.31208 35.6819 5.01208 35.6239 4.75008 35.7189C4.49008 35.8139 4.44808 36.0519 4.49308 36.3009C4.64008 37.1029 4.80808 37.9009 4.93408 38.7059C5.07508 39.6119 5.17108 40.5259 5.30308 41.4329C5.35808 41.8119 5.31508 42.2179 5.57908 42.5519C5.69208 42.6949 5.62908 42.8789 5.59308 43.0279C5.33008 44.1079 5.62208 45.1409 5.82708 46.1859C6.06808 47.4169 6.28108 48.6539 6.49708 49.8889C6.58108 50.3719 6.60708 50.8669 6.72908 51.3389C6.78108 51.5419 6.70208 51.6829 6.69108 51.8539C6.62208 52.9419 6.57108 54.0309 6.49708 55.1189C6.37108 56.9639 6.23008 58.8069 6.10208 60.6519C6.06808 61.1459 6.06408 61.6399 6.01908 62.1369C5.89508 63.5009 5.85908 64.8729 5.78908 66.2289C5.84308 66.2589 5.87108 66.2889 5.89908 66.2889C10.1311 66.2869 14.3641 66.2839 18.5961 66.2799L18.5971 66.2839Z" fill="#251A17"/>
<path d="M43.764 64.4202C43.763 65.3032 43.762 66.1862 43.76 67.0692C43.76 67.2022 43.763 67.3372 43.745 67.4682C43.7 67.7882 43.533 67.9962 43.184 67.9672C42.827 67.9382 42.718 67.6792 42.715 67.3722C42.706 66.5732 42.712 65.7732 42.712 64.9392H34.295V68.5972H77.978C77.978 67.6482 77.986 66.7192 77.974 65.7892C77.969 65.4032 78.094 65.1432 78.504 65.0822C78.882 65.1542 79.007 65.4062 79.005 65.7642C79 66.8472 78.999 67.9292 79.005 69.0122C79.007 69.3952 78.826 69.5992 78.455 69.6382C78.29 69.6552 78.123 69.6562 77.957 69.6562C63.349 69.6562 48.741 69.6562 34.134 69.6562C33.303 69.6562 33.212 69.5642 33.212 68.7222C33.212 67.3732 33.208 66.0242 33.214 64.6742C33.217 64.0142 33.34 63.8962 34 63.8962C36.998 63.8942 39.996 63.9022 42.994 63.8882C43.408 63.8862 43.65 64.0332 43.763 64.4192L43.764 64.4202Z" fill="#312724"/>
<path d="M39.705 23.3142C39.765 23.1282 39.824 22.9422 39.884 22.7562C41.074 22.7372 41.889 22.2152 42.229 21.0332C42.625 19.6582 41.738 18.2522 40.424 18.1722C40.234 18.1602 40.06 18.1972 39.885 18.2412C39.588 18.3162 39.359 18.2762 39.253 17.9482C39.144 17.6122 39.294 17.3092 39.589 17.2892C40.525 17.2252 40.672 16.4902 40.913 15.8412C42.152 12.4952 41.88 9.26217 40.081 6.18817C39.272 4.80617 38.098 3.79117 36.567 3.24517C34.575 2.53417 32.545 1.95917 30.428 1.79317C28.092 1.61017 26.164 2.39717 24.766 4.33617C24.382 4.86917 24.141 5.46817 23.945 6.08617C23.827 6.45617 23.635 6.67417 23.22 6.54617C22.784 6.41217 22.891 6.10117 22.969 5.78317C23.282 4.51317 23.953 3.44417 24.895 2.57017C26.087 1.46517 27.501 0.837169 29.159 0.795169C32.142 0.719169 34.941 1.49417 37.626 2.68917C39.693 3.60917 40.964 5.31917 41.798 7.37317C42.315 8.64617 42.557 9.96917 42.617 11.3502C42.706 13.3772 42.298 15.2772 41.45 17.1022C41.423 17.1602 41.407 17.2232 41.37 17.3312C42.166 17.7072 42.721 18.3182 43.065 19.1192C43.809 20.8512 42.857 23.2642 40.756 23.6902C40.352 23.7722 39.946 23.7412 39.704 23.3142H39.705Z" fill="#291E1B"/>
<path d="M13.1959 54.2872C14.4629 55.2932 15.4419 56.5422 16.2699 57.9202C16.3229 58.2492 16.4939 58.5322 16.6659 58.8012C16.8829 59.1432 16.9919 59.4482 16.5819 59.6992C16.1039 59.9912 15.9599 59.6162 15.7969 59.2802C15.1609 57.9702 14.3119 56.8112 13.3159 55.7512C13.1309 55.5542 12.8869 55.4682 12.6179 55.2112C12.7819 56.6592 12.9419 58.0092 13.0869 59.3602C13.2019 60.4392 13.2939 61.5212 13.4039 62.6002C13.4409 62.9602 13.5119 63.3142 13.5109 63.6822C13.5109 64.0002 13.4299 64.1892 13.0869 64.2002C12.7489 64.2112 12.5559 64.0132 12.5219 63.7162C12.3739 62.4042 12.2449 61.0882 12.0949 59.7772C11.9729 58.7112 11.8639 57.6412 11.7329 56.5762C11.6379 55.8032 11.5609 55.0172 11.4999 54.2352C11.4429 53.5032 11.3699 52.7692 11.2729 52.0412C11.2369 51.7722 11.2589 51.5662 11.3989 51.3502C11.8389 50.6762 12.0019 49.9292 12.0059 49.1302C12.0109 48.2372 11.9799 47.3482 11.9099 46.4582C11.8909 46.2152 11.8139 45.8972 12.2569 45.8942C12.6399 45.8912 12.8409 46.0732 12.8989 46.4302C12.9239 46.5852 12.9159 46.7442 12.9259 46.9562C13.2449 46.5122 13.1159 45.6322 12.7139 45.1652C12.2479 44.6232 11.9219 44.5582 11.2619 44.9062C11.0429 45.0222 10.8829 45.0452 10.6979 44.8392C10.5229 44.6442 10.4749 44.4872 10.5869 44.2282C10.7929 43.7502 11.4909 43.5642 11.8819 43.6292C13.2919 43.8632 13.7499 44.5572 14.0959 45.7702C14.2489 46.3062 14.2059 46.8312 13.9259 47.3342C13.7269 47.6922 13.4719 47.9272 13.0079 47.9002C13.1239 48.7152 13.0409 49.5102 12.8979 50.2982C12.8109 50.7792 12.6899 51.2542 12.4089 51.6712C12.3259 51.7952 12.2969 51.9362 12.2979 52.0922C12.3019 52.5722 12.4179 53.0392 12.4209 53.5232C12.4239 53.9892 12.9399 54.0272 13.1969 54.2882L13.1959 54.2872Z" fill="#261C19"/>
<path d="M31.891 24.914C30.956 24.916 30.142 24.569 29.383 24.069C29.156 23.919 28.947 23.709 29.123 23.407C29.3 23.103 29.578 23.035 29.891 23.216C30.348 23.48 30.788 23.76 31.329 23.856C32.357 24.037 33.259 23.785 34.077 23.163C34.196 23.073 34.31 22.976 34.433 22.892C34.698 22.71 34.943 22.768 35.141 22.994C35.362 23.246 35.275 23.481 35.047 23.683C34.145 24.481 33.102 24.913 31.891 24.915V24.914Z" fill="#2C211F"/>
<path d="M9.09893 42.8368C9.08093 42.5598 9.16793 42.3968 9.46793 42.2988C10.1159 42.0858 10.7479 41.8208 11.3819 41.5678C11.6999 41.4408 11.9819 41.4818 12.2429 41.6968C12.5969 41.9888 12.9499 42.2818 13.3049 42.5718C13.5159 42.7448 13.6089 42.9408 13.4509 43.2008C13.2929 43.4608 13.0839 43.5458 12.7899 43.4338C12.4259 43.2948 12.2519 42.9238 11.9129 42.7448C11.7449 42.6558 11.6499 42.5688 11.4359 42.6638C10.9319 42.8868 10.4039 43.0548 9.88593 43.2488C9.36193 43.4448 9.10593 43.3118 9.09793 42.8368H9.09893Z" fill="#261B18"/>
<path d="M36.188 13.6838C36.657 13.6458 37.094 13.7908 37.517 13.9878C37.791 14.1158 37.924 14.3378 37.804 14.6308C37.681 14.9318 37.439 15.0698 37.125 14.9248C36.484 14.6278 35.859 14.6138 35.22 14.9358C34.946 15.0738 34.71 14.9908 34.555 14.7098C34.389 14.4088 34.516 14.1888 34.766 14.0408C35.199 13.7848 35.671 13.6508 36.189 13.6838H36.188Z" fill="#2B211E"/>
<path d="M29.6001 14.4859C29.6001 14.8429 29.2541 15.1079 28.9061 14.9459C28.2251 14.6279 27.5751 14.6219 26.8991 14.9449C26.6181 15.0789 26.4051 14.8959 26.3001 14.6589C26.1901 14.4119 26.2421 14.1539 26.5111 14.0189C27.4121 13.5659 28.3241 13.5399 29.2351 13.9939C29.4751 14.1139 29.6011 14.3039 29.6021 14.4859H29.6001Z" fill="#2C221F"/>
<path d="M39.856 12.995L39.86 12.98C39.923 13.323 40.178 13.221 40.366 13.166C40.567 13.107 40.75 12.982 41.003 12.854C40.998 13.743 40.892 14.583 40.687 15.411C40.612 15.713 40.381 15.827 40.08 15.812C39.838 14.897 39.686 13.966 39.573 13.027C39.667 13.016 39.762 13.005 39.856 12.994V12.995Z" fill="#8CC2E8"/>
<path d="M32.0171 20.9288C31.5711 20.9158 31.2591 20.8248 31.0261 20.5568C30.8571 20.3628 30.8081 20.1438 30.9751 19.9238C31.1461 19.6998 31.3751 19.6048 31.6261 19.7698C31.8481 19.9158 32.0141 19.9138 32.2561 19.7808C32.5231 19.6338 32.7871 19.7938 32.9271 20.0438C33.0591 20.2798 32.9471 20.5028 32.7441 20.6528C32.5021 20.8318 32.2361 20.9708 32.0181 20.9288H32.0171Z" fill="#302523"/>
<path d="M28.6871 17.1152C28.6871 17.2972 28.7091 17.4832 28.6821 17.6612C28.6401 17.9372 28.4761 18.1152 28.1761 18.0972C27.8911 18.0802 27.7091 17.9312 27.6971 17.6322C27.6841 17.3012 27.6771 16.9692 27.6881 16.6382C27.6971 16.3522 27.8481 16.1682 28.1501 16.1622C28.4551 16.1572 28.6601 16.2982 28.6921 16.6182C28.7091 16.7822 28.6951 16.9492 28.6951 17.1152C28.6921 17.1152 28.6891 17.1152 28.6861 17.1152H28.6871Z" fill="#2A1F1C"/>
<path d="M36.3879 17.1079C36.3879 17.2899 36.4089 17.4759 36.3829 17.6539C36.3429 17.9299 36.1839 18.1109 35.8829 18.0969C35.5979 18.0839 35.4119 17.9379 35.3979 17.6389C35.3829 17.3249 35.3789 17.0089 35.3839 16.6939C35.3889 16.3679 35.5289 16.1539 35.8919 16.1639C36.2439 16.1739 36.3889 16.3819 36.3999 16.7089C36.4049 16.8419 36.3999 16.9739 36.3999 17.1069C36.3959 17.1069 36.3909 17.1069 36.3869 17.1069L36.3879 17.1079Z" fill="#2A1F1C"/>
<path d="M24.2019 23.406V22.999C24.4479 23.081 24.3869 23.226 24.3029 23.377C24.2689 23.387 24.2349 23.397 24.2019 23.407V23.406Z" fill="#291F1C"/>
<path d="M40.0891 67.0149C39.8401 67.0149 39.5901 67.0239 39.3421 67.0129C39.0461 66.9989 38.8991 66.8289 38.8731 66.5359C38.8471 66.2469 39.0251 66.0649 39.2541 66.0379C39.8291 65.9709 40.4121 65.9509 40.9881 66.0489C41.2711 66.0969 41.3421 66.3209 41.3331 66.5729C41.3241 66.8249 41.1811 66.9819 40.9341 66.9989C40.6531 67.0189 40.3701 67.0039 40.0881 67.0039C40.0881 67.0079 40.0881 67.0119 40.0881 67.0159L40.0891 67.0149Z" fill="#271C19"/>
<path d="M37.4771 66.5681C37.4731 66.1551 37.5061 65.7851 37.9901 65.7891C38.4301 65.7931 38.4961 66.1221 38.4901 66.4871C38.4801 67.0421 38.3221 67.2891 37.9481 67.2521C37.5021 67.2091 37.4611 66.8791 37.4781 66.5681H37.4771Z" fill="#2D2320"/>
<path d="M23.1981 13.196C23.1831 13.16 23.1671 13.125 23.1521 13.089C23.1691 13.063 23.1751 13.035 23.1691 13.004C23.2831 12.294 23.3291 11.568 23.6351 10.894C24.2211 11.298 24.3091 11.883 24.2151 12.496C24.0751 13.407 23.8851 14.31 23.7171 15.216C23.6091 15.03 23.5581 14.821 23.4801 14.625C23.2951 14.162 23.3951 13.65 23.1991 13.195L23.1981 13.196Z" fill="#85BCE2"/>
<path d="M23.198 13.1958C23.394 13.6508 23.294 14.1628 23.479 14.6258C23.558 14.8218 23.608 15.0308 23.716 15.2168C23.676 15.5398 23.637 15.8618 23.597 16.1848C23.306 15.1998 23.074 14.2188 23.197 13.1958H23.198Z" fill="#DBDEE1"/>
<path d="M34.707 11.0022C34.747 10.9702 34.787 10.9382 34.827 10.9072C34.878 11.0542 34.752 10.9772 34.707 11.0022Z" fill="#291F1C"/>
<path d="M23.1689 13.0039C23.1749 13.0349 23.1689 13.0629 23.1519 13.0889C23.1479 13.0679 23.1409 13.0469 23.1419 13.0259C23.1419 13.0189 23.1599 13.0109 23.1689 13.0039Z" fill="#291F1C"/>
<path d="M82.3099 40.8032C82.0289 42.4732 81.7549 44.1432 81.4639 45.8112C80.4399 51.6882 79.4099 57.5642 78.3809 63.4402C78.3559 63.5842 78.3159 63.7262 78.2769 63.8992C78.1329 63.8992 78.0019 63.8992 77.8709 63.8992C67.8959 63.8992 57.9199 63.8992 47.9449 63.8992C47.8289 63.8992 47.7129 63.8882 47.5969 63.8822C47.8979 62.1032 48.1949 60.3242 48.4999 58.5472C48.8579 56.4592 49.2279 54.3732 49.5819 52.2852C49.9299 50.2292 50.2609 48.1702 50.6049 46.1132C50.8749 44.4972 51.1569 42.8832 51.4239 41.2662C51.4819 40.9152 51.6299 40.7822 52.0119 40.7872C53.8119 40.8102 55.6119 40.7972 57.4119 40.7972C65.7119 40.7992 74.0119 40.8022 82.3109 40.8042L82.3099 40.8032Z" fill="#DBDCDC"/>
</svg>
