<svg width="88" height="81" viewBox="0 0 88 81" fill="none" xmlns="http://www.w3.org/2000/svg">
<path d="M48.336 77.8001H47.723C40.478 77.8001 33.234 77.7961 25.989 77.8111C25.548 77.8111 25.3 77.6651 25.059 77.3131C23.342 74.8061 21.605 72.3111 19.872 69.8151C19.393 69.1251 19.405 68.4551 19.925 67.7471C20.32 67.2091 21.016 66.9961 21.752 67.2751C23.459 67.9221 25.152 68.6051 26.851 69.2731C30.697 70.7851 34.544 72.2941 38.389 73.8091C41.616 75.0801 44.841 76.3571 48.066 77.6331C48.12 77.6551 48.167 77.6951 48.335 77.8001H48.336Z" fill="#D0D2D3"/>
<path d="M79.1579 64.1508C78.8539 60.7608 78.4669 57.3818 77.5769 54.0878C77.1959 52.6768 76.6749 51.3028 76.1829 49.8088C75.4949 50.3888 74.9129 50.8688 74.3419 51.3638C71.1509 54.1258 67.9489 56.8768 64.7769 59.6618C62.7909 61.4058 60.8539 63.2038 58.8939 64.9778C58.7829 65.0778 58.6689 65.1748 58.5559 65.2718C58.2919 65.4988 58.0269 65.4778 57.8119 65.2248C57.5879 64.9608 57.6629 64.7088 57.9119 64.4858C58.3209 64.1198 58.7149 63.7378 59.1269 63.3758C62.8599 60.0968 66.5909 56.8158 70.3319 53.5448C72.0949 52.0038 73.8759 50.4848 75.6779 48.9308C74.5579 46.8078 73.3769 44.7678 71.1339 43.6468C69.2589 42.7098 67.3349 43.0888 65.9329 44.6478C65.1459 45.5228 64.4119 46.4488 63.5939 47.2938C62.5459 48.3768 60.7229 48.7108 59.5589 48.0338C59.1779 47.8118 58.8669 47.4218 58.6159 47.0468C58.5279 46.9148 58.6489 46.5298 58.7969 46.3928C58.8929 46.3048 59.2969 46.3808 59.4169 46.5138C60.3669 47.5718 61.3469 47.7528 62.5319 46.8258C63.3169 46.2118 63.9619 45.4038 64.6039 44.6268C65.4889 43.5558 66.4429 42.6078 67.8569 42.3018C69.6979 41.9038 71.3339 42.3948 72.8089 43.5078C74.3149 44.6438 75.3549 46.1568 76.2449 47.7878C76.3159 47.9178 76.3829 48.0498 76.4789 48.2328C77.2119 47.5978 77.9319 46.9918 78.6329 46.3638C81.1589 44.1028 83.6769 41.8308 86.2089 39.5758C86.3579 39.4428 86.6329 39.3328 86.8119 39.3748C87.2379 39.4748 87.2949 39.9288 86.9299 40.2668C85.9789 41.1478 85.0209 42.0218 84.0509 42.8828C81.6899 44.9788 79.3209 47.0658 76.9559 49.1558C77.3639 50.2638 77.8149 51.3638 78.1749 52.4928C78.9259 54.8498 79.3849 57.2748 79.6919 59.7258C79.9129 61.4888 80.0919 63.2568 80.2649 65.0248C80.2849 65.2268 80.2049 65.5308 80.0609 65.6318C79.9169 65.7328 79.6069 65.7028 79.4209 65.6188C78.9129 65.3898 78.4309 65.1018 77.8859 64.8078C77.8339 66.6448 76.6549 67.6858 75.4109 68.6518C72.1449 71.1888 68.5329 73.0928 64.6079 74.3828C62.2509 75.1578 59.8289 75.6198 57.3319 75.6118C56.9569 75.6108 56.6379 75.5578 56.6399 75.1088C56.6419 74.6658 56.9609 74.5988 57.3349 74.5968C61.0179 74.5798 64.4609 73.5598 67.7829 72.0588C70.2759 70.9328 72.6019 69.5198 74.8029 67.9018C75.2679 67.5598 75.7019 67.1608 76.0969 66.7378C76.7009 66.0898 77.0129 65.3268 76.7759 64.3828C74.7919 63.6128 72.7049 63.2928 70.5599 63.3038C70.2779 63.3048 69.9959 63.3328 69.7139 63.3488C69.3829 63.3678 69.0909 63.2968 69.0589 62.9078C69.0259 62.5058 69.3079 62.3288 69.6509 62.3248C70.5659 62.3128 71.4849 62.2898 72.3959 62.3598C74.6749 62.5348 76.8319 63.1818 78.8899 64.1708C78.9479 64.1988 79.0169 64.2058 79.0799 64.2228C79.1029 64.2438 79.1259 64.2648 79.1479 64.2848C79.1519 64.2408 79.1549 64.1958 79.1589 64.1518L79.1579 64.1508Z" fill="#262223"/>
<path d="M60.731 30.7129C60.488 30.4029 60.279 30.0549 59.993 29.7919C59.652 29.4779 59.209 29.3719 58.806 29.6789C57.205 30.8989 55.397 30.6679 53.591 30.4509C53.099 30.3919 52.611 30.2939 52.121 30.2149C51.665 29.9249 51.196 29.6519 50.755 29.3399C50.184 28.9349 49.835 29.0109 49.677 29.7019C49.495 30.4989 49.413 31.3189 49.292 32.1039C48.83 31.4209 48.716 30.5909 48.775 29.7229C48.797 29.3939 48.783 29.0869 48.38 29.0549C47.973 29.0219 47.751 29.2839 47.752 29.6669C47.754 30.1789 47.763 30.6999 47.859 31.2009C48.093 32.4259 48.799 33.3749 49.732 34.1699C49.561 34.3719 49.387 34.5719 49.221 34.7779C48.866 35.2169 48.474 35.2119 48.128 34.7559C47.323 33.6929 46.9 32.4809 46.808 31.1619C46.666 29.1349 47.162 27.2979 48.601 25.8049C49.935 24.4199 51.561 23.5889 53.493 23.3909C55.324 23.2039 57.094 23.4899 58.554 24.6009C60.353 25.9709 61.679 27.7549 62.283 29.9939C62.304 30.0709 62.286 30.1579 62.286 30.2399C61.768 30.3979 61.25 30.5549 60.732 30.7129H60.731Z" fill="#89C2EA"/>
<path d="M10.2189 28.2172C10.5029 28.4872 10.6719 28.6962 10.8869 28.8352C11.0079 28.9142 11.2139 28.9182 11.3639 28.8832C11.5699 28.8362 11.7589 28.7172 11.9569 28.6332C12.2809 28.4962 12.5339 28.6392 12.6699 28.9072C12.8129 29.1902 12.6809 29.4202 12.3769 29.5372C12.3169 29.5602 12.2669 29.6092 12.0539 29.7522C13.4419 30.1512 14.6899 30.6742 15.9809 30.8232C16.8119 30.9192 17.7129 30.4932 18.5699 30.2532C19.0279 30.1252 19.4569 29.8962 19.9759 29.6812C19.8109 29.5912 19.6869 29.5642 19.6359 29.4872C19.5349 29.3372 19.3769 29.1272 19.4199 29.0012C19.4749 28.8362 19.6849 28.6902 19.8609 28.6132C19.9689 28.5662 20.1499 28.6392 20.2809 28.6972C21.0859 29.0492 21.2029 29.0192 21.7989 28.2182C21.4679 28.2182 21.1769 28.2142 20.8869 28.2192C20.5959 28.2242 20.4019 28.1222 20.3849 27.8012C20.3669 27.4602 20.5309 27.2432 20.8619 27.2252C21.3099 27.2012 21.7619 27.2552 22.2089 27.2212C22.3789 27.2082 22.6129 27.0862 22.6889 26.9442C23.1819 26.0272 23.2299 25.0222 23.0699 24.0302C22.8059 22.3902 23.0009 20.7862 23.2729 19.1752C23.5049 17.7982 23.7719 16.4212 23.5169 15.0152C23.4879 14.8542 23.4359 14.6982 23.3749 14.4632C23.0459 14.6352 22.7319 14.7522 22.4739 14.9432C21.3529 15.7722 20.2479 16.6232 19.1379 17.4672C19.0589 17.5272 18.9839 17.6522 18.9099 17.6502C18.6839 17.6442 18.4049 17.6612 18.2459 17.5392C18.0269 17.3702 18.0499 17.1002 18.2979 16.9022C19.2309 16.1542 20.1499 15.3892 21.0989 14.6622C21.5589 14.3102 22.0529 13.9922 22.5669 13.7252C23.5859 13.1972 24.3199 13.4972 24.4879 14.6392C24.6339 15.6282 24.6059 16.6592 24.5219 17.6612C24.3999 19.1162 24.1059 20.5572 23.9879 22.0122C23.9219 22.8322 24.0339 23.6712 24.1169 24.4962C24.2169 25.4972 24.0939 26.4522 23.6529 27.3782C24.3469 27.6292 25.0269 27.8782 25.7079 28.1202C26.0079 28.2272 26.3019 28.3442 26.1419 28.7482C25.9849 29.1442 25.6849 29.1602 25.3179 29.0342C24.6759 28.8122 24.0269 28.6082 23.3729 28.4242C23.2489 28.3892 23.0459 28.4422 22.9519 28.5322C22.6159 28.8522 22.3119 29.2052 21.9689 29.5752C22.3759 29.9052 22.7899 30.2482 23.2129 30.5802C23.4929 30.8002 23.6739 31.0482 23.3979 31.3722C23.1299 31.6872 22.8289 31.5592 22.5609 31.3542C22.0729 30.9812 21.5949 30.5962 21.1889 30.2762C19.9739 30.7202 18.8339 31.1032 17.7189 31.5522C16.3199 32.1152 14.9799 31.8742 13.6519 31.3472C12.8819 31.0412 12.1339 30.6782 11.3639 30.3742C11.1989 30.3092 10.9339 30.3242 10.7879 30.4162C10.3699 30.6812 9.98393 30.9972 9.59693 31.3082C9.29293 31.5522 8.95693 31.6942 8.68193 31.3532C8.40993 31.0172 8.64593 30.7482 8.93993 30.5252C9.34793 30.2162 9.74093 29.8872 10.1379 29.5692C9.80893 29.2082 9.51493 28.8432 9.17193 28.5322C9.05793 28.4282 8.80393 28.3982 8.64293 28.4422C8.00593 28.6132 7.37193 28.8052 6.75293 29.0332C6.38493 29.1682 6.11493 29.0912 5.96693 28.7622C5.79493 28.3822 6.09493 28.2152 6.38493 28.1092C7.06493 27.8592 7.75293 27.6302 8.48193 27.3782C7.67793 25.9102 8.08393 24.3482 8.08293 22.8032C8.08293 21.4852 7.85893 20.1672 7.75193 18.8482C7.65093 17.5952 7.56993 16.3402 7.48793 15.0852C7.47993 14.9562 7.52093 14.8222 7.54993 14.6932C7.81993 13.4922 8.51393 13.1642 9.58993 13.7802C11.0869 14.6382 12.4809 15.6432 13.7399 16.8302C13.9759 17.0522 14.1229 17.2612 13.8549 17.5432C13.5869 17.8252 13.3299 17.7882 13.0339 17.5432C12.2319 16.8812 11.4269 16.2182 10.5879 15.6032C10.0089 15.1782 9.37293 14.8312 8.70593 14.4152C8.41893 15.5002 8.41993 16.5052 8.54293 17.5092C8.71893 18.9392 9.00393 20.3602 9.10593 21.7942C9.17693 22.7952 9.01393 23.8122 8.96493 24.8222C8.92793 25.5792 9.01493 26.3202 9.40793 26.9842C9.48093 27.1072 9.69193 27.2032 9.84593 27.2122C10.2939 27.2402 10.7449 27.2082 11.1939 27.2192C11.5259 27.2272 11.7139 27.4042 11.7169 27.7522C11.7199 28.1342 11.4909 28.2292 11.1609 28.2182C10.8969 28.2092 10.6319 28.2162 10.2179 28.2162L10.2189 28.2172Z" fill="#252122"/>
<path d="M14.028 64.0331C14.841 65.2271 15.599 66.3541 16.37 67.4711C18.476 70.5221 20.589 73.5691 22.698 76.6171C23.057 77.1361 23.409 77.6611 23.774 78.1761C23.967 78.4481 23.991 78.7251 23.719 78.9221C23.431 79.1311 23.146 79.0341 22.946 78.7441C22.284 77.7871 21.626 76.8271 20.966 75.8691C18.294 71.9961 15.622 68.1231 12.951 64.2491C12.875 64.1391 12.798 64.0311 12.728 63.9181C12.417 63.4211 12.612 63.0361 13.196 63.0001C13.345 62.9911 13.496 62.9981 13.646 62.9981C22.793 62.9981 31.94 62.9921 41.087 63.0031C42.881 63.0051 42.774 62.6581 43.829 64.4831C44.942 66.4071 46.195 68.2511 47.388 70.1291C48.839 72.4141 50.296 74.6961 51.738 76.9871C51.892 77.2321 52.065 77.3061 52.342 77.3031C53.558 77.2901 54.775 77.3051 55.991 77.2931C56.372 77.2891 56.682 77.3691 56.685 77.8061C56.689 78.2641 56.345 78.3021 55.984 78.3001C54.601 78.2951 53.218 78.2891 51.835 78.3051C51.512 78.3091 51.321 78.1961 51.151 77.9281C48.286 73.4111 45.413 68.9011 42.546 64.3861C42.394 64.1471 42.246 64.0061 41.923 64.0071C32.726 64.0181 23.529 64.0161 14.332 64.0161C14.267 64.0161 14.203 64.0231 14.029 64.0321L14.028 64.0331Z" fill="#242021"/>
<path d="M76.2999 8.18211C79.0989 8.18211 81.8989 8.20511 84.6979 8.17111C85.9199 8.15611 86.8629 8.94511 86.8329 10.1821C86.7819 12.2951 86.8179 14.4111 86.8179 16.5251C86.8179 18.1081 86.8179 19.6911 86.8179 21.2741C86.8179 22.9761 86.2069 23.5961 84.4979 23.5981C79.4319 23.6031 74.3669 23.6001 69.3009 23.6001C68.8679 23.6001 68.4339 23.6061 68.0009 23.5991C66.3989 23.5721 65.7259 22.9041 65.7209 21.3161C65.7089 18.0351 65.7049 14.7551 65.7019 11.4741C65.7019 11.0251 65.7229 10.5761 65.7489 10.1281C65.8199 8.91111 66.4709 8.22911 67.7029 8.20811C69.9019 8.17011 72.1019 8.18811 74.3009 8.18311C74.9679 8.18211 75.6339 8.18311 76.3009 8.18311L76.2999 8.18211ZM83.6209 9.22011C83.4219 9.21411 83.2219 9.20211 83.0229 9.20211C78.6439 9.20111 74.2649 9.20111 69.8849 9.20211C69.4199 9.20211 68.9549 9.21011 68.4909 9.21411C68.4079 9.21011 68.3249 9.20611 68.2419 9.20011C66.9379 9.10811 66.7379 9.48711 66.7449 10.6751C66.7629 13.7721 66.7489 16.8691 66.7519 19.9661C66.7519 20.5311 66.7519 21.0981 66.7879 21.6611C66.8299 22.3081 67.0729 22.5401 67.7279 22.5781C68.2429 22.6081 68.7589 22.6151 69.2749 22.6141C74.3859 22.6061 79.4969 22.5931 84.6079 22.5821C84.6909 22.5821 84.7749 22.5871 84.8579 22.5801C85.5279 22.5231 85.7789 22.2821 85.8099 21.6121C85.8329 21.1151 85.8169 20.6171 85.8159 20.1191C85.8109 17.2891 85.8039 14.4581 85.7999 11.6281C85.7999 11.1291 85.8289 10.6291 85.8039 10.1311C85.7709 9.49111 85.4509 9.20311 84.8189 9.20011C84.4199 9.19811 84.0209 9.21211 83.6219 9.21811L83.6209 9.22011Z" fill="#262223"/>
<path d="M36.15 48.6128C35.548 47.6188 34.999 46.6708 34.407 45.7498C34.069 45.2238 33.941 44.6908 33.966 44.0618C34.016 42.7968 33.98 41.5298 33.982 40.2628C33.983 39.5818 34.082 39.4848 34.765 39.4828C35.182 39.4818 35.598 39.4908 36.015 39.4818C36.343 39.4748 36.53 39.6328 36.539 39.9468C36.549 40.2828 36.343 40.4668 36.014 40.4818C35.686 40.4968 35.356 40.4848 34.996 40.4848C34.996 41.8898 34.969 43.2528 35.017 44.6118C35.027 44.9078 35.29 45.2028 35.458 45.4848C36.665 47.5108 37.824 49.5678 39.104 51.5458C40.075 53.0468 39.636 54.6588 37.388 54.7748C36.461 54.8228 35.527 54.7218 34.595 54.7218C32.731 54.7208 30.868 54.7468 29.004 54.7478C28.64 54.7478 28.268 54.7238 27.914 54.6458C26.496 54.3328 25.963 53.1298 26.703 51.8768C27.981 49.7158 29.276 47.5638 30.588 45.4228C30.876 44.9528 31.033 44.4878 31.022 43.9348C30.999 42.8048 31.015 41.6738 31.015 40.4838C30.677 40.4838 30.367 40.4848 30.056 40.4838C29.715 40.4818 29.454 40.3598 29.454 39.9758C29.454 39.5968 29.688 39.4668 30.049 39.4788C30.498 39.4938 30.949 39.4838 31.399 39.4818C31.798 39.4818 32.022 39.6468 32.02 40.0778C32.013 41.5608 32.02 43.0438 32.015 44.5268C32.012 45.2488 31.595 45.8008 31.233 46.3758C30.779 47.0948 30.333 47.8198 29.834 48.6208C31.059 48.3498 32.106 48.7168 33.17 48.9648C34.012 49.1608 34.862 49.3718 35.69 48.9018C35.832 48.8208 35.967 48.7288 36.151 48.6128H36.15ZM29.792 49.6978L29.796 49.6908C29.582 49.8088 29.293 49.8748 29.166 50.0548C28.564 50.9138 27.98 51.7878 27.445 52.6888C27.232 53.0488 27.497 53.4978 27.93 53.6228C28.165 53.6908 28.421 53.7118 28.668 53.7128C31.499 53.7188 34.33 53.7208 37.161 53.7108C37.471 53.7098 37.797 53.6788 38.088 53.5808C38.573 53.4178 38.735 52.9158 38.481 52.4918C37.883 51.4968 37.282 50.5038 36.67 49.4908C36.573 49.5638 36.484 49.6308 36.395 49.6978C35.593 50.1258 34.741 50.2848 33.846 50.1158C33.194 49.9928 32.555 49.7818 31.9 49.6968C31.27 49.6148 30.626 49.6438 29.988 49.6248C29.922 49.6488 29.857 49.6738 29.791 49.6978H29.792Z" fill="#272324"/>
<path d="M45.0771 10.0978C45.1811 9.31183 45.3121 8.52883 45.3831 7.74083C45.5851 5.48083 45.7621 3.21883 45.9511 0.956829C45.9611 0.841829 45.9431 0.687829 46.0081 0.620829C46.1511 0.473829 46.3601 0.252829 46.5041 0.277829C46.6841 0.308829 46.8921 0.531828 46.9661 0.719828C47.0441 0.918828 46.9791 1.17383 46.9761 1.40483C46.9151 3.22183 48.2591 5.04383 49.9671 5.52983C51.5651 5.98483 53.5421 5.21783 53.9391 4.45483C53.2841 4.33883 52.6011 4.27283 51.9531 4.08683C51.2921 3.89683 50.6661 3.58383 50.0231 3.33183C49.9421 3.29983 49.8461 3.30683 49.7581 3.29583C49.6081 3.22183 49.4591 3.14783 49.3091 3.07383L49.3171 3.05383C49.2201 2.94783 49.1351 2.82883 49.0251 2.73983C48.7541 2.52183 48.4721 2.31883 48.1951 2.10883C47.9361 1.91183 47.8111 1.65483 48.0411 1.38683C48.2831 1.10483 48.5681 1.13983 48.8761 1.36283C49.4361 1.76783 49.9981 2.18483 50.6051 2.51083C51.9721 3.24483 53.4501 3.47383 54.9941 3.35983C55.2021 3.34483 55.5421 3.44583 55.6061 3.58983C55.6881 3.77283 55.6261 4.10583 55.4991 4.28483C54.2951 5.99283 52.6321 6.80483 50.5461 6.64283C49.1131 6.53183 47.9761 5.82283 47.0901 4.70183C46.9881 4.57283 46.8971 4.43383 46.7361 4.20683C46.6521 5.19983 46.5941 6.09783 46.4961 6.99283C46.3741 8.09983 46.2961 9.21883 46.0601 10.3028C45.7691 11.6388 44.9521 12.3178 43.6001 12.3528C41.9151 12.3968 40.4931 11.7308 39.4111 10.4248C38.7491 9.62583 38.6491 8.73783 39.2111 7.84083C39.7491 6.98183 40.5941 6.72883 41.5461 6.82883C42.7401 6.95483 43.6031 7.70983 44.4271 8.48683C44.7331 8.77583 44.5261 9.24283 44.0991 9.30183C43.8861 9.33083 43.6651 9.32983 43.4511 9.30583C43.1781 9.27583 43.0101 9.13983 42.9841 8.82583C42.9401 8.30683 41.7591 7.71683 41.0301 7.82683C40.2281 7.94883 39.8231 8.49183 39.9711 9.24983C40.2251 9.64383 40.4131 10.1088 40.7461 10.4168C41.4681 11.0868 42.3901 11.3428 43.3621 11.3558C44.3301 11.3698 44.7711 11.0218 45.0771 10.0958V10.0978Z" fill="#252122"/>
<path d="M42.0389 79.1819C46.0189 79.1819 49.9989 79.1769 53.9799 79.1849C55.1279 79.1869 56.2779 79.2009 57.4249 79.2609C57.8309 79.2819 58.0609 79.1269 58.2119 78.8079C58.3959 78.4189 58.5259 78.0039 58.7219 77.6219C58.8229 77.4269 58.9899 77.2129 59.1799 77.1349C59.3299 77.0739 59.6129 77.1529 59.7359 77.2729C59.8349 77.3689 59.8499 77.6499 59.7859 77.7969C59.5529 78.3219 59.2399 78.8119 59.0149 79.3399C58.6899 80.0999 58.1089 80.3279 57.3389 80.3029C55.8089 80.2519 54.2779 80.1839 52.7479 80.1919C48.0179 80.2169 43.2889 80.2799 38.5599 80.3159C35.4469 80.3399 32.3329 80.3469 29.2199 80.3489C28.3379 80.3489 27.4559 80.3019 26.5739 80.2869C26.2079 80.2809 25.9279 80.1429 25.9319 79.7579C25.9349 79.3489 26.2459 79.2749 26.6029 79.2789C29.3339 79.3069 32.0649 79.3329 34.7969 79.3449C37.2119 79.3559 39.6259 79.3469 42.0409 79.3469C42.0409 79.2919 42.0409 79.2369 42.0409 79.1819H42.0389Z" fill="#262223"/>
<path d="M53.199 64.3831C52.336 65.0151 51.541 65.6341 50.709 66.1981C50.009 66.6721 49.268 67.0861 48.543 67.5221C48.225 67.7131 47.914 67.7601 47.694 67.3801C47.467 66.9881 47.734 66.7911 48.028 66.6361C49.845 65.6781 51.498 64.4861 53.024 63.1181C53.151 63.0041 53.189 62.7561 53.209 62.5631C53.474 60.0881 53.597 57.5881 54.024 55.1421C54.415 52.9021 55.13 50.7181 55.708 48.5111C55.794 48.1841 55.953 47.9041 56.361 47.9941C56.719 48.0731 56.825 48.2981 56.717 48.6651C56.33 49.9811 55.935 51.2961 55.592 52.6241C54.842 55.5261 54.396 58.4791 54.295 61.4731C54.237 63.2001 54.293 64.9311 54.298 66.6601C54.298 66.7601 54.296 66.8601 54.301 66.9601C54.315 67.2741 54.188 67.4881 53.859 67.4961C53.535 67.5041 53.317 67.3461 53.3 66.9961C53.264 66.2481 53.232 65.5011 53.2 64.7531C53.195 64.6441 53.2 64.5351 53.2 64.3851L53.199 64.3831Z" fill="#262223"/>
<path d="M1.33112 39.271C1.50012 39.4 1.67812 39.492 1.79912 39.634C4.76812 43.107 7.72612 46.591 10.6981 50.062C13.0431 52.801 15.4061 55.525 17.7561 58.261C17.8921 58.419 18.0461 58.619 18.0591 58.808C18.0701 58.962 17.9071 59.238 17.7781 59.267C17.5931 59.308 17.3001 59.239 17.1731 59.104C16.3551 58.231 15.5511 57.343 14.7761 56.432C12.6651 53.952 10.5691 51.459 8.46912 48.969C6.74412 46.924 5.03012 44.871 3.29512 42.834C2.58412 41.999 1.83212 41.198 1.09912 40.382C0.865124 40.121 0.659123 39.852 0.976123 39.519C1.06212 39.429 1.18212 39.372 1.32912 39.271H1.33112Z" fill="#252122"/>
<path d="M50.011 70.257C51.349 70.396 52.368 70.87 53.166 71.756C53.379 71.992 53.549 72.003 53.807 71.898C58.582 69.944 63.13 67.562 67.412 64.678C67.509 64.613 67.606 64.55 67.702 64.484C67.977 64.297 68.264 64.211 68.48 64.54C68.696 64.869 68.551 65.146 68.255 65.344C67.565 65.804 66.887 66.287 66.169 66.699C64.012 67.938 61.869 69.206 59.662 70.348C57.973 71.222 56.191 71.917 54.459 72.711C54.244 72.809 54.044 73.002 53.91 73.201C53.632 73.614 53.225 73.61 52.941 73.13C52.409 72.228 51.655 71.628 50.636 71.372C50.413 71.316 50.137 71.338 49.976 71.21C49.802 71.072 49.658 70.803 49.649 70.586C49.644 70.461 49.933 70.324 50.011 70.258V70.257Z" fill="#272324"/>
<path d="M63.724 28.7638C63.59 28.8858 63.436 29.1368 63.273 29.1438C63.085 29.1518 62.799 28.9878 62.713 28.8178C62.454 28.3048 62.308 27.7338 62.052 27.2188C60.731 24.5648 58.591 22.9448 55.666 22.5478C53.101 22.1988 50.813 22.9978 48.873 24.7318C48.675 24.9088 48.492 25.1038 48.301 25.2888C48.084 25.4978 47.84 25.5828 47.603 25.3428C47.36 25.0968 47.314 24.7958 47.589 24.5538C48.212 24.0068 48.807 23.4058 49.503 22.9698C51.751 21.5608 54.201 21.0788 56.799 21.7178C59.129 22.2908 60.985 23.6158 62.287 25.6238C62.829 26.4608 63.169 27.4278 63.597 28.3388C63.645 28.4418 63.664 28.5578 63.725 28.7648L63.724 28.7638Z" fill="#262223"/>
<path d="M49.731 34.1701C48.798 33.3751 48.092 32.4261 47.858 31.2011C47.762 30.7011 47.753 30.1791 47.751 29.6671C47.75 29.2831 47.972 29.0221 48.379 29.0551C48.783 29.0871 48.796 29.3941 48.774 29.7231C48.715 30.5901 48.829 31.4211 49.291 32.1041C49.412 31.3191 49.494 30.4991 49.676 29.7021C49.834 29.0111 50.183 28.9351 50.754 29.3401C51.195 29.6521 51.664 29.9251 52.12 30.2151C52.979 30.7691 53.95 30.9591 54.944 31.0421C56.135 31.1411 57.286 30.9561 58.381 30.4601C58.501 30.4061 58.645 30.3081 58.749 30.3361C58.978 30.3981 59.265 30.4731 59.388 30.6431C59.554 30.8731 59.401 31.1381 59.129 31.2261C58.284 31.5011 57.447 31.8531 56.578 31.9901C54.383 32.3371 52.378 31.7451 50.513 30.4781C50.303 31.4621 50.366 32.3811 50.692 33.2861C50.731 33.3951 50.762 33.5091 50.812 33.6131C50.954 33.9101 51.004 34.2541 50.695 34.4041C50.509 34.4941 50.2 34.3391 49.949 34.2821C49.871 34.2641 49.802 34.2081 49.728 34.1701H49.731Z" fill="#262324"/>
<path d="M60.731 30.7132C61.249 30.5552 61.767 30.3972 62.285 30.2402C63.397 30.3572 64.332 30.7902 65.075 31.6612C66.101 32.8662 65.931 35.1602 64.018 35.7132C63.537 35.8522 63.504 36.0652 63.843 36.4712C64.471 37.2232 65.098 37.9752 65.733 38.7222C65.975 39.0062 66.095 39.3092 65.782 39.5892C65.46 39.8772 65.211 39.6582 64.99 39.3932C64.267 38.5262 63.497 37.6952 62.826 36.7912C62.224 35.9792 62.472 35.1062 63.439 34.8602C64.954 34.4742 65.079 32.8572 63.949 31.9472C63.323 31.4432 62.622 31.2072 61.822 31.3232C61.346 31.3922 61.19 31.6322 61.288 32.1082C61.36 32.4552 61.319 32.7712 60.934 32.8682C60.515 32.9742 60.403 32.6382 60.315 32.3262C60.141 31.7092 60.43 31.2092 60.733 30.7142L60.731 30.7132Z" fill="#252223"/>
<path d="M57.3699 45.6122C56.2399 45.5792 55.0079 45.0572 53.9919 44.0262C53.7439 43.7752 53.5869 43.5152 53.8689 43.2092C54.1809 42.8712 54.4629 43.0452 54.7129 43.3132C56.0529 44.7452 58.3339 45.0062 60.0649 43.7702C60.8509 43.2092 61.3609 42.4522 61.6149 41.5192C61.7039 41.1942 61.7999 40.8302 62.2669 40.9752C62.7129 41.1142 62.6829 41.4382 62.5789 41.8222C61.9609 44.1052 59.8779 45.6542 57.3709 45.6122H57.3699Z" fill="#252122"/>
<path d="M49.7571 3.29579C49.8461 3.30679 49.9421 3.29979 50.0221 3.33179C50.6661 3.58379 51.2911 3.89678 51.9521 4.08678C52.6001 4.27378 53.2831 4.33879 53.9381 4.45479C53.5411 5.21879 51.5651 5.98479 49.9661 5.52979C48.2571 5.04279 46.9141 3.22179 46.9751 1.40479C47.1681 1.57379 47.3471 1.76479 47.5571 1.90779C48.1361 2.30079 48.7281 2.67278 49.3151 3.05378L49.3081 3.07379C49.4581 3.14779 49.6071 3.22179 49.7571 3.29579Z" fill="#87BEE4"/>
<path d="M45.0659 30.0139C45.1269 29.6099 45.2259 28.8889 45.3459 28.1709C45.4069 27.8069 45.5859 27.5109 46.0149 27.6289C46.4009 27.7359 46.4109 28.0349 46.3259 28.3909C45.8869 30.2229 46.0299 32.0249 46.7729 33.7499C47.2399 34.8349 47.9259 35.7899 48.7939 36.6099C48.9249 36.7329 49.0209 36.9919 48.9879 37.1589C48.9599 37.2989 48.7329 37.4499 48.5669 37.4929C48.4449 37.5249 48.2469 37.4269 48.1379 37.3269C46.0929 35.4489 45.1149 33.0999 45.0679 30.0139H45.0659Z" fill="#252122"/>
<path d="M31.8019 28.9C32.9519 28.913 33.9959 29.984 33.9809 31.134C33.9659 32.242 32.8599 33.33 31.7779 33.3C30.5359 33.266 29.5679 32.256 29.5829 31.011C29.5969 29.874 30.6349 28.886 31.8029 28.9H31.8019ZM30.7979 30.5231C30.4099 30.9901 30.7329 31.803 31.0899 32.074C31.5149 32.397 32.1079 32.36 32.4989 32.003C32.9519 31.59 33.0279 31.012 32.7039 30.443C32.2139 29.686 31.2049 29.728 30.7969 30.522L30.7979 30.5231Z" fill="#252122"/>
<path d="M52.7021 40.9542C53.3081 41.0042 53.8841 41.0452 54.4581 41.1042C54.6521 41.1242 54.8901 41.1372 55.0191 41.2522C55.1521 41.3712 55.2531 41.6232 55.2261 41.7942C55.2061 41.9232 54.9561 42.1172 54.8181 42.1102C53.8721 42.0622 52.9271 41.9842 51.9861 41.8802C51.6921 41.8482 51.5121 41.6272 51.5851 41.3022C51.8731 40.0212 52.1521 38.7382 52.4821 37.4692C52.5221 37.3132 52.8601 37.1192 53.0371 37.1402C53.3771 37.1802 53.5051 37.4552 53.4181 37.8152C53.1861 38.7672 52.9661 39.7232 52.7431 40.6782C52.7251 40.7552 52.7201 40.8342 52.7031 40.9542H52.7021Z" fill="#252122"/>
<path d="M45.0769 10.0979C44.7709 11.0239 44.3299 11.3709 43.3619 11.3579C42.3899 11.3439 41.4679 11.0879 40.7459 10.4189C40.4129 10.1099 40.2239 9.6449 39.9709 9.2519C40.8219 8.5019 42.0759 8.7289 42.6299 9.7109C42.7229 9.8759 42.9419 10.0639 43.1129 10.0759C43.7649 10.1209 44.4219 10.0969 45.0769 10.0989V10.0979Z" fill="#87BFE6"/>
<path d="M61.5791 50.62C60.3921 50.652 59.4001 50.329 58.4761 49.766C58.4061 49.723 58.3091 49.669 58.2941 49.603C58.2411 49.374 58.1361 49.111 58.2031 48.912C58.3011 48.624 58.5641 48.662 58.8281 48.784C59.4091 49.054 59.9831 49.387 60.5971 49.524C61.6391 49.756 62.6671 49.605 63.6111 49.046C63.9251 48.86 64.2851 48.724 64.5101 49.154C64.7321 49.577 64.4251 49.779 64.0961 49.957C63.2801 50.398 62.4151 50.637 61.5781 50.621L61.5791 50.62Z" fill="#262223"/>
<path d="M21.691 19.895C21.936 20.098 22.214 20.288 21.991 20.673C21.83 20.95 21.592 21.042 21.318 20.882C20.833 20.598 20.351 20.305 19.895 19.978C19.326 19.571 19.301 19.121 19.797 18.604C20.419 17.956 21.057 17.325 21.679 16.677C21.9 16.447 22.134 16.402 22.381 16.589C22.656 16.798 22.657 17.072 22.454 17.331C22.28 17.553 22.078 17.752 21.889 17.961C21.461 18.371 21.033 18.781 20.561 19.234C20.989 19.484 21.34 19.689 21.691 19.895Z" fill="#262325"/>
<path d="M10.1381 17.867C9.96807 17.685 9.78807 17.512 9.63207 17.32C9.43607 17.078 9.41607 16.787 9.69307 16.635C9.86307 16.542 10.2161 16.528 10.3361 16.64C11.0491 17.309 11.7431 18.003 12.3941 18.732C12.8241 19.213 12.7571 19.551 12.2361 19.931C11.8361 20.223 11.4171 20.493 10.9931 20.749C10.7271 20.91 10.4241 21.112 10.1591 20.751C9.87907 20.37 10.1071 20.113 10.4101 19.889C10.7821 19.675 11.1531 19.462 11.5081 19.258C11.0741 18.803 10.7021 18.41 10.3261 18.02C10.2701 17.962 10.2011 17.917 10.1381 17.867Z" fill="#252122"/>
<path d="M16.61 26.5181C16.839 26.5911 17.196 26.6061 17.263 26.7531C17.343 26.9291 17.242 27.2751 17.098 27.4441C16.88 27.7001 16.558 27.8661 16.281 28.0691C16.531 28.3321 16.811 28.6331 17.099 28.9261C17.341 29.1721 17.433 29.4551 17.174 29.7111C16.899 29.9831 16.601 29.8831 16.35 29.6231C16.237 29.5051 16.126 29.3851 15.987 29.2361C15.845 29.3691 15.718 29.4921 15.588 29.6111C15.356 29.8241 15.1 29.8351 14.872 29.6331C14.634 29.4211 14.649 29.1701 14.861 28.9341C15.127 28.6381 15.395 28.3441 15.661 28.0511C15.477 27.9061 15.239 27.7781 15.088 27.5821C14.952 27.4061 14.786 27.0851 14.859 26.9571C14.957 26.7841 15.272 26.7351 15.494 26.6321C15.8493 26.9354 16.1997 26.9231 16.545 26.5951C16.569 26.5731 16.587 26.5451 16.608 26.5191L16.61 26.5181Z" fill="#252122"/>
<path d="M33.9241 37.0058C33.9781 37.3068 33.9461 37.5868 33.6171 37.6968C33.2871 37.8068 33.1011 37.5868 32.9321 37.3378C32.5121 36.7208 32.5541 35.8358 33.0451 35.2588C33.4811 34.7458 34.3121 34.5828 34.9591 34.8828C35.5981 35.1798 36.0661 36.0248 35.8981 36.6938C35.8571 36.8578 35.6041 37.0488 35.4221 37.0808C35.1011 37.1368 34.9611 36.8898 34.9361 36.5868C34.9691 36.0948 34.7511 35.7778 34.3331 35.7498C33.9431 35.7228 33.6601 35.9258 33.6491 36.3048C33.6421 36.5358 33.8261 36.7718 33.9241 37.0058Z" fill="#252122"/>
<path d="M60.182 39.3809C60.194 40.5189 59.346 41.8159 58.446 42.2039C58.119 42.3449 57.858 42.2719 57.673 41.9759C57.48 41.6659 57.681 41.4489 57.917 41.3229C58.665 40.9239 59.072 40.3079 59.194 39.4829C59.246 39.1329 59.497 38.9829 59.798 39.0529C59.973 39.0939 60.106 39.3139 60.181 39.3819L60.182 39.3809Z" fill="#262223"/>
<path d="M57.1541 35.9321C56.9621 36.1561 56.8631 36.3781 56.7161 36.4161C56.5431 36.4611 56.2551 36.4131 56.1471 36.2901C55.8081 35.9061 55.5061 35.4821 55.2451 35.0411C55.1681 34.9111 55.2141 34.6221 55.3161 34.4991C55.4121 34.3831 55.7591 34.2921 55.8191 34.3561C56.2751 34.8421 56.6881 35.3691 57.1541 35.9321Z" fill="#272324"/>
<path d="M19.921 24.4881C19.937 24.7801 19.986 25.2021 19.449 25.2771C19.089 25.3271 18.914 25.0161 18.914 24.3861C18.914 24.2691 18.868 24.1181 18.924 24.0431C19.069 23.8511 19.241 23.5781 19.435 23.5481C19.744 23.5001 19.943 23.7411 19.923 24.0911C19.917 24.1911 19.923 24.2911 19.923 24.4881H19.921Z" fill="#2F2C2D"/>
<path d="M12.1789 24.4139C12.1789 23.7759 12.3479 23.4649 12.7019 23.5249C13.2139 23.6109 13.1969 24.0259 13.1869 24.4179C13.1849 24.5009 13.1879 24.5839 13.1869 24.6679C13.1789 25.0119 13.0279 25.2699 12.6679 25.2719C12.2989 25.2739 12.1599 25.0159 12.1789 24.6649C12.1839 24.5819 12.1789 24.4989 12.1789 24.4149V24.4139Z" fill="#2F2C2D"/>
<path d="M10.1379 17.8672C10.2009 17.9182 10.2699 17.9632 10.3259 18.0202C10.7009 18.4102 11.0739 18.8022 11.5079 19.2582C11.1539 19.4622 10.7819 19.6752 10.4099 19.8892C10.3199 19.2152 10.2289 18.5412 10.1379 17.8672Z" fill="#85B8DC"/>
<path d="M33.9241 37.0059C33.8261 36.7719 33.6421 36.5359 33.6491 36.3049C33.6601 35.9259 33.9431 35.7229 34.3331 35.7499C34.7511 35.7789 34.9691 36.0949 34.9361 36.5869C34.5991 36.7269 34.2611 36.8659 33.9241 37.0059Z" fill="#85B8DC"/>
<path d="M21.691 19.8949C21.34 19.6899 20.99 19.4849 20.561 19.2339C21.033 18.7809 21.461 18.3709 21.889 17.9609C21.823 18.6049 21.757 19.2499 21.691 19.8939V19.8949Z" fill="#89C2EA"/>
<path d="M16.6101 26.5181C16.5891 26.5431 16.5711 26.5711 16.5471 26.5941C16.2018 26.9221 15.8514 26.9344 15.4961 26.6311C15.8671 26.5931 16.2391 26.5561 16.6101 26.5181Z" fill="#85B8DC"/>
<path d="M68.4911 9.21415C68.9561 9.21015 69.4211 9.20215 69.8851 9.20215C74.2641 9.20215 78.6431 9.20215 83.0231 9.20215C83.2221 9.20215 83.4221 9.21415 83.6211 9.22015C83.9611 9.53315 84.2121 9.88715 84.2121 10.3792C84.2101 13.7952 84.2201 17.2121 84.2101 20.6281C84.2081 21.4001 83.7911 21.7882 83.0181 21.7892C78.6351 21.7932 74.2521 21.7912 69.8691 21.7912C68.6371 21.7912 67.8471 21.0411 67.8681 19.7801C67.9181 16.7981 67.8911 13.8141 67.8781 10.8311C67.8751 10.1991 68.0061 9.64715 68.4921 9.21415H68.4911ZM71.7981 15.8572C71.7981 17.1552 71.8371 18.4552 71.7851 19.7512C71.7501 20.6262 72.2341 20.7581 72.8681 20.4371C75.2341 19.2401 77.6131 18.0691 79.9861 16.8871C80.3571 16.7021 80.7341 16.5261 81.0941 16.3221C81.4721 16.1081 81.5021 15.7601 81.1751 15.4781C81.0641 15.3821 80.9271 15.3112 80.7941 15.2452C78.1301 13.9272 75.4661 12.6102 72.8001 11.2982C72.1031 10.9552 71.8001 11.1442 71.7981 11.9142C71.7951 13.2292 71.7981 14.5441 71.7981 15.8581V15.8572Z" fill="#89C2EA"/>
<path d="M29.9891 49.625C30.6271 49.645 31.2711 49.615 31.9011 49.697C32.5571 49.782 33.1951 49.993 33.8471 50.116C34.7421 50.285 35.5931 50.127 36.3961 49.698C36.8581 50.389 37.3421 51.067 37.7761 51.775C38.1961 52.46 37.8641 53.187 37.1161 53.267C36.8901 53.291 36.6561 53.219 36.4251 53.217C34.6761 53.207 32.9261 53.194 31.1771 53.201C30.4631 53.204 29.7481 53.288 29.0361 53.267C28.7681 53.259 28.3921 53.1281 28.2711 52.9281C28.1481 52.7251 28.1991 52.328 28.3181 52.088C28.5521 51.616 28.8931 51.197 29.1761 50.748C29.3941 50.402 29.5911 50.0431 29.7971 49.6891L29.7931 49.6961C29.8591 49.6721 29.9241 49.647 29.9901 49.623L29.9891 49.625Z" fill="#89C2EA"/>
<path d="M30.7981 30.5229C31.2051 29.7289 32.2141 29.6869 32.7051 30.4439C32.6951 31.1669 32.3651 31.5769 31.7811 31.5929C31.2381 31.6079 30.8761 31.2149 30.7981 30.5229Z" fill="#89C1E7"/>
<path d="M30.7981 30.5228C30.8761 31.2138 31.2381 31.6078 31.7811 31.5928C32.3651 31.5768 32.6951 31.1658 32.7051 30.4438C33.0291 31.0128 32.9521 31.5908 32.5001 32.0038C32.1091 32.3598 31.5161 32.3978 31.0911 32.0748C30.7341 31.8038 30.4111 30.9898 30.7991 30.5238L30.7981 30.5228Z" fill="#F1F2F4"/>
<path d="M71.798 15.8571C71.798 14.5421 71.795 13.2271 71.798 11.9131C71.8 11.1431 72.103 10.9541 72.8 11.2971C75.466 12.6101 78.13 13.9271 80.794 15.2441C80.927 15.3101 81.064 15.3811 81.175 15.4771C81.501 15.7591 81.472 16.1071 81.094 16.3211C80.733 16.5251 80.357 16.7021 79.986 16.8861C77.612 18.0681 75.233 19.2391 72.868 20.4361C72.234 20.7571 71.75 20.6261 71.785 19.7501C71.837 18.4541 71.798 17.1541 71.798 15.8561V15.8571ZM72.827 19.3021C75.154 18.1481 77.416 17.0271 79.755 15.8671C77.395 14.7021 75.133 13.5851 72.827 12.4461V19.3021Z" fill="#272426"/>
</svg>
