<svg width="82" height="79" viewBox="0 0 82 79" fill="none" xmlns="http://www.w3.org/2000/svg">
<path d="M10.4691 33.1587C10.4368 32.9216 10.4044 32.6853 10.372 32.4482L10.3641 32.4569C11.0493 32.3441 11.0396 32.3493 11.4299 33.0056C11.8823 33.7677 12.3478 34.5228 12.8255 35.2683C12.892 35.3716 13.0705 35.4722 13.1878 35.4626C13.8825 35.4048 14.5738 35.3059 15.2676 35.2386C15.5599 35.2106 15.7681 35.1126 15.9501 34.8579C18.5559 31.2101 21.1424 27.5491 23.7971 23.9371C25.898 21.0793 28.0654 18.2688 30.2406 15.4662C32.3923 12.6933 34.5736 9.94143 36.7743 7.20706C38.4508 5.12456 40.1728 3.07793 41.8921 1.03043C42.026 0.870307 42.2964 0.825682 42.5038 0.726807C42.607 0.945557 42.7978 1.16431 42.7986 1.38306C42.817 4.94081 42.8118 8.49943 42.8118 12.0581C42.8118 12.2173 42.8118 12.3774 42.8118 12.5979C43.5144 12.6233 44.2056 12.6539 44.8978 12.6723C48.7845 12.7756 52.6704 12.8753 56.5571 12.9786C59.4394 13.0547 62.3216 13.1343 65.203 13.2131C66.1926 13.2402 67.1831 13.2542 68.171 13.3137C68.3836 13.3268 68.6531 13.4624 68.7818 13.6296C69.4713 14.5299 70.1354 15.4513 70.782 16.3841C70.9028 16.5582 70.9719 16.8207 70.9509 17.0316C70.6333 20.3049 70.2938 23.5766 69.9665 26.8499C69.5745 30.7752 69.1913 34.7004 68.8001 38.6257C68.3058 43.5782 67.807 48.5307 67.31 53.4841C66.8165 58.4077 66.323 63.3304 65.8304 68.2541C65.777 68.7861 65.6335 68.9103 65.1094 68.8963C62.2271 68.8167 59.3458 68.7397 56.4635 68.6609C51.8645 68.5358 47.2655 68.4089 42.6656 68.2829C39.9584 68.2086 37.2511 68.1254 34.5439 68.0721C34.0119 68.0616 33.6304 67.8874 33.3303 67.4552C32.7248 66.5828 32.0921 65.7288 31.4936 64.8512C31.3913 64.7007 31.3528 64.4662 31.3711 64.2798C31.6284 61.6443 31.9023 59.0106 32.1683 56.3751C32.772 50.3944 33.3758 44.4147 33.976 38.4341C34.4441 33.7712 34.9088 29.1074 35.376 24.4437C35.7531 20.6786 36.1276 16.9126 36.5091 13.1474C36.573 12.5131 36.7218 12.4264 37.3973 12.4527C38.8524 12.5078 40.3075 12.5428 41.7626 12.5848C41.8038 12.5857 41.8458 12.5708 41.9105 12.5586V2.37093C33.0783 12.9392 24.757 23.7743 16.9004 35.0548C17.7211 34.9874 18.4771 34.9236 19.2331 34.8649C19.9436 34.8107 20.6541 34.7503 21.3664 34.7162C21.8459 34.6926 22.041 34.9568 21.8844 35.4162C21.0278 37.9336 20.1659 40.4483 19.2979 42.9613C19.1299 43.4478 18.9409 43.5021 18.4264 43.2579C18.4386 43.0576 18.4106 42.8441 18.4693 42.6586C18.6609 42.0504 18.8893 41.4537 19.0923 40.8491C19.6015 39.3362 20.1046 37.8207 20.6104 36.3061C20.6891 36.1004 20.767 35.8939 20.8668 35.6314C19.5998 35.7347 18.4211 35.8861 17.2399 35.9079C16.4926 35.9219 15.9659 36.1433 15.6483 36.8206C15.272 37.3561 15.048 37.3963 14.6543 36.9999C14.7383 36.7366 14.8214 36.4732 14.9273 36.1407C13.2858 36.3568 11.6723 36.5484 10.0658 36.7891C9.18551 36.9212 8.88801 37.2887 8.74714 38.2127C8.53889 39.5777 8.33064 40.9418 8.12064 42.3068C8.08214 42.5579 8.04539 42.8248 7.68839 42.7767C7.34714 42.7303 7.21239 42.4941 7.25964 42.1834C7.49764 40.6181 7.73301 39.0527 8.00601 37.4934C8.11451 36.8731 8.51264 36.4119 9.08839 36.1626C9.44189 36.0094 9.83214 35.9272 10.2145 35.8598C10.7824 35.7592 11.3581 35.7006 11.9864 35.6166C11.8193 35.3619 11.6854 35.1581 11.5515 34.9551L10.4683 33.1613L10.4691 33.1587ZM51.945 46.4141C52.5523 45.5714 52.3493 44.4689 51.4786 43.8792C50.8399 43.4461 49.9255 43.4111 49.3051 43.8643C48.7128 44.2974 48.2936 44.8557 48.4266 45.6624C48.5421 46.0457 48.6375 46.4359 48.7793 46.8087C48.8808 47.0756 48.8519 47.3109 48.592 47.3757C48.4179 47.4194 48.151 47.3284 48.0101 47.2033C47.8509 47.0624 47.7861 46.8148 47.6733 46.5978C46.5078 47.5638 45.3545 48.5202 44.1706 49.5019C44.2686 49.5124 44.3229 49.5212 44.3789 49.5238C45.3081 49.5781 46.2391 49.6078 47.1658 49.6944C47.8115 49.7548 48.088 50.1039 48.0731 50.7471C48.0661 51.0507 48.0014 51.3526 47.9786 51.6562C47.8596 53.2811 47.7459 54.9068 47.6304 56.5317C47.5691 57.3918 47.2235 57.7269 46.3686 57.7506C46.2663 57.7532 46.1648 57.7549 46.0624 57.7506C43.5039 57.6342 40.9454 57.5152 38.3869 57.4023C37.6011 57.3673 37.4935 57.2938 37.5784 56.4914C37.8085 54.2978 38.078 52.1077 38.3195 49.9158C38.3676 49.4783 38.6179 49.3672 39.0038 49.3751C40.0958 49.3961 41.1895 49.3891 42.2806 49.4337C42.6333 49.4477 42.8923 49.3383 43.146 49.1292C44.4681 48.0372 45.7885 46.9426 47.1203 45.8628C47.3871 45.6467 47.4886 45.3947 47.5735 45.0674C47.6908 44.6159 47.8833 44.1627 48.1405 43.7742C48.6069 43.0707 49.3506 42.7784 50.181 42.6437C50.2186 42.1152 50.2554 41.6033 50.293 41.0888C50.1749 41.0626 50.1198 41.0433 50.0638 41.0381C48.2219 40.8867 46.3809 40.7327 44.539 40.5883C43.9011 40.5384 43.8058 40.4448 43.7734 39.7938C43.7349 39.0422 43.6859 38.2923 43.6404 37.5153C43.1574 37.4427 42.6989 37.3736 42.2404 37.3053C41.9858 37.2668 41.8003 37.1154 41.8816 36.8678C41.9368 36.7007 42.1266 36.5283 42.2955 36.4636C42.4521 36.4041 42.6621 36.4819 42.8485 36.5038C45.9828 36.8766 49.1135 37.2721 52.2513 37.6124C53.6521 37.7647 55.0653 37.8058 56.4731 37.8977C56.53 38.0919 56.6796 38.3291 56.6166 38.4682C56.5536 38.6073 56.2789 38.7097 56.0916 38.7202C55.7311 38.7412 55.3663 38.6904 55.004 38.6598C52.3379 38.4349 49.6709 38.2153 47.0065 37.9773C46.2024 37.9056 45.4035 37.7822 44.5469 37.6754C44.5889 38.3789 44.6283 39.0378 44.6668 39.6976C44.7761 39.7098 44.8321 39.7186 44.8899 39.7229C48.8615 40.0528 52.8331 40.3801 56.8048 40.7117C58.0429 40.8149 58.2791 40.6373 58.4926 39.4158C58.5049 39.3441 58.5163 39.2723 58.5276 39.2006C58.7403 37.8802 58.952 36.5598 59.1655 35.2394C59.2731 34.5727 59.3843 33.9059 59.498 33.2164C58.812 33.1281 58.1864 33.0484 57.5774 32.9706C57.4409 34.2621 57.3236 35.5046 57.1653 36.7418C57.139 36.9483 56.936 37.1321 56.8144 37.3263C56.3813 37.2537 56.25 36.9851 56.306 36.5738C56.3883 35.9692 56.4723 35.3637 56.5274 34.7556C56.593 34.0398 56.6289 33.3214 56.6823 32.5497C56.2981 32.5497 55.9928 32.5567 55.6883 32.5488C53.6364 32.4928 51.5845 32.4316 49.5326 32.3764C47.626 32.3248 45.7194 32.2811 43.8128 32.2286C43.5555 32.2216 43.3691 32.2312 43.3499 32.5751C43.3193 33.1114 43.2379 33.6452 43.1749 34.1789C43.1136 34.6996 43.0576 35.2202 42.9798 35.7382C42.9325 36.0523 42.7383 36.2387 42.404 36.2063C42.117 36.1783 42.0619 35.9631 42.0899 35.7259C42.3401 33.6469 42.5965 31.5679 42.8494 29.4898C42.8905 29.1529 43.0821 29.0094 43.412 29.0191C43.7471 29.0296 44.0823 29.0401 44.4174 29.0418C45.2845 29.0453 46.1525 29.0427 47.0231 29.0427V19.4256H46.5778C45.295 19.4256 44.0114 19.4256 42.7286 19.4256C41.9928 19.4256 41.9394 19.3713 41.9394 18.6249C41.9394 17.6231 41.9394 16.6221 41.9394 15.5791H39.5664C38.085 30.3622 36.6028 45.1497 35.1196 59.9564C43.573 60.1866 51.9625 60.4158 60.4063 60.6459C61.892 45.8103 63.3725 31.0342 64.8565 16.2161C57.4741 16.0148 50.1618 15.8162 42.8476 15.6167V18.5357C44.3203 18.5357 45.7631 18.5339 47.2051 18.5357C47.815 18.5366 47.9209 18.6442 47.9209 19.2409C47.9209 22.3761 47.9209 25.5112 47.9209 28.6454V29.1398C50.8836 29.2221 53.7921 29.3069 56.7015 29.3822C57.468 29.4023 57.5669 29.4846 57.5748 30.2729C57.5809 30.8671 57.5756 31.4612 57.5756 32.0728C57.8119 32.1026 58.0079 32.1262 58.2826 32.1603V24.8471C58.2048 24.8304 58.105 24.8121 58.007 24.7893C56.6341 24.4612 55.809 23.4838 55.7758 22.1486C55.7443 20.8991 56.6858 19.6434 57.9186 19.2917C59.3825 18.8734 61.1185 19.6636 61.7643 21.0426C62.3566 22.3061 61.8194 23.7131 60.6171 24.0342C60.3625 24.1024 60.0598 24.1759 59.9241 23.8723C59.7946 23.5836 59.9285 23.3359 60.2251 23.1977H60.2295C60.9041 23.1093 61.0914 22.9194 61.1176 22.2973C60.968 21.8686 60.8858 21.3987 60.6556 21.0181C60.1823 20.2367 58.9966 19.8744 58.1103 20.1614C57.2431 20.4423 56.6481 21.2814 56.6586 22.2107C56.754 23.2668 57.5354 23.9624 58.6204 23.9581C59.12 23.9554 59.2434 24.0683 59.2653 24.5557C59.2714 24.6869 59.2653 24.8182 59.2635 24.9494C59.2198 27.3776 59.1751 29.8048 59.1305 32.2644C59.344 32.2959 59.5418 32.3309 59.7413 32.3537C60.4098 32.4316 60.5226 32.5576 60.408 33.2304C60.0274 35.4678 59.6468 37.7043 59.2399 39.9364C59.001 41.2446 58.3745 41.7109 57.0436 41.6173C55.9551 41.5412 54.8684 41.4379 53.7816 41.3478C52.9338 41.2778 52.085 41.2104 51.2013 41.1387C51.1549 41.7022 51.112 42.2176 51.0735 42.6909C51.3859 42.8476 51.6633 42.9692 51.9231 43.1206C53.0703 43.7899 53.5113 45.2844 52.9565 46.5926C52.477 47.7231 50.9825 48.4266 49.782 48.0801C49.5186 48.0039 49.2658 47.8718 49.341 47.5411C49.4136 47.2208 49.6263 47.1333 49.971 47.2033C50.6264 47.3363 51.2476 47.2462 51.7324 46.7159C51.7718 46.6678 51.8111 46.6197 51.8514 46.5707C51.8846 46.5173 51.9188 46.4639 51.952 46.4106L51.945 46.4141ZM46.4246 56.8432C46.5375 56.6673 46.7344 56.4984 46.7493 56.3147C46.8884 54.6364 46.9986 52.9556 47.1098 51.2747C47.1544 50.5966 47.1465 50.5922 46.4448 50.5449C45.778 50.5003 45.1121 50.4496 44.4445 50.4294C42.7899 50.3804 41.1353 50.3489 39.4806 50.3096H39.2085C38.9451 52.3798 38.6853 54.4317 38.4228 56.4932C39.7143 56.5824 40.9305 56.6918 42.1485 56.7434C43.5721 56.8029 44.9984 56.8126 46.4238 56.8432H46.4246ZM69.2464 15.8206C69.0836 15.5773 68.92 15.3349 68.6838 14.9832C68.6549 15.2054 68.6418 15.2868 68.633 15.3691C68.3093 18.5689 67.9829 21.7688 67.6618 24.9687C67.0466 31.1094 66.4368 37.2502 65.8208 43.3909C65.392 47.6627 64.9563 51.9336 64.5266 56.2053C64.2283 59.1733 63.9351 62.1422 63.6376 65.1111C63.572 65.7673 63.5143 65.8181 62.8589 65.8032C60.9225 65.7568 58.987 65.7087 57.0506 65.6588C54.8089 65.6011 52.5671 65.5451 50.3263 65.4829C46.9059 65.3884 43.4864 65.2887 40.066 65.1916C38.3484 65.1426 36.6316 65.0901 34.914 65.0507C34.1974 65.0341 33.4799 65.048 32.716 65.048C32.898 65.2878 33.0538 65.4934 33.2104 65.6991C33.4431 66.0316 33.7083 66.3466 33.8999 66.7018C34.1116 67.0938 34.4021 67.1778 34.8239 67.1848C37.5478 67.2329 40.2708 67.3056 42.9929 67.3799C46.6758 67.4814 50.3586 67.5926 54.0415 67.6984C56.0943 67.7579 58.1461 67.8314 60.1998 67.8673C61.7695 67.8944 63.3401 67.8726 64.9545 67.8726C64.9764 67.7186 65.0184 67.4779 65.0429 67.2347C65.3789 63.8589 65.7105 60.4823 66.0483 57.1066C66.3816 53.7746 66.7229 50.4426 67.0563 47.1106C67.3984 43.6911 67.7344 40.2716 68.0765 36.8521C68.4685 32.9259 68.8658 28.9998 69.2578 25.0728C69.5194 22.4513 69.7775 19.8289 70.033 17.2066C70.0444 17.0849 70.0488 16.9327 69.9875 16.8399C69.7556 16.4899 69.4958 16.1583 69.2464 15.8206ZM44.1234 14.7408C44.2389 14.7522 44.3535 14.7706 44.469 14.7741C46.2164 14.8178 47.9629 14.8546 49.7103 14.9018C53.4071 15.0024 57.104 15.1083 60.8009 15.2124C62.2709 15.2536 63.7409 15.2982 65.2118 15.3358C65.6099 15.3463 65.8041 15.5222 65.7648 15.9334C65.7245 16.3534 65.7 16.7743 65.658 17.1943C65.3036 20.7284 64.9466 24.2626 64.5896 27.7967C64.16 32.0553 63.7278 36.3131 63.3008 40.5717C62.6235 47.3363 61.9498 54.1009 61.2743 60.8656C61.2148 61.4606 61.101 61.5656 60.5043 61.5498C58.8155 61.5052 57.1276 61.4571 55.4389 61.4081C51.6108 61.2987 47.7835 61.1832 43.9554 61.0791C40.913 60.9959 37.8698 60.9277 34.8274 60.8498C34.3068 60.8367 34.1449 60.6669 34.1956 60.1498C34.4511 57.5572 34.7171 54.9654 34.9779 52.3728C35.3786 48.3898 35.7776 44.4059 36.1793 40.4229C36.5503 36.7444 36.9256 33.0659 37.2949 29.3866C37.5416 26.9243 37.7779 24.4603 38.0229 21.9981C38.2495 19.7239 38.4805 17.4498 38.7115 15.1766C38.7561 14.7417 38.9206 14.6174 39.3765 14.6314C39.8271 14.6454 40.2778 14.6489 40.7284 14.6568H41.8965V13.4703H37.3631C35.6744 30.3001 33.9813 47.1832 32.2846 64.0934C42.4863 64.3717 52.61 64.6473 62.7644 64.9238C64.4628 47.9812 66.155 31.1051 67.849 14.2071C67.7108 14.1922 67.5979 14.1729 67.485 14.1703C64.4278 14.0846 61.3705 13.9971 58.3133 13.9157C55.7793 13.8474 53.2461 13.7844 50.7121 13.7214C48.5141 13.6663 46.3161 13.6138 44.1173 13.5596C43.6903 13.5394 43.2624 13.5184 42.838 13.4983V14.7408H44.1208H44.1234ZM43.5091 31.3378C47.9156 31.4577 52.2819 31.5758 56.6499 31.6939V30.2747C52.3143 30.1557 48.0145 30.0376 43.6894 29.9186C43.6299 30.3884 43.5739 30.8303 43.5091 31.3369V31.3378Z" fill="#272325"/>
<path d="M10.4693 33.1587C10.8307 33.7564 11.1912 34.3549 11.5526 34.9525C10.9235 35.0531 10.2926 35.1459 9.66434 35.2552C7.58884 35.6166 7.37972 35.8047 7.13385 37.9205C6.9116 39.8332 6.76197 41.7556 6.58085 43.6736C6.4391 43.6447 6.29822 43.608 6.1556 43.587C5.68047 43.5187 5.19047 43.7847 4.96997 44.2231C4.73634 44.6886 4.8116 45.0999 5.2001 45.477C5.08022 47.0397 6.27634 47.9532 7.53197 47.9217C7.85222 47.9139 8.27222 47.7765 8.46385 47.5464C9.00985 46.8901 9.67659 46.6294 10.4991 46.5751C11.06 46.5384 11.6138 46.3887 12.1695 46.2811C12.4958 46.2181 12.6647 46.3056 12.7426 46.6661C13.0935 48.2822 13.1171 49.8992 12.7986 51.5171C12.5571 52.7465 11.6812 53.4631 10.6443 53.9995C9.20322 54.745 7.64397 55.0985 6.03484 55.1825C4.65934 55.2542 4.29184 54.9664 4.26472 53.6127C4.22972 51.8689 4.3391 50.1232 4.38285 48.3776C4.39597 47.8535 4.44147 47.3232 4.38459 46.8061C4.35134 46.5077 4.21047 46.1604 4.00047 45.9539C3.40809 45.3729 3.1421 44.6615 3.11147 43.8775C3.0021 41.0775 3.10447 38.2871 3.8141 35.5571C3.94185 35.0654 4.18597 34.5719 4.49222 34.1667C4.9656 33.5385 5.64634 33.3705 6.40847 33.6181C6.60184 33.6811 6.79697 33.7424 6.98947 33.8071C8.26959 34.235 9.41847 33.9629 10.4676 33.157L10.4693 33.1587Z" fill="#89C2EA"/>
<path d="M8.37616 75.9445C7.75579 75.9427 7.13541 75.9401 6.51504 75.9384C6.53866 75.7669 6.58854 75.5936 6.58241 75.423C6.51066 73.4612 6.43891 71.4995 6.34966 69.5377C6.17116 65.6116 5.74416 61.71 5.19991 57.8197C5.17454 57.6395 5.02929 57.4759 4.94004 57.3044L4.85254 56.6822C5.06954 56.6962 5.28566 56.7085 5.50266 56.7234C8.12154 56.8975 10.4998 56.2946 12.5263 54.5525C12.5333 54.7144 12.5403 54.8754 12.5473 55.0372C12.1947 55.1667 12.2139 55.459 12.2157 55.7591C12.2279 57.7095 12.2997 59.6625 12.2192 61.6085C12.1413 63.4941 12.0004 65.3885 11.7108 67.2514C11.3512 69.571 10.8078 71.8617 10.3537 74.1665C10.3195 74.3406 10.3598 74.5287 10.3659 74.7107C10.0527 74.8875 9.73941 75.0651 9.42616 75.2419C9.82254 72.3509 10.2784 69.4669 10.5978 66.568C10.9364 63.4959 10.9434 60.4036 10.8927 57.314C10.8874 56.9911 10.834 56.7024 10.4508 56.6945C10.0282 56.6866 9.99666 56.9964 9.99579 57.3332C9.99141 59.0517 10.0255 60.7729 9.95204 62.4896C9.86804 64.4654 9.74992 66.4446 9.52942 68.409C9.29317 70.5134 8.92829 72.6037 8.60191 74.6976C8.54941 75.0362 8.60804 75.2926 8.87666 75.5C8.81891 75.6146 8.76116 75.7301 8.70254 75.8447C8.68854 75.8675 8.67104 75.871 8.64916 75.8544C8.58004 75.8797 8.51004 75.9051 8.44091 75.9305C8.42341 75.9541 8.40241 75.9576 8.37704 75.9436L8.37616 75.9445Z" fill="#CFD1D2"/>
<path d="M20.6113 36.3052C20.1055 37.8198 19.6024 39.3344 19.0932 40.8482C18.8893 41.4528 18.6609 42.0495 18.4702 42.6577C18.4115 42.844 18.4387 43.0567 18.4273 43.2571C18.3372 43.3962 18.2479 43.5353 18.1578 43.6753C17.799 43.2912 17.3572 43.2159 16.8514 43.2772C14.8328 43.5213 12.8133 43.7506 10.7929 43.9798C10.6678 43.9938 10.533 43.9833 10.4105 43.9527C9.80941 43.8004 9.21178 43.6368 8.61328 43.4767C8.67016 43.1634 8.72266 42.8502 8.78391 42.5378C9.07878 41.0188 9.37191 39.4989 9.67553 37.9808C9.73153 37.7026 9.89166 37.5276 10.218 37.5162C10.5339 37.5048 10.8472 37.4261 11.163 37.3902C12.3268 37.2572 13.4914 37.1294 14.656 36.9999C15.0498 37.3963 15.2738 37.3561 15.65 36.8206C16.1409 36.7847 16.6335 36.7628 17.1227 36.7103C18.2864 36.5834 19.4493 36.4426 20.6122 36.3069L20.6113 36.3052Z" fill="#D0D2D3"/>
<path d="M10.3722 32.4481C9.56108 33.2444 8.59421 33.3643 7.53021 33.1271C6.95008 32.9985 6.36208 32.8743 5.77146 32.8253C4.99008 32.7596 4.37496 33.1254 3.88583 33.7204C3.79396 33.8315 3.70121 33.9986 3.58571 34.0196C3.41071 34.052 3.16833 34.0371 3.04496 33.9348C2.95221 33.8578 2.92246 33.5401 3.00121 33.4509C3.34421 33.0641 3.70996 32.6853 4.12296 32.3781C4.33908 32.2171 4.45196 32.0903 4.41433 31.8304C4.34083 31.3299 4.27346 30.8294 4.19383 30.2563C3.57696 30.6106 2.98458 30.8215 2.37296 30.5328C2.05883 30.3849 1.74471 30.1635 1.53033 29.8949C1.03946 29.2833 1.09546 28.5054 1.55483 27.8421C1.29758 27.2253 0.976456 26.6766 0.841706 26.0851C0.558206 24.8435 1.00183 23.7296 1.69571 22.7251C2.59346 21.4266 3.72308 20.4169 5.33483 20.0835C6.20546 19.9033 6.97896 20.129 7.65533 20.6698C7.77783 20.7678 7.85921 21.1405 7.78921 21.207C7.65358 21.3356 7.38408 21.4065 7.19421 21.3724C6.98333 21.3339 6.80833 21.1256 6.59921 21.0373C5.96833 20.7721 5.34271 20.8553 4.75208 21.1606C3.26633 21.9289 2.19883 23.0778 1.73946 24.7035C1.61871 25.1296 1.71758 25.617 1.71583 26.0764C1.88996 26.415 2.05621 26.7589 2.24608 27.0888C2.28108 27.15 2.41058 27.1859 2.49546 27.1841C2.83758 27.178 3.17971 27.1518 3.52096 27.1334C3.74321 27.2795 3.94271 27.4834 3.75808 27.7328C3.65046 27.8798 3.38796 27.9813 3.19371 27.983C2.56896 27.9874 2.13846 28.2788 2.09296 28.795C2.05096 29.2763 2.35808 29.7181 2.83758 29.7461C3.08783 29.761 3.35208 29.6245 3.60058 29.5309C3.74408 29.4766 3.85871 29.3261 4.00308 29.2946C4.60596 29.1599 4.77483 29.2544 4.93583 29.8704C5.10821 30.5275 5.23333 31.1978 5.37421 31.84C6.15821 31.9931 6.97721 32.1655 7.80058 32.3081C8.11296 32.3624 8.43846 32.3729 8.75608 32.3589C9.20496 32.3388 9.56283 32.1428 9.75183 31.7061C9.88221 31.4043 10.0738 31.203 10.4265 31.3745C10.822 31.567 10.6295 31.8496 10.5157 32.113C10.4667 32.2276 10.416 32.3423 10.3661 32.4569L10.3748 32.4481H10.3722Z" fill="#252122"/>
<path d="M12.5254 54.5533C10.4989 56.2954 8.12064 56.8983 5.50177 56.7241C5.28477 56.7101 5.06864 56.697 4.85164 56.683C4.39139 56.4879 3.89702 56.3461 3.47964 56.0828C2.98614 55.773 2.86802 55.2025 2.84614 54.6644C2.73589 52.0035 2.65364 49.3418 2.56089 46.68C2.55127 46.3904 2.62127 46.1305 2.96164 46.1244C3.29852 46.1183 3.44114 46.3396 3.45164 46.6669C3.53652 49.1825 3.63452 51.6981 3.70889 54.2146C3.74214 55.3311 4.02127 55.6698 5.11064 55.8045C6.99014 56.0364 8.80052 55.7818 10.484 54.9094C12.871 53.6721 14.3524 51.0638 13.8668 48.4519C13.851 48.3661 13.851 48.2769 13.83 48.1929C13.7548 47.884 13.8554 47.6714 14.1739 47.6058C14.5134 47.5358 14.6438 47.758 14.7006 48.0389C14.971 49.3575 14.8546 50.6403 14.3629 51.895C13.9578 52.9275 13.3173 53.792 12.5245 54.5533H12.5254Z" fill="#262223"/>
<path d="M8.61348 43.4768C9.21285 43.636 9.81048 43.7997 10.4107 43.9528C10.5332 43.9834 10.668 43.9939 10.7931 43.9799C12.8135 43.7507 14.833 43.5214 16.8516 43.2773C17.3565 43.216 17.7992 43.2913 18.158 43.6754C18.1851 43.8469 18.2367 44.0193 18.235 44.1899C18.2227 45.1183 17.9909 45.1463 17.339 45.1997C15.7649 45.3292 14.1934 45.5024 12.6227 45.6783C12.2824 45.7168 12.0592 45.6328 11.9324 45.3152C11.9 45.0028 12.0767 44.8724 12.355 44.8295C12.6525 44.7832 12.95 44.735 13.2475 44.6878C14.574 44.5513 15.9005 44.4157 17.2261 44.2792L17.213 44.1365C15.8917 44.2783 14.5705 44.42 13.2484 44.5618C12.5151 44.6493 11.7819 44.7359 11.06 44.8217C10.9847 45.0229 10.92 45.1988 10.8544 45.3755C10.668 45.5112 10.5 45.6923 10.2935 45.7754C9.49898 46.0939 8.69486 46.3188 8.00448 46.9243C7.42961 47.4283 6.39185 47.115 5.88348 46.5279C5.68048 46.2934 5.69448 46.0633 5.88785 45.8708C6.0751 45.6853 6.29911 45.6897 6.49686 45.9058C6.97286 46.4264 7.84698 46.3643 8.14273 45.638C8.20923 45.4735 8.50935 45.3703 8.72285 45.3073C9.03698 45.2154 9.37473 45.2023 9.69235 45.1192C9.82535 45.0842 9.93386 44.9573 10.1745 44.7858C9.79211 44.637 9.53836 44.4682 9.27323 44.4507C8.68523 44.4113 8.0911 44.4332 7.50048 44.4568C7.04198 44.4752 6.58611 44.5452 6.12761 44.5679C5.86773 44.581 5.71898 44.6125 5.78286 44.9424C5.86861 45.3904 5.55536 45.4735 5.19923 45.4788C4.81073 45.1017 4.7346 44.6904 4.9691 44.2249C5.1896 43.7865 5.67961 43.5205 6.15473 43.5888C6.29736 43.6089 6.43823 43.6457 6.57998 43.6754C7.25723 43.6098 7.93535 43.5442 8.6126 43.4785L8.61348 43.4768Z" fill="#272324"/>
<path d="M10.3652 74.7116C10.359 74.5296 10.3188 74.3406 10.3529 74.1674C10.8071 71.8626 11.3504 69.5719 11.71 67.2522C11.9988 65.3894 12.1397 63.495 12.2184 61.6094C12.2989 59.6625 12.2272 57.7095 12.2149 55.76C12.2132 55.4599 12.1939 55.1685 12.5465 55.0381C12.9534 55.0346 13.1179 55.2647 13.1179 55.641C13.1162 57.7637 13.215 59.8926 13.0803 62.0066C12.9219 64.4925 12.6244 66.9757 12.2613 69.4415C12.0137 71.1259 11.5578 72.7805 11.1772 74.4439C11.0722 74.905 10.8149 74.9724 10.3652 74.7116Z" fill="#272425"/>
<path d="M9.21791 23.3772C9.43666 23.2669 9.67028 23.1768 9.87066 23.0394C10.078 22.8977 10.2049 22.7148 10.1559 22.412C10.134 22.2747 10.288 22.0305 10.4245 21.9649C10.6442 21.8599 10.8682 21.936 10.9863 22.2108C11.163 22.6229 11.0309 23.1549 10.6039 23.539C10.4 23.7228 10.1673 23.8742 9.95116 24.0369C10.155 24.7955 10.407 25.5419 10.5488 26.3084C10.7964 27.6507 10.6713 28.9378 9.76303 30.0525C9.01753 30.9678 7.71903 31.3563 6.66553 30.98C6.34878 30.8672 6.25516 30.6248 6.35491 30.3667C6.40478 30.238 6.67341 30.0963 6.82041 30.1173C8.51091 30.3605 9.67116 29.4112 9.76478 27.6997C9.82428 26.6112 9.52941 25.5988 9.15316 24.6013C9.12428 24.5243 8.95453 24.435 8.87491 24.4543C7.84066 24.7037 6.85628 24.5742 5.88153 24.071C5.39153 25.0598 4.69153 25.8508 3.79028 26.4633C3.49803 26.6033 3.18128 26.7827 2.96603 26.3828C2.76741 26.0135 3.06666 25.8403 3.31953 25.66C3.56716 25.4842 3.85503 25.3337 4.03528 25.1018C4.43866 24.5838 4.81753 24.0404 5.14828 23.4734C5.45803 22.9423 5.61641 22.8513 6.11866 23.1645C7.11703 23.7867 8.14691 23.8392 9.21616 23.3763L9.21791 23.3772Z" fill="#262224"/>
<path d="M4.93927 57.3052C5.02852 57.4767 5.17377 57.6403 5.19914 57.8206C5.74339 61.7108 6.17127 65.6124 6.34889 69.5386C6.43814 71.4994 6.50989 73.4621 6.58164 75.4238C6.58777 75.5944 6.53789 75.7668 6.51427 75.9392C5.97877 76.2341 5.70489 76.0766 5.67777 75.4606C5.55177 72.5424 5.49839 69.6191 5.27702 66.7088C5.05914 63.8432 4.67502 60.9898 4.35477 58.1321C4.28914 57.5493 4.40464 57.3603 4.93752 57.3069L4.93927 57.3052Z" fill="#282425"/>
<path d="M8.87509 75.501C8.60646 75.2945 8.54696 75.0381 8.60034 74.6986C8.92671 72.6047 9.29246 70.5144 9.52784 68.41C9.74834 66.4456 9.86646 64.4672 9.95046 62.4906C10.0231 60.7747 9.98984 59.0536 9.99421 57.3342C9.99421 56.9974 10.0266 56.6867 10.4492 56.6955C10.8325 56.7025 10.8858 56.9921 10.8911 57.315C10.9427 60.4046 10.9357 63.4969 10.5962 66.569C10.276 69.4679 9.82009 72.3519 9.42459 75.2429C9.24171 75.3286 9.05796 75.4152 8.87509 75.501Z" fill="#272425"/>
<path d="M9.21811 23.377C8.14886 23.8399 7.11986 23.7874 6.12061 23.1653C5.61749 22.852 5.45999 22.9439 5.15024 23.4741C4.81949 24.0411 4.44061 24.5845 4.03724 25.1025C3.85699 25.3344 3.56911 25.4849 3.32149 25.6608C3.06774 25.841 2.76936 26.0143 2.96799 26.3835C3.18324 26.7834 3.49999 26.604 3.79224 26.464C3.70124 26.6871 3.61024 26.9094 3.51924 27.1325C3.17711 27.1518 2.83586 27.1771 2.49374 27.1833C2.40886 27.185 2.27936 27.1491 2.24436 27.0879C2.05449 26.758 1.88824 26.4141 1.71411 26.0755C1.81299 25.6013 1.85761 25.106 2.02386 24.6563C2.33186 23.8224 3.04061 23.2913 3.65574 22.698C4.00049 22.3664 4.34961 22.0321 4.73549 21.7521C5.53961 21.1711 5.86424 21.263 6.65786 21.8318C7.02536 22.0951 7.58536 22.0916 8.05961 22.2036C8.17161 22.2299 8.29324 22.2185 8.40436 22.2456C9.48411 22.5099 9.36949 22.5396 9.21899 23.3753L9.21811 23.377Z" fill="#89C2E9"/>
<path d="M8.64848 75.8553C8.66948 75.8719 8.68786 75.8684 8.70186 75.8457C10.0599 75.4554 11.34 75.5561 12.4591 76.4984C12.7802 76.7688 13.0795 77.1083 12.9587 77.5852C12.8284 78.1006 12.418 78.3797 11.9315 78.3814C10.353 78.3876 8.77361 78.3578 7.19686 78.2913C6.69898 78.2703 6.25623 78.0087 5.97361 77.5589C5.82661 77.3262 5.62623 77.0646 5.94473 76.8406C6.26761 76.6131 6.51348 76.7863 6.69111 77.0873C6.95011 77.2264 7.20386 77.4749 7.46898 77.4863C8.81561 77.5467 10.1649 77.5519 11.5132 77.5563C11.6874 77.5563 11.8615 77.4364 12.138 77.3332C11.2709 76.5798 10.3862 76.4249 9.41848 76.5789C9.16036 76.6656 8.89786 76.7443 8.64411 76.8423C8.34048 76.9596 8.05523 77.0339 7.88198 76.6551C7.71661 76.2919 7.99923 76.1756 8.23373 76.0347C8.28273 76.0058 8.32911 75.9743 8.37723 75.9437C8.40261 75.9586 8.42361 75.9542 8.44111 75.9306C8.51023 75.9052 8.58023 75.8798 8.64936 75.8544L8.64848 75.8553Z" fill="#252122"/>
<path d="M3.01247 34.8502C2.8191 35.6298 2.6301 36.2974 2.48922 36.9756C1.99222 39.3748 1.94497 41.7872 2.32647 44.2083C2.43322 44.8847 2.34222 45.1279 1.9546 45.1297C1.42435 45.1323 1.52147 44.6773 1.46897 44.3615C0.943973 41.201 1.16797 38.0868 2.06135 35.0165C2.09285 34.9071 2.11822 34.7627 2.19697 34.7067C2.3326 34.6104 2.53035 34.4932 2.66247 34.5291C2.81647 34.5711 2.92935 34.768 3.01247 34.8511V34.8502Z" fill="#272324"/>
<path d="M74.6112 17.7229C74.4765 17.5523 74.2778 17.4 74.2201 17.2058C74.1256 16.8882 74.4248 16.8304 74.6427 16.7902C75.9386 16.5495 77.2362 16.3229 78.5338 16.0919C79.233 15.9677 79.933 15.8504 80.6303 15.7183C80.9707 15.6544 81.2376 15.7437 81.2875 16.098C81.3365 16.4463 81.0486 16.4962 80.7747 16.5452C78.7937 16.9004 76.8136 17.2644 74.8335 17.6258C74.7915 17.6337 74.7495 17.6442 74.7075 17.6529C74.6751 17.6765 74.6427 17.6993 74.6112 17.7229Z" fill="#272324"/>
<path d="M76.3113 7.06272C76.2072 7.24035 76.153 7.37685 76.062 7.48185C75.0181 8.69197 73.9707 9.8986 72.9198 11.1035C72.7518 11.296 72.5532 11.4824 72.2942 11.2487C72.0361 11.016 72.0947 10.7587 72.303 10.519C73.122 9.57485 73.941 8.6316 74.76 7.68835C75.0172 7.3926 75.2622 7.08285 75.5422 6.81072C75.6332 6.72235 75.8432 6.66985 75.957 6.71272C76.0935 6.7626 76.1862 6.93235 76.3096 7.0636L76.3113 7.06272Z" fill="#252122"/>
<path d="M64.9204 9.36571C64.9204 9.42433 64.9204 9.48208 64.9204 9.54071C64.9213 9.82771 64.8067 10.0386 64.4961 10.029C64.1986 10.0202 64.0796 9.81983 64.0708 9.53021C64.0358 8.32446 63.9938 7.11783 63.9535 5.91208C63.9448 5.63646 63.9422 5.35996 63.9238 5.08433C63.9028 4.76671 64.0332 4.56371 64.3552 4.55846C64.6991 4.55233 64.7778 4.80696 64.7866 5.09308C64.8163 6.02321 64.8504 6.95333 64.8723 7.88346C64.8837 8.37696 64.8741 8.87133 64.8741 9.36571C64.8889 9.36571 64.9038 9.36571 64.9187 9.36571H64.9204Z" fill="#262223"/>
<path d="M9.41658 76.5798C10.3852 76.425 11.269 76.5798 12.1361 77.3341C11.8596 77.4365 11.6855 77.5572 11.5113 77.5572C10.163 77.5528 8.81371 77.5476 7.46708 77.4872C7.20283 77.4758 6.94821 77.2273 6.68921 77.0882C7.00946 77.1048 7.33146 77.111 7.65083 77.1416C7.77683 77.1538 7.89846 77.2195 8.02271 77.2571C8.85308 77.5082 9.09983 77.3883 9.41658 76.5807V76.5798Z" fill="#85BBE1"/>
<path d="M12.1239 75.3968C12.0391 75.3811 11.9542 75.3618 11.8684 75.3487C11.5849 75.3067 11.4266 75.1177 11.5132 74.8666C11.5692 74.7038 11.7757 74.5035 11.9376 74.4807C12.8091 74.3591 14.1758 75.2253 14.4348 76.0618C14.4856 76.2255 14.4024 76.4976 14.2826 76.6323C14.0419 76.9027 13.8153 76.6603 13.6036 76.5168C13.4487 75.9122 12.8511 75.4598 12.1231 75.3977L12.1239 75.3968Z" fill="#262224"/>
<path d="M8.32378 27.6444C8.42878 27.654 8.58453 27.6216 8.65191 27.6838C8.79366 27.815 8.96953 27.9926 8.97741 28.1589C8.98353 28.2753 8.73766 28.5054 8.59941 28.5098C7.96853 28.5308 7.40591 28.6743 6.92203 29.1065C6.69278 29.3113 6.43378 29.285 6.24216 29.0251C6.06278 28.781 6.19053 28.5736 6.37866 28.4188C6.93866 27.9559 7.57216 27.6645 8.32378 27.6444Z" fill="#272324"/>
<path d="M7.3569 26.0608C7.19327 26.2332 7.07515 26.4598 6.90015 26.5193C6.6289 26.6121 6.44602 26.4275 6.3734 26.1457C6.3384 26.0101 6.2229 25.8815 6.2264 25.7528C6.23165 25.556 6.25002 25.276 6.3734 25.1911C6.49065 25.1097 6.81615 25.1666 6.93077 25.2821C7.1119 25.4641 7.19327 25.745 7.3569 26.0617V26.0608Z" fill="#333030"/>
<path d="M12.1238 75.3967C12.8518 75.4597 13.4494 75.9112 13.6043 76.5159C13.5334 76.6244 13.4844 76.7696 13.3847 76.8309C13.291 76.8877 13.0653 76.907 13.0303 76.8536C12.7118 76.3794 12.4222 75.885 12.1247 75.3967H12.1238Z" fill="#87C0E7"/>
<path d="M10.8542 45.3745C10.9199 45.1987 10.9846 45.0228 11.0599 44.8207C11.7817 44.7349 12.515 44.6483 13.2482 44.5608C13.2482 44.6028 13.2474 44.6448 13.2465 44.6868C12.949 44.734 12.6515 44.7822 12.354 44.8285C12.0757 44.8714 11.899 45.0018 11.9314 45.3142C11.5726 45.3343 11.213 45.3544 10.8542 45.3737V45.3745Z" fill="#C2C4C5"/>
<path d="M44.12 13.5587C46.318 13.6121 48.516 13.6655 50.7149 13.7206C53.2489 13.7845 55.782 13.8475 58.316 13.9149C61.3732 13.9971 64.4305 14.0837 67.4877 14.1695C67.6006 14.173 67.7135 14.1922 67.8517 14.2062C66.1577 31.1042 64.4655 47.9804 62.7671 64.923C52.6119 64.6465 42.4881 64.37 32.2874 64.0926C33.984 47.1824 35.678 30.2992 37.3659 13.4695C38.569 13.4695 39.6969 13.4695 40.8256 13.4695C40.7941 13.865 40.7626 14.2605 40.7311 14.656C40.2805 14.6481 39.8299 14.6446 39.3792 14.6306C38.9234 14.6166 38.7589 14.74 38.7142 15.1757C38.4824 17.4499 38.2514 19.7231 38.0256 21.9972C37.7806 24.4595 37.5444 26.9235 37.2976 29.3857C36.9284 33.0651 36.553 36.7436 36.182 40.4221C35.7804 44.4051 35.3814 48.389 34.9806 52.372C34.7199 54.9646 34.4539 57.5564 34.1984 60.149C34.1476 60.6661 34.3095 60.8359 34.8301 60.849C37.8725 60.9269 40.9157 60.9951 43.9581 61.0782C47.7862 61.1824 51.6135 61.2979 55.4416 61.4072C57.1304 61.4554 58.8182 61.5044 60.507 61.549C61.1037 61.5647 61.2175 61.4606 61.277 60.8647C61.9525 54.1001 62.6262 47.3355 63.3035 40.5709C63.7296 36.3122 64.1627 32.0545 64.5924 27.7959C64.9494 24.2617 65.3064 20.7276 65.6607 17.1935C65.7027 16.7735 65.7272 16.3526 65.7675 15.9326C65.8069 15.5222 65.6117 15.3455 65.2145 15.335C63.7445 15.2974 62.2745 15.2527 60.8036 15.2116C57.1067 15.1075 53.4098 15.0016 49.713 14.901C47.9665 14.8537 46.2191 14.817 44.4717 14.7732C44.3562 14.7706 44.2407 14.7514 44.1261 14.74C44.1252 14.3462 44.1235 13.9525 44.1226 13.5587H44.12Z" fill="#87BFE6"/>
<path d="M69.2465 15.8206C69.4958 16.1592 69.7557 16.4899 69.9876 16.8399C70.0488 16.9327 70.0453 17.0849 70.0331 17.2066C69.7785 19.8289 69.5195 22.4513 69.2578 25.0728C68.8658 28.9989 68.4695 32.9251 68.0766 36.8521C67.7353 40.2716 67.3993 43.6911 67.0563 47.1106C66.7229 50.4426 66.3817 53.7746 66.0483 57.1066C65.7106 60.4823 65.3798 63.8589 65.0429 67.2347C65.0184 67.4771 64.9764 67.7177 64.9546 67.8726C63.3402 67.8726 61.7696 67.8944 60.1998 67.8673C58.1471 67.8314 56.0943 67.7579 54.0416 67.6984C50.3587 67.5926 46.6758 67.4806 42.9929 67.3799C40.2699 67.3047 37.5469 67.2321 34.8239 67.1848C34.4022 67.1778 34.1108 67.0938 33.8999 66.7018C33.7083 66.3466 33.4432 66.0316 33.2104 65.6991C33.7188 65.7244 34.2263 65.7542 34.7347 65.7743C36.2318 65.8347 37.7281 65.8916 39.2252 65.9493C41.4923 66.0368 43.7595 66.1243 46.0266 66.2127C47.5237 66.2704 49.0199 66.3291 50.5171 66.3877C52.7842 66.4752 55.0513 66.5679 57.3185 66.6484C58.6275 66.6957 59.9373 66.7228 61.2463 66.7622C61.3618 66.7657 61.4764 66.8007 61.5919 66.8007C62.3856 66.8042 63.1792 66.8024 63.9938 66.8024C64.0839 65.9283 64.1741 65.0769 64.259 64.2247C64.3841 62.9673 64.5005 61.7091 64.6308 60.4517C64.8216 58.6177 65.0281 56.7846 65.2162 54.9506C65.3781 53.3756 65.5198 51.7988 65.6791 50.2238C65.8418 48.6199 66.0186 47.0178 66.1822 45.4148C66.3108 44.1574 66.4237 42.8992 66.555 41.6418C66.7457 39.8078 66.9522 37.9747 67.1412 36.1407C67.3031 34.5657 67.4448 32.9889 67.6041 31.4139C67.7668 29.8101 67.9436 28.2079 68.1081 26.6049C68.2367 25.3476 68.3513 24.0893 68.4799 22.8319C68.6445 21.2281 68.8133 19.6259 68.9857 18.0229C69.0653 17.2888 69.159 16.5556 69.2465 15.8214V15.8206Z" fill="#87C0E7"/>
<path d="M56.4698 37.9004C56.5836 37.7105 56.6965 37.5197 56.8102 37.3299C56.9319 37.1356 57.1349 36.9519 57.1611 36.7454C57.3195 35.5081 57.4367 34.2656 57.5732 32.9741C58.1822 33.052 58.8078 33.1325 59.4938 33.22C59.3801 33.9104 59.269 34.5762 59.1614 35.243C58.9479 36.5634 58.7361 37.8837 58.5235 39.2041C58.5121 39.2759 58.5007 39.3476 58.4885 39.4194C58.275 40.6409 58.0387 40.8185 56.8006 40.7152C52.829 40.3836 48.8573 40.0564 44.8857 39.7265C44.8288 39.7221 44.772 39.7134 44.6626 39.7011C44.6232 39.0422 44.5838 38.3825 44.5427 37.679C45.3993 37.7857 46.1982 37.9091 47.0023 37.9809C49.6676 38.2189 52.3337 38.4385 54.9999 38.6634C55.3621 38.694 55.727 38.7439 56.0875 38.7237C56.2756 38.7132 56.5495 38.6109 56.6125 38.4717C56.6763 38.3326 56.5258 38.0955 56.469 37.9012L56.4698 37.9004Z" fill="#CDCFD0"/>
<path d="M43.5093 31.3378C43.574 30.8312 43.63 30.3893 43.6895 29.9194C48.0147 30.0384 52.3144 30.1566 56.65 30.2756V31.6948C52.282 31.5767 47.9158 31.4577 43.5093 31.3387V31.3378Z" fill="#88C1E9"/>
<path d="M40.2123 51.2844C39.9691 50.9598 39.7258 50.6352 39.4817 50.3105C41.1363 50.349 42.7909 50.3814 44.4456 50.4304C45.1132 50.4497 45.7791 50.5013 46.4458 50.5459C47.1476 50.5932 47.1554 50.5975 47.1108 51.2757C46.9997 52.9565 46.8886 54.6374 46.7503 56.3157C46.7354 56.4994 46.5377 56.6683 46.4257 56.8442C46.0039 56.4338 45.5813 56.0234 45.1587 55.6122C45.2138 54.3959 45.2742 53.1797 45.3197 51.9634C45.3346 51.5784 45.0502 51.4839 44.7387 51.4603C43.3938 51.357 42.0489 51.2538 40.7032 51.1663C40.5431 51.1558 40.3759 51.2424 40.2123 51.2844Z" fill="#88C1E9"/>
<path d="M60.22 23.1996C59.8227 23.2495 59.4272 23.3265 59.0282 23.3448C58.1217 23.3877 57.3508 23.1121 56.8267 22.3167C56.7935 22.266 56.713 22.2476 56.6535 22.2135C56.643 21.2842 57.238 20.4451 58.1051 20.1642C58.9915 19.8772 60.1771 20.2395 60.6505 21.0208C60.8806 21.4006 60.9637 21.8705 61.1125 22.3001C60.8167 22.6002 60.5201 22.9003 60.2243 23.2013H60.22V23.1996Z" fill="#CED0D1"/>
<path d="M51.7255 46.7185C51.3221 46.8051 50.9222 46.9285 50.5145 46.9696C49.6211 47.0606 48.9955 46.6336 48.5746 45.868C48.5344 45.7945 48.4757 45.7306 48.4259 45.6615C48.2929 44.8548 48.712 44.2965 49.3044 43.8634C49.9247 43.4093 50.8391 43.4451 51.4779 43.8783C52.3485 44.468 52.5515 45.5705 51.9451 46.414C51.9119 46.4674 51.8777 46.5208 51.8436 46.5733C51.8042 46.6214 51.7649 46.6695 51.7246 46.7185H51.7255Z" fill="#CFD1D2"/>
<path d="M13.2473 44.6877C13.2473 44.6457 13.2482 44.6037 13.2491 44.5617C14.5703 44.42 15.8916 44.2782 17.2137 44.1365L17.2268 44.2791C15.9003 44.4156 14.5738 44.5512 13.2482 44.6877H13.2473Z" fill="#A5A6A7"/>
<path d="M56.0357 54.8553C55.5518 55.0696 55.5063 55.5281 55.4862 55.9534C55.4687 56.3218 55.53 56.705 55.6218 57.0646C55.7041 57.3866 55.6035 57.5853 55.3313 57.692C55.0312 57.8093 54.8816 57.6229 54.7897 57.3534C54.4555 56.3725 54.4275 55.4109 55.0496 54.5324C55.2123 54.3023 55.4941 54.0433 55.7478 54.0118C56.6797 53.8989 57.6247 53.8061 58.5592 53.8429C59.3283 53.8735 59.7343 54.3504 59.6801 55.1151C59.6232 55.9026 59.4648 56.6945 59.2478 57.4549C59.0702 58.077 58.5837 58.2503 57.9362 58.105C57.6868 58.049 57.4138 58.091 57.1697 58.0228C56.9903 57.9729 56.7357 57.8381 56.7068 57.7008C56.6762 57.5555 56.8398 57.2615 56.9798 57.2134C57.2231 57.1294 57.5241 57.139 57.784 57.1915C58.3895 57.3131 58.4122 57.3158 58.5688 56.6893C58.6511 56.2658 58.7648 55.8449 58.8042 55.4179C58.8322 55.1186 58.7876 54.7153 58.3991 54.7144C57.6107 54.7118 56.8223 54.8028 56.0348 54.8561L56.0357 54.8553Z" fill="#2C2829"/>
<path d="M49.9894 54.8937C49.558 55.4178 49.5965 56.0225 49.7243 56.6253C49.8582 57.2571 49.817 57.5091 49.4609 57.5502C48.9123 57.6141 48.9455 57.1215 48.8589 56.8108C48.6699 56.1371 48.7242 55.4555 48.9674 54.7975C49.1363 54.339 49.4312 53.9137 49.9168 53.8586C50.9047 53.7483 51.9074 53.6827 52.8997 53.7186C53.513 53.7405 53.8954 54.2016 53.8438 54.8123C53.7729 55.6576 53.6303 56.509 53.3984 57.3236C53.2173 57.9615 52.7658 58.105 52.1183 57.9553C51.8715 57.8985 51.609 57.8932 51.3535 57.8958C51.0674 57.8985 50.8723 57.7558 50.8907 57.4995C50.902 57.3332 51.0657 57.104 51.2188 57.0383C51.4157 56.9543 51.6755 56.9718 51.8987 57.0068C52.6118 57.1188 52.61 57.1293 52.7859 56.4337C52.8524 56.0356 52.9522 55.6392 52.9775 55.2385C53.0117 54.6925 52.8069 54.4921 52.2618 54.5043C51.6974 54.5166 51.1313 54.5376 50.5713 54.6032C50.3692 54.6268 50.1828 54.7922 49.9894 54.8928V54.8937Z" fill="#2A2728"/>
<path d="M47.7267 34.7084C49.636 34.8632 51.9232 35.0487 54.2096 35.2342C54.2674 35.2386 54.326 35.2421 54.3837 35.25C54.6987 35.2955 54.8326 35.4906 54.8169 35.796C54.7994 36.1311 54.5491 36.1407 54.312 36.1224C53.675 36.0734 53.0406 35.9859 52.4027 35.9518C49.9659 35.8223 47.529 35.7067 45.0912 35.5869C45.0186 35.5834 44.946 35.5843 44.8734 35.5799C44.5785 35.5598 44.3729 35.3821 44.4411 35.11C44.4822 34.9473 44.7351 34.7337 44.9014 34.7259C45.7142 34.6865 46.5306 34.7075 47.7267 34.7075V34.7084Z" fill="#2A2728"/>
<path d="M46.2505 33.058C47.4817 33.1473 48.7128 33.2348 49.9439 33.3258C50.272 33.3503 50.5065 33.4982 50.4925 33.8595C50.4785 34.2349 50.195 34.2314 49.9203 34.2165C48.1659 34.1194 46.4107 34.0223 44.6563 33.9225C44.3623 33.9059 44.1374 33.7825 44.1427 33.4535C44.1479 33.1158 44.392 33.0213 44.6808 33.0178C45.2032 33.0125 45.7264 33.016 46.2488 33.016C46.2488 33.03 46.2497 33.044 46.2505 33.058Z" fill="#2C2829"/>
<path d="M49.9895 54.8938C50.1829 54.7932 50.3693 54.6278 50.5714 54.6042C51.1314 54.5386 51.6975 54.5176 52.2619 54.5053C52.807 54.494 53.0126 54.6935 52.9776 55.2395C52.9523 55.6402 52.8525 56.0366 52.786 56.4347C52.1796 56.4627 51.5724 56.5082 50.966 56.5135C50.2467 56.5187 50.049 56.3166 50.0026 55.5895C49.9878 55.3585 49.993 55.1257 49.9895 54.8938Z" fill="#89C2E9"/>
<path d="M56.0357 54.8552C56.8241 54.8027 57.6125 54.7108 58.4 54.7134C58.7876 54.7152 58.8331 55.1177 58.8051 55.4169C58.7648 55.8439 58.652 56.2648 58.5697 56.6883C57.8338 56.6586 57.0988 56.6157 56.3621 56.6043C55.9972 56.5991 55.8511 56.4074 55.8721 56.0916C55.9001 55.6777 55.978 55.2664 56.0348 54.8543L56.0357 54.8552Z" fill="#D0D2D3"/>
<path d="M53.4413 33.4896C53.9086 33.5299 54.2691 33.5132 54.5963 33.6095C54.7634 33.6594 54.9463 33.8947 54.9883 34.0776C55.0627 34.4022 54.7643 34.523 54.5237 34.5134C54.0477 34.4941 53.5673 34.432 53.1044 34.3217C52.9758 34.2911 52.8253 34.0234 52.8297 33.8685C52.8332 33.739 53.0318 33.5859 53.1771 33.501C53.2751 33.4441 53.4326 33.4905 53.4413 33.4905V33.4896Z" fill="#2C2829"/>
<path d="M51.5732 34.3058C51.2906 34.3364 50.9966 34.2647 50.9861 33.8867C50.9756 33.5131 51.2775 33.4352 51.5916 33.4142C52.1542 33.3766 52.3949 33.4947 52.4071 33.8254C52.4185 34.1308 52.1525 34.2918 51.5732 34.3058Z" fill="#2C2829"/>
<path d="M40.2123 51.2843C40.3759 51.2423 40.5422 51.1557 40.7032 51.1662C42.0489 51.2537 43.3938 51.3569 44.7387 51.4602C45.0511 51.4838 45.3346 51.5783 45.3197 51.9633C45.2742 53.1795 45.2138 54.3958 45.1587 55.612C45.0222 55.6838 44.8866 55.815 44.7474 55.8185C43.7604 55.8474 42.7734 55.8535 41.7856 55.8597C41.4496 55.8614 41.2063 55.7302 41.2387 55.346C41.2719 54.9514 41.5764 54.9768 41.8591 54.9768C42.6702 54.9785 43.4813 54.9768 44.3659 54.9768V52.2993C43.2468 52.2118 42.0944 52.1208 40.8222 52.021C40.7294 52.8663 40.6367 53.68 40.5536 54.4938C40.5343 54.681 40.5448 54.8727 40.5518 55.0617C40.5632 55.3513 40.4074 55.5167 40.1414 55.5193C39.8623 55.5228 39.6567 55.3565 39.6803 55.0564C39.7573 54.0887 39.8413 53.12 39.9542 52.1558C39.9892 51.8583 40.1231 51.573 40.2114 51.2825L40.2123 51.2843Z" fill="#2A2728"/>
</svg>
