<svg width="77" height="73" viewBox="0 0 77 73" fill="none" xmlns="http://www.w3.org/2000/svg">
<path d="M7.85561 46.5075C7.76898 46.3237 7.60098 46.1295 7.62286 45.9597C7.63773 45.8442 7.90811 45.7051 8.08136 45.6754C10.387 45.2851 12.6952 44.9132 15.0035 44.5344C15.0875 44.5204 15.1671 44.488 15.2721 44.4574C14.6351 42.9025 13.9745 41.3782 13.3821 39.8269C12.3925 37.2325 11.4449 34.6224 10.4841 32.0166C10.324 31.5835 10.1691 31.1469 10.0466 30.7024C9.96436 30.404 9.79811 30.3524 9.51461 30.3532C6.80211 30.3646 4.08961 30.3602 1.37711 30.3594C0.531858 30.3594 0.438232 30.2675 0.438232 29.4424C0.438232 24.7611 0.438232 20.0799 0.438232 15.3986C0.438232 14.5717 0.518733 14.4886 1.32636 14.4886C6.05136 14.4886 10.7764 14.4886 15.5005 14.4886C16.2224 14.4886 16.3081 14.5735 16.3081 15.2875C16.3081 20.0562 16.3081 24.825 16.3081 29.5929C16.3081 30.2281 16.1812 30.3576 15.5469 30.3576C14.0016 30.3594 12.4572 30.3576 10.9094 30.3576C11.0852 31.5572 15.077 42.0397 16.2302 44.3296C17.1892 44.1896 18.1614 44.0435 19.1352 43.9061C20.7461 43.6786 22.357 43.4476 23.9696 43.2385C24.3529 43.1886 24.5629 43.0749 24.6609 42.6479C25.4291 39.3019 26.3986 36.0075 27.6201 32.8032C28.7874 29.7425 30.1182 26.743 31.4229 23.7356C31.9461 22.5299 32.5901 21.3757 33.1772 20.198C33.2402 20.0711 33.2971 19.9416 33.3907 19.7412C32.8684 19.7412 32.4099 19.7412 31.9514 19.7412C31.149 19.7412 30.3475 19.7412 29.5451 19.7412C28.923 19.7412 28.846 19.6642 28.846 19.0325C28.846 14.0012 28.846 8.96998 28.846 3.9396C28.846 3.09348 28.8416 2.24823 28.8477 1.4021C28.8512 0.906854 28.9799 0.780854 29.4725 0.780854C35.3639 0.779104 41.2552 0.779104 47.1466 0.780854C47.7197 0.780854 47.8344 0.906853 47.8344 1.5176C47.8344 6.53398 47.8405 11.5504 47.823 16.5667C47.8221 16.9342 47.9367 17.1434 48.2211 17.3411C50.9152 19.2154 53.6041 21.0984 56.2921 22.9822C57.3325 23.7111 58.3659 24.4487 59.4482 25.2152C59.457 25.0481 59.4684 24.9256 59.4684 24.804C59.4692 23.4915 59.4684 22.179 59.4692 20.8665C59.4692 20.2111 59.562 20.1192 60.2357 20.1184C62.0006 20.1166 63.7646 20.1184 65.5295 20.1184C69.0732 20.1184 72.617 20.1184 76.1607 20.1184C76.9167 20.1184 76.9719 20.1752 76.9719 20.9479C76.9719 26.2556 76.9719 31.5642 76.9719 36.872C76.9719 37.5431 76.8835 37.6341 76.2299 37.6341C70.8924 37.6341 65.5549 37.6341 60.2182 37.6341C59.5401 37.6341 59.4701 37.5632 59.4701 36.8807C59.4701 33.4096 59.4701 29.9394 59.4701 26.4682V26.1121C59.2094 26.0001 58.9696 25.9406 58.7815 25.8094C55.5457 23.5484 52.317 21.2769 49.0856 19.0097C48.6901 18.7324 48.2902 18.462 47.8274 18.1435C47.8274 18.5635 47.8361 18.8951 47.8247 19.2267C47.8134 19.5549 47.6349 19.7334 47.2997 19.7395C47.1685 19.7421 47.0372 19.7412 46.906 19.7412C42.8959 19.7412 38.8857 19.7456 34.8747 19.7334C34.5387 19.7325 34.3594 19.8217 34.2089 20.1324C33.172 22.27 32.0529 24.3691 31.0781 26.5339C29.6186 29.7766 28.342 33.0981 27.3007 36.501C26.6839 38.5152 26.1466 40.554 25.5752 42.5814C25.5411 42.7039 25.5227 42.8307 25.4842 43.0206C26.2752 42.927 27.0207 42.8412 27.7662 42.7502C28.6167 42.647 29.4664 42.5376 30.316 42.4335C30.5627 42.4029 30.7832 42.4352 30.8917 42.7039C30.8917 43.1492 30.6231 43.2892 30.2259 43.3365C28.6675 43.522 27.11 43.7189 25.5542 43.9262C25.4256 43.9429 25.234 44.0426 25.2042 44.1424C25.0826 44.5519 25.0117 44.9771 24.9146 45.4339C25.0564 45.4225 25.1421 45.4216 25.2252 45.4076C26.8002 45.1416 28.3761 44.8809 29.9485 44.6035C30.6984 44.4714 30.7307 44.4766 31.0965 45.1644C31.8954 46.6659 32.6969 48.1656 33.4992 49.6645C34.4731 51.4845 35.447 53.3045 36.4261 55.121C36.5801 55.4062 36.6414 55.6617 36.3482 55.8918C35.9344 56.0931 35.7655 55.7982 35.6115 55.5112C34.8975 54.1804 34.1949 52.8425 33.4809 51.5116C32.451 49.591 31.4097 47.6765 30.3851 45.7532C30.2731 45.5432 30.1699 45.4531 29.9231 45.496C28.293 45.7812 26.6611 46.0577 25.0292 46.3281C24.7772 46.3701 24.66 46.4786 24.6267 46.7385C24.583 47.0841 24.5016 47.4254 24.4202 47.7649C24.3599 48.0177 24.2137 48.1988 23.9232 48.1245C23.6511 48.0545 23.5094 47.8646 23.5601 47.5732C23.617 47.2486 23.6861 46.9266 23.7587 46.5547C21.7349 46.903 19.7399 47.2469 17.6775 47.6021C18.3626 49.017 19.0197 50.3723 19.676 51.7286C19.7267 51.8336 19.8431 51.9631 19.8142 52.0384C19.7434 52.2239 19.6436 52.4487 19.487 52.5388C19.2306 52.6876 19.0679 52.489 18.9541 52.2545C18.3049 50.907 17.6512 49.5612 16.9976 48.2155C16.9285 48.072 16.8532 47.9311 16.7649 47.757C15.3806 47.995 14.0016 48.2312 12.6235 48.4684C15.0175 52.3516 16.6879 56.5542 18.8264 60.5687C19.361 60.4069 19.9131 60.2476 20.4591 60.0726C23.9092 58.9666 27.4154 58.0689 30.9495 57.2796C31.968 57.0521 32.9917 56.8474 34.0137 56.6365C34.3725 56.5621 34.6516 56.6409 34.7321 57.0539C34.698 57.3531 34.5011 57.4424 34.2307 57.5027C31.6967 58.068 29.1496 58.5851 26.6384 59.2361C24.0466 59.9081 21.4872 60.7035 18.9217 61.4743C18.4737 61.6091 18.2462 61.5024 18.0581 61.1051C17.5935 60.1199 17.1105 59.1434 16.6327 58.1642C16.0395 56.9497 15.4524 55.7326 14.8477 54.5242C13.8275 52.4837 12.9114 50.3855 11.535 48.541C11.2182 48.1166 11.3486 47.799 11.8754 47.7036C12.746 47.5452 13.6201 47.4044 14.4916 47.2521C15.112 47.1436 15.7306 47.0281 16.3772 46.9109C16.1629 46.4104 15.9922 45.9615 15.7735 45.538C15.7192 45.4339 15.4979 45.3402 15.371 45.3604C13.4924 45.6535 11.6181 45.9729 9.73948 46.2712C9.11298 46.371 8.47948 46.427 7.84948 46.5031L7.85561 46.5075ZM46.906 1.70223H29.7665V18.8417H46.906V1.70223ZM76.0811 21.0362H60.3714V36.7372H76.0811V21.0362ZM1.37623 15.4187V29.4214H15.371V15.4187H1.37623ZM16.5855 45.1644C16.7964 45.6386 16.9976 46.0551 17.1647 46.4847C17.2601 46.7289 17.4036 46.7674 17.6372 46.7271C19.6497 46.3754 21.6649 46.0341 23.6765 45.6771C23.7937 45.6561 23.96 45.5502 23.988 45.4514C24.107 45.0252 24.1822 44.5869 24.2916 44.0706C21.6859 44.4399 19.1554 44.7995 16.5864 45.1635L16.5855 45.1644Z" fill="#272324"/>
<path d="M7.85552 46.5073C8.48552 46.4312 9.11902 46.3752 9.74552 46.2754C11.6233 45.9771 13.4975 45.6577 15.377 45.3646C15.503 45.3444 15.7253 45.4381 15.7795 45.5422C15.9983 45.9657 16.1689 46.4137 16.3833 46.9151C15.7366 47.0323 15.1171 47.1478 14.4976 47.2563C13.6261 47.4086 12.752 47.5503 11.8814 47.7078C11.3546 47.8032 11.2243 48.1208 11.541 48.5452C12.9174 50.3888 13.8335 52.4879 14.8538 54.5284C15.4584 55.7368 16.0455 56.9539 16.6388 58.1684C17.1165 59.1476 17.5995 60.1241 18.0641 61.1093C18.2514 61.5066 18.4789 61.6133 18.9278 61.4786C21.4924 60.7077 24.0526 59.9123 26.6444 59.2403C29.1565 58.5884 31.7036 58.0722 34.2368 57.5069C34.5071 57.4466 34.704 57.3582 34.7381 57.0581C35.1284 57.1333 35.2596 57.4273 35.3375 57.7668C34.4818 57.9304 35.0584 58.6252 34.8493 59.0644C34.1213 59.1231 33.3714 59.1668 32.6259 59.2526C32.415 59.2771 32.219 59.4214 32.016 59.5116C31.8279 59.5142 31.6398 59.5159 31.4516 59.5186C31.2521 59.4582 31.0491 59.3348 30.8549 59.3479C28.999 59.4696 27.3759 60.1258 26.1351 61.5538C25.8656 61.8636 25.5874 62.0359 25.1884 62.1409C23.8295 62.4971 22.4838 62.9048 21.1336 63.2977C20.48 63.4876 19.8281 63.6853 19.1763 63.8822C18.9085 63.9636 18.7414 64.1307 18.7904 64.4282C18.8376 64.7178 19.0398 64.7712 19.3075 64.7712C19.4624 64.7712 19.6444 64.8429 19.7678 64.9409C21.712 66.4774 23.7429 67.8862 25.8761 69.1462C26.1334 69.2984 26.3889 69.3431 26.5578 69.0569C26.7179 68.7866 26.6041 68.5608 26.339 68.3989C25.8193 68.0813 25.3048 67.7549 24.8025 67.4417C25.5078 66.9596 26.1701 67.0033 26.773 67.6184C26.8386 67.6858 26.9165 67.7637 26.9358 67.8486C27.0653 68.4331 27.2333 68.5136 27.7644 68.2484C28.6989 67.7821 29.6351 67.3271 30.6913 67.1818C30.8251 67.1634 31.0211 66.9377 31.0246 66.8047C31.0281 66.6428 30.896 66.4066 30.7534 66.3304C30.5985 66.2473 30.3483 66.2587 30.1689 66.3182C29.5511 66.5221 28.9404 66.7513 28.3375 66.9963C27.7233 67.2457 27.6174 67.2326 27.0836 66.6761C27.4336 66.5562 27.7749 66.4494 28.1074 66.3208C28.3821 66.2149 28.4863 65.9944 28.3734 65.7232C28.2649 65.4633 28.0479 65.4274 27.7898 65.5132C27.3094 65.6724 26.829 65.8404 26.3381 65.9612C26.1701 66.0023 25.9383 65.9629 25.7895 65.8719C25.2584 65.5464 24.7509 65.1824 24.2346 64.8324C23.7385 64.4956 23.2424 64.1578 22.685 63.7789C23.448 63.5584 24.1235 63.3633 24.9224 63.1332C24.7588 63.3502 24.6809 63.4526 24.6048 63.5558C24.1769 64.1447 24.2504 64.4142 24.9215 64.7178C24.9609 64.7353 25.0038 64.7458 25.044 64.7616C25.8971 65.0958 26.7021 64.8657 27.4984 64.5507C28.0558 64.3302 28.6131 64.1079 29.2309 64.2383C29.5555 64.3066 29.776 64.4842 29.8303 64.8394C29.8871 65.2096 29.5931 65.1824 29.3893 65.3023C29.2405 65.3907 29.1049 65.6164 29.0909 65.7914C29.0708 66.0417 29.272 66.1843 29.5319 66.1449C29.7594 66.1108 29.9816 66.0382 30.2056 65.9831C31.1191 66.1467 32.0326 66.0959 32.9453 65.9813C33.1045 66.3716 33.087 66.9263 33.7511 66.8458C33.7765 66.9867 33.773 67.1407 33.8325 67.2649C34.039 67.6946 33.8623 67.9002 33.4493 68.0043C33.2839 68.0463 33.1255 68.1181 32.9636 68.1767C32.7711 67.8162 32.5113 67.7654 32.135 67.9273C30.2721 68.7297 28.39 69.4901 26.5385 70.3169C26.0546 70.5331 25.7405 70.4631 25.3345 70.1734C22.6605 68.2659 19.9699 66.3838 17.2845 64.4929C17.0579 64.3337 16.826 64.2602 16.6353 64.5192C16.4489 64.7721 16.511 65.0153 16.7551 65.2052C16.9494 65.3557 17.1506 65.4974 17.3519 65.6392C19.9261 67.4609 22.4986 69.2853 25.0781 71.0983C25.3214 71.2698 25.6154 71.3687 25.8858 71.5017V72.9612C25.4903 72.7529 25.1753 72.5963 24.869 72.4239C24.414 72.1667 23.9678 71.8928 23.5128 71.6364C23.4279 71.5883 23.3185 71.5848 23.2205 71.5612C23.3806 71.2418 23.2686 71.0056 22.9991 70.8122C21.5108 69.7447 20.0189 68.6816 18.5384 67.6044C17.7518 67.0322 16.9721 66.4494 16.2144 65.8396C15.8723 65.5639 15.7226 65.1851 15.839 64.7134C15.9029 64.4544 15.8688 64.1709 15.8784 63.8988C16.091 63.8822 16.4261 63.9391 16.4883 63.8332C16.5898 63.6634 16.5845 63.3537 16.4961 63.1603C15.9248 61.9047 15.3674 60.6386 14.7164 59.4232C12.5621 55.4034 10.3685 51.4047 8.19589 47.3954C8.05852 47.1417 7.87039 47.0376 7.59302 47.0726C7.67964 46.8844 7.76627 46.6972 7.85202 46.5091L7.85552 46.5073Z" fill="#CFD1D2"/>
<path d="M38.0464 35.3573C37.6842 35.2199 37.2808 35.1447 36.9684 34.9338C36.2938 34.4779 36.3192 33.77 36.3901 33.1348C36.8424 33.1864 37.2764 33.329 37.6746 33.2599C38.3754 33.1383 38.6729 32.706 38.6423 32.0043C38.5574 30.0487 39.9872 28.7012 41.7433 28.2803C43.7637 27.7955 45.623 28.2995 47.4177 29.2183C48.5893 29.8185 49.5973 30.6095 50.355 31.6893C51.2195 32.9204 51.6614 34.2653 51.1994 35.7633C50.8363 36.941 49.9963 37.7688 49.018 38.4644C48.6042 38.7584 48.1693 39.0253 47.7449 39.3044C47.6635 39.1863 47.5726 39.0734 47.5026 38.9483C45.9941 36.2708 42.9237 34.757 39.8585 35.1718C39.2574 35.2532 38.6519 35.2969 38.0482 35.3573H38.0464Z" fill="#88C2EA"/>
<path d="M36.3516 55.8953C36.6438 55.6651 36.5826 55.4096 36.4295 55.1244C35.4495 53.3079 34.4765 51.4879 33.5026 49.6679C32.7002 48.169 31.8987 46.6684 31.0998 45.1678C30.7341 44.48 30.7017 44.4748 29.9518 44.6069C28.3786 44.8843 26.8027 45.145 25.2286 45.411C25.1455 45.425 25.0597 45.4259 24.918 45.4373C25.0151 44.9805 25.086 44.5553 25.2076 44.1458C25.2373 44.0452 25.429 43.9463 25.5576 43.9296C27.1133 43.7231 28.6708 43.5263 30.2292 43.3399C30.6265 43.2926 30.896 43.1527 30.8951 42.7073C31.1226 42.7379 31.3492 42.7685 31.5767 42.7991C31.6275 42.9348 31.6642 43.0783 31.7316 43.2052C33.8963 47.2914 36.0655 51.3759 38.2302 55.4622C38.2827 55.561 38.3335 55.6774 38.3343 55.7859C38.3431 56.5296 38.7815 56.7948 39.4412 56.4465C39.6678 56.8429 39.8953 57.2393 40.1928 57.7608C39.4342 57.7608 38.8261 57.71 38.2293 57.7748C37.5845 57.8439 37.238 57.6006 37.007 57.0161C36.8495 56.618 36.5747 56.2663 36.3525 55.8944L36.3516 55.8953Z" fill="#CFD1D2"/>
<path d="M54.9785 44.1599C56.1125 44.1319 56.7688 44.6087 57.2999 45.2466C59.14 47.4586 60.9924 49.6636 62.7713 51.9246C65.0839 54.8646 67.1568 57.9761 69.1605 61.1331C69.3355 61.4087 69.4274 61.6791 69.101 61.8847C68.772 62.093 68.5708 61.8795 68.3967 61.6109C67.4622 60.1732 66.5408 58.726 65.5809 57.305C63.2744 53.8925 60.7439 50.6497 58.0752 47.5137C57.5948 46.9494 57.1442 46.357 56.6332 45.8215C55.7818 44.9281 55.066 44.7907 53.9784 45.391C52.2748 46.3307 50.5668 47.2722 48.934 48.3266C47.3617 49.3425 45.8838 50.5019 44.3639 51.5982C44.293 51.649 44.2187 51.7487 44.1522 51.7426C43.9299 51.7234 43.6499 51.7365 43.5038 51.6087C43.2798 51.4136 43.4408 51.1879 43.6482 51.0356C45.042 50.0127 46.4123 48.9557 47.8359 47.9766C49.7399 46.6667 51.7419 45.5126 53.841 44.5387C54.2689 44.3401 54.7397 44.236 54.9768 44.159L54.9785 44.1599Z" fill="#262223"/>
<path d="M33.753 66.8449C33.0888 66.9254 33.1063 66.3715 32.9471 65.9804C32.9305 65.8973 32.9191 65.8133 32.8955 65.7319C32.2978 63.7011 32.0012 61.6282 32.0143 59.5107C32.2173 59.4214 32.4142 59.2762 32.6242 59.2517C33.3697 59.1659 34.1196 59.1222 34.8476 59.0636C35.0567 58.6243 34.4801 57.9304 35.3358 57.7659C35.9693 57.9943 35.6762 58.5797 35.8197 59.0469C36.1671 59.0312 36.5232 58.9962 36.8793 59.0032C38.261 59.0286 39.6435 59.0566 41.0251 59.1091C41.3138 59.1204 41.4258 59.0356 41.5256 58.7696C42.51 56.1428 43.9143 53.7619 45.7413 51.6313C45.8455 51.5106 45.9172 51.3303 46.0467 51.2699C46.2305 51.1851 46.5026 51.0941 46.6496 51.1719C46.8858 51.2971 46.9138 51.5727 46.7248 51.8107C46.3101 52.3339 45.8813 52.8467 45.478 53.3778C44.1033 55.1864 43.0481 57.1709 42.2667 59.3016C41.9972 60.0357 41.9823 60.0129 41.2045 60.0033C39.4352 59.9806 37.6651 59.9963 35.8486 59.9963C35.8993 60.9658 35.9492 61.9624 36.0043 62.9591C36.0358 63.5252 36.077 64.0904 36.1093 64.6557C36.1251 64.9313 36.1093 65.2052 35.7506 65.2419C35.3787 65.2795 35.2343 65.0556 35.216 64.7196C35.1346 63.2382 35.055 61.7568 34.9745 60.2754C34.9701 60.1905 34.9631 60.1057 34.9526 59.9604C34.2692 60.0068 33.6112 60.0523 32.878 60.1022C32.9541 60.9256 32.9672 61.7253 33.1133 62.4997C33.3461 63.7343 33.6523 64.9567 33.9621 66.1756C34.0391 66.4792 34.0128 66.6787 33.7538 66.8432L33.753 66.8449Z" fill="#262223"/>
<path d="M49.2395 63.422C47.2051 65.5054 44.6886 66.3393 41.9499 66.5869C40.4589 66.7216 38.9548 66.7085 37.4559 66.7601C37.3544 66.7636 37.252 66.7549 37.1514 66.7426C36.8819 66.7085 36.7174 66.565 36.7401 66.2806C36.762 66.0041 36.9221 65.8851 37.2074 65.8816C38.372 65.8659 39.5393 65.8694 40.7013 65.8046C42.5204 65.7031 44.3141 65.4406 45.9845 64.6514C47.2489 64.0538 48.2893 63.2243 49.1398 62.0666C50.601 60.0769 51.3378 57.8614 51.5198 55.4481C51.6195 54.1234 51.3098 52.8704 50.3481 51.8659C49.9553 51.4555 49.4653 51.2158 48.907 51.1116C48.7933 51.0906 48.6288 51.0941 48.5798 51.0233C48.4599 50.85 48.3496 50.6426 48.333 50.4414C48.3278 50.3793 48.6541 50.2051 48.8055 50.2296C50.4295 50.4913 51.4891 51.4581 52.0631 52.9675C52.7054 54.6571 52.4455 56.3468 51.9756 58.018C51.5539 59.5169 50.993 60.9598 50.132 62.2731C50.048 62.4018 50.0156 62.6013 50.0384 62.757C50.1373 63.4334 50.2668 64.1045 50.3814 64.7783C50.4059 64.9209 50.4724 65.0985 50.4155 65.2026C50.3236 65.3724 50.1644 65.5658 49.9972 65.6104C49.8949 65.6375 49.6341 65.4275 49.5991 65.2858C49.4513 64.6943 49.3629 64.0879 49.2395 63.4211V63.422Z" fill="#262223"/>
<path d="M43.23 27.0545C41.6104 27.0912 40.1063 27.4368 38.862 28.5376C37.9232 29.3688 37.4515 30.3943 37.6677 31.6736C37.721 31.9886 37.6292 32.2423 37.2958 32.3036C36.965 32.3648 36.8487 32.1583 36.804 31.8477C36.5424 30.0312 37.315 28.6601 38.6538 27.5427C39.6119 26.743 40.7774 26.4 41.9823 26.2915C44.7692 26.0421 47.3977 26.5855 49.7243 28.1955C51.9984 29.7696 53.2295 31.9676 53.2155 34.7527C53.2059 36.7171 52.3825 38.3437 50.8102 39.56C50.6159 39.7105 50.4033 39.819 50.202 39.5731C49.9789 39.3027 50.083 39.0691 50.293 38.8407C50.7218 38.3743 51.217 37.9465 51.5513 37.4188C52.6284 35.7161 52.6617 33.897 51.8505 32.0962C50.5984 29.3155 48.2543 27.9435 45.3895 27.3283C44.6825 27.1761 43.9502 27.1428 43.23 27.0545Z" fill="#252122"/>
<path d="M44.6406 46.8355C43.5407 46.9405 42.5169 46.8066 41.5369 46.3665C40.1264 45.733 39.1018 44.7119 38.4709 43.3084C38.3388 43.0161 38.1857 42.9321 37.8829 42.9671C37.5373 43.0074 37.1838 42.9741 36.8364 43.0065C36.5442 43.0336 36.3736 42.8963 36.3281 42.646C36.2764 42.3608 36.4462 42.1455 36.7279 42.1263C37.3956 42.0808 38.0658 42.0598 38.7343 42.0703C38.8603 42.072 39.0651 42.247 39.0939 42.3739C39.5734 44.4879 41.8817 46.0498 44.0184 45.964C44.1497 45.9588 44.2853 45.9413 44.4104 45.9684C44.6021 46.0104 44.7867 46.0865 45.0378 46.1696C45.3257 45.8135 45.6626 45.3664 46.0309 44.9473C47.2183 43.5954 48.6691 42.5603 50.1618 41.5846C50.6912 41.239 51.2398 40.8969 51.8252 40.6711C52.9067 40.2538 53.7694 40.6344 54.2586 41.6888C54.4336 42.0659 54.5359 42.4798 54.6409 42.8849C54.7223 43.199 54.5412 43.3941 54.2463 43.4484C53.9523 43.5026 53.8429 43.304 53.7852 43.0459C53.7187 42.7493 53.6557 42.4465 53.5384 42.1683C53.2269 41.4306 52.7151 41.2023 52.0028 41.5488C51.3571 41.8629 50.7332 42.2374 50.1408 42.6451C48.7513 43.5989 47.4091 44.6113 46.3398 45.9413C45.5243 46.9563 44.9696 48.0894 44.7193 49.366C44.6624 49.6556 44.5828 49.8858 44.2276 49.8158C43.8557 49.7423 43.7656 49.4596 43.8548 49.1534C44.0482 48.4893 44.2836 47.8374 44.5041 47.1811C44.5391 47.0753 44.5854 46.9738 44.6397 46.8355H44.6406Z" fill="#252122"/>
<path d="M38.0464 35.3573C38.6502 35.296 39.2557 35.2523 39.8568 35.1718C42.9219 34.757 45.9923 36.2708 47.5008 38.9483C47.5708 39.0734 47.6618 39.1863 47.7432 39.3044C47.8639 39.5984 47.989 39.8915 48.1045 40.1881C48.2017 40.4366 48.234 40.6746 47.9147 40.7945C47.6084 40.9091 47.4037 40.7726 47.2724 40.5075C47.1123 40.1846 47.0073 39.8276 46.8122 39.5293C46.4639 38.999 46.0807 38.4889 45.6764 37.9989C45.5784 37.8799 45.2914 37.7766 45.1864 37.8361C45.0149 37.9333 44.9099 38.1616 44.8023 38.3489C44.7664 38.411 44.8041 38.5195 44.8172 38.6053C44.8574 38.88 44.7594 39.0646 44.475 39.111C44.1994 39.1556 44.0341 39.02 43.9641 38.7566C43.8127 38.1853 43.9719 37.6988 44.3744 37.2814C44.4339 37.2201 44.5022 37.1685 44.5905 37.0924C43.2772 36.2349 41.8711 35.94 40.3757 36.0266C39.5068 36.0774 38.6406 36.2148 37.7717 36.2244C36.6561 36.2375 35.753 35.7353 35.2254 34.7518C34.7048 33.7823 34.7468 32.7716 35.3383 31.8153C35.3987 31.7173 35.4582 31.5685 35.5448 31.5466C35.7329 31.4985 35.9709 31.4521 36.124 31.5309C36.2212 31.5808 36.2579 31.8713 36.2194 32.0288C36.1661 32.2449 35.9841 32.4269 35.9123 32.6421C35.4206 34.1113 36.4609 35.4273 38.0456 35.3555L38.0464 35.3573Z" fill="#252122"/>
<path d="M25.8875 71.5009C25.6171 71.3679 25.3231 71.2681 25.0798 71.0975C22.4995 69.2845 19.927 67.4601 17.3536 65.6384C17.1532 65.4966 16.9511 65.3549 16.7568 65.2044C16.5127 65.0154 16.4506 64.7712 16.637 64.5184C16.8277 64.2594 17.0596 64.3329 17.2862 64.4921C19.9707 66.3839 22.6622 68.266 25.3362 70.1726C25.7422 70.4622 26.0563 70.5322 26.5402 70.3161C28.3926 69.4892 30.2738 68.7289 32.1367 67.9265C32.513 67.7646 32.772 67.8154 32.9653 68.1759C32.9995 68.483 32.8017 68.6099 32.5593 68.7114C30.3351 69.6397 28.1117 70.5707 25.8883 71.5009H25.8875Z" fill="#2A2627"/>
<path d="M7.59569 47.0717C7.87306 47.0376 8.06119 47.1417 8.19856 47.3946C10.3721 51.4039 12.5648 55.4026 14.7191 59.4223C15.3701 60.6368 15.9274 61.903 16.4988 63.1595C16.5863 63.352 16.5916 63.6626 16.4909 63.8324C16.4279 63.9382 16.0937 63.8814 15.8811 63.898L15.8732 63.8901C15.8067 63.8455 15.7402 63.8 15.6737 63.7554C15.5827 63.4614 15.5197 63.156 15.3963 62.8769C15.1084 62.2276 14.8136 61.5792 14.4837 60.9501C12.7398 57.6181 10.9942 54.287 9.22669 50.9681C8.66756 49.9181 8.03931 48.9057 7.43556 47.8802C7.24306 47.5539 7.23169 47.28 7.59657 47.0735L7.59569 47.0717Z" fill="#272324"/>
<path d="M39.4395 56.4483C38.7797 56.7966 38.3413 56.5314 38.3326 55.7877C38.3317 55.6792 38.2809 55.5628 38.2284 55.4639C36.0637 51.3777 33.8946 47.2932 31.7298 43.2069C31.6625 43.0801 31.6257 42.9366 31.575 42.8009C31.7342 42.6548 31.8821 42.4151 32.0562 42.3932C32.1892 42.3766 32.4097 42.6093 32.5007 42.7791C34.6698 46.8583 36.8258 50.9437 38.9862 55.0273C39.107 55.2557 39.275 55.4666 39.3528 55.7081C39.4281 55.9399 39.4141 56.2007 39.4403 56.4492L39.4395 56.4483Z" fill="#282425"/>
<path d="M15.8723 63.8884L15.8801 63.8962C15.8705 64.1683 15.9046 64.4518 15.8408 64.7108C15.7244 65.1825 15.874 65.5614 16.2161 65.837C16.9739 66.446 17.7535 67.0296 18.5401 67.6019C20.0215 68.679 21.5134 69.7421 23.0009 70.8096C23.2704 71.003 23.3824 71.2401 23.2223 71.5586C23.007 71.8456 22.7743 71.752 22.5433 71.5848C20.7058 70.2583 18.8569 68.9467 17.0378 67.5966C16.413 67.1337 15.8163 66.6148 15.2886 66.0452C14.7803 65.4957 14.7286 64.8132 15.1338 64.1544C15.216 64.0205 15.4138 63.9566 15.5581 63.8604C15.6631 63.87 15.7681 63.8787 15.8731 63.8884H15.8723Z" fill="#282425"/>
<path d="M36.8976 39.1118C37.2931 39.0006 37.6229 38.9079 37.9729 38.8099C37.9213 38.669 37.8154 38.529 37.8461 38.4345C37.9073 38.2473 38.0097 38.0241 38.1637 37.9366C38.2529 37.8859 38.5714 38.0329 38.6204 38.1572C38.7648 38.5203 38.9512 38.5282 39.2907 38.4319C40.1106 38.1992 40.9462 38.0215 41.7757 37.822C41.8037 37.815 41.8326 37.8089 41.8606 37.8019C42.1712 37.7267 42.4704 37.7354 42.5606 38.1055C42.6533 38.4888 42.3654 38.6008 42.0644 38.6725C41.1781 38.8852 40.2926 39.0987 39.4071 39.313C39.3554 39.3253 39.3064 39.3498 39.2259 39.3787C39.3528 39.7033 39.5374 40.0664 39.1061 40.2475C38.5478 40.4829 38.5723 39.8783 38.3282 39.6271C37.9843 39.726 37.6378 39.8258 37.2379 39.9404C37.4051 40.2423 37.5634 40.524 37.7174 40.8093C37.8688 41.0884 38.0202 41.3938 37.6509 41.602C37.3219 41.7866 37.0971 41.5915 36.9658 41.2879C36.5467 40.3228 36.1258 39.3576 35.7224 38.3855C35.6122 38.1195 35.6533 37.8448 35.9718 37.7441C36.3078 37.6383 36.4811 37.836 36.5729 38.1432C36.6683 38.4599 36.7812 38.7714 36.8958 39.1126L36.8976 39.1118Z" fill="#262223"/>
<path d="M42.823 42.7159C42.9945 42.7422 43.1923 42.7255 43.3314 42.8069C43.4924 42.9014 43.7339 43.1254 43.705 43.2182C43.649 43.394 43.4451 43.6032 43.2666 43.6452C42.8003 43.7563 42.3146 43.8175 41.8343 43.8289C41.6496 43.8333 41.3985 43.6942 41.2883 43.5402C41.1299 43.3197 41.3066 43.1123 41.5271 43.0362C41.9454 42.89 42.3776 42.7833 42.8038 42.6599C42.8099 42.6783 42.8169 42.6975 42.823 42.7159Z" fill="#2E2A2B"/>
<path d="M15.8721 63.8884C15.7671 63.8788 15.6621 63.87 15.5571 63.8604C15.5956 63.8245 15.6341 63.7895 15.6735 63.7537C15.74 63.7983 15.8065 63.8438 15.873 63.8884H15.8721Z" fill="#CFD1D2"/>
<path d="M1.37622 15.4187H15.371V29.4213H1.37622V15.4187ZM3.5156 18.9957H3.5016C3.55497 20.1883 3.60222 21.3809 3.66172 22.5727C3.73085 23.9421 4.34072 25.0192 5.4721 25.7857C6.32172 26.3615 7.1836 26.9206 8.06122 27.4517C8.2196 27.548 8.53372 27.5576 8.68685 27.4631C9.66335 26.8593 10.6337 26.2433 11.5673 25.5766C12.3531 25.0166 12.9035 24.2186 12.998 23.2657C13.1581 21.661 13.194 20.0431 13.2587 18.4304C13.271 18.1137 13.0461 17.93 12.7136 17.9405C12.3933 17.951 12.074 17.9807 11.7546 17.9965C10.4473 18.0621 9.13922 18.1793 7.83285 18.1741C6.64197 18.1688 5.45197 18.021 4.2611 17.951C3.6171 17.9133 3.4876 18.0516 3.49985 18.6903C3.5016 18.7918 3.50947 18.8933 3.51472 18.9948L3.5156 18.9957Z" fill="#87C0E8"/>
<path d="M16.5853 45.1642C19.1552 44.7993 21.6857 44.4405 24.2906 44.0713C24.1821 44.5875 24.106 45.025 23.987 45.452C23.9598 45.5509 23.7927 45.6568 23.6755 45.6778C21.6638 46.0348 19.6487 46.376 17.6362 46.7278C17.4035 46.7689 17.2591 46.7295 17.1637 46.4854C16.9966 46.0558 16.7945 45.6393 16.5845 45.165L16.5853 45.1642Z" fill="#CDCFD0"/>
<path d="M30.2075 65.983C29.9826 66.0381 29.7612 66.1108 29.5337 66.1449C29.2738 66.1843 29.0726 66.0416 29.0927 65.7914C29.1067 65.6164 29.2423 65.3906 29.3911 65.3023C29.595 65.1824 29.889 65.2095 29.8321 64.8394C29.7778 64.4841 29.5573 64.3065 29.2327 64.2383C28.615 64.1079 28.0576 64.331 27.5002 64.5506C26.7031 64.8656 25.899 65.0958 25.0458 64.7615C25.0056 64.7458 24.9627 64.7361 24.9233 64.7178C24.2522 64.4141 24.1787 64.1446 24.6066 63.5558C24.6818 63.4516 24.7606 63.3501 24.9242 63.1331C24.1253 63.3641 23.4498 63.5584 22.6868 63.7789C23.2442 64.1578 23.7403 64.4964 24.2365 64.8324C24.7527 65.1824 25.2602 65.5455 25.7913 65.8719C25.9401 65.9629 26.172 66.0023 26.34 65.9611C26.8308 65.8404 27.3112 65.6733 27.7916 65.5131C28.0497 65.4274 28.2667 65.4633 28.3752 65.7231C28.489 65.9944 28.384 66.2149 28.1092 66.3208C27.7767 66.4494 27.4355 66.5553 27.0855 66.676C27.6192 67.2325 27.7242 67.2456 28.3393 66.9963C28.9422 66.7513 29.553 66.522 30.1707 66.3181C30.3501 66.2586 30.6003 66.2473 30.7552 66.3304C30.8978 66.4074 31.0308 66.6428 31.0265 66.8046C31.023 66.9376 30.827 67.1634 30.6931 67.1818C29.637 67.327 28.7007 67.782 27.7662 68.2484C27.2351 68.5135 27.0671 68.433 26.9376 67.8485C26.9183 67.7636 26.8405 67.6849 26.7748 67.6184C26.172 67.0033 25.5096 66.9595 24.8043 67.4416C25.3066 67.7549 25.8211 68.0813 26.3408 68.3989C26.606 68.5608 26.7197 68.7865 26.5596 69.0569C26.3907 69.3421 26.1352 69.2975 25.878 69.1461C23.7447 67.8853 21.713 66.4765 19.7696 64.9409C19.6462 64.8429 19.4642 64.772 19.3093 64.7711C19.0416 64.7711 18.8395 64.7178 18.7922 64.4281C18.7441 64.1306 18.9103 63.9635 19.1781 63.8821C19.83 63.6853 20.4818 63.4875 21.1355 63.2976C22.4847 62.9056 23.8305 62.497 25.1902 62.1409C25.5883 62.0368 25.8675 61.8644 26.137 61.5538C27.3777 60.1258 29 59.4695 30.8567 59.3479C31.051 59.3348 31.254 59.459 31.4535 59.5185C31.4753 60.0505 31.3852 60.1608 30.8742 60.2211C30.7447 60.2369 30.6143 60.2518 30.4848 60.2666C28.1101 60.5414 26.5771 61.9563 25.4238 64.0256C25.7161 64.0256 25.9637 64.0676 26.1912 64.016C26.5841 63.9268 26.9577 63.75 27.3515 63.6643C27.9535 63.533 28.5633 63.3755 29.1723 63.3606C29.8426 63.344 30.3571 63.7124 30.6091 64.3599C30.8532 64.9855 30.6677 65.5219 30.2101 65.983H30.2075ZM20.5676 64.4369C21.1188 64.8595 21.6395 65.2594 22.1312 65.6374C22.4882 65.4834 22.7997 65.3495 23.1261 65.2086C21.9238 64.1018 21.6447 64.0143 20.5676 64.4369ZM23.0981 66.2586C23.6493 67.0103 24.2811 66.6568 24.9137 66.3916C24.3065 65.8955 23.6371 65.8509 23.0981 66.2586Z" fill="#292526"/>
<path d="M40.29 14.5358C39.1901 15.1929 38.0255 15.556 36.7261 15.3399C36.6316 15.3241 36.517 15.4003 36.4199 15.4484C36.3717 15.4729 36.3411 15.5324 36.3009 15.5744C35.3384 16.5658 35.5702 16.5736 34.3697 15.7555C33.7616 15.3408 33.2226 14.8192 32.6757 14.3205C32.2549 13.9372 32.2671 13.7684 32.6591 13.3405C33.003 12.9651 33.3521 12.595 33.7091 12.21C33.542 11.8661 33.3565 11.5257 33.2077 11.1705C32.9032 10.4442 32.8114 9.67687 32.8849 8.90075C32.9164 8.563 32.8411 8.3425 32.5926 8.10713C31.7237 7.28288 31.7264 7.21113 32.4876 6.274C32.9531 5.70088 33.4239 5.13038 33.9209 4.58438C34.3102 4.1565 34.4809 4.17225 34.8974 4.55463C35.2824 4.90813 35.6726 5.25638 36.0707 5.616C37.1654 4.95625 38.3309 4.60275 39.6294 4.804C39.7457 4.82238 39.912 4.70163 40.0144 4.60363C41.0084 3.65863 40.6977 3.49938 42.0146 4.4295C42.6289 4.8635 43.1792 5.3885 43.7462 5.88638C44.0481 6.1515 44.0752 6.42975 43.7611 6.74038C43.3796 7.1175 43.0331 7.5305 42.6516 7.9505C43.1093 8.77388 43.468 9.63837 43.4951 10.6044C43.4977 10.7067 43.5258 10.8153 43.4995 10.9089C43.3193 11.5634 43.615 12.0087 44.1155 12.3762C44.4952 12.6545 44.5171 12.9844 44.2292 13.3431C43.6132 14.1096 43.0051 14.8814 42.3742 15.6348C42.1205 15.9384 41.8309 15.969 41.5167 15.6558C41.1265 15.2664 40.703 14.9102 40.2909 14.5366L40.29 14.5358ZM41.963 14.8499C42.4714 14.2085 42.9544 13.5978 43.4969 12.9135C43.2877 12.8269 43.1364 12.7009 43.034 12.7324C42.026 13.043 42.5545 12.0744 42.2605 11.7909C42.1914 11.7244 42.3025 11.4706 42.3322 11.3026C42.334 11.2913 42.3559 11.2842 42.362 11.272C42.4443 11.0918 42.5965 10.9106 42.5956 10.7304C42.5921 9.9 42.3681 9.12913 41.8755 8.44313C41.5167 7.9435 41.5325 7.85338 41.9464 7.39575C42.2649 7.04313 42.5842 6.6905 42.9412 6.29588C42.3042 5.78488 41.6987 5.29925 41.0259 4.76025C40.9322 4.96325 40.7931 5.11813 40.8264 5.21438C41.1589 6.19875 40.2322 5.735 39.933 5.97738C39.8359 6.05613 39.5007 6.00713 39.4159 5.90213C39.1945 5.62913 38.9381 5.62738 38.6441 5.651C37.8295 5.71663 37.0779 5.959 36.426 6.45863C36.0944 6.71325 35.8389 6.6555 35.5554 6.3685C35.1992 6.00713 34.8064 5.6825 34.3872 5.3045C33.9322 5.8925 33.486 6.463 33.052 7.04225C33.0056 7.1035 32.9934 7.254 33.0354 7.30213C33.0984 7.37475 33.2497 7.45525 33.3171 7.4255C33.5892 7.30913 33.8797 7.3345 33.9567 7.58738C34.0722 7.96538 34.0582 8.38363 34.0924 8.78525C34.095 8.81325 34.0399 8.85963 34.0031 8.87538C33.7249 8.99 33.7494 9.23062 33.7555 9.46162C33.7782 10.3287 34.0346 11.1215 34.5552 11.8171C34.8002 12.1444 34.7757 12.4069 34.4844 12.6956C34.1265 13.05 33.801 13.4376 33.4125 13.8646C34.0565 14.3721 34.6655 14.8525 35.2745 15.3329C35.3288 15.3206 35.383 15.3084 35.4381 15.2953C35.4583 15.1343 35.481 14.9741 35.4985 14.8131C35.5108 14.7011 35.4862 14.576 35.5274 14.4771C35.6455 14.1971 36.7891 14.0011 36.965 14.2479C37.161 14.5226 37.4077 14.5279 37.6851 14.5069C38.5129 14.443 39.2785 14.1971 39.9444 13.6905C40.276 13.4385 40.5376 13.4998 40.8185 13.7876C41.1624 14.1411 41.5421 14.4605 41.9665 14.8499H41.963Z" fill="#2B2728"/>
<path d="M67.4544 33.9581C67.2837 34.0045 67.1035 34.1121 66.9425 34.0885C64.3446 33.714 62.5255 31.4959 62.634 28.8578C62.7355 26.3876 64.2431 24.3025 66.5715 23.6104C68.7345 22.9673 70.7225 23.4459 72.308 25.0515C73.7544 26.5154 74.2164 28.3468 73.7299 30.3619C73.4044 31.7094 72.728 32.8408 71.4155 33.4541C71.0322 33.6335 70.6052 33.9258 70.1721 33.5128C70.0242 33.1076 70.1651 32.8723 70.5869 32.7848C70.7417 32.7524 70.8957 32.6973 71.0375 32.6281C71.7681 32.2711 72.2765 31.7146 72.5915 30.9114C71.9387 30.9998 71.3543 31.1188 70.7663 31.1424C70.4224 31.1564 70.2876 31.3043 70.1739 31.579C69.9682 32.0751 69.7477 32.5651 69.5237 33.0534C69.3899 33.3456 69.1781 33.5618 68.8386 33.4017C68.4921 33.238 68.5376 32.9449 68.6907 32.657C68.752 32.5415 68.8272 32.433 68.8824 32.3149C69.0372 31.978 69.1851 31.6376 69.3575 31.2483C68.4921 31.1599 67.709 31.0794 66.8725 30.9936C66.981 31.3813 67.037 31.754 66.5619 31.8144C66.1086 31.8713 66.05 31.4801 65.9555 31.1599C65.9476 31.1319 65.938 31.1039 65.9336 31.075C65.8942 30.7941 65.7306 30.6673 65.455 30.5938C65.063 30.4896 64.6806 30.3409 64.3079 30.179C64.0323 30.0591 63.964 29.7774 64.1127 29.5586C64.202 29.4283 64.4802 29.346 64.6535 29.3723C64.9597 29.4195 65.2511 29.5665 65.5854 29.6846C65.5276 29.0966 65.4742 28.5577 65.4165 27.967C64.8985 28.1018 64.4277 28.2523 63.9456 28.3398C63.6105 28.4001 63.5282 28.5655 63.5239 28.8735C63.4976 30.9385 64.8495 32.8784 66.9477 33.1916C67.4264 33.2634 67.5331 33.4568 67.4552 33.9599L67.4544 33.9581ZM65.658 25.0813C64.7655 25.6141 64.2248 26.42 63.8153 27.414C64.3473 27.2915 64.8128 27.1962 65.2695 27.0702C65.3614 27.0448 65.4725 26.91 65.4883 26.8111C65.5758 26.2529 65.637 25.6911 65.7079 25.1303C65.7254 25.1119 65.7429 25.0935 65.7595 25.0751C65.7262 25.0769 65.6921 25.0786 65.6589 25.0804L65.658 25.0813ZM69.9367 27.8025H66.3291C66.407 28.4999 66.463 29.1054 66.5514 29.7056C66.5671 29.815 66.6993 29.9795 66.7955 29.9935C67.7256 30.1309 68.6593 30.2411 69.6778 30.3706C69.7705 29.4519 69.8527 28.6399 69.9367 27.8025ZM69.837 26.8348C69.5806 25.9458 69.3531 25.1556 69.0924 24.2474C68.4379 24.3008 67.7816 24.3454 67.128 24.4145C67.0239 24.425 66.8629 24.5239 66.8427 24.6096C66.6642 25.3481 66.5111 26.0919 66.351 26.8356H69.837V26.8348ZM70.6376 30.2534C71.097 30.1886 71.5293 30.1501 71.9528 30.0635C73.0439 29.8404 73.05 29.8212 72.9739 28.7108C72.9695 28.653 72.9774 28.5891 72.9555 28.5384C72.9292 28.4771 72.8872 28.3905 72.8356 28.3774C72.1706 28.205 71.5039 28.044 70.8389 27.8813C70.7689 28.7116 70.7067 29.4466 70.6385 30.2543L70.6376 30.2534ZM72.6676 27.3423C72.3307 26.1908 71.1897 25.0016 70.2342 24.7549C70.383 25.3823 70.5248 26.0333 70.7006 26.6746C70.7356 26.8024 70.8835 26.9608 71.0077 26.9923C71.5415 27.1288 72.0857 27.2233 72.6685 27.3414L72.6676 27.3423Z" fill="#272426"/>
<path d="M67.4545 33.9582C67.5324 33.4551 67.4256 33.2608 66.947 33.19C64.8487 32.8776 63.496 30.9368 63.5231 28.8718C63.5275 28.5638 63.6097 28.3985 63.9449 28.3381C64.427 28.2515 64.8977 28.1001 65.4157 27.9653C65.4735 28.556 65.5269 29.095 65.5846 29.683C65.2504 29.5648 64.959 29.4178 64.6527 29.3706C64.4795 29.3443 64.2012 29.4266 64.112 29.557C63.9624 29.7757 64.0315 30.0575 64.3071 30.1773C64.679 30.3401 65.0622 30.488 65.4542 30.5921C65.7299 30.6656 65.8935 30.7925 65.9329 31.0733C65.9372 31.1022 65.946 31.1302 65.9547 31.1582C66.0492 31.4776 66.1079 31.8696 66.5611 31.8127C67.0362 31.7532 66.9802 31.3796 66.8717 30.992C67.7091 31.0777 68.4922 31.1582 69.3567 31.2466C69.1835 31.6368 69.0365 31.9763 68.8816 32.3132C68.8274 32.4313 68.7521 32.5398 68.69 32.6553C68.5369 32.9441 68.4914 33.2372 68.8379 33.4C69.1782 33.5601 69.39 33.344 69.523 33.0517C69.747 32.5635 69.9675 32.0735 70.1731 31.5773C70.2869 31.3026 70.4216 31.1547 70.7655 31.1407C71.3544 31.1162 71.9389 30.9972 72.5907 30.9097C72.2757 31.713 71.7674 32.2695 71.0367 32.6265C70.895 32.6956 70.741 32.7507 70.5861 32.7831C70.1652 32.8715 70.0244 33.106 70.1714 33.5111C69.3025 33.8882 68.396 34.03 67.4536 33.9565L67.4545 33.9582Z" fill="#87BFE6"/>
<path d="M3.5154 18.9955C3.51015 18.894 3.50227 18.7925 3.50052 18.691C3.48827 18.0523 3.61777 17.914 4.26177 17.9517C5.45265 18.0217 6.64265 18.1695 7.83352 18.1748C9.14077 18.1809 10.448 18.0628 11.7553 17.9972C12.0755 17.9814 12.394 17.9517 12.7143 17.9412C13.0468 17.9298 13.2716 18.1144 13.2594 18.4312C13.1955 20.0447 13.1596 21.6617 12.9986 23.2664C12.9033 24.2193 12.3529 25.0173 11.568 25.5773C10.6335 26.2432 9.66315 26.86 8.68752 27.4638C8.5344 27.5583 8.22027 27.5487 8.0619 27.4524C7.18427 26.9213 6.3224 26.3622 5.47277 25.7864C4.3414 25.0199 3.73152 23.9428 3.6624 22.5734C3.60202 21.3817 3.55477 20.189 3.50227 18.9973H3.51627L3.5154 18.9955ZM12.3931 18.838C9.68415 19.1644 7.08277 19.1635 4.42277 18.8433C4.4849 20.1733 4.53565 21.4333 4.60477 22.6915C4.65377 23.584 5.04402 24.326 5.76065 24.8432C6.55602 25.4172 7.39515 25.9308 8.22902 26.4497C8.32527 26.5092 8.53615 26.4785 8.64377 26.4112C9.3709 25.957 10.0928 25.4942 10.7998 25.0094C11.4 24.5973 11.9259 24.0679 12.0125 23.3277C12.1849 21.8647 12.2663 20.3903 12.3923 18.838H12.3931Z" fill="#282527"/>
<path d="M20.5674 64.4371C21.6445 64.0145 21.9236 64.102 23.1259 65.2088C22.8004 65.3488 22.488 65.4836 22.131 65.6376C21.6384 65.2596 21.1178 64.8606 20.5674 64.4371Z" fill="#C7C9CA"/>
<path d="M23.0979 66.2587C23.6369 65.8501 24.3063 65.8956 24.9135 66.3917C24.2809 66.6569 23.6492 67.0104 23.0979 66.2587Z" fill="#C7C9CA"/>
<path d="M41.9629 14.8499C41.5385 14.4605 41.1597 14.1411 40.8149 13.7876C40.534 13.4998 40.2724 13.4376 39.9408 13.6905C39.2749 14.1971 38.5093 14.443 37.6815 14.5069C37.4042 14.5288 37.1574 14.5226 36.9614 14.2479C36.7855 14.0011 35.6419 14.198 35.5238 14.4771C35.4818 14.5751 35.5063 14.7003 35.4949 14.8131C35.4783 14.9741 35.4555 15.1343 35.4345 15.2953C35.3803 15.3075 35.326 15.3198 35.2709 15.3329C34.6619 14.8525 34.0529 14.3721 33.4089 13.8646C33.7965 13.4376 34.122 13.05 34.4808 12.6956C34.7722 12.4069 34.7967 12.1444 34.5517 11.8171C34.031 11.1215 33.7747 10.3296 33.7519 9.46163C33.7458 9.23063 33.7213 8.99001 33.9995 8.87538C34.0372 8.85963 34.0914 8.81326 34.0888 8.78525C34.0547 8.38363 34.0687 7.96625 33.9532 7.58738C33.8762 7.33451 33.5857 7.30825 33.3135 7.4255C33.2453 7.45438 33.0948 7.37475 33.0318 7.30213C32.9898 7.254 33.0029 7.1035 33.0484 7.04225C33.4824 6.463 33.9295 5.8925 34.3837 5.3045C34.8028 5.68338 35.1965 6.00713 35.5518 6.3685C35.8344 6.65638 36.0908 6.71326 36.4224 6.45863C37.0752 5.95901 37.8268 5.71663 38.6405 5.651C38.9345 5.62738 39.1909 5.62913 39.4123 5.90213C39.4972 6.00713 39.8323 6.05613 39.9294 5.97738C40.2295 5.735 41.1553 6.19875 40.8228 5.21438C40.7904 5.11813 40.9287 4.96325 41.0223 4.76025C41.6943 5.29925 42.2998 5.78488 42.9377 6.29588C42.5807 6.69138 42.2613 7.04313 41.9428 7.39575C41.5289 7.85338 41.514 7.9435 41.8719 8.44313C42.3645 9.12913 42.5885 9.89913 42.592 10.7304C42.592 10.9106 42.4415 11.0918 42.3584 11.272C42.3532 11.2843 42.3304 11.2913 42.3287 11.3026C42.2989 11.4698 42.1878 11.7244 42.2569 11.7909C42.5509 12.0744 42.0224 13.043 43.0304 12.7324C43.1328 12.7009 43.2842 12.8269 43.4933 12.9135C42.9508 13.5978 42.4678 14.2085 41.9594 14.8499H41.9629ZM37.0043 11.7498C37.4514 12.2126 37.9607 12.0998 38.4787 11.9099C38.6869 12.2608 38.9573 12.3246 39.2583 12.0411C39.4972 11.8154 39.7422 11.5809 39.9207 11.3088C40.4002 10.5781 40.4212 9.79413 39.9907 9.04513C39.5287 8.24188 38.8129 7.80438 37.8618 7.8945C36.9833 7.97763 36.4049 8.4965 36.0829 9.29713C35.6979 10.2535 36.1162 11.454 37.0052 11.7506L37.0043 11.7498Z" fill="#CFD1D2"/>
<path d="M69.9367 27.8025C69.8518 28.6399 69.7705 29.4519 69.6777 30.3706C68.6592 30.242 67.7256 30.1309 66.7955 29.9935C66.6984 29.9795 66.5671 29.815 66.5513 29.7056C66.4638 29.1054 66.407 28.4999 66.3291 27.8025H69.9367Z" fill="#88C1E9"/>
<path d="M69.8371 26.8348H66.3511C66.5112 26.092 66.6643 25.3473 66.8428 24.6088C66.8638 24.5231 67.0239 24.4251 67.1281 24.4137C67.7817 24.3455 68.4371 24.3 69.0925 24.2466C69.3541 25.1548 69.5816 25.945 69.8371 26.834V26.8348Z" fill="#87C0E8"/>
<path d="M70.6376 30.2534C70.7058 29.4457 70.768 28.7107 70.838 27.8804C71.503 28.044 72.1706 28.205 72.8347 28.3765C72.8863 28.3896 72.9283 28.4762 72.9546 28.5375C72.9765 28.5882 72.9695 28.6521 72.973 28.7099C73.0482 29.8211 73.043 29.8395 71.9518 30.0626C71.5292 30.1492 71.0961 30.1877 70.6367 30.2525L70.6376 30.2534Z" fill="#87C0E8"/>
<path d="M72.6676 27.3424C72.0849 27.2242 71.5407 27.1297 71.0069 26.9932C70.8827 26.9617 70.7348 26.8034 70.6998 26.6756C70.5239 26.0342 70.3821 25.3832 70.2334 24.7559C71.1889 25.0026 72.3299 26.1917 72.6668 27.3432L72.6676 27.3424Z" fill="#83BAE0"/>
<path d="M65.7071 25.131C65.6371 25.6919 65.5758 26.2537 65.4875 26.8119C65.4717 26.9099 65.3615 27.0447 65.2687 27.0709C64.812 27.1969 64.3465 27.2923 63.8145 27.4148C64.224 26.4199 64.7647 25.6149 65.6572 25.082C65.6721 25.0995 65.6887 25.1162 65.7062 25.1319L65.7071 25.131Z" fill="#83BAE0"/>
<path d="M65.658 25.0812C65.6912 25.0794 65.7253 25.0777 65.7586 25.0759C65.7411 25.0943 65.7236 25.1127 65.707 25.1311C65.6895 25.1153 65.6728 25.0987 65.658 25.0812Z" fill="#83BAE0"/>
<path d="M37.0043 11.7499C36.1153 11.4532 35.6971 10.2527 36.0821 9.29635C36.4041 8.49573 36.9825 7.97685 37.861 7.89373C38.8121 7.8036 39.5287 8.2411 39.9898 9.04435C40.4203 9.79335 40.3993 10.5774 39.9198 11.308C39.7413 11.5801 39.4963 11.8146 39.2574 12.0404C38.9564 12.3247 38.6861 12.2609 38.4778 11.9091C38.5697 11.7105 38.6476 11.504 38.7578 11.3167C38.9215 11.0367 39.1647 10.7909 39.2741 10.4934C39.5094 9.8546 39.2225 9.1686 38.6703 8.8991C38.1147 8.62785 37.4147 8.7661 37.0953 9.20885C36.7025 9.7531 36.7663 10.4216 37.2616 10.9457C37.6431 11.3491 37.5669 11.5862 37.0052 11.749L37.0043 11.7499Z" fill="#2A2627"/>
<path d="M7.05566 22.7975C8.09866 22.1491 9.09441 21.5244 10.0972 20.9119C10.2398 20.8253 10.4288 20.7281 10.5732 20.7561C10.7079 20.7815 10.8934 20.9574 10.9083 21.0843C10.9258 21.233 10.826 21.464 10.7009 21.5489C10.0534 21.9916 9.38316 22.3994 8.71904 22.8176C8.26404 23.1046 7.81079 23.3925 7.35141 23.6725C6.93929 23.9228 6.75379 23.8825 6.47466 23.5036C6.25854 23.2114 6.03541 22.9235 5.83154 22.6234C5.68891 22.4143 5.55591 22.1806 5.85429 21.9838C6.13604 21.7983 6.37579 21.8648 6.56916 22.1316C6.72229 22.3434 6.87716 22.5534 7.05479 22.7966L7.05566 22.7975Z" fill="#2B2728"/>
</svg>
