<svg width="1353" height="1059" viewBox="0 0 1353 1059" fill="none" xmlns="http://www.w3.org/2000/svg">
<path fill-rule="evenodd" clip-rule="evenodd" d="M38.1284 1.1254C17.6921 1.1254 1.12573 17.6869 1.12573 38.1172V1020.88C1.12573 1041.31 17.6921 1057.87 38.1284 1057.87H1257.66L1350.89 964.672V38.1172C1350.89 17.6869 1334.32 1.1254 1313.88 1.1254H38.1284ZM0 38.1172C0 17.0654 17.0704 0 38.1284 0H1313.88C1334.94 0 1352.01 17.0654 1352.01 38.1172V965.138L1258.12 1059H38.1284C17.0704 1059 0 1041.93 0 1020.88V38.1172Z" fill="#3B3B3B"/>
<path d="M1257.88 1058.44H38.1284C17.3812 1058.44 0.562866 1041.62 0.562866 1020.88V38.117C0.562866 17.376 17.3812 0.5625 38.1284 0.5625H1313.88C1334.63 0.5625 1351.45 17.376 1351.45 38.117V964.905L1257.89 1058.44H1257.88Z" fill="white"/>
<path d="M1351.44 964.905H1295.43C1274.69 964.905 1257.87 981.719 1257.87 1002.46V1058.45L1351.43 964.917L1351.44 964.905Z" fill="#89C3EB"/>
</svg>
