<svg width="1512" height="290" viewBox="0 0 1512 290" fill="none" xmlns="http://www.w3.org/2000/svg">
<path d="M260.2 189.51C254.28 190.93 248.5 191.26 242.86 190.48C237.21 189.7 231.95 187.34 227.06 183.39C225.02 181.68 224.02 179.87 224.08 177.96C224.14 176.05 225.13 174.23 226.95 172.52C228.72 170.86 230.54 170.02 232.38 170.09C234.22 170.16 236.23 170.88 238.32 172.25C240.85 173.9 243.66 175.03 246.74 175.55C249.82 176.07 253.34 175.85 257.32 174.9C262.81 173.58 266.25 171.81 267.66 169.55C269.06 167.29 269.42 164.64 268.71 161.6C268.26 159.65 267.4 158.08 266.16 156.9C264.91 155.71 262.59 154.84 259.19 154.28C255.79 153.73 250.7 153.48 243.91 153.57C235.68 153.68 229.21 152.26 224.51 149.24C219.8 146.22 216.68 141.78 215.18 135.89C213.93 131.01 214.06 126.43 215.59 122.17C217.11 117.91 219.85 114.18 223.82 111.01C227.78 107.84 232.81 105.51 238.9 104.05C245.32 102.51 251.16 102.28 256.39 103.37C261.63 104.45 266.13 106.3 269.91 108.89C271.97 110.39 273.01 112.11 273.01 114.03C273.01 115.96 272.16 117.89 270.46 119.84C268.76 121.79 266.97 122.79 265.1 122.85C263.23 122.91 261.19 122.29 259 121C256.81 119.71 254.34 118.76 251.62 118.17C248.89 117.58 245.73 117.72 242.13 118.58C238.29 119.5 235.35 121.03 233.32 123.13C231.29 125.24 230.67 127.88 231.45 131.07C231.76 132.31 232.42 133.49 233.42 134.6C234.42 135.71 236.36 136.58 239.21 137.19C242.06 137.81 246.46 138.12 252.35 138.1C262.31 138.06 269.95 139.71 275.17 143.07C280.39 146.43 283.7 151.29 285.12 157.61C286.93 165.65 285.53 172.42 280.98 177.93C276.43 183.44 269.52 187.28 260.2 189.52V189.51Z" fill="white" stroke="#3B3B3B" stroke-width="1.5" stroke-miterlimit="10"/>
<path d="M310.88 176.15C305.96 177.2 302.97 175.32 301.91 170.48C297 147.97 292.1 125.46 287.19 102.95C286.13 98.1001 288.16 95.1201 293.28 94.0201C293.58 93.9601 293.73 93.9201 294.02 93.8601C299.14 92.7701 302.21 94.6601 303.23 99.5101C305.29 109.33 306.32 114.24 308.39 124.05C320.55 121.49 332.73 119.04 344.93 116.7C343.04 106.85 342.09 101.92 340.19 92.0701C339.25 87.2001 341.35 84.2701 346.49 83.3001C346.84 83.2301 347.01 83.2001 347.36 83.1401C352.5 82.1701 355.52 84.1401 356.42 89.0201C360.6 111.68 364.78 134.33 368.97 156.99C369.87 161.87 367.85 164.76 362.91 165.69C362.58 165.75 362.41 165.78 362.07 165.85C357.13 166.78 354.19 164.83 353.26 159.95L347.66 130.84C335.54 133.17 323.44 135.61 311.36 138.14C313.39 147.81 315.42 157.48 317.46 167.15C318.48 172.01 316.53 174.94 311.6 176C311.31 176.06 311.17 176.09 310.89 176.15H310.88Z" fill="white" stroke="#3B3B3B" stroke-width="1.5" stroke-miterlimit="10"/>
<path d="M422.03 157.48C414.44 158.69 407.37 158.04 400.76 155.5C394.16 152.97 388.58 148.76 384.01 142.87C379.44 136.97 376.35 129.63 374.77 120.8C373.18 111.9 373.54 103.89 375.89 96.78C378.24 89.67 382.22 83.7701 387.83 79.13C393.44 74.49 400.22 71.52 408.13 70.26C416.04 69 423.38 69.72 430.11 72.39C436.84 75.06 442.43 79.43 446.87 85.47C451.31 91.5 454.14 99.01 455.39 107.96C456.63 116.83 455.98 124.78 453.47 131.8C450.97 138.82 446.99 144.55 441.55 149C436.11 153.45 429.61 156.27 422.02 157.48H422.03ZM419.65 142.55C424.48 141.78 428.45 139.93 431.59 136.98C434.73 134.03 436.93 130.28 438.2 125.72C439.47 121.16 439.69 116.04 438.85 110.34C438 104.56 436.29 99.68 433.72 95.69C431.15 91.71 427.88 88.78 423.92 86.92C419.96 85.06 415.49 84.5201 410.53 85.3101C405.65 86.09 401.61 87.98 398.42 90.98C395.23 93.98 393.01 97.78 391.77 102.37C390.52 106.96 390.4 112.14 391.38 117.9C392.35 123.58 394.17 128.38 396.84 132.31C399.5 136.24 402.79 139.12 406.69 140.94C410.59 142.77 414.91 143.3 419.66 142.54L419.65 142.55Z" fill="white" stroke="#3B3B3B" stroke-width="1.5" stroke-miterlimit="10"/>
<path d="M503.87 144.39C501.62 144.66 499.47 144.35 497.4 143.48C495.34 142.6 493.76 141.11 492.68 138.98C481.75 117.29 470.62 95.7202 459.3 74.2302C457.83 71.5202 457.53 69.3002 458.39 67.5702C459.26 65.8402 461.48 64.7302 465.07 64.2502C469.82 63.6202 473.23 65.3602 475.28 69.4502C484.08 87.2802 492.72 105.2 501.21 123.19C505.26 103.7 509.48 84.2602 513.86 64.8402C514.88 60.3802 517.87 57.8802 522.8 57.3502C525.81 57.0302 528.01 57.6302 529.38 59.1302C530.76 60.6402 531.09 62.8302 530.38 65.7202C524.45 89.2702 518.73 112.86 513.22 136.51C512.67 138.83 511.49 140.65 509.69 141.99C507.89 143.33 505.95 144.12 503.86 144.37L503.87 144.39Z" fill="white" stroke="#3B3B3B" stroke-width="1.5" stroke-miterlimit="10"/>
<path d="M558.34 138.23C553.03 138.73 550.12 136.36 549.61 131.11C547.41 108.5 545.21 85.8798 543.02 63.2698C542.51 58.0098 545.01 55.1098 550.54 54.5998C564.97 53.2898 579.41 52.0898 593.86 50.9798C599.39 50.5698 602.32 52.7798 602.65 57.5698C602.98 62.3598 600.4 64.9398 594.91 65.3398C583.22 66.1998 571.53 67.1498 559.85 68.1998C560.55 75.9898 560.9 79.8898 561.6 87.6798C571.94 86.7498 582.29 85.8898 592.64 85.1198C598.08 84.7098 600.98 86.9198 601.32 91.6998C601.66 96.4898 599.13 99.0698 593.72 99.4798C583.44 100.25 573.16 101.09 562.89 102.02C563.65 110.48 564.03 114.71 564.79 123.17C576.62 122.11 588.46 121.15 600.31 120.28C605.66 119.89 608.51 122.1 608.84 126.89C609.17 131.68 606.68 134.25 601.36 134.64C587.01 135.73 572.68 136.92 558.35 138.21L558.34 138.23Z" fill="white" stroke="#3B3B3B" stroke-width="1.5" stroke-miterlimit="10"/>
<path d="M629.39 132.79C624.07 133.11 621.24 130.65 620.91 125.38C619.47 102.71 618.04 80.0299 616.6 57.3599C616.27 52.0899 618.82 49.2799 624.27 48.9499C629.72 48.6199 632.59 51.1099 632.89 56.3899C634.04 76.9199 635.19 97.4499 636.34 117.97C648.23 117.3 660.13 116.74 672.04 116.27C677.4 116.06 680.17 118.37 680.34 123.17C680.51 127.97 677.93 130.46 672.61 130.66C658.2 131.26 643.81 131.98 629.41 132.79H629.39Z" fill="white" stroke="#3B3B3B" stroke-width="1.5" stroke-miterlimit="10"/>
<path d="M732.53 129.16C727.2 129.22 724.5 126.62 724.42 121.34C724.09 98.6201 723.75 75.9001 723.42 53.1901C723.34 47.9101 726.07 45.2201 731.61 45.1601C746.09 45.0401 760.57 45.0201 775.05 45.1101C780.59 45.1601 783.33 47.6001 783.27 52.4001C783.21 57.2001 780.43 59.5601 774.92 59.5101C763.2 59.4101 751.49 59.4001 739.77 59.4801C739.83 67.3001 739.86 71.2201 739.91 79.0401C750.28 78.9601 760.66 78.9601 771.03 79.0401C776.48 79.0801 779.19 81.5101 779.13 86.3101C779.07 91.1101 776.34 93.4801 770.92 93.4401C760.62 93.3601 750.31 93.3601 740.01 93.4401C740.07 101.94 740.1 106.18 740.16 114.68C752.03 114.59 763.9 114.61 775.77 114.72C781.14 114.77 783.79 117.21 783.72 122.01C783.66 126.81 780.96 129.17 775.63 129.12C761.26 129.02 746.89 129.04 732.51 129.15L732.53 129.16Z" fill="white" stroke="#3B3B3B" stroke-width="1.5" stroke-miterlimit="10"/>
<path d="M803.62 129.57C798.37 129.45 795.8 126.77 795.9 121.49C796.33 98.7699 796.76 76.0599 797.18 53.3399C797.28 48.0599 800.06 45.4699 805.51 45.5899C806.21 45.6099 806.57 45.6099 807.27 45.6299C811.47 45.7299 814.74 47.5399 817.07 51.0399C828.44 68.5299 839.6 86.1399 850.58 103.88C851.3 87.6199 852.02 71.3499 852.73 55.0899C852.96 49.8099 855.85 47.2899 861.38 47.5599C866.83 47.8199 869.42 50.5999 869.15 55.8799C867.98 78.5699 866.81 101.26 865.64 123.95C865.37 129.22 862.73 131.73 857.73 131.49C857.2 131.46 856.93 131.45 856.4 131.43C852.2 131.23 849.1 129.37 847.06 125.84C835.92 107.46 824.58 89.2299 813.03 71.1099C812.59 88.0199 812.14 104.94 811.7 121.85C811.56 127.13 808.87 129.69 803.62 129.58V129.57Z" fill="white" stroke="#3B3B3B" stroke-width="1.5" stroke-miterlimit="10"/>
<path d="M916.35 137.16C908.7 136.58 902.05 134.31 896.36 130.33C890.66 126.35 886.32 120.97 883.34 114.18C880.36 107.39 879.1 99.5301 879.61 90.5801C880.13 81.5601 882.28 73.8401 886.13 67.4601C889.97 61.0801 895.09 56.2601 901.48 53.0401C907.87 49.8201 915.07 48.4901 923.04 49.1001C927.99 49.4801 932.61 50.4901 936.9 52.1201C941.19 53.7601 944.96 55.7701 948.2 58.1401C950.34 59.6901 951.4 61.4601 951.39 63.4201C951.39 65.3901 950.41 67.2901 948.62 69.1401C946.86 70.9501 945.05 71.8801 943.18 71.8001C941.31 71.7201 939.29 70.9001 937.17 69.4901C935.07 68.1001 932.65 66.9501 930.05 66.0201C927.44 65.0901 924.72 64.5201 921.89 64.3001C916.98 63.9301 912.66 64.8401 908.96 67.0301C905.25 69.2201 902.33 72.4101 900.18 76.5901C898.03 80.7801 896.78 85.7901 896.4 91.6101C896.03 97.3601 896.62 102.45 898.17 106.88C899.72 111.31 902.14 114.86 905.42 117.54C908.7 120.22 912.72 121.73 917.51 122.09C921.24 122.37 924.3 122.27 926.71 121.79C929.11 121.3 931.17 120.61 932.88 119.71C933.42 113.25 933.68 110.02 934.22 103.57C932.26 103.41 931.28 103.33 929.31 103.17C923.91 102.73 921.4 100.14 921.76 95.3501C922.13 90.5601 925.03 88.3701 930.46 88.8101C935.7 89.2301 938.31 89.4501 943.55 89.9101C948.98 90.3801 951.46 93.2601 950.98 98.5201C950.01 109.18 949.53 114.51 948.56 125.17C948.37 127.32 947.84 129.1 946.98 130.51C946.12 131.92 944.72 132.98 942.79 133.69C938.92 135.2 934.69 136.24 930.1 136.82C925.51 137.41 920.93 137.52 916.34 137.18L916.35 137.16Z" fill="white" stroke="#3B3B3B" stroke-width="1.5" stroke-miterlimit="10"/>
<path d="M969.52 139.81C964.29 139.28 961.93 136.4 962.44 131.15C964.64 108.54 966.85 85.9201 969.05 63.3101C969.56 58.0501 972.54 55.6901 977.97 56.2401C983.4 56.7901 985.85 59.7101 985.29 64.9601L978.18 132.75C977.63 138 974.74 140.35 969.51 139.82L969.52 139.81Z" fill="white" stroke="#3B3B3B" stroke-width="1.5" stroke-miterlimit="10"/>
<path d="M1001.35 143.28C996.13 142.67 993.81 139.76 994.4 134.51C996.94 111.93 999.49 89.3602 1002.03 66.7802C1002.62 61.5302 1005.63 59.2102 1011.06 59.8402C1011.76 59.9202 1012.11 59.9602 1012.81 60.0402C1016.99 60.5302 1020.08 62.6402 1022.08 66.3402C1031.79 84.8202 1041.28 103.39 1050.58 122.08C1052.81 105.95 1055.04 89.8302 1057.27 73.7002C1057.99 68.4702 1061.11 66.2302 1066.6 67.0102C1072.01 67.7802 1074.34 70.7902 1073.58 76.0202C1070.3 98.5002 1067.01 120.98 1063.73 143.46C1062.97 148.68 1060.1 150.93 1055.14 150.22C1054.61 150.14 1054.35 150.11 1053.82 150.03C1049.65 149.44 1046.72 147.3 1045.02 143.59C1035.62 124.25 1026.01 105.04 1016.17 85.9202C1014.15 102.72 1012.13 119.52 1010.11 136.32C1009.48 141.56 1006.55 143.86 1001.33 143.26L1001.35 143.28Z" fill="white" stroke="#3B3B3B" stroke-width="1.5" stroke-miterlimit="10"/>
<path d="M1086.49 154.94C1081.21 154.11 1078.97 151.1 1079.77 145.88C1083.22 123.42 1086.68 100.97 1090.13 78.5098C1090.93 73.2898 1094.08 71.0998 1099.57 71.9598C1113.92 74.2598 1128.24 76.6598 1142.56 79.1698C1148.03 80.1398 1150.34 83.0098 1149.48 87.7298C1148.62 92.4498 1145.47 94.3098 1140.03 93.3498C1128.45 91.2898 1116.86 89.3198 1105.25 87.4498C1104 95.1698 1103.38 99.0398 1102.13 106.76C1112.41 108.41 1122.67 110.14 1132.92 111.96C1138.31 112.91 1140.58 115.76 1139.73 120.49C1138.88 125.22 1135.78 127.09 1130.42 126.15C1120.24 124.35 1110.04 122.63 1099.84 120.99C1098.49 129.38 1097.81 133.57 1096.46 141.96C1108.22 143.86 1119.96 145.85 1131.68 147.95C1136.98 148.9 1139.2 151.75 1138.34 156.47C1137.48 161.19 1134.42 163.07 1129.15 162.13C1114.94 159.63 1100.73 157.24 1086.48 154.96L1086.49 154.94Z" fill="white" stroke="#3B3B3B" stroke-width="1.5" stroke-miterlimit="10"/>
<path d="M1156.9 167.26C1151.64 166.25 1149.5 163.16 1150.48 157.98C1154.69 135.65 1158.89 113.33 1163.1 90.9999C1164.08 85.8099 1167.3 83.7299 1172.77 84.7799C1187.05 87.5699 1201.31 90.4599 1215.55 93.4499C1221 94.6099 1223.21 97.5499 1222.19 102.24C1221.17 106.93 1217.96 108.68 1212.55 107.53C1201.03 105.08 1189.49 102.72 1177.94 100.45C1176.43 108.13 1175.68 111.97 1174.17 119.64C1184.4 121.64 1194.62 123.72 1204.81 125.88C1210.18 127.01 1212.35 129.94 1211.34 134.63C1210.33 139.32 1207.16 141.09 1201.83 139.97C1191.7 137.82 1181.55 135.76 1171.39 133.77C1169.75 142.11 1168.94 146.28 1167.3 154.61C1179.01 156.91 1190.69 159.3 1202.36 161.79C1207.64 162.92 1209.76 165.84 1208.74 170.53C1207.72 175.22 1204.59 176.99 1199.35 175.87C1185.21 172.89 1171.06 170.02 1156.88 167.25L1156.9 167.26Z" fill="white" stroke="#3B3B3B" stroke-width="1.5" stroke-miterlimit="10"/>
<path d="M1226.85 181.94C1221.7 180.77 1219.7 177.62 1220.85 172.47C1225.81 150.3 1230.76 128.12 1235.72 105.95C1236.87 100.8 1240.17 98.8202 1245.6 100.06C1256.22 102.51 1266.83 105 1277.43 107.55C1282.85 108.87 1287.36 110.81 1290.95 113.36C1294.53 115.91 1296.97 119.21 1298.24 123.25C1299.51 127.29 1299.39 132.26 1297.88 138.14C1296.01 145.42 1292.97 150.49 1288.78 153.34C1284.59 156.2 1279.52 157.41 1273.58 157.02C1275.7 166.35 1277.77 175.69 1279.79 185.04C1280.47 188.02 1280.17 190.26 1278.91 191.75C1277.65 193.25 1275.72 193.66 1273.11 193.01C1272.12 192.76 1271.62 192.64 1270.62 192.39C1266.28 191.31 1263.72 188.62 1262.93 184.31C1261.14 174.14 1259.29 163.98 1257.39 153.83C1251.36 152.39 1248.35 151.68 1242.31 150.28C1239.93 160.57 1238.74 165.71 1236.36 176C1235.17 181.14 1232 183.12 1226.85 181.94ZM1245.58 136.13C1254.13 138.11 1258.41 139.12 1266.94 141.19C1270.58 142.07 1273.63 142 1276.12 140.96C1278.6 139.92 1280.3 137.59 1281.21 133.94C1282.1 130.37 1281.67 127.54 1279.94 125.47C1278.21 123.39 1275.5 121.91 1271.82 121.02C1263.2 118.93 1258.89 117.91 1250.25 115.91C1248.38 124 1247.44 128.05 1245.57 136.14L1245.58 136.13Z" fill="white" stroke="#3B3B3B" stroke-width="1.5" stroke-miterlimit="10"/>
</svg>
